<svg width="61" height="48" viewBox="0 0 61 48" fill="none" xmlns="http://www.w3.org/2000/svg">
<g clip-path="url(#clip0_4041_1969)">
<path d="M38.808 141.241C38.6244 141.241 38.4761 141.133 38.3327 141.03C38.2137 140.944 38.1014 140.862 37.9936 140.862C37.9749 140.862 37.9568 140.865 37.9381 140.869C37.8153 140.901 37.7477 140.954 37.6695 141.015C37.5589 141.102 37.4335 141.2 37.1792 141.2C37.1624 141.2 37.1449 141.199 37.1267 141.198C36.8895 141.187 36.7413 141.087 36.6105 140.998C36.49 140.917 36.3949 140.853 36.2359 140.853C36.2264 140.853 36.2166 140.853 36.2066 140.853C36.0397 140.861 35.9434 140.918 35.8215 140.989C35.6689 141.079 35.496 141.18 35.1731 141.198C35.1507 141.2 35.1286 141.2 35.1068 141.2C34.8053 141.2 34.5461 141.085 34.3174 140.983C34.1252 140.898 33.9437 140.817 33.7627 140.813L33.7478 140.813C33.5631 140.813 33.336 140.888 33.0956 140.967C32.7967 141.066 32.458 141.178 32.1065 141.178L32.0798 141.178C31.2324 141.165 30.7509 140.728 30.6486 139.881C30.5943 139.432 30.7434 138.945 30.8876 138.475C31.0544 137.931 31.2268 137.369 31.0979 136.853C30.8256 135.763 30.6691 134.36 30.7085 133.363C30.7356 132.679 30.523 131.757 30.3355 130.944C30.2452 130.552 30.1599 130.183 30.1019 129.85C29.9806 129.156 30.4886 127.938 30.9368 126.863C31.1822 126.275 31.414 125.719 31.4607 125.421C31.5617 124.775 31.4463 121.256 31.3843 119.364L31.3752 119.087C31.3236 118.717 31.2718 118.323 31.2206 117.933C31.0812 116.871 30.9495 115.868 30.8348 115.439L30.7487 115.118C30.4431 113.982 29.9838 112.275 29.9829 111.678C29.8771 111.402 29.7228 110.993 29.5649 110.528C29.1839 110.059 28.9068 109.027 28.7414 107.46C28.4799 104.984 28.7685 101.507 29.068 100.05C29.2187 99.3166 29.4544 98.4292 29.6624 97.6463C29.861 96.8987 30.0486 96.1927 30.1221 95.7704C30.1979 95.336 30.2148 95.0903 30.225 94.9435C30.2316 94.8479 30.236 94.7843 30.2548 94.7336C30.2295 94.5986 30.2022 94.4458 30.173 94.2816C30.0293 93.4761 29.8327 92.3728 29.5767 91.8023C29.2395 91.0508 28.7967 88.8111 28.6077 87.8546L28.6012 87.8222C28.541 87.5174 28.4858 87.0066 28.4371 86.304C28.3449 85.5479 28.3165 84.6385 28.2977 84.0368L28.2944 83.9329C28.2853 83.6472 28.2854 83.0758 28.3458 82.8629C28.3379 82.6833 28.3077 82.5179 28.2224 82.1806C28.1335 81.8289 28.0739 81.4488 28.0049 81.0087C27.9713 80.7947 27.9355 80.5662 27.8929 80.32C27.8489 80.1636 27.8203 80.0078 27.8085 79.8565C27.7286 79.4462 27.6689 79.2524 27.6163 79.0812C27.5541 78.879 27.5 78.7029 27.4336 78.2626C27.3463 78.1421 27.2935 77.6902 27.1415 75.9965C27.0812 75.3247 27.0188 74.63 26.9564 74.1096C26.923 73.8313 26.9031 73.4741 26.8973 73.0477C26.8382 72.9257 26.759 72.8016 26.6754 72.6707C26.5817 72.5238 26.485 72.3723 26.397 72.1966C26.0435 71.8658 25.69 70.0393 25.6326 69.5415C25.5032 68.4192 24.6819 63.4697 24.2073 61.8917C23.6655 60.0905 24.0365 56.4604 24.0806 56.0524C24.0955 55.9138 24.1093 55.7766 24.1228 55.6418C24.1805 55.0654 24.2351 54.5197 24.3665 54.1003C24.2286 53.8427 23.5884 53.7272 23.2776 53.7272H23.1153C22.8069 53.7272 22.1741 53.841 22.0271 54.1024C22.1581 54.5218 22.2127 55.0671 22.2703 55.6429C22.2837 55.7774 22.2975 55.9142 22.3124 56.0525C22.3565 56.4605 22.7275 60.0908 22.1856 61.8917C21.7111 63.4697 20.8897 68.4192 20.7603 69.5415C20.7029 70.0393 20.3494 71.8658 19.9961 72.1966C19.908 72.3723 19.8113 72.5237 19.7177 72.6704C19.6341 72.8014 19.5548 72.9256 19.4957 73.0477C19.4899 73.4736 19.47 73.8307 19.4366 74.1096C19.3742 74.6301 19.3118 75.325 19.2515 75.997C19.0995 77.6904 19.0467 78.1422 18.9594 78.2627C18.893 78.7029 18.8388 78.879 18.7766 79.0812C18.7241 79.2523 18.6645 79.4461 18.5845 79.8565C18.5727 80.0076 18.5441 80.1637 18.497 80.3332C18.4575 80.5659 18.4218 80.7941 18.3882 81.008C18.3192 81.4484 18.2596 81.8287 18.1706 82.1807C18.0995 82.4617 18.068 82.6185 18.0542 82.7623C18.088 82.9083 18.0922 83.2025 18.0964 83.6885L18.0987 83.9271C18.1056 84.5692 18.0694 85.6191 17.944 86.4651C17.8989 87.0812 17.8473 87.5412 17.7917 87.8221L17.7859 87.8513C17.5968 88.8084 17.1539 91.0499 16.8162 91.8024C16.5602 92.3729 16.3635 93.4765 16.2199 94.2823C16.1907 94.4462 16.1635 94.5989 16.1383 94.7336C16.157 94.7842 16.1614 94.8479 16.168 94.9435C16.1781 95.0902 16.1951 95.3359 16.2709 95.7704C16.3445 96.1928 16.5321 96.8993 16.7308 97.6472C16.9387 98.4299 17.1744 99.3169 17.325 100.05C17.6245 101.507 17.9131 104.984 17.6516 107.46C17.5312 108.6 17.2819 110.071 16.7763 110.651C16.6173 111.126 16.4822 111.489 16.4101 111.678C16.4092 112.276 15.9495 113.984 15.6436 115.12L15.5582 115.439C15.4436 115.868 15.312 116.87 15.1727 117.931C15.1214 118.322 15.0695 118.717 15.0178 119.087L15.0086 119.369C14.9466 121.259 14.8314 124.776 14.9323 125.421C14.979 125.719 15.2108 126.275 15.4561 126.863C15.9044 127.937 16.4124 129.156 16.2911 129.85C16.233 130.183 16.1478 130.552 16.0575 130.944C15.87 131.757 15.6574 132.679 15.6844 133.363C15.724 134.36 15.5675 135.763 15.2951 136.853C15.1661 137.369 15.3386 137.931 15.5054 138.475C15.6496 138.945 15.7987 139.432 15.7444 139.881C15.6421 140.728 15.1605 141.165 14.3132 141.178L14.2865 141.178C13.9349 141.178 13.5962 141.066 13.2974 140.967C13.0569 140.888 12.8299 140.813 12.6451 140.813L12.6303 140.813C12.4493 140.817 12.2678 140.898 12.0756 140.983C11.8469 141.085 11.5877 141.2 11.2862 141.2C11.2643 141.2 11.2422 141.2 11.2199 141.198C10.8969 141.18 10.7241 141.079 10.5715 140.989C10.4496 140.918 10.3533 140.861 10.1864 140.853C10.1763 140.853 10.1666 140.853 10.1571 140.853C9.99811 140.853 9.90296 140.917 9.78249 140.998C9.65173 141.087 9.50347 141.187 9.26631 141.198C9.2481 141.199 9.23063 141.2 9.21387 141.2C8.95951 141.2 8.83412 141.102 8.72348 141.015C8.6452 140.954 8.57762 140.901 8.45482 140.869C8.43615 140.865 8.41801 140.862 8.39934 140.862C8.29156 140.862 8.17926 140.944 8.06032 141.03C7.91692 141.133 7.7686 141.241 7.585 141.241C7.57105 141.241 7.55695 141.24 7.54287 141.239C7.31103 141.217 7.19068 141.12 7.08449 141.034C7.01951 140.981 6.96343 140.936 6.88056 140.906C6.87012 140.903 6.85857 140.901 6.84541 140.901C6.77112 140.901 6.66168 140.957 6.54585 141.018C6.37316 141.107 6.15812 141.219 5.91232 141.219C5.38438 141.219 5.11413 140.956 4.9484 140.283C4.78195 139.606 4.92828 138.508 5.46127 137.841C5.59888 137.669 5.8179 137.406 6.07154 137.102C6.71969 136.326 7.60745 135.262 7.98988 134.684C8.5234 133.878 8.7397 132.436 8.42652 131.773C8.0263 130.924 7.9423 130.132 8.17686 129.419L8.256 129.18C8.47521 128.52 8.70195 127.838 8.79989 127.009C8.88043 126.327 8.84422 124.675 8.77631 123.422C8.71258 123.141 8.66082 122.844 8.62254 122.541C8.40386 120.809 7.40823 113.308 6.8902 110.982C6.40306 108.796 5.63151 104.788 5.50266 102.709C5.38891 100.874 5.51935 99.6794 5.59729 98.9653L5.61476 98.8041C5.64154 98.5523 5.71364 98.0655 5.76307 97.8386C5.85995 97.3436 5.99578 96.8844 6.11558 96.4792C6.18568 96.2419 6.252 96.0176 6.3027 95.8125C6.33453 95.5636 6.41355 94.9963 6.49681 94.7995L6.50817 94.7416C6.59316 94.3099 6.68937 93.821 6.73862 93.3669C6.73696 93.0803 6.74407 92.8113 6.76022 92.5454C6.67523 91.6107 6.64015 88.0807 6.75031 86.467C6.82235 85.4118 7.10595 83.8521 7.33381 82.5987C7.45542 81.9297 7.56046 81.3519 7.59276 81.0615C7.63217 80.7062 7.61163 80.2035 7.53189 79.5669L7.53076 79.5641C6.55854 77.1696 5.57208 74.6621 5.13026 72.6406C4.90838 71.6258 4.86573 69.8474 4.82446 68.1276C4.78619 66.5334 4.74664 64.8849 4.56164 63.9496C4.18799 62.0608 4.13523 58.7931 4.18966 57.1771C4.17018 56.8139 4.227 56.0759 4.25969 55.752C4.23956 55.6892 4.24606 55.6104 4.25583 55.5326C4.28135 55.328 4.30627 54.877 4.33783 54.306C4.41863 52.845 4.54063 50.6371 4.8366 49.3975C5.23476 47.7301 5.98956 43.294 5.95879 41.8805C5.92763 40.4441 6.6613 37.3711 7.20293 35.7049C7.31484 35.2321 7.51385 34.4929 7.68948 33.8408C7.78463 33.4872 7.87162 33.1642 7.93155 32.9323C7.96797 32.4865 8.0806 32.0356 8.17489 31.6916C8.30387 31.2214 8.21543 30.6558 8.11302 30.0008C8.00072 29.2826 7.86092 28.3887 7.96783 27.3292C8.14518 25.5721 8.34127 24.6917 8.4745 24.2626C8.51837 24.1049 8.57398 23.9428 8.63292 23.7712C8.76489 23.3867 8.90132 22.9892 8.9275 22.5621C8.86425 21.8941 8.86543 21.1232 8.93015 20.7173C8.935 19.8476 8.92969 18.8705 8.85506 18.2009C8.82881 18.0705 8.80382 17.9149 8.78236 17.7498C8.65059 17.1448 8.38705 16.528 8.19462 16.0776C8.13137 15.9297 8.07575 15.7995 8.03143 15.6862C7.86563 15.5659 7.80065 15.2181 7.68369 14.5926C7.5997 14.1435 7.49517 13.5846 7.32374 13.0097C6.9879 11.884 6.3139 8.94883 6.06452 7.41083C6.02964 7.3996 5.99634 7.39361 5.96718 7.39361C5.93807 7.39361 5.92465 7.39965 5.92126 7.40152C5.90644 7.4095 5.88703 7.42506 5.8681 7.46815C5.91469 7.75028 5.81249 8.70559 5.74311 9.28229C5.66868 9.90107 5.28141 11.1329 4.83308 12.5592C4.06639 14.998 3.11217 18.0332 3.18785 19.6429C3.28918 21.7977 2.54136 23.4119 2.1499 23.732C2.07435 24.118 2.01202 24.5306 1.95162 24.9302C1.89082 25.3328 1.82789 25.7492 1.75074 26.1452C1.66243 26.7594 1.47942 27.4667 1.19249 28.3007C0.904037 29.1393 0.0541496 31.209 -1.08121 33.8379C-1.23178 34.3254 -1.39903 34.8601 -1.57594 35.4256C-2.7166 39.072 -4.27876 44.066 -4.31804 45.839C-4.32927 46.3472 -4.04466 47.1247 -3.5746 48.3448C-3.05304 49.6987 -3.14328 52.3576 -4.33791 54.6184C-4.84612 55.5803 -5.29618 57.0508 -5.73148 58.4729C-6.15423 59.8543 -6.55366 61.1591 -6.94805 61.7459C-7.18288 62.0953 -7.42595 62.2725 -7.67049 62.2725C-7.92054 62.2725 -8.10859 62.091 -8.23577 61.9047C-8.43353 62.9165 -8.89183 64.7305 -9.65355 64.8691C-9.70811 64.8791 -9.76179 64.8841 -9.8131 64.8841C-10.1883 64.8841 -10.4615 64.6246 -10.5989 64.1552C-10.8362 64.9643 -11.2707 66.049 -11.8954 66.049L-11.9156 66.0487C-12.7948 66.0165 -12.8207 64.8615 -12.7807 63.56C-12.8504 63.5989 -12.9292 63.619 -13.0153 63.619C-13.5911 63.619 -14.2832 62.7539 -14.4125 61.8723C-14.7323 59.6905 -14.5204 57.0768 -14.3657 55.1683C-14.2896 54.2305 -14.2112 53.2636 -14.2757 52.9902C-14.3943 53.0998 -14.5454 53.2957 -14.7182 53.5195C-15.0427 53.9398 -15.4464 54.4629 -15.92 54.7888C-16.3043 55.0533 -16.7623 55.1931 -17.2445 55.1931C-18.0014 55.1931 -18.6675 54.8512 -18.8284 54.3801C-18.8892 54.2021 -18.924 53.8515 -18.4742 53.5032C-17.3021 52.5955 -15.0555 49.3164 -14.2569 47.348C-13.7244 46.0353 -12.7435 45.6003 -11.9553 45.2506C-11.4848 45.0419 -11.0784 44.8617 -10.8782 44.5452C-10.4153 43.8137 -9.71416 40.251 -8.79436 33.9564C-8.75735 30.5402 -8.70279 27.0635 -8.48411 25.3566C-8.071 22.132 -6.71915 18.214 -5.53209 16.8009C-5.36225 16.5988 -5.21067 16.415 -5.07525 16.2507C-4.66413 15.7522 -4.40995 15.444 -4.21806 15.3133C-4.04774 15.0851 -3.90229 14.6571 -3.78547 14.0405C-4.05073 10.0824 -3.20092 6.69776 -2.51157 5.55674L-2.47483 5.49636C-2.39516 5.22308 -2.28404 4.87519 -2.16657 4.50735L-2.12531 4.37782L-2.10312 4.24908C-1.91924 3.1818 -2.056 1.67979 -2.21435 -0.0594063C-2.24904 -0.44054 -2.28459 -0.83099 -2.31769 -1.22789C-2.52548 -3.72264 -2.21177 -5.71917 -1.33044 -7.51102C-1.07947 -8.12064 -0.60648 -8.90759 -0.154951 -9.46486C1.84591 -12.9725 5.898 -14.4286 7.62483 -14.4286C7.73739 -14.4286 7.83913 -14.4218 7.92758 -14.4084C7.96957 -14.4106 8.01383 -14.4115 8.06028 -14.4115C8.24268 -14.4115 8.45983 -14.3963 8.68975 -14.3803C8.96924 -14.3608 9.28595 -14.3387 9.60948 -14.3386C9.75899 -14.4639 10.0895 -14.5793 10.6912 -14.7825C11.1205 -14.9275 11.6549 -15.108 12.1892 -15.3312C13.434 -15.8509 14.9703 -16.8051 15.8422 -17.6C16.1112 -17.8453 16.2788 -17.9748 16.3978 -18.0277C16.4804 -18.1427 16.5682 -18.2573 16.659 -18.3758C17.0005 -18.8212 17.387 -19.3251 17.4924 -19.8429C17.4584 -20.1425 17.4465 -21.7888 17.5587 -22.8709C17.5461 -23.0441 17.5332 -23.1313 17.5247 -23.1742C17.5087 -23.2544 17.4954 -23.3358 17.4818 -23.4197C17.4192 -23.8038 17.3484 -24.239 16.9365 -24.8532C16.585 -25.3775 16.4875 -26.5959 16.4677 -27.5256C16.464 -27.7054 16.3175 -27.8516 16.1413 -27.8516C16.1183 -27.8516 16.0951 -27.8491 16.0722 -27.8441C15.9674 -27.8212 15.8577 -27.8091 15.7549 -27.8091C15.478 -27.8091 15.2492 -27.8932 15.0933 -28.0523C14.9324 -28.2163 14.8538 -28.4521 14.8595 -28.7531C14.8795 -29.805 14.6657 -30.4152 14.477 -30.9537C14.3819 -31.2252 14.2921 -31.4817 14.238 -31.7703C14.1419 -32.2832 14.0834 -32.9728 14.3503 -33.3455C14.4553 -33.4921 14.5993 -33.5794 14.7785 -33.605C14.8223 -33.6113 14.8675 -33.6144 14.9127 -33.6144C15.0613 -33.6144 15.2166 -33.5805 15.3744 -33.5135C15.396 -33.5044 15.4183 -33.4997 15.4405 -33.4997C15.4885 -33.4997 15.536 -33.5213 15.5708 -33.5588C15.6065 -33.5972 15.624 -33.6472 15.62 -33.6995C15.5044 -35.2383 15.3988 -39.0272 16.9118 -40.9685C18.7107 -43.2766 21.4774 -43.7442 22.5836 -43.8381C22.7266 -43.8502 22.8991 -43.8633 23.1375 -43.8633C23.3163 -43.8633 23.5101 -43.8556 23.7137 -43.8404C24.8401 -43.7567 27.6567 -43.3092 29.481 -40.9685C30.9939 -39.0272 30.8883 -35.2383 30.7727 -33.6994C30.7688 -33.6472 30.7862 -33.5972 30.8219 -33.5587C30.8567 -33.5212 30.9042 -33.4997 30.9522 -33.4997C30.9746 -33.4997 30.9968 -33.5044 31.0184 -33.5135C31.1762 -33.5805 31.3315 -33.6144 31.48 -33.6144C31.5252 -33.6144 31.5704 -33.6113 31.6143 -33.605C31.7934 -33.5794 31.9374 -33.4921 32.0424 -33.3455C32.3093 -32.9728 32.2508 -32.2832 32.1548 -31.7703C32.1007 -31.4817 32.0108 -31.2253 31.9157 -30.9538C31.7271 -30.4153 31.5133 -29.805 31.5333 -28.7531C31.539 -28.4521 31.4604 -28.2162 31.2995 -28.0522C31.1435 -27.8932 30.9147 -27.8091 30.6379 -27.8091C30.535 -27.8091 30.4253 -27.8212 30.3205 -27.8441C30.2976 -27.8491 30.2744 -27.8516 30.2514 -27.8516C30.0753 -27.8516 29.9288 -27.7054 29.925 -27.5256C29.9052 -26.5959 29.8078 -25.3775 29.4563 -24.8531C29.0445 -24.2391 28.9736 -23.8038 28.911 -23.4198C28.8974 -23.3359 28.8841 -23.2544 28.868 -23.1743C28.8594 -23.1309 28.8466 -23.0433 28.8341 -22.871C28.9463 -21.7885 28.9344 -20.1424 28.9004 -19.8429C29.0057 -19.3251 29.3922 -18.8212 29.7337 -18.3758C29.8259 -18.2556 29.915 -18.1393 29.9952 -18.0276C30.1142 -17.9746 30.2817 -17.8452 30.5506 -17.6C31.4224 -16.8052 32.9586 -15.851 34.2035 -15.3312C34.7378 -15.108 35.2722 -14.9275 35.7016 -14.7825C36.3033 -14.5793 36.6338 -14.4639 36.7833 -14.3386C37.1068 -14.3387 37.4235 -14.3608 37.703 -14.3803C37.9329 -14.3963 38.1501 -14.4115 38.3325 -14.4115C38.3789 -14.4115 38.4231 -14.4106 38.4651 -14.4084C38.5536 -14.4218 38.6553 -14.4286 38.7679 -14.4286C40.4947 -14.4286 44.5468 -12.9725 46.5477 -9.46493C46.9993 -8.90745 47.4723 -8.12045 47.7269 -7.50286C48.6045 -5.71931 48.9182 -3.72279 48.7104 -1.22791C48.6773 -0.830608 48.6418 -0.439899 48.607 -0.0584259C48.4487 1.68037 48.312 3.18198 48.4959 4.24906L48.5253 4.41974L48.5274 4.42632C48.6457 4.80639 48.7576 5.16579 48.8365 5.44507L48.9043 5.55677C49.6012 6.71023 50.4546 10.1262 50.1739 14.1142C50.287 14.6961 50.431 15.0974 50.6024 15.3079C50.7958 15.4356 51.053 15.7475 51.4698 16.253C51.6048 16.4166 51.7558 16.5996 51.9248 16.8009C53.1119 18.2139 54.4637 22.1319 54.8768 25.3565C55.0955 27.0635 55.1501 30.5401 55.1871 33.9563C56.1069 40.251 56.808 43.8137 57.271 44.5452C57.4712 44.8617 57.8776 45.0419 58.348 45.2506C59.1363 45.6002 60.1171 46.0353 60.6497 47.3479C61.4483 49.3164 63.6949 52.5954 64.867 53.5032C65.3168 53.8515 65.282 54.2021 65.2212 54.3801C65.0603 54.8512 64.3942 55.193 63.6373 55.193C63.1551 55.193 62.697 55.0533 62.3128 54.7888C61.8393 54.4629 61.4355 53.9398 61.1111 53.5197C60.9384 53.2958 60.7871 53.0999 60.6685 52.9902C60.6041 53.2637 60.6825 54.2303 60.7585 55.1678C60.9132 57.0764 61.1251 59.6904 60.8053 61.8722C60.6761 62.7538 59.984 63.6189 59.4081 63.6189C59.3221 63.6189 59.2432 63.5988 59.1736 63.56C59.2135 64.8614 59.1875 66.0164 58.3083 66.0486L58.2881 66.0489C57.6635 66.0489 57.2289 64.9642 56.9917 64.1552C56.8543 64.6245 56.5811 64.884 56.206 64.884C56.1546 64.884 56.1009 64.879 56.0464 64.8691C55.2843 64.7304 54.8262 62.9164 54.6285 61.9046C54.5014 62.0909 54.3134 62.2725 54.0633 62.2725C53.8188 62.2725 53.5756 62.0953 53.3408 61.7458C52.9464 61.159 52.547 59.8542 52.1242 58.4728C51.6889 57.0508 51.2389 55.5803 50.7307 54.6184C49.536 52.3575 49.4458 49.6986 49.9674 48.3448C50.4375 47.1246 50.7221 46.347 50.7108 45.839C50.6715 44.066 49.1094 39.0721 47.9688 35.4257C47.7919 34.8602 47.6246 34.3255 47.474 33.8379C46.3387 31.2088 45.4888 29.1391 45.2003 28.3006C44.9133 27.4667 44.7304 26.7594 44.6409 26.1383C44.5649 25.7492 44.502 25.333 44.4413 24.9307C44.3809 24.5309 44.3186 24.1181 44.2429 23.7319C43.8514 23.4117 43.1037 21.7975 43.2049 19.6428C43.2807 18.0331 42.3265 14.9979 41.5597 12.559C41.1113 11.1327 40.7241 9.901 40.6497 9.28222C40.5803 8.70552 40.4782 7.75021 40.5247 7.46808C40.5059 7.425 40.4865 7.40943 40.4717 7.40145C40.4682 7.39959 40.4548 7.39354 40.4256 7.39354C40.3965 7.39354 40.3631 7.39952 40.3283 7.41077C40.0791 8.94822 39.405 11.8835 39.0691 13.0096C38.8976 13.5846 38.7931 14.1435 38.7092 14.5926C38.5922 15.2181 38.5271 15.5658 38.3614 15.6862C38.317 15.7995 38.2614 15.9296 38.1982 16.0775C38.0058 16.5278 37.7422 17.1446 37.6086 17.761C37.5891 17.914 37.5641 18.0696 37.536 18.2121C37.4631 18.8705 37.4578 19.8475 37.4626 20.7172C37.5274 21.123 37.5286 21.8941 37.4653 22.562C37.4915 22.9892 37.6279 23.3866 37.7599 23.7711C37.8188 23.9426 37.8744 24.1047 37.9194 24.2662C38.0516 24.6917 38.2476 25.5722 38.425 27.3292C38.5319 28.3886 38.3921 29.2824 38.2798 30.0006C38.1774 30.6556 38.0889 31.2213 38.218 31.6916C38.3123 32.0353 38.4248 32.4861 38.4612 32.9321C38.5211 33.1636 38.6078 33.4858 38.7028 33.8386C38.8786 34.4915 39.0778 35.2315 39.1928 35.7155C39.7315 37.3709 40.4651 40.4439 40.434 41.8804C40.4033 43.2935 41.158 47.7298 41.5562 49.3974C41.8521 50.6369 41.9742 52.8444 42.055 54.3052C42.0865 54.8766 42.1114 55.3279 42.137 55.5325C42.1468 55.6103 42.1533 55.6892 42.1331 55.752C42.1659 56.0755 42.2226 56.8132 42.203 57.1886C42.2576 58.7926 42.2049 62.06 41.8312 63.9495C41.6461 64.8848 41.6066 66.5331 41.5684 68.1272C41.5271 69.8472 41.4844 71.6257 41.2625 72.6405C40.8208 74.6617 39.8343 77.1693 38.8619 79.5646L38.8609 79.5671C38.7811 80.2035 38.7607 80.7061 38.8001 81.0614C38.8323 81.3518 38.9373 81.9295 39.059 82.5985C39.2868 83.8519 39.5705 85.4117 39.6425 86.4669C39.753 88.0858 39.7174 91.631 39.6321 92.5483C39.6486 92.8051 39.6559 93.0772 39.6543 93.3669C39.7035 93.821 39.7997 94.3102 39.8847 94.7419L39.896 94.7994C39.9792 94.996 40.0583 95.5635 40.0902 95.8126C40.1408 96.0174 40.2071 96.2414 40.2772 96.4784C40.4348 97.0116 40.6135 97.6158 40.7052 98.2919C40.7349 98.4614 40.7617 98.65 40.778 98.8041L40.7955 98.9652C40.8735 99.6793 41.0039 100.874 40.8901 102.709C40.7614 104.788 39.9898 108.795 39.5026 110.982C38.9839 113.31 37.9888 120.809 37.7703 122.541C37.732 122.844 37.6803 123.141 37.6166 123.422C37.5486 124.674 37.5123 126.327 37.593 127.009C37.691 127.839 37.9179 128.521 38.1372 129.181L38.216 129.418C38.4505 130.132 38.3665 130.924 37.9663 131.772C37.6531 132.436 37.8695 133.878 38.403 134.684C38.7856 135.262 39.6736 136.326 40.3221 137.103C40.5754 137.407 40.7941 137.669 40.9316 137.841C41.4645 138.508 41.6109 139.606 41.4444 140.283C41.2787 140.956 41.0085 141.219 40.4805 141.219C40.2347 141.219 40.0197 141.107 39.847 141.018C39.7312 140.957 39.6217 140.901 39.5474 140.901C39.5342 140.901 39.5227 140.902 39.5122 140.906C39.4294 140.936 39.3733 140.981 39.3083 141.034C39.2021 141.12 39.0818 141.217 38.8499 141.238C38.8358 141.24 38.822 141.241 38.808 141.241Z" fill="white" stroke="#28839F" stroke-width="0.504915"/>
<path d="M1.22533 0.67463C1.19625 0.691353 1.15966 0.674452 1.15387 0.641388C0.740925 -1.72437 -2.31511 -4.78094 -0.295636 -8.91304C1.74316 -13.0846 6.61193 -14.4853 7.92041 -14.2722C9.16095 -14.0701 12.4256 -11.9247 13.9541 -11.469C14.0037 -11.4542 13.9974 -11.3803 13.9458 -11.375C11.7579 -11.1511 9.92201 -11.0851 7.75134 -9.55755C5.49514 -7.96979 5.94965 -5.95941 5.46278 -4.40648C4.97979 -2.86595 3.71346 -0.756095 1.22533 0.67463Z" fill="#28839F" fill-opacity="0.2"/>
<path d="M-1.20867 -7.45215C-1.52818 -5.62516 -1.13318 -4.005 -0.417488 -2.18434C0.199538 -0.614686 0.799704 0.327758 0.769274 1.07377C0.130242 1.65232 -1.58904 3.7838 -1.9694 4.27099C-1.74118 2.94643 -1.99983 0.951969 -2.18241 -1.24041C-2.365 -3.43278 -2.1672 -5.50336 -1.20867 -7.45215Z" fill="#28839F" fill-opacity="0.2"/>
<path d="M5.5086 -3.31055C4.85943 -0.894876 2.11821 0.27236 -0.113301 7.67163C-0.750523 9.78457 -1.53855 16.4714 -1.51307 19.0801C-1.50356 20.0548 -0.732042 18.8162 -0.732042 18.8162C-0.732042 18.8162 4.79604 10.879 5.48578 6.90024C6.17552 2.92149 5.5086 -3.31055 5.5086 -3.31055Z" fill="#28839F" fill-opacity="0.2"/>
<path d="M3.09234 0.0185547C2.39816 0.827369 0.00878596 5.2153 -0.638874 7.84498C-1.20479 10.1427 -2.11248 15.5005 -2.17835 19.919C-2.17997 20.0275 -2.33065 20.0533 -2.36965 19.952C-4.80697 13.623 -3.32754 7.16947 -2.39517 5.62637C-1.60513 4.31887 0.201514 1.50044 3.09234 0.0185547Z" fill="#28839F" fill-opacity="0.2"/>
<path d="M0.0902318 18.6336C-0.271125 19.2866 1.30742 20.7753 1.91603 23.5868C2.01998 24.0671 3.17379 22.2368 3.05207 19.6486C2.93035 17.0604 5.41038 10.9096 5.60817 9.26528C5.80596 7.621 5.72988 7.46875 5.72988 7.46875C3.39282 13.3802 2.17974 14.8579 0.0902318 18.6336Z" fill="#28839F" fill-opacity="0.2"/>
<path d="M-0.772164 19.7908C-2.58986 21.155 -2.94282 23.0895 -3.36883 24.5816C-3.79486 26.0736 -7.33993 39.0299 -7.65944 40.3849C-7.97895 41.74 -8.08545 43.3538 -7.59858 42.7296C-7.11169 42.1054 -2.65374 29.0881 -1.29962 26.2563C0.0545077 23.4245 0.729971 22.5127 0.475458 21.3539C0.272591 20.4302 -0.102703 19.2884 -0.772164 19.7908Z" fill="#28839F" fill-opacity="0.2"/>
<path d="M0.536345 23.5052C-0.259188 24.8485 -4.67728 36.6594 -5.42789 39.5826C-6.17849 42.5058 -6.19878 43.6832 -5.71189 43.399C-5.22502 43.1148 0.211761 30.7319 1.0638 28.2553C1.91584 25.7788 1.72311 24.7638 1.4391 23.83C1.15509 22.8962 0.860931 22.9571 0.536345 23.5052Z" fill="#28839F" fill-opacity="0.2"/>
<path d="M19.5857 -11.1057C17.7695 -11.5652 13.9826 -11.162 12.3637 -10.9433C9.58448 -10.5677 7.49631 -9.35856 6.76466 -8.02012C6.11549 -6.83259 5.64953 -4.04481 6.15605 -3.47297C7.73841 -1.68659 7.02838 3.42897 12.6072 6.02734C14.4743 6.89697 20.4581 6.34199 21.371 5.27625C22.2838 4.21051 22.649 -0.996389 22.3447 -3.98047C22.0404 -6.96453 21.3912 -10.6489 19.5857 -11.1057Z" fill="#28839F" fill-opacity="0.2"/>
<path d="M21.7968 6.34182C22.3531 7.34388 22.8162 9.18886 22.8314 10.3307C22.8466 11.4726 22.2989 11.6248 21.5838 11.975C20.8687 12.3252 17.5366 14.0557 16.6237 14.8373C15.6956 15.6318 15.1631 16.1314 14.9805 14.5632C14.7979 12.9951 14.5697 11.2747 14.8588 9.59993C15.1479 7.9252 15.437 7.27052 16.1977 7.04215C16.9585 6.81378 17.9094 6.86707 19.0885 6.63108C20.2505 6.39853 21.5686 5.93074 21.7968 6.34182Z" fill="#28839F"/>
<path d="M21.6598 12.5919C17.4225 14.1829 15.5372 16.6776 15.1428 17.4156C14.6762 18.2885 14.9178 20.3947 15.0515 20.76C15.1833 21.1203 16.1894 21.1591 17.0801 20.9681C18.3582 20.6941 20.6708 20.3997 21.4924 20.2982C22.314 20.1967 22.8111 19.202 22.8516 18.2682C22.8922 17.3344 22.9226 14.391 22.8516 13.8023C22.7806 13.2136 22.4254 12.3044 21.6598 12.5919Z" fill="#28839F"/>
<path d="M21.695 20.9285C20.485 20.7969 16.6741 21.5984 15.9945 21.9232C15.3149 22.248 14.7773 22.8976 14.757 23.7502C14.7368 24.6028 14.9802 26.2471 15.2033 26.7343C15.4265 27.2215 16.1771 27.668 17.232 27.7087C18.2869 27.7492 20.4778 27.9117 21.4516 27.7696C22.4253 27.6274 22.6586 26.6734 22.7297 25.5975C22.8007 24.5216 22.8514 23.0904 22.7499 22.1262C22.6485 21.162 22.1616 20.9793 21.695 20.9285Z" fill="#28839F"/>
<path d="M13.134 6.59506C12.2695 6.44077 9.8802 5.04092 8.99558 4.40268C7.61854 3.40919 7.99213 8.06848 10.8214 8.01605C11.9168 7.99575 12.7892 7.4299 13.2152 7.20913C13.6412 6.98837 13.5322 6.66612 13.134 6.59506Z" fill="#28839F" fill-opacity="0.2"/>
<path d="M8.81457 8.2951C8.90206 9.05634 9.09514 9.60849 9.46754 10.2832C9.89609 11.0597 12.5333 9.2124 12.7095 8.77849C12.8932 8.32602 12.3002 7.95635 11.709 8.12763C10.9019 8.36143 9.8758 8.21898 9.33187 7.8041C8.7816 7.38437 8.77112 7.91696 8.81457 8.2951Z" fill="#28839F"/>
<path d="M12.8502 9.16396C12.4051 9.54974 11.5315 10.1333 10.6592 10.5393C9.85156 10.9152 9.90356 11.2853 10.1216 11.5695C10.3397 11.8537 11.704 12.6149 12.201 12.8382C12.698 13.0615 13.5196 12.8788 13.6768 12.4018C13.9427 11.595 13.7714 8.36554 12.8502 9.16396Z" fill="#28839F"/>
<path d="M9.09739 14.5742C9.27998 15.1324 10.487 15.9546 11.2173 16.4215C11.9477 16.8884 12.9569 17.4314 13.2967 17.1624C13.6365 16.8934 13.6467 14.3255 13.3981 13.7622C13.1496 13.1989 12.5968 13.2953 11.9375 13.0821C11.2411 12.857 11.0617 12.4808 10.2943 12.4173C9.68064 12.3666 8.84359 13.7981 9.09739 14.5742Z" fill="#28839F"/>
<path d="M10.1571 16.071C10.6004 16.3853 12.8653 17.5935 13.2609 17.8371C13.6565 18.0807 13.8543 18.9333 13.976 19.9229C14.0977 20.9125 14.0233 22.0801 13.6108 22.2371C12.5306 22.6482 9.76056 19.643 9.40391 19.2378C8.95508 18.7278 8.86379 17.3727 8.83336 16.7257C8.79308 15.8692 9.42674 15.5534 10.1571 16.071Z" fill="#28839F"/>
<path d="M10.1114 20.4556C10.8721 21.2929 12.6751 22.4729 13.1087 22.8459C13.5423 23.2189 13.5727 24.6805 13.5651 25.358C13.5575 26.0355 12.8805 26.5607 12.424 26.4389C11.9676 26.3171 9.6473 24.0867 9.3354 23.6985C9.0235 23.3102 8.94743 21.3005 9.07675 20.6687C9.20608 20.0369 9.59009 19.8818 10.1114 20.4556Z" fill="#28839F"/>
<path d="M21.0459 28.621C19.6259 28.6104 16.7756 28.4586 16.096 28.3571C15.4164 28.2556 14.8281 28.9864 14.9803 29.9405C15.1324 30.8946 15.7106 34.6906 16.9278 38.5273C18.145 42.3639 19.0376 44.739 20.2345 45.8149C21.4314 46.8908 21.7154 48.1494 22.3138 48.058C22.9123 47.9667 22.9148 45.5536 22.9224 44.602C22.929 43.7872 23.0036 30.9808 22.7931 30.5647C22.5733 30.13 22.1389 29.8529 21.884 29.5979C21.6118 29.3255 21.7255 28.626 21.0459 28.621Z" fill="#28839F"/>
<path d="M9.64502 24.4186C10.3103 25.174 11.8258 26.4993 12.4446 27.0575C13.0633 27.6158 13.8443 29.8995 14.0878 30.9957C14.3312 32.0919 14.2704 33.5129 13.9458 34.6497C13.6212 35.7865 14.0269 36.3549 13.824 37.2886C13.6212 38.2224 12.5257 38.872 12.0794 38.1818C11.6331 37.4916 9.90875 35.3399 8.83357 34.7309C7.75837 34.1219 8.0221 32.7618 8.30611 31.7265C8.59012 30.6912 7.90038 29.3514 8.10325 27.3417C8.30611 25.3321 8.54447 24.3907 8.69662 24.0481C8.84878 23.7055 9.19364 23.906 9.64502 24.4186Z" fill="#28839F"/>
<path d="M6.20225 -1.38687C6.34443 1.23164 6.04028 5.80481 6.11505 6.75875C6.1962 7.79403 7.04822 11.6104 7.45396 12.9705C7.85969 14.3306 7.89012 15.5841 8.16399 15.5993C8.43785 15.6145 9.05659 12.463 9.11745 11.4277C9.17831 10.3924 8.10313 5.82495 7.90026 4.20098C7.69739 2.57699 6.8479 -0.721723 6.59686 -1.39162C6.25141 -2.3134 6.12056 -2.89153 6.20225 -1.38687Z" fill="#28839F" fill-opacity="0.2"/>
<path d="M8.88404 37.2685C9.57012 41.0132 9.92613 43.3682 10.6591 46.444C11.288 49.083 12.2719 53.417 13.1544 56.1879C14.0368 58.9589 15.68 63.3741 16.5321 66.3886C17.3841 69.4031 18.6926 77.5941 18.8143 78.1117C18.936 78.6294 19.1186 75.6148 19.3012 74.0923C19.4837 72.5699 19.2403 68.7028 18.6926 66.1145C18.1448 63.5263 17.3232 58.9284 16.0756 56.0052C13.6103 50.229 10.9503 39.5944 10.1824 37.8166C10.0108 37.4194 8.71668 36.355 8.88404 37.2685Z" fill="#28839F" fill-opacity="0.2"/>
<path d="M7.33249 35.747C6.78476 37.4319 6.06458 40.4768 6.09501 41.8775C6.12544 43.2782 5.37992 47.7086 4.9691 49.429C4.55831 51.1494 4.48223 54.8186 4.39094 55.5494C4.29965 56.2802 4.99953 54.6664 5.3647 53.1135C5.72985 51.5605 7.23612 46.9169 7.70779 45.4401C8.17945 43.9633 9.09235 40.69 8.92498 39.472C8.75762 38.254 8.45332 37.0512 8.52939 36.5793C8.60546 36.1073 8.34681 35.6759 8.09324 35.3714C7.83965 35.0669 7.33249 35.747 7.33249 35.747Z" fill="#28839F" fill-opacity="0.2"/>
<path d="M10.7607 38.7461C10.935 39.4437 12.1807 43.4506 12.3937 43.9987C12.6068 44.5468 12.9719 42.6589 12.8299 41.3902C12.717 40.3813 12.6372 39.9083 11.7344 38.9542C10.8317 38.0001 10.5984 38.0965 10.7607 38.7461Z" fill="#28839F" fill-opacity="0.2"/>
<path d="M13.0333 41.725C13.0608 43.5368 12.9725 44.846 12.9116 45.3484C12.8507 45.8509 13.155 47.4952 13.5202 47.9671C13.8854 48.4391 14.5396 47.6931 14.9504 46.2315C15.3612 44.7699 15.3764 43.628 15.0721 43.0038C14.7678 42.3796 13.8701 41.4813 13.4898 41.1159C13.1094 40.7506 13.0181 40.7201 13.0333 41.725Z" fill="#28839F" fill-opacity="0.2"/>
<path d="M15.4671 44.3334C15.4993 45.2343 15.2845 46.5766 14.7976 47.5611C14.3108 48.5457 14.047 48.8501 14.1485 49.6317C14.2499 50.4132 14.5745 51.6008 14.7976 51.9662C15.0208 52.3316 15.9946 50.3929 16.3191 49.5099C16.6437 48.6269 17.161 46.9014 17.1712 46.201C17.1813 45.5007 16.4611 44.7496 16.096 44.3132C15.7308 43.8767 15.4367 43.4809 15.4671 44.3334Z" fill="#28839F" fill-opacity="0.2"/>
<path d="M14.4734 68.6733C14.5343 67.2117 15.2258 63.2073 14.7726 62.0606C12.318 55.8489 11.3746 52.0173 9.52613 43.2499C9.25648 41.971 8.99097 42.7555 8.79416 43.306C8.28071 44.7421 7.90291 46.6584 7.57599 47.7543C7.17025 49.1144 6.91668 52.1696 6.65295 53.6311C6.38923 55.0927 5.99364 58.9192 6.01393 61.4364C6.03421 63.9536 6.68338 67.8816 7.27169 69.5056C7.86001 71.1296 9.3612 74.8241 9.99008 76.7729C11.437 81.2565 12.9779 76.3464 12.9811 76.3328C13.4548 74.8306 14.4203 69.9494 14.4734 68.6733Z" fill="#28839F" fill-opacity="0.2"/>
<path d="M45.1671 0.67463C45.1962 0.691353 45.2328 0.674452 45.2385 0.641388C45.6515 -1.72437 48.7075 -4.78094 46.688 -8.91304C44.6493 -13.0846 39.7805 -14.4853 38.472 -14.2722C37.2314 -14.0701 33.9668 -11.9247 32.4383 -11.469C32.3887 -11.4542 32.395 -11.3803 32.4466 -11.375C34.6345 -11.1511 36.4704 -11.0851 38.6411 -9.55755C40.8973 -7.96979 40.4428 -5.95941 40.9296 -4.40648C41.4126 -2.86595 42.6789 -0.756095 45.1671 0.67463Z" fill="#28839F" fill-opacity="0.2"/>
<path d="M47.6016 -7.45215C47.9211 -5.62516 47.5261 -4.005 46.8104 -2.18434C46.1934 -0.614686 45.5932 0.327758 45.6237 1.07377C46.2627 1.65232 47.982 3.7838 48.3623 4.27099C48.1341 2.94643 48.3928 0.951969 48.5754 -1.24041C48.7579 -3.43278 48.5601 -5.50336 47.6016 -7.45215Z" fill="#28839F" fill-opacity="0.2"/>
<path d="M40.8835 -3.31055C41.5327 -0.894876 44.2739 0.27236 46.5054 7.67163C47.1426 9.78457 47.9306 16.4714 47.9052 19.0801C47.8957 20.0548 47.1241 18.8162 47.1241 18.8162C47.1241 18.8162 41.5961 10.879 40.9063 6.90024C40.2166 2.92149 40.8835 -3.31055 40.8835 -3.31055Z" fill="#28839F" fill-opacity="0.2"/>
<path d="M43.3003 0.0185547C43.9945 0.827369 46.3838 5.2153 47.0315 7.84498C47.5974 10.1427 48.5051 15.5005 48.571 19.919C48.5726 20.0275 48.7233 20.0533 48.7623 19.952C51.1996 13.623 49.7202 7.16947 48.7878 5.62637C47.9978 4.31887 46.1911 1.50044 43.3003 0.0185547Z" fill="#28839F" fill-opacity="0.2"/>
<path d="M46.303 18.6336C46.6643 19.2866 45.0858 20.7753 44.4772 23.5868C44.3732 24.0671 43.2194 22.2368 43.3411 19.6486C43.4628 17.0604 40.9828 10.9096 40.785 9.26528C40.5872 7.621 40.6633 7.46875 40.6633 7.46875C43.0004 13.3802 44.2134 14.8579 46.303 18.6336Z" fill="#28839F" fill-opacity="0.2"/>
<path d="M50.1982 15.7111C49.8062 17.7843 49.2244 20.8266 49.7113 22.8566C50.1982 24.8866 54.2961 39.6242 54.9047 41.4918C55.5133 43.3594 55.3915 41.4309 55.1887 39.7054C54.9858 37.9799 55.1481 28.5405 54.7424 25.3738C54.3366 22.207 52.9977 18.2891 51.8211 16.8884C50.6445 15.4877 50.3402 14.96 50.1982 15.7111Z" fill="#28839F" fill-opacity="0.2"/>
<path d="M47.1653 19.7908C48.983 21.155 49.3359 23.0895 49.7619 24.5816C50.188 26.0736 53.733 39.0299 54.0525 40.3849C54.3721 41.74 54.4786 43.3538 53.9917 42.7296C53.5048 42.1054 49.0468 29.0881 47.6927 26.2563C46.3386 23.4245 45.6631 22.5127 45.9177 21.3539C46.1205 20.4302 46.4958 19.2884 47.1653 19.7908Z" fill="#28839F" fill-opacity="0.2"/>
<path d="M45.8563 23.5052C46.6519 24.8485 51.07 36.6594 51.8206 39.5826C52.5712 42.5058 52.5915 43.6832 52.1046 43.399C51.6177 43.1148 46.1809 30.7319 45.3289 28.2553C44.4769 25.7788 44.6696 24.7638 44.9536 23.83C45.2376 22.8962 45.5318 22.9571 45.8563 23.5052Z" fill="#28839F" fill-opacity="0.2"/>
<path d="M26.8075 -11.1057C28.6238 -11.5652 32.4107 -11.162 34.0295 -10.9433C36.8088 -10.5677 38.897 -9.35856 39.6286 -8.02012C40.2778 -6.83259 40.7437 -4.04481 40.2372 -3.47297C38.6549 -1.68659 39.3649 3.42897 33.7861 6.02734C31.919 6.89697 25.9352 6.34199 25.0223 5.27625C24.1094 4.21051 23.7443 -0.996389 24.0486 -3.98047C24.3529 -6.96453 25.002 -10.6489 26.8075 -11.1057Z" fill="#28839F" fill-opacity="0.2"/>
<path d="M24.5964 6.34182C24.0401 7.34388 23.577 9.18886 23.5618 10.3307C23.5466 11.4726 24.0943 11.6248 24.8095 11.975C25.5245 12.3252 28.8566 14.0557 29.7695 14.8373C30.6976 15.6318 31.2301 16.1314 31.4127 14.5632C31.5953 12.9951 31.8235 11.2747 31.5344 9.59993C31.2453 7.9252 30.9563 7.27052 30.1955 7.04215C29.4348 6.81378 28.4838 6.86707 27.3047 6.63108C26.1427 6.39853 24.8247 5.93074 24.5964 6.34182Z" fill="#28839F"/>
<path d="M24.733 12.5919C28.9703 14.1829 30.8555 16.6776 31.25 17.4156C31.7166 18.2885 31.475 20.3947 31.3413 20.76C31.2094 21.1203 30.2034 21.1591 29.3126 20.9681C28.0346 20.6941 25.7219 20.3997 24.9003 20.2982C24.0787 20.1967 23.5817 19.202 23.5411 18.2682C23.5006 17.3344 23.4701 14.391 23.5411 13.8023C23.6121 13.2136 23.9673 12.3044 24.733 12.5919Z" fill="#28839F"/>
<path d="M24.6975 20.9285C25.9075 20.7969 29.7184 21.5984 30.398 21.9232C31.0776 22.248 31.6152 22.8976 31.6355 23.7502C31.6558 24.6028 31.4123 26.2471 31.1892 26.7343C30.966 27.2215 30.2154 27.668 29.1605 27.7087C28.1056 27.7492 25.9147 27.9117 24.9409 27.7696C23.9672 27.6274 23.7339 26.6734 23.6629 25.5975C23.5919 24.5216 23.5411 23.0904 23.6426 22.1262C23.744 21.162 24.2309 20.9793 24.6975 20.9285Z" fill="#28839F"/>
<path d="M33.2585 6.59506C34.123 6.44077 36.5123 5.04092 37.3969 4.40268C38.774 3.40919 38.4004 8.06848 35.5711 8.01605C34.4757 7.99575 33.6034 7.4299 33.1773 7.20913C32.7513 6.98837 32.8604 6.66612 33.2585 6.59506Z" fill="#28839F" fill-opacity="0.2"/>
<path d="M37.5784 8.2951C37.4909 9.05634 37.2978 9.60849 36.9254 10.2832C36.4968 11.0597 33.8596 9.2124 33.6834 8.77849C33.4997 8.32602 34.0927 7.95635 34.6839 8.12763C35.491 8.36143 36.5171 8.21898 37.061 7.8041C37.6113 7.38437 37.6218 7.91696 37.5784 8.2951Z" fill="#28839F"/>
<path d="M33.5429 9.16396C33.988 9.54974 34.8615 10.1333 35.7338 10.5393C36.5415 10.9152 36.4895 11.2853 36.2714 11.5695C36.0533 11.8537 34.6891 12.6149 34.192 12.8382C33.695 13.0615 32.8734 12.8788 32.7162 12.4018C32.4503 11.595 32.6217 8.36554 33.5429 9.16396Z" fill="#28839F"/>
<path d="M37.2954 14.5742C37.1128 15.1324 35.9058 15.9546 35.1754 16.4215C34.4451 16.8884 33.4359 17.4314 33.0961 17.1624C32.7563 16.8934 32.7461 14.3255 32.9946 13.7622C33.2432 13.1989 33.796 13.2953 34.4553 13.0821C35.1517 12.857 35.3311 12.4808 36.0985 12.4173C36.7122 12.3666 37.5492 13.7981 37.2954 14.5742Z" fill="#28839F"/>
<path d="M36.2352 16.071C35.7918 16.3853 33.527 17.5935 33.1314 17.8371C32.7358 18.0807 32.538 18.9333 32.4163 19.9229C32.2946 20.9125 32.369 22.0801 32.7814 22.2371C33.8617 22.6482 36.6317 19.643 36.9883 19.2378C37.4372 18.7278 37.5285 17.3727 37.5589 16.7257C37.5992 15.8692 36.9655 15.5534 36.2352 16.071Z" fill="#28839F"/>
<path d="M36.2814 20.4556C35.5206 21.2929 33.7177 22.4729 33.284 22.8459C32.8504 23.2189 32.82 24.6805 32.8276 25.358C32.8352 26.0355 33.5123 26.5607 33.9687 26.4389C34.4251 26.3171 36.7454 24.0867 37.0573 23.6985C37.3692 23.3102 37.4453 21.3005 37.316 20.6687C37.1866 20.0369 36.8026 19.8818 36.2814 20.4556Z" fill="#28839F"/>
<path d="M25.3468 28.621C26.7668 28.6104 29.6171 28.4586 30.2967 28.3571C30.9763 28.2556 31.5646 28.9864 31.4124 29.9405C31.2603 30.8946 30.6821 34.6906 29.4649 38.5273C28.2477 42.3639 27.3551 44.739 26.1582 45.8149C24.9613 46.8908 24.6773 48.1494 24.0788 48.058C23.4804 47.9667 23.4779 45.5536 23.4703 44.602C23.4637 43.7872 23.3891 30.9808 23.5996 30.5647C23.8194 30.13 24.2538 29.8529 24.5087 29.5979C24.7809 29.3255 24.6672 28.626 25.3468 28.621Z" fill="#28839F"/>
<path d="M36.7478 24.4186C36.0825 25.174 34.567 26.4993 33.9482 27.0575C33.3295 27.6158 32.5485 29.8995 32.305 30.9957C32.0616 32.0919 32.1224 33.5129 32.447 34.6497C32.7716 35.7865 32.3659 36.3549 32.5687 37.2886C32.7716 38.2224 33.8671 38.872 34.3134 38.1818C34.7597 37.4916 36.484 35.3399 37.5592 34.7309C38.6344 34.1219 38.3707 32.7618 38.0867 31.7265C37.8027 30.6912 38.4924 29.3514 38.2895 27.3417C38.0867 25.3321 37.8483 24.3907 37.6962 24.0481C37.544 23.7055 37.1991 23.906 36.7478 24.4186Z" fill="#28839F"/>
<path d="M40.1906 -1.38687C40.0485 1.23164 40.3526 5.80481 40.2779 6.75875C40.1967 7.79403 39.3447 11.6104 38.9389 12.9705C38.5332 14.3306 38.5028 15.5841 38.2289 15.5993C37.955 15.6145 37.3363 12.463 37.2754 11.4277C37.2146 10.3924 38.2898 5.82495 38.4926 4.20098C38.6955 2.57699 39.545 -0.721723 39.796 -1.39162C40.1415 -2.3134 40.2723 -2.89153 40.1906 -1.38687Z" fill="#28839F" fill-opacity="0.2"/>
<path d="M37.5083 37.2685C36.8223 41.0132 36.4662 43.3682 35.7333 46.444C35.1044 49.083 34.1205 53.417 33.238 56.1879C32.3556 58.9589 30.7123 63.3741 29.8603 66.3886C29.0083 69.4031 27.6998 77.5941 27.5781 78.1117C27.4564 78.6294 27.2738 75.6148 27.0912 74.0923C26.9086 72.5699 27.1521 68.7028 27.6998 66.1145C28.2475 63.5263 29.0691 58.9284 30.3167 56.0052C32.7821 50.229 35.4421 39.5944 36.21 37.8166C36.3816 37.4194 37.6757 36.355 37.5083 37.2685Z" fill="#28839F" fill-opacity="0.2"/>
<path d="M39.0605 35.747C39.6082 37.4319 40.3284 40.4768 40.2979 41.8775C40.2675 43.2782 41.013 47.7086 41.4238 49.429C41.8347 51.1494 41.9107 54.8186 42.002 55.5494C42.0933 56.2802 41.3934 54.6664 41.0283 53.1135C40.6631 51.5605 39.1568 46.9169 38.6852 45.4401C38.2135 43.9633 37.3006 40.69 37.468 39.472C37.6353 38.254 37.9396 37.0512 37.8636 36.5793C37.7875 36.1073 38.0461 35.6759 38.2997 35.3714C38.5533 35.0669 39.0605 35.747 39.0605 35.747Z" fill="#28839F" fill-opacity="0.2"/>
<path d="M35.6045 38.8094C35.4302 39.5069 34.22 43.354 34.007 43.9021C33.7939 44.4502 33.4212 42.6587 33.5632 41.39C33.6761 40.3811 33.7559 39.9081 34.6587 38.954C35.5614 37.9999 35.7668 38.1598 35.6045 38.8094Z" fill="#28839F" fill-opacity="0.2"/>
<path d="M33.3604 41.725C33.3329 43.5368 33.4212 44.846 33.4821 45.3484C33.543 45.8509 33.2387 47.4952 32.8735 47.9671C32.5083 48.4391 31.8541 47.6931 31.4433 46.2315C31.0325 44.7699 31.0173 43.628 31.3216 43.0038C31.6259 42.3796 32.5236 41.4813 32.9039 41.1159C33.2843 40.7506 33.3756 40.7201 33.3604 41.725Z" fill="#28839F" fill-opacity="0.2"/>
<path d="M30.9254 44.3334C30.8932 45.2343 31.108 46.5766 31.5948 47.5611C32.0817 48.5457 32.3454 48.8501 32.244 49.6317C32.1426 50.4132 31.818 51.6008 31.5948 51.9662C31.3717 52.3316 30.3979 50.3929 30.0733 49.5099C29.7487 48.6269 29.2314 46.9014 29.2213 46.201C29.2112 45.5007 29.9313 44.7496 30.2965 44.3132C30.6616 43.8767 30.9558 43.4809 30.9254 44.3334Z" fill="#28839F" fill-opacity="0.2"/>
<path d="M31.9196 68.6726C31.8587 67.211 31.1013 63.2422 31.5544 62.0954C34.0091 55.8837 34.8205 52.0112 36.8668 43.2492C37.1641 41.9764 37.402 42.7548 37.5988 43.3053C38.1123 44.7414 38.4393 46.7288 38.7663 47.8247C39.172 49.1848 39.456 52.0775 39.7197 53.5391C39.9835 55.0007 40.3486 58.8475 40.3283 61.3647C40.3081 63.8818 39.6893 67.82 39.101 69.444C38.5127 71.068 37.0318 74.8234 36.4029 76.7722C34.9217 81.3622 33.4151 76.3457 33.4119 76.3321C32.9382 74.8299 31.9727 69.9487 31.9196 68.6726Z" fill="#28839F" fill-opacity="0.2"/>
</g>
<defs>
<clipPath id="clip0_4041_1969">
<rect width="61" height="48" fill="white"/>
</clipPath>
</defs>
</svg>
