<svg width="61" height="48" viewBox="0 0 61 48" fill="none" xmlns="http://www.w3.org/2000/svg">
<g clip-path="url(#clip0_4044_3067)">
<path d="M43.8058 158.233C43.6222 158.233 43.4739 158.126 43.3305 158.022C43.2116 157.936 43.0992 157.855 42.9914 157.855C42.9728 157.855 42.9546 157.857 42.936 157.862C42.8132 157.894 42.7456 157.946 42.6674 158.008C42.5567 158.094 42.4314 158.192 42.1771 158.192C42.1603 158.192 42.1427 158.192 42.1246 158.191C41.8874 158.179 41.7392 158.079 41.6084 157.991C41.4879 157.909 41.3928 157.845 41.2338 157.845C41.2243 157.845 41.2145 157.845 41.2045 157.846C41.0376 157.854 40.9414 157.91 40.8194 157.982C40.6669 158.071 40.494 158.173 40.171 158.191C40.1486 158.192 40.1266 158.193 40.1047 158.193C39.8033 158.193 39.5441 158.077 39.3153 157.976C39.1232 157.89 38.9416 157.809 38.7608 157.805L38.7459 157.805C38.5611 157.805 38.334 157.88 38.0936 157.96C37.7948 158.059 37.4561 158.171 37.1046 158.171L37.0778 158.171C36.2305 158.157 35.749 157.721 35.6467 156.874C35.5924 156.424 35.7415 155.938 35.8857 155.468C36.0525 154.924 36.2249 154.361 36.096 153.845C35.8236 152.755 35.6672 151.353 35.7067 150.356C35.7337 149.672 35.5211 148.75 35.3336 147.937C35.2434 147.545 35.1581 147.176 35.1 146.843C34.9787 146.148 35.4867 144.931 35.9349 143.856C36.1803 143.268 36.412 142.712 36.4588 142.414C36.5085 142.095 36.5116 141.021 36.4677 139.22C36.3824 138.785 36.3225 137.335 36.2902 136.553C36.2819 136.353 36.2755 136.197 36.2709 136.113C36.2667 136.035 36.2487 135.654 36.2887 135.456L36.2187 134.926C36.0793 133.864 35.9476 132.861 35.8329 132.432C35.8329 132.432 35.6511 131.756 35.5987 131.559C35.541 131.468 35.4894 131.356 35.4414 131.217C35.3429 130.932 35.24 130.537 35.1312 130.119C34.9303 129.348 34.7027 128.474 34.4146 127.916C34.1489 127.402 33.9949 126.725 33.944 125.845C33.8628 125.437 33.794 124.97 33.7395 124.454C33.4781 121.978 33.7667 118.501 34.0662 117.044C34.2168 116.311 34.4525 115.424 34.6604 114.641C34.859 113.893 35.0466 113.187 35.1202 112.764C35.196 112.33 35.2129 112.084 35.2231 111.938C35.2297 111.842 35.2341 111.778 35.2528 111.728C35.2276 111.593 35.2004 111.441 35.1714 111.278C35.1231 111.008 35.0688 110.703 35.0087 110.398C34.881 110.247 34.7953 109.945 34.68 109.54C34.5778 109.18 34.4507 108.733 34.2635 108.299C33.8274 107.288 33.2886 103.95 33.2381 102.362C33.1867 100.748 32.9153 98.1601 32.593 96.8802C32.3057 95.739 32.0018 92.9992 32.0309 91.8149C32.0055 91.5582 31.9801 91.3166 31.9546 91.1045C31.9278 90.8805 31.9096 90.5969 31.9005 90.261C31.843 90.1308 31.7546 89.9469 31.6279 89.7683C31.4621 89.5346 31.3089 89.2144 31.1726 88.8168C30.9593 88.2717 30.7103 87.225 30.6309 86.5365C30.5015 85.4142 29.6802 80.4649 29.2056 78.8871C28.6641 77.0865 29.0349 73.456 29.0789 73.048C29.0936 72.9119 29.1072 72.7773 29.1205 72.6452C29.159 72.2614 29.1956 71.8978 29.253 71.5741C29.0991 71.3351 28.9719 71.0836 28.8659 70.8085C28.6216 70.7412 28.3776 70.7228 28.276 70.7228H28.1137C28.0122 70.7228 27.7683 70.7412 27.5239 70.8085C27.4179 71.0836 27.2907 71.3352 27.1367 71.5741C27.1943 71.8983 27.2308 72.2624 27.2694 72.6467C27.2827 72.7784 27.2961 72.9125 27.3108 73.048C27.3549 73.456 27.7259 77.0861 27.1841 78.8871C26.7095 80.4651 25.8882 85.4143 25.7588 86.5366C25.6795 87.2249 25.4306 88.2716 25.2153 88.8221C25.0808 89.2146 24.9276 89.5348 24.7619 89.7683C24.6347 89.9475 24.5465 90.1312 24.4892 90.261C24.4802 90.5964 24.462 90.8801 24.4351 91.1045C24.4097 91.3166 24.3842 91.5583 24.3589 91.8148C24.388 92.9991 24.0841 95.739 23.7968 96.8802C23.4746 98.1598 23.2031 100.748 23.1517 102.362C23.1011 103.95 22.5623 107.288 22.1263 108.299C21.939 108.733 21.8119 109.18 21.7097 109.54C21.5945 109.945 21.5088 110.247 21.381 110.398C21.3209 110.703 21.2665 111.008 21.2184 111.278C21.1892 111.441 21.1621 111.593 21.1369 111.728C21.1556 111.778 21.16 111.842 21.1667 111.938C21.1768 112.084 21.1938 112.33 21.2695 112.764C21.3431 113.187 21.5307 113.893 21.7294 114.641C21.9373 115.424 22.173 116.311 22.3236 117.044C22.6231 118.501 22.9117 121.978 22.6502 124.454C22.5956 124.971 22.5266 125.443 22.4452 125.857C22.3934 126.731 22.2397 127.405 21.9752 127.916C21.687 128.474 21.4594 129.348 21.2586 130.119C21.1497 130.537 21.0469 130.932 20.9483 131.217C20.9004 131.356 20.8488 131.468 20.7911 131.559C20.7388 131.755 20.5569 132.432 20.5569 132.432C20.4421 132.861 20.3104 133.865 20.171 134.926L20.1011 135.456C20.1411 135.654 20.1231 136.035 20.1188 136.113C20.1142 136.197 20.1078 136.354 20.0995 136.553C20.0672 137.336 20.0073 138.785 19.9221 139.22C19.8782 141.021 19.8812 142.096 19.931 142.414C19.9777 142.712 20.2095 143.268 20.4549 143.856C20.9031 144.93 21.4111 146.148 21.2897 146.843C21.2317 147.175 21.1464 147.545 21.0561 147.937C20.8686 148.75 20.656 149.672 20.6831 150.356C20.7226 151.353 20.5661 152.755 20.2938 153.845C20.1648 154.361 20.3373 154.924 20.5041 155.468C20.6483 155.938 20.7974 156.424 20.7431 156.874C20.6407 157.721 20.1592 158.157 19.3119 158.171L19.2852 158.171C18.9337 158.171 18.595 158.059 18.2961 157.96C18.0557 157.88 17.8286 157.805 17.6439 157.805L17.629 157.805C17.4481 157.809 17.2665 157.89 17.0744 157.976C16.8457 158.077 16.5865 158.193 16.285 158.193C16.2631 158.193 16.241 158.192 16.2187 158.191C15.8957 158.173 15.7229 158.071 15.5703 157.982C15.4485 157.91 15.3522 157.854 15.1852 157.846C15.1752 157.845 15.1655 157.845 15.1559 157.845C14.997 157.845 14.9018 157.909 14.7814 157.991C14.6506 158.079 14.5023 158.179 14.2652 158.191C14.247 158.192 14.2295 158.192 14.2128 158.192C13.9583 158.192 13.8329 158.094 13.7223 158.008C13.6441 157.946 13.5765 157.894 13.4538 157.862C13.4351 157.857 13.417 157.855 13.3983 157.855C13.2905 157.855 13.1782 157.936 13.0592 158.022C12.9158 158.126 12.7675 158.233 12.5839 158.233C12.57 158.233 12.5559 158.232 12.5418 158.231C12.31 158.209 12.1896 158.112 12.0834 158.026C12.0185 157.974 11.9624 157.929 11.8795 157.899C11.8691 157.895 11.8575 157.893 11.8444 157.893C11.7701 157.893 11.6607 157.95 11.5448 158.01C11.3721 158.1 11.1572 158.211 10.9114 158.211C10.3834 158.211 10.1132 157.949 9.94743 157.275C9.78099 156.599 9.92731 155.5 10.4603 154.834C10.5979 154.661 10.8169 154.399 11.0705 154.095C11.7187 153.318 12.6064 152.254 12.9888 151.677C13.5223 150.871 13.7387 149.429 13.4255 148.765C13.0253 147.917 12.9412 147.125 13.1758 146.411L13.2546 146.174C13.4739 145.514 13.7008 144.832 13.7988 144.002C13.8794 143.321 13.8431 141.668 13.7752 140.415C13.7116 140.134 13.6598 139.838 13.6214 139.534C13.4576 138.236 12.6786 132.331 12.1314 129.227C11.9549 128.779 11.8068 128.216 11.6759 127.719C11.6158 127.49 11.5589 127.275 11.5048 127.09C11.1938 126.032 10.5493 122.385 10.3645 121.042C10.1706 119.632 10.3126 116.955 10.4045 116.076C10.4776 115.377 10.6732 113.983 11.1612 112.496C11.524 111.39 11.5391 110.552 11.5502 109.94C11.5526 109.807 11.5549 109.683 11.5602 109.568C11.5703 109.352 11.6234 109.13 11.7224 108.892C11.7059 108.471 11.6931 107.915 11.6863 107.321C11.611 106.524 11.5909 104.342 11.6464 102.926C11.6872 101.887 12.0348 100.414 12.3141 99.2308C12.4325 98.7292 12.5349 98.2956 12.5997 97.9583C12.6264 97.6089 12.6032 97.1392 12.5308 96.5616L12.5297 96.5588C11.5575 94.1642 10.5712 91.6566 10.1293 89.6355C9.90742 88.6207 9.86471 86.8425 9.82338 85.1228C9.80577 84.3907 9.78756 83.6337 9.75566 82.9578C9.36675 80.0803 9.01278 76.7508 8.98388 75.699C8.96108 74.8741 9.10348 73.1385 9.32236 71.5723L9.33711 71.298C9.41785 69.8382 9.5399 67.6321 9.83574 66.3932C10.2339 64.7257 10.9885 60.2896 10.9578 58.8765C10.9267 57.4401 11.6603 54.3672 12.2019 52.7011C12.3138 52.2283 12.5128 51.4894 12.6882 50.8376C12.7556 50.5873 12.8189 50.3522 12.8714 50.154C12.6306 49.6931 12.825 44.5946 12.9968 44.0394C13.0421 43.62 13.0911 43.2308 13.1426 42.8801C13.1077 42.831 13.1158 42.7913 13.2255 42.3635C13.3033 41.9113 13.3875 41.5361 13.4735 41.2592C13.5173 41.1015 13.5729 40.9394 13.6319 40.7678C13.7639 40.3834 13.9003 39.9859 13.9264 39.5587C13.8632 38.8908 13.8644 38.1199 13.9291 37.714C13.9318 37.2296 13.9321 36.6067 13.9112 36.0478C13.8344 35.8439 13.7538 35.6428 13.6658 35.4232C13.5662 35.1747 13.4573 34.9027 13.3338 34.577C12.8946 33.4184 12.3425 31.3709 11.8087 29.3908C11.5251 28.339 11.2571 27.3455 11.0179 26.5286C10.944 26.2763 10.8724 26.012 10.8034 25.7377C10.786 25.9044 10.7656 26.0851 10.7422 26.2794C10.6678 26.8982 10.2806 28.1301 9.83211 29.5564C9.06544 31.995 8.11133 35.0301 8.18708 36.6397C8.28031 38.6231 7.63244 40.1924 7.2432 40.6389C7.14911 41.0561 7.07282 41.3523 7.01037 41.543C6.99164 41.6635 6.97329 41.7845 6.95489 41.9058C6.89282 42.3152 6.82858 42.7387 6.74996 43.1418C6.66159 43.7563 6.47865 44.4635 6.19173 45.2972C5.90329 46.1358 5.05343 48.2054 3.91811 50.8342C3.7676 51.3215 3.60042 51.8559 3.42361 52.4211C2.28298 56.0677 0.720738 61.0619 0.681464 62.8349C0.67017 63.343 0.954763 64.1206 1.42481 65.3406C1.94635 66.6945 1.85611 69.3533 0.661529 71.614C0.153337 72.5759 -0.296774 74.0464 -0.731997 75.4685C-1.1548 76.8498 -1.55408 78.1544 -1.94845 78.7412C-2.18328 79.0906 -2.42641 79.2678 -2.67093 79.2678C-2.92098 79.2678 -3.10902 79.0863 -3.23613 78.9C-3.43381 79.9118 -3.89196 81.7257 -4.65392 81.8643C-4.70848 81.8743 -4.76216 81.8793 -4.81347 81.8793C-5.18862 81.8793 -5.4618 81.6199 -5.5992 81.1506C-5.83643 81.9595 -6.27105 83.0442 -6.89559 83.0442L-6.91579 83.0438C-7.79508 83.0117 -7.821 81.8567 -7.781 80.5553C-7.85063 80.5941 -7.9295 80.6143 -8.01555 80.6143C-8.59138 80.6143 -9.28343 79.7492 -9.41267 78.8676C-9.73248 76.6859 -9.52058 74.0722 -9.36588 72.1638C-9.2898 71.226 -9.21146 70.2592 -9.27592 69.9858C-9.39446 70.0954 -9.54562 70.2913 -9.7184 70.5151C-10.0429 70.9354 -10.4466 71.4584 -10.9202 71.7843C-11.3044 72.0489 -11.7624 72.1886 -12.2446 72.1886C-13.0014 72.1886 -13.6675 71.8467 -13.8284 71.3757C-13.8892 71.1977 -13.924 70.847 -13.4743 70.4988C-12.3022 69.5911 -10.0557 66.3122 -9.25711 64.3438C-8.7246 63.0312 -7.74371 62.5961 -6.95558 62.2465C-6.48507 62.0378 -6.07874 61.8576 -5.87848 61.5411C-5.48525 60.9198 -4.91931 58.2541 -4.19637 53.6181C-4.09304 52.4815 -4.00845 51.7415 -3.93118 51.2978C-3.88533 51.0349 -3.83762 50.741 -3.78892 50.4292C-3.75444 47.4004 -3.69942 44.0309 -3.48446 42.3532C-3.07142 39.1287 -1.71961 35.2108 -0.532539 33.7978C-0.362965 33.596 -0.211598 33.4124 -0.0763178 33.2483C0.335051 32.7495 0.589418 32.4411 0.781446 32.3102C0.951619 32.0822 1.09707 31.6543 1.21402 31.0374C1.04856 28.5668 1.31569 25.9066 1.92926 23.9142C2.01618 23.0873 2.08614 22.4362 2.12933 22.1935C2.27099 21.3974 2.1191 20.6295 1.9971 20.0123C1.93929 19.7199 1.88932 19.4673 1.88381 19.2676C1.87019 18.7781 1.78281 18.1318 1.65045 17.1536C1.58833 16.694 1.51656 16.1637 1.43855 15.5459C1.16904 13.4111 1.56719 10.8499 2.50364 8.69468C3.60621 6.15706 4.84385 4.79547 6.77547 3.99492C7.2713 3.78946 8.18036 3.68201 8.82205 3.68201C8.86337 3.68201 8.90404 3.6824 8.94405 3.68327C10.5032 2.86151 11.8991 2.56942 12.624 2.56942C12.7366 2.56942 12.8383 2.5762 12.9267 2.58956C12.9684 2.5875 13.0124 2.5865 13.0586 2.5865C13.1493 2.5865 13.2488 2.59035 13.3456 2.59554C13.3761 2.27837 13.7893 2.04326 14.2826 1.79645C14.9683 1.45343 15.6835 1.13971 16.4083 0.863976C17.2461 0.54529 18.0884 0.28212 19.0953 -0.0149689C19.2184 -0.0513401 19.3425 -0.0857773 19.4666 -0.120214C20.1926 -0.321819 20.8782 -0.512241 21.3795 -1.05899C21.5228 -1.2153 21.6432 -1.38832 21.7706 -1.5715C21.8311 -1.65848 21.8917 -1.74538 21.9545 -1.83022C22.1485 -2.09193 22.3491 -2.36248 22.4575 -2.66707C22.509 -2.81189 22.4963 -2.97605 22.4827 -3.14979C22.477 -3.2244 22.4712 -3.29879 22.4702 -3.37227C22.4668 -3.60686 22.467 -3.8546 22.4708 -4.1298C22.478 -4.64896 22.494 -5.26154 22.5574 -5.87272C22.5449 -6.04499 22.5321 -6.13263 22.5235 -6.17599C22.5074 -6.25618 22.4942 -6.33763 22.4805 -6.42154C22.4179 -6.80552 22.347 -7.24077 21.9353 -7.85481C21.5836 -8.37936 21.4863 -9.5976 21.4666 -10.5273C21.4628 -10.7069 21.3163 -10.8531 21.1401 -10.8531C21.1171 -10.8531 21.0939 -10.8506 21.071 -10.8456C20.9662 -10.8228 20.8565 -10.8107 20.7537 -10.8107C20.4768 -10.8107 20.248 -10.8947 20.0921 -11.0538C19.9313 -11.2178 19.8526 -11.4536 19.8583 -11.7546C19.8784 -12.8064 19.6645 -13.4167 19.4759 -13.9551C19.3807 -14.2266 19.2909 -14.4831 19.2368 -14.7717C19.1407 -15.2846 19.0823 -15.9741 19.3492 -16.3469C19.4542 -16.4934 19.5982 -16.5807 19.7774 -16.6063C19.8212 -16.6127 19.8664 -16.6158 19.9116 -16.6158C20.0601 -16.6158 20.2154 -16.5819 20.3732 -16.5148C20.3948 -16.5057 20.417 -16.5011 20.4394 -16.5011C20.4873 -16.5011 20.5349 -16.5226 20.5697 -16.5601C20.6053 -16.5985 20.6228 -16.6485 20.6188 -16.7007C20.5033 -18.2397 20.3978 -22.0286 21.9106 -23.9696C23.7094 -26.2776 26.4761 -26.7452 27.5822 -26.8391C27.7251 -26.8512 27.8977 -26.8643 28.136 -26.8643C28.3148 -26.8643 28.5086 -26.8566 28.7122 -26.8414C29.8385 -26.7577 32.6551 -26.3102 34.4793 -23.9696C35.9921 -22.0283 35.8865 -18.2396 35.7709 -16.7007C35.767 -16.6485 35.7845 -16.5985 35.8202 -16.5601C35.855 -16.5225 35.9024 -16.5011 35.9505 -16.5011C35.9728 -16.5011 35.995 -16.5057 36.0166 -16.5148C36.1744 -16.5819 36.3297 -16.6158 36.4782 -16.6158C36.5234 -16.6158 36.5686 -16.6127 36.6125 -16.6063C36.7916 -16.5807 36.9356 -16.4934 37.0406 -16.3469C37.3075 -15.9741 37.249 -15.2846 37.1529 -14.7717C37.0989 -14.4831 37.009 -14.2266 36.9139 -13.9551C36.7252 -13.4167 36.5114 -12.8065 36.5315 -11.7546C36.5372 -11.4536 36.4585 -11.2178 36.2977 -11.0537C36.1418 -10.8947 35.913 -10.8106 35.6362 -10.8106C35.5333 -10.8106 35.4235 -10.8228 35.3187 -10.8456C35.2959 -10.8506 35.2727 -10.8531 35.2497 -10.8531C35.0736 -10.8531 34.927 -10.7069 34.9233 -10.5272C34.9035 -9.59739 34.806 -8.37901 34.4545 -7.8548C34.0428 -7.24075 33.9719 -6.8055 33.9093 -6.42152C33.8957 -6.33761 33.8824 -6.25616 33.8664 -6.17598C33.8577 -6.13262 33.8449 -6.04499 33.8324 -5.87271C33.9171 -5.05786 33.925 -4.25611 33.9216 -3.57871C33.9211 -3.48329 33.9159 -3.38642 33.9107 -3.28941C33.9034 -3.15204 33.8965 -3.02218 33.9025 -2.89499C33.9177 -2.5751 34.1492 -2.23993 34.3534 -1.94417C34.3825 -1.90201 34.4109 -1.86086 34.4379 -1.82089C34.7 -1.43279 34.9711 -1.03151 35.3392 -0.743479C35.6396 -0.50843 35.9978 -0.401646 36.3769 -0.288553L36.7073 -0.188545C38.5084 0.360273 40.3708 0.927704 42.1072 1.79646L42.2133 1.84872C42.4365 1.95743 42.6895 2.08071 42.8652 2.26455C42.9588 2.36249 43.0183 2.47952 43.0372 2.59694C43.2097 2.58903 43.3691 2.58517 43.521 2.58517C44.1146 2.58517 44.624 2.64502 45.1239 2.77354C45.8959 2.97194 46.6768 3.27794 47.4457 3.68327C47.4857 3.68242 47.5264 3.68201 47.5677 3.68201C48.2094 3.68201 49.1185 3.78946 49.6142 3.99492C51.5459 4.7954 52.7836 6.15706 53.8862 8.69468C54.8226 10.8498 55.2207 13.4109 54.9513 15.5459C54.8732 16.1639 54.8014 16.6945 54.7393 17.1542C54.607 18.1321 54.5196 18.7781 54.506 19.2676C54.5004 19.4673 54.4505 19.7199 54.3927 20.0123C54.2707 20.6294 54.1188 21.3974 54.2604 22.1935C54.3037 22.4361 54.3736 23.0869 54.4604 23.9134C55.0815 25.9285 55.347 28.6164 55.1715 31.1112C55.2846 31.6931 55.4286 32.0944 55.6 32.3049C55.7934 32.4326 56.0506 32.7444 56.4674 33.2499C56.6023 33.4135 56.7533 33.5965 56.9224 33.7978C58.1094 35.2109 59.4612 39.1288 59.8743 42.3531C60.0893 44.031 60.1443 47.4003 60.1788 50.4292C60.2274 50.741 60.2751 51.0349 60.3209 51.2977C60.3973 51.7362 60.4844 52.4981 60.5872 53.6267C61.3091 58.2541 61.8751 60.9198 62.2683 61.5411C62.4686 61.8576 62.8749 62.0378 63.3454 62.2465C64.1335 62.5961 65.1144 63.0311 65.6469 64.3437C66.4454 66.3122 68.692 69.591 69.8641 70.4988C70.3139 70.847 70.279 71.1977 70.2182 71.3757C70.0574 71.8467 69.3913 72.1886 68.6344 72.1886C68.1522 72.1886 67.6942 72.0488 67.3099 71.7843C66.8365 71.4584 66.4327 70.9354 66.1083 70.5153C65.9356 70.2914 65.7843 70.0955 65.6657 69.9858C65.6014 70.2593 65.6797 71.2259 65.7557 72.1633C65.9104 74.0719 66.1223 76.6858 65.8025 78.8675C65.6733 79.7491 64.9812 80.6142 64.4053 80.6142C64.3198 80.6142 64.2412 80.5942 64.1719 80.5558C64.2106 81.857 64.1834 83.0116 63.3056 83.0438L63.2854 83.0441C62.6608 83.0441 62.2262 81.9594 61.989 81.1504C61.8516 81.6197 61.5784 81.8792 61.2033 81.8792C61.152 81.8792 61.0983 81.8742 61.0437 81.8643C60.282 81.7256 59.8237 79.9118 59.626 78.9C59.4988 79.0862 59.3107 79.2677 59.0607 79.2677C58.8162 79.2677 58.5731 79.0905 58.3383 78.7411C57.9439 78.1543 57.5446 76.8497 57.1218 75.4685C56.6865 74.0463 56.2365 72.5758 55.7282 71.6139C54.5337 69.353 54.4434 66.6943 54.965 65.3405C55.4351 64.1204 55.7197 63.3428 55.7084 62.8348C55.6692 61.062 54.1072 56.0685 52.9666 52.4224C52.7897 51.8568 52.6223 51.3219 52.4717 50.8342C51.3364 48.2052 50.4865 46.1355 50.1981 45.2971C49.9111 44.4632 49.7282 43.756 49.6387 43.1349C49.5613 42.7387 49.4971 42.3155 49.435 41.9063C49.4166 41.7849 49.3982 41.6636 49.3795 41.543C49.317 41.3524 49.2407 41.0562 49.1466 40.6388C48.7574 40.1924 48.1095 38.623 48.2028 36.6396C48.2785 35.0299 47.3243 31.9948 46.5576 29.556C46.1092 28.1298 45.722 26.8981 45.6476 26.2794C45.6242 26.0851 45.6038 25.9043 45.5863 25.7377C45.5175 26.0119 45.4459 26.2762 45.3719 26.5286C45.1326 27.3454 44.8648 28.339 44.5811 29.3909C44.0472 31.3709 43.4952 33.4183 43.056 34.5769C42.9326 34.9024 42.8237 35.1743 42.7242 35.4228C42.6361 35.6424 42.5555 35.8437 42.4787 36.0478C42.4577 36.6079 42.4579 37.2302 42.4607 37.7139C42.5254 38.1198 42.5266 38.8907 42.4634 39.5587C42.4896 39.9858 42.626 40.3832 42.7579 40.7677C42.8168 40.9392 42.8724 41.1013 42.9174 41.2628C43.0022 41.5357 43.0865 41.9109 43.1666 42.374C43.2715 42.7824 43.2816 42.8289 43.2498 42.8764C43.3245 43.2579 43.5491 44.1694 43.663 44.6313C43.6979 44.7732 43.724 44.8793 43.7351 44.9261C43.8285 45.3227 43.8155 49.6878 43.5206 50.162C43.5728 50.3594 43.6356 50.5926 43.7024 50.8408C43.8776 51.4915 44.0761 52.229 44.1907 52.7117C44.7294 54.3669 45.4631 57.4398 45.432 58.8764C45.4012 60.2895 46.1559 64.7256 46.5541 66.3932C46.8501 67.6329 46.9722 69.8402 47.0528 71.3009L47.0686 71.5836C47.2827 73.1129 47.4283 74.8869 47.4059 75.6989C47.377 76.7508 47.0231 80.0805 46.6331 82.9697C46.6022 83.6337 46.584 84.3906 46.5664 85.1227C46.5251 86.8424 46.4824 88.6206 46.2604 89.6354C45.8187 91.6566 44.8323 94.1641 43.8599 96.5593L43.8592 96.5591C43.7866 97.1376 43.7634 97.6083 43.79 97.9581C43.8549 98.2953 43.9572 98.7289 44.0756 99.2303C44.3549 100.414 44.7027 101.887 44.7433 102.926C44.7989 104.342 44.7788 106.524 44.7028 107.332C44.6967 107.913 44.6839 108.469 44.6674 108.892C44.7664 109.13 44.8195 109.352 44.8296 109.568C44.8349 109.683 44.8372 109.807 44.8396 109.94C44.8507 110.552 44.8659 111.39 45.2286 112.496C45.7167 113.983 45.9122 115.377 45.9853 116.076C46.0772 116.955 46.2192 119.632 46.0253 121.042C45.8406 122.384 45.1961 126.032 44.885 127.09C44.831 127.274 44.7742 127.49 44.7141 127.718C44.5832 128.215 44.435 128.778 44.2584 129.227C43.7113 132.331 42.9322 138.236 42.7684 139.534C42.73 139.837 42.6783 140.134 42.6146 140.415C42.5466 141.667 42.5104 143.32 42.591 144.002C42.689 144.831 42.9158 145.513 43.135 146.173L43.214 146.411C43.4485 147.125 43.3645 147.917 42.9643 148.765C42.6512 149.429 42.8675 150.871 43.401 151.677C43.7836 152.255 44.6716 153.319 45.3201 154.096C45.5733 154.399 45.7921 154.662 45.9295 154.834C46.4625 155.5 46.6088 156.599 46.4423 157.275C46.2767 157.949 46.0064 158.211 45.4784 158.211C45.2326 158.211 45.0177 158.1 44.8449 158.01C44.7291 157.95 44.6197 157.893 44.5454 157.893C44.5322 157.893 44.5207 157.895 44.5102 157.899C44.4274 157.929 44.3713 157.974 44.3063 158.026C44.2001 158.112 44.0798 158.209 43.8479 158.231C43.8338 158.232 43.8198 158.233 43.8058 158.233Z" fill="white" stroke="#28839F" stroke-width="0.7"/>
<path d="M26.151 -8.54055C24.0058 1.24868 21.1143 -1.46914 14.3434 1.91855C13.3899 2.39557 13.1769 2.64932 13.9478 3.21769C14.7187 3.78606 17.0515 5.37954 17.7615 7.61244C18.4715 9.84534 18.7352 13.6616 19.6684 16.0974C20.6015 18.5333 22.6504 21.8218 23.6241 23.5269C24.5978 25.232 26.1193 28.7844 26.383 29.9414C26.6467 31.0985 27.5393 32.4382 27.6001 31.0376C27.661 29.6369 27.1539 24.1765 27.0321 20.9286C26.9104 17.6808 27.1133 11.9361 27.1539 10.0483C27.1944 8.16051 27.0727 5.52164 27.235 4.2225C27.3973 2.92335 27.093 -4.14073 27.0321 -5.56167C26.9713 -6.98259 27.2756 -8.24114 27.1133 -8.93131C26.951 -9.62147 26.3786 -9.5794 26.151 -8.54055Z" fill="#28839F"/>
<path d="M6.82764 4.12147C4.81936 4.95373 3.64278 6.41527 2.62849 8.74966C1.6142 11.0841 1.33019 13.6011 1.57362 15.5295C1.81706 17.458 1.99963 18.5338 2.01991 19.2646C2.0402 19.9954 2.52706 19.0819 3.64278 18.0466C4.7585 17.0114 7.39566 14.6161 7.98394 13.1749C8.57223 11.7336 8.24765 10.2518 9.36338 9.27744C10.4791 8.30308 11.6354 7.00393 12.7714 6.51676C13.9074 6.02959 13.5017 5.29882 12.528 5.17702C11.5542 5.05523 10.1545 4.01998 9.52566 3.87788C8.8968 3.73578 7.45767 3.86038 6.82764 4.12147Z" fill="#28839F" fill-opacity="0.2"/>
<path d="M15.1754 6.14058C13.9583 6.35373 11.879 7.35853 11.2907 8.2314C10.7293 9.06441 9.97211 8.97231 9.8504 9.43918C9.72869 9.90606 10.459 9.86547 10.9053 10.6977C11.3516 11.53 11.5747 12.89 12.2441 13.702C14.5226 16.4656 15.4949 16.2445 18.2082 17.5182C18.8255 17.808 19.689 18.1272 19.7499 17.7212C19.8107 17.3152 19.5774 16.8179 19.0804 15.9349C18.5834 15.0519 18.2893 12.4841 18.0662 11.3067C17.843 10.1294 17.4677 8.19079 17.0519 7.26718C16.636 6.34358 15.5821 6.06936 15.1754 6.14058Z" fill="#28839F"/>
<path d="M9.05895 11.3581C9.32157 11.8498 9.39366 11.792 9.92616 12.1346C10.4587 12.4771 10.8162 12.9262 10.9607 13.0937C11.1053 13.2612 11.3639 12.8349 11.1585 12.2868C10.9531 11.7387 10.6184 11.1754 10.3217 10.871C10.0251 10.5665 9.90334 10.1935 9.62188 10.125C9.34041 10.0564 8.82312 10.9166 9.05895 11.3581Z" fill="#28839F"/>
<path d="M13.1162 15.5088C12.5972 15.0127 11.8788 14.1387 11.0876 13.7631C10.2965 13.3876 9.23149 12.0682 8.91707 12.4234C8.60263 12.7786 8.71421 13.824 9.03878 14.6157C9.36336 15.4073 9.71836 16.5035 9.97193 17.3967C10.2255 18.2898 10.9456 19.051 11.7165 19.2845C12.4874 19.5179 14.3334 19.8325 15.5505 19.7108C16.7677 19.589 17.8428 19.0003 18.3094 18.6958C19.4281 17.9657 15.3882 17.6808 13.1162 15.5088Z" fill="#28839F"/>
<path d="M19.5267 18.574C18.5924 18.8233 17.9647 19.6296 15.8956 20.0761C14.5489 20.3668 11.737 20.0355 11.1081 19.8325C10.4793 19.6296 10.0533 20.4009 10.1344 21.0099C10.2155 21.6189 10.459 24.136 11.1487 26.4906C11.8384 28.8453 12.7918 32.7631 13.4613 34.5291C14.1307 36.2951 14.3741 36.4778 15.003 39.9286C15.6319 43.3795 17.4779 45.3079 17.9647 46.5867C18.4516 47.8656 20.5816 46.7897 20.3585 44.8004C20.1353 42.8111 20.1962 41.3496 21.251 38.7107C22.3059 36.0718 23.4825 33.5547 24.3345 32.1744C25.1865 30.7941 25.4603 29.3528 25.1256 28.1146C24.7909 26.8763 23.9592 25.0291 23.3607 23.9939C22.7623 22.9586 21.3322 20.7968 20.8656 19.9138C20.399 19.0307 20.3077 18.8683 20.1962 18.7161C20.0846 18.5639 19.831 18.4928 19.5267 18.574Z" fill="#28839F"/>
<path d="M16.5853 44.8616C17.0088 45.6082 17.4576 46.3637 17.7416 47.2163C18.0256 48.0688 17.4779 48.7793 16.8693 49.0838C16.2607 49.3883 14.9117 49.4086 13.9887 49.6928C13.0657 49.9769 12.7006 50.3829 12.4673 50.322C12.234 50.2611 12.6649 49.2393 12.9338 48.6981C13.8873 46.7798 15.286 44.462 15.6522 44.2526C15.8652 44.1308 16.1593 44.1105 16.5853 44.8616Z" fill="#28839F" fill-opacity="0.2"/>
<path d="M14.7863 42.0501C13.8957 42.432 12.9625 44.2157 12.7875 44.9579C12.6637 45.4829 12.6054 46.3596 12.6024 47.0741C12.6005 47.5456 12.5065 47.9964 12.6258 48.0104C13.2116 48.0789 13.4018 46.7848 14.5403 45.1508C14.8735 44.6727 15.2566 43.8364 15.4088 43.542C15.5609 43.2477 15.3543 41.8065 14.7863 42.0501Z" fill="#28839F" fill-opacity="0.2"/>
<path d="M14.2018 40.1769C13.7431 40.6971 13.2465 42.8195 13.2616 42.8111C13.4874 42.6852 13.8084 42.3679 14.0953 42.1256C14.3569 41.9047 14.7343 41.6384 14.7191 41.2273C14.7039 40.8163 14.5441 39.7886 14.2018 40.1769Z" fill="#28839F" fill-opacity="0.2"/>
<path d="M7.92299 14.8597C7.21115 15.9875 5.55971 18.9855 4.98155 20.645C4.40341 22.3044 4.27155 24.1567 4.21069 26.349C4.14984 28.5413 3.55141 33.8394 3.82526 35.0573C4.09912 36.2752 4.50484 37.1075 5.38727 36.5594C6.26971 36.0114 7.57814 32.936 8.49099 30.8351C9.40386 28.7341 10.06 25.0946 9.911 23.6289C9.66758 21.2336 9.68787 20.6856 9.62701 18.412C9.57226 16.3671 8.28815 14.2812 7.92299 14.8597Z" fill="#28839F" fill-opacity="0.2"/>
<path d="M6.86839 36.3556C6.4622 37.3209 5.95552 37.8324 5.31651 38.2434C4.67752 38.6545 4.99701 39.842 5.68167 40.4966C6.3663 41.1513 6.57932 41.6841 6.74667 41.745C6.91403 41.8059 7.34763 39.4081 7.46174 39.0046C7.57585 38.6012 7.81929 37.33 7.67474 36.9493C7.5302 36.5687 7.29438 35.3432 6.86839 36.3556Z" fill="#28839F" fill-opacity="0.2"/>
<path d="M4.88151 17.9139C4.14317 18.3105 2.8642 18.8417 2.26336 22.2179C2.16447 22.7736 1.91296 25.6078 1.76082 26.5517C1.60868 27.4956 1.62486 30.1782 1.68983 30.9668C1.76256 31.8498 1.65986 33.1794 1.79679 33.8797C1.93371 34.58 2.55751 33.4991 2.70965 31.9614C2.86179 30.4238 3.36894 26.9882 3.69351 24.06C3.93219 21.9068 4.05993 20.6549 5.39373 18.6452C6.12058 17.5501 5.88049 17.3773 4.88151 17.9139Z" fill="#28839F" fill-opacity="0.2"/>
<path d="M-0.028978 34.6302C0.120102 35.3571 0.397033 36.2745 0.883886 37.33C1.37075 38.3856 2.06047 39.025 2.08076 39.9486C2.10104 40.8722 1.64461 41.6131 1.5736 42.3845C1.50261 43.1558 1.1476 43.4299 1.02589 43.0746C0.904177 42.7194 0.224601 41.6435 0.133316 40.3952C0.0420312 39.1468 -0.373829 38.3653 -0.556399 37.6548C-0.738969 36.9443 -0.444836 35.8888 -0.373828 35.4625C-0.302833 35.0362 -0.0987074 34.2902 -0.028978 34.6302Z" fill="#28839F" fill-opacity="0.2"/>
<path d="M-1.85462 41.4514C-1.85462 43.1018 -1.81405 47.2569 -1.97633 49.7334C-2.13863 52.2099 -3.17319 61.5881 -3.47749 63.009C-3.78177 64.43 -3.05148 62.806 -2.66605 61.1821C-2.28062 59.5582 -1.7329 57.508 -0.880897 54.8488C-0.0289025 52.1896 0.762248 48.3328 0.701391 46.9322C0.640534 45.5315 0.640534 43.6031 0.255104 42.71C-0.130327 41.8168 -0.191184 40.7613 -0.353464 40.0508C-0.515757 39.3403 -0.749045 38.4776 -0.880897 38.2645C-1.01276 38.0513 -1.31705 39.0561 -1.53004 39.726C-1.74304 40.3959 -1.85462 41.3296 -1.85462 41.4514Z" fill="#28839F" fill-opacity="0.2"/>
<path d="M3.27753 42.1208C3.27753 43.1241 2.35453 45.328 1.91838 46.2618C1.48223 47.1955 0.630236 51.4685 0.336091 52.93C0.0419453 54.3916 -0.678197 59.7099 -1.28678 61.6383C-1.89535 63.5667 -1.97649 64.1351 -1.42878 63.6885C-0.881058 63.242 0.11294 60.2783 0.49837 58.9385C0.883801 57.5988 4.15997 50.1186 4.47947 48.7027C4.79896 47.2869 6.1074 45.6579 6.1074 44.851C6.1074 44.0441 6.06175 42.5673 5.1641 41.9888C4.26647 41.4103 3.27753 41.0652 3.27753 42.1208Z" fill="#28839F" fill-opacity="0.2"/>
<path d="M27.0427 51.0318C27.1035 49.9661 27.1339 45.8251 27.0122 44.5767C26.8905 43.3283 27.3926 39.8571 27.1644 38.5478C26.9362 37.2385 27.713 33.7404 27.4382 32.7017C27.2356 31.9357 25.4898 31.9903 24.1722 34.2444C23.5434 35.3203 22.8739 36.7615 22.4277 37.6547C21.9814 38.5478 20.7845 41.9378 21.0888 43.5414C21.3931 45.145 21.0685 46.4239 19.8716 47.4388C18.2472 48.8164 20.2984 49.406 21.5351 49.8443C22.9957 50.3619 24.791 52.6456 25.3082 53.6503C25.8255 54.6552 27.423 55.5229 27.2253 54.1071C27.0275 52.6912 27.0427 51.0318 27.0427 51.0318Z" fill="#28839F"/>
<path d="M30.2389 -8.54055C32.3841 1.24868 35.2755 -1.46914 42.0465 1.91855C42.9999 2.39557 43.2129 2.64932 42.4421 3.21769C41.6712 3.78606 39.3383 5.37954 38.6283 7.61244C37.9183 9.84534 37.6546 13.6616 36.7215 16.0974C35.7883 18.5333 33.7395 21.8218 32.7657 23.5269C31.792 25.232 30.2706 28.7844 30.0069 29.9414C29.7431 31.0985 28.8506 32.4382 28.7897 31.0376C28.7289 29.6369 29.236 24.1765 29.3577 20.9286C29.4794 17.6808 29.2766 11.9361 29.236 10.0483C29.1954 8.16051 29.3171 5.52164 29.1549 4.2225C28.9926 2.92335 29.2969 -4.14073 29.3577 -5.56167C29.4186 -6.98259 29.1143 -8.24114 29.2766 -8.93131C29.4389 -9.62147 30.0112 -9.5794 30.2389 -8.54055Z" fill="#28839F"/>
<path d="M49.5621 4.12147C51.5704 4.95373 52.747 6.41527 53.7613 8.74966C54.7756 11.0841 55.0596 13.6011 54.8162 15.5295C54.5727 17.458 54.3902 18.5338 54.3699 19.2646C54.3496 19.9954 53.8627 19.0819 52.747 18.0466C51.6313 17.0114 48.9941 14.6161 48.4059 13.1749C47.8176 11.7336 48.1421 10.2518 47.0264 9.27744C45.9107 8.30308 44.7544 7.00393 43.6184 6.51676C42.4824 6.02959 42.8881 5.29882 43.8618 5.17702C44.8355 5.05523 46.2353 4.01998 46.8641 3.87788C47.493 3.73578 48.9321 3.86038 49.5621 4.12147Z" fill="#28839F" fill-opacity="0.2"/>
<path d="M41.2148 6.14058C42.4319 6.35373 44.5112 7.35853 45.0995 8.2314C45.661 9.06441 46.4181 8.97231 46.5398 9.43918C46.6615 9.90606 45.9312 9.86547 45.4849 10.6977C45.0387 11.53 44.8155 12.89 44.1461 13.702C41.8676 16.4656 40.8953 16.2445 38.1821 17.5182C37.5647 17.808 36.7012 18.1272 36.6403 17.7212C36.5795 17.3152 36.8128 16.8179 37.3098 15.9349C37.8068 15.0519 38.1009 12.4841 38.3241 11.3067C38.5472 10.1294 38.9225 8.19079 39.3384 7.26718C39.7542 6.34358 40.8081 6.06936 41.2148 6.14058Z" fill="#28839F"/>
<path d="M47.3306 11.3581C47.068 11.8498 46.9959 11.792 46.4634 12.1346C45.9309 12.4771 45.5734 12.9262 45.4289 13.0937C45.2843 13.2612 45.0257 12.8349 45.2311 12.2868C45.4365 11.7387 45.7712 11.1754 46.0678 10.871C46.3645 10.5665 46.4863 10.1935 46.7677 10.125C47.0492 10.0564 47.5665 10.9166 47.3306 11.3581Z" fill="#28839F"/>
<path d="M43.2738 15.5088C43.7928 15.0127 44.5112 14.1387 45.3023 13.7631C46.0935 13.3876 47.1585 12.0682 47.4729 12.4234C47.7874 12.7786 47.6758 13.824 47.3512 14.6157C47.0266 15.4073 46.6716 16.5035 46.4181 17.3967C46.1645 18.2898 45.4444 19.051 44.6735 19.2845C43.9026 19.5179 42.0566 19.8325 40.8395 19.7108C39.6223 19.589 38.5472 19.0003 38.0806 18.6958C36.9618 17.9657 41.0018 17.6808 43.2738 15.5088Z" fill="#28839F"/>
<path d="M36.8636 18.574C37.7979 18.8233 38.4256 19.6296 40.4947 20.0761C41.8414 20.3668 44.6533 20.0355 45.2822 19.8325C45.911 19.6296 46.337 20.4009 46.2559 21.0099C46.1747 21.6189 45.9313 24.136 45.2416 26.4906C44.5519 28.8453 43.5985 32.7631 42.929 34.5291C42.2596 36.2951 42.0162 36.4778 41.3873 39.9286C40.7584 43.3795 38.9124 45.3079 38.4256 46.5867C37.9387 47.8656 35.8087 46.7897 36.0319 44.8004C36.255 42.8111 36.1941 41.3496 35.1393 38.7107C34.0844 36.0718 32.9078 33.5547 32.0558 32.1744C31.2038 30.7941 30.93 29.3528 31.2647 28.1146C31.5994 26.8763 32.4311 25.0291 33.0296 23.9939C33.628 22.9586 35.0581 20.7968 35.5247 19.9138C35.9913 19.0307 36.0826 18.8683 36.1941 18.7161C36.3057 18.5639 36.5593 18.4928 36.8636 18.574Z" fill="#28839F"/>
<path d="M39.8047 44.8616C39.3812 45.6082 38.9324 46.3637 38.6484 47.2163C38.3644 48.0688 38.9121 48.7793 39.5207 49.0838C40.1293 49.3883 41.4783 49.4086 42.4013 49.6928C43.3243 49.9769 43.6894 50.3829 43.9227 50.322C44.156 50.2611 43.7251 49.2393 43.4561 48.6981C42.5027 46.7798 41.104 44.462 40.7378 44.2526C40.5248 44.1308 40.2307 44.1105 39.8047 44.8616Z" fill="#28839F" fill-opacity="0.2"/>
<path d="M41.604 42.0501C42.4945 42.432 43.4278 44.2157 43.6028 44.9579C43.7265 45.4829 43.7849 46.3596 43.7878 47.0741C43.7898 47.5456 43.8837 47.9964 43.7644 48.0104C43.1787 48.0789 42.9885 46.7848 41.8499 45.1508C41.5168 44.6727 41.1336 43.8364 40.9815 43.542C40.8293 43.2477 41.036 41.8065 41.604 42.0501Z" fill="#28839F" fill-opacity="0.2"/>
<path d="M42.1881 40.1769C42.6468 40.6971 43.1435 42.8195 43.1284 42.8111C42.9025 42.6852 42.5816 42.3679 42.2946 42.1256C42.033 41.9047 41.6556 41.6384 41.6709 41.2273C41.6861 40.8163 41.8458 39.7886 42.1881 40.1769Z" fill="#28839F" fill-opacity="0.2"/>
<path d="M48.4667 14.8597C49.1785 15.9875 50.8299 18.9855 51.4081 20.645C51.9862 22.3044 52.1181 24.1567 52.179 26.349C52.2398 28.5413 52.8382 33.8394 52.5644 35.0573C52.2905 36.2752 51.8848 37.1075 51.0024 36.5594C50.1199 36.0114 48.8115 32.936 47.8987 30.8351C46.9858 28.7341 46.3297 25.0946 46.4786 23.6289C46.7221 21.2336 46.7018 20.6856 46.7626 18.412C46.8174 16.3671 48.1015 14.2812 48.4667 14.8597Z" fill="#28839F" fill-opacity="0.2"/>
<path d="M49.5218 36.3556C49.928 37.3209 50.4347 37.8324 51.0737 38.2434C51.7127 38.6545 51.3932 39.842 50.7085 40.4966C50.0239 41.1513 49.8109 41.6841 49.6435 41.745C49.4762 41.8059 49.0426 39.4081 48.9285 39.0046C48.8144 38.6012 48.5709 37.33 48.7155 36.9493C48.86 36.5687 49.0958 35.3432 49.5218 36.3556Z" fill="#28839F" fill-opacity="0.2"/>
<path d="M51.5085 17.9139C52.2468 18.3105 53.5258 18.8417 54.1266 22.2179C54.2255 22.7736 54.477 25.6078 54.6292 26.5517C54.7813 27.4956 54.7651 30.1782 54.7002 30.9668C54.6274 31.8498 54.7301 33.1794 54.5932 33.8797C54.4563 34.58 53.8325 33.4991 53.6803 31.9614C53.5282 30.4238 53.0211 26.9882 52.6965 24.06C52.4578 21.9068 52.3301 20.6549 50.9963 18.6452C50.2694 17.5501 50.5095 17.3773 51.5085 17.9139Z" fill="#28839F" fill-opacity="0.2"/>
<path d="M56.419 34.6302C56.2699 35.3571 55.993 36.2745 55.5061 37.33C55.0193 38.3856 54.3295 39.025 54.3092 39.9486C54.289 40.8722 54.7454 41.6131 54.8164 42.3845C54.8874 43.1558 55.2424 43.4299 55.3641 43.0746C55.4858 42.7194 56.1654 41.6435 56.2567 40.3952C56.348 39.1468 56.7638 38.3653 56.9464 37.6548C57.129 36.9443 56.8348 35.8888 56.7638 35.4625C56.6928 35.0362 56.4887 34.2902 56.419 34.6302Z" fill="#28839F" fill-opacity="0.2"/>
<path d="M58.2444 41.4514C58.2444 43.1018 58.2038 47.2569 58.3661 49.7334C58.5284 52.2099 59.5629 61.5881 59.8672 63.009C60.1715 64.43 59.4412 62.806 59.0558 61.1821C58.6704 59.5582 58.1227 57.508 57.2706 54.8488C56.4186 52.1896 55.6275 48.3328 55.6884 46.9322C55.7492 45.5315 55.7492 43.6031 56.1346 42.71C56.5201 41.8168 56.5809 40.7613 56.7432 40.0508C56.9055 39.3403 57.1388 38.4776 57.2706 38.2645C57.4025 38.0513 57.7068 39.0561 57.9198 39.726C58.1328 40.3959 58.2444 41.3296 58.2444 41.4514Z" fill="#28839F" fill-opacity="0.2"/>
<path d="M53.1121 42.1208C53.1121 43.1241 54.0351 45.328 54.4712 46.2618C54.9074 47.1955 55.7594 51.4685 56.0535 52.93C56.3477 54.3916 57.0678 59.7099 57.6764 61.6383C58.285 63.5667 58.3661 64.1351 57.8184 63.6885C57.2707 63.242 56.2767 60.2783 55.8913 58.9385C55.5058 57.5988 52.2297 50.1186 51.9102 48.7027C51.5907 47.2869 50.2822 45.6579 50.2822 44.851C50.2822 44.0441 50.3279 42.5673 51.2255 41.9888C52.1232 41.4103 53.1121 41.0652 53.1121 42.1208Z" fill="#28839F" fill-opacity="0.2"/>
<path d="M60.8714 62.6334C59.867 60.9583 59.6999 55.2801 59.4717 53.5901C59.2435 51.9003 58.9849 46.8001 58.9696 45.7801C58.9544 44.76 59.137 44.8362 59.3348 45.8105C59.5326 46.7849 59.8977 49.6623 60.1868 51.3217C60.4759 52.9812 60.8106 58.6446 61.0084 59.8778C61.2061 61.111 61.054 62.9379 60.8714 62.6334Z" fill="#28839F" fill-opacity="0.2"/>
<path d="M29.3473 51.0318C29.2864 49.9661 29.256 45.8251 29.3777 44.5767C29.4994 43.3283 28.9974 39.8571 29.2256 38.5478C29.4538 37.2385 28.677 33.7404 28.9517 32.7017C29.1543 31.9357 30.9002 31.9903 32.2177 34.2444C32.8466 35.3203 33.516 36.7615 33.9623 37.6547C34.4086 38.5478 35.6055 41.9378 35.3012 43.5414C34.9969 45.145 35.3215 46.4239 36.5183 47.4388C38.1428 48.8164 36.0916 49.406 34.8549 49.8443C33.3943 50.3619 31.599 52.6456 31.0817 53.6503C30.5644 54.6552 28.9669 55.5229 29.1647 54.1071C29.3625 52.6912 29.3473 51.0318 29.3473 51.0318Z" fill="#28839F"/>
</g>
<defs>
<clipPath id="clip0_4044_3067">
<rect width="61" height="48" fill="white"/>
</clipPath>
</defs>
</svg>
