<svg width="61" height="48" viewBox="0 0 61 48" fill="none" xmlns="http://www.w3.org/2000/svg">
<g clip-path="url(#clip0_4042_2063)">
<path d="M39.808 157.241C39.6244 157.241 39.4761 157.133 39.3327 157.03C39.2137 156.944 39.1014 156.862 38.9936 156.862C38.9749 156.862 38.9568 156.865 38.9381 156.869C38.8153 156.901 38.7477 156.954 38.6695 157.015C38.5589 157.102 38.4335 157.2 38.1792 157.2C38.1624 157.2 38.1449 157.199 38.1267 157.198C37.8895 157.187 37.7413 157.087 37.6105 156.998C37.49 156.917 37.3949 156.853 37.2359 156.853C37.2264 156.853 37.2166 156.853 37.2066 156.853C37.0397 156.861 36.9434 156.918 36.8215 156.989C36.6689 157.079 36.496 157.18 36.1731 157.198C36.1507 157.2 36.1286 157.2 36.1068 157.2C35.8053 157.2 35.5461 157.085 35.3174 156.983C35.1252 156.898 34.9437 156.817 34.7627 156.813L34.7478 156.813C34.5631 156.813 34.336 156.888 34.0956 156.967C33.7967 157.066 33.458 157.178 33.1065 157.178L33.0798 157.178C32.2324 157.165 31.7509 156.728 31.6486 155.881C31.5943 155.432 31.7434 154.945 31.8876 154.475C32.0544 153.931 32.2268 153.369 32.0979 152.853C31.8256 151.763 31.6691 150.36 31.7085 149.363C31.7356 148.679 31.523 147.757 31.3355 146.944C31.2452 146.552 31.1599 146.183 31.1019 145.85C30.9806 145.156 31.4886 143.938 31.9368 142.863C32.1822 142.275 32.414 141.719 32.4607 141.421C32.5617 140.775 32.4463 137.256 32.3843 135.364L32.3752 135.087C32.3236 134.717 32.2718 134.323 32.2206 133.933C32.0812 132.871 31.9495 131.868 31.8348 131.439L31.7487 131.118C31.4431 129.982 30.9838 128.275 30.9829 127.678C30.8771 127.402 30.7228 126.993 30.5649 126.528C30.1839 126.059 29.9068 125.027 29.7414 123.46C29.4799 120.984 29.7685 117.507 30.068 116.05C30.2187 115.317 30.4544 114.429 30.6624 113.646C30.861 112.899 31.0486 112.193 31.1221 111.77C31.1979 111.336 31.2148 111.09 31.225 110.944C31.2316 110.848 31.236 110.784 31.2548 110.734C31.2295 110.599 31.2022 110.446 31.173 110.282C31.0293 109.476 30.8327 108.373 30.5767 107.802C30.2395 107.051 29.7967 104.811 29.6077 103.855L29.6012 103.822C29.541 103.517 29.4858 103.007 29.4371 102.304C29.3449 101.548 29.3165 100.638 29.2977 100.037L29.2944 99.9329C29.2853 99.6472 29.2854 99.0758 29.3458 98.8629C29.3379 98.6833 29.3077 98.5179 29.2224 98.1806C29.1335 97.8289 29.0739 97.4488 29.0049 97.0087C28.9713 96.7947 28.9355 96.5662 28.8929 96.32C28.8489 96.1636 28.8203 96.0078 28.8085 95.8565C28.7286 95.4462 28.6689 95.2524 28.6163 95.0812C28.5541 94.879 28.5 94.7029 28.4336 94.2626C28.3463 94.1421 28.2935 93.6902 28.1415 91.9965C28.0812 91.3247 28.0188 90.63 27.9564 90.1096C27.923 89.8313 27.9031 89.4741 27.8973 89.0477C27.8382 88.9257 27.759 88.8016 27.6754 88.6707C27.5817 88.5238 27.485 88.3723 27.397 88.1966C27.0435 87.8658 26.69 86.0393 26.6326 85.5415C26.5032 84.4192 25.6819 79.4697 25.2073 77.8917C24.6655 76.0905 25.0365 72.4604 25.0806 72.0524C25.0955 71.9138 25.1093 71.7766 25.1228 71.6418C25.1805 71.0654 25.2351 70.5197 25.3665 70.1003C25.2286 69.8427 24.5884 69.7272 24.2776 69.7272H24.1153C23.8069 69.7272 23.1741 69.841 23.0271 70.1024C23.1581 70.5218 23.2127 71.0671 23.2703 71.6429C23.2837 71.7774 23.2975 71.9142 23.3124 72.0525C23.3565 72.4605 23.7275 76.0908 23.1856 77.8917C22.7111 79.4697 21.8897 84.4192 21.7603 85.5415C21.7029 86.0393 21.3494 87.8658 20.9961 88.1966C20.908 88.3723 20.8113 88.5237 20.7177 88.6704C20.6341 88.8014 20.5548 88.9256 20.4957 89.0477C20.4899 89.4736 20.47 89.8307 20.4366 90.1096C20.3742 90.6301 20.3118 91.325 20.2515 91.997C20.0995 93.6904 20.0467 94.1422 19.9594 94.2627C19.893 94.7029 19.8388 94.879 19.7766 95.0812C19.7241 95.2523 19.6645 95.4461 19.5845 95.8565C19.5727 96.0076 19.5441 96.1637 19.497 96.3332C19.4575 96.5659 19.4218 96.7941 19.3882 97.008C19.3192 97.4484 19.2596 97.8287 19.1706 98.1807C19.0995 98.4617 19.068 98.6185 19.0542 98.7623C19.088 98.9083 19.0922 99.2025 19.0964 99.6885L19.0987 99.9271C19.1056 100.569 19.0694 101.619 18.944 102.465C18.8989 103.081 18.8473 103.541 18.7917 103.822L18.7859 103.851C18.5968 104.808 18.1539 107.05 17.8162 107.802C17.5602 108.373 17.3635 109.477 17.2199 110.282C17.1907 110.446 17.1635 110.599 17.1383 110.734C17.157 110.784 17.1614 110.848 17.168 110.943C17.1781 111.09 17.1951 111.336 17.2709 111.77C17.3445 112.193 17.5321 112.899 17.7308 113.647C17.9387 114.43 18.1744 115.317 18.325 116.05C18.6245 117.507 18.9131 120.984 18.6516 123.46C18.5312 124.6 18.2819 126.071 17.7763 126.651C17.6173 127.126 17.4822 127.489 17.4101 127.678C17.4092 128.276 16.9495 129.984 16.6436 131.12L16.5582 131.439C16.4436 131.868 16.312 132.87 16.1727 133.931C16.1214 134.322 16.0695 134.717 16.0178 135.087L16.0086 135.369C15.9466 137.259 15.8314 140.776 15.9323 141.421C15.979 141.719 16.2108 142.275 16.4561 142.863C16.9044 143.937 17.4124 145.156 17.2911 145.85C17.233 146.183 17.1478 146.552 17.0575 146.944C16.87 147.757 16.6574 148.679 16.6844 149.363C16.724 150.36 16.5675 151.763 16.2951 152.853C16.1661 153.369 16.3386 153.931 16.5054 154.475C16.6496 154.945 16.7987 155.432 16.7444 155.881C16.6421 156.728 16.1605 157.165 15.3132 157.178L15.2865 157.178C14.9349 157.178 14.5962 157.066 14.2974 156.967C14.0569 156.888 13.8299 156.813 13.6451 156.813L13.6303 156.813C13.4493 156.817 13.2678 156.898 13.0756 156.983C12.8469 157.085 12.5877 157.2 12.2862 157.2C12.2643 157.2 12.2422 157.2 12.2199 157.198C11.8969 157.18 11.7241 157.079 11.5715 156.989C11.4496 156.918 11.3533 156.861 11.1864 156.853C11.1763 156.853 11.1666 156.853 11.1571 156.853C10.9981 156.853 10.903 156.917 10.7825 156.998C10.6517 157.087 10.5035 157.187 10.2663 157.198C10.2481 157.199 10.2306 157.2 10.2139 157.2C9.95951 157.2 9.83412 157.102 9.72348 157.015C9.6452 156.954 9.57762 156.901 9.45482 156.869C9.43615 156.865 9.41801 156.862 9.39934 156.862C9.29156 156.862 9.17926 156.944 9.06032 157.03C8.91692 157.133 8.7686 157.241 8.585 157.241C8.57105 157.241 8.55695 157.24 8.54287 157.239C8.31103 157.217 8.19068 157.12 8.08449 157.034C8.01951 156.981 7.96343 156.936 7.88056 156.906C7.87012 156.903 7.85857 156.901 7.84541 156.901C7.77112 156.901 7.66168 156.957 7.54585 157.018C7.37316 157.107 7.15812 157.219 6.91232 157.219C6.38438 157.219 6.11413 156.956 5.9484 156.283C5.78195 155.606 5.92828 154.508 6.46127 153.841C6.59888 153.669 6.8179 153.406 7.07154 153.102C7.71969 152.326 8.60745 151.262 8.98988 150.684C9.5234 149.878 9.7397 148.436 9.42652 147.773C9.0263 146.924 8.9423 146.132 9.17686 145.419L9.256 145.18C9.47521 144.52 9.70195 143.838 9.79989 143.009C9.88043 142.327 9.84422 140.675 9.77631 139.422C9.71258 139.141 9.66082 138.844 9.62254 138.541C9.40386 136.809 8.40823 129.308 7.8902 126.982C7.40306 124.796 6.63151 120.788 6.50266 118.709C6.38891 116.874 6.51935 115.679 6.59729 114.965L6.61476 114.804C6.64154 114.552 6.71364 114.065 6.76307 113.839C6.85995 113.344 6.99578 112.884 7.11558 112.479C7.18568 112.242 7.252 112.018 7.3027 111.812C7.33453 111.564 7.41355 110.996 7.49681 110.8L7.50817 110.742C7.59316 110.31 7.68937 109.821 7.73862 109.367C7.73696 109.08 7.74407 108.811 7.76022 108.545C7.67523 107.611 7.64015 104.081 7.75031 102.467C7.82235 101.412 8.10595 99.8521 8.33381 98.5987C8.45542 97.9297 8.56046 97.3519 8.59276 97.0615C8.63217 96.7062 8.61163 96.2035 8.53189 95.5669L8.53076 95.5641C7.55854 93.1696 6.57208 90.6621 6.13026 88.6406C5.90838 87.6258 5.86573 85.8474 5.82446 84.1276C5.78619 82.5334 5.74664 80.8849 5.56164 79.9496C5.18799 78.0608 5.13523 74.7931 5.18966 73.1771C5.17018 72.8139 5.227 72.0759 5.25969 71.752C5.23956 71.6892 5.24606 71.6104 5.25583 71.5326C5.28135 71.328 5.30627 70.877 5.33783 70.306C5.41863 68.845 5.54063 66.6371 5.8366 65.3975C6.23476 63.7301 6.98956 59.294 6.95879 57.8805C6.92763 56.4441 7.6613 53.3711 8.20293 51.7049C8.31484 51.2321 8.51385 50.4929 8.68948 49.8408C8.78463 49.4872 8.87162 49.1642 8.93155 48.9323C8.96797 48.4865 9.0806 48.0356 9.17489 47.6916C9.30387 47.2214 9.21543 46.6558 9.11302 46.0008C9.00072 45.2826 8.86092 44.3887 8.96783 43.3292C9.14518 41.5721 9.34127 40.6917 9.4745 40.2626C9.51837 40.1049 9.57398 39.9428 9.63292 39.7712C9.76489 39.3867 9.90132 38.9892 9.9275 38.5621C9.86425 37.8941 9.86543 37.1232 9.93015 36.7173C9.935 35.8476 9.92969 34.8705 9.85506 34.2009C9.82881 34.0705 9.80382 33.9149 9.78236 33.7498C9.65059 33.1448 9.38705 32.528 9.19462 32.0776C9.13137 31.9297 9.07575 31.7995 9.03143 31.6862C8.86563 31.5659 8.80065 31.2181 8.68369 30.5926C8.5997 30.1435 8.49517 29.5846 8.32374 29.0097C7.9879 27.884 7.3139 24.9488 7.06452 23.4108C7.02964 23.3996 6.99634 23.3936 6.96718 23.3936C6.93807 23.3936 6.92465 23.3997 6.92126 23.4015C6.90644 23.4095 6.88703 23.4251 6.8681 23.4681C6.91469 23.7503 6.81249 24.7056 6.74311 25.2823C6.66868 25.9011 6.28141 27.1329 5.83308 28.5592C5.06639 30.998 4.11217 34.0332 4.18785 35.6429C4.28918 37.7977 3.54136 39.4119 3.1499 39.732C3.07435 40.118 3.01202 40.5306 2.95162 40.9302C2.89082 41.3328 2.82789 41.7492 2.75074 42.1452C2.66243 42.7594 2.47942 43.4667 2.19249 44.3007C1.90404 45.1393 1.05415 47.209 -0.0812111 49.8379C-0.231781 50.3254 -0.399035 50.8601 -0.575935 51.4256C-1.7166 55.072 -3.27876 60.066 -3.31804 61.839C-3.32927 62.3472 -3.04466 63.1247 -2.5746 64.3448C-2.05304 65.6987 -2.14328 68.3576 -3.33791 70.6184C-3.84612 71.5803 -4.29618 73.0508 -4.73148 74.4729C-5.15423 75.8543 -5.55366 77.1591 -5.94805 77.7459C-6.18288 78.0953 -6.42595 78.2725 -6.67049 78.2725C-6.92054 78.2725 -7.10859 78.091 -7.23577 77.9047C-7.43353 78.9165 -7.89183 80.7305 -8.65355 80.8691C-8.70811 80.8791 -8.76179 80.8841 -8.8131 80.8841C-9.18827 80.8841 -9.46151 80.6246 -9.59893 80.1552C-9.83616 80.9643 -10.2707 82.049 -10.8954 82.049L-10.9156 82.0487C-11.7948 82.0165 -11.8207 80.8615 -11.7807 79.56C-11.8504 79.5989 -11.9292 79.619 -12.0153 79.619C-12.5911 79.619 -13.2832 78.7539 -13.4125 77.8723C-13.7323 75.6905 -13.5204 73.0768 -13.3657 71.1683C-13.2896 70.2305 -13.2112 69.2636 -13.2757 68.9902C-13.3943 69.0998 -13.5454 69.2957 -13.7182 69.5195C-14.0427 69.9398 -14.4464 70.4629 -14.92 70.7888C-15.3043 71.0533 -15.7623 71.1931 -16.2445 71.1931C-17.0014 71.1931 -17.6675 70.8512 -17.8284 70.3801C-17.8892 70.2021 -17.924 69.8515 -17.4742 69.5032C-16.3021 68.5955 -14.0555 65.3164 -13.2569 63.348C-12.7244 62.0353 -11.7435 61.6003 -10.9553 61.2506C-10.4848 61.0419 -10.0784 60.8617 -9.87815 60.5452C-9.41526 59.8137 -8.71416 56.251 -7.79436 49.9564C-7.75735 46.5402 -7.70279 43.0635 -7.48411 41.3566C-7.071 38.132 -5.71915 34.214 -4.53209 32.8009C-4.36225 32.5988 -4.21067 32.415 -4.07525 32.2507C-3.66413 31.7522 -3.40995 31.444 -3.21806 31.3133C-3.04774 31.0851 -2.90229 30.6571 -2.78547 30.0405C-3.05073 26.0824 -2.20092 22.6978 -1.51157 21.5567L-1.47483 21.4964C-1.39516 21.2231 -1.28404 20.8752 -1.16657 20.5073L-1.12531 20.3778L-1.10312 20.2491C-0.919245 19.1818 -1.056 17.6798 -1.21435 15.9406C-1.24904 15.5595 -1.28459 15.169 -1.31769 14.7721C-1.52548 12.2774 -1.21177 10.2808 -0.330442 8.48898C-0.0794678 7.87936 0.39352 7.09241 0.845049 6.53514C2.84591 3.0275 6.898 1.57143 8.62483 1.57143C8.73739 1.57143 8.83913 1.57821 8.92758 1.59157C8.96957 1.58944 9.01383 1.58851 9.06028 1.58851C9.24268 1.58851 9.45983 1.60366 9.68975 1.61969C9.96924 1.63918 10.2859 1.66132 10.6095 1.66139C10.759 1.53605 11.0895 1.42068 11.6912 1.21747C12.1205 1.07246 12.6549 0.891998 13.1892 0.668842C14.434 0.149067 15.9703 -0.805105 16.8422 -1.60003C17.1112 -1.84533 17.2788 -1.97485 17.3978 -2.02771C17.4804 -2.14267 17.5682 -2.25731 17.659 -2.37581C18.0005 -2.82118 18.387 -3.32513 18.4924 -3.84291C18.4584 -4.14252 18.4465 -5.78876 18.5587 -6.87093C18.5461 -7.04408 18.5332 -7.13131 18.5247 -7.17421C18.5087 -7.2544 18.4954 -7.33578 18.4818 -7.4197C18.4192 -7.80376 18.3484 -8.23902 17.9365 -8.85316C17.585 -9.37746 17.4875 -10.5959 17.4677 -11.5256C17.464 -11.7054 17.3175 -11.8516 17.1413 -11.8516C17.1183 -11.8516 17.0951 -11.8491 17.0722 -11.8441C16.9674 -11.8212 16.8577 -11.8091 16.7549 -11.8091C16.478 -11.8091 16.2492 -11.8932 16.0933 -12.0523C15.9324 -12.2163 15.8538 -12.4521 15.8595 -12.7531C15.8795 -13.805 15.6657 -14.4152 15.477 -14.9537C15.3819 -15.2252 15.2921 -15.4817 15.238 -15.7703C15.1419 -16.2832 15.0834 -16.9728 15.3503 -17.3455C15.4553 -17.4921 15.5993 -17.5794 15.7785 -17.605C15.8223 -17.6113 15.8675 -17.6144 15.9127 -17.6144C16.0613 -17.6144 16.2166 -17.5805 16.3744 -17.5135C16.396 -17.5044 16.4183 -17.4997 16.4405 -17.4997C16.4885 -17.4997 16.536 -17.5213 16.5708 -17.5588C16.6065 -17.5972 16.624 -17.6472 16.62 -17.6995C16.5044 -19.2383 16.3988 -23.0272 17.9118 -24.9685C19.7107 -27.2766 22.4774 -27.7442 23.5836 -27.8381C23.7266 -27.8502 23.8991 -27.8633 24.1375 -27.8633C24.3163 -27.8633 24.5101 -27.8556 24.7137 -27.8404C25.8401 -27.7567 28.6567 -27.3092 30.481 -24.9685C31.9939 -23.0272 31.8883 -19.2383 31.7727 -17.6994C31.7688 -17.6472 31.7862 -17.5972 31.8219 -17.5587C31.8567 -17.5212 31.9042 -17.4997 31.9522 -17.4997C31.9746 -17.4997 31.9968 -17.5044 32.0184 -17.5135C32.1762 -17.5805 32.3315 -17.6144 32.48 -17.6144C32.5252 -17.6144 32.5704 -17.6113 32.6143 -17.605C32.7934 -17.5794 32.9374 -17.4921 33.0424 -17.3455C33.3093 -16.9728 33.2508 -16.2832 33.1548 -15.7703C33.1007 -15.4817 33.0108 -15.2253 32.9157 -14.9538C32.7271 -14.4153 32.5133 -13.805 32.5333 -12.7531C32.539 -12.4521 32.4604 -12.2162 32.2995 -12.0522C32.1435 -11.8932 31.9147 -11.8091 31.6379 -11.8091C31.535 -11.8091 31.4253 -11.8212 31.3205 -11.8441C31.2976 -11.8491 31.2744 -11.8516 31.2514 -11.8516C31.0753 -11.8516 30.9288 -11.7054 30.925 -11.5256C30.9052 -10.5959 30.8078 -9.37751 30.4563 -8.85315C30.0445 -8.23908 29.9736 -7.80381 29.911 -7.41982C29.8974 -7.33591 29.8841 -7.25445 29.868 -7.17426C29.8594 -7.13091 29.8466 -7.04327 29.8341 -6.87098C29.9463 -5.78854 29.9344 -4.14244 29.9004 -3.84289C30.0057 -3.32512 30.3922 -2.82116 30.7337 -2.37579C30.8259 -2.25558 30.915 -2.13935 30.9952 -2.02764C31.1142 -1.97464 31.2817 -1.84519 31.5506 -1.60003C32.4224 -0.805174 33.9586 0.149012 35.2035 0.668842C35.7378 0.891998 36.2722 1.07246 36.7016 1.21747C37.3033 1.42075 37.6338 1.53605 37.7833 1.66139C38.1068 1.66132 38.4235 1.63918 38.703 1.61969C38.9329 1.60366 39.1501 1.58851 39.3325 1.58851C39.3789 1.58851 39.4231 1.58943 39.4651 1.59157C39.5536 1.57821 39.6553 1.57143 39.7679 1.57143C41.4947 1.57143 45.5468 3.02749 47.5477 6.53507C47.9993 7.09255 48.4723 7.87955 48.7269 8.49714C49.6045 10.2807 49.9182 12.2772 49.7104 14.7721C49.6773 15.1694 49.6418 15.5601 49.607 15.9416C49.4487 17.6804 49.312 19.182 49.4959 20.2491L49.5253 20.4197L49.5274 20.4263C49.6457 20.8064 49.7576 21.1658 49.8365 21.4451L49.9043 21.5568C50.6012 22.7102 51.4546 26.1262 51.1739 30.1142C51.287 30.6961 51.431 31.0974 51.6024 31.3079C51.7958 31.4356 52.053 31.7475 52.4698 32.253C52.6048 32.4166 52.7558 32.5996 52.9248 32.8009C54.1119 34.2139 55.4637 38.1319 55.8768 41.3565C56.0955 43.0635 56.1501 46.5401 56.1871 49.9563C57.1069 56.251 57.808 59.8137 58.271 60.5452C58.4712 60.8617 58.8776 61.0419 59.348 61.2506C60.1363 61.6002 61.1171 62.0353 61.6497 63.3479C62.4483 65.3164 64.6949 68.5954 65.867 69.5032C66.3168 69.8515 66.282 70.2021 66.2212 70.3801C66.0603 70.8512 65.3942 71.193 64.6373 71.193C64.1551 71.193 63.697 71.0533 63.3128 70.7888C62.8393 70.4629 62.4355 69.9398 62.1111 69.5197C61.9384 69.2958 61.7871 69.0999 61.6685 68.9902C61.6041 69.2637 61.6825 70.2303 61.7585 71.1678C61.9132 73.0764 62.1251 75.6904 61.8053 77.8722C61.6761 78.7538 60.984 79.6189 60.4081 79.6189C60.3221 79.6189 60.2432 79.5988 60.1736 79.56C60.2135 80.8614 60.1875 82.0164 59.3083 82.0486L59.2881 82.0489C58.6635 82.0489 58.2289 80.9642 57.9917 80.1552C57.8543 80.6245 57.5811 80.884 57.206 80.884C57.1546 80.884 57.1009 80.879 57.0464 80.8691C56.2843 80.7304 55.8262 78.9164 55.6285 77.9046C55.5014 78.0909 55.3134 78.2725 55.0633 78.2725C54.8188 78.2725 54.5756 78.0953 54.3408 77.7458C53.9464 77.159 53.547 75.8542 53.1242 74.4728C52.6889 73.0508 52.2389 71.5803 51.7307 70.6184C50.536 68.3575 50.4458 65.6986 50.9674 64.3448C51.4375 63.1246 51.7221 62.347 51.7108 61.839C51.6715 60.066 50.1094 55.0721 48.9688 51.4257C48.7919 50.8602 48.6246 50.3255 48.474 49.8379C47.3387 47.2088 46.4888 45.1391 46.2003 44.3006C45.9133 43.4667 45.7304 42.7594 45.6409 42.1383C45.5649 41.7492 45.502 41.333 45.4413 40.9307C45.3809 40.5309 45.3186 40.1181 45.2429 39.7319C44.8514 39.4117 44.1037 37.7975 44.2049 35.6428C44.2807 34.0331 43.3265 30.9979 42.5597 28.559C42.1113 27.1327 41.7241 25.901 41.6497 25.2822C41.5803 24.7055 41.4782 23.7502 41.5247 23.4681C41.5059 23.425 41.4865 23.4094 41.4717 23.4015C41.4682 23.3996 41.4548 23.3935 41.4256 23.3935C41.3965 23.3935 41.3631 23.3995 41.3283 23.4108C41.0791 24.9482 40.405 27.8835 40.0691 29.0096C39.8976 29.5846 39.7931 30.1435 39.7092 30.5926C39.5922 31.2181 39.5271 31.5658 39.3614 31.6862C39.317 31.7995 39.2614 31.9296 39.1982 32.0775C39.0058 32.5278 38.7422 33.1446 38.6086 33.761C38.5891 33.914 38.5641 34.0696 38.536 34.2121C38.4631 34.8705 38.4578 35.8475 38.4626 36.7172C38.5274 37.123 38.5286 37.8941 38.4653 38.562C38.4915 38.9892 38.6279 39.3866 38.7599 39.7711C38.8188 39.9426 38.8744 40.1047 38.9194 40.2662C39.0516 40.6917 39.2476 41.5722 39.425 43.3292C39.5319 44.3886 39.3921 45.2824 39.2798 46.0006C39.1774 46.6556 39.0889 47.2213 39.218 47.6916C39.3123 48.0353 39.4248 48.4861 39.4612 48.9321C39.5211 49.1636 39.6078 49.4858 39.7028 49.8386C39.8786 50.4915 40.0778 51.2315 40.1928 51.7155C40.7315 53.3709 41.4651 56.4439 41.434 57.8804C41.4033 59.2935 42.158 63.7298 42.5562 65.3974C42.8521 66.6369 42.9742 68.8444 43.055 70.3052C43.0865 70.8766 43.1114 71.3279 43.137 71.5325C43.1468 71.6103 43.1533 71.6892 43.1331 71.752C43.1659 72.0755 43.2226 72.8132 43.203 73.1886C43.2576 74.7926 43.2049 78.06 42.8312 79.9495C42.6461 80.8848 42.6066 82.5331 42.5684 84.1272C42.5271 85.8472 42.4844 87.6257 42.2625 88.6405C41.8208 90.6617 40.8343 93.1693 39.8619 95.5646L39.8609 95.5671C39.7811 96.2035 39.7607 96.7061 39.8001 97.0614C39.8323 97.3518 39.9373 97.9295 40.059 98.5985C40.2868 99.8519 40.5705 101.412 40.6425 102.467C40.753 104.086 40.7174 107.631 40.6321 108.548C40.6486 108.805 40.6559 109.077 40.6543 109.367C40.7035 109.821 40.7997 110.31 40.8847 110.742L40.896 110.799C40.9792 110.996 41.0583 111.564 41.0902 111.813C41.1408 112.017 41.2071 112.241 41.2772 112.478C41.4348 113.012 41.6135 113.616 41.7052 114.292C41.7349 114.461 41.7617 114.65 41.778 114.804L41.7955 114.965C41.8735 115.679 42.0039 116.874 41.8901 118.709C41.7614 120.788 40.9898 124.795 40.5026 126.982C39.9839 129.31 38.9888 136.809 38.7703 138.541C38.732 138.844 38.6803 139.141 38.6166 139.422C38.5486 140.674 38.5123 142.327 38.593 143.009C38.691 143.839 38.9179 144.521 39.1372 145.181L39.216 145.418C39.4505 146.132 39.3665 146.924 38.9663 147.772C38.6531 148.436 38.8695 149.878 39.403 150.684C39.7856 151.262 40.6736 152.326 41.3221 153.103C41.5754 153.407 41.7941 153.669 41.9316 153.841C42.4645 154.508 42.6109 155.606 42.4444 156.283C42.2787 156.956 42.0085 157.219 41.4805 157.219C41.2347 157.219 41.0197 157.107 40.847 157.018C40.7312 156.957 40.6217 156.901 40.5474 156.901C40.5342 156.901 40.5227 156.902 40.5122 156.906C40.4294 156.936 40.3733 156.981 40.3083 157.034C40.2021 157.12 40.0818 157.217 39.8499 157.238C39.8358 157.24 39.822 157.241 39.808 157.241Z" fill="white" stroke="#28839F" stroke-width="0.504915"/>
<path d="M2.22533 16.6746C2.19625 16.6914 2.15966 16.6745 2.15387 16.6414C1.74092 14.2756 -1.31511 11.2191 0.704364 7.08696C2.74316 2.91536 7.61193 1.51468 8.92041 1.72782C10.161 1.9299 13.4256 4.07527 14.9541 4.53102C15.0037 4.54583 14.9974 4.61972 14.9458 4.62501C12.7579 4.84891 10.922 4.91489 8.75134 6.44245C6.49514 8.03021 6.94965 10.0406 6.46278 11.5935C5.97979 13.134 4.71346 15.2439 2.22533 16.6746Z" fill="#28839F" fill-opacity="0.2"/>
<path d="M-0.208668 8.54785C-0.528177 10.3748 -0.133179 11.995 0.582512 13.8157C1.19954 15.3853 1.7997 16.3278 1.76927 17.0738C1.13024 17.6523 -0.589035 19.7838 -0.969403 20.271C-0.741182 18.9464 -0.999833 16.952 -1.18241 14.7596C-1.365 12.5672 -1.1672 10.4966 -0.208668 8.54785Z" fill="#28839F" fill-opacity="0.2"/>
<path d="M6.5086 12.6895C5.85943 15.1051 3.11821 16.2724 0.886699 23.6716C0.249477 25.7846 -0.538546 32.4714 -0.51307 35.0801C-0.503557 36.0548 0.267958 34.8162 0.267958 34.8162C0.267958 34.8162 5.79604 26.879 6.48578 22.9002C7.17552 18.9215 6.5086 12.6895 6.5086 12.6895Z" fill="#28839F"/>
<path d="M4.09234 16.0186C3.39816 16.8274 1.00879 21.2153 0.361126 23.845C-0.204785 26.1427 -1.11248 31.5005 -1.17835 35.919C-1.17997 36.0275 -1.33065 36.0533 -1.36965 35.952C-3.80697 29.623 -2.32754 23.1695 -1.39517 21.6264C-0.605132 20.3189 1.20151 17.5004 4.09234 16.0186Z" fill="#28839F"/>
<path d="M1.09023 34.6336C0.728875 35.2866 2.30742 36.7753 2.91603 39.5868C3.01998 40.0671 4.17379 38.2368 4.05207 35.6486C3.93035 33.0604 6.41038 26.9096 6.60817 25.2653C6.80596 23.621 6.72988 23.4688 6.72988 23.4688C4.39282 29.3802 3.17974 30.8579 1.09023 34.6336Z" fill="#28839F" fill-opacity="0.2"/>
<path d="M0.227836 35.7908C-1.58986 37.155 -1.94282 39.0895 -2.36883 40.5816C-2.79486 42.0736 -6.33993 55.0299 -6.65944 56.3849C-6.97895 57.74 -7.08545 59.3538 -6.59858 58.7296C-6.11169 58.1054 -1.65374 45.0881 -0.299615 42.2563C1.05451 39.4245 1.72997 38.5127 1.47546 37.3539C1.27259 36.4302 0.897297 35.2884 0.227836 35.7908Z" fill="#28839F" fill-opacity="0.2"/>
<path d="M1.53635 39.5052C0.740812 40.8485 -3.67728 52.6594 -4.42789 55.5826C-5.17849 58.5058 -5.19878 59.6832 -4.71189 59.399C-4.22502 59.1148 1.21176 46.7319 2.0638 44.2553C2.91584 41.7788 2.72311 40.7638 2.4391 39.83C2.15509 38.8962 1.86093 38.9571 1.53635 39.5052Z" fill="#28839F" fill-opacity="0.2"/>
<path d="M20.5857 4.89431C18.7695 4.43484 14.9826 4.83797 13.3637 5.05671C10.5845 5.43226 8.49631 6.64144 7.76466 7.97988C7.11549 9.16741 6.64953 11.9552 7.15605 12.527C8.73841 14.3134 8.02838 19.429 13.6072 22.0273C15.4743 22.897 21.4581 22.342 22.371 21.2762C23.2838 20.2105 23.649 15.0036 23.3447 12.0195C23.0404 9.03547 22.3912 5.35106 20.5857 4.89431Z" fill="#28839F" fill-opacity="0.2"/>
<path d="M16.934 -1.49989C16.0833 -0.724327 14.53 0.256044 13.2418 0.793987C11.9536 1.33193 10.7162 1.60599 10.6452 1.82928C10.5742 2.05258 11.9841 2.50932 12.9578 2.86457C13.9316 3.21982 15.1995 3.48371 15.6356 3.25027C16.0718 3.01682 16.8021 0.773697 17.0151 0.103797C17.2281 -0.566088 17.4716 -1.35779 17.5628 -1.72318C17.6541 -2.08858 17.3904 -1.91603 16.934 -1.49989Z" fill="#28839F" fill-opacity="0.2"/>
<path d="M17.8978 -2.13946C17.598 -1.32969 17.0153 1.13387 16.6501 2.21484C16.285 3.2958 16.1633 3.69165 16.6197 3.88958C17.0762 4.0875 18.0651 3.49372 18.2021 3.06743C18.339 2.64114 18.339 -2.06334 18.3238 -2.41352C18.3086 -2.76369 18.0499 -2.55054 17.8978 -2.13946Z" fill="#28839F" fill-opacity="0.2"/>
<path d="M18.6127 -1.46987C18.6026 -0.698481 18.5215 1.6969 18.7801 2.24499C19.0388 2.79309 20.1951 3.50865 20.5755 3.73702C20.9558 3.96541 21.443 4.10997 21.4579 3.73702C21.4681 3.48328 20.4671 2.06525 19.8299 0.45353C19.2822 -0.931929 18.9063 -2.13359 18.9018 -2.13976C18.704 -2.41382 18.6192 -1.96128 18.6127 -1.46987Z" fill="#28839F" fill-opacity="0.2"/>
<path d="M18.63 -3.84003C18.7565 -3.16054 19.6423 -0.665721 20.3007 0.760414C20.6012 1.41128 21.5636 3.39085 21.9164 3.28521C22.2385 3.18878 20.9462 -1.02055 20.5344 -2.48502C19.6097 -5.77359 19.3967 -7.98118 18.9343 -7.76803C18.5667 -7.59856 18.5819 -4.09885 18.63 -3.84003Z" fill="#28839F" fill-opacity="0.2"/>
<path d="M22.7968 22.3418C23.3531 23.3439 23.8162 25.1889 23.8314 26.3307C23.8466 27.4726 23.2989 27.6248 22.5838 27.975C21.8687 28.3252 18.5366 30.0557 17.6237 30.8373C16.6956 31.6318 16.1631 32.1314 15.9805 30.5632C15.7979 28.9951 15.5697 27.2747 15.8588 25.5999C16.1479 23.9252 16.437 23.2705 17.1977 23.0422C17.9585 22.8138 18.9094 22.8671 20.0885 22.6311C21.2505 22.3985 22.5686 21.9307 22.7968 22.3418Z" fill="#28839F" fill-opacity="0.2"/>
<path d="M22.6598 28.5919C18.4225 30.1829 16.5372 32.6776 16.1428 33.4156C15.6762 34.2885 15.9178 36.3947 16.0515 36.76C16.1833 37.1203 17.1894 37.1591 18.0801 36.9681C19.3582 36.6941 21.6708 36.3997 22.4924 36.2982C23.314 36.1967 23.8111 35.202 23.8516 34.2682C23.8922 33.3344 23.9226 30.391 23.8516 29.8023C23.7806 29.2136 23.4254 28.3044 22.6598 28.5919Z" fill="#28839F" fill-opacity="0.2"/>
<path d="M22.695 36.9285C21.485 36.7969 17.6741 37.5984 16.9945 37.9232C16.3149 38.248 15.7773 38.8976 15.757 39.7502C15.7368 40.6028 15.9802 42.2471 16.2033 42.7343C16.4265 43.2215 17.1771 43.668 18.232 43.7087C19.2869 43.7492 21.4778 43.9117 22.4516 43.7696C23.4253 43.6274 23.6586 42.6734 23.7297 41.5975C23.8007 40.5216 23.8514 39.0904 23.7499 38.1262C23.6485 37.162 23.1616 36.9793 22.695 36.9285Z" fill="#28839F" fill-opacity="0.2"/>
<path d="M14.134 22.5951C13.2695 22.4408 10.8802 21.0409 9.99558 20.4027C8.61854 19.4092 8.99213 24.0685 11.8214 24.016C12.9168 23.9957 13.7892 23.4299 14.2152 23.2091C14.6412 22.9884 14.5322 22.6661 14.134 22.5951Z" fill="#28839F" fill-opacity="0.2"/>
<path d="M9.81457 24.2951C9.90206 25.0563 10.0951 25.6085 10.4675 26.2832C10.8961 27.0597 13.5333 25.2124 13.7095 24.7785C13.8932 24.326 13.3002 23.9563 12.709 24.1276C11.9019 24.3614 10.8758 24.219 10.3319 23.8041C9.7816 23.3844 9.77112 23.917 9.81457 24.2951Z" fill="#28839F" fill-opacity="0.2"/>
<path d="M13.8502 25.164C13.4051 25.5497 12.5315 26.1333 11.6592 26.5393C10.8516 26.9152 10.9036 27.2853 11.1216 27.5695C11.3397 27.8537 12.704 28.6149 13.201 28.8382C13.698 29.0615 14.5196 28.8788 14.6768 28.4018C14.9427 27.595 14.7714 24.3655 13.8502 25.164Z" fill="#28839F" fill-opacity="0.2"/>
<path d="M10.0974 30.5742C10.28 31.1324 11.487 31.9546 12.2173 32.4215C12.9477 32.8884 13.9569 33.4314 14.2967 33.1624C14.6365 32.8934 14.6467 30.3255 14.3981 29.7622C14.1496 29.1989 13.5968 29.2953 12.9375 29.0821C12.2411 28.857 12.0617 28.4808 11.2943 28.4173C10.6806 28.3666 9.84359 29.7981 10.0974 30.5742Z" fill="#28839F" fill-opacity="0.2"/>
<path d="M11.1571 32.071C11.6004 32.3853 13.8653 33.5935 14.2609 33.8371C14.6565 34.0807 14.8543 34.9333 14.976 35.9229C15.0977 36.9125 15.0233 38.0801 14.6108 38.2371C13.5306 38.6482 10.7606 35.643 10.4039 35.2378C9.95508 34.7278 9.86379 33.3727 9.83336 32.7257C9.79308 31.8692 10.4267 31.5534 11.1571 32.071Z" fill="#28839F" fill-opacity="0.2"/>
<path d="M11.1114 36.4556C11.8721 37.2929 13.6751 38.4729 14.1087 38.8459C14.5423 39.2189 14.5727 40.6805 14.5651 41.358C14.5575 42.0355 13.8805 42.5607 13.424 42.4389C12.9676 42.3171 10.6473 40.0867 10.3354 39.6985C10.0235 39.3102 9.94743 37.3005 10.0768 36.6687C10.2061 36.0369 10.5901 35.8818 11.1114 36.4556Z" fill="#28839F" fill-opacity="0.2"/>
<path d="M22.0459 44.621C20.6259 44.6104 17.7756 44.4586 17.096 44.3571C16.4164 44.2556 15.8281 44.9864 15.9803 45.9405C16.1324 46.8946 16.7106 50.6906 17.9278 54.5273C19.145 58.3639 20.0376 60.739 21.2345 61.8149C22.4314 62.8908 22.7154 64.1494 23.3138 64.058C23.9123 63.9667 23.9148 61.5536 23.9224 60.602C23.929 59.7872 24.0036 46.9808 23.7931 46.5647C23.5733 46.13 23.1389 45.8529 22.884 45.5979C22.6118 45.3255 22.7255 44.626 22.0459 44.621Z" fill="#28839F" fill-opacity="0.2"/>
<path d="M10.645 40.4186C11.3103 41.174 12.8258 42.4993 13.4446 43.0575C14.0633 43.6158 14.8443 45.8995 15.0878 46.9957C15.3312 48.0919 15.2704 49.5129 14.9458 50.6497C14.6212 51.7865 15.0269 52.3549 14.824 53.2886C14.6212 54.2224 13.5257 54.872 13.0794 54.1818C12.6331 53.4916 10.9087 51.3399 9.83357 50.7309C8.75837 50.1219 9.0221 48.7618 9.30611 47.7265C9.59012 46.6912 8.90038 45.3514 9.10325 43.3417C9.30611 41.3321 9.54447 40.3907 9.69662 40.0481C9.84878 39.7055 10.1936 39.906 10.645 40.4186Z" fill="#28839F" fill-opacity="0.2"/>
<path d="M7.20225 14.6131C7.34443 17.2316 7.04028 21.8048 7.11505 22.7588C7.1962 23.794 8.04822 27.6104 8.45396 28.9705C8.85969 30.3306 8.89012 31.5841 9.16399 31.5993C9.43785 31.6145 10.0566 28.463 10.1175 27.4277C10.1783 26.3924 9.10313 21.825 8.90026 20.201C8.69739 18.577 7.8479 15.2783 7.59686 14.6084C7.25141 13.6866 7.12056 13.1085 7.20225 14.6131Z" fill="#28839F" fill-opacity="0.2"/>
<path d="M46.1671 16.6746C46.1962 16.6914 46.2328 16.6745 46.2385 16.6414C46.6515 14.2756 49.7075 11.2191 47.688 7.08696C45.6493 2.91536 40.7805 1.51468 39.472 1.72782C38.2314 1.9299 34.9668 4.07527 33.4383 4.53102C33.3887 4.54583 33.395 4.61972 33.4466 4.62501C35.6345 4.84891 37.4704 4.91489 39.6411 6.44245C41.8973 8.03021 41.4428 10.0406 41.9296 11.5935C42.4126 13.134 43.6789 15.2439 46.1671 16.6746Z" fill="#28839F" fill-opacity="0.2"/>
<path d="M48.6016 8.54785C48.9211 10.3748 48.5261 11.995 47.8104 13.8157C47.1934 15.3853 46.5932 16.3278 46.6237 17.0738C47.2627 17.6523 48.982 19.7838 49.3623 20.271C49.1341 18.9464 49.3928 16.952 49.5754 14.7596C49.7579 12.5672 49.5601 10.4966 48.6016 8.54785Z" fill="#28839F" fill-opacity="0.2"/>
<path d="M41.8835 12.6895C42.5327 15.1051 45.2739 16.2724 47.5054 23.6716C48.1426 25.7846 48.9306 32.4714 48.9052 35.0801C48.8957 36.0548 48.1241 34.8162 48.1241 34.8162C48.1241 34.8162 42.5961 26.879 41.9063 22.9002C41.2166 18.9215 41.8835 12.6895 41.8835 12.6895Z" fill="#28839F"/>
<path d="M44.3003 16.0186C44.9945 16.8274 47.3838 21.2153 48.0315 23.845C48.5974 26.1427 49.5051 31.5005 49.571 35.919C49.5726 36.0275 49.7233 36.0533 49.7623 35.952C52.1996 29.623 50.7202 23.1695 49.7878 21.6264C48.9978 20.3189 47.1911 17.5004 44.3003 16.0186Z" fill="#28839F"/>
<path d="M47.303 34.6336C47.6643 35.2866 46.0858 36.7753 45.4772 39.5868C45.3732 40.0671 44.2194 38.2368 44.3411 35.6486C44.4628 33.0604 41.9828 26.9096 41.785 25.2653C41.5872 23.621 41.6633 23.4688 41.6633 23.4688C44.0004 29.3802 45.2134 30.8579 47.303 34.6336Z" fill="#28839F" fill-opacity="0.2"/>
<path d="M51.1982 31.7111C50.8062 33.7843 50.2244 36.8266 50.7113 38.8566C51.1982 40.8866 55.2961 55.6242 55.9047 57.4918C56.5133 59.3594 56.3915 57.4309 56.1887 55.7054C55.9858 53.9799 56.1481 44.5405 55.7424 41.3738C55.3366 38.207 53.9977 34.2891 52.8211 32.8884C51.6445 31.4877 51.3402 30.96 51.1982 31.7111Z" fill="#28839F" fill-opacity="0.2"/>
<path d="M48.1653 35.7908C49.983 37.155 50.3359 39.0895 50.7619 40.5816C51.188 42.0736 54.733 55.0299 55.0525 56.3849C55.3721 57.74 55.4786 59.3538 54.9917 58.7296C54.5048 58.1054 50.0468 45.0881 48.6927 42.2563C47.3386 39.4245 46.6631 38.5127 46.9177 37.3539C47.1205 36.4302 47.4958 35.2884 48.1653 35.7908Z" fill="#28839F" fill-opacity="0.2"/>
<path d="M46.8563 39.5052C47.6519 40.8485 52.07 52.6594 52.8206 55.5826C53.5712 58.5058 53.5915 59.6832 53.1046 59.399C52.6177 59.1148 47.1809 46.7319 46.3289 44.2553C45.4769 41.7788 45.6696 40.7638 45.9536 39.83C46.2376 38.8962 46.5318 38.9571 46.8563 39.5052Z" fill="#28839F" fill-opacity="0.2"/>
<path d="M27.8075 4.89431C29.6238 4.43484 33.4107 4.83797 35.0295 5.05671C37.8088 5.43226 39.897 6.64144 40.6286 7.97988C41.2778 9.16741 41.7437 11.9552 41.2372 12.527C39.6549 14.3134 40.3649 19.429 34.7861 22.0273C32.919 22.897 26.9352 22.342 26.0223 21.2762C25.1094 20.2105 24.7443 15.0036 25.0486 12.0195C25.3529 9.03547 26.002 5.35106 27.8075 4.89431Z" fill="#28839F" fill-opacity="0.2"/>
<path d="M31.4593 -1.49989C32.31 -0.724327 33.8633 0.256044 35.1515 0.793987C36.4397 1.33193 37.6772 1.60599 37.7482 1.82928C37.8192 2.05258 36.4093 2.50932 35.4355 2.86457C34.4617 3.21982 33.1938 3.48371 32.7577 3.25027C32.3215 3.01682 31.5912 0.773697 31.3782 0.103797C31.1652 -0.566088 30.9218 -1.35779 30.8305 -1.72318C30.7392 -2.08858 31.0029 -1.91603 31.4593 -1.49989Z" fill="#28839F" fill-opacity="0.2"/>
<path d="M30.4957 -2.13946C30.7954 -1.32969 31.3781 1.13387 31.7433 2.21484C32.1084 3.2958 32.2302 3.69165 31.7737 3.88958C31.3173 4.0875 30.3283 3.49372 30.1914 3.06743C30.0544 2.64114 30.0544 -2.06334 30.0696 -2.41352C30.0849 -2.76369 30.3435 -2.55054 30.4957 -2.13946Z" fill="#28839F" fill-opacity="0.2"/>
<path d="M29.7803 -1.46987C29.7905 -0.698481 29.8716 1.6969 29.613 2.24499C29.3543 2.79309 28.198 3.50865 27.8176 3.73702C27.4372 3.96541 26.95 4.10997 26.9351 3.73702C26.925 3.48328 27.9259 2.06525 28.5631 0.45353C29.1109 -0.931929 29.4868 -2.13359 29.4912 -2.13976C29.689 -2.41382 29.7739 -1.96128 29.7803 -1.46987Z" fill="#28839F" fill-opacity="0.2"/>
<path d="M29.7627 -3.84003C29.6362 -3.16054 28.7505 -0.665721 28.092 0.760414C27.7915 1.41128 26.8291 3.39085 26.4763 3.28521C26.1542 3.18878 27.4465 -1.02055 27.8583 -2.48502C28.783 -5.77359 28.996 -7.98118 29.4584 -7.76803C29.826 -7.59856 29.8109 -4.09885 29.7627 -3.84003Z" fill="#28839F" fill-opacity="0.2"/>
<path d="M25.5964 22.3418C25.0401 23.3439 24.577 25.1889 24.5618 26.3307C24.5466 27.4726 25.0943 27.6248 25.8095 27.975C26.5245 28.3252 29.8566 30.0557 30.7695 30.8373C31.6976 31.6318 32.2301 32.1314 32.4127 30.5632C32.5953 28.9951 32.8235 27.2747 32.5344 25.5999C32.2453 23.9252 31.9563 23.2705 31.1955 23.0422C30.4348 22.8138 29.4838 22.8671 28.3047 22.6311C27.1427 22.3985 25.8247 21.9307 25.5964 22.3418Z" fill="#28839F" fill-opacity="0.2"/>
<path d="M25.733 28.5919C29.9703 30.1829 31.8555 32.6776 32.25 33.4156C32.7166 34.2885 32.475 36.3947 32.3413 36.76C32.2094 37.1203 31.2034 37.1591 30.3126 36.9681C29.0346 36.6941 26.7219 36.3997 25.9003 36.2982C25.0787 36.1967 24.5817 35.202 24.5411 34.2682C24.5006 33.3344 24.4701 30.391 24.5411 29.8023C24.6121 29.2136 24.9673 28.3044 25.733 28.5919Z" fill="#28839F" fill-opacity="0.2"/>
<path d="M25.6975 36.9285C26.9075 36.7969 30.7184 37.5984 31.398 37.9232C32.0776 38.248 32.6152 38.8976 32.6355 39.7502C32.6558 40.6028 32.4123 42.2471 32.1892 42.7343C31.966 43.2215 31.2154 43.668 30.1605 43.7087C29.1056 43.7492 26.9147 43.9117 25.9409 43.7696C24.9672 43.6274 24.7339 42.6734 24.6629 41.5975C24.5919 40.5216 24.5411 39.0904 24.6426 38.1262C24.744 37.162 25.2309 36.9793 25.6975 36.9285Z" fill="#28839F" fill-opacity="0.2"/>
<path d="M34.2585 22.5951C35.123 22.4408 37.5123 21.0409 38.3969 20.4027C39.774 19.4092 39.4004 24.0685 36.5711 24.016C35.4757 23.9957 34.6034 23.4299 34.1773 23.2091C33.7513 22.9884 33.8604 22.6661 34.2585 22.5951Z" fill="#28839F" fill-opacity="0.2"/>
<path d="M38.5784 24.2951C38.4909 25.0563 38.2978 25.6085 37.9254 26.2832C37.4968 27.0597 34.8596 25.2124 34.6834 24.7785C34.4997 24.326 35.0927 23.9563 35.6839 24.1276C36.491 24.3614 37.5171 24.219 38.061 23.8041C38.6113 23.3844 38.6218 23.917 38.5784 24.2951Z" fill="#28839F" fill-opacity="0.2"/>
<path d="M34.5429 25.164C34.988 25.5497 35.8615 26.1333 36.7338 26.5393C37.5415 26.9152 37.4895 27.2853 37.2714 27.5695C37.0533 27.8537 35.6891 28.6149 35.192 28.8382C34.695 29.0615 33.8734 28.8788 33.7162 28.4018C33.4503 27.595 33.6217 24.3655 34.5429 25.164Z" fill="#28839F" fill-opacity="0.2"/>
<path d="M38.2954 30.5742C38.1128 31.1324 36.9058 31.9546 36.1754 32.4215C35.4451 32.8884 34.4359 33.4314 34.0961 33.1624C33.7563 32.8934 33.7461 30.3255 33.9946 29.7622C34.2432 29.1989 34.796 29.2953 35.4553 29.0821C36.1517 28.857 36.3311 28.4808 37.0985 28.4173C37.7122 28.3666 38.5492 29.7981 38.2954 30.5742Z" fill="#28839F" fill-opacity="0.2"/>
<path d="M37.2352 32.071C36.7918 32.3853 34.527 33.5935 34.1314 33.8371C33.7358 34.0807 33.538 34.9333 33.4163 35.9229C33.2946 36.9125 33.369 38.0801 33.7814 38.2371C34.8617 38.6482 37.6317 35.643 37.9883 35.2378C38.4372 34.7278 38.5285 33.3727 38.5589 32.7257C38.5992 31.8692 37.9655 31.5534 37.2352 32.071Z" fill="#28839F" fill-opacity="0.2"/>
<path d="M37.2814 36.4556C36.5206 37.2929 34.7177 38.4729 34.284 38.8459C33.8504 39.2189 33.82 40.6805 33.8276 41.358C33.8352 42.0355 34.5123 42.5607 34.9687 42.4389C35.4251 42.3171 37.7454 40.0867 38.0573 39.6985C38.3692 39.3102 38.4453 37.3005 38.316 36.6687C38.1866 36.0369 37.8026 35.8818 37.2814 36.4556Z" fill="#28839F" fill-opacity="0.2"/>
<path d="M26.3468 44.621C27.7668 44.6104 30.6171 44.4586 31.2967 44.3571C31.9763 44.2556 32.5646 44.9864 32.4124 45.9405C32.2603 46.8946 31.6821 50.6906 30.4649 54.5273C29.2477 58.3639 28.3551 60.739 27.1582 61.8149C25.9613 62.8908 25.6773 64.1494 25.0788 64.058C24.4804 63.9667 24.4779 61.5536 24.4703 60.602C24.4637 59.7872 24.3891 46.9808 24.5996 46.5647C24.8194 46.13 25.2538 45.8529 25.5087 45.5979C25.7809 45.3255 25.6672 44.626 26.3468 44.621Z" fill="#28839F" fill-opacity="0.2"/>
<path d="M37.7478 40.4186C37.0825 41.174 35.567 42.4993 34.9482 43.0575C34.3295 43.6158 33.5485 45.8995 33.305 46.9957C33.0616 48.0919 33.1224 49.5129 33.447 50.6497C33.7716 51.7865 33.3659 52.3549 33.5687 53.2886C33.7716 54.2224 34.8671 54.872 35.3134 54.1818C35.7597 53.4916 37.484 51.3399 38.5592 50.7309C39.6344 50.1219 39.3707 48.7618 39.0867 47.7265C38.8027 46.6912 39.4924 45.3514 39.2895 43.3417C39.0867 41.3321 38.8483 40.3907 38.6962 40.0481C38.544 39.7055 38.1991 39.906 37.7478 40.4186Z" fill="#28839F" fill-opacity="0.2"/>
<path d="M41.1906 14.6131C41.0485 17.2316 41.3526 21.8048 41.2779 22.7588C41.1967 23.794 40.3447 27.6104 39.9389 28.9705C39.5332 30.3306 39.5028 31.5841 39.2289 31.5993C38.955 31.6145 38.3363 28.463 38.2754 27.4277C38.2146 26.3924 39.2898 21.825 39.4926 20.201C39.6955 18.577 40.545 15.2783 40.796 14.6084C41.1415 13.6866 41.2723 13.1085 41.1906 14.6131Z" fill="#28839F" fill-opacity="0.2"/>
</g>
<defs>
<clipPath id="clip0_4042_2063">
<rect width="61" height="48" fill="white"/>
</clipPath>
</defs>
</svg>
