<svg width="61" height="48" viewBox="0 0 61 48" fill="none" xmlns="http://www.w3.org/2000/svg">
<g clip-path="url(#clip0_4048_2565)">
<path d="M43.8058 64.233C43.6222 64.233 43.4739 64.1258 43.3305 64.0221C43.2116 63.9361 43.0992 63.8548 42.9914 63.8548C42.9728 63.8548 42.9546 63.8572 42.936 63.8619C42.8132 63.8936 42.7456 63.9465 42.6674 64.0076C42.5567 64.0941 42.4314 64.1923 42.1771 64.1923C42.1603 64.1923 42.1427 64.1918 42.1246 64.1909C41.8874 64.1793 41.7392 64.0792 41.6084 63.9909C41.4879 63.9094 41.3928 63.8451 41.2338 63.8451C41.2243 63.8451 41.2145 63.8454 41.2045 63.8458C41.0376 63.8538 40.9414 63.9103 40.8194 63.9818C40.6669 64.0714 40.494 64.1729 40.171 64.1909C40.1486 64.1921 40.1266 64.1927 40.1047 64.1927C39.8033 64.1927 39.5441 64.0774 39.3153 63.9757C39.1232 63.8902 38.9416 63.8094 38.7608 63.8054L38.7459 63.8052C38.5611 63.8052 38.334 63.8804 38.0936 63.9599C37.7948 64.0588 37.4561 64.1709 37.1046 64.1709L37.0778 64.1707C36.2305 64.1571 35.749 63.7207 35.6467 62.8736C35.5924 62.4243 35.7415 61.938 35.8857 61.4677C36.0525 60.9238 36.2249 60.3614 36.096 59.8454C35.8236 58.7549 35.6672 57.3527 35.7067 56.3561C35.7337 55.672 35.5211 54.7502 35.3336 53.9369C35.2434 53.5453 35.1581 53.1755 35.1 52.8428C34.9787 52.1485 35.4867 50.9306 35.9349 49.856C36.1803 49.2676 36.412 48.7119 36.4588 48.4136C36.5085 48.0954 36.5116 47.021 36.4677 45.2202C36.3824 44.7848 36.3225 43.3354 36.2902 42.5533C36.2819 42.3534 36.2755 42.1971 36.2709 42.1128C36.2667 42.0352 36.2487 41.6542 36.2887 41.4565L36.2187 40.926C36.0793 39.8643 35.9476 38.8614 35.8329 38.432C35.8329 38.432 35.6511 37.7557 35.5987 37.5585C35.541 37.4679 35.4894 37.356 35.4414 37.2172C35.3429 36.9323 35.24 36.5374 35.1312 36.1193C34.9303 35.3479 34.7027 34.4737 34.4146 33.9163C34.1489 33.4024 33.9949 32.7247 33.944 31.8449C33.8628 31.4374 33.794 30.9695 33.7395 30.4539C33.4781 27.9776 33.7667 24.5005 34.0662 23.0436C34.2168 22.3107 34.4525 21.4235 34.6604 20.6408C34.859 19.8931 35.0466 19.1868 35.1202 18.7645C35.196 18.33 35.2129 18.0843 35.2231 17.9375C35.2297 17.842 35.2341 17.7784 35.2528 17.7278C35.2276 17.5934 35.2004 17.4413 35.1714 17.278C35.1231 17.0079 35.0688 16.7032 35.0087 16.3983C34.881 16.2467 34.7953 15.945 34.68 15.5397C34.5778 15.1803 34.4507 14.733 34.2635 14.2988C33.8274 13.2879 33.2886 9.94981 33.2381 8.36247C33.1867 6.74828 32.9153 4.16011 32.593 2.88017C32.3057 1.73898 32.0018 -1.00082 32.0309 -2.1851C32.0055 -2.44176 31.9801 -2.68337 31.9546 -2.89555C31.9278 -3.11948 31.9096 -3.40313 31.9005 -3.73898C31.843 -3.86917 31.7546 -4.05315 31.6279 -4.23168C31.4621 -4.4654 31.3089 -4.78555 31.1726 -5.18317C30.9593 -5.72826 30.7103 -6.77502 30.6309 -7.46346C30.5015 -8.58576 29.6802 -13.5351 29.2056 -15.1129C28.6641 -16.9135 29.0349 -20.544 29.0789 -20.952C29.0936 -21.0881 29.1072 -21.2227 29.1205 -21.3548C29.159 -21.7386 29.1956 -22.1022 29.253 -22.4259C29.0991 -22.6649 28.9719 -22.9164 28.8659 -23.1915C28.6216 -23.2588 28.3776 -23.2772 28.276 -23.2772H28.1137C28.0122 -23.2772 27.7683 -23.2588 27.5239 -23.1915C27.4179 -22.9164 27.2907 -22.6648 27.1367 -22.4259C27.1943 -22.1017 27.2308 -21.7376 27.2694 -21.3533C27.2827 -21.2216 27.2961 -21.0875 27.3108 -20.952C27.3549 -20.544 27.7259 -16.9139 27.1841 -15.1129C26.7095 -13.5349 25.8882 -8.58574 25.7588 -7.46344C25.6795 -6.77506 25.4306 -5.72837 25.2153 -5.17789C25.0808 -4.7854 24.9276 -4.46524 24.7619 -4.23166C24.6347 -4.05247 24.5465 -3.86881 24.4892 -3.73896C24.4802 -3.40358 24.462 -3.11993 24.4351 -2.89554C24.4097 -2.68336 24.3842 -2.44174 24.3589 -2.18515C24.388 -1.00088 24.0841 1.73901 23.7968 2.88019C23.4746 4.15981 23.2031 6.74794 23.1517 8.36247C23.1011 9.94994 22.5623 13.2881 22.1263 14.2988C21.939 14.7331 21.8119 15.1803 21.7097 15.5397C21.5945 15.9451 21.5088 16.2467 21.381 16.3983C21.3209 16.7032 21.2665 17.0079 21.2184 17.2781C21.1892 17.4414 21.1621 17.5934 21.1369 17.7277C21.1556 17.7784 21.16 17.842 21.1667 17.9376C21.1768 18.0843 21.1938 18.3299 21.2695 18.7645C21.3431 19.1869 21.5307 19.8934 21.7294 20.6413C21.9373 21.4238 22.173 22.3108 22.3236 23.0435C22.6231 24.5009 22.9117 27.9783 22.6502 30.4539C22.5956 30.9705 22.5266 31.4425 22.4452 31.8568C22.3934 32.7309 22.2397 33.4046 21.9752 33.9163C21.687 34.4737 21.4594 35.348 21.2586 36.1193C21.1497 36.5374 21.0469 36.9323 20.9483 37.2172C20.9004 37.3559 20.8488 37.468 20.7911 37.5586C20.7388 37.7552 20.5569 38.432 20.5569 38.432C20.4421 38.8615 20.3104 39.8645 20.171 40.9264L20.1011 41.4564C20.1411 41.6543 20.1231 42.0352 20.1188 42.1128C20.1142 42.1971 20.1078 42.3535 20.0995 42.5535C20.0672 43.3355 20.0073 44.7848 19.9221 45.2201C19.8782 47.0212 19.8812 48.0957 19.931 48.4136C19.9777 48.7119 20.2095 49.2676 20.4549 49.8559C20.9031 50.9305 21.4111 52.1484 21.2897 52.8427C21.2317 53.1755 21.1464 53.5452 21.0561 53.9367C20.8686 54.75 20.656 55.6719 20.6831 56.3561C20.7226 57.3529 20.5661 58.7552 20.2938 59.8454C20.1648 60.3615 20.3373 60.9238 20.5041 61.4678C20.6483 61.938 20.7974 62.4243 20.7431 62.8735C20.6407 63.7206 20.1592 64.1571 19.3119 64.1707L19.2852 64.1709C18.9337 64.1709 18.595 64.0588 18.2961 63.9599C18.0557 63.8803 17.8286 63.8051 17.6439 63.8051L17.629 63.8053C17.4481 63.8093 17.2665 63.8901 17.0744 63.9756C16.8457 64.0774 16.5865 64.1927 16.285 64.1927C16.2631 64.1927 16.241 64.1921 16.2187 64.1909C15.8957 64.1729 15.7229 64.0714 15.5703 63.9819C15.4485 63.9103 15.3522 63.8538 15.1852 63.8458C15.1752 63.8454 15.1655 63.8451 15.1559 63.8451C14.997 63.8451 14.9018 63.9094 14.7814 63.9908C14.6506 64.0791 14.5023 64.1793 14.2652 64.1909C14.247 64.1918 14.2295 64.1922 14.2128 64.1922C13.9583 64.1922 13.8329 64.0941 13.7223 64.0076C13.6441 63.9464 13.5765 63.8936 13.4538 63.8619C13.4351 63.8571 13.417 63.8548 13.3983 63.8548C13.2905 63.8548 13.1782 63.9361 13.0592 64.0221C12.9158 64.1258 12.7675 64.233 12.5839 64.233C12.57 64.233 12.5559 64.2323 12.5418 64.231C12.31 64.2093 12.1896 64.1121 12.0834 64.0264C12.0185 63.9739 11.9624 63.9286 11.8795 63.8988C11.8691 63.895 11.8575 63.8931 11.8444 63.8931C11.7701 63.8931 11.6607 63.9499 11.5448 64.0101C11.3721 64.0998 11.1572 64.2113 10.9114 64.2113C10.3834 64.2113 10.1132 63.9489 9.94743 63.2754C9.78099 62.5986 9.92731 61.5002 10.4603 60.8336C10.5979 60.6614 10.8169 60.3989 11.0705 60.095C11.7187 59.3182 12.6064 58.2544 12.9888 57.6768C13.5223 56.871 13.7387 55.4289 13.4255 54.7653C13.0253 53.9172 12.9412 53.1252 13.1758 52.4114L13.2546 52.1736C13.4739 51.5138 13.7008 50.8315 13.7988 50.002C13.8794 49.3208 13.8431 47.668 13.7752 46.4154C13.7116 46.1344 13.6598 45.838 13.6214 45.5338C13.4576 44.2363 12.6786 38.3307 12.1314 35.2268C11.9549 34.7787 11.8068 34.2159 11.6759 33.719C11.6158 33.4904 11.5589 33.2747 11.5048 33.0904C11.1938 32.0322 10.5493 28.3847 10.3645 27.0417C10.1706 25.6321 10.3126 22.9551 10.4045 22.0762C10.4776 21.3773 10.6732 19.9827 11.1612 18.4956C11.524 17.3901 11.5391 16.5521 11.5502 15.9402C11.5526 15.8071 11.5549 15.6834 11.5602 15.5682C11.5703 15.3516 11.6234 15.1302 11.7224 14.8923C11.7059 14.4714 11.6931 13.9151 11.6863 13.3208C11.611 12.5245 11.5909 10.3422 11.6464 8.92625C11.6872 7.88701 12.0348 6.41416 12.3141 5.23076C12.4325 4.72923 12.5349 4.29557 12.5997 3.95834C12.6264 3.60893 12.6032 3.13918 12.5308 2.56157L12.5297 2.55878C11.5575 0.164169 10.5712 -2.34338 10.1293 -4.3645C9.90742 -5.37935 9.86471 -7.1575 9.82338 -8.87716C9.80577 -9.60929 9.78756 -10.3663 9.75566 -11.0422C9.36675 -13.9197 9.01278 -17.2492 8.98388 -18.301C8.96108 -19.1259 9.10348 -20.8615 9.32236 -22.4277L9.33711 -22.702C9.41785 -24.1618 9.5399 -26.3679 9.83574 -27.6068C10.2339 -29.2743 10.9885 -33.7104 10.9578 -35.1235C10.9267 -36.5599 11.6603 -39.6328 12.2019 -41.2989C12.3138 -41.7717 12.5128 -42.5106 12.6882 -43.1624C12.7556 -43.4127 12.8189 -43.6478 12.8714 -43.846C12.6306 -44.3069 12.825 -49.4054 12.9968 -49.9606C13.0421 -50.38 13.0911 -50.7692 13.1426 -51.1199C13.1077 -51.169 13.1158 -51.2087 13.2255 -51.6365C13.3033 -52.0887 13.3875 -52.4639 13.4735 -52.7408C13.5173 -52.8985 13.5729 -53.0606 13.6319 -53.2322C13.7639 -53.6166 13.9003 -54.0141 13.9264 -54.4413C13.8632 -55.1092 13.8644 -55.8801 13.9291 -56.286C13.9318 -56.7704 13.9321 -57.3933 13.9112 -57.9522C13.8344 -58.1561 13.7538 -58.3572 13.6658 -58.5768C13.5662 -58.8253 13.4573 -59.0973 13.3338 -59.423C12.8946 -60.5816 12.3425 -62.6291 11.8087 -64.6092C11.5251 -65.661 11.2571 -66.6545 11.0179 -67.4714C10.944 -67.7237 10.8724 -67.988 10.8034 -68.2623C10.786 -68.0956 10.7656 -67.9149 10.7422 -67.7206C10.6678 -67.1018 10.2806 -65.8699 9.83211 -64.4436C9.06544 -62.005 8.11133 -58.9699 8.18708 -57.3603C8.28031 -55.3769 7.63244 -53.8076 7.2432 -53.3611C7.14911 -52.9439 7.07282 -52.6477 7.01037 -52.457C6.99164 -52.3365 6.97329 -52.2155 6.95489 -52.0942C6.89282 -51.6848 6.82858 -51.2613 6.74996 -50.8582C6.66159 -50.2437 6.47865 -49.5365 6.19173 -48.7028C5.90329 -47.8642 5.05343 -45.7946 3.91811 -43.1658C3.7676 -42.6785 3.60042 -42.1441 3.42361 -41.5789C2.28298 -37.9323 0.720738 -32.9381 0.681464 -31.1651C0.67017 -30.657 0.954763 -29.8794 1.42481 -28.6594C1.94635 -27.3055 1.85611 -24.6467 0.661529 -22.386C0.153337 -21.4241 -0.296774 -19.9536 -0.731997 -18.5315C-1.1548 -17.1502 -1.55408 -15.8456 -1.94845 -15.2588C-2.18328 -14.9094 -2.42641 -14.7322 -2.67093 -14.7322C-2.92098 -14.7322 -3.10902 -14.9137 -3.23613 -15.1C-3.43381 -14.0882 -3.89196 -12.2743 -4.65392 -12.1357C-4.70848 -12.1257 -4.76216 -12.1207 -4.81347 -12.1207C-5.18862 -12.1207 -5.4618 -12.3801 -5.5992 -12.8494C-5.83643 -12.0405 -6.27105 -10.9558 -6.89559 -10.9558L-6.91579 -10.9562C-7.79508 -10.9883 -7.821 -12.1433 -7.781 -13.4447C-7.85063 -13.4059 -7.9295 -13.3857 -8.01555 -13.3857C-8.59138 -13.3857 -9.28343 -14.2508 -9.41267 -15.1324C-9.73248 -17.3141 -9.52058 -19.9278 -9.36588 -21.8362C-9.2898 -22.774 -9.21146 -23.7408 -9.27592 -24.0142C-9.39446 -23.9046 -9.54562 -23.7087 -9.7184 -23.4849C-10.0429 -23.0646 -10.4466 -22.5416 -10.9202 -22.2157C-11.3044 -21.9511 -11.7624 -21.8114 -12.2446 -21.8114C-13.0014 -21.8114 -13.6675 -22.1533 -13.8284 -22.6243C-13.8892 -22.8023 -13.924 -23.153 -13.4743 -23.5012C-12.3022 -24.4089 -10.0557 -27.6878 -9.25711 -29.6562C-8.7246 -30.9688 -7.74371 -31.4039 -6.95558 -31.7535C-6.48507 -31.9622 -6.07874 -32.1424 -5.87848 -32.4589C-5.48525 -33.0802 -4.91931 -35.7459 -4.19637 -40.3819C-4.09304 -41.5185 -4.00845 -42.2585 -3.93118 -42.7022C-3.88533 -42.9651 -3.83762 -43.259 -3.78892 -43.5708C-3.75444 -46.5996 -3.69942 -49.9691 -3.48446 -51.6468C-3.07142 -54.8713 -1.71961 -58.7892 -0.532539 -60.2022C-0.362965 -60.404 -0.211598 -60.5876 -0.0763178 -60.7517C0.335051 -61.2505 0.589418 -61.5589 0.781446 -61.6898C0.951619 -61.9178 1.09707 -62.3457 1.21402 -62.9626C1.04856 -65.4332 1.31569 -68.0934 1.92926 -70.0858C2.01618 -70.9127 2.08614 -71.5638 2.12933 -71.8065C2.27099 -72.6026 2.1191 -73.3705 1.9971 -73.9877C1.93929 -74.2801 1.88932 -74.5327 1.88381 -74.7324C1.87019 -75.2219 1.78281 -75.8682 1.65045 -76.8464C1.58833 -77.306 1.51656 -77.8363 1.43855 -78.4541C1.16904 -80.5889 1.56719 -83.1501 2.50364 -85.3053C3.60621 -87.8429 4.84385 -89.2045 6.77547 -90.0051C7.2713 -90.2105 8.18036 -90.318 8.82205 -90.318C8.86337 -90.318 8.90404 -90.3176 8.94405 -90.3167C10.5032 -91.1385 11.8991 -91.4306 12.624 -91.4306C12.7366 -91.4306 12.8383 -91.4238 12.9267 -91.4104C12.9684 -91.4125 13.0124 -91.4135 13.0586 -91.4135C13.1493 -91.4135 13.2488 -91.4097 13.3456 -91.4045C13.3761 -91.7216 13.7893 -91.9567 14.2826 -92.2036C14.9683 -92.5466 15.6835 -92.8603 16.4083 -93.136C17.2461 -93.4547 18.0884 -93.7179 19.0953 -94.015C19.2184 -94.0513 19.3425 -94.0858 19.4666 -94.1202C20.1926 -94.3218 20.8782 -94.5122 21.3795 -95.059C21.5228 -95.2153 21.6432 -95.3883 21.7706 -95.5715C21.8311 -95.6585 21.8917 -95.7454 21.9545 -95.8302C22.1485 -96.0919 22.3491 -96.3625 22.4575 -96.6671C22.509 -96.8119 22.4963 -96.976 22.4827 -97.1498C22.477 -97.2244 22.4712 -97.2988 22.4702 -97.3723C22.4668 -97.6069 22.467 -97.8546 22.4708 -98.1298C22.478 -98.649 22.494 -99.2615 22.5574 -99.8727C22.5449 -100.045 22.5321 -100.133 22.5235 -100.176C22.5074 -100.256 22.4942 -100.338 22.4805 -100.422C22.4179 -100.806 22.347 -101.241 21.9353 -101.855C21.5836 -102.379 21.4863 -103.598 21.4666 -104.527C21.4628 -104.707 21.3163 -104.853 21.1401 -104.853C21.1171 -104.853 21.0939 -104.851 21.071 -104.846C20.9662 -104.823 20.8565 -104.811 20.7537 -104.811C20.4768 -104.811 20.248 -104.895 20.0921 -105.054C19.9313 -105.218 19.8526 -105.454 19.8583 -105.755C19.8784 -106.806 19.6645 -107.417 19.4759 -107.955C19.3807 -108.227 19.2909 -108.483 19.2368 -108.772C19.1407 -109.285 19.0823 -109.974 19.3492 -110.347C19.4542 -110.493 19.5982 -110.581 19.7774 -110.606C19.8212 -110.613 19.8664 -110.616 19.9116 -110.616C20.0601 -110.616 20.2154 -110.582 20.3732 -110.515C20.3948 -110.506 20.417 -110.501 20.4394 -110.501C20.4873 -110.501 20.5349 -110.523 20.5697 -110.56C20.6053 -110.599 20.6228 -110.649 20.6188 -110.701C20.5033 -112.24 20.3978 -116.029 21.9106 -117.97C23.7094 -120.278 26.4761 -120.745 27.5822 -120.839C27.7251 -120.851 27.8977 -120.864 28.136 -120.864C28.3148 -120.864 28.5086 -120.857 28.7122 -120.841C29.8385 -120.758 32.6551 -120.31 34.4793 -117.97C35.9921 -116.028 35.8865 -112.24 35.7709 -110.701C35.767 -110.649 35.7845 -110.599 35.8202 -110.56C35.855 -110.523 35.9024 -110.501 35.9505 -110.501C35.9728 -110.501 35.995 -110.506 36.0166 -110.515C36.1744 -110.582 36.3297 -110.616 36.4782 -110.616C36.5234 -110.616 36.5686 -110.613 36.6125 -110.606C36.7916 -110.581 36.9356 -110.493 37.0406 -110.347C37.3075 -109.974 37.249 -109.285 37.1529 -108.772C37.0989 -108.483 37.009 -108.227 36.9139 -107.955C36.7252 -107.417 36.5114 -106.806 36.5315 -105.755C36.5372 -105.454 36.4585 -105.218 36.2977 -105.054C36.1418 -104.895 35.913 -104.811 35.6362 -104.811C35.5333 -104.811 35.4235 -104.823 35.3187 -104.846C35.2959 -104.851 35.2727 -104.853 35.2497 -104.853C35.0736 -104.853 34.927 -104.707 34.9233 -104.527C34.9035 -103.597 34.806 -102.379 34.4545 -101.855C34.0428 -101.241 33.9719 -100.806 33.9093 -100.422C33.8957 -100.338 33.8824 -100.256 33.8664 -100.176C33.8577 -100.133 33.8449 -100.045 33.8324 -99.8727C33.9171 -99.0579 33.925 -98.2561 33.9216 -97.5787C33.9211 -97.4833 33.9159 -97.3864 33.9107 -97.2894C33.9034 -97.152 33.8965 -97.0222 33.9025 -96.895C33.9177 -96.5751 34.1492 -96.2399 34.3534 -95.9442C34.3825 -95.902 34.4109 -95.8609 34.4379 -95.8209C34.7 -95.4328 34.9711 -95.0315 35.3392 -94.7435C35.6396 -94.5084 35.9978 -94.4016 36.3769 -94.2886L36.7073 -94.1885C38.5084 -93.6397 40.3708 -93.0723 42.1072 -92.2035L42.2133 -92.1513C42.4365 -92.0426 42.6895 -91.9193 42.8652 -91.7354C42.9588 -91.6375 43.0183 -91.5205 43.0372 -91.4031C43.2097 -91.411 43.3691 -91.4148 43.521 -91.4148C44.1146 -91.4148 44.624 -91.355 45.1239 -91.2265C45.8959 -91.0281 46.6768 -90.7221 47.4457 -90.3167C47.4857 -90.3176 47.5264 -90.318 47.5677 -90.318C48.2094 -90.318 49.1185 -90.2105 49.6142 -90.0051C51.5459 -89.2046 52.7836 -87.8429 53.8862 -85.3053C54.8226 -83.1502 55.2207 -80.5891 54.9513 -78.4541C54.8732 -77.8361 54.8014 -77.3055 54.7393 -76.8458C54.607 -75.8679 54.5196 -75.2219 54.506 -74.7324C54.5004 -74.5327 54.4505 -74.2801 54.3927 -73.9877C54.2707 -73.3706 54.1188 -72.6026 54.2604 -71.8065C54.3037 -71.5639 54.3736 -70.9131 54.4604 -70.0866C55.0815 -68.0715 55.347 -65.3836 55.1715 -62.8888C55.2846 -62.3069 55.4286 -61.9056 55.6 -61.6951C55.7934 -61.5674 56.0506 -61.2556 56.4674 -60.7501C56.6023 -60.5865 56.7533 -60.4035 56.9224 -60.2022C58.1094 -58.7891 59.4612 -54.8712 59.8743 -51.6469C60.0893 -49.969 60.1443 -46.5997 60.1788 -43.5708C60.2274 -43.259 60.2751 -42.9651 60.3209 -42.7023C60.3973 -42.2638 60.4844 -41.5019 60.5872 -40.3733C61.3091 -35.7459 61.8751 -33.0802 62.2683 -32.4589C62.4686 -32.1424 62.8749 -31.9622 63.3454 -31.7535C64.1335 -31.4039 65.1144 -30.9689 65.6469 -29.6563C66.4454 -27.6878 68.692 -24.409 69.8641 -23.5012C70.3139 -23.153 70.279 -22.8023 70.2182 -22.6243C70.0574 -22.1533 69.3913 -21.8114 68.6344 -21.8114C68.1522 -21.8114 67.6942 -21.9512 67.3099 -22.2157C66.8365 -22.5416 66.4327 -23.0646 66.1083 -23.4847C65.9356 -23.7086 65.7843 -23.9045 65.6657 -24.0142C65.6014 -23.7407 65.6797 -22.7741 65.7557 -21.8367C65.9104 -19.9281 66.1223 -17.3142 65.8025 -15.1325C65.6733 -14.2509 64.9812 -13.3858 64.4053 -13.3858C64.3198 -13.3858 64.2412 -13.4058 64.1719 -13.4442C64.2106 -12.143 64.1834 -10.9884 63.3056 -10.9562L63.2854 -10.9559C62.6608 -10.9559 62.2262 -12.0406 61.989 -12.8496C61.8516 -12.3803 61.5784 -12.1208 61.2033 -12.1208C61.152 -12.1208 61.0983 -12.1258 61.0437 -12.1357C60.282 -12.2744 59.8237 -14.0882 59.626 -15.1C59.4988 -14.9138 59.3107 -14.7323 59.0607 -14.7323C58.8162 -14.7323 58.5731 -14.9095 58.3383 -15.2589C57.9439 -15.8457 57.5446 -17.1503 57.1218 -18.5315C56.6865 -19.9537 56.2365 -21.4242 55.7282 -22.3861C54.5337 -24.647 54.4434 -27.3057 54.965 -28.6595C55.4351 -29.8796 55.7197 -30.6572 55.7084 -31.1652C55.6692 -32.938 54.1072 -37.9315 52.9666 -41.5776C52.7897 -42.1432 52.6223 -42.6781 52.4717 -43.1658C51.3364 -45.7948 50.4865 -47.8645 50.1981 -48.7029C49.9111 -49.5368 49.7282 -50.244 49.6387 -50.8651C49.5613 -51.2613 49.4971 -51.6845 49.435 -52.0937C49.4166 -52.2151 49.3982 -52.3364 49.3795 -52.457C49.317 -52.6476 49.2407 -52.9438 49.1466 -53.3612C48.7574 -53.8076 48.1095 -55.377 48.2028 -57.3604C48.2785 -58.9701 47.3243 -62.0052 46.5576 -64.444C46.1092 -65.8702 45.722 -67.1019 45.6476 -67.7206C45.6242 -67.9149 45.6038 -68.0957 45.5863 -68.2623C45.5175 -67.9881 45.4459 -67.7238 45.3719 -67.4714C45.1326 -66.6546 44.8648 -65.661 44.5811 -64.6091C44.0472 -62.6291 43.4952 -60.5817 43.056 -59.4231C42.9326 -59.0976 42.8237 -58.8257 42.7242 -58.5772C42.6361 -58.3576 42.5555 -58.1563 42.4787 -57.9522C42.4577 -57.3921 42.4579 -56.7698 42.4607 -56.2861C42.5254 -55.8802 42.5266 -55.1093 42.4634 -54.4413C42.4896 -54.0142 42.626 -53.6168 42.7579 -53.2323C42.8168 -53.0608 42.8724 -52.8987 42.9174 -52.7372C43.0022 -52.4643 43.0865 -52.0891 43.1666 -51.626C43.2715 -51.2176 43.2816 -51.1711 43.2498 -51.1236C43.3245 -50.7421 43.5491 -49.8306 43.663 -49.3687C43.6979 -49.2268 43.724 -49.1207 43.7351 -49.0739C43.8285 -48.6773 43.8155 -44.3122 43.5206 -43.838C43.5728 -43.6406 43.6356 -43.4074 43.7024 -43.1592C43.8776 -42.5085 44.0761 -41.771 44.1907 -41.2883C44.7294 -39.6331 45.4631 -36.5602 45.432 -35.1236C45.4012 -33.7105 46.1559 -29.2744 46.5541 -27.6068C46.8501 -26.3671 46.9722 -24.1598 47.0528 -22.6991L47.0686 -22.4164C47.2827 -20.8871 47.4283 -19.1131 47.4059 -18.3011C47.377 -17.2492 47.0231 -13.9195 46.6331 -11.0303C46.6022 -10.3663 46.584 -9.6094 46.5664 -8.87735C46.5251 -7.15763 46.4824 -5.3794 46.2604 -4.36456C45.8187 -2.34344 44.8323 0.164055 43.8599 2.55926L43.8592 2.55905C43.7866 3.13765 43.7634 3.60827 43.79 3.95814C43.8549 4.29532 43.9572 4.72891 44.0756 5.23031C44.3549 6.41378 44.7027 7.88675 44.7433 8.92619C44.7989 10.3418 44.7788 12.5242 44.7028 13.3322C44.6967 13.9131 44.6839 14.4691 44.6674 14.8922C44.7664 15.1302 44.8195 15.3517 44.8296 15.5682C44.8349 15.6834 44.8372 15.8073 44.8396 15.9404C44.8507 16.5522 44.8659 17.3903 45.2286 18.4956C45.7167 19.983 45.9122 21.3774 45.9853 22.0762C46.0772 22.955 46.2192 25.6319 46.0253 27.0416C45.8406 28.3844 45.1961 32.0318 44.885 33.0903C44.831 33.2744 44.7742 33.4899 44.7141 33.7181C44.5832 34.2153 44.435 34.7783 44.2584 35.2268C43.7113 38.3307 42.9322 44.2363 42.7684 45.5338C42.73 45.8371 42.6783 46.1337 42.6146 46.4153C42.5466 47.6674 42.5104 49.3201 42.591 50.002C42.689 50.8313 42.9158 51.5133 43.135 52.1729L43.214 52.4114C43.4485 53.1253 43.3645 53.9172 42.9643 54.7652C42.6512 55.4288 42.8675 56.8709 43.401 57.6767C43.7836 58.2546 44.6716 59.3189 45.3201 60.0959C45.5733 60.3995 45.7921 60.6616 45.9295 60.8336C46.4625 61.5002 46.6088 62.5986 46.4423 63.2754C46.2767 63.9489 46.0064 64.2113 45.4784 64.2113C45.2326 64.2113 45.0177 64.0997 44.8449 64.0101C44.7291 63.9499 44.6197 63.8931 44.5454 63.8931C44.5322 63.8931 44.5207 63.895 44.5102 63.8987C44.4274 63.9286 44.3713 63.9739 44.3063 64.0263C44.2001 64.112 44.0798 64.2093 43.8479 64.231C43.8338 64.2323 43.8198 64.233 43.8058 64.233Z" fill="white" stroke="#28839F" stroke-width="0.7"/>
<path d="M13.5017 -14.0421C13.2583 -11.7584 12.8931 -7.43471 12.954 -4.29849C13.0148 -1.16229 12.9388 2.71991 12.7714 3.77038C12.604 4.82086 11.8433 7.37854 11.7825 8.93143C11.7216 10.4843 11.7521 13.1486 11.8586 13.5748C11.9651 14.0011 12.5888 12.7071 13.3496 11.413C14.1103 10.1189 16.362 5.64297 16.6967 3.98353C17.0314 2.32407 17.5487 -5.92749 17.6248 -8.19591C17.7009 -10.4643 17.9443 -14.2704 18.5376 -16.3562C19.909 -21.1766 14.1122 -19.7696 13.5017 -14.0421Z" fill="#28839F" fill-opacity="0.2"/>
<path d="M10.9052 -24.9221C11.0237 -22.7081 11.676 -18.67 12.244 -16.8024C12.812 -14.9349 12.8323 -12.6411 12.6497 -9.98195C12.4671 -7.32277 12.3454 -3.56745 12.4469 -1.33454C12.5483 0.898357 12.6092 1.77121 12.4063 1.34494C12.2034 0.918648 10.8646 -6.02362 10.4589 -7.58666C10.0531 -9.14968 9.16693 -16.5994 9.12 -18.3046C9.08161 -19.6992 9.52571 -23.6432 9.89086 -24.5567C10.256 -25.4701 10.8443 -26.0588 10.9052 -24.9221Z" fill="#28839F" fill-opacity="0.2"/>
<path d="M19.2427 -18.7614C19.068 -17.8848 19.0297 -16.9649 18.8167 -15.9804C18.6037 -14.9959 17.9444 -8.30739 17.8734 -7.0793C17.8024 -5.8512 17.5691 -1.11138 17.5082 0.0964222C17.4474 1.30421 17.3662 3.24278 17.0417 4.27804C16.7171 5.31328 17.1735 8.04351 17.559 9.50504C17.9444 10.9666 19.6281 14.6813 20.0338 15.3512C20.4395 16.0211 19.4033 10.4909 19.3999 9.29698C19.3975 8.4598 19.8278 6.64283 20.2215 4.61297C20.6654 2.32393 21.1074 -0.231602 21.6719 -1.87766C22.7369 -4.98343 22.9956 -10.1749 22.813 -11.606C22.6304 -13.0371 21.7987 -15.0467 21.2916 -15.9094C20.7844 -16.7721 20.4205 -18.377 20.4091 -18.7462C20.3977 -19.1154 19.3314 -19.2067 19.2427 -18.7614Z" fill="#28839F" fill-opacity="0.2"/>
<path d="M22.9144 -6.83518C22.9095 -5.3576 22.5442 -3.23717 21.824 -1.15651C21.1039 0.924143 20.7134 3.629 20.4598 4.91799C20.2062 6.20697 19.6078 8.41957 19.7295 10.0232C19.8512 11.6268 20.2468 13.809 20.5207 14.7732C20.7945 15.7374 20.9872 16.5189 21.2307 16.3565C21.4741 16.1941 21.5857 15.2096 22.0015 14.2454C22.4174 13.2812 22.9651 9.95215 23.0158 8.35868C23.0665 6.7652 23.3404 4.13647 23.665 2.84748C23.9895 1.55849 24.3344 -1.76042 24.1924 -2.57237C24.0504 -3.38433 23.6751 -3.71928 23.6447 -4.64289C23.6143 -5.56649 23.6396 -6.34039 23.5128 -7.1219C23.4494 -7.51266 23.2859 -8.90125 23.1781 -8.95644C23.0704 -9.01163 22.9169 -7.59894 22.9144 -6.83518Z" fill="#28839F" fill-opacity="0.2"/>
<path d="M14.7593 11.2916C16.0918 12.5139 16.3213 14.6004 16.585 15.7168C16.8488 16.8333 16.585 21.4209 16.4633 23.4305C16.3416 25.4401 16.7879 28.7894 16.4228 30.4945C16.0576 32.1996 15.8243 33.5191 14.739 34.6153C13.6537 35.7114 13.5929 35.8839 12.9539 35.9753C12.3149 36.0666 11.9396 34.0875 11.6353 33.0522C11.331 32.017 10.692 28.424 10.4993 27.0234C10.3066 25.6228 10.4486 22.9636 10.5399 22.0907C10.6312 21.2179 10.8442 19.8984 11.2905 18.5384C11.7367 17.1783 11.6657 16.2344 11.6962 15.5747C11.7266 14.915 12.1729 14.3162 12.8525 13.3215C13.532 12.3269 13.816 11.6062 14.0899 11.3728C14.3638 11.1394 14.5159 11.0683 14.7593 11.2916Z" fill="#28839F"/>
<path d="M17.0009 16.7418C17.1109 18.2335 17.153 20.1977 17.0009 21.8267C16.8487 23.4557 16.7422 24.7802 16.9096 26.3636C17.0769 27.9469 16.8792 29.0583 16.8183 30.3219C16.7574 31.5855 16.4075 32.6055 16.8639 34.1888C17.3204 35.7722 18.5832 37.0054 19.3895 37.386C20.1959 37.7666 20.5458 37.9645 20.8197 37.1728C21.0935 36.3812 21.3978 34.7369 21.8542 33.8539C22.3107 32.9709 22.402 31.6159 22.2802 29.8651C22.1585 28.1143 21.5753 23.41 21.4536 22.456C21.3319 21.5019 21.1696 19.5938 21.0073 18.5992C20.845 17.6045 20.5002 16.5084 19.9524 15.9197C19.4047 15.331 18.8773 14.6002 18.2484 13.8086C17.6196 13.0169 17.3964 13.8898 17.1124 14.7423C16.8284 15.5949 16.8893 15.2295 17.0009 16.7418Z" fill="#28839F"/>
<path d="M12.8018 37.1425C13.415 38.117 15.5759 49.464 15.6317 49.9309C15.694 50.4521 15.4643 49.9918 15.2057 49.1696C14.947 48.3475 14.2015 46.206 14.0088 45.597C13.8161 44.9881 13.5524 43.5265 13.4814 43.0596C13.4104 42.5928 13.0351 39.4159 12.9337 38.878C12.8322 38.3401 12.6725 36.9369 12.8018 37.1425Z" fill="#28839F" fill-opacity="0.2"/>
<path d="M19.7549 41.7552C19.2331 43.5236 18.8268 47.784 18.6899 49.9154C18.5529 52.0468 18.9713 49.9458 19.0702 49.2607C19.1691 48.5756 19.6788 45.7135 19.7853 45.2111C19.8918 44.7087 19.9603 42.524 19.9831 42.1053C20.0059 41.6866 19.9907 40.9559 19.7549 41.7552Z" fill="#28839F" fill-opacity="0.2"/>
<path d="M42.8882 -14.0421C43.1316 -11.7584 43.4968 -7.43471 43.4359 -4.29849C43.3751 -1.16229 43.4511 2.71991 43.6185 3.77038C43.7859 4.82086 44.5466 7.37854 44.6074 8.93143C44.6683 10.4843 44.6378 13.1486 44.5313 13.5748C44.4249 14.0011 43.8011 12.7071 43.0403 11.413C42.2796 10.1189 40.0279 5.64297 39.6932 3.98353C39.3585 2.32407 38.8412 -5.92749 38.7651 -8.19591C38.689 -10.4643 38.4456 -14.2704 37.8523 -16.3562C36.4809 -21.1766 42.2777 -19.7696 42.8882 -14.0421Z" fill="#28839F" fill-opacity="0.2"/>
<path d="M45.4846 -24.9221C45.3661 -22.7081 44.7138 -18.67 44.1458 -16.8024C43.5778 -14.9349 43.5575 -12.6411 43.7401 -9.98195C43.9226 -7.32277 44.0444 -3.56745 43.9429 -1.33454C43.8415 0.898357 43.7806 1.77121 43.9835 1.34494C44.1864 0.918648 45.5252 -6.02362 45.9309 -7.58666C46.3367 -9.14968 47.2229 -16.5994 47.2698 -18.3046C47.3082 -19.6992 46.8641 -23.6432 46.4989 -24.5567C46.1338 -25.4701 45.5455 -26.0588 45.4846 -24.9221Z" fill="#28839F" fill-opacity="0.2"/>
<path d="M37.1475 -18.7614C37.3222 -17.8848 37.3605 -16.9649 37.5735 -15.9804C37.7865 -14.9959 38.4458 -8.30739 38.5168 -7.0793C38.5878 -5.8512 38.8211 -1.11138 38.882 0.0964222C38.9428 1.30421 39.024 3.24278 39.3485 4.27804C39.6731 5.31328 39.2167 8.04351 38.8312 9.50504C38.4458 10.9666 36.7621 14.6813 36.3564 15.3512C35.9507 16.0211 36.9869 10.4909 36.9903 9.29698C36.9927 8.4598 36.5624 6.64283 36.1687 4.61297C35.7248 2.32393 35.2828 -0.231602 34.7183 -1.87766C33.6533 -4.98343 33.3946 -10.1749 33.5772 -11.606C33.7598 -13.0371 34.5915 -15.0467 35.0986 -15.9094C35.6058 -16.7721 35.9697 -18.377 35.9811 -18.7462C35.9925 -19.1154 37.0588 -19.2067 37.1475 -18.7614Z" fill="#28839F" fill-opacity="0.2"/>
<path d="M33.4754 -6.83518C33.4803 -5.3576 33.8456 -3.23717 34.5658 -1.15651C35.2859 0.924143 35.6764 3.629 35.93 4.91799C36.1836 6.20697 36.782 8.41957 36.6603 10.0232C36.5386 11.6268 36.143 13.809 35.8691 14.7732C35.5953 15.7374 35.4026 16.5189 35.1591 16.3565C34.9157 16.1941 34.8041 15.2096 34.3883 14.2454C33.9724 13.2812 33.4247 9.95215 33.374 8.35868C33.3233 6.7652 33.0494 4.13647 32.7248 2.84748C32.4003 1.55849 32.0554 -1.76042 32.1974 -2.57237C32.3394 -3.38433 32.7147 -3.71928 32.7451 -4.64289C32.7755 -5.56649 32.7502 -6.34039 32.877 -7.1219C32.9404 -7.51266 33.1039 -8.90125 33.2117 -8.95644C33.3195 -9.01163 33.4729 -7.59894 33.4754 -6.83518Z" fill="#28839F" fill-opacity="0.2"/>
<path d="M41.6303 11.2916C40.2978 12.5139 40.0683 14.6004 39.8045 15.7168C39.5408 16.8333 39.8046 21.4209 39.9263 23.4305C40.048 25.4401 39.6017 28.7894 39.9668 30.4945C40.332 32.1996 40.5653 33.5191 41.6506 34.6153C42.7359 35.7114 42.7967 35.8839 43.4357 35.9753C44.0747 36.0666 44.45 34.0875 44.7543 33.0522C45.0586 32.017 45.6976 28.424 45.8903 27.0234C46.083 25.6228 45.941 22.9636 45.8497 22.0907C45.7584 21.2179 45.5454 19.8984 45.0991 18.5384C44.6529 17.1783 44.7239 16.2344 44.6934 15.5747C44.663 14.915 44.2167 14.3162 43.5371 13.3215C42.8576 12.3269 42.5736 11.6062 42.2997 11.3728C42.0258 11.1394 41.8737 11.0683 41.6303 11.2916Z" fill="#28839F"/>
<path d="M39.389 16.7418C39.2789 18.2335 39.2369 20.1977 39.389 21.8267C39.5411 23.4557 39.6476 24.7802 39.4803 26.3636C39.3129 27.9469 39.5107 29.0583 39.5716 30.3219C39.6324 31.5855 39.9823 32.6055 39.5259 34.1888C39.0695 35.7722 37.8067 37.0054 37.0003 37.386C36.194 37.7666 35.844 37.9645 35.5702 37.1728C35.2963 36.3812 34.992 34.7369 34.5356 33.8539C34.0792 32.9709 33.9879 31.6159 34.1096 29.8651C34.2313 28.1143 34.8145 23.41 34.9363 22.456C35.058 21.5019 35.2203 19.5938 35.3825 18.5992C35.5448 17.6045 35.8897 16.5084 36.4374 15.9197C36.9851 15.331 37.5126 14.6002 38.1414 13.8086C38.7703 13.0169 38.9934 13.8898 39.2774 14.7423C39.5614 15.5949 39.5006 15.2295 39.389 16.7418Z" fill="#28839F"/>
<path d="M43.5882 37.1425C42.975 38.117 40.8141 49.464 40.7584 49.9309C40.6961 50.4521 40.9257 49.9918 41.1844 49.1696C41.443 48.3475 42.1885 46.206 42.3812 45.597C42.5739 44.9881 42.8376 43.5265 42.9086 43.0596C42.9797 42.5928 43.3549 39.4159 43.4564 38.878C43.5578 38.3401 43.7175 36.9369 43.5882 37.1425Z" fill="#28839F" fill-opacity="0.2"/>
<path d="M36.6353 41.7552C37.1571 43.5236 37.5634 47.784 37.7003 49.9154C37.8372 52.0468 37.4188 49.9458 37.3199 49.2607C37.2211 48.5756 36.7114 45.7135 36.6049 45.2111C36.4984 44.7087 36.4299 42.524 36.4071 42.1053C36.3843 41.6866 36.3995 40.9559 36.6353 41.7552Z" fill="#28839F" fill-opacity="0.2"/>
</g>
<defs>
<clipPath id="clip0_4048_2565">
<rect width="61" height="48" fill="white"/>
</clipPath>
</defs>
</svg>
