<svg width="61" height="48" viewBox="0 0 61 48" fill="none" xmlns="http://www.w3.org/2000/svg">
<g clip-path="url(#clip0_4048_1441)">
<path d="M40.808 161.241C40.6244 161.241 40.4761 161.133 40.3327 161.03C40.2137 160.944 40.1014 160.862 39.9936 160.862C39.9749 160.862 39.9568 160.865 39.9381 160.869C39.8153 160.901 39.7477 160.954 39.6695 161.015C39.5589 161.102 39.4335 161.2 39.1792 161.2C39.1624 161.2 39.1449 161.199 39.1267 161.198C38.8895 161.187 38.7413 161.087 38.6105 160.998C38.49 160.917 38.3949 160.853 38.2359 160.853C38.2264 160.853 38.2166 160.853 38.2066 160.853C38.0397 160.861 37.9434 160.918 37.8215 160.989C37.6689 161.079 37.496 161.18 37.1731 161.198C37.1507 161.2 37.1286 161.2 37.1068 161.2C36.8053 161.2 36.5461 161.085 36.3174 160.983C36.1252 160.898 35.9437 160.817 35.7627 160.813L35.7478 160.813C35.5631 160.813 35.336 160.888 35.0956 160.967C34.7967 161.066 34.458 161.178 34.1065 161.178L34.0798 161.178C33.2324 161.165 32.7509 160.728 32.6486 159.881C32.5943 159.432 32.7434 158.945 32.8876 158.475C33.0544 157.931 33.2268 157.369 33.0979 156.853C32.8256 155.763 32.6691 154.36 32.7085 153.363C32.7356 152.679 32.523 151.757 32.3355 150.944C32.2452 150.552 32.1599 150.183 32.1019 149.85C31.9806 149.156 32.4886 147.938 32.9368 146.863C33.1822 146.275 33.414 145.719 33.4607 145.421C33.5617 144.775 33.4463 141.256 33.3843 139.364L33.3752 139.087C33.3236 138.717 33.2718 138.323 33.2206 137.933C33.0812 136.871 32.9495 135.868 32.8348 135.439L32.7487 135.118C32.4431 133.982 31.9838 132.275 31.9829 131.678C31.8771 131.402 31.7228 130.993 31.5649 130.528C31.1839 130.059 30.9068 129.027 30.7414 127.46C30.4799 124.984 30.7685 121.507 31.068 120.05C31.2187 119.317 31.4544 118.429 31.6624 117.646C31.861 116.899 32.0486 116.193 32.1221 115.77C32.1979 115.336 32.2148 115.09 32.225 114.944C32.2316 114.848 32.236 114.784 32.2548 114.734C32.2295 114.599 32.2022 114.446 32.173 114.282C32.0293 113.476 31.8327 112.373 31.5767 111.802C31.2395 111.051 30.7967 108.811 30.6077 107.855L30.6012 107.822C30.541 107.517 30.4858 107.007 30.4371 106.304C30.3449 105.548 30.3165 104.638 30.2977 104.037L30.2944 103.933C30.2853 103.647 30.2854 103.076 30.3458 102.863C30.3379 102.683 30.3077 102.518 30.2224 102.181C30.1335 101.829 30.0739 101.449 30.0049 101.009C29.9713 100.795 29.9355 100.566 29.8929 100.32C29.8489 100.164 29.8203 100.008 29.8085 99.8565C29.7286 99.4462 29.6689 99.2524 29.6163 99.0812C29.5541 98.879 29.5 98.7029 29.4336 98.2626C29.3463 98.1421 29.2935 97.6902 29.1415 95.9965C29.0812 95.3247 29.0188 94.63 28.9564 94.1096C28.923 93.8313 28.9031 93.4741 28.8973 93.0477C28.8382 92.9257 28.759 92.8016 28.6754 92.6707C28.5817 92.5238 28.485 92.3723 28.397 92.1966C28.0435 91.8658 27.69 90.0393 27.6326 89.5415C27.5032 88.4192 26.6819 83.4697 26.2073 81.8917C25.6655 80.0905 26.0365 76.4604 26.0806 76.0524C26.0955 75.9138 26.1093 75.7766 26.1228 75.6418C26.1805 75.0654 26.2351 74.5197 26.3665 74.1003C26.2286 73.8427 25.5884 73.7272 25.2776 73.7272H25.1153C24.8069 73.7272 24.1741 73.841 24.0271 74.1024C24.1581 74.5218 24.2127 75.0671 24.2703 75.6429C24.2837 75.7774 24.2975 75.9142 24.3124 76.0525C24.3565 76.4605 24.7275 80.0908 24.1856 81.8917C23.7111 83.4697 22.8897 88.4192 22.7603 89.5415C22.7029 90.0393 22.3494 91.8658 21.9961 92.1966C21.908 92.3723 21.8113 92.5237 21.7177 92.6704C21.6341 92.8014 21.5548 92.9256 21.4957 93.0477C21.4899 93.4736 21.47 93.8307 21.4366 94.1096C21.3742 94.6301 21.3118 95.325 21.2515 95.997C21.0995 97.6904 21.0467 98.1422 20.9594 98.2627C20.893 98.7029 20.8388 98.879 20.7766 99.0812C20.7241 99.2523 20.6645 99.4461 20.5845 99.8565C20.5727 100.008 20.5441 100.164 20.497 100.333C20.4575 100.566 20.4218 100.794 20.3882 101.008C20.3192 101.448 20.2596 101.829 20.1706 102.181C20.0995 102.462 20.068 102.619 20.0542 102.762C20.088 102.908 20.0922 103.203 20.0964 103.689L20.0987 103.927C20.1056 104.569 20.0694 105.619 19.944 106.465C19.8989 107.081 19.8473 107.541 19.7917 107.822L19.7859 107.851C19.5968 108.808 19.1539 111.05 18.8162 111.802C18.5602 112.373 18.3635 113.477 18.2199 114.282C18.1907 114.446 18.1635 114.599 18.1383 114.734C18.157 114.784 18.1614 114.848 18.168 114.943C18.1781 115.09 18.1951 115.336 18.2709 115.77C18.3445 116.193 18.5321 116.899 18.7308 117.647C18.9387 118.43 19.1744 119.317 19.325 120.05C19.6245 121.507 19.9131 124.984 19.6516 127.46C19.5312 128.6 19.2819 130.071 18.7763 130.651C18.6173 131.126 18.4822 131.489 18.4101 131.678C18.4092 132.276 17.9495 133.984 17.6436 135.12L17.5582 135.439C17.4436 135.868 17.312 136.87 17.1727 137.931C17.1214 138.322 17.0695 138.717 17.0178 139.087L17.0086 139.369C16.9466 141.259 16.8314 144.776 16.9323 145.421C16.979 145.719 17.2108 146.275 17.4561 146.863C17.9044 147.937 18.4124 149.156 18.2911 149.85C18.233 150.183 18.1478 150.552 18.0575 150.944C17.87 151.757 17.6574 152.679 17.6844 153.363C17.724 154.36 17.5675 155.763 17.2951 156.853C17.1661 157.369 17.3386 157.931 17.5054 158.475C17.6496 158.945 17.7987 159.432 17.7444 159.881C17.6421 160.728 17.1605 161.165 16.3132 161.178L16.2865 161.178C15.9349 161.178 15.5962 161.066 15.2974 160.967C15.0569 160.888 14.8299 160.813 14.6451 160.813L14.6303 160.813C14.4493 160.817 14.2678 160.898 14.0756 160.983C13.8469 161.085 13.5877 161.2 13.2862 161.2C13.2643 161.2 13.2422 161.2 13.2199 161.198C12.8969 161.18 12.7241 161.079 12.5715 160.989C12.4496 160.918 12.3533 160.861 12.1864 160.853C12.1763 160.853 12.1666 160.853 12.1571 160.853C11.9981 160.853 11.903 160.917 11.7825 160.998C11.6517 161.087 11.5035 161.187 11.2663 161.198C11.2481 161.199 11.2306 161.2 11.2139 161.2C10.9595 161.2 10.8341 161.102 10.7235 161.015C10.6452 160.954 10.5776 160.901 10.4548 160.869C10.4362 160.865 10.418 160.862 10.3993 160.862C10.2916 160.862 10.1793 160.944 10.0603 161.03C9.91692 161.133 9.7686 161.241 9.585 161.241C9.57105 161.241 9.55695 161.24 9.54287 161.239C9.31103 161.217 9.19068 161.12 9.08449 161.034C9.01951 160.981 8.96343 160.936 8.88056 160.906C8.87012 160.903 8.85857 160.901 8.84541 160.901C8.77112 160.901 8.66168 160.957 8.54585 161.018C8.37316 161.107 8.15812 161.219 7.91232 161.219C7.38438 161.219 7.11413 160.956 6.9484 160.283C6.78195 159.606 6.92828 158.508 7.46127 157.841C7.59888 157.669 7.8179 157.406 8.07154 157.102C8.71969 156.326 9.60745 155.262 9.98988 154.684C10.5234 153.878 10.7397 152.436 10.4265 151.773C10.0263 150.924 9.9423 150.132 10.1769 149.419L10.256 149.18C10.4752 148.52 10.7019 147.838 10.7999 147.009C10.8804 146.327 10.8442 144.675 10.7763 143.422C10.7126 143.141 10.6608 142.844 10.6225 142.541C10.4039 140.809 9.40823 133.308 8.8902 130.982C8.40306 128.796 7.63151 124.788 7.50266 122.709C7.38891 120.874 7.51935 119.679 7.59729 118.965L7.61476 118.804C7.64154 118.552 7.71364 118.065 7.76307 117.839C7.85995 117.344 7.99578 116.884 8.11558 116.479C8.18568 116.242 8.252 116.018 8.3027 115.812C8.33453 115.564 8.41355 114.996 8.49681 114.8L8.50817 114.742C8.59316 114.31 8.68937 113.821 8.73862 113.367C8.73696 113.08 8.74407 112.811 8.76022 112.545C8.67523 111.611 8.64015 108.081 8.75031 106.467C8.82235 105.412 9.10595 103.852 9.33381 102.599C9.45542 101.93 9.56046 101.352 9.59276 101.061C9.63217 100.706 9.61163 100.203 9.53189 99.5669L9.53076 99.5641C8.55854 97.1696 7.57208 94.6621 7.13026 92.6406C6.90838 91.6258 6.86573 89.8474 6.82446 88.1276C6.78619 86.5334 6.74664 84.8849 6.56164 83.9496C6.18799 82.0608 6.13523 78.7931 6.18966 77.1771C6.17018 76.8139 6.227 76.0759 6.25969 75.752C6.23956 75.6892 6.24606 75.6104 6.25583 75.5326C6.28135 75.328 6.30627 74.877 6.33783 74.306C6.41863 72.845 6.54063 70.6371 6.8366 69.3975C7.23476 67.7301 7.98956 63.294 7.95879 61.8805C7.92763 60.4441 8.6613 57.3711 9.20293 55.7049C9.31484 55.2321 9.51385 54.4929 9.68948 53.8408C9.78463 53.4872 9.87162 53.1642 9.93155 52.9323C9.96797 52.4865 10.0806 52.0356 10.1749 51.6916C10.3039 51.2214 10.2154 50.6558 10.113 50.0008C10.0007 49.2826 9.86092 48.3887 9.96783 47.3292C10.1452 45.5721 10.3413 44.6917 10.4745 44.2626C10.5184 44.1049 10.574 43.9428 10.6329 43.7712C10.7649 43.3867 10.9013 42.9892 10.9275 42.5621C10.8642 41.8941 10.8654 41.1232 10.9302 40.7173C10.935 39.8476 10.9297 38.8705 10.8551 38.2009C10.8288 38.0705 10.8038 37.9149 10.7824 37.7498C10.6506 37.1448 10.3871 36.528 10.1946 36.0776C10.1314 35.9297 10.0758 35.7995 10.0314 35.6862C9.86563 35.5659 9.80065 35.2181 9.68369 34.5926C9.5997 34.1435 9.49517 33.5846 9.32374 33.0097C8.9879 31.884 8.3139 28.9488 8.06452 27.4108C8.02964 27.3996 7.99634 27.3936 7.96718 27.3936C7.93807 27.3936 7.92465 27.3997 7.92126 27.4015C7.90644 27.4095 7.88703 27.4251 7.8681 27.4681C7.91469 27.7503 7.81249 28.7056 7.74311 29.2823C7.66868 29.9011 7.28141 31.1329 6.83308 32.5592C6.06639 34.998 5.11217 38.0332 5.18785 39.6429C5.28918 41.7977 4.54136 43.4119 4.1499 43.732C4.07435 44.118 4.01202 44.5306 3.95162 44.9302C3.89082 45.3328 3.82789 45.7492 3.75074 46.1452C3.66243 46.7594 3.47942 47.4667 3.19249 48.3007C2.90404 49.1393 2.05415 51.209 0.918789 53.8379C0.768219 54.3254 0.600965 54.8601 0.424065 55.4256C-0.716604 59.072 -2.27876 64.066 -2.31804 65.839C-2.32927 66.3472 -2.04466 67.1247 -1.5746 68.3448C-1.05304 69.6987 -1.14328 72.3576 -2.33791 74.6184C-2.84612 75.5803 -3.29618 77.0508 -3.73148 78.4729C-4.15423 79.8543 -4.55366 81.1591 -4.94805 81.7459C-5.18288 82.0953 -5.42595 82.2725 -5.67049 82.2725C-5.92054 82.2725 -6.10859 82.091 -6.23577 81.9047C-6.43353 82.9165 -6.89183 84.7305 -7.65355 84.8691C-7.70811 84.8791 -7.76179 84.8841 -7.8131 84.8841C-8.18827 84.8841 -8.46151 84.6246 -8.59893 84.1552C-8.83616 84.9643 -9.27073 86.049 -9.89536 86.049L-9.91556 86.0487C-10.7948 86.0165 -10.8207 84.8615 -10.7807 83.56C-10.8504 83.5989 -10.9292 83.619 -11.0153 83.619C-11.5911 83.619 -12.2832 82.7539 -12.4125 81.8723C-12.7323 79.6905 -12.5204 77.0768 -12.3657 75.1683C-12.2896 74.2305 -12.2112 73.2636 -12.2757 72.9902C-12.3943 73.0998 -12.5454 73.2957 -12.7182 73.5195C-13.0427 73.9398 -13.4464 74.4629 -13.92 74.7888C-14.3043 75.0533 -14.7623 75.1931 -15.2445 75.1931C-16.0014 75.1931 -16.6675 74.8512 -16.8284 74.3801C-16.8892 74.2021 -16.924 73.8515 -16.4742 73.5032C-15.3021 72.5955 -13.0555 69.3164 -12.2569 67.348C-11.7244 66.0353 -10.7435 65.6003 -9.9553 65.2506C-9.48477 65.0419 -9.07842 64.8617 -8.87815 64.5452C-8.41526 63.8137 -7.71416 60.251 -6.79436 53.9564C-6.75735 50.5402 -6.70279 47.0635 -6.48411 45.3566C-6.071 42.132 -4.71915 38.214 -3.53209 36.8009C-3.36225 36.5988 -3.21067 36.415 -3.07525 36.2507C-2.66413 35.7522 -2.40995 35.444 -2.21806 35.3133C-2.04774 35.0851 -1.90229 34.6571 -1.78547 34.0405C-2.05073 30.0824 -1.20092 26.6978 -0.511572 25.5567L-0.474827 25.4964C-0.395161 25.2231 -0.284044 24.8752 -0.166573 24.5073L-0.125311 24.3778L-0.103115 24.2491C0.0807552 23.1818 -0.0560017 21.6798 -0.214354 19.9406C-0.249043 19.5595 -0.28459 19.169 -0.317686 18.7721C-0.52548 16.2774 -0.211767 14.2808 0.669558 12.489C0.920532 11.8794 1.39352 11.0924 1.84505 10.5351C3.84591 7.0275 7.898 5.57143 9.62483 5.57143C9.73739 5.57143 9.83913 5.57821 9.92758 5.59157C9.96957 5.58944 10.0138 5.58851 10.0603 5.58851C10.2427 5.58851 10.4598 5.60366 10.6898 5.61969C10.9692 5.63918 11.2859 5.66132 11.6095 5.66139C11.759 5.53605 12.0895 5.42068 12.6912 5.21747C13.1205 5.07246 13.6549 4.892 14.1892 4.66884C15.434 4.14907 16.9703 3.19489 17.8422 2.39997C18.1112 2.15467 18.2788 2.02515 18.3978 1.97229C18.4804 1.85733 18.5682 1.74269 18.659 1.62419C19.0005 1.17882 19.387 0.67487 19.4924 0.157093C19.4584 -0.142525 19.4465 -1.78876 19.5587 -2.87093C19.5461 -3.04408 19.5332 -3.13131 19.5247 -3.17421C19.5087 -3.2544 19.4954 -3.33578 19.4818 -3.4197C19.4192 -3.80376 19.3484 -4.23902 18.9365 -4.85316C18.585 -5.37746 18.4875 -6.59588 18.4677 -7.52565C18.464 -7.70538 18.3175 -7.8516 18.1413 -7.8516C18.1183 -7.8516 18.0951 -7.84907 18.0722 -7.84409C17.9674 -7.82121 17.8577 -7.80912 17.7549 -7.80912C17.478 -7.80912 17.2492 -7.89317 17.0933 -8.05228C16.9324 -8.21632 16.8538 -8.45209 16.8595 -8.75311C16.8795 -9.80497 16.6657 -10.4152 16.477 -10.9537C16.3819 -11.2252 16.2921 -11.4817 16.238 -11.7703C16.1419 -12.2832 16.0834 -12.9728 16.3503 -13.3455C16.4553 -13.4921 16.5993 -13.5794 16.7785 -13.605C16.8223 -13.6113 16.8675 -13.6144 16.9127 -13.6144C17.0613 -13.6144 17.2166 -13.5805 17.3744 -13.5135C17.396 -13.5044 17.4183 -13.4997 17.4405 -13.4997C17.4885 -13.4997 17.536 -13.5213 17.5708 -13.5588C17.6065 -13.5972 17.624 -13.6472 17.62 -13.6995C17.5044 -15.2383 17.3988 -19.0272 18.9118 -20.9685C20.7107 -23.2766 23.4774 -23.7442 24.5836 -23.8381C24.7266 -23.8502 24.8991 -23.8633 25.1375 -23.8633C25.3163 -23.8633 25.5101 -23.8556 25.7137 -23.8404C26.8401 -23.7567 29.6567 -23.3092 31.481 -20.9685C32.9939 -19.0272 32.8883 -15.2383 32.7727 -13.6994C32.7688 -13.6472 32.7862 -13.5972 32.8219 -13.5587C32.8567 -13.5212 32.9042 -13.4997 32.9522 -13.4997C32.9746 -13.4997 32.9968 -13.5044 33.0184 -13.5135C33.1762 -13.5805 33.3315 -13.6144 33.48 -13.6144C33.5252 -13.6144 33.5704 -13.6113 33.6143 -13.605C33.7934 -13.5794 33.9374 -13.4921 34.0424 -13.3455C34.3093 -12.9728 34.2508 -12.2832 34.1548 -11.7703C34.1007 -11.4817 34.0108 -11.2253 33.9157 -10.9538C33.7271 -10.4153 33.5133 -9.80505 33.5333 -8.75311C33.539 -8.45211 33.4604 -8.21625 33.2995 -8.05221C33.1435 -7.89315 32.9147 -7.8091 32.6379 -7.8091C32.535 -7.8091 32.4253 -7.82121 32.3205 -7.84407C32.2976 -7.84906 32.2744 -7.85159 32.2514 -7.85159C32.0753 -7.85159 31.9288 -7.70538 31.925 -7.52563C31.9052 -6.59587 31.8078 -5.37751 31.4563 -4.85315C31.0445 -4.23908 30.9736 -3.80381 30.911 -3.41982C30.8974 -3.33591 30.8841 -3.25445 30.868 -3.17426C30.8594 -3.13091 30.8466 -3.04327 30.8341 -2.87098C30.9463 -1.78854 30.9344 -0.142441 30.9004 0.15711C31.0057 0.674885 31.3922 1.17884 31.7337 1.62421C31.8259 1.74442 31.915 1.86065 31.9952 1.97236C32.1142 2.02536 32.2817 2.15481 32.5506 2.39997C33.4224 3.19483 34.9586 4.14901 36.2035 4.66884C36.7378 4.892 37.2722 5.07246 37.7016 5.21747C38.3033 5.42075 38.6338 5.53605 38.7833 5.66139C39.1068 5.66132 39.4235 5.63918 39.703 5.61969C39.9329 5.60366 40.1501 5.58851 40.3325 5.58851C40.3789 5.58851 40.4231 5.58943 40.4651 5.59157C40.5536 5.57821 40.6553 5.57143 40.7679 5.57143C42.4947 5.57143 46.5468 7.02749 48.5477 10.5351C48.9993 11.0926 49.4723 11.8796 49.7269 12.4971C50.6045 14.2807 50.9182 16.2772 50.7104 18.7721C50.6773 19.1694 50.6418 19.5601 50.607 19.9416C50.4487 21.6804 50.312 23.182 50.4959 24.2491L50.5253 24.4197L50.5274 24.4263C50.6457 24.8064 50.7576 25.1658 50.8365 25.4451L50.9043 25.5568C51.6012 26.7102 52.4546 30.1262 52.1739 34.1142C52.287 34.6961 52.431 35.0974 52.6024 35.3079C52.7958 35.4356 53.053 35.7475 53.4698 36.253C53.6048 36.4166 53.7558 36.5996 53.9248 36.8009C55.1119 38.2139 56.4637 42.1319 56.8768 45.3565C57.0955 47.0635 57.1501 50.5401 57.1871 53.9563C58.1069 60.251 58.808 63.8137 59.271 64.5452C59.4712 64.8617 59.8776 65.0419 60.348 65.2506C61.1363 65.6002 62.1171 66.0353 62.6497 67.3479C63.4483 69.3164 65.6949 72.5954 66.867 73.5032C67.3168 73.8515 67.282 74.2021 67.2212 74.3801C67.0603 74.8512 66.3942 75.193 65.6373 75.193C65.1551 75.193 64.697 75.0533 64.3128 74.7888C63.8393 74.4629 63.4355 73.9398 63.1111 73.5197C62.9384 73.2958 62.7871 73.0999 62.6685 72.9902C62.6041 73.2637 62.6825 74.2303 62.7585 75.1678C62.9132 77.0764 63.1251 79.6904 62.8053 81.8722C62.6761 82.7538 61.984 83.6189 61.4081 83.6189C61.3221 83.6189 61.2432 83.5988 61.1736 83.56C61.2135 84.8614 61.1875 86.0164 60.3083 86.0486L60.2881 86.0489C59.6635 86.0489 59.2289 84.9642 58.9917 84.1552C58.8543 84.6245 58.5811 84.884 58.206 84.884C58.1546 84.884 58.1009 84.879 58.0464 84.8691C57.2843 84.7304 56.8262 82.9164 56.6285 81.9046C56.5014 82.0909 56.3134 82.2725 56.0633 82.2725C55.8188 82.2725 55.5756 82.0953 55.3408 81.7458C54.9464 81.159 54.547 79.8542 54.1242 78.4728C53.6889 77.0508 53.2389 75.5803 52.7307 74.6184C51.536 72.3575 51.4458 69.6986 51.9674 68.3448C52.4375 67.1246 52.7221 66.347 52.7108 65.839C52.6715 64.066 51.1094 59.0721 49.9688 55.4257C49.7919 54.8602 49.6246 54.3255 49.474 53.8379C48.3387 51.2088 47.4888 49.1391 47.2003 48.3006C46.9133 47.4667 46.7304 46.7594 46.6409 46.1383C46.5649 45.7492 46.502 45.333 46.4413 44.9307C46.3809 44.5309 46.3186 44.1181 46.2429 43.7319C45.8514 43.4117 45.1037 41.7975 45.2049 39.6428C45.2807 38.0331 44.3265 34.9979 43.5597 32.559C43.1113 31.1327 42.7241 29.901 42.6497 29.2822C42.5803 28.7055 42.4782 27.7502 42.5247 27.4681C42.5059 27.425 42.4865 27.4094 42.4717 27.4015C42.4682 27.3996 42.4548 27.3935 42.4256 27.3935C42.3965 27.3935 42.3631 27.3995 42.3283 27.4108C42.0791 28.9482 41.405 31.8835 41.0691 33.0096C40.8976 33.5846 40.7931 34.1435 40.7092 34.5926C40.5922 35.2181 40.5271 35.5658 40.3614 35.6862C40.317 35.7995 40.2614 35.9296 40.1982 36.0775C40.0058 36.5278 39.7422 37.1446 39.6086 37.761C39.5891 37.914 39.5641 38.0696 39.536 38.2121C39.4631 38.8705 39.4578 39.8475 39.4626 40.7172C39.5274 41.123 39.5286 41.8941 39.4653 42.562C39.4915 42.9892 39.6279 43.3866 39.7599 43.7711C39.8188 43.9426 39.8744 44.1047 39.9194 44.2662C40.0516 44.6917 40.2476 45.5722 40.425 47.3292C40.5319 48.3886 40.3921 49.2824 40.2798 50.0006C40.1774 50.6556 40.0889 51.2213 40.218 51.6916C40.3123 52.0353 40.4248 52.4861 40.4612 52.9321C40.5211 53.1636 40.6078 53.4858 40.7028 53.8386C40.8786 54.4915 41.0778 55.2315 41.1928 55.7155C41.7315 57.3709 42.4651 60.4439 42.434 61.8804C42.4033 63.2935 43.158 67.7298 43.5562 69.3974C43.8521 70.6369 43.9742 72.8444 44.055 74.3052C44.0865 74.8766 44.1114 75.3279 44.137 75.5325C44.1468 75.6103 44.1533 75.6892 44.1331 75.752C44.1659 76.0755 44.2226 76.8132 44.203 77.1886C44.2576 78.7926 44.2049 82.06 43.8312 83.9495C43.6461 84.8848 43.6066 86.5331 43.5684 88.1272C43.5271 89.8472 43.4844 91.6257 43.2625 92.6405C42.8208 94.6617 41.8343 97.1693 40.8619 99.5646L40.8609 99.5671C40.7811 100.204 40.7607 100.706 40.8001 101.061C40.8323 101.352 40.9373 101.929 41.059 102.598C41.2868 103.852 41.5705 105.412 41.6425 106.467C41.753 108.086 41.7174 111.631 41.6321 112.548C41.6486 112.805 41.6559 113.077 41.6543 113.367C41.7035 113.821 41.7997 114.31 41.8847 114.742L41.896 114.799C41.9792 114.996 42.0583 115.564 42.0902 115.813C42.1408 116.017 42.2071 116.241 42.2772 116.478C42.4348 117.012 42.6135 117.616 42.7052 118.292C42.7349 118.461 42.7617 118.65 42.778 118.804L42.7955 118.965C42.8735 119.679 43.0039 120.874 42.8901 122.709C42.7614 124.788 41.9898 128.795 41.5026 130.982C40.9839 133.31 39.9888 140.809 39.7703 142.541C39.732 142.844 39.6803 143.141 39.6166 143.422C39.5486 144.674 39.5123 146.327 39.593 147.009C39.691 147.839 39.9179 148.521 40.1372 149.181L40.216 149.418C40.4505 150.132 40.3665 150.924 39.9663 151.772C39.6531 152.436 39.8695 153.878 40.403 154.684C40.7856 155.262 41.6736 156.326 42.3221 157.103C42.5754 157.407 42.7941 157.669 42.9316 157.841C43.4645 158.508 43.6109 159.606 43.4444 160.283C43.2787 160.956 43.0085 161.219 42.4805 161.219C42.2347 161.219 42.0197 161.107 41.847 161.018C41.7312 160.957 41.6217 160.901 41.5474 160.901C41.5342 160.901 41.5227 160.902 41.5122 160.906C41.4294 160.936 41.3733 160.981 41.3083 161.034C41.2021 161.12 41.0818 161.217 40.8499 161.238C40.8358 161.24 40.822 161.241 40.808 161.241Z" fill="white" stroke="#28839F" stroke-width="0.504915"/>
<path d="M3.22533 20.6746C3.19625 20.6914 3.15966 20.6745 3.15387 20.6414C2.74092 18.2756 -0.315111 15.2191 1.70436 11.087C3.74316 6.91536 8.61193 5.51468 9.92041 5.72782C11.161 5.9299 14.4256 8.07527 15.9541 8.53102C16.0037 8.54583 15.9974 8.61972 15.9458 8.62501C13.7579 8.84891 11.922 8.91489 9.75134 10.4424C7.49514 12.0302 7.94965 14.0406 7.46278 15.5935C6.97979 17.134 5.71346 19.2439 3.22533 20.6746Z" fill="#28839F" fill-opacity="0.2"/>
<path d="M0.791332 12.5479C0.471823 14.3748 0.866821 15.995 1.58251 17.8157C2.19954 19.3853 2.7997 20.3278 2.76927 21.0738C2.13024 21.6523 0.410965 23.7838 0.0305968 24.271C0.258818 22.9464 0.000167236 20.952 -0.182409 18.7596C-0.365 16.5672 -0.167195 14.4966 0.791332 12.5479Z" fill="#28839F" fill-opacity="0.2"/>
<path d="M7.5086 16.6895C6.85943 19.1051 4.11821 20.2724 1.8867 27.6716C1.24948 29.7846 0.461454 36.4714 0.48693 39.0801C0.496443 40.0548 1.26796 38.8162 1.26796 38.8162C1.26796 38.8162 6.79604 30.879 7.48578 26.9002C8.17552 22.9215 7.5086 16.6895 7.5086 16.6895Z" fill="#28839F" fill-opacity="0.2"/>
<path d="M5.09234 20.0186C4.39816 20.8274 2.00879 25.2153 1.36113 27.845C0.795215 30.1427 -0.112485 35.5005 -0.178352 39.919C-0.179971 40.0275 -0.330649 40.0533 -0.369652 39.952C-2.80697 33.623 -1.32754 27.1695 -0.395168 25.6264C0.394868 24.3189 2.20151 21.5004 5.09234 20.0186Z" fill="#28839F" fill-opacity="0.2"/>
<path d="M2.09023 38.6336C1.72888 39.2866 3.30742 40.7753 3.91603 43.5868C4.01998 44.0671 5.17379 42.2368 5.05207 39.6486C4.93035 37.0604 7.41038 30.9096 7.60817 29.2653C7.80596 27.621 7.72988 27.4688 7.72988 27.4688C5.39282 33.3802 4.17974 34.8579 2.09023 38.6336Z" fill="#28839F" fill-opacity="0.2"/>
<path d="M1.22784 39.7908C-0.58986 41.155 -0.942819 43.0895 -1.36883 44.5816C-1.79486 46.0736 -5.33993 59.0299 -5.65944 60.3849C-5.97895 61.74 -6.08545 63.3538 -5.59858 62.7296C-5.11169 62.1054 -0.653739 49.0881 0.700385 46.2563C2.05451 43.4245 2.72997 42.5127 2.47546 41.3539C2.27259 40.4302 1.8973 39.2884 1.22784 39.7908Z" fill="#28839F" fill-opacity="0.2"/>
<path d="M2.53635 43.5052C1.74081 44.8485 -2.67728 56.6594 -3.42789 59.5826C-4.17849 62.5058 -4.19878 63.6832 -3.71189 63.399C-3.22502 63.1148 2.21176 50.7319 3.0638 48.2553C3.91584 45.7788 3.72311 44.7638 3.4391 43.83C3.15509 42.8962 2.86093 42.9571 2.53635 43.5052Z" fill="#28839F" fill-opacity="0.2"/>
<path d="M21.5857 8.89431C19.7695 8.43484 15.9826 8.83797 14.3637 9.05671C11.5845 9.43226 9.49631 10.6414 8.76466 11.9799C8.11549 13.1674 7.64953 15.9552 8.15605 16.527C9.73841 18.3134 9.02838 23.429 14.6072 26.0273C16.4743 26.897 22.4581 26.342 23.371 25.2762C24.2838 24.2105 24.649 19.0036 24.3447 16.0195C24.0404 13.0355 23.3912 9.35106 21.5857 8.89431Z" fill="#28839F"/>
<path d="M17.934 2.50011C17.0833 3.27567 15.53 4.25604 14.2418 4.79399C12.9536 5.33193 11.7162 5.60599 11.6452 5.82928C11.5742 6.05258 12.9841 6.50932 13.9578 6.86457C14.9316 7.21982 16.1995 7.48371 16.6356 7.25027C17.0718 7.01682 17.8021 4.7737 18.0151 4.1038C18.2281 3.43391 18.4716 2.64221 18.5628 2.27682C18.6541 1.91142 18.3904 2.08397 17.934 2.50011Z" fill="#28839F" fill-opacity="0.2"/>
<path d="M18.8978 1.86054C18.598 2.67031 18.0153 5.13387 17.6501 6.21484C17.285 7.2958 17.1633 7.69165 17.6197 7.88958C18.0762 8.0875 19.0651 7.49372 19.2021 7.06743C19.339 6.64114 19.339 1.93666 19.3238 1.58648C19.3086 1.23631 19.0499 1.44946 18.8978 1.86054Z" fill="#28839F" fill-opacity="0.2"/>
<path d="M19.6127 2.53013C19.6026 3.30152 19.5215 5.6969 19.7801 6.24499C20.0388 6.79309 21.1951 7.50865 21.5755 7.73702C21.9558 7.96541 22.443 8.10997 22.4579 7.73702C22.4681 7.48328 21.4671 6.06525 20.8299 4.45353C20.2822 3.06807 19.9063 1.86641 19.9018 1.86024C19.704 1.58618 19.6192 2.03872 19.6127 2.53013Z" fill="#28839F" fill-opacity="0.2"/>
<path d="M19.63 0.159973C19.7565 0.839459 20.6423 3.33428 21.3007 4.76041C21.6012 5.41128 22.5636 7.39085 22.9164 7.28521C23.2385 7.18878 21.9462 2.97945 21.5344 1.51498C20.6097 -1.77359 20.3967 -3.98118 19.9343 -3.76803C19.5667 -3.59856 19.5819 -0.0988464 19.63 0.159973Z" fill="#28839F" fill-opacity="0.2"/>
<path d="M23.7968 26.3418C24.3531 27.3439 24.8162 29.1889 24.8314 30.3307C24.8466 31.4726 24.2989 31.6248 23.5838 31.975C22.8687 32.3252 19.5366 34.0557 18.6237 34.8373C17.6956 35.6318 17.1631 36.1314 16.9805 34.5632C16.7979 32.9951 16.5697 31.2747 16.8588 29.5999C17.1479 27.9252 17.437 27.2705 18.1977 27.0422C18.9585 26.8138 19.9094 26.8671 21.0885 26.6311C22.2505 26.3985 23.5686 25.9307 23.7968 26.3418Z" fill="#28839F" fill-opacity="0.2"/>
<path d="M23.6598 32.5919C19.4225 34.1829 17.5372 36.6776 17.1428 37.4156C16.6762 38.2885 16.9178 40.3947 17.0515 40.76C17.1833 41.1203 18.1894 41.1591 19.0801 40.9681C20.3582 40.6941 22.6708 40.3997 23.4924 40.2982C24.314 40.1967 24.8111 39.202 24.8516 38.2682C24.8922 37.3344 24.9226 34.391 24.8516 33.8023C24.7806 33.2136 24.4254 32.3044 23.6598 32.5919Z" fill="#28839F" fill-opacity="0.2"/>
<path d="M23.695 40.9285C22.485 40.7969 18.6741 41.5984 17.9945 41.9232C17.3149 42.248 16.7773 42.8976 16.757 43.7502C16.7368 44.6028 16.9802 46.2471 17.2033 46.7343C17.4265 47.2215 18.1771 47.668 19.232 47.7087C20.2869 47.7492 22.4778 47.9117 23.4516 47.7696C24.4253 47.6274 24.6586 46.6734 24.7297 45.5975C24.8007 44.5216 24.8514 43.0904 24.7499 42.1262C24.6485 41.162 24.1616 40.9793 23.695 40.9285Z" fill="#28839F" fill-opacity="0.2"/>
<path d="M15.134 26.5951C14.2695 26.4408 11.8802 25.0409 10.9956 24.4027C9.61854 23.4092 9.99213 28.0685 12.8214 28.016C13.9168 27.9957 14.7892 27.4299 15.2152 27.2091C15.6412 26.9884 15.5322 26.6661 15.134 26.5951Z" fill="#28839F" fill-opacity="0.2"/>
<path d="M10.8146 28.2951C10.9021 29.0563 11.0951 29.6085 11.4675 30.2832C11.8961 31.0597 14.5333 29.2124 14.7095 28.7785C14.8932 28.326 14.3002 27.9563 13.709 28.1276C12.9019 28.3614 11.8758 28.219 11.3319 27.8041C10.7816 27.3844 10.7711 27.917 10.8146 28.2951Z" fill="#28839F" fill-opacity="0.2"/>
<path d="M14.8502 29.164C14.4051 29.5497 13.5315 30.1333 12.6592 30.5393C11.8516 30.9152 11.9036 31.2853 12.1216 31.5695C12.3397 31.8537 13.704 32.6149 14.201 32.8382C14.698 33.0615 15.5196 32.8788 15.6768 32.4018C15.9427 31.595 15.7714 28.3655 14.8502 29.164Z" fill="#28839F" fill-opacity="0.2"/>
<path d="M11.0974 34.5742C11.28 35.1324 12.487 35.9546 13.2173 36.4215C13.9477 36.8884 14.9569 37.4314 15.2967 37.1624C15.6365 36.8934 15.6467 34.3255 15.3981 33.7622C15.1496 33.1989 14.5968 33.2953 13.9375 33.0821C13.2411 32.857 13.0617 32.4808 12.2943 32.4173C11.6806 32.3666 10.8436 33.7981 11.0974 34.5742Z" fill="#28839F" fill-opacity="0.2"/>
<path d="M12.1571 36.071C12.6004 36.3853 14.8653 37.5935 15.2609 37.8371C15.6565 38.0807 15.8543 38.9333 15.976 39.9229C16.0977 40.9125 16.0233 42.0801 15.6108 42.2371C14.5306 42.6482 11.7606 39.643 11.4039 39.2378C10.9551 38.7278 10.8638 37.3727 10.8334 36.7257C10.7931 35.8692 11.4267 35.5534 12.1571 36.071Z" fill="#28839F" fill-opacity="0.2"/>
<path d="M12.1114 40.4556C12.8721 41.2929 14.6751 42.4729 15.1087 42.8459C15.5423 43.2189 15.5727 44.6805 15.5651 45.358C15.5575 46.0355 14.8805 46.5607 14.424 46.4389C13.9676 46.3171 11.6473 44.0867 11.3354 43.6985C11.0235 43.3102 10.9474 41.3005 11.0768 40.6687C11.2061 40.0369 11.5901 39.8818 12.1114 40.4556Z" fill="#28839F" fill-opacity="0.2"/>
<path d="M11.645 44.4186C12.3103 45.174 13.8258 46.4993 14.4446 47.0575C15.0633 47.6158 15.8443 49.8995 16.0878 50.9957C16.3312 52.0919 16.2704 53.5129 15.9458 54.6497C15.6212 55.7865 16.0269 56.3549 15.824 57.2886C15.6212 58.2224 14.5257 58.872 14.0794 58.1818C13.6331 57.4916 11.9087 55.3399 10.8336 54.7309C9.75837 54.1219 10.0221 52.7618 10.3061 51.7265C10.5901 50.6912 9.90038 49.3514 10.1032 47.3417C10.3061 45.3321 10.5445 44.3907 10.6966 44.0481C10.8488 43.7055 11.1936 43.906 11.645 44.4186Z" fill="#28839F" fill-opacity="0.2"/>
<path d="M8.20225 18.6131C8.34443 21.2316 8.04028 25.8048 8.11505 26.7588C8.1962 27.794 9.04822 31.6104 9.45396 32.9705C9.85969 34.3306 9.89012 35.5841 10.164 35.5993C10.4379 35.6145 11.0566 32.463 11.1175 31.4277C11.1783 30.3924 10.1031 25.825 9.90026 24.201C9.69739 22.577 8.8479 19.2783 8.59686 18.6084C8.25141 17.6866 8.12056 17.1085 8.20225 18.6131Z" fill="#28839F"/>
<path d="M22.9679 -2.03788C23.2482 -1.15455 23.599 -0.104322 23.7055 0.976644C23.812 2.05761 24.2228 0.215396 24.2837 -0.530613C24.3446 -1.27664 24.2076 -1.48978 23.8272 -1.79427C23.4469 -2.09878 22.7848 -2.61474 22.9679 -2.03788Z" fill="#28839F" fill-opacity="0.2"/>
<path d="M47.1671 20.6746C47.1962 20.6914 47.2328 20.6745 47.2385 20.6414C47.6515 18.2756 50.7075 15.2191 48.688 11.087C46.6493 6.91536 41.7805 5.51468 40.472 5.72782C39.2314 5.9299 35.9668 8.07527 34.4383 8.53102C34.3887 8.54583 34.395 8.61972 34.4466 8.62501C36.6345 8.84891 38.4704 8.91489 40.6411 10.4424C42.8973 12.0302 42.4428 14.0406 42.9296 15.5935C43.4126 17.134 44.6789 19.2439 47.1671 20.6746Z" fill="#28839F" fill-opacity="0.2"/>
<path d="M49.6016 12.5479C49.9211 14.3748 49.5261 15.995 48.8104 17.8157C48.1934 19.3853 47.5932 20.3278 47.6237 21.0738C48.2627 21.6523 49.982 23.7838 50.3623 24.271C50.1341 22.9464 50.3928 20.952 50.5754 18.7596C50.7579 16.5672 50.5601 14.4966 49.6016 12.5479Z" fill="#28839F" fill-opacity="0.2"/>
<path d="M42.8835 16.6895C43.5327 19.1051 46.2739 20.2724 48.5054 27.6716C49.1426 29.7846 49.9306 36.4714 49.9052 39.0801C49.8957 40.0548 49.1241 38.8162 49.1241 38.8162C49.1241 38.8162 43.5961 30.879 42.9063 26.9002C42.2166 22.9215 42.8835 16.6895 42.8835 16.6895Z" fill="#28839F" fill-opacity="0.2"/>
<path d="M45.3003 20.0186C45.9945 20.8274 48.3838 25.2153 49.0315 27.845C49.5974 30.1427 50.5051 35.5005 50.571 39.919C50.5726 40.0275 50.7233 40.0533 50.7623 39.952C53.1996 33.623 51.7202 27.1695 50.7878 25.6264C49.9978 24.3189 48.1911 21.5004 45.3003 20.0186Z" fill="#28839F" fill-opacity="0.2"/>
<path d="M48.303 38.6336C48.6643 39.2866 47.0858 40.7753 46.4772 43.5868C46.3732 44.0671 45.2194 42.2368 45.3411 39.6486C45.4628 37.0604 42.9828 30.9096 42.785 29.2653C42.5872 27.621 42.6633 27.4688 42.6633 27.4688C45.0004 33.3802 46.2134 34.8579 48.303 38.6336Z" fill="#28839F" fill-opacity="0.2"/>
<path d="M52.1982 35.7111C51.8062 37.7843 51.2244 40.8266 51.7113 42.8566C52.1982 44.8866 56.2961 59.6242 56.9047 61.4918C57.5133 63.3594 57.3915 61.4309 57.1887 59.7054C56.9858 57.9799 57.1481 48.5405 56.7424 45.3738C56.3366 42.207 54.9977 38.2891 53.8211 36.8884C52.6445 35.4877 52.3402 34.96 52.1982 35.7111Z" fill="#28839F" fill-opacity="0.2"/>
<path d="M49.1653 39.7908C50.983 41.155 51.3359 43.0895 51.7619 44.5816C52.188 46.0736 55.733 59.0299 56.0525 60.3849C56.3721 61.74 56.4786 63.3538 55.9917 62.7296C55.5048 62.1054 51.0468 49.0881 49.6927 46.2563C48.3386 43.4245 47.6631 42.5127 47.9177 41.3539C48.1205 40.4302 48.4958 39.2884 49.1653 39.7908Z" fill="#28839F" fill-opacity="0.2"/>
<path d="M47.8563 43.5052C48.6519 44.8485 53.07 56.6594 53.8206 59.5826C54.5712 62.5058 54.5915 63.6832 54.1046 63.399C53.6177 63.1148 48.1809 50.7319 47.3289 48.2553C46.4769 45.7788 46.6696 44.7638 46.9536 43.83C47.2376 42.8962 47.5318 42.9571 47.8563 43.5052Z" fill="#28839F" fill-opacity="0.2"/>
<path d="M28.8075 8.89431C30.6238 8.43484 34.4107 8.83797 36.0295 9.05671C38.8088 9.43226 40.897 10.6414 41.6286 11.9799C42.2778 13.1674 42.7437 15.9552 42.2372 16.527C40.6549 18.3134 41.3649 23.429 35.7861 26.0273C33.919 26.897 27.9352 26.342 27.0223 25.2762C26.1094 24.2105 25.7443 19.0036 26.0486 16.0195C26.3529 13.0355 27.002 9.35106 28.8075 8.89431Z" fill="#28839F"/>
<path d="M32.4593 2.50011C33.31 3.27567 34.8633 4.25604 36.1515 4.79399C37.4397 5.33193 38.6772 5.60599 38.7482 5.82928C38.8192 6.05258 37.4093 6.50932 36.4355 6.86457C35.4617 7.21982 34.1938 7.48371 33.7577 7.25027C33.3215 7.01682 32.5912 4.7737 32.3782 4.1038C32.1652 3.43391 31.9218 2.64221 31.8305 2.27682C31.7392 1.91142 32.0029 2.08397 32.4593 2.50011Z" fill="#28839F" fill-opacity="0.2"/>
<path d="M31.4957 1.86054C31.7954 2.67031 32.3781 5.13387 32.7433 6.21484C33.1084 7.2958 33.2302 7.69165 32.7737 7.88958C32.3173 8.0875 31.3283 7.49372 31.1914 7.06743C31.0544 6.64114 31.0544 1.93666 31.0696 1.58648C31.0849 1.23631 31.3435 1.44946 31.4957 1.86054Z" fill="#28839F" fill-opacity="0.2"/>
<path d="M30.7803 2.53013C30.7905 3.30152 30.8716 5.6969 30.613 6.24499C30.3543 6.79309 29.198 7.50865 28.8176 7.73702C28.4372 7.96541 27.95 8.10997 27.9351 7.73702C27.925 7.48328 28.9259 6.06525 29.5631 4.45353C30.1109 3.06807 30.4868 1.86641 30.4912 1.86024C30.689 1.58618 30.7739 2.03872 30.7803 2.53013Z" fill="#28839F" fill-opacity="0.2"/>
<path d="M30.7627 0.159973C30.6362 0.839459 29.7505 3.33428 29.092 4.76041C28.7915 5.41128 27.8291 7.39085 27.4763 7.28521C27.1542 7.18878 28.4465 2.97945 28.8583 1.51498C29.783 -1.77359 29.996 -3.98118 30.4584 -3.76803C30.826 -3.59856 30.8109 -0.0988464 30.7627 0.159973Z" fill="#28839F" fill-opacity="0.2"/>
<path d="M26.5964 26.3418C26.0401 27.3439 25.577 29.1889 25.5618 30.3307C25.5466 31.4726 26.0943 31.6248 26.8095 31.975C27.5245 32.3252 30.8566 34.0557 31.7695 34.8373C32.6976 35.6318 33.2301 36.1314 33.4127 34.5632C33.5953 32.9951 33.8235 31.2747 33.5344 29.5999C33.2453 27.9252 32.9563 27.2705 32.1955 27.0422C31.4348 26.8138 30.4838 26.8671 29.3047 26.6311C28.1427 26.3985 26.8247 25.9307 26.5964 26.3418Z" fill="#28839F" fill-opacity="0.2"/>
<path d="M26.733 32.5919C30.9703 34.1829 32.8555 36.6776 33.25 37.4156C33.7166 38.2885 33.475 40.3947 33.3413 40.76C33.2094 41.1203 32.2034 41.1591 31.3126 40.9681C30.0346 40.6941 27.7219 40.3997 26.9003 40.2982C26.0787 40.1967 25.5817 39.202 25.5411 38.2682C25.5006 37.3344 25.4701 34.391 25.5411 33.8023C25.6121 33.2136 25.9673 32.3044 26.733 32.5919Z" fill="#28839F" fill-opacity="0.2"/>
<path d="M26.6975 40.9285C27.9075 40.7969 31.7184 41.5984 32.398 41.9232C33.0776 42.248 33.6152 42.8976 33.6355 43.7502C33.6558 44.6028 33.4123 46.2471 33.1892 46.7343C32.966 47.2215 32.2154 47.668 31.1605 47.7087C30.1056 47.7492 27.9147 47.9117 26.9409 47.7696C25.9672 47.6274 25.7339 46.6734 25.6629 45.5975C25.5919 44.5216 25.5411 43.0904 25.6426 42.1262C25.744 41.162 26.2309 40.9793 26.6975 40.9285Z" fill="#28839F" fill-opacity="0.2"/>
<path d="M35.2585 26.5951C36.123 26.4408 38.5123 25.0409 39.3969 24.4027C40.774 23.4092 40.4004 28.0685 37.5711 28.016C36.4757 27.9957 35.6034 27.4299 35.1773 27.2091C34.7513 26.9884 34.8604 26.6661 35.2585 26.5951Z" fill="#28839F" fill-opacity="0.2"/>
<path d="M39.5784 28.2951C39.4909 29.0563 39.2978 29.6085 38.9254 30.2832C38.4968 31.0597 35.8596 29.2124 35.6834 28.7785C35.4997 28.326 36.0927 27.9563 36.6839 28.1276C37.491 28.3614 38.5171 28.219 39.061 27.8041C39.6113 27.3844 39.6218 27.917 39.5784 28.2951Z" fill="#28839F" fill-opacity="0.2"/>
<path d="M35.5429 29.164C35.988 29.5497 36.8615 30.1333 37.7338 30.5393C38.5415 30.9152 38.4895 31.2853 38.2714 31.5695C38.0533 31.8537 36.6891 32.6149 36.192 32.8382C35.695 33.0615 34.8734 32.8788 34.7162 32.4018C34.4503 31.595 34.6217 28.3655 35.5429 29.164Z" fill="#28839F" fill-opacity="0.2"/>
<path d="M39.2954 34.5742C39.1128 35.1324 37.9058 35.9546 37.1754 36.4215C36.4451 36.8884 35.4359 37.4314 35.0961 37.1624C34.7563 36.8934 34.7461 34.3255 34.9946 33.7622C35.2432 33.1989 35.796 33.2953 36.4553 33.0821C37.1517 32.857 37.3311 32.4808 38.0985 32.4173C38.7122 32.3666 39.5492 33.7981 39.2954 34.5742Z" fill="#28839F" fill-opacity="0.2"/>
<path d="M38.2352 36.071C37.7918 36.3853 35.527 37.5935 35.1314 37.8371C34.7358 38.0807 34.538 38.9333 34.4163 39.9229C34.2946 40.9125 34.369 42.0801 34.7814 42.2371C35.8617 42.6482 38.6317 39.643 38.9883 39.2378C39.4372 38.7278 39.5285 37.3727 39.5589 36.7257C39.5992 35.8692 38.9655 35.5534 38.2352 36.071Z" fill="#28839F" fill-opacity="0.2"/>
<path d="M38.2814 40.4556C37.5206 41.2929 35.7177 42.4729 35.284 42.8459C34.8504 43.2189 34.82 44.6805 34.8276 45.358C34.8352 46.0355 35.5123 46.5607 35.9687 46.4389C36.4251 46.3171 38.7454 44.0867 39.0573 43.6985C39.3692 43.3102 39.4453 41.3005 39.316 40.6687C39.1866 40.0369 38.8026 39.8818 38.2814 40.4556Z" fill="#28839F" fill-opacity="0.2"/>
<path d="M38.7478 44.4186C38.0825 45.174 36.567 46.4993 35.9482 47.0575C35.3295 47.6158 34.5485 49.8995 34.305 50.9957C34.0616 52.0919 34.1224 53.5129 34.447 54.6497C34.7716 55.7865 34.3659 56.3549 34.5687 57.2886C34.7716 58.2224 35.8671 58.872 36.3134 58.1818C36.7597 57.4916 38.484 55.3399 39.5592 54.7309C40.6344 54.1219 40.3707 52.7618 40.0867 51.7265C39.8027 50.6912 40.4924 49.3514 40.2895 47.3417C40.0867 45.3321 39.8483 44.3907 39.6962 44.0481C39.544 43.7055 39.1991 43.906 38.7478 44.4186Z" fill="#28839F" fill-opacity="0.2"/>
<path d="M42.1906 18.6131C42.0485 21.2316 42.3526 25.8048 42.2779 26.7588C42.1967 27.794 41.3447 31.6104 40.9389 32.9705C40.5332 34.3306 40.5028 35.5841 40.2289 35.5993C39.955 35.6145 39.3363 32.463 39.2754 31.4277C39.2146 30.3924 40.2898 25.825 40.4926 24.201C40.6955 22.577 41.545 19.2783 41.796 18.6084C42.1415 17.6866 42.2723 17.1085 42.1906 18.6131Z" fill="#28839F"/>
<path d="M27.4254 -2.03788C27.1451 -1.15455 26.7943 -0.104322 26.6878 0.976644C26.5812 2.05761 26.1704 0.215396 26.1096 -0.530613C26.0487 -1.27664 26.1857 -1.48978 26.566 -1.79427C26.9464 -2.09878 27.6085 -2.61474 27.4254 -2.03788Z" fill="#28839F" fill-opacity="0.2"/>
</g>
<defs>
<clipPath id="clip0_4048_1441">
<rect width="61" height="48" fill="white"/>
</clipPath>
</defs>
</svg>
