<svg width="61" height="48" viewBox="0 0 61 48" fill="none" xmlns="http://www.w3.org/2000/svg">
<g clip-path="url(#clip0_4048_1720)">
<path d="M37.808 139.241C37.6244 139.241 37.4761 139.133 37.3327 139.03C37.2137 138.944 37.1014 138.862 36.9936 138.862C36.9749 138.862 36.9568 138.865 36.9381 138.869C36.8153 138.901 36.7477 138.954 36.6695 139.015C36.5589 139.102 36.4335 139.2 36.1792 139.2C36.1624 139.2 36.1449 139.199 36.1267 139.198C35.8895 139.187 35.7413 139.087 35.6105 138.998C35.49 138.917 35.3949 138.853 35.2359 138.853C35.2264 138.853 35.2166 138.853 35.2066 138.853C35.0397 138.861 34.9434 138.918 34.8215 138.989C34.6689 139.079 34.496 139.18 34.1731 139.198C34.1507 139.2 34.1286 139.2 34.1068 139.2C33.8053 139.2 33.5461 139.085 33.3174 138.983C33.1252 138.898 32.9437 138.817 32.7627 138.813L32.7478 138.813C32.5631 138.813 32.336 138.888 32.0956 138.967C31.7967 139.066 31.458 139.178 31.1065 139.178L31.0798 139.178C30.2324 139.165 29.7509 138.728 29.6486 137.881C29.5943 137.432 29.7434 136.945 29.8876 136.475C30.0544 135.931 30.2268 135.369 30.0979 134.853C29.8256 133.763 29.6691 132.36 29.7085 131.363C29.7356 130.679 29.523 129.757 29.3355 128.944C29.2452 128.552 29.1599 128.183 29.1019 127.85C28.9806 127.156 29.4886 125.938 29.9368 124.863C30.1822 124.275 30.414 123.719 30.4607 123.421C30.5617 122.775 30.4463 119.256 30.3843 117.364L30.3752 117.087C30.3236 116.717 30.2718 116.323 30.2206 115.933C30.0812 114.871 29.9495 113.868 29.8348 113.439L29.7487 113.118C29.4431 111.982 28.9838 110.275 28.9829 109.678C28.8771 109.402 28.7228 108.993 28.5649 108.528C28.1839 108.059 27.9068 107.027 27.7414 105.46C27.4799 102.984 27.7685 99.5067 28.068 98.0496C28.2187 97.3166 28.4544 96.4292 28.6624 95.6463C28.861 94.8987 29.0486 94.1927 29.1221 93.7704C29.1979 93.336 29.2148 93.0903 29.225 92.9435C29.2316 92.8479 29.236 92.7843 29.2548 92.7336C29.2295 92.5986 29.2022 92.4458 29.173 92.2816C29.0293 91.4761 28.8327 90.3728 28.5767 89.8023C28.2395 89.0508 27.7967 86.8111 27.6077 85.8546L27.6012 85.8222C27.541 85.5174 27.4858 85.0066 27.4371 84.304C27.3449 83.5479 27.3165 82.6385 27.2977 82.0368L27.2944 81.9329C27.2853 81.6472 27.2854 81.0758 27.3458 80.8629C27.3379 80.6833 27.3077 80.5179 27.2224 80.1806C27.1335 79.8289 27.0739 79.4488 27.0049 79.0087C26.9713 78.7947 26.9355 78.5662 26.8929 78.32C26.8489 78.1636 26.8203 78.0078 26.8085 77.8565C26.7286 77.4462 26.6689 77.2524 26.6163 77.0812C26.5541 76.879 26.5 76.7029 26.4336 76.2626C26.3463 76.1421 26.2935 75.6902 26.1415 73.9965C26.0812 73.3247 26.0188 72.63 25.9564 72.1096C25.923 71.8313 25.9031 71.4741 25.8973 71.0477C25.8382 70.9257 25.759 70.8016 25.6754 70.6707C25.5817 70.5238 25.485 70.3723 25.397 70.1966C25.0435 69.8658 24.69 68.0393 24.6326 67.5415C24.5032 66.4192 23.6819 61.4697 23.2073 59.8917C22.6655 58.0905 23.0365 54.4604 23.0806 54.0524C23.0955 53.9138 23.1093 53.7766 23.1228 53.6418C23.1805 53.0654 23.2351 52.5197 23.3665 52.1003C23.2286 51.8427 22.5884 51.7272 22.2776 51.7272H22.1153C21.8069 51.7272 21.1741 51.841 21.0271 52.1024C21.1581 52.5218 21.2127 53.0671 21.2703 53.6429C21.2837 53.7774 21.2975 53.9142 21.3124 54.0525C21.3565 54.4605 21.7275 58.0908 21.1856 59.8917C20.7111 61.4697 19.8897 66.4192 19.7603 67.5415C19.7029 68.0393 19.3494 69.8658 18.9961 70.1966C18.908 70.3723 18.8113 70.5237 18.7177 70.6704C18.6341 70.8014 18.5548 70.9256 18.4957 71.0477C18.4899 71.4736 18.47 71.8307 18.4366 72.1096C18.3742 72.6301 18.3118 73.325 18.2515 73.997C18.0995 75.6904 18.0467 76.1422 17.9594 76.2627C17.893 76.7029 17.8388 76.879 17.7766 77.0812C17.7241 77.2523 17.6645 77.4461 17.5845 77.8565C17.5727 78.0076 17.5441 78.1637 17.497 78.3332C17.4575 78.5659 17.4218 78.7941 17.3882 79.008C17.3192 79.4484 17.2596 79.8287 17.1706 80.1807C17.0995 80.4617 17.068 80.6185 17.0542 80.7623C17.088 80.9083 17.0922 81.2025 17.0964 81.6885L17.0987 81.9271C17.1056 82.5692 17.0694 83.6191 16.944 84.4651C16.8989 85.0812 16.8473 85.5412 16.7917 85.8221L16.7859 85.8513C16.5968 86.8084 16.1539 89.0499 15.8162 89.8024C15.5602 90.3729 15.3635 91.4765 15.2199 92.2823C15.1907 92.4462 15.1635 92.5989 15.1383 92.7336C15.157 92.7842 15.1614 92.8479 15.168 92.9435C15.1781 93.0902 15.1951 93.3359 15.2709 93.7704C15.3445 94.1928 15.5321 94.8993 15.7308 95.6472C15.9387 96.4299 16.1744 97.3169 16.325 98.0496C16.6245 99.5069 16.9131 102.984 16.6516 105.46C16.5312 106.6 16.2819 108.071 15.7763 108.651C15.6173 109.126 15.4822 109.489 15.4101 109.678C15.4092 110.276 14.9495 111.984 14.6436 113.12L14.5582 113.439C14.4436 113.868 14.312 114.87 14.1727 115.931C14.1214 116.322 14.0695 116.717 14.0178 117.087L14.0086 117.369C13.9466 119.259 13.8314 122.776 13.9323 123.421C13.979 123.719 14.2108 124.275 14.4561 124.863C14.9044 125.937 15.4124 127.156 15.2911 127.85C15.233 128.183 15.1478 128.552 15.0575 128.944C14.87 129.757 14.6574 130.679 14.6844 131.363C14.724 132.36 14.5675 133.763 14.2951 134.853C14.1661 135.369 14.3386 135.931 14.5054 136.475C14.6496 136.945 14.7987 137.432 14.7444 137.881C14.6421 138.728 14.1605 139.165 13.3132 139.178L13.2865 139.178C12.9349 139.178 12.5962 139.066 12.2974 138.967C12.0569 138.888 11.8299 138.813 11.6451 138.813L11.6303 138.813C11.4493 138.817 11.2678 138.898 11.0756 138.983C10.8469 139.085 10.5877 139.2 10.2862 139.2C10.2643 139.2 10.2422 139.2 10.2199 139.198C9.89692 139.18 9.72408 139.079 9.57151 138.989C9.44957 138.918 9.35329 138.861 9.18636 138.853C9.17633 138.853 9.16663 138.853 9.15706 138.853C8.99811 138.853 8.90296 138.917 8.78249 138.998C8.65173 139.087 8.50347 139.187 8.26631 139.198C8.2481 139.199 8.23063 139.2 8.21387 139.2C7.95951 139.2 7.83412 139.102 7.72348 139.015C7.6452 138.954 7.57762 138.901 7.45482 138.869C7.43615 138.865 7.41801 138.862 7.39934 138.862C7.29156 138.862 7.17926 138.944 7.06032 139.03C6.91692 139.133 6.7686 139.241 6.585 139.241C6.57105 139.241 6.55695 139.24 6.54287 139.239C6.31103 139.217 6.19068 139.12 6.08449 139.034C6.01951 138.981 5.96343 138.936 5.88056 138.906C5.87012 138.903 5.85857 138.901 5.84541 138.901C5.77112 138.901 5.66168 138.957 5.54585 139.018C5.37316 139.107 5.15812 139.219 4.91232 139.219C4.38438 139.219 4.11413 138.956 3.9484 138.283C3.78195 137.606 3.92828 136.508 4.46127 135.841C4.59888 135.669 4.8179 135.406 5.07154 135.102C5.71969 134.326 6.60745 133.262 6.98988 132.684C7.5234 131.878 7.7397 130.436 7.42652 129.773C7.0263 128.924 6.9423 128.132 7.17686 127.419L7.256 127.18C7.47521 126.52 7.70195 125.838 7.79989 125.009C7.88043 124.327 7.84422 122.675 7.77631 121.422C7.71258 121.141 7.66082 120.844 7.62254 120.541C7.40386 118.809 6.40823 111.308 5.8902 108.982C5.40306 106.796 4.63151 102.788 4.50266 100.709C4.38891 98.8745 4.51935 97.6794 4.59729 96.9653L4.61476 96.8041C4.64154 96.5523 4.71364 96.0655 4.76307 95.8386C4.85995 95.3436 4.99578 94.8844 5.11558 94.4792C5.18568 94.2419 5.252 94.0176 5.3027 93.8125C5.33453 93.5636 5.41355 92.9963 5.49681 92.7995L5.50817 92.7416C5.59316 92.3099 5.68937 91.821 5.73862 91.3669C5.73696 91.0803 5.74407 90.8113 5.76022 90.5454C5.67523 89.6107 5.64015 86.0807 5.75031 84.467C5.82235 83.4118 6.10595 81.8521 6.33381 80.5987C6.45542 79.9297 6.56046 79.3519 6.59276 79.0615C6.63217 78.7062 6.61163 78.2035 6.53189 77.5669L6.53076 77.5641C5.55854 75.1696 4.57208 72.6621 4.13026 70.6406C3.90838 69.6258 3.86573 67.8474 3.82446 66.1276C3.78619 64.5334 3.74664 62.8849 3.56164 61.9496C3.18799 60.0608 3.13523 56.7931 3.18966 55.1771C3.17018 54.8139 3.227 54.0759 3.25969 53.752C3.23956 53.6892 3.24606 53.6104 3.25583 53.5326C3.28135 53.328 3.30627 52.877 3.33783 52.306C3.41863 50.845 3.54063 48.6371 3.8366 47.3975C4.23476 45.7301 4.98956 41.294 4.95879 39.8805C4.92763 38.4441 5.6613 35.3711 6.20293 33.7049C6.31484 33.2321 6.51385 32.4929 6.68948 31.8408C6.78463 31.4872 6.87162 31.1642 6.93155 30.9323C6.96797 30.4865 7.0806 30.0356 7.17489 29.6916C7.30387 29.2214 7.21543 28.6558 7.11302 28.0008C7.00072 27.2826 6.86092 26.3887 6.96783 25.3292C7.14518 23.5721 7.34127 22.6917 7.4745 22.2626C7.51837 22.1049 7.57398 21.9428 7.63292 21.7712C7.76489 21.3867 7.90132 20.9892 7.9275 20.5621C7.86425 19.8941 7.86543 19.1232 7.93015 18.7173C7.935 17.8476 7.92969 16.8705 7.85506 16.2009C7.82881 16.0705 7.80382 15.9149 7.78236 15.7498C7.65059 15.1448 7.38705 14.528 7.19462 14.0776C7.13137 13.9297 7.07575 13.7995 7.03143 13.6862C6.86563 13.5659 6.80065 13.2181 6.68369 12.5926C6.5997 12.1435 6.49517 11.5846 6.32374 11.0097C5.9879 9.88403 5.3139 6.94883 5.06452 5.41083C5.02964 5.3996 4.99634 5.39361 4.96718 5.39361C4.93807 5.39361 4.92465 5.39965 4.92126 5.40152C4.90644 5.4095 4.88703 5.42506 4.8681 5.46815C4.91469 5.75028 4.81249 6.70559 4.74311 7.28229C4.66868 7.90107 4.28141 9.13286 3.83308 10.5592C3.06639 12.998 2.11217 16.0332 2.18785 17.6429C2.28918 19.7977 1.54136 21.4119 1.1499 21.732C1.07435 22.118 1.01202 22.5306 0.951622 22.9302C0.890818 23.3328 0.827888 23.7492 0.75074 24.1452C0.662432 24.7594 0.47942 25.4667 0.192492 26.3007C-0.0959625 27.1393 -0.94585 29.209 -2.08121 31.8379C-2.23178 32.3254 -2.39903 32.8601 -2.57594 33.4256C-3.7166 37.072 -5.27876 42.066 -5.31804 43.839C-5.32927 44.3472 -5.04466 45.1247 -4.5746 46.3448C-4.05304 47.6987 -4.14328 50.3576 -5.33791 52.6184C-5.84612 53.5803 -6.29618 55.0508 -6.73148 56.4729C-7.15423 57.8543 -7.55366 59.1591 -7.94805 59.7459C-8.18288 60.0953 -8.42595 60.2725 -8.67049 60.2725C-8.92054 60.2725 -9.10859 60.091 -9.23577 59.9047C-9.43353 60.9165 -9.89183 62.7305 -10.6535 62.8691C-10.7081 62.8791 -10.7618 62.8841 -10.8131 62.8841C-11.1883 62.8841 -11.4615 62.6246 -11.5989 62.1552C-11.8362 62.9643 -12.2707 64.049 -12.8954 64.049L-12.9156 64.0487C-13.7948 64.0165 -13.8207 62.8615 -13.7807 61.56C-13.8504 61.5989 -13.9292 61.619 -14.0153 61.619C-14.5911 61.619 -15.2832 60.7539 -15.4125 59.8723C-15.7323 57.6905 -15.5204 55.0768 -15.3657 53.1683C-15.2896 52.2305 -15.2112 51.2636 -15.2757 50.9902C-15.3943 51.0998 -15.5454 51.2957 -15.7182 51.5195C-16.0427 51.9398 -16.4464 52.4629 -16.92 52.7888C-17.3043 53.0533 -17.7623 53.1931 -18.2445 53.1931C-19.0014 53.1931 -19.6675 52.8512 -19.8284 52.3801C-19.8892 52.2021 -19.924 51.8515 -19.4742 51.5032C-18.3021 50.5955 -16.0555 47.3164 -15.2569 45.348C-14.7244 44.0353 -13.7435 43.6003 -12.9553 43.2506C-12.4848 43.0419 -12.0784 42.8617 -11.8782 42.5452C-11.4153 41.8137 -10.7142 38.251 -9.79436 31.9564C-9.75735 28.5402 -9.70279 25.0635 -9.48411 23.3566C-9.071 20.132 -7.71915 16.214 -6.53209 14.8009C-6.36225 14.5988 -6.21067 14.415 -6.07525 14.2507C-5.66413 13.7522 -5.40995 13.444 -5.21806 13.3133C-5.04774 13.0851 -4.90229 12.6571 -4.78547 12.0405C-5.05073 8.08239 -4.20092 4.69776 -3.51157 3.55674L-3.47483 3.49636C-3.39516 3.22308 -3.28404 2.87519 -3.16657 2.50735L-3.12531 2.37782L-3.10312 2.24908C-2.91924 1.1818 -3.056 -0.32021 -3.21435 -2.05941C-3.24904 -2.44054 -3.28459 -2.83099 -3.31769 -3.22789C-3.52548 -5.72264 -3.21177 -7.71917 -2.33044 -9.51102C-2.07947 -10.1206 -1.60648 -10.9076 -1.15495 -11.4649C0.845907 -14.9725 4.898 -16.4286 6.62483 -16.4286C6.73739 -16.4286 6.83913 -16.4218 6.92758 -16.4084C6.96957 -16.4106 7.01383 -16.4115 7.06028 -16.4115C7.24268 -16.4115 7.45983 -16.3963 7.68975 -16.3803C7.96924 -16.3608 8.28595 -16.3387 8.60948 -16.3386C8.75899 -16.4639 9.08951 -16.5793 9.69121 -16.7825C10.1205 -16.9275 10.6549 -17.108 11.1892 -17.3312C12.434 -17.8509 13.9703 -18.8051 14.8422 -19.6C15.1112 -19.8453 15.2788 -19.9748 15.3978 -20.0277C15.4804 -20.1427 15.5682 -20.2573 15.659 -20.3758C16.0005 -20.8212 16.387 -21.3251 16.4924 -21.8429C16.4584 -22.1425 16.4465 -23.7888 16.5587 -24.8709C16.5461 -25.0441 16.5332 -25.1313 16.5247 -25.1742C16.5087 -25.2544 16.4954 -25.3358 16.4818 -25.4197C16.4192 -25.8038 16.3484 -26.239 15.9365 -26.8532C15.585 -27.3775 15.4875 -28.5959 15.4677 -29.5256C15.464 -29.7054 15.3175 -29.8516 15.1413 -29.8516C15.1183 -29.8516 15.0951 -29.8491 15.0722 -29.8441C14.9674 -29.8212 14.8577 -29.8091 14.7549 -29.8091C14.478 -29.8091 14.2492 -29.8932 14.0933 -30.0523C13.9324 -30.2163 13.8538 -30.4521 13.8595 -30.7531C13.8795 -31.805 13.6657 -32.4152 13.477 -32.9537C13.3819 -33.2252 13.2921 -33.4817 13.238 -33.7703C13.1419 -34.2832 13.0834 -34.9728 13.3503 -35.3455C13.4553 -35.4921 13.5993 -35.5794 13.7785 -35.605C13.8223 -35.6113 13.8675 -35.6144 13.9127 -35.6144C14.0613 -35.6144 14.2166 -35.5805 14.3744 -35.5135C14.396 -35.5044 14.4183 -35.4997 14.4405 -35.4997C14.4885 -35.4997 14.536 -35.5213 14.5708 -35.5588C14.6065 -35.5972 14.624 -35.6472 14.62 -35.6995C14.5044 -37.2383 14.3988 -41.0272 15.9118 -42.9685C17.7107 -45.2766 20.4774 -45.7442 21.5836 -45.8381C21.7266 -45.8502 21.8991 -45.8633 22.1375 -45.8633C22.3163 -45.8633 22.5101 -45.8556 22.7137 -45.8404C23.8401 -45.7567 26.6567 -45.3092 28.481 -42.9685C29.9939 -41.0272 29.8883 -37.2383 29.7727 -35.6994C29.7688 -35.6472 29.7862 -35.5972 29.8219 -35.5587C29.8567 -35.5212 29.9042 -35.4997 29.9522 -35.4997C29.9746 -35.4997 29.9968 -35.5044 30.0184 -35.5135C30.1762 -35.5805 30.3315 -35.6144 30.48 -35.6144C30.5252 -35.6144 30.5704 -35.6113 30.6143 -35.605C30.7934 -35.5794 30.9374 -35.4921 31.0424 -35.3455C31.3093 -34.9728 31.2508 -34.2832 31.1548 -33.7703C31.1007 -33.4817 31.0108 -33.2253 30.9157 -32.9538C30.7271 -32.4153 30.5133 -31.805 30.5333 -30.7531C30.539 -30.4521 30.4604 -30.2162 30.2995 -30.0522C30.1435 -29.8932 29.9147 -29.8091 29.6379 -29.8091C29.535 -29.8091 29.4253 -29.8212 29.3205 -29.8441C29.2976 -29.8491 29.2744 -29.8516 29.2514 -29.8516C29.0753 -29.8516 28.9288 -29.7054 28.925 -29.5256C28.9052 -28.5959 28.8078 -27.3775 28.4563 -26.8531C28.0445 -26.2391 27.9736 -25.8038 27.911 -25.4198C27.8974 -25.3359 27.8841 -25.2544 27.868 -25.1743C27.8594 -25.1309 27.8466 -25.0433 27.8341 -24.871C27.9463 -23.7885 27.9344 -22.1424 27.9004 -21.8429C28.0057 -21.3251 28.3922 -20.8212 28.7337 -20.3758C28.8259 -20.2556 28.915 -20.1393 28.9952 -20.0276C29.1142 -19.9746 29.2817 -19.8452 29.5506 -19.6C30.4224 -18.8052 31.9586 -17.851 33.2035 -17.3312C33.7378 -17.108 34.2722 -16.9275 34.7016 -16.7825C35.3033 -16.5793 35.6338 -16.4639 35.7833 -16.3386C36.1068 -16.3387 36.4235 -16.3608 36.703 -16.3803C36.9329 -16.3963 37.1501 -16.4115 37.3325 -16.4115C37.3789 -16.4115 37.4231 -16.4106 37.4651 -16.4084C37.5536 -16.4218 37.6553 -16.4286 37.7679 -16.4286C39.4947 -16.4286 43.5468 -14.9725 45.5477 -11.4649C45.9993 -10.9074 46.4723 -10.1204 46.7269 -9.50286C47.6045 -7.71931 47.9182 -5.72279 47.7104 -3.22791C47.6773 -2.83061 47.6418 -2.4399 47.607 -2.05843C47.4487 -0.319626 47.312 1.18198 47.4959 2.24906L47.5253 2.41974L47.5274 2.42632C47.6457 2.80639 47.7576 3.16579 47.8365 3.44507L47.9043 3.55677C48.6012 4.71023 49.4546 8.12624 49.1739 12.1142C49.287 12.6961 49.431 13.0974 49.6024 13.3079C49.7958 13.4356 50.053 13.7475 50.4698 14.253C50.6048 14.4166 50.7558 14.5996 50.9248 14.8009C52.1119 16.2139 53.4637 20.1319 53.8768 23.3565C54.0955 25.0635 54.1501 28.5401 54.1871 31.9563C55.1069 38.251 55.808 41.8137 56.271 42.5452C56.4712 42.8617 56.8776 43.0419 57.348 43.2506C58.1363 43.6002 59.1171 44.0353 59.6497 45.3479C60.4483 47.3164 62.6949 50.5954 63.867 51.5032C64.3168 51.8515 64.282 52.2021 64.2212 52.3801C64.0603 52.8512 63.3942 53.193 62.6373 53.193C62.1551 53.193 61.697 53.0533 61.3128 52.7888C60.8393 52.4629 60.4355 51.9398 60.1111 51.5197C59.9384 51.2958 59.7871 51.0999 59.6685 50.9902C59.6041 51.2637 59.6825 52.2303 59.7585 53.1678C59.9132 55.0764 60.1251 57.6904 59.8053 59.8722C59.6761 60.7538 58.984 61.6189 58.4081 61.6189C58.3221 61.6189 58.2432 61.5988 58.1736 61.56C58.2135 62.8614 58.1875 64.0164 57.3083 64.0486L57.2881 64.0489C56.6635 64.0489 56.2289 62.9642 55.9917 62.1552C55.8543 62.6245 55.5811 62.884 55.206 62.884C55.1546 62.884 55.1009 62.879 55.0464 62.8691C54.2843 62.7304 53.8262 60.9164 53.6285 59.9046C53.5014 60.0909 53.3134 60.2725 53.0633 60.2725C52.8188 60.2725 52.5756 60.0953 52.3408 59.7458C51.9464 59.159 51.547 57.8542 51.1242 56.4728C50.6889 55.0508 50.2389 53.5803 49.7307 52.6184C48.536 50.3575 48.4458 47.6986 48.9674 46.3448C49.4375 45.1246 49.7221 44.347 49.7108 43.839C49.6715 42.066 48.1094 37.0721 46.9688 33.4257C46.7919 32.8602 46.6246 32.3255 46.474 31.8379C45.3387 29.2088 44.4888 27.1391 44.2003 26.3006C43.9133 25.4667 43.7304 24.7594 43.6409 24.1383C43.5649 23.7492 43.502 23.333 43.4413 22.9307C43.3809 22.5309 43.3186 22.1181 43.2429 21.7319C42.8514 21.4117 42.1037 19.7975 42.2049 17.6428C42.2807 16.0331 41.3265 12.9979 40.5597 10.559C40.1113 9.13272 39.7241 7.901 39.6497 7.28222C39.5803 6.70552 39.4782 5.75021 39.5247 5.46808C39.5059 5.425 39.4865 5.40943 39.4717 5.40145C39.4682 5.39959 39.4548 5.39354 39.4256 5.39354C39.3965 5.39354 39.3631 5.39952 39.3283 5.41077C39.0791 6.94822 38.405 9.88348 38.0691 11.0096C37.8976 11.5846 37.7931 12.1435 37.7092 12.5926C37.5922 13.2181 37.5271 13.5658 37.3614 13.6862C37.317 13.7995 37.2614 13.9296 37.1982 14.0775C37.0058 14.5278 36.7422 15.1446 36.6086 15.761C36.5891 15.914 36.5641 16.0696 36.536 16.2121C36.4631 16.8705 36.4578 17.8475 36.4626 18.7172C36.5274 19.123 36.5286 19.8941 36.4653 20.562C36.4915 20.9892 36.6279 21.3866 36.7599 21.7711C36.8188 21.9426 36.8744 22.1047 36.9194 22.2662C37.0516 22.6917 37.2476 23.5722 37.425 25.3292C37.5319 26.3886 37.3921 27.2824 37.2798 28.0006C37.1774 28.6556 37.0889 29.2213 37.218 29.6916C37.3123 30.0353 37.4248 30.4861 37.4612 30.9321C37.5211 31.1636 37.6078 31.4858 37.7028 31.8386C37.8786 32.4915 38.0778 33.2315 38.1928 33.7155C38.7315 35.3709 39.4651 38.4439 39.434 39.8804C39.4033 41.2935 40.158 45.7298 40.5562 47.3974C40.8521 48.6369 40.9742 50.8444 41.055 52.3052C41.0865 52.8766 41.1114 53.3279 41.137 53.5325C41.1468 53.6103 41.1533 53.6892 41.1331 53.752C41.1659 54.0755 41.2226 54.8132 41.203 55.1886C41.2576 56.7926 41.2049 60.06 40.8312 61.9495C40.6461 62.8848 40.6066 64.5331 40.5684 66.1272C40.5271 67.8472 40.4844 69.6257 40.2625 70.6405C39.8208 72.6617 38.8343 75.1693 37.8619 77.5646L37.8609 77.5671C37.7811 78.2035 37.7607 78.7061 37.8001 79.0614C37.8323 79.3518 37.9373 79.9295 38.059 80.5985C38.2868 81.8519 38.5705 83.4117 38.6425 84.4669C38.753 86.0858 38.7174 89.631 38.6321 90.5483C38.6486 90.8051 38.6559 91.0772 38.6543 91.3669C38.7035 91.821 38.7997 92.3102 38.8847 92.7419L38.896 92.7994C38.9792 92.996 39.0583 93.5635 39.0902 93.8126C39.1408 94.0174 39.2071 94.2414 39.2772 94.4784C39.4348 95.0116 39.6135 95.6158 39.7052 96.2919C39.7349 96.4614 39.7617 96.65 39.778 96.8041L39.7955 96.9652C39.8735 97.6793 40.0039 98.8744 39.8901 100.709C39.7614 102.788 38.9898 106.795 38.5026 108.982C37.9839 111.31 36.9888 118.809 36.7703 120.541C36.732 120.844 36.6803 121.141 36.6166 121.422C36.5486 122.674 36.5123 124.327 36.593 125.009C36.691 125.839 36.9179 126.521 37.1372 127.181L37.216 127.418C37.4505 128.132 37.3665 128.924 36.9663 129.772C36.6531 130.436 36.8695 131.878 37.403 132.684C37.7856 133.262 38.6736 134.326 39.3221 135.103C39.5754 135.407 39.7941 135.669 39.9316 135.841C40.4645 136.508 40.6109 137.606 40.4444 138.283C40.2787 138.956 40.0085 139.219 39.4805 139.219C39.2347 139.219 39.0197 139.107 38.847 139.018C38.7312 138.957 38.6217 138.901 38.5474 138.901C38.5342 138.901 38.5227 138.902 38.5122 138.906C38.4294 138.936 38.3733 138.981 38.3083 139.034C38.2021 139.12 38.0818 139.217 37.8499 139.238C37.8358 139.24 37.822 139.241 37.808 139.241Z" fill="white" stroke="#28839F" stroke-width="0.504915"/>
<path d="M4.5086 -5.31055C3.85943 -2.89488 1.11821 -1.72764 -1.1133 5.67163C-1.75052 7.78457 -2.53855 14.4714 -2.51307 17.0801C-2.50356 18.0548 -1.73204 16.8162 -1.73204 16.8162C-1.73204 16.8162 3.79604 8.879 4.48578 4.90024C5.17552 0.921493 4.5086 -5.31055 4.5086 -5.31055Z" fill="#28839F" fill-opacity="0.2"/>
<path d="M2.09234 -1.98145C1.39816 -1.17263 -0.991214 3.2153 -1.63887 5.84498C-2.20479 8.14268 -3.11248 13.5005 -3.17835 17.919C-3.17997 18.0275 -3.33065 18.0533 -3.36965 17.952C-5.80697 11.623 -4.32754 5.16947 -3.39517 3.62637C-2.60513 2.31887 -0.798486 -0.499559 2.09234 -1.98145Z" fill="#28839F" fill-opacity="0.2"/>
<path d="M-0.909768 16.6336C-1.27112 17.2866 0.307423 18.7753 0.916025 21.5868C1.01998 22.0671 2.17379 20.2368 2.05207 17.6486C1.93035 15.0604 4.41038 8.90955 4.60817 7.26528C4.80596 5.621 4.72988 5.46875 4.72988 5.46875C2.39282 11.3802 1.17974 12.8579 -0.909768 16.6336Z" fill="#28839F" fill-opacity="0.2"/>
<path d="M-0.463655 21.5052C-1.25919 22.8485 -5.67728 34.6594 -6.42789 37.5826C-7.17849 40.5058 -7.19878 41.6832 -6.71189 41.399C-6.22502 41.1148 -0.788239 28.7319 0.0637994 26.2553C0.915837 23.7788 0.723108 22.7638 0.439105 21.83C0.155087 20.8962 -0.139069 20.9571 -0.463655 21.5052Z" fill="#28839F"/>
<path d="M18.5857 -13.1057C16.7695 -13.5652 12.9826 -13.162 11.3637 -12.9433C8.58448 -12.5677 6.49631 -11.3586 5.76466 -10.0201C5.11549 -8.83259 4.64953 -6.04481 5.15605 -5.47297C6.73841 -3.68659 6.02838 1.42897 11.6072 4.02734C13.4743 4.89697 19.4581 4.34199 20.371 3.27625C21.2838 2.21051 21.649 -2.99639 21.3447 -5.98047C21.0404 -8.96453 20.3912 -12.6489 18.5857 -13.1057Z" fill="#28839F" fill-opacity="0.2"/>
<path d="M20.7968 4.34182C21.3531 5.34388 21.8162 7.18886 21.8314 8.33072C21.8466 9.47259 21.2989 9.62484 20.5838 9.975C19.8687 10.3252 16.5366 12.0557 15.6237 12.8373C14.6956 13.6318 14.1631 14.1314 13.9805 12.5632C13.7979 10.9951 13.5697 9.27467 13.8588 7.59993C14.1479 5.9252 14.437 5.27052 15.1977 5.04215C15.9585 4.81378 16.9094 4.86707 18.0885 4.63108C19.2505 4.39853 20.5686 3.93074 20.7968 4.34182Z" fill="#28839F" fill-opacity="0.2"/>
<path d="M20.6598 10.5919C16.4225 12.1829 14.5372 14.6776 14.1428 15.4156C13.6762 16.2885 13.9178 18.3947 14.0515 18.76C14.1833 19.1203 15.1894 19.1591 16.0801 18.9681C17.3582 18.6941 19.6708 18.3997 20.4924 18.2982C21.314 18.1967 21.8111 17.202 21.8516 16.2682C21.8922 15.3344 21.9226 12.391 21.8516 11.8023C21.7806 11.2136 21.4254 10.3044 20.6598 10.5919Z" fill="#28839F" fill-opacity="0.2"/>
<path d="M20.695 18.9285C19.485 18.7969 15.6741 19.5984 14.9945 19.9232C14.3149 20.248 13.7773 20.8976 13.757 21.7502C13.7368 22.6028 13.9802 24.2471 14.2033 24.7343C14.4265 25.2215 15.1771 25.668 16.232 25.7087C17.2869 25.7492 19.4778 25.9117 20.4516 25.7696C21.4253 25.6274 21.6586 24.6734 21.7297 23.5975C21.8007 22.5216 21.8514 21.0904 21.7499 20.1262C21.6485 19.162 21.1616 18.9793 20.695 18.9285Z" fill="#28839F" fill-opacity="0.2"/>
<path d="M12.134 4.59506C11.2695 4.44077 8.8802 3.04092 7.99558 2.40268C6.61854 1.40919 6.99213 6.06848 9.82138 6.01605C10.9168 5.99575 11.7892 5.4299 12.2152 5.20913C12.6412 4.98837 12.5322 4.66612 12.134 4.59506Z" fill="#28839F" fill-opacity="0.2"/>
<path d="M7.81457 6.2951C7.90206 7.05634 8.09514 7.60849 8.46754 8.28322C8.89609 9.05968 11.5333 7.2124 11.7095 6.77849C11.8932 6.32602 11.3002 5.95635 10.709 6.12763C9.90191 6.36143 8.8758 6.21898 8.33187 5.8041C7.7816 5.38437 7.77112 5.91696 7.81457 6.2951Z" fill="#28839F" fill-opacity="0.2"/>
<path d="M11.8502 7.16396C11.4051 7.54974 10.5315 8.13327 9.65923 8.53926C8.85156 8.91518 8.90356 9.28528 9.12164 9.56948C9.33972 9.85367 10.704 10.6149 11.201 10.8382C11.698 11.0615 12.5196 10.8788 12.6768 10.4018C12.9427 9.59503 12.7714 6.36554 11.8502 7.16396Z" fill="#28839F" fill-opacity="0.2"/>
<path d="M8.09739 12.5742C8.27998 13.1324 9.48702 13.9546 10.2173 14.4215C10.9477 14.8884 11.9569 15.4314 12.2967 15.1624C12.6365 14.8934 12.6467 12.3255 12.3981 11.7622C12.1496 11.1989 11.5968 11.2953 10.9375 11.0821C10.2411 10.857 10.0617 10.4808 9.29431 10.4173C8.68064 10.3666 7.84359 11.7981 8.09739 12.5742Z" fill="#28839F" fill-opacity="0.2"/>
<path d="M9.15706 14.071C9.60042 14.3853 11.8653 15.5935 12.2609 15.8371C12.6565 16.0807 12.8543 16.9333 12.976 17.9229C13.0977 18.9125 13.0233 20.0801 12.6108 20.2371C11.5306 20.6482 8.76056 17.643 8.40391 17.2378C7.95508 16.7278 7.86379 15.3727 7.83336 14.7257C7.79308 13.8692 8.42674 13.5534 9.15706 14.071Z" fill="#28839F" fill-opacity="0.2"/>
<path d="M9.11137 18.4556C9.8721 19.2929 11.6751 20.4729 12.1087 20.8459C12.5423 21.2189 12.5727 22.6805 12.5651 23.358C12.5575 24.0355 11.8805 24.5607 11.424 24.4389C10.9676 24.3171 8.6473 22.0867 8.3354 21.6985C8.0235 21.3102 7.94743 19.3005 8.07675 18.6687C8.20608 18.0369 8.59009 17.8818 9.11137 18.4556Z" fill="#28839F" fill-opacity="0.2"/>
<path d="M20.0459 26.621C18.6259 26.6104 15.7756 26.4586 15.096 26.3571C14.4164 26.2556 13.8281 26.9864 13.9803 27.9405C14.1324 28.8946 14.7106 32.6906 15.9278 36.5273C17.145 40.3639 18.0376 42.739 19.2345 43.8149C20.4314 44.8908 20.7154 46.1494 21.3138 46.058C21.9123 45.9667 21.9148 43.5536 21.9224 42.602C21.929 41.7872 22.0036 28.9808 21.7931 28.5647C21.5733 28.13 21.1389 27.8529 20.884 27.5979C20.6118 27.3255 20.7255 26.626 20.0459 26.621Z" fill="#28839F" fill-opacity="0.2"/>
<path d="M8.64502 22.4186C9.31026 23.174 10.8258 24.4993 11.4446 25.0575C12.0633 25.6158 12.8443 27.8995 13.0878 28.9957C13.3312 30.0919 13.2704 31.5129 12.9458 32.6497C12.6212 33.7865 13.0269 34.3549 12.824 35.2886C12.6212 36.2224 11.5257 36.872 11.0794 36.1818C10.6331 35.4916 8.90875 33.3399 7.83357 32.7309C6.75837 32.1219 7.0221 30.7618 7.30611 29.7265C7.59012 28.6912 6.90038 27.3514 7.10325 25.3417C7.30611 23.3321 7.54447 22.3907 7.69662 22.0481C7.84878 21.7055 8.19364 21.906 8.64502 22.4186Z" fill="#28839F" fill-opacity="0.2"/>
<path d="M5.20225 -3.38687C5.34443 -0.768364 5.04028 3.80481 5.11505 4.75875C5.1962 5.79403 6.04822 9.6104 6.45396 10.9705C6.85969 12.3306 6.89012 13.5841 7.16399 13.5993C7.43785 13.6145 8.05659 10.463 8.11745 9.4277C8.17831 8.39241 7.10313 3.82495 6.90026 2.20098C6.69739 0.576992 5.8479 -2.72172 5.59686 -3.39162C5.25141 -4.3134 5.12056 -4.89153 5.20225 -3.38687Z" fill="#28839F" fill-opacity="0.2"/>
<path d="M7.88404 35.2685C8.57012 39.0132 8.92613 41.3682 9.65911 44.444C10.288 47.083 11.2719 51.417 12.1544 54.1879C13.0368 56.9589 14.68 61.3741 15.5321 64.3886C16.3841 67.4031 17.6926 75.5941 17.8143 76.1117C17.936 76.6294 18.1186 73.6148 18.3012 72.0923C18.4837 70.5699 18.2403 66.7028 17.6926 64.1145C17.1448 61.5263 16.3232 56.9284 15.0756 54.0052C12.6103 48.229 9.95026 37.5944 9.18238 35.8166C9.0108 35.4194 7.71668 34.355 7.88404 35.2685Z" fill="#28839F" fill-opacity="0.2"/>
<path d="M6.33249 33.747C5.78476 35.4319 5.06458 38.4768 5.09501 39.8775C5.12544 41.2782 4.37992 45.7086 3.9691 47.429C3.55831 49.1494 3.48223 52.8186 3.39094 53.5494C3.29965 54.2802 3.99953 52.6664 4.3647 51.1135C4.72985 49.5605 6.23612 44.9169 6.70779 43.4401C7.17945 41.9633 8.09235 38.69 7.92498 37.472C7.75762 36.254 7.45332 35.0512 7.52939 34.5793C7.60546 34.1073 7.34681 33.6759 7.09324 33.3714C6.83965 33.0669 6.33249 33.747 6.33249 33.747Z" fill="#28839F" fill-opacity="0.2"/>
<path d="M9.76068 36.7461C9.93496 37.4437 11.1807 41.4506 11.3937 41.9987C11.6068 42.5468 11.9719 40.6589 11.8299 39.3902C11.717 38.3813 11.6372 37.9083 10.7344 36.9542C9.83169 36.0001 9.59839 36.0965 9.76068 36.7461Z" fill="#28839F" fill-opacity="0.2"/>
<path d="M12.0333 39.725C12.0608 41.5368 11.9725 42.846 11.9116 43.3484C11.8507 43.8509 12.155 45.4952 12.5202 45.9671C12.8854 46.4391 13.5396 45.6931 13.9504 44.2315C14.3612 42.7699 14.3764 41.628 14.0721 41.0038C13.7678 40.3796 12.8701 39.4813 12.4898 39.1159C12.1094 38.7506 12.0181 38.7201 12.0333 39.725Z" fill="#28839F" fill-opacity="0.2"/>
<path d="M14.4671 42.3334C14.4993 43.2343 14.2845 44.5766 13.7976 45.5611C13.3108 46.5457 13.047 46.8501 13.1485 47.6317C13.2499 48.4132 13.5745 49.6008 13.7976 49.9662C14.0208 50.3316 14.9946 48.3929 15.3191 47.5099C15.6437 46.6269 16.161 44.9014 16.1712 44.201C16.1813 43.5007 15.4611 42.7496 15.096 42.3132C14.7308 41.8767 14.4367 41.4809 14.4671 42.3334Z" fill="#28839F" fill-opacity="0.2"/>
<path d="M13.4734 66.6733C13.5343 65.2117 14.2258 61.2073 13.7726 60.0606C11.318 53.8489 10.3746 50.0173 8.52613 41.2499C8.25648 39.971 7.99097 40.7555 7.79416 41.306C7.28071 42.7421 6.90291 44.6584 6.57599 45.7543C6.17025 47.1144 5.91668 50.1696 5.65295 51.6311C5.38923 53.0927 4.99364 56.9192 5.01393 59.4364C5.03421 61.9536 5.68338 65.8816 6.27169 67.5056C6.86001 69.1296 8.3612 72.8241 8.99008 74.7729C10.437 79.2565 11.9779 74.3464 11.9811 74.3328C12.4548 72.8306 13.4203 67.9494 13.4734 66.6733Z" fill="#28839F" fill-opacity="0.2"/>
<path d="M46.6016 -9.45215C46.9211 -7.62516 46.5261 -6.005 45.8104 -4.18434C45.1934 -2.61469 44.5932 -1.67224 44.6237 -0.926232C45.2627 -0.347681 46.982 1.7838 47.3623 2.27099C47.1341 0.94643 47.3928 -1.04803 47.5754 -3.24041C47.7579 -5.43278 47.5601 -7.50336 46.6016 -9.45215Z" fill="#28839F" fill-opacity="0.2"/>
<path d="M39.8835 -5.31055C40.5327 -2.89488 43.2739 -1.72764 45.5054 5.67163C46.1426 7.78457 46.9306 14.4714 46.9052 17.0801C46.8957 18.0548 46.1241 16.8162 46.1241 16.8162C46.1241 16.8162 40.5961 8.879 39.9063 4.90024C39.2166 0.921493 39.8835 -5.31055 39.8835 -5.31055Z" fill="#28839F" fill-opacity="0.2"/>
<path d="M42.3003 -1.98145C42.9945 -1.17263 45.3838 3.2153 46.0315 5.84498C46.5974 8.14268 47.5051 13.5005 47.571 17.919C47.5726 18.0275 47.7233 18.0533 47.7623 17.952C50.1996 11.623 48.7202 5.16947 47.7878 3.62637C46.9978 2.31887 45.1911 -0.499559 42.3003 -1.98145Z" fill="#28839F" fill-opacity="0.2"/>
<path d="M45.303 16.6336C45.6643 17.2866 44.0858 18.7753 43.4772 21.5868C43.3732 22.0671 42.2194 20.2368 42.3411 17.6486C42.4628 15.0604 39.9828 8.90955 39.785 7.26528C39.5872 5.621 39.6633 5.46875 39.6633 5.46875C42.0004 11.3802 43.2134 12.8579 45.303 16.6336Z" fill="#28839F" fill-opacity="0.2"/>
<path d="M49.1982 13.7111C48.8062 15.7843 48.2244 18.8266 48.7113 20.8566C49.1982 22.8866 53.2961 37.6242 53.9047 39.4918C54.5133 41.3594 54.3915 39.4309 54.1887 37.7054C53.9858 35.9799 54.1481 26.5405 53.7424 23.3738C53.3366 20.207 51.9977 16.2891 50.8211 14.8884C49.6445 13.4877 49.3402 12.96 49.1982 13.7111Z" fill="#28839F"/>
<path d="M46.1653 17.7908C47.983 19.155 48.3359 21.0895 48.7619 22.5816C49.188 24.0736 52.733 37.0299 53.0525 38.3849C53.3721 39.74 53.4786 41.3538 52.9917 40.7296C52.5048 40.1054 48.0468 27.0881 46.6927 24.2563C45.3386 21.4245 44.6631 20.5127 44.9177 19.3539C45.1205 18.4302 45.4958 17.2884 46.1653 17.7908Z" fill="#28839F"/>
<path d="M44.8563 21.5052C45.6519 22.8485 50.07 34.6594 50.8206 37.5826C51.5712 40.5058 51.5915 41.6832 51.1046 41.399C50.6177 41.1148 45.1809 28.7319 44.3289 26.2553C43.4769 23.7788 43.6696 22.7638 43.9536 21.83C44.2376 20.8962 44.5318 20.9571 44.8563 21.5052Z" fill="#28839F"/>
<path d="M25.8075 -13.1057C27.6238 -13.5652 31.4107 -13.162 33.0295 -12.9433C35.8088 -12.5677 37.897 -11.3586 38.6286 -10.0201C39.2778 -8.83259 39.7437 -6.04481 39.2372 -5.47297C37.6549 -3.68659 38.3649 1.42897 32.7861 4.02734C30.919 4.89697 24.9352 4.34199 24.0223 3.27625C23.1094 2.21051 22.7443 -2.99639 23.0486 -5.98047C23.3529 -8.96453 24.002 -12.6489 25.8075 -13.1057Z" fill="#28839F" fill-opacity="0.2"/>
<path d="M23.5964 4.34182C23.0401 5.34388 22.577 7.18886 22.5618 8.33072C22.5466 9.47259 23.0943 9.62484 23.8095 9.975C24.5245 10.3252 27.8566 12.0557 28.7695 12.8373C29.6976 13.6318 30.2301 14.1314 30.4127 12.5632C30.5953 10.9951 30.8235 9.27467 30.5344 7.59993C30.2453 5.9252 29.9563 5.27052 29.1955 5.04215C28.4348 4.81378 27.4838 4.86707 26.3047 4.63108C25.1427 4.39853 23.8247 3.93074 23.5964 4.34182Z" fill="#28839F" fill-opacity="0.2"/>
<path d="M23.733 10.5919C27.9703 12.1829 29.8555 14.6776 30.25 15.4156C30.7166 16.2885 30.475 18.3947 30.3413 18.76C30.2094 19.1203 29.2034 19.1591 28.3126 18.9681C27.0346 18.6941 24.7219 18.3997 23.9003 18.2982C23.0787 18.1967 22.5817 17.202 22.5411 16.2682C22.5006 15.3344 22.4701 12.391 22.5411 11.8023C22.6121 11.2136 22.9673 10.3044 23.733 10.5919Z" fill="#28839F" fill-opacity="0.2"/>
<path d="M23.6975 18.9285C24.9075 18.7969 28.7184 19.5984 29.398 19.9232C30.0776 20.248 30.6152 20.8976 30.6355 21.7502C30.6558 22.6028 30.4123 24.2471 30.1892 24.7343C29.966 25.2215 29.2154 25.668 28.1605 25.7087C27.1056 25.7492 24.9147 25.9117 23.9409 25.7696C22.9672 25.6274 22.7339 24.6734 22.6629 23.5975C22.5919 22.5216 22.5411 21.0904 22.6426 20.1262C22.744 19.162 23.2309 18.9793 23.6975 18.9285Z" fill="#28839F" fill-opacity="0.2"/>
<path d="M32.2585 4.59506C33.123 4.44077 35.5123 3.04092 36.3969 2.40268C37.774 1.40919 37.4004 6.06848 34.5711 6.01605C33.4757 5.99575 32.6034 5.4299 32.1773 5.20913C31.7513 4.98837 31.8604 4.66612 32.2585 4.59506Z" fill="#28839F" fill-opacity="0.2"/>
<path d="M36.5784 6.2951C36.4909 7.05634 36.2978 7.60849 35.9254 8.28322C35.4968 9.05968 32.8596 7.2124 32.6834 6.77849C32.4997 6.32602 33.0927 5.95635 33.6839 6.12763C34.491 6.36143 35.5171 6.21898 36.061 5.8041C36.6113 5.38437 36.6218 5.91696 36.5784 6.2951Z" fill="#28839F" fill-opacity="0.2"/>
<path d="M32.5429 7.16396C32.988 7.54974 33.8615 8.13327 34.7338 8.53926C35.5415 8.91518 35.4895 9.28528 35.2714 9.56948C35.0533 9.85367 33.6891 10.6149 33.192 10.8382C32.695 11.0615 31.8734 10.8788 31.7162 10.4018C31.4503 9.59503 31.6217 6.36554 32.5429 7.16396Z" fill="#28839F" fill-opacity="0.2"/>
<path d="M36.2954 12.5742C36.1128 13.1324 34.9058 13.9546 34.1754 14.4215C33.4451 14.8884 32.4359 15.4314 32.0961 15.1624C31.7563 14.8934 31.7461 12.3255 31.9946 11.7622C32.2432 11.1989 32.796 11.2953 33.4553 11.0821C34.1517 10.857 34.3311 10.4808 35.0985 10.4173C35.7122 10.3666 36.5492 11.7981 36.2954 12.5742Z" fill="#28839F" fill-opacity="0.2"/>
<path d="M35.2352 14.071C34.7918 14.3853 32.527 15.5935 32.1314 15.8371C31.7358 16.0807 31.538 16.9333 31.4163 17.9229C31.2946 18.9125 31.369 20.0801 31.7814 20.2371C32.8617 20.6482 35.6317 17.643 35.9883 17.2378C36.4372 16.7278 36.5285 15.3727 36.5589 14.7257C36.5992 13.8692 35.9655 13.5534 35.2352 14.071Z" fill="#28839F" fill-opacity="0.2"/>
<path d="M35.2814 18.4556C34.5206 19.2929 32.7177 20.4729 32.284 20.8459C31.8504 21.2189 31.82 22.6805 31.8276 23.358C31.8352 24.0355 32.5123 24.5607 32.9687 24.4389C33.4251 24.3171 35.7454 22.0867 36.0573 21.6985C36.3692 21.3102 36.4453 19.3005 36.316 18.6687C36.1866 18.0369 35.8026 17.8818 35.2814 18.4556Z" fill="#28839F" fill-opacity="0.2"/>
<path d="M24.3468 26.621C25.7668 26.6104 28.6171 26.4586 29.2967 26.3571C29.9763 26.2556 30.5646 26.9864 30.4124 27.9405C30.2603 28.8946 29.6821 32.6906 28.4649 36.5273C27.2477 40.3639 26.3551 42.739 25.1582 43.8149C23.9613 44.8908 23.6773 46.1494 23.0788 46.058C22.4804 45.9667 22.4779 43.5536 22.4703 42.602C22.4637 41.7872 22.3891 28.9808 22.5996 28.5647C22.8194 28.13 23.2538 27.8529 23.5087 27.5979C23.7809 27.3255 23.6672 26.626 24.3468 26.621Z" fill="#28839F" fill-opacity="0.2"/>
<path d="M35.7478 22.4186C35.0825 23.174 33.567 24.4993 32.9482 25.0575C32.3295 25.6158 31.5485 27.8995 31.305 28.9957C31.0616 30.0919 31.1224 31.5129 31.447 32.6497C31.7716 33.7865 31.3659 34.3549 31.5687 35.2886C31.7716 36.2224 32.8671 36.872 33.3134 36.1818C33.7597 35.4916 35.484 33.3399 36.5592 32.7309C37.6344 32.1219 37.3707 30.7618 37.0867 29.7265C36.8027 28.6912 37.4924 27.3514 37.2895 25.3417C37.0867 23.3321 36.8483 22.3907 36.6962 22.0481C36.544 21.7055 36.1991 21.906 35.7478 22.4186Z" fill="#28839F" fill-opacity="0.2"/>
<path d="M39.1906 -3.38687C39.0485 -0.768364 39.3526 3.80481 39.2779 4.75875C39.1967 5.79403 38.3447 9.6104 37.9389 10.9705C37.5332 12.3306 37.5028 13.5841 37.2289 13.5993C36.955 13.6145 36.3363 10.463 36.2754 9.4277C36.2146 8.39241 37.2898 3.82495 37.4926 2.20098C37.6955 0.576992 38.545 -2.72172 38.796 -3.39162C39.1415 -4.3134 39.2723 -4.89153 39.1906 -3.38687Z" fill="#28839F" fill-opacity="0.2"/>
<path d="M36.5083 35.2685C35.8223 39.0132 35.4662 41.3682 34.7333 44.444C34.1044 47.083 33.1205 51.417 32.238 54.1879C31.3556 56.9589 29.7123 61.3741 28.8603 64.3886C28.0083 67.4031 26.6998 75.5941 26.5781 76.1117C26.4564 76.6294 26.2738 73.6148 26.0912 72.0923C25.9086 70.5699 26.1521 66.7028 26.6998 64.1145C27.2475 61.5263 28.0691 56.9284 29.3167 54.0052C31.7821 48.229 34.4421 37.5944 35.21 35.8166C35.3816 35.4194 36.6757 34.355 36.5083 35.2685Z" fill="#28839F" fill-opacity="0.2"/>
<path d="M38.0605 33.747C38.6082 35.4319 39.3284 38.4768 39.2979 39.8775C39.2675 41.2782 40.013 45.7086 40.4238 47.429C40.8347 49.1494 40.9107 52.8186 41.002 53.5494C41.0933 54.2802 40.3934 52.6664 40.0283 51.1135C39.6631 49.5605 38.1568 44.9169 37.6852 43.4401C37.2135 41.9633 36.3006 38.69 36.468 37.472C36.6353 36.254 36.9396 35.0512 36.8636 34.5793C36.7875 34.1073 37.0461 33.6759 37.2997 33.3714C37.5533 33.0669 38.0605 33.747 38.0605 33.747Z" fill="#28839F" fill-opacity="0.2"/>
<path d="M34.6045 36.8094C34.4302 37.5069 33.22 41.354 33.007 41.9021C32.7939 42.4502 32.4212 40.6587 32.5632 39.39C32.6761 38.3811 32.7559 37.9081 33.6587 36.954C34.5614 35.9999 34.7668 36.1598 34.6045 36.8094Z" fill="#28839F" fill-opacity="0.2"/>
<path d="M32.3604 39.725C32.3329 41.5368 32.4212 42.846 32.4821 43.3484C32.543 43.8509 32.2387 45.4952 31.8735 45.9671C31.5083 46.4391 30.8541 45.6931 30.4433 44.2315C30.0325 42.7699 30.0173 41.628 30.3216 41.0038C30.6259 40.3796 31.5236 39.4813 31.9039 39.1159C32.2843 38.7506 32.3756 38.7201 32.3604 39.725Z" fill="#28839F" fill-opacity="0.2"/>
<path d="M29.9254 42.3334C29.8932 43.2343 30.108 44.5766 30.5948 45.5611C31.0817 46.5457 31.3454 46.8501 31.244 47.6317C31.1426 48.4132 30.818 49.6008 30.5948 49.9662C30.3717 50.3316 29.3979 48.3929 29.0733 47.5099C28.7487 46.6269 28.2314 44.9014 28.2213 44.201C28.2112 43.5007 28.9313 42.7496 29.2965 42.3132C29.6616 41.8767 29.9558 41.4809 29.9254 42.3334Z" fill="#28839F" fill-opacity="0.2"/>
<path d="M30.9196 66.6726C30.8587 65.211 30.1013 61.2422 30.5544 60.0954C33.0091 53.8837 33.8205 50.0112 35.8668 41.2492C36.1641 39.9764 36.402 40.7548 36.5988 41.3053C37.1123 42.7414 37.4393 44.7288 37.7663 45.8247C38.172 47.1848 38.456 50.0775 38.7197 51.5391C38.9835 53.0007 39.3486 56.8475 39.3283 59.3647C39.3081 61.8818 38.6893 65.82 38.101 67.444C37.5127 69.068 36.0318 72.8234 35.4029 74.7722C33.9217 79.3622 32.4151 74.3457 32.4119 74.3321C31.9382 72.8299 30.9727 67.9487 30.9196 66.6726Z" fill="#28839F" fill-opacity="0.2"/>
</g>
<defs>
<clipPath id="clip0_4048_1720">
<rect width="61" height="48" fill="white"/>
</clipPath>
</defs>
</svg>
