<svg width="61" height="48" viewBox="0 0 61 48" fill="none" xmlns="http://www.w3.org/2000/svg">
<g clip-path="url(#clip0_4089_13881)">
<path d="M40.8058 117.233C40.6222 117.233 40.4739 117.126 40.3305 117.022C40.2116 116.936 40.0992 116.855 39.9914 116.855C39.9728 116.855 39.9546 116.857 39.936 116.862C39.8132 116.894 39.7456 116.946 39.6674 117.008C39.5567 117.094 39.4314 117.192 39.1771 117.192C39.1603 117.192 39.1427 117.192 39.1246 117.191C38.8874 117.179 38.7392 117.079 38.6084 116.991C38.4879 116.909 38.3928 116.845 38.2338 116.845C38.2243 116.845 38.2145 116.845 38.2045 116.846C38.0376 116.854 37.9414 116.91 37.8194 116.982C37.6669 117.071 37.494 117.173 37.171 117.191C37.1486 117.192 37.1266 117.193 37.1047 117.193C36.8033 117.193 36.5441 117.077 36.3153 116.976C36.1232 116.89 35.9416 116.809 35.7608 116.805L35.7459 116.805C35.5611 116.805 35.334 116.88 35.0936 116.96C34.7948 117.059 34.4561 117.171 34.1046 117.171L34.0778 117.171C33.2305 117.157 32.749 116.721 32.6467 115.874C32.5924 115.424 32.7415 114.938 32.8857 114.468C33.0525 113.924 33.2249 113.361 33.096 112.845C32.8236 111.755 32.6672 110.353 32.7067 109.356C32.7337 108.672 32.5211 107.75 32.3336 106.937C32.2434 106.545 32.1581 106.176 32.1 105.843C31.9787 105.148 32.4867 103.931 32.9349 102.856C33.1803 102.268 33.412 101.712 33.4588 101.414C33.5085 101.095 33.5116 100.021 33.4677 98.2202C33.3824 97.7848 33.3225 96.3354 33.2902 95.5533C33.2819 95.3534 33.2755 95.1971 33.2709 95.1128C33.2667 95.0352 33.2487 94.6542 33.2887 94.4565L33.2187 93.926C33.0793 92.8643 32.9476 91.8614 32.8329 91.432C32.8329 91.432 32.6511 90.7557 32.5987 90.5585C32.541 90.4679 32.4894 90.356 32.4414 90.2172C32.3429 89.9323 32.24 89.5374 32.1312 89.1193C31.9303 88.3479 31.7027 87.4737 31.4146 86.9163C31.1489 86.4024 30.9949 85.7247 30.944 84.8449C30.8628 84.4374 30.794 83.9695 30.7395 83.4539C30.4781 80.9776 30.7667 77.5005 31.0662 76.0436C31.2168 75.3107 31.4525 74.4235 31.6604 73.6408C31.859 72.8931 32.0466 72.1868 32.1202 71.7645C32.196 71.33 32.2129 71.0843 32.2231 70.9375C32.2297 70.842 32.2341 70.7784 32.2528 70.7278C32.2276 70.5934 32.2004 70.4413 32.1714 70.278C32.1231 70.0079 32.0688 69.7032 32.0087 69.3983C31.881 69.2467 31.7953 68.945 31.68 68.5397C31.5778 68.1803 31.4507 67.733 31.2635 67.2988C30.8274 66.2879 30.2886 62.9498 30.2381 61.3625C30.1867 59.7483 29.9153 57.1601 29.593 55.8802C29.3057 54.739 29.0018 51.9992 29.0309 50.8149C29.0055 50.5582 28.9801 50.3166 28.9546 50.1045C28.9278 49.8805 28.9096 49.5969 28.9005 49.261C28.843 49.1308 28.7546 48.9469 28.6279 48.7683C28.4621 48.5346 28.3089 48.2144 28.1726 47.8168C27.9593 47.2717 27.7103 46.225 27.6309 45.5365C27.5015 44.4142 26.6802 39.4649 26.2056 37.8871C25.6641 36.0865 26.0349 32.456 26.0789 32.048C26.0936 31.9119 26.1072 31.7773 26.1205 31.6452C26.159 31.2614 26.1956 30.8978 26.253 30.5741C26.0991 30.3351 25.9719 30.0836 25.8659 29.8085C25.6216 29.7412 25.3776 29.7228 25.276 29.7228H25.1137C25.0122 29.7228 24.7683 29.7412 24.5239 29.8085C24.4179 30.0836 24.2907 30.3352 24.1367 30.5741C24.1943 30.8983 24.2308 31.2624 24.2694 31.6467C24.2827 31.7784 24.2961 31.9125 24.3108 32.048C24.3549 32.456 24.7259 36.0861 24.1841 37.8871C23.7095 39.4651 22.8882 44.4143 22.7588 45.5366C22.6795 46.2249 22.4306 47.2716 22.2153 47.8221C22.0808 48.2146 21.9276 48.5348 21.7619 48.7683C21.6347 48.9475 21.5465 49.1312 21.4892 49.261C21.4802 49.5964 21.462 49.8801 21.4351 50.1045C21.4097 50.3166 21.3842 50.5583 21.3589 50.8148C21.388 51.9991 21.0841 54.739 20.7968 55.8802C20.4746 57.1598 20.2031 59.7479 20.1517 61.3625C20.1011 62.9499 19.5623 66.2881 19.1263 67.2988C18.939 67.7331 18.8119 68.1803 18.7097 68.5397C18.5945 68.9451 18.5088 69.2467 18.381 69.3983C18.3209 69.7032 18.2665 70.0079 18.2184 70.2781C18.1892 70.4414 18.1621 70.5934 18.1369 70.7277C18.1556 70.7784 18.16 70.842 18.1667 70.9376C18.1768 71.0843 18.1938 71.3299 18.2695 71.7645C18.3431 72.1869 18.5307 72.8934 18.7294 73.6413C18.9373 74.4238 19.173 75.3108 19.3236 76.0435C19.6231 77.5009 19.9117 80.9783 19.6502 83.4539C19.5956 83.9705 19.5266 84.4425 19.4452 84.8568C19.3934 85.7309 19.2397 86.4046 18.9752 86.9163C18.687 87.4737 18.4594 88.348 18.2586 89.1193C18.1497 89.5374 18.0469 89.9323 17.9483 90.2172C17.9004 90.3559 17.8488 90.468 17.7911 90.5586C17.7388 90.7552 17.5569 91.432 17.5569 91.432C17.4421 91.8615 17.3104 92.8645 17.171 93.9264L17.1011 94.4564C17.1411 94.6543 17.1231 95.0352 17.1188 95.1128C17.1142 95.1971 17.1078 95.3535 17.0995 95.5535C17.0672 96.3355 17.0073 97.7848 16.9221 98.2201C16.8782 100.021 16.8812 101.096 16.931 101.414C16.9777 101.712 17.2095 102.268 17.4549 102.856C17.9031 103.93 18.4111 105.148 18.2897 105.843C18.2317 106.175 18.1464 106.545 18.0561 106.937C17.8686 107.75 17.656 108.672 17.6831 109.356C17.7226 110.353 17.5661 111.755 17.2938 112.845C17.1648 113.361 17.3373 113.924 17.5041 114.468C17.6483 114.938 17.7974 115.424 17.7431 115.874C17.6407 116.721 17.1592 117.157 16.3119 117.171L16.2852 117.171C15.9337 117.171 15.595 117.059 15.2961 116.96C15.0557 116.88 14.8286 116.805 14.6439 116.805L14.629 116.805C14.4481 116.809 14.2665 116.89 14.0744 116.976C13.8457 117.077 13.5865 117.193 13.285 117.193C13.2631 117.193 13.241 117.192 13.2187 117.191C12.8957 117.173 12.7229 117.071 12.5703 116.982C12.4485 116.91 12.3522 116.854 12.1852 116.846C12.1752 116.845 12.1655 116.845 12.1559 116.845C11.997 116.845 11.9018 116.909 11.7814 116.991C11.6506 117.079 11.5023 117.179 11.2652 117.191C11.247 117.192 11.2295 117.192 11.2128 117.192C10.9583 117.192 10.8329 117.094 10.7223 117.008C10.6441 116.946 10.5765 116.894 10.4538 116.862C10.4351 116.857 10.417 116.855 10.3983 116.855C10.2905 116.855 10.1782 116.936 10.0592 117.022C9.91584 117.126 9.76753 117.233 9.58394 117.233C9.56999 117.233 9.55589 117.232 9.5418 117.231C9.31004 117.209 9.18963 117.112 9.08345 117.026C9.01847 116.974 8.96239 116.929 8.87952 116.899C8.86909 116.895 8.85753 116.893 8.84437 116.893C8.77008 116.893 8.66065 116.95 8.54483 117.01C8.37214 117.1 8.15718 117.211 7.91138 117.211C7.38339 117.211 7.11315 116.949 6.94743 116.275C6.78099 115.599 6.92731 114.5 7.46028 113.834C7.59789 113.661 7.8169 113.399 8.07053 113.095C8.71866 112.318 9.60639 111.254 9.9888 110.677C10.5223 109.871 10.7387 108.429 10.4255 107.765C10.0253 106.917 9.94122 106.125 10.1758 105.411L10.2546 105.174C10.4739 104.514 10.7008 103.832 10.7988 103.002C10.8794 102.321 10.8431 100.668 10.7752 99.4154C10.7116 99.1344 10.6598 98.838 10.6214 98.5338C10.4576 97.2363 9.67855 91.3307 9.13143 88.2268C8.95487 87.7787 8.80678 87.2159 8.67593 86.719C8.6158 86.4904 8.55891 86.2747 8.50476 86.0904C8.19378 85.0322 7.54932 81.3847 7.36446 80.0417C7.17057 78.6321 7.31263 75.9551 7.40452 75.0762C7.47762 74.3773 7.67317 72.9827 8.16117 71.4956C8.52397 70.3901 8.53911 69.5521 8.55022 68.9402C8.55261 68.8071 8.55487 68.6834 8.56018 68.5682C8.57027 68.3516 8.62337 68.1302 8.72238 67.8923C8.7059 67.4714 8.69315 66.9151 8.6863 66.3208C8.61102 65.5245 8.59094 63.3422 8.64643 61.9263C8.68716 60.887 9.03481 59.4142 9.31408 58.2308C9.43249 57.7292 9.53489 57.2956 9.59974 56.9583C9.62638 56.6089 9.60319 56.1392 9.53084 55.5616L9.52971 55.5588C8.55752 53.1642 7.57117 50.6566 7.1293 48.6355C6.90742 47.6207 6.86471 45.8425 6.82338 44.1228C6.80577 43.3907 6.78756 42.6337 6.75566 41.9578C6.36675 39.0803 6.01278 35.7508 5.98388 34.699C5.96108 33.8741 6.10348 32.1385 6.32236 30.5723L6.33711 30.298C6.41785 28.8382 6.5399 26.6321 6.83574 25.3932C7.23389 23.7257 7.98853 19.2896 7.95783 17.8765C7.92667 16.4401 8.66031 13.3672 9.20192 11.7011C9.31382 11.2283 9.51276 10.4894 9.68824 9.83756C9.75562 9.58729 9.81889 9.35223 9.87137 9.15404C9.63064 8.69312 9.825 3.59455 9.99683 3.03943C10.0421 2.62 10.0911 2.23076 10.1426 1.88009C10.1077 1.83101 10.1158 1.79132 10.2255 1.36346C10.3033 0.911255 10.3875 0.536118 10.4735 0.259178C10.5173 0.101463 10.5729 -0.0606308 10.6319 -0.232246C10.7639 -0.616638 10.9003 -1.01412 10.9264 -1.44125C10.8632 -2.10915 10.8644 -2.88011 10.9291 -3.28598C10.9318 -3.77042 10.9321 -4.39331 10.9112 -4.95223C10.8344 -5.15609 10.7538 -5.35722 10.6658 -5.57677C10.5662 -5.82531 10.4573 -6.09733 10.3338 -6.423C9.8946 -7.5816 9.34255 -9.62905 8.80865 -11.6092C8.52505 -12.661 8.25714 -13.6545 8.01793 -14.4714C7.94397 -14.7237 7.87235 -14.988 7.80344 -15.2623C7.78604 -15.0956 7.76557 -14.9149 7.74218 -14.7206C7.66775 -14.1018 7.28057 -12.8699 6.83211 -11.4436C6.06544 -9.00496 5.11133 -5.96993 5.18708 -4.36032C5.28031 -2.37691 4.63244 -0.807602 4.2432 -0.361099C4.14911 0.0560684 4.07282 0.35228 4.01037 0.542976C3.99164 0.663467 3.97329 0.784538 3.95489 0.905762C3.89282 1.3152 3.82858 1.73869 3.74996 2.14176C3.66159 2.75626 3.47865 3.46352 3.19173 4.29718C2.90329 5.13577 2.05343 7.20541 0.918112 9.8342C0.767603 10.3215 0.600424 10.8559 0.423611 11.4211C-0.717018 15.0677 -2.27926 20.0619 -2.31854 21.8349C-2.32983 22.343 -2.04524 23.1206 -1.57519 24.3406C-1.05365 25.6945 -1.14389 28.3533 -2.33847 30.614C-2.84666 31.5759 -3.29677 33.0464 -3.732 34.4685C-4.1548 35.8498 -4.55408 37.1544 -4.94845 37.7412C-5.18328 38.0906 -5.42641 38.2678 -5.67093 38.2678C-5.92098 38.2678 -6.10902 38.0863 -6.23613 37.9C-6.43381 38.9118 -6.89196 40.7257 -7.65392 40.8643C-7.70848 40.8743 -7.76216 40.8793 -7.81347 40.8793C-8.18862 40.8793 -8.4618 40.6199 -8.5992 40.1506C-8.83643 40.9595 -9.27105 42.0442 -9.89559 42.0442L-9.91579 42.0438C-10.7951 42.0117 -10.821 40.8567 -10.781 39.5553C-10.8506 39.5941 -10.9295 39.6143 -11.0156 39.6143C-11.5914 39.6143 -12.2834 38.7492 -12.4127 37.8676C-12.7325 35.6859 -12.5206 33.0722 -12.3659 31.1638C-12.2898 30.226 -12.2115 29.2592 -12.2759 28.9858C-12.3945 29.0954 -12.5456 29.2913 -12.7184 29.5151C-13.0429 29.9354 -13.4466 30.4584 -13.9202 30.7843C-14.3044 31.0489 -14.7624 31.1886 -15.2446 31.1886C-16.0014 31.1886 -16.6675 30.8467 -16.8284 30.3757C-16.8892 30.1977 -16.924 29.847 -16.4743 29.4988C-15.3022 28.5911 -13.0557 25.3122 -12.2571 23.3438C-11.7246 22.0312 -10.7437 21.5961 -9.95558 21.2465C-9.48507 21.0378 -9.07874 20.8576 -8.87848 20.5411C-8.48525 19.9198 -7.91931 17.2541 -7.19637 12.6181C-7.09304 11.4815 -7.00845 10.7415 -6.93118 10.2978C-6.88533 10.0349 -6.83762 9.74096 -6.78892 9.42919C-6.75444 6.40041 -6.69942 3.03093 -6.48446 1.35317C-6.07142 -1.87129 -4.71961 -5.7892 -3.53254 -7.20219C-3.36296 -7.40405 -3.2116 -7.58757 -3.07632 -7.75167C-2.66495 -8.25055 -2.41058 -8.55893 -2.21855 -8.68979C-2.04838 -8.91779 -1.90293 -9.34573 -1.78598 -9.96263C-1.95144 -12.4332 -1.68431 -15.0934 -1.07074 -17.0858C-0.983823 -17.9127 -0.913862 -18.5638 -0.870669 -18.8065C-0.729006 -19.6026 -0.880903 -20.3705 -1.0029 -20.9877C-1.06071 -21.2801 -1.11068 -21.5327 -1.11619 -21.7324C-1.12981 -22.2219 -1.21719 -22.8682 -1.34955 -23.8464C-1.41167 -24.306 -1.48344 -24.8363 -1.56145 -25.4541C-1.83096 -27.5889 -1.43281 -30.1501 -0.496357 -32.3053C0.606209 -34.8429 1.84385 -36.2045 3.77547 -37.0051C4.2713 -37.2105 5.18036 -37.318 5.82205 -37.318C5.86337 -37.318 5.90404 -37.3176 5.94405 -37.3167C7.50323 -38.1385 8.89915 -38.4306 9.62396 -38.4306C9.73658 -38.4306 9.83832 -38.4238 9.92669 -38.4104C9.96841 -38.4125 10.0124 -38.4135 10.0586 -38.4135C10.1493 -38.4135 10.2488 -38.4097 10.3456 -38.4045C10.3761 -38.7216 10.7893 -38.9567 11.2826 -39.2036C11.9683 -39.5466 12.6835 -39.8603 13.4083 -40.136C14.2461 -40.4547 15.0884 -40.7179 16.0953 -41.015C16.2184 -41.0513 16.3425 -41.0858 16.4666 -41.1202C17.1926 -41.3218 17.8782 -41.5122 18.3795 -42.059C18.5228 -42.2153 18.6432 -42.3883 18.7706 -42.5715C18.8311 -42.6585 18.8917 -42.7454 18.9545 -42.8302C19.1485 -43.0919 19.3491 -43.3625 19.4575 -43.6671C19.509 -43.8119 19.4963 -43.976 19.4827 -44.1498C19.477 -44.2244 19.4712 -44.2988 19.4702 -44.3723C19.4668 -44.6069 19.467 -44.8546 19.4708 -45.1298C19.478 -45.649 19.494 -46.2615 19.5574 -46.8727C19.5449 -47.045 19.5321 -47.1326 19.5235 -47.176C19.5074 -47.2562 19.4942 -47.3376 19.4805 -47.4215C19.4179 -47.8055 19.347 -48.2408 18.9353 -48.8548C18.5836 -49.3794 18.4863 -50.5976 18.4666 -51.5273C18.4628 -51.7069 18.3163 -51.8531 18.1401 -51.8531C18.1171 -51.8531 18.0939 -51.8506 18.071 -51.8456C17.9662 -51.8228 17.8565 -51.8107 17.7537 -51.8107C17.4768 -51.8107 17.248 -51.8947 17.0921 -52.0538C16.9313 -52.2178 16.8526 -52.4536 16.8583 -52.7546C16.8784 -53.8064 16.6645 -54.4167 16.4759 -54.9551C16.3807 -55.2266 16.2909 -55.4831 16.2368 -55.7717C16.1407 -56.2846 16.0823 -56.9741 16.3492 -57.3469C16.4542 -57.4934 16.5982 -57.5807 16.7774 -57.6063C16.8212 -57.6127 16.8664 -57.6158 16.9116 -57.6158C17.0601 -57.6158 17.2154 -57.5819 17.3732 -57.5148C17.3948 -57.5057 17.417 -57.5011 17.4394 -57.5011C17.4873 -57.5011 17.5349 -57.5226 17.5697 -57.5601C17.6053 -57.5985 17.6228 -57.6485 17.6188 -57.7007C17.5033 -59.2397 17.3978 -63.0286 18.9106 -64.9696C20.7094 -67.2776 23.4761 -67.7452 24.5822 -67.8391C24.7251 -67.8512 24.8977 -67.8643 25.136 -67.8643C25.3148 -67.8643 25.5086 -67.8566 25.7122 -67.8414C26.8385 -67.7577 29.6551 -67.3102 31.4793 -64.9696C32.9921 -63.0283 32.8865 -59.2396 32.7709 -57.7007C32.767 -57.6485 32.7845 -57.5985 32.8202 -57.5601C32.855 -57.5225 32.9024 -57.5011 32.9505 -57.5011C32.9728 -57.5011 32.995 -57.5057 33.0166 -57.5148C33.1744 -57.5819 33.3297 -57.6158 33.4782 -57.6158C33.5234 -57.6158 33.5686 -57.6127 33.6125 -57.6063C33.7916 -57.5807 33.9356 -57.4934 34.0406 -57.3469C34.3075 -56.9741 34.249 -56.2846 34.1529 -55.7717C34.0989 -55.4831 34.009 -55.2266 33.9139 -54.9551C33.7252 -54.4167 33.5114 -53.8065 33.5315 -52.7546C33.5372 -52.4536 33.4585 -52.2178 33.2977 -52.0537C33.1418 -51.8947 32.913 -51.8106 32.6362 -51.8106C32.5333 -51.8106 32.4235 -51.8228 32.3187 -51.8456C32.2959 -51.8506 32.2727 -51.8531 32.2497 -51.8531C32.0736 -51.8531 31.927 -51.7069 31.9233 -51.5272C31.9035 -50.5974 31.806 -49.379 31.4545 -48.8548C31.0428 -48.2408 30.9719 -47.8055 30.9093 -47.4215C30.8957 -47.3376 30.8824 -47.2562 30.8664 -47.176C30.8577 -47.1326 30.8449 -47.045 30.8324 -46.8727C30.9171 -46.0579 30.925 -45.2561 30.9216 -44.5787C30.9211 -44.4833 30.9159 -44.3864 30.9107 -44.2894C30.9034 -44.152 30.8965 -44.0222 30.9025 -43.895C30.9177 -43.5751 31.1492 -43.2399 31.3534 -42.9442C31.3825 -42.902 31.4109 -42.8609 31.4379 -42.8209C31.7 -42.4328 31.9711 -42.0315 32.3392 -41.7435C32.6396 -41.5084 32.9978 -41.4016 33.3769 -41.2886L33.7073 -41.1885C35.5084 -40.6397 37.3708 -40.0723 39.1072 -39.2035L39.2133 -39.1513C39.4365 -39.0426 39.6895 -38.9193 39.8652 -38.7354C39.9588 -38.6375 40.0183 -38.5205 40.0372 -38.4031C40.2097 -38.411 40.3691 -38.4148 40.521 -38.4148C41.1146 -38.4148 41.624 -38.355 42.1239 -38.2265C42.8959 -38.0281 43.6768 -37.7221 44.4457 -37.3167C44.4857 -37.3176 44.5264 -37.318 44.5677 -37.318C45.2094 -37.318 46.1185 -37.2105 46.6142 -37.0051C48.5459 -36.2046 49.7836 -34.8429 50.8862 -32.3053C51.8226 -30.1502 52.2207 -27.5891 51.9513 -25.4541C51.8732 -24.8361 51.8014 -24.3055 51.7393 -23.8458C51.607 -22.8679 51.5196 -22.2219 51.506 -21.7324C51.5004 -21.5327 51.4505 -21.2801 51.3927 -20.9877C51.2707 -20.3706 51.1188 -19.6026 51.2604 -18.8065C51.3037 -18.5639 51.3736 -17.9131 51.4604 -17.0866C52.0815 -15.0715 52.347 -12.3836 52.1715 -9.88877C52.2846 -9.30692 52.4286 -8.90564 52.6 -8.69513C52.7934 -8.5674 53.0506 -8.25557 53.4674 -7.7501C53.6023 -7.58646 53.7533 -7.40349 53.9224 -7.20222C55.1094 -5.7891 56.4612 -1.8712 56.8743 1.35313C57.0893 3.03102 57.1443 6.40031 57.1788 9.42921C57.2274 9.741 57.2751 10.0349 57.3209 10.2977C57.3973 10.7362 57.4844 11.4981 57.5872 12.6267C58.3091 17.2541 58.8751 19.9198 59.2683 20.5411C59.4686 20.8576 59.8749 21.0378 60.3454 21.2465C61.1335 21.5961 62.1144 22.0311 62.6469 23.3437C63.4454 25.3122 65.692 28.591 66.8641 29.4988C67.3139 29.847 67.279 30.1977 67.2182 30.3757C67.0574 30.8467 66.3913 31.1886 65.6344 31.1886C65.1522 31.1886 64.6942 31.0488 64.3099 30.7843C63.8365 30.4584 63.4327 29.9354 63.1083 29.5153C62.9356 29.2914 62.7843 29.0955 62.6657 28.9858C62.6014 29.2593 62.6797 30.2259 62.7557 31.1633C62.9104 33.0719 63.1223 35.6858 62.8025 37.8675C62.6733 38.7491 61.9812 39.6142 61.4053 39.6142C61.3198 39.6142 61.2412 39.5942 61.1719 39.5558C61.2106 40.857 61.1834 42.0116 60.3056 42.0438L60.2854 42.0441C59.6608 42.0441 59.2262 40.9594 58.989 40.1504C58.8516 40.6197 58.5784 40.8792 58.2033 40.8792C58.152 40.8792 58.0983 40.8742 58.0437 40.8643C57.282 40.7256 56.8237 38.9118 56.626 37.9C56.4988 38.0862 56.3107 38.2677 56.0607 38.2677C55.8162 38.2677 55.5731 38.0905 55.3383 37.7411C54.9439 37.1543 54.5446 35.8497 54.1218 34.4685C53.6865 33.0463 53.2365 31.5758 52.7282 30.6139C51.5337 28.353 51.4434 25.6943 51.965 24.3405C52.4351 23.1204 52.7197 22.3428 52.7084 21.8348C52.6692 20.062 51.1072 15.0685 49.9666 11.4224C49.7897 10.8568 49.6223 10.3219 49.4717 9.83418C48.3364 7.20519 47.4865 5.13554 47.1981 4.2971C46.9111 3.46324 46.7282 2.75597 46.6387 2.13488C46.5613 1.73866 46.4971 1.31551 46.435 0.906258C46.4166 0.78492 46.3982 0.663643 46.3795 0.542953C46.317 0.352386 46.2407 0.0561752 46.1466 -0.361183C45.7574 -0.807602 45.1095 -2.37698 45.2028 -4.3604C45.2785 -5.97008 44.3243 -9.00518 43.5576 -11.444C43.1092 -12.8702 42.722 -14.1019 42.6476 -14.7206C42.6242 -14.9149 42.6038 -15.0957 42.5863 -15.2623C42.5175 -14.9881 42.4459 -14.7238 42.3719 -14.4714C42.1326 -13.6546 41.8648 -12.661 41.5811 -11.6091C41.0472 -9.62906 40.4952 -7.58167 40.056 -6.42307C39.9326 -6.09761 39.8237 -5.82573 39.7242 -5.57725C39.6361 -5.35756 39.5555 -5.1563 39.4787 -4.95224C39.4577 -4.39205 39.4579 -3.76984 39.4607 -3.28611C39.5254 -2.88025 39.5266 -2.10929 39.4634 -1.44131C39.4896 -1.01418 39.626 -0.616768 39.7579 -0.232323C39.8168 -0.0607681 39.8724 0.101265 39.9174 0.262764C40.0022 0.535706 40.0865 0.910851 40.1666 1.37396C40.2715 1.78241 40.2816 1.82889 40.2498 1.87637C40.3245 2.25795 40.5491 3.16942 40.663 3.63133C40.6979 3.77316 40.724 3.87927 40.7351 3.92609C40.8285 4.32271 40.8155 8.68783 40.5206 9.16196C40.5728 9.35938 40.6356 9.59263 40.7024 9.84084C40.8776 10.4915 41.0761 11.229 41.1907 11.7117C41.7294 13.3669 42.4631 16.4398 42.432 17.8764C42.4012 19.2895 43.1559 23.7256 43.5541 25.3932C43.8501 26.6329 43.9722 28.8402 44.0528 30.3009L44.0686 30.5836C44.2827 32.1129 44.4283 33.8869 44.4059 34.6989C44.377 35.7508 44.0231 39.0805 43.6331 41.9697C43.6022 42.6337 43.584 43.3906 43.5664 44.1227C43.5251 45.8424 43.4824 47.6206 43.2604 48.6354C42.8187 50.6566 41.8323 53.1641 40.8599 55.5593L40.8592 55.5591C40.7866 56.1376 40.7634 56.6083 40.79 56.9581C40.8549 57.2953 40.9572 57.7289 41.0756 58.2303C41.3549 59.4138 41.7027 60.8867 41.7433 61.9262C41.7989 63.3418 41.7788 65.5242 41.7028 66.3322C41.6967 66.9131 41.6839 67.4691 41.6674 67.8922C41.7664 68.1302 41.8195 68.3517 41.8296 68.5682C41.8349 68.6834 41.8372 68.8073 41.8396 68.9404C41.8507 69.5522 41.8659 70.3903 42.2286 71.4956C42.7167 72.983 42.9122 74.3774 42.9853 75.0762C43.0772 75.955 43.2192 78.6319 43.0253 80.0416C42.8406 81.3844 42.1961 85.0318 41.885 86.0903C41.831 86.2744 41.7742 86.4899 41.7141 86.7181C41.5832 87.2153 41.435 87.7783 41.2584 88.2268C40.7113 91.3307 39.9322 97.2363 39.7684 98.5338C39.73 98.8371 39.6783 99.1337 39.6146 99.4153C39.5466 100.667 39.5104 102.32 39.591 103.002C39.689 103.831 39.9158 104.513 40.135 105.173L40.214 105.411C40.4485 106.125 40.3645 106.917 39.9643 107.765C39.6512 108.429 39.8675 109.871 40.401 110.677C40.7836 111.255 41.6716 112.319 42.3201 113.096C42.5733 113.399 42.7921 113.662 42.9295 113.834C43.4625 114.5 43.6088 115.599 43.4423 116.275C43.2767 116.949 43.0064 117.211 42.4784 117.211C42.2326 117.211 42.0177 117.1 41.8449 117.01C41.7291 116.95 41.6197 116.893 41.5454 116.893C41.5322 116.893 41.5207 116.895 41.5102 116.899C41.4274 116.929 41.3713 116.974 41.3063 117.026C41.2001 117.112 41.0798 117.209 40.8479 117.231C40.8338 117.232 40.8198 117.233 40.8058 117.233Z" fill="white" stroke="#28839F" stroke-width="0.7"/>
<path d="M16.5267 -22.426C15.5924 -22.1767 14.9647 -21.3704 12.8956 -20.9239C11.5489 -20.6332 8.73699 -20.9645 8.10813 -21.1675C7.47926 -21.3704 7.05326 -20.5991 7.13441 -19.9901C7.21554 -19.3811 7.45899 -16.864 8.1487 -14.5094C8.83841 -12.1547 9.79185 -8.23694 10.4613 -6.47091C11.1307 -4.7049 11.3741 -4.52221 12.003 -1.07136C12.6319 2.37949 14.4779 4.3079 14.9647 5.58674C15.4516 6.86558 17.5816 5.78973 17.3585 3.80042C17.1353 1.81111 17.1962 0.349566 18.251 -2.2893C19.3059 -4.92818 20.4825 -7.44527 21.3345 -8.8256C22.1865 -10.2059 22.4603 -11.6472 22.1256 -12.8854C21.7909 -14.1237 20.9592 -15.9709 20.3607 -17.0061C19.7623 -18.0414 18.3322 -20.2032 17.8656 -21.0862C17.399 -21.9693 17.3077 -22.1317 17.1962 -22.2839C17.0846 -22.4361 16.831 -22.5072 16.5267 -22.426Z" fill="#28839F" fill-opacity="0.2"/>
<path d="M13.5853 3.86158C14.0088 4.60816 14.4576 5.36371 14.7416 6.21628C15.0256 7.06884 14.4779 7.77929 13.8693 8.08379C13.2607 8.38827 11.9117 8.40858 10.9887 8.69275C10.0657 8.97695 9.70056 9.38292 9.46727 9.32202C9.23398 9.26113 9.66488 8.23925 9.93385 7.6981C10.8873 5.77984 12.286 3.46197 12.6522 3.2526C12.8652 3.13081 13.1593 3.11051 13.5853 3.86158Z" fill="#28839F" fill-opacity="0.2"/>
<path d="M11.7863 1.05005C10.8957 1.43198 9.96246 3.21571 9.78749 3.95789C9.66373 4.48285 9.60535 5.35955 9.60241 6.07413C9.60045 6.54565 9.50651 6.99642 9.62583 7.01037C10.2116 7.07888 10.4018 5.78482 11.5403 4.15085C11.8735 3.67273 12.2566 2.83637 12.4088 2.54203C12.5609 2.24769 12.3543 0.806469 11.7863 1.05005Z" fill="#28839F" fill-opacity="0.2"/>
<path d="M11.2018 -0.823136C10.7431 -0.302929 10.2465 1.81952 10.2616 1.81112C10.4874 1.6852 10.8084 1.36793 11.0953 1.12558C11.3569 0.904655 11.7343 0.638407 11.7191 0.227342C11.7039 -0.18371 11.5441 -1.21135 11.2018 -0.823136Z" fill="#28839F" fill-opacity="0.2"/>
<path d="M24.0427 10.0318C24.1035 8.96606 24.1339 4.82506 24.0122 3.57666C23.8905 2.32827 24.3926 -1.14287 24.1644 -2.45216C23.9362 -3.76145 24.713 -7.2596 24.4382 -8.2983C24.2356 -9.06426 22.4898 -9.00971 21.1722 -6.75557C20.5434 -5.67972 19.8739 -4.23848 19.4277 -3.34532C18.9814 -2.45216 17.7845 0.937778 18.0888 2.5414C18.3931 4.14503 18.0685 5.42388 16.8716 6.43883C15.2472 7.81639 17.2984 8.40599 18.5351 8.84427C19.9957 9.3619 21.791 11.6456 22.3082 12.6503C22.8255 13.6552 24.423 14.5229 24.2253 13.1071C24.0275 11.6912 24.0427 10.0318 24.0427 10.0318Z" fill="#28839F" fill-opacity="0.2"/>
<path d="M18.6565 11.1587C18.2043 11.3771 17.7893 12.1331 17.0742 12.6202C16.3591 13.1074 14.4878 13.7468 13.301 14.4776C12.1143 15.2084 9.83217 16.6293 9.44674 18.6186C9.06131 20.6079 9.26416 26.1699 10.2987 28.4028C11.3333 30.6357 13.9502 32.8483 15.8165 33.031C17.6828 33.2137 20.5431 32.9498 22.3079 32.016C24.0728 31.0823 24.4785 29.7425 24.6611 28.8088C24.8437 27.875 24.7017 24.4851 24.5799 22.6378C24.4582 20.7906 24.2171 19.5448 24.3771 17.8879C24.6357 15.2084 19.9034 10.5563 18.6565 11.1587Z" fill="#28839F"/>
<path d="M11.4955 10.8444C11.2198 11.6866 10.9377 12.2653 10.5421 13.0976C10.1465 13.9298 9.8118 15.2899 9.75094 15.9394C9.69008 16.589 10.0755 16.1729 10.6435 15.7568C11.2115 15.3406 12.5504 14.2445 13.4835 13.808C14.4167 13.3716 15.7961 12.6814 16.4047 12.4277C17.0133 12.174 17.632 11.6462 17.8653 11.1895C18.0985 10.7327 17.3682 10.2151 16.6075 10.2354C15.8468 10.2557 14.1428 10.0527 13.2807 10.0324C12.4185 10.0121 11.6882 10.2557 11.4955 10.8444Z" fill="#28839F"/>
<path d="M10.5017 38.9579C10.2583 41.2416 9.89313 45.5653 9.95399 48.7015C10.0148 51.8377 9.93877 55.7199 9.77142 56.7704C9.60405 57.8209 8.84334 60.3785 8.78248 61.9314C8.72163 63.4843 8.75205 66.1486 8.85855 66.5748C8.96505 67.0011 9.58883 65.7071 10.3496 64.413C11.1103 63.1189 13.362 58.643 13.6967 56.9835C14.0314 55.3241 14.5487 47.0725 14.6248 44.8041C14.7009 42.5357 14.9443 38.7296 15.5376 36.6438C16.909 31.8234 11.1122 33.2304 10.5017 38.9579Z" fill="#28839F" fill-opacity="0.2"/>
<path d="M17.8959 34.2391C17.6074 35.6246 19.3717 38.0604 20.0259 40.2679C20.6801 42.4755 20.9235 45.8705 20.9742 47.3117C21.0079 48.2672 21.0047 48.9661 21.101 49.2706C21.1205 49.3322 21.1654 49.5111 21.1876 49.5472C21.2352 49.6246 21.3331 49.138 21.651 48.69C22.1144 48.037 22.4542 46.7182 22.6377 44.9672C22.9069 42.3976 23.084 40.0548 23.4035 39.1413C23.723 38.2279 24.3467 36.0356 24.1642 34.909C23.9816 33.7824 23.6773 32.6253 22.6427 32.7471C21.6082 32.8689 21.5777 33.0313 20.5584 33.3815C19.539 33.7316 18.048 33.5083 17.8959 34.2391Z" fill="#28839F" fill-opacity="0.2"/>
<path d="M7.90515 28.0779C8.02368 30.2919 8.67601 34.33 9.24401 36.1976C9.81201 38.0651 9.8323 40.3589 9.64972 43.0181C9.46715 45.6772 9.34544 49.4326 9.44687 51.6655C9.5483 53.8984 9.60915 54.7712 9.40629 54.3449C9.20343 53.9186 7.86457 46.9764 7.45887 45.4133C7.05314 43.8503 6.16693 36.4006 6.12 34.6954C6.08161 33.3008 6.52571 29.3568 6.89086 28.4433C7.256 27.5299 7.84429 26.9412 7.90515 28.0779Z" fill="#28839F" fill-opacity="0.2"/>
<path d="M16.2427 34.2386C16.068 35.1152 16.0297 36.0351 15.8167 37.0196C15.6037 38.0041 14.9444 44.6926 14.8734 45.9207C14.8024 47.1488 14.5691 51.8886 14.5082 53.0964C14.4474 54.3042 14.3662 56.2428 14.0417 57.278C13.7171 58.3133 14.1735 61.0435 14.559 62.505C14.9444 63.9666 16.6281 67.6813 17.0338 68.3512C17.4395 69.0211 16.4033 63.4909 16.3999 62.297C16.3975 61.4598 16.8278 59.6428 17.2215 57.613C17.6654 55.3239 18.1074 52.7684 18.6719 51.1223C19.7369 48.0166 19.9956 42.8251 19.813 41.394C19.6304 39.9629 18.7987 37.9533 18.2916 37.0906C17.7844 36.2279 17.4205 34.623 17.4091 34.2538C17.3977 33.8846 16.3314 33.7933 16.2427 34.2386Z" fill="#28839F" fill-opacity="0.2"/>
<path d="M19.9144 46.1648C19.9095 47.6424 19.5442 49.7628 18.824 51.8435C18.1039 53.9241 17.7134 56.629 17.4598 57.918C17.2062 59.207 16.6078 61.4196 16.7295 63.0232C16.8512 64.6268 17.2468 66.809 17.5207 67.7732C17.7945 68.7374 17.9872 69.5189 18.2307 69.3565C18.4741 69.1941 18.5857 68.2096 19.0015 67.2454C19.4174 66.2812 19.9651 62.9522 20.0158 61.3587C20.0665 59.7652 20.3404 57.1365 20.665 55.8475C20.9895 54.5585 21.3344 51.2396 21.1924 50.4276C21.0504 49.6157 20.6751 49.2807 20.6447 48.3571C20.6143 47.4335 20.6396 46.6596 20.5128 45.8781C20.4494 45.4873 20.2859 44.0988 20.1781 44.0436C20.0704 43.9884 19.9169 45.4011 19.9144 46.1648Z" fill="#28839F" fill-opacity="0.2"/>
<path d="M33.8636 -22.426C34.7979 -22.1767 35.4256 -21.3704 37.4947 -20.9239C38.8414 -20.6332 41.6533 -20.9645 42.2822 -21.1675C42.911 -21.3704 43.337 -20.5991 43.2559 -19.9901C43.1747 -19.3811 42.9313 -16.864 42.2416 -14.5094C41.5519 -12.1547 40.5985 -8.23694 39.929 -6.47091C39.2596 -4.7049 39.0162 -4.52221 38.3873 -1.07136C37.7584 2.37949 35.9124 4.3079 35.4256 5.58674C34.9387 6.86558 32.8087 5.78973 33.0319 3.80042C33.255 1.81111 33.1941 0.349566 32.1393 -2.2893C31.0844 -4.92818 29.9078 -7.44527 29.0558 -8.8256C28.2038 -10.2059 27.93 -11.6472 28.2647 -12.8854C28.5994 -14.1237 29.4311 -15.9709 30.0296 -17.0061C30.628 -18.0414 32.0581 -20.2032 32.5247 -21.0862C32.9913 -21.9693 33.0826 -22.1317 33.1941 -22.2839C33.3057 -22.4361 33.5593 -22.5072 33.8636 -22.426Z" fill="#28839F" fill-opacity="0.2"/>
<path d="M36.8047 3.86158C36.3812 4.60816 35.9324 5.36371 35.6484 6.21628C35.3644 7.06884 35.9121 7.77929 36.5207 8.08379C37.1293 8.38827 38.4783 8.40858 39.4013 8.69275C40.3243 8.97695 40.6894 9.38292 40.9227 9.32202C41.156 9.26113 40.7251 8.23925 40.4561 7.6981C39.5027 5.77984 38.104 3.46197 37.7378 3.2526C37.5248 3.13081 37.2307 3.11051 36.8047 3.86158Z" fill="#28839F" fill-opacity="0.2"/>
<path d="M38.604 1.05005C39.4945 1.43198 40.4278 3.21571 40.6028 3.95789C40.7265 4.48285 40.7849 5.35955 40.7878 6.07413C40.7898 6.54565 40.8837 6.99642 40.7644 7.01037C40.1787 7.07888 39.9885 5.78482 38.8499 4.15085C38.5168 3.67273 38.1336 2.83637 37.9815 2.54203C37.8293 2.24769 38.036 0.806469 38.604 1.05005Z" fill="#28839F" fill-opacity="0.2"/>
<path d="M39.1881 -0.823136C39.6468 -0.302929 40.1435 1.81952 40.1284 1.81112C39.9025 1.6852 39.5816 1.36793 39.2946 1.12558C39.033 0.904655 38.6556 0.638407 38.6709 0.227342C38.6861 -0.18371 38.8458 -1.21135 39.1881 -0.823136Z" fill="#28839F" fill-opacity="0.2"/>
<path d="M46.5218 -4.6444C46.928 -3.67909 47.4347 -3.16764 48.0737 -2.75658C48.7127 -2.34553 48.3932 -1.15804 47.7085 -0.503384C47.0239 0.151254 46.8109 0.684112 46.6435 0.745008C46.4762 0.805905 46.0426 -1.59192 45.9285 -1.99538C45.8144 -2.39882 45.5709 -3.67005 45.7155 -4.05065C45.86 -4.43125 46.0958 -5.65681 46.5218 -4.6444Z" fill="#28839F" fill-opacity="0.2"/>
<path d="M26.3473 10.0318C26.2864 8.96606 26.256 4.82506 26.3777 3.57666C26.4994 2.32827 25.9974 -1.14287 26.2256 -2.45216C26.4538 -3.76145 25.677 -7.2596 25.9517 -8.2983C26.1543 -9.06426 27.9002 -9.00971 29.2177 -6.75557C29.8466 -5.67972 30.516 -4.23848 30.9623 -3.34532C31.4086 -2.45216 32.6055 0.937778 32.3012 2.5414C31.9969 4.14503 32.3215 5.42388 33.5183 6.43883C35.1428 7.81639 33.0916 8.40599 31.8549 8.84427C30.3943 9.3619 28.599 11.6456 28.0817 12.6503C27.5644 13.6552 25.9669 14.5229 26.1647 13.1071C26.3625 11.6912 26.3473 10.0318 26.3473 10.0318Z" fill="#28839F" fill-opacity="0.2"/>
<path d="M31.7334 11.1587C32.1856 11.3771 32.6006 12.1331 33.3157 12.6202C34.0308 13.1074 35.9022 13.7468 37.0889 14.4776C38.2756 15.2084 40.5577 16.6293 40.9432 18.6186C41.3286 20.6079 41.1257 26.1699 40.0912 28.4028C39.0566 30.6357 36.4397 32.8483 34.5734 33.031C32.7071 33.2137 29.8468 32.9498 28.082 32.016C26.3171 31.0823 25.9114 29.7425 25.7288 28.8088C25.5463 27.875 25.6883 24.4851 25.81 22.6378C25.9317 20.7906 26.1728 19.5448 26.0128 17.8879C25.7542 15.2084 30.4865 10.5563 31.7334 11.1587Z" fill="#28839F"/>
<path d="M38.8944 10.8444C39.1701 11.6866 39.4522 12.2653 39.8478 13.0976C40.2434 13.9298 40.5781 15.2899 40.639 15.9394C40.6998 16.589 40.3144 16.1729 39.7464 15.7568C39.1784 15.3406 37.8395 14.2445 36.9064 13.808C35.9732 13.3716 34.5938 12.6814 33.9852 12.4277C33.3766 12.174 32.7579 11.6462 32.5246 11.1895C32.2914 10.7327 33.0217 10.2151 33.7824 10.2354C34.5431 10.2557 36.2471 10.0527 37.1092 10.0324C37.9714 10.0121 38.7017 10.2557 38.8944 10.8444Z" fill="#28839F"/>
<path d="M39.8882 38.9579C40.1316 41.2416 40.4968 45.5653 40.4359 48.7015C40.3751 51.8377 40.4511 55.7199 40.6185 56.7704C40.7859 57.8209 41.5466 60.3785 41.6074 61.9314C41.6683 63.4843 41.6378 66.1486 41.5313 66.5748C41.4249 67.0011 40.8011 65.7071 40.0403 64.413C39.2796 63.1189 37.0279 58.643 36.6932 56.9835C36.3585 55.3241 35.8412 47.0725 35.7651 44.8041C35.689 42.5357 35.4456 38.7296 34.8523 36.6438C33.4809 31.8234 39.2777 33.2304 39.8882 38.9579Z" fill="#28839F" fill-opacity="0.2"/>
<path d="M32.494 34.2391C32.7825 35.6246 31.0182 38.0604 30.364 40.2679C29.7098 42.4755 29.4664 45.8705 29.4157 47.3117C29.382 48.2672 29.3852 48.9661 29.2889 49.2706C29.2694 49.3322 29.2245 49.5111 29.2023 49.5472C29.1547 49.6246 29.0568 49.138 28.7389 48.69C28.2755 48.037 27.9357 46.7182 27.7522 44.9672C27.483 42.3976 27.3059 40.0548 26.9864 39.1413C26.6669 38.2279 26.0431 36.0356 26.2257 34.909C26.4083 33.7824 26.7126 32.6253 27.7471 32.7471C28.7817 32.8689 28.8121 33.0313 29.8315 33.3815C30.8509 33.7316 32.3419 33.5083 32.494 34.2391Z" fill="#28839F" fill-opacity="0.2"/>
<path d="M42.4846 28.0779C42.3661 30.2919 41.7138 34.33 41.1458 36.1976C40.5778 38.0651 40.5575 40.3589 40.7401 43.0181C40.9226 45.6772 41.0444 49.4326 40.9429 51.6655C40.8415 53.8984 40.7806 54.7712 40.9835 54.3449C41.1864 53.9186 42.5252 46.9764 42.9309 45.4133C43.3367 43.8503 44.2229 36.4006 44.2698 34.6954C44.3082 33.3008 43.8641 29.3568 43.4989 28.4433C43.1338 27.5299 42.5455 26.9412 42.4846 28.0779Z" fill="#28839F" fill-opacity="0.2"/>
<path d="M34.1475 34.2386C34.3222 35.1152 34.3605 36.0351 34.5735 37.0196C34.7865 38.0041 35.4458 44.6926 35.5168 45.9207C35.5878 47.1488 35.8211 51.8886 35.882 53.0964C35.9428 54.3042 36.024 56.2428 36.3485 57.278C36.6731 58.3133 36.2167 61.0435 35.8312 62.505C35.4458 63.9666 33.7621 67.6813 33.3564 68.3512C32.9507 69.0211 33.9869 63.4909 33.9903 62.297C33.9927 61.4598 33.5624 59.6428 33.1687 57.613C32.7248 55.3239 32.2828 52.7684 31.7183 51.1223C30.6533 48.0166 30.3946 42.8251 30.5772 41.394C30.7598 39.9629 31.5915 37.9533 32.0986 37.0906C32.6058 36.2279 32.9697 34.623 32.9811 34.2538C32.9925 33.8846 34.0588 33.7933 34.1475 34.2386Z" fill="#28839F" fill-opacity="0.2"/>
<path d="M30.4754 46.1648C30.4803 47.6424 30.8456 49.7628 31.5658 51.8435C32.2859 53.9241 32.6764 56.629 32.93 57.918C33.1836 59.207 33.782 61.4196 33.6603 63.0232C33.5386 64.6268 33.143 66.809 32.8691 67.7732C32.5953 68.7374 32.4026 69.5189 32.1591 69.3565C31.9157 69.1941 31.8041 68.2096 31.3883 67.2454C30.9724 66.2812 30.4247 62.9522 30.374 61.3587C30.3233 59.7652 30.0494 57.1365 29.7248 55.8475C29.4003 54.5585 29.0554 51.2396 29.1974 50.4276C29.3394 49.6157 29.7147 49.2807 29.7451 48.3571C29.7755 47.4335 29.7502 46.6596 29.877 45.8781C29.9404 45.4873 30.1039 44.0988 30.2117 44.0436C30.3195 43.9884 30.4729 45.4011 30.4754 46.1648Z" fill="#28839F" fill-opacity="0.2"/>
</g>
<defs>
<clipPath id="clip0_4089_13881">
<rect width="41" height="48" fill="white" transform="translate(5)"/>
</clipPath>
</defs>
</svg>
