<svg width="61" height="48" viewBox="0 0 61 48" fill="none" xmlns="http://www.w3.org/2000/svg">
<g clip-path="url(#clip0_4089_13883)">
<path d="M43.8058 88.233C43.6222 88.233 43.4739 88.1258 43.3305 88.0221C43.2116 87.9361 43.0992 87.8548 42.9914 87.8548C42.9728 87.8548 42.9546 87.8572 42.936 87.8619C42.8132 87.8936 42.7456 87.9465 42.6674 88.0076C42.5567 88.0941 42.4314 88.1923 42.1771 88.1923C42.1603 88.1923 42.1427 88.1918 42.1246 88.1909C41.8874 88.1793 41.7392 88.0792 41.6084 87.9909C41.4879 87.9094 41.3928 87.8451 41.2338 87.8451C41.2243 87.8451 41.2145 87.8454 41.2045 87.8458C41.0376 87.8538 40.9414 87.9103 40.8194 87.9818C40.6669 88.0714 40.494 88.1729 40.171 88.1909C40.1486 88.1921 40.1266 88.1927 40.1047 88.1927C39.8033 88.1927 39.5441 88.0774 39.3153 87.9757C39.1232 87.8902 38.9416 87.8094 38.7608 87.8054L38.7459 87.8052C38.5611 87.8052 38.334 87.8804 38.0936 87.9599C37.7948 88.0588 37.4561 88.1709 37.1046 88.1709L37.0778 88.1707C36.2305 88.1571 35.749 87.7207 35.6467 86.8736C35.5924 86.4243 35.7415 85.938 35.8857 85.4677C36.0525 84.9238 36.2249 84.3614 36.096 83.8454C35.8236 82.7549 35.6672 81.3527 35.7067 80.3561C35.7337 79.672 35.5211 78.7502 35.3336 77.9369C35.2434 77.5453 35.1581 77.1755 35.1 76.8428C34.9787 76.1485 35.4867 74.9306 35.9349 73.856C36.1803 73.2676 36.412 72.7119 36.4588 72.4136C36.5085 72.0954 36.5116 71.021 36.4677 69.2202C36.3824 68.7848 36.3225 67.3354 36.2902 66.5533C36.2819 66.3534 36.2755 66.1971 36.2709 66.1128C36.2667 66.0352 36.2487 65.6542 36.2887 65.4565L36.2187 64.926C36.0793 63.8643 35.9476 62.8614 35.8329 62.432C35.8329 62.432 35.6511 61.7557 35.5987 61.5585C35.541 61.4679 35.4894 61.356 35.4414 61.2172C35.3429 60.9323 35.24 60.5374 35.1312 60.1193C34.9303 59.3479 34.7027 58.4737 34.4146 57.9163C34.1489 57.4024 33.9949 56.7247 33.944 55.8449C33.8628 55.4374 33.794 54.9695 33.7395 54.4539C33.4781 51.9776 33.7667 48.5005 34.0662 47.0436C34.2168 46.3107 34.4525 45.4235 34.6604 44.6408C34.859 43.8931 35.0466 43.1868 35.1202 42.7645C35.196 42.33 35.2129 42.0843 35.2231 41.9375C35.2297 41.842 35.2341 41.7784 35.2528 41.7278C35.2276 41.5934 35.2004 41.4413 35.1714 41.278C35.1231 41.0079 35.0688 40.7032 35.0087 40.3983C34.881 40.2467 34.7953 39.945 34.68 39.5397C34.5778 39.1803 34.4507 38.733 34.2635 38.2988C33.8274 37.2879 33.2886 33.9498 33.2381 32.3625C33.1867 30.7483 32.9153 28.1601 32.593 26.8802C32.3057 25.739 32.0018 22.9992 32.0309 21.8149C32.0055 21.5582 31.9801 21.3166 31.9546 21.1045C31.9278 20.8805 31.9096 20.5969 31.9005 20.261C31.843 20.1308 31.7546 19.9469 31.6279 19.7683C31.4621 19.5346 31.3089 19.2144 31.1726 18.8168C30.9593 18.2717 30.7103 17.225 30.6309 16.5365C30.5015 15.4142 29.6802 10.4649 29.2056 8.88705C28.6641 7.08648 29.0349 3.45602 29.0789 3.04797C29.0936 2.91193 29.1072 2.77734 29.1205 2.64516C29.159 2.26144 29.1956 1.89782 29.253 1.57408C29.0991 1.33511 28.9719 1.08356 28.8659 0.808487C28.6216 0.741203 28.3776 0.722786 28.276 0.722786H28.1137C28.0122 0.722786 27.7683 0.741203 27.5239 0.808487C27.4179 1.08363 27.2907 1.33518 27.1367 1.57408C27.1943 1.89829 27.2308 2.2624 27.2694 2.64671C27.2827 2.77843 27.2961 2.91248 27.3108 3.04798C27.3549 3.45596 27.7259 7.0861 27.1841 8.88707C26.7095 10.4651 25.8882 15.4143 25.7588 16.5366C25.6795 17.2249 25.4306 18.2716 25.2153 18.8221C25.0808 19.2146 24.9276 19.5348 24.7619 19.7683C24.6347 19.9475 24.5465 20.1312 24.4892 20.261C24.4802 20.5964 24.462 20.8801 24.4351 21.1045C24.4097 21.3166 24.3842 21.5583 24.3589 21.8148C24.388 22.9991 24.0841 25.739 23.7968 26.8802C23.4746 28.1598 23.2031 30.7479 23.1517 32.3625C23.1011 33.9499 22.5623 37.2881 22.1263 38.2988C21.939 38.7331 21.8119 39.1803 21.7097 39.5397C21.5945 39.9451 21.5088 40.2467 21.381 40.3983C21.3209 40.7032 21.2665 41.0079 21.2184 41.2781C21.1892 41.4414 21.1621 41.5934 21.1369 41.7277C21.1556 41.7784 21.16 41.842 21.1667 41.9376C21.1768 42.0843 21.1938 42.3299 21.2695 42.7645C21.3431 43.1869 21.5307 43.8934 21.7294 44.6413C21.9373 45.4238 22.173 46.3108 22.3236 47.0435C22.6231 48.5009 22.9117 51.9783 22.6502 54.4539C22.5956 54.9705 22.5266 55.4425 22.4452 55.8568C22.3934 56.7309 22.2397 57.4046 21.9752 57.9163C21.687 58.4737 21.4594 59.348 21.2586 60.1193C21.1497 60.5374 21.0469 60.9323 20.9483 61.2172C20.9004 61.3559 20.8488 61.468 20.7911 61.5586C20.7388 61.7552 20.5569 62.432 20.5569 62.432C20.4421 62.8615 20.3104 63.8645 20.171 64.9264L20.1011 65.4564C20.1411 65.6543 20.1231 66.0352 20.1188 66.1128C20.1142 66.1971 20.1078 66.3535 20.0995 66.5535C20.0672 67.3355 20.0073 68.7848 19.9221 69.2201C19.8782 71.0212 19.8812 72.0957 19.931 72.4136C19.9777 72.7119 20.2095 73.2676 20.4549 73.8559C20.9031 74.9305 21.4111 76.1484 21.2897 76.8427C21.2317 77.1755 21.1464 77.5452 21.0561 77.9367C20.8686 78.75 20.656 79.6719 20.6831 80.3561C20.7226 81.3529 20.5661 82.7552 20.2938 83.8454C20.1648 84.3615 20.3373 84.9238 20.5041 85.4678C20.6483 85.938 20.7974 86.4243 20.7431 86.8735C20.6407 87.7206 20.1592 88.1571 19.3119 88.1707L19.2852 88.1709C18.9337 88.1709 18.595 88.0588 18.2961 87.9599C18.0557 87.8803 17.8286 87.8051 17.6439 87.8051L17.629 87.8053C17.4481 87.8093 17.2665 87.8901 17.0744 87.9756C16.8457 88.0774 16.5865 88.1927 16.285 88.1927C16.2631 88.1927 16.241 88.1921 16.2187 88.1909C15.8957 88.1729 15.7229 88.0714 15.5703 87.9819C15.4485 87.9103 15.3522 87.8538 15.1852 87.8458C15.1752 87.8454 15.1655 87.8451 15.1559 87.8451C14.997 87.8451 14.9018 87.9094 14.7814 87.9908C14.6506 88.0791 14.5023 88.1793 14.2652 88.1909C14.247 88.1918 14.2295 88.1922 14.2128 88.1922C13.9583 88.1922 13.8329 88.0941 13.7223 88.0076C13.6441 87.9464 13.5765 87.8936 13.4538 87.8619C13.4351 87.8571 13.417 87.8548 13.3983 87.8548C13.2905 87.8548 13.1782 87.9361 13.0592 88.0221C12.9158 88.1258 12.7675 88.233 12.5839 88.233C12.57 88.233 12.5559 88.2323 12.5418 88.231C12.31 88.2093 12.1896 88.1121 12.0834 88.0264C12.0185 87.9739 11.9624 87.9286 11.8795 87.8988C11.8691 87.895 11.8575 87.8931 11.8444 87.8931C11.7701 87.8931 11.6607 87.9499 11.5448 88.0101C11.3721 88.0998 11.1572 88.2113 10.9114 88.2113C10.3834 88.2113 10.1132 87.9489 9.94743 87.2754C9.78099 86.5986 9.92731 85.5002 10.4603 84.8336C10.5979 84.6614 10.8169 84.3989 11.0705 84.095C11.7187 83.3182 12.6064 82.2544 12.9888 81.6768C13.5223 80.871 13.7387 79.4289 13.4255 78.7653C13.0253 77.9172 12.9412 77.1252 13.1758 76.4114L13.2546 76.1736C13.4739 75.5138 13.7008 74.8315 13.7988 74.002C13.8794 73.3208 13.8431 71.668 13.7752 70.4154C13.7116 70.1344 13.6598 69.838 13.6214 69.5338C13.4576 68.2363 12.6786 62.3307 12.1314 59.2268C11.9549 58.7787 11.8068 58.2159 11.6759 57.719C11.6158 57.4904 11.5589 57.2747 11.5048 57.0904C11.1938 56.0322 10.5493 52.3847 10.3645 51.0417C10.1706 49.6321 10.3126 46.9551 10.4045 46.0762C10.4776 45.3773 10.6732 43.9827 11.1612 42.4956C11.524 41.3901 11.5391 40.5521 11.5502 39.9402C11.5526 39.8071 11.5549 39.6834 11.5602 39.5682C11.5703 39.3516 11.6234 39.1302 11.7224 38.8923C11.7059 38.4714 11.6931 37.9151 11.6863 37.3208C11.611 36.5245 11.5909 34.3422 11.6464 32.9263C11.6872 31.887 12.0348 30.4142 12.3141 29.2308C12.4325 28.7292 12.5349 28.2956 12.5997 27.9583C12.6264 27.6089 12.6032 27.1392 12.5308 26.5616L12.5297 26.5588C11.5575 24.1642 10.5712 21.6566 10.1293 19.6355C9.90742 18.6207 9.86471 16.8425 9.82338 15.1228C9.80577 14.3907 9.78756 13.6337 9.75566 12.9578C9.36675 10.0803 9.01278 6.75079 8.98388 5.69897C8.96108 4.87408 9.10348 3.13855 9.32236 1.57229L9.33711 1.29801C9.41785 -0.161789 9.5399 -2.3679 9.83574 -3.60681C10.2339 -5.27426 10.9885 -9.7104 10.9578 -11.1235C10.9267 -12.5599 11.6603 -15.6328 12.2019 -17.2989C12.3138 -17.7717 12.5128 -18.5106 12.6882 -19.1624C12.7556 -19.4127 12.8189 -19.6478 12.8714 -19.846C12.6306 -20.3069 12.825 -25.4054 12.9968 -25.9606C13.0421 -26.38 13.0911 -26.7692 13.1426 -27.1199C13.1077 -27.169 13.1158 -27.2087 13.2255 -27.6365C13.3033 -28.0887 13.3875 -28.4639 13.4735 -28.7408C13.5173 -28.8985 13.5729 -29.0606 13.6319 -29.2322C13.7639 -29.6166 13.9003 -30.0141 13.9264 -30.4413C13.8632 -31.1092 13.8644 -31.8801 13.9291 -32.286C13.9318 -32.7704 13.9321 -33.3933 13.9112 -33.9522C13.8344 -34.1561 13.7538 -34.3572 13.6658 -34.5768C13.5662 -34.8253 13.4573 -35.0973 13.3338 -35.423C12.8946 -36.5816 12.3425 -38.6291 11.8087 -40.6092C11.5251 -41.661 11.2571 -42.6545 11.0179 -43.4714C10.944 -43.7237 10.8724 -43.988 10.8034 -44.2623C10.786 -44.0956 10.7656 -43.9149 10.7422 -43.7206C10.6678 -43.1018 10.2806 -41.8699 9.83211 -40.4436C9.06544 -38.005 8.11133 -34.9699 8.18708 -33.3603C8.28031 -31.3769 7.63244 -29.8076 7.2432 -29.3611C7.14911 -28.9439 7.07282 -28.6477 7.01037 -28.457C6.99164 -28.3365 6.97329 -28.2155 6.95489 -28.0942C6.89282 -27.6848 6.82858 -27.2613 6.74996 -26.8582C6.66159 -26.2437 6.47865 -25.5365 6.19173 -24.7028C5.90329 -23.8642 5.05343 -21.7946 3.91811 -19.1658C3.7676 -18.6785 3.60042 -18.1441 3.42361 -17.5789C2.28298 -13.9323 0.720738 -8.93814 0.681464 -7.1651C0.67017 -6.65698 0.954763 -5.87944 1.42481 -4.65939C1.94635 -3.30551 1.85611 -0.646744 0.661529 1.614C0.153337 2.57586 -0.296774 4.04643 -0.731997 5.46854C-1.1548 6.84982 -1.55408 8.15442 -1.94845 8.7412C-2.18328 9.09061 -2.42641 9.26783 -2.67093 9.26783C-2.92098 9.26783 -3.10902 9.0863 -3.23613 8.89999C-3.43381 9.91178 -3.89196 11.7257 -4.65392 11.8643C-4.70848 11.8743 -4.76216 11.8793 -4.81347 11.8793C-5.18862 11.8793 -5.4618 11.6199 -5.5992 11.1506C-5.83643 11.9595 -6.27105 13.0442 -6.89559 13.0442L-6.91579 13.0438C-7.79508 13.0117 -7.821 11.8567 -7.781 10.5553C-7.85063 10.5941 -7.9295 10.6143 -8.01555 10.6143C-8.59138 10.6143 -9.28343 9.74915 -9.41267 8.86761C-9.73248 6.68591 -9.52058 4.07224 -9.36588 2.16382C-9.2898 1.22604 -9.21146 0.259186 -9.27592 -0.0142212C-9.39446 0.0954208 -9.54562 0.291313 -9.7184 0.515114C-10.0429 0.935402 -10.4466 1.4584 -10.9202 1.78435C-11.3044 2.04885 -11.7624 2.18863 -12.2446 2.18863C-13.0014 2.18863 -13.6675 1.84673 -13.8284 1.37571C-13.8892 1.19772 -13.924 0.847038 -13.4743 0.498817C-12.3022 -0.408913 -10.0557 -3.68783 -9.25711 -5.65622C-8.7246 -6.96882 -7.74371 -7.40386 -6.95558 -7.75347C-6.48507 -7.96218 -6.07874 -8.14239 -5.87848 -8.45889C-5.48525 -9.08017 -4.91931 -11.7459 -4.19637 -16.3819C-4.09304 -17.5185 -4.00845 -18.2585 -3.93118 -18.7022C-3.88533 -18.9651 -3.83762 -19.259 -3.78892 -19.5708C-3.75444 -22.5996 -3.69942 -25.9691 -3.48446 -27.6468C-3.07142 -30.8713 -1.71961 -34.7892 -0.532539 -36.2022C-0.362965 -36.404 -0.211598 -36.5876 -0.0763178 -36.7517C0.335051 -37.2505 0.589418 -37.5589 0.781446 -37.6898C0.951619 -37.9178 1.09707 -38.3457 1.21402 -38.9626C1.04856 -41.4332 1.31569 -44.0934 1.92926 -46.0858C2.01618 -46.9127 2.08614 -47.5638 2.12933 -47.8065C2.27099 -48.6026 2.1191 -49.3705 1.9971 -49.9877C1.93929 -50.2801 1.88932 -50.5327 1.88381 -50.7324C1.87019 -51.2219 1.78281 -51.8682 1.65045 -52.8464C1.58833 -53.306 1.51656 -53.8363 1.43855 -54.4541C1.16904 -56.5889 1.56719 -59.1501 2.50364 -61.3053C3.60621 -63.8429 4.84385 -65.2045 6.77547 -66.0051C7.2713 -66.2105 8.18036 -66.318 8.82205 -66.318C8.86337 -66.318 8.90404 -66.3176 8.94405 -66.3167C10.5032 -67.1385 11.8991 -67.4306 12.624 -67.4306C12.7366 -67.4306 12.8383 -67.4238 12.9267 -67.4104C12.9684 -67.4125 13.0124 -67.4135 13.0586 -67.4135C13.1493 -67.4135 13.2488 -67.4097 13.3456 -67.4045C13.3761 -67.7216 13.7893 -67.9567 14.2826 -68.2036C14.9683 -68.5466 15.6835 -68.8603 16.4083 -69.136C17.2461 -69.4547 18.0884 -69.7179 19.0953 -70.015C19.2184 -70.0513 19.3425 -70.0858 19.4666 -70.1202C20.1926 -70.3218 20.8782 -70.5122 21.3795 -71.059C21.5228 -71.2153 21.6432 -71.3883 21.7706 -71.5715C21.8311 -71.6585 21.8917 -71.7454 21.9545 -71.8302C22.1485 -72.0919 22.3491 -72.3625 22.4575 -72.6671C22.509 -72.8119 22.4963 -72.976 22.4827 -73.1498C22.477 -73.2244 22.4712 -73.2988 22.4702 -73.3723C22.4668 -73.6069 22.467 -73.8546 22.4708 -74.1298C22.478 -74.649 22.494 -75.2615 22.5574 -75.8727C22.5449 -76.045 22.5321 -76.1326 22.5235 -76.176C22.5074 -76.2562 22.4942 -76.3376 22.4805 -76.4215C22.4179 -76.8055 22.347 -77.2408 21.9353 -77.8548C21.5836 -78.3794 21.4863 -79.5976 21.4666 -80.5273C21.4628 -80.7069 21.3163 -80.8531 21.1401 -80.8531C21.1171 -80.8531 21.0939 -80.8506 21.071 -80.8456C20.9662 -80.8228 20.8565 -80.8107 20.7537 -80.8107C20.4768 -80.8107 20.248 -80.8947 20.0921 -81.0538C19.9313 -81.2178 19.8526 -81.4536 19.8583 -81.7546C19.8784 -82.8064 19.6645 -83.4167 19.4759 -83.9551C19.3807 -84.2266 19.2909 -84.4831 19.2368 -84.7717C19.1407 -85.2846 19.0823 -85.9741 19.3492 -86.3469C19.4542 -86.4934 19.5982 -86.5807 19.7774 -86.6063C19.8212 -86.6127 19.8664 -86.6158 19.9116 -86.6158C20.0601 -86.6158 20.2154 -86.5819 20.3732 -86.5148C20.3948 -86.5057 20.417 -86.5011 20.4394 -86.5011C20.4873 -86.5011 20.5349 -86.5226 20.5697 -86.5601C20.6053 -86.5985 20.6228 -86.6485 20.6188 -86.7007C20.5033 -88.2397 20.3978 -92.0286 21.9106 -93.9696C23.7094 -96.2776 26.4761 -96.7452 27.5822 -96.8391C27.7251 -96.8512 27.8977 -96.8643 28.136 -96.8643C28.3148 -96.8643 28.5086 -96.8566 28.7122 -96.8414C29.8385 -96.7577 32.6551 -96.3102 34.4793 -93.9696C35.9921 -92.0283 35.8865 -88.2396 35.7709 -86.7007C35.767 -86.6485 35.7845 -86.5985 35.8202 -86.5601C35.855 -86.5225 35.9024 -86.5011 35.9505 -86.5011C35.9728 -86.5011 35.995 -86.5057 36.0166 -86.5148C36.1744 -86.5819 36.3297 -86.6158 36.4782 -86.6158C36.5234 -86.6158 36.5686 -86.6127 36.6125 -86.6063C36.7916 -86.5807 36.9356 -86.4934 37.0406 -86.3469C37.3075 -85.9741 37.249 -85.2846 37.1529 -84.7717C37.0989 -84.4831 37.009 -84.2266 36.9139 -83.9551C36.7252 -83.4167 36.5114 -82.8065 36.5315 -81.7546C36.5372 -81.4536 36.4585 -81.2178 36.2977 -81.0537C36.1418 -80.8947 35.913 -80.8106 35.6362 -80.8106C35.5333 -80.8106 35.4235 -80.8228 35.3187 -80.8456C35.2959 -80.8506 35.2727 -80.8531 35.2497 -80.8531C35.0736 -80.8531 34.927 -80.7069 34.9233 -80.5272C34.9035 -79.5974 34.806 -78.379 34.4545 -77.8548C34.0428 -77.2408 33.9719 -76.8055 33.9093 -76.4215C33.8957 -76.3376 33.8824 -76.2562 33.8664 -76.176C33.8577 -76.1326 33.8449 -76.045 33.8324 -75.8727C33.9171 -75.0579 33.925 -74.2561 33.9216 -73.5787C33.9211 -73.4833 33.9159 -73.3864 33.9107 -73.2894C33.9034 -73.152 33.8965 -73.0222 33.9025 -72.895C33.9177 -72.5751 34.1492 -72.2399 34.3534 -71.9442C34.3825 -71.902 34.4109 -71.8609 34.4379 -71.8209C34.7 -71.4328 34.9711 -71.0315 35.3392 -70.7435C35.6396 -70.5084 35.9978 -70.4016 36.3769 -70.2886L36.7073 -70.1885C38.5084 -69.6397 40.3708 -69.0723 42.1072 -68.2035L42.2133 -68.1513C42.4365 -68.0426 42.6895 -67.9193 42.8652 -67.7354C42.9588 -67.6375 43.0183 -67.5205 43.0372 -67.4031C43.2097 -67.411 43.3691 -67.4148 43.521 -67.4148C44.1146 -67.4148 44.624 -67.355 45.1239 -67.2265C45.8959 -67.0281 46.6768 -66.7221 47.4457 -66.3167C47.4857 -66.3176 47.5264 -66.318 47.5677 -66.318C48.2094 -66.318 49.1185 -66.2105 49.6142 -66.0051C51.5459 -65.2046 52.7836 -63.8429 53.8862 -61.3053C54.8226 -59.1502 55.2207 -56.5891 54.9513 -54.4541C54.8732 -53.8361 54.8014 -53.3055 54.7393 -52.8458C54.607 -51.8679 54.5196 -51.2219 54.506 -50.7324C54.5004 -50.5327 54.4505 -50.2801 54.3927 -49.9877C54.2707 -49.3706 54.1188 -48.6026 54.2604 -47.8065C54.3037 -47.5639 54.3736 -46.9131 54.4604 -46.0866C55.0815 -44.0715 55.347 -41.3836 55.1715 -38.8888C55.2846 -38.3069 55.4286 -37.9056 55.6 -37.6951C55.7934 -37.5674 56.0506 -37.2556 56.4674 -36.7501C56.6023 -36.5865 56.7533 -36.4035 56.9224 -36.2022C58.1094 -34.7891 59.4612 -30.8712 59.8743 -27.6469C60.0893 -25.969 60.1443 -22.5997 60.1788 -19.5708C60.2274 -19.259 60.2751 -18.9651 60.3209 -18.7023C60.3973 -18.2638 60.4844 -17.5019 60.5872 -16.3733C61.3091 -11.7459 61.8751 -9.08022 62.2683 -8.45893C62.4686 -8.14244 62.8749 -7.96224 63.3454 -7.75353C64.1335 -7.40392 65.1144 -6.96887 65.6469 -5.65627C66.4454 -3.68781 68.692 -0.408958 69.8641 0.498772C70.3139 0.847046 70.279 1.19772 70.2182 1.37571C70.0574 1.84673 69.3913 2.18856 68.6344 2.18856C68.1522 2.18856 67.6942 2.04878 67.3099 1.78435C66.8365 1.4584 66.4327 0.935394 66.1083 0.515251C65.9356 0.291382 65.7843 0.0954895 65.6657 -0.0142212C65.6014 0.259254 65.6797 1.22589 65.7557 2.16335C65.9104 4.07189 66.1223 6.68578 65.8025 8.86754C65.6733 9.74907 64.9812 10.6142 64.4053 10.6142C64.3198 10.6142 64.2412 10.5942 64.1719 10.5558C64.2106 11.857 64.1834 13.0116 63.3056 13.0438L63.2854 13.0441C62.6608 13.0441 62.2262 11.9594 61.989 11.1504C61.8516 11.6197 61.5784 11.8792 61.2033 11.8792C61.152 11.8792 61.0983 11.8742 61.0437 11.8643C60.282 11.7256 59.8237 9.91177 59.626 8.89998C59.4988 9.08622 59.3107 9.26774 59.0607 9.26774C58.8162 9.26774 58.5731 9.09054 58.3383 8.74113C57.9439 8.15434 57.5446 6.84975 57.1218 5.46846C56.6865 4.04635 56.2365 2.57578 55.7282 1.61392C54.5337 -0.646957 54.4434 -3.30573 54.965 -4.65948C55.4351 -5.87965 55.7197 -6.65719 55.7084 -7.16518C55.6692 -8.93802 54.1072 -13.9315 52.9666 -17.5776C52.7897 -18.1432 52.6223 -18.6781 52.4717 -19.1658C51.3364 -21.7948 50.4865 -23.8645 50.1981 -24.7029C49.9111 -25.5368 49.7282 -26.244 49.6387 -26.8651C49.5613 -27.2613 49.4971 -27.6845 49.435 -28.0937C49.4166 -28.2151 49.3982 -28.3364 49.3795 -28.457C49.317 -28.6476 49.2407 -28.9438 49.1466 -29.3612C48.7574 -29.8076 48.1095 -31.377 48.2028 -33.3604C48.2785 -34.9701 47.3243 -38.0052 46.5576 -40.444C46.1092 -41.8702 45.722 -43.1019 45.6476 -43.7206C45.6242 -43.9149 45.6038 -44.0957 45.5863 -44.2623C45.5175 -43.9881 45.4459 -43.7238 45.3719 -43.4714C45.1326 -42.6546 44.8648 -41.661 44.5811 -40.6091C44.0472 -38.6291 43.4952 -36.5817 43.056 -35.4231C42.9326 -35.0976 42.8237 -34.8257 42.7242 -34.5772C42.6361 -34.3576 42.5555 -34.1563 42.4787 -33.9522C42.4577 -33.3921 42.4579 -32.7698 42.4607 -32.2861C42.5254 -31.8802 42.5266 -31.1093 42.4634 -30.4413C42.4896 -30.0142 42.626 -29.6168 42.7579 -29.2323C42.8168 -29.0608 42.8724 -28.8987 42.9174 -28.7372C43.0022 -28.4643 43.0865 -28.0891 43.1666 -27.626C43.2715 -27.2176 43.2816 -27.1711 43.2498 -27.1236C43.3245 -26.7421 43.5491 -25.8306 43.663 -25.3687C43.6979 -25.2268 43.724 -25.1207 43.7351 -25.0739C43.8285 -24.6773 43.8155 -20.3122 43.5206 -19.838C43.5728 -19.6406 43.6356 -19.4074 43.7024 -19.1592C43.8776 -18.5085 44.0761 -17.771 44.1907 -17.2883C44.7294 -15.6331 45.4631 -12.5602 45.432 -11.1236C45.4012 -9.71049 46.1559 -5.27436 46.5541 -3.60684C46.8501 -2.36713 46.9722 -0.159752 47.0528 1.3009L47.0686 1.58361C47.2827 3.1129 47.4283 4.88694 47.4059 5.69892C47.377 6.75081 47.0231 10.0805 46.6331 12.9697C46.6022 13.6337 46.584 14.3906 46.5664 15.1227C46.5251 16.8424 46.4824 18.6206 46.2604 19.6354C45.8187 21.6566 44.8323 24.1641 43.8599 26.5593L43.8592 26.5591C43.7866 27.1376 43.7634 27.6083 43.79 27.9581C43.8549 28.2953 43.9572 28.7289 44.0756 29.2303C44.3549 30.4138 44.7027 31.8867 44.7433 32.9262C44.7989 34.3418 44.7788 36.5242 44.7028 37.3322C44.6967 37.9131 44.6839 38.4691 44.6674 38.8922C44.7664 39.1302 44.8195 39.3517 44.8296 39.5682C44.8349 39.6834 44.8372 39.8073 44.8396 39.9404C44.8507 40.5522 44.8659 41.3903 45.2286 42.4956C45.7167 43.983 45.9122 45.3774 45.9853 46.0762C46.0772 46.955 46.2192 49.6319 46.0253 51.0416C45.8406 52.3844 45.1961 56.0318 44.885 57.0903C44.831 57.2744 44.7742 57.4899 44.7141 57.7181C44.5832 58.2153 44.435 58.7783 44.2584 59.2268C43.7113 62.3307 42.9322 68.2363 42.7684 69.5338C42.73 69.8371 42.6783 70.1337 42.6146 70.4153C42.5466 71.6674 42.5104 73.3201 42.591 74.002C42.689 74.8313 42.9158 75.5133 43.135 76.1729L43.214 76.4114C43.4485 77.1253 43.3645 77.9172 42.9643 78.7652C42.6512 79.4288 42.8675 80.8709 43.401 81.6767C43.7836 82.2546 44.6716 83.3189 45.3201 84.0959C45.5733 84.3995 45.7921 84.6616 45.9295 84.8336C46.4625 85.5002 46.6088 86.5986 46.4423 87.2754C46.2767 87.9489 46.0064 88.2113 45.4784 88.2113C45.2326 88.2113 45.0177 88.0997 44.8449 88.0101C44.7291 87.9499 44.6197 87.8931 44.5454 87.8931C44.5322 87.8931 44.5207 87.895 44.5102 87.8987C44.4274 87.9286 44.3713 87.9739 44.3063 88.0263C44.2001 88.112 44.0798 88.2093 43.8479 88.231C43.8338 88.2323 43.8198 88.233 43.8058 88.233Z" fill="white" stroke="#28839F" stroke-width="0.7"/>
<path d="M21.6565 -17.8413C21.2043 -17.6229 20.7893 -16.8669 20.0742 -16.3798C19.3591 -15.8926 17.4878 -15.2532 16.301 -14.5224C15.1143 -13.7916 12.8322 -12.3707 12.4467 -10.3814C12.0613 -8.39207 12.2642 -2.83013 13.2987 -0.597216C14.3333 1.63568 16.9502 3.84827 18.8165 4.03096C20.6828 4.21367 23.5431 3.94977 25.3079 3.01601C27.0728 2.08225 27.4785 0.742517 27.6611 -0.191248C27.8437 -1.125 27.7017 -4.51495 27.5799 -6.36216C27.4582 -8.20939 27.2171 -9.4552 27.3771 -11.1121C27.6357 -13.7916 22.9034 -18.4437 21.6565 -17.8413Z" fill="#28839F" fill-opacity="0.2"/>
<path d="M13.5017 9.95795C13.2583 12.2416 12.8931 16.5653 12.954 19.7015C13.0148 22.8377 12.9388 26.7199 12.7714 27.7704C12.604 28.8209 11.8433 31.3785 11.7825 32.9314C11.7216 34.4843 11.7521 37.1486 11.8586 37.5748C11.9651 38.0011 12.5888 36.7071 13.3496 35.413C14.1103 34.1189 16.362 29.643 16.6967 27.9835C17.0314 26.3241 17.5487 18.0725 17.6248 15.8041C17.7009 13.5357 17.9443 9.72958 18.5376 7.64385C19.909 2.82342 14.1122 4.23045 13.5017 9.95795Z" fill="#28839F"/>
<path d="M20.8959 5.2391C20.6074 6.62464 22.3717 9.06041 23.0259 11.2679C23.6801 13.4755 23.9235 16.8705 23.9742 18.3117C24.0079 19.2672 24.0047 19.9661 24.101 20.2706C24.1205 20.3322 24.1654 20.5111 24.1876 20.5472C24.2352 20.6246 24.3331 20.138 24.651 19.69C25.1144 19.037 25.4542 17.7182 25.6377 15.9672C25.9069 13.3976 26.084 11.0548 26.4035 10.1413C26.723 9.22787 27.3467 7.03558 27.1642 5.90898C26.9816 4.78238 26.6773 3.62533 25.6427 3.74713C24.6082 3.86892 24.5777 4.0313 23.5584 4.38147C22.539 4.73163 21.048 4.50833 20.8959 5.2391Z" fill="#28839F" fill-opacity="0.2"/>
<path d="M10.9052 -0.922066C11.0237 1.29192 11.676 5.33005 12.244 7.19756C12.812 9.06508 12.8323 11.3589 12.6497 14.0181C12.4671 16.6772 12.3454 20.4326 12.4469 22.6655C12.5483 24.8984 12.6092 25.7712 12.4063 25.3449C12.2034 24.9186 10.8646 17.9764 10.4589 16.4133C10.0531 14.8503 9.16693 7.40055 9.12 5.69542C9.08161 4.30078 9.52571 0.356779 9.89086 -0.556683C10.256 -1.47014 10.8443 -2.05882 10.9052 -0.922066Z" fill="#28839F" fill-opacity="0.2"/>
<path d="M19.2427 5.23858C19.068 6.11522 19.0297 7.03506 18.8167 8.01956C18.6037 9.00406 17.9444 15.6926 17.8734 16.9207C17.8024 18.1488 17.5691 22.8886 17.5082 24.0964C17.4474 25.3042 17.3662 27.2428 17.0417 28.278C16.7171 29.3133 17.1735 32.0435 17.559 33.505C17.9444 34.9666 19.6281 38.6813 20.0338 39.3512C20.4395 40.0211 19.4033 34.4909 19.3999 33.297C19.3975 32.4598 19.8278 30.6428 20.2215 28.613C20.6654 26.3239 21.1074 23.7684 21.6719 22.1223C22.7369 19.0166 22.9956 13.8251 22.813 12.394C22.6304 10.9629 21.7987 8.95332 21.2916 8.09061C20.7844 7.22789 20.4205 5.623 20.4091 5.2538C20.3977 4.88461 19.3314 4.79326 19.2427 5.23858Z" fill="#28839F"/>
<path d="M22.9144 17.1648C22.9095 18.6424 22.5442 20.7628 21.824 22.8435C21.1039 24.9241 20.7134 27.629 20.4598 28.918C20.2062 30.207 19.6078 32.4196 19.7295 34.0232C19.8512 35.6268 20.2468 37.809 20.5207 38.7732C20.7945 39.7374 20.9872 40.5189 21.2307 40.3565C21.4741 40.1941 21.5857 39.2096 22.0015 38.2454C22.4174 37.2812 22.9651 33.9522 23.0158 32.3587C23.0665 30.7652 23.3404 28.1365 23.665 26.8475C23.9895 25.5585 24.3344 22.2396 24.1924 21.4276C24.0504 20.6157 23.6751 20.2807 23.6447 19.3571C23.6143 18.4335 23.6396 17.6596 23.5128 16.8781C23.4494 16.4873 23.2859 15.0988 23.1781 15.0436C23.0704 14.9884 22.9169 16.4011 22.9144 17.1648Z" fill="#28839F" fill-opacity="0.2"/>
<path d="M14.7593 35.2916C16.0918 36.5139 16.3213 38.6004 16.585 39.7168C16.8488 40.8333 16.585 45.4209 16.4633 47.4305C16.3416 49.4401 16.7879 52.7894 16.4228 54.4945C16.0576 56.1996 15.8243 57.5191 14.739 58.6153C13.6537 59.7114 13.5929 59.8839 12.9539 59.9753C12.3149 60.0666 11.9396 58.0875 11.6353 57.0522C11.331 56.017 10.692 52.424 10.4993 51.0234C10.3066 49.6228 10.4486 46.9636 10.5399 46.0907C10.6312 45.2179 10.8442 43.8984 11.2905 42.5384C11.7367 41.1783 11.6657 40.2344 11.6962 39.5747C11.7266 38.915 12.1729 38.3162 12.8525 37.3215C13.532 36.3269 13.816 35.6062 14.0899 35.3728C14.3638 35.1394 14.5159 35.0683 14.7593 35.2916Z" fill="#28839F" fill-opacity="0.2"/>
<path d="M17.0009 40.7418C17.1109 42.2335 17.153 44.1977 17.0009 45.8267C16.8487 47.4557 16.7422 48.7802 16.9096 50.3636C17.0769 51.9469 16.8792 53.0583 16.8183 54.3219C16.7574 55.5855 16.4075 56.6055 16.8639 58.1888C17.3204 59.7722 18.5832 61.0054 19.3895 61.386C20.1959 61.7666 20.5458 61.9645 20.8197 61.1728C21.0935 60.3812 21.3978 58.7369 21.8542 57.8539C22.3107 56.9709 22.402 55.6159 22.2802 53.8651C22.1585 52.1143 21.5753 47.41 21.4536 46.456C21.3319 45.5019 21.1696 43.5938 21.0073 42.5992C20.845 41.6045 20.5002 40.5084 19.9524 39.9197C19.4047 39.331 18.8773 38.6002 18.2484 37.8086C17.6196 37.0169 17.3964 37.8898 17.1124 38.7423C16.8284 39.5949 16.8893 39.2295 17.0009 40.7418Z" fill="#28839F" fill-opacity="0.2"/>
<path d="M34.7334 -17.8413C35.1856 -17.6229 35.6006 -16.8669 36.3157 -16.3798C37.0308 -15.8926 38.9022 -15.2532 40.0889 -14.5224C41.2756 -13.7916 43.5577 -12.3707 43.9432 -10.3814C44.3286 -8.39207 44.1257 -2.83013 43.0912 -0.597216C42.0566 1.63568 39.4397 3.84827 37.5734 4.03096C35.7071 4.21367 32.8468 3.94977 31.082 3.01601C29.3171 2.08225 28.9114 0.742517 28.7288 -0.191248C28.5463 -1.125 28.6883 -4.51495 28.81 -6.36216C28.9317 -8.20939 29.1728 -9.4552 29.0128 -11.1121C28.7542 -13.7916 33.4865 -18.4437 34.7334 -17.8413Z" fill="#28839F" fill-opacity="0.2"/>
<path d="M42.8882 9.95795C43.1316 12.2416 43.4968 16.5653 43.4359 19.7015C43.3751 22.8377 43.4511 26.7199 43.6185 27.7704C43.7859 28.8209 44.5466 31.3785 44.6074 32.9314C44.6683 34.4843 44.6378 37.1486 44.5313 37.5748C44.4249 38.0011 43.8011 36.7071 43.0403 35.413C42.2796 34.1189 40.0279 29.643 39.6932 27.9835C39.3585 26.3241 38.8412 18.0725 38.7651 15.8041C38.689 13.5357 38.4456 9.72958 37.8523 7.64385C36.4809 2.82342 42.2777 4.23045 42.8882 9.95795Z" fill="#28839F"/>
<path d="M35.494 5.2391C35.7825 6.62464 34.0182 9.06041 33.364 11.2679C32.7098 13.4755 32.4664 16.8705 32.4157 18.3117C32.382 19.2672 32.3852 19.9661 32.2889 20.2706C32.2694 20.3322 32.2245 20.5111 32.2023 20.5472C32.1547 20.6246 32.0568 20.138 31.7389 19.69C31.2755 19.037 30.9357 17.7182 30.7522 15.9672C30.483 13.3976 30.3059 11.0548 29.9864 10.1413C29.6669 9.22787 29.0431 7.03558 29.2257 5.90898C29.4083 4.78238 29.7126 3.62533 30.7471 3.74713C31.7817 3.86892 31.8121 4.0313 32.8315 4.38147C33.8509 4.73163 35.3419 4.50833 35.494 5.2391Z" fill="#28839F" fill-opacity="0.2"/>
<path d="M45.4846 -0.922066C45.3661 1.29192 44.7138 5.33005 44.1458 7.19756C43.5778 9.06508 43.5575 11.3589 43.7401 14.0181C43.9226 16.6772 44.0444 20.4326 43.9429 22.6655C43.8415 24.8984 43.7806 25.7712 43.9835 25.3449C44.1864 24.9186 45.5252 17.9764 45.9309 16.4133C46.3367 14.8503 47.2229 7.40055 47.2698 5.69542C47.3082 4.30078 46.8641 0.356779 46.4989 -0.556683C46.1338 -1.47014 45.5455 -2.05882 45.4846 -0.922066Z" fill="#28839F" fill-opacity="0.2"/>
<path d="M37.1475 5.23858C37.3222 6.11522 37.3605 7.03506 37.5735 8.01956C37.7865 9.00406 38.4458 15.6926 38.5168 16.9207C38.5878 18.1488 38.8211 22.8886 38.882 24.0964C38.9428 25.3042 39.024 27.2428 39.3485 28.278C39.6731 29.3133 39.2167 32.0435 38.8312 33.505C38.4458 34.9666 36.7621 38.6813 36.3564 39.3512C35.9507 40.0211 36.9869 34.4909 36.9903 33.297C36.9927 32.4598 36.5624 30.6428 36.1687 28.613C35.7248 26.3239 35.2828 23.7684 34.7183 22.1223C33.6533 19.0166 33.3946 13.8251 33.5772 12.394C33.7598 10.9629 34.5915 8.95332 35.0986 8.09061C35.6058 7.22789 35.9697 5.623 35.9811 5.2538C35.9925 4.88461 37.0588 4.79326 37.1475 5.23858Z" fill="#28839F"/>
<path d="M33.4754 17.1648C33.4803 18.6424 33.8456 20.7628 34.5658 22.8435C35.2859 24.9241 35.6764 27.629 35.93 28.918C36.1836 30.207 36.782 32.4196 36.6603 34.0232C36.5386 35.6268 36.143 37.809 35.8691 38.7732C35.5953 39.7374 35.4026 40.5189 35.1591 40.3565C34.9157 40.1941 34.8041 39.2096 34.3883 38.2454C33.9724 37.2812 33.4247 33.9522 33.374 32.3587C33.3233 30.7652 33.0494 28.1365 32.7248 26.8475C32.4003 25.5585 32.0554 22.2396 32.1974 21.4276C32.3394 20.6157 32.7147 20.2807 32.7451 19.3571C32.7755 18.4335 32.7502 17.6596 32.877 16.8781C32.9404 16.4873 33.1039 15.0988 33.2117 15.0436C33.3195 14.9884 33.4729 16.4011 33.4754 17.1648Z" fill="#28839F" fill-opacity="0.2"/>
<path d="M41.6303 35.2916C40.2978 36.5139 40.0683 38.6004 39.8045 39.7168C39.5408 40.8333 39.8046 45.4209 39.9263 47.4305C40.048 49.4401 39.6017 52.7894 39.9668 54.4945C40.332 56.1996 40.5653 57.5191 41.6506 58.6153C42.7359 59.7114 42.7967 59.8839 43.4357 59.9753C44.0747 60.0666 44.45 58.0875 44.7543 57.0522C45.0586 56.017 45.6976 52.424 45.8903 51.0234C46.083 49.6228 45.941 46.9636 45.8497 46.0907C45.7584 45.2179 45.5454 43.8984 45.0991 42.5384C44.6529 41.1783 44.7239 40.2344 44.6934 39.5747C44.663 38.915 44.2167 38.3162 43.5371 37.3215C42.8576 36.3269 42.5736 35.6062 42.2997 35.3728C42.0258 35.1394 41.8737 35.0683 41.6303 35.2916Z" fill="#28839F" fill-opacity="0.2"/>
<path d="M39.389 40.7418C39.2789 42.2335 39.2369 44.1977 39.389 45.8267C39.5411 47.4557 39.6476 48.7802 39.4803 50.3636C39.3129 51.9469 39.5107 53.0583 39.5716 54.3219C39.6324 55.5855 39.9823 56.6055 39.5259 58.1888C39.0695 59.7722 37.8067 61.0054 37.0003 61.386C36.194 61.7666 35.844 61.9645 35.5702 61.1728C35.2963 60.3812 34.992 58.7369 34.5356 57.8539C34.0792 56.9709 33.9879 55.6159 34.1096 53.8651C34.2313 52.1143 34.8145 47.41 34.9363 46.456C35.058 45.5019 35.2203 43.5938 35.3825 42.5992C35.5448 41.6045 35.8897 40.5084 36.4374 39.9197C36.9851 39.331 37.5126 38.6002 38.1414 37.8086C38.7703 37.0169 38.9934 37.8898 39.2774 38.7423C39.5614 39.5949 39.5006 39.2295 39.389 40.7418Z" fill="#28839F" fill-opacity="0.2"/>
</g>
<defs>
<clipPath id="clip0_4089_13883">
<rect width="54" height="48" fill="white"/>
</clipPath>
</defs>
</svg>
