<svg width="61" height="48" viewBox="0 0 61 48" fill="none" xmlns="http://www.w3.org/2000/svg">
<g clip-path="url(#clip0_4089_13882)">
<path d="M40.808 100.241C40.6244 100.241 40.4761 100.133 40.3327 100.03C40.2137 99.9436 40.1014 99.8623 39.9936 99.8623C39.9749 99.8623 39.9568 99.8647 39.9381 99.8694C39.8153 99.9011 39.7477 99.9539 39.6695 100.015C39.5589 100.102 39.4335 100.2 39.1792 100.2C39.1624 100.2 39.1449 100.199 39.1267 100.198C38.8895 100.187 38.7413 100.087 38.6105 99.9984C38.49 99.9169 38.3949 99.8526 38.2359 99.8526C38.2264 99.8526 38.2166 99.8529 38.2066 99.8533C38.0397 99.8613 37.9434 99.9178 37.8215 99.9893C37.6689 100.079 37.496 100.18 37.1731 100.198C37.1507 100.2 37.1286 100.2 37.1068 100.2C36.8053 100.2 36.5461 100.085 36.3174 99.9832C36.1252 99.8977 35.9437 99.8169 35.7627 99.8129L35.7478 99.8127C35.5631 99.8127 35.336 99.8878 35.0956 99.9674C34.7967 100.066 34.458 100.178 34.1065 100.178L34.0798 100.178C33.2324 100.165 32.7509 99.7281 32.6486 98.881C32.5943 98.4317 32.7434 97.9454 32.8876 97.4751C33.0544 96.9312 33.2268 96.3688 33.0979 95.8528C32.8256 94.7626 32.6691 93.3603 32.7085 92.3634C32.7356 91.6792 32.523 90.7572 32.3355 89.9439C32.2452 89.5524 32.1599 89.1826 32.1019 88.8499C31.9806 88.1556 32.4886 86.9376 32.9368 85.863C33.1822 85.2746 33.414 84.7189 33.4607 84.4206C33.5617 83.7755 33.4463 80.2555 33.3843 78.3644L33.3752 78.0874C33.3236 77.7173 33.2718 77.3229 33.2206 76.9326C33.0812 75.8708 32.9495 74.868 32.8348 74.4386L32.7487 74.1179C32.4431 72.9823 31.9838 71.2753 31.9829 70.6776C31.8771 70.4019 31.7228 69.9928 31.5649 69.5282C31.1839 69.0586 30.9068 68.0268 30.7414 66.4602C30.4799 63.9841 30.7685 60.5067 31.068 59.0496C31.2187 58.3166 31.4544 57.4292 31.6624 56.6463C31.861 55.8987 32.0486 55.1927 32.1221 54.7704C32.1979 54.336 32.2148 54.0903 32.225 53.9435C32.2316 53.8479 32.236 53.7843 32.2548 53.7336C32.2295 53.5986 32.2022 53.4458 32.173 53.2816C32.0293 52.4761 31.8327 51.3728 31.5767 50.8023C31.2395 50.0508 30.7967 47.8111 30.6077 46.8546L30.6012 46.8222C30.541 46.5174 30.4858 46.0066 30.4371 45.304C30.3449 44.5479 30.3165 43.6385 30.2977 43.0368L30.2944 42.9329C30.2853 42.6472 30.2854 42.0758 30.3458 41.8629C30.3379 41.6833 30.3077 41.5179 30.2224 41.1806C30.1335 40.8289 30.0739 40.4488 30.0049 40.0087C29.9713 39.7947 29.9355 39.5662 29.8929 39.32C29.8489 39.1636 29.8203 39.0078 29.8085 38.8565C29.7286 38.4462 29.6689 38.2524 29.6163 38.0812C29.5541 37.879 29.5 37.7029 29.4336 37.2626C29.3463 37.1421 29.2935 36.6902 29.1415 34.9965C29.0812 34.3247 29.0188 33.63 28.9564 33.1096C28.923 32.8313 28.9031 32.4741 28.8973 32.0477C28.8382 31.9257 28.759 31.8016 28.6754 31.6707C28.5817 31.5238 28.485 31.3723 28.397 31.1966C28.0435 30.8658 27.69 29.0393 27.6326 28.5415C27.5032 27.4192 26.6819 22.4697 26.2073 20.8917C25.6655 19.0905 26.0365 15.4604 26.0806 15.0524C26.0955 14.9138 26.1093 14.7766 26.1228 14.6418C26.1805 14.0654 26.2351 13.5197 26.3665 13.1003C26.2286 12.8427 25.5884 12.7272 25.2776 12.7272H25.1153C24.8069 12.7272 24.1741 12.841 24.0271 13.1024C24.1581 13.5218 24.2127 14.0671 24.2703 14.6429C24.2837 14.7774 24.2975 14.9142 24.3124 15.0525C24.3565 15.4605 24.7275 19.0908 24.1856 20.8917C23.7111 22.4697 22.8897 27.4192 22.7603 28.5415C22.7029 29.0393 22.3494 30.8658 21.9961 31.1966C21.908 31.3723 21.8113 31.5237 21.7177 31.6704C21.6341 31.8014 21.5548 31.9256 21.4957 32.0477C21.4899 32.4736 21.47 32.8307 21.4366 33.1096C21.3742 33.6301 21.3118 34.325 21.2515 34.997C21.0995 36.6904 21.0467 37.1422 20.9594 37.2627C20.893 37.7029 20.8388 37.879 20.7766 38.0812C20.7241 38.2523 20.6645 38.4461 20.5845 38.8565C20.5727 39.0076 20.5441 39.1637 20.497 39.3332C20.4575 39.5659 20.4218 39.7941 20.3882 40.008C20.3192 40.4484 20.2596 40.8287 20.1706 41.1807C20.0995 41.4617 20.068 41.6185 20.0542 41.7623C20.088 41.9083 20.0922 42.2025 20.0964 42.6885L20.0987 42.9271C20.1056 43.5692 20.0694 44.6191 19.944 45.4651C19.8989 46.0812 19.8473 46.5412 19.7917 46.8221L19.7859 46.8513C19.5968 47.8084 19.1539 50.0499 18.8162 50.8024C18.5602 51.3729 18.3635 52.4765 18.2199 53.2823C18.1907 53.4462 18.1635 53.5989 18.1383 53.7336C18.157 53.7842 18.1614 53.8479 18.168 53.9435C18.1781 54.0902 18.1951 54.3359 18.2709 54.7704C18.3445 55.1928 18.5321 55.8993 18.7308 56.6472C18.9387 57.4299 19.1744 58.3169 19.325 59.0496C19.6245 60.5069 19.9131 63.9843 19.6516 66.4602C19.5312 67.5999 19.2819 69.0709 18.7763 69.651C18.6173 70.126 18.4822 70.489 18.4101 70.6776C18.4092 71.2757 17.9495 72.984 17.6436 74.1203L17.5582 74.4386C17.4436 74.8677 17.312 75.8698 17.1727 76.9307C17.1214 77.3216 17.0695 77.7166 17.0178 78.0873L17.0086 78.3693C16.9466 80.2589 16.8314 83.776 16.9323 84.4206C16.979 84.7189 17.2108 85.2746 17.4561 85.8628C17.9044 86.9375 18.4124 88.1556 18.2911 88.8499C18.233 89.1826 18.1478 89.5524 18.0575 89.9439C17.87 90.7573 17.6574 91.6792 17.6844 92.3634C17.724 93.3602 17.5675 94.7625 17.2951 95.8528C17.1661 96.3689 17.3386 96.9313 17.5054 97.4753C17.6496 97.9455 17.7987 98.4318 17.7444 98.8811C17.6421 99.7282 17.1605 100.165 16.3132 100.178L16.2865 100.178C15.9349 100.178 15.5962 100.066 15.2974 99.9674C15.0569 99.8879 14.8299 99.8127 14.6451 99.8127L14.6303 99.8129C14.4493 99.8169 14.2678 99.8977 14.0756 99.9832C13.8469 100.085 13.5877 100.2 13.2862 100.2C13.2643 100.2 13.2422 100.2 13.2199 100.198C12.8969 100.18 12.7241 100.079 12.5715 99.9894C12.4496 99.9178 12.3533 99.8613 12.1864 99.8534C12.1763 99.8529 12.1666 99.8526 12.1571 99.8526C11.9981 99.8526 11.903 99.9169 11.7825 99.9983C11.6517 100.087 11.5035 100.187 11.2663 100.198C11.2481 100.199 11.2306 100.2 11.2139 100.2C10.9595 100.2 10.8341 100.102 10.7235 100.015C10.6452 99.954 10.5776 99.9011 10.4548 99.8695C10.4362 99.8647 10.418 99.8624 10.3993 99.8624C10.2916 99.8624 10.1793 99.9436 10.0603 100.03C9.91692 100.133 9.7686 100.241 9.585 100.241C9.57105 100.241 9.55695 100.24 9.54287 100.239C9.31103 100.217 9.19068 100.12 9.08449 100.034C9.01951 99.9814 8.96343 99.9362 8.88056 99.9063C8.87012 99.9025 8.85857 99.9007 8.84541 99.9007C8.77112 99.9007 8.66168 99.9574 8.54585 100.018C8.37316 100.107 8.15812 100.219 7.91232 100.219C7.38438 100.219 7.11413 99.9565 6.9484 99.2829C6.78195 98.6061 6.92828 97.5077 7.46127 96.8411C7.59888 96.6689 7.8179 96.4063 8.07154 96.1024C8.71969 95.3256 9.60745 94.2617 9.98988 93.6841C10.5234 92.8783 10.7397 91.4361 10.4265 90.7725C10.0263 89.9245 9.9423 89.1324 10.1769 88.4185L10.256 88.1796C10.4752 87.5201 10.7019 86.8382 10.7999 86.0091C10.8804 85.3275 10.8442 83.6747 10.7763 82.4223C10.7126 82.1407 10.6608 81.8442 10.6225 81.5407C10.4039 79.8086 9.40823 72.3075 8.8902 69.9824C8.40306 67.7957 7.63151 63.7881 7.50266 61.7093C7.38891 59.8745 7.51935 58.6794 7.59729 57.9653L7.61476 57.8041C7.64154 57.5523 7.71364 57.0655 7.76307 56.8386C7.85995 56.3436 7.99578 55.8844 8.11558 55.4792C8.18568 55.2419 8.252 55.0176 8.3027 54.8125C8.33453 54.5636 8.41355 53.9963 8.49681 53.7995L8.50817 53.7416C8.59316 53.3099 8.68937 52.821 8.73862 52.3669C8.73696 52.0803 8.74407 51.8113 8.76022 51.5454C8.67523 50.6107 8.64015 47.0807 8.75031 45.467C8.82235 44.4118 9.10595 42.8521 9.33381 41.5987C9.45542 40.9297 9.56046 40.3519 9.59276 40.0615C9.63217 39.7062 9.61163 39.2035 9.53189 38.5669L9.53076 38.5641C8.55854 36.1696 7.57208 33.6621 7.13026 31.6406C6.90838 30.6258 6.86573 28.8474 6.82446 27.1276C6.78619 25.5334 6.74664 23.8849 6.56164 22.9496C6.18799 21.0608 6.13523 17.7931 6.18966 16.1771C6.17018 15.8139 6.227 15.0759 6.25969 14.752C6.23956 14.6892 6.24606 14.6104 6.25583 14.5326C6.28135 14.328 6.30627 13.877 6.33783 13.306C6.41863 11.845 6.54063 9.63713 6.8366 8.39751C7.23476 6.73013 7.98956 2.29398 7.95879 0.880531C7.92763 -0.555862 8.6613 -3.62891 9.20293 -5.29508C9.31484 -5.76785 9.51385 -6.50706 9.68948 -7.15923C9.78463 -7.51277 9.87162 -7.83579 9.93155 -8.06772C9.96797 -8.51348 10.0806 -8.96445 10.1749 -9.30836C10.3039 -9.77859 10.2154 -10.3442 10.113 -10.9992C10.0007 -11.7174 9.86092 -12.6113 9.96783 -13.6708C10.1452 -15.4279 10.3413 -16.3083 10.4745 -16.7374C10.5184 -16.8951 10.574 -17.0572 10.6329 -17.2288C10.7649 -17.6133 10.9013 -18.0108 10.9275 -18.4379C10.8642 -19.1059 10.8654 -19.8768 10.9302 -20.2827C10.935 -21.1524 10.9297 -22.1295 10.8551 -22.7991C10.8288 -22.9295 10.8038 -23.0851 10.7824 -23.2502C10.6506 -23.8552 10.3871 -24.472 10.1946 -24.9224C10.1314 -25.0703 10.0758 -25.2005 10.0314 -25.3138C9.86563 -25.4341 9.80065 -25.7819 9.68369 -26.4074C9.5997 -26.8565 9.49517 -27.4154 9.32374 -27.9903C8.9879 -29.116 8.3139 -32.0512 8.06452 -33.5892C8.02964 -33.6004 7.99634 -33.6064 7.96718 -33.6064C7.93807 -33.6064 7.92465 -33.6003 7.92126 -33.5985C7.90644 -33.5905 7.88703 -33.5749 7.8681 -33.5319C7.91469 -33.2497 7.81249 -32.2944 7.74311 -31.7177C7.66868 -31.0989 7.28141 -29.8671 6.83308 -28.4408C6.06639 -26.002 5.11217 -22.9668 5.18785 -21.3571C5.28918 -19.2023 4.54136 -17.5881 4.1499 -17.268C4.07435 -16.882 4.01202 -16.4694 3.95162 -16.0698C3.89082 -15.6672 3.82789 -15.2508 3.75074 -14.8548C3.66243 -14.2406 3.47942 -13.5333 3.19249 -12.6993C2.90404 -11.8607 2.05415 -9.79096 0.918789 -7.16209C0.768219 -6.67456 0.600965 -6.13991 0.424065 -5.57444C-0.716604 -1.92802 -2.27876 3.06599 -2.31804 4.83904C-2.32927 5.34717 -2.04466 6.12475 -1.5746 7.34483C-1.05304 8.6987 -1.14328 11.3576 -2.33791 13.6184C-2.84612 14.5803 -3.29618 16.0508 -3.73148 17.4729C-4.15423 18.8543 -4.55366 20.1591 -4.94805 20.7459C-5.18288 21.0953 -5.42595 21.2725 -5.67049 21.2725C-5.92054 21.2725 -6.10859 21.091 -6.23577 20.9047C-6.43353 21.9165 -6.89183 23.7305 -7.65355 23.8691C-7.70811 23.8791 -7.76179 23.8841 -7.8131 23.8841C-8.18827 23.8841 -8.46151 23.6246 -8.59893 23.1552C-8.83616 23.9643 -9.27073 25.049 -9.89536 25.049L-9.91556 25.0487C-10.7948 25.0165 -10.8207 23.8615 -10.7807 22.56C-10.8504 22.5989 -10.9292 22.619 -11.0153 22.619C-11.5911 22.619 -12.2832 21.7539 -12.4125 20.8723C-12.7323 18.6905 -12.5204 16.0768 -12.3657 14.1683C-12.2896 13.2305 -12.2112 12.2636 -12.2757 11.9902C-12.3943 12.0998 -12.5454 12.2957 -12.7182 12.5195C-13.0427 12.9398 -13.4464 13.4629 -13.92 13.7888C-14.3043 14.0533 -14.7623 14.1931 -15.2445 14.1931C-16.0014 14.1931 -16.6675 13.8512 -16.8284 13.3801C-16.8892 13.2021 -16.924 12.8515 -16.4742 12.5032C-15.3021 11.5955 -13.0555 8.31644 -12.2569 6.34797C-11.7244 5.03532 -10.7435 4.60026 -9.9553 4.25063C-9.48477 4.04192 -9.07842 3.86172 -8.87815 3.54521C-8.41526 2.81365 -7.71416 -0.748978 -6.79436 -7.04361C-6.75735 -10.4598 -6.70279 -13.9365 -6.48411 -15.6434C-6.071 -18.868 -4.71915 -22.786 -3.53209 -24.1991C-3.36225 -24.4012 -3.21067 -24.585 -3.07525 -24.7493C-2.66413 -25.2478 -2.40995 -25.556 -2.21806 -25.6867C-2.04774 -25.9149 -1.90229 -26.3429 -1.78547 -26.9595C-2.05073 -30.9176 -1.20092 -34.3022 -0.511572 -35.4433L-0.474827 -35.5036C-0.395161 -35.7769 -0.284044 -36.1248 -0.166573 -36.4927L-0.125311 -36.6222L-0.103115 -36.7509C0.0807552 -37.8182 -0.0560017 -39.3202 -0.214354 -41.0594C-0.249043 -41.4405 -0.28459 -41.831 -0.317686 -42.2279C-0.52548 -44.7226 -0.211767 -46.7192 0.669558 -48.511C0.920532 -49.1206 1.39352 -49.9076 1.84505 -50.4649C3.84591 -53.9725 7.898 -55.4286 9.62483 -55.4286C9.73739 -55.4286 9.83913 -55.4218 9.92758 -55.4084C9.96957 -55.4106 10.0138 -55.4115 10.0603 -55.4115C10.2427 -55.4115 10.4598 -55.3963 10.6898 -55.3803C10.9692 -55.3608 11.2859 -55.3387 11.6095 -55.3386C11.759 -55.4639 12.0895 -55.5793 12.6912 -55.7825C13.1205 -55.9275 13.6549 -56.108 14.1892 -56.3312C15.434 -56.8509 16.9703 -57.8051 17.8422 -58.6C18.1112 -58.8453 18.2788 -58.9748 18.3978 -59.0277C18.4804 -59.1427 18.5682 -59.2573 18.659 -59.3758C19.0005 -59.8212 19.387 -60.3251 19.4924 -60.8429C19.4584 -61.1425 19.4465 -62.7888 19.5587 -63.8709C19.5461 -64.0441 19.5332 -64.1313 19.5247 -64.1742C19.5087 -64.2544 19.4954 -64.3358 19.4818 -64.4197C19.4192 -64.8038 19.3484 -65.239 18.9365 -65.8532C18.585 -66.3775 18.4875 -67.5959 18.4677 -68.5256C18.464 -68.7054 18.3175 -68.8516 18.1413 -68.8516C18.1183 -68.8516 18.0951 -68.8491 18.0722 -68.8441C17.9674 -68.8212 17.8577 -68.8091 17.7549 -68.8091C17.478 -68.8091 17.2492 -68.8932 17.0933 -69.0523C16.9324 -69.2163 16.8538 -69.4521 16.8595 -69.7531C16.8795 -70.805 16.6657 -71.4152 16.477 -71.9537C16.3819 -72.2252 16.2921 -72.4817 16.238 -72.7703C16.1419 -73.2832 16.0834 -73.9728 16.3503 -74.3455C16.4553 -74.4921 16.5993 -74.5794 16.7785 -74.605C16.8223 -74.6113 16.8675 -74.6144 16.9127 -74.6144C17.0613 -74.6144 17.2166 -74.5805 17.3744 -74.5135C17.396 -74.5044 17.4183 -74.4997 17.4405 -74.4997C17.4885 -74.4997 17.536 -74.5213 17.5708 -74.5588C17.6065 -74.5972 17.624 -74.6472 17.62 -74.6995C17.5044 -76.2383 17.3988 -80.0272 18.9118 -81.9685C20.7107 -84.2766 23.4774 -84.7442 24.5836 -84.8381C24.7266 -84.8502 24.8991 -84.8633 25.1375 -84.8633C25.3163 -84.8633 25.5101 -84.8556 25.7137 -84.8404C26.8401 -84.7567 29.6567 -84.3092 31.481 -81.9685C32.9939 -80.0272 32.8883 -76.2383 32.7727 -74.6994C32.7688 -74.6472 32.7862 -74.5972 32.8219 -74.5587C32.8567 -74.5212 32.9042 -74.4997 32.9522 -74.4997C32.9746 -74.4997 32.9968 -74.5044 33.0184 -74.5135C33.1762 -74.5805 33.3315 -74.6144 33.48 -74.6144C33.5252 -74.6144 33.5704 -74.6113 33.6143 -74.605C33.7934 -74.5794 33.9374 -74.4921 34.0424 -74.3455C34.3093 -73.9728 34.2508 -73.2832 34.1548 -72.7703C34.1007 -72.4817 34.0108 -72.2253 33.9157 -71.9538C33.7271 -71.4153 33.5133 -70.805 33.5333 -69.7531C33.539 -69.4521 33.4604 -69.2162 33.2995 -69.0522C33.1435 -68.8932 32.9147 -68.8091 32.6379 -68.8091C32.535 -68.8091 32.4253 -68.8212 32.3205 -68.8441C32.2976 -68.8491 32.2744 -68.8516 32.2514 -68.8516C32.0753 -68.8516 31.9288 -68.7054 31.925 -68.5256C31.9052 -67.5959 31.8078 -66.3775 31.4563 -65.8531C31.0445 -65.2391 30.9736 -64.8038 30.911 -64.4198C30.8974 -64.3359 30.8841 -64.2544 30.868 -64.1743C30.8594 -64.1309 30.8466 -64.0433 30.8341 -63.871C30.9463 -62.7885 30.9344 -61.1424 30.9004 -60.8429C31.0057 -60.3251 31.3922 -59.8212 31.7337 -59.3758C31.8259 -59.2556 31.915 -59.1393 31.9952 -59.0276C32.1142 -58.9746 32.2817 -58.8452 32.5506 -58.6C33.4224 -57.8052 34.9586 -56.851 36.2035 -56.3312C36.7378 -56.108 37.2722 -55.9275 37.7016 -55.7825C38.3033 -55.5793 38.6338 -55.4639 38.7833 -55.3386C39.1068 -55.3387 39.4235 -55.3608 39.703 -55.3803C39.9329 -55.3963 40.1501 -55.4115 40.3325 -55.4115C40.3789 -55.4115 40.4231 -55.4106 40.4651 -55.4084C40.5536 -55.4218 40.6553 -55.4286 40.7679 -55.4286C42.4947 -55.4286 46.5468 -53.9725 48.5477 -50.4649C48.9993 -49.9074 49.4723 -49.1204 49.7269 -48.5029C50.6045 -46.7193 50.9182 -44.7228 50.7104 -42.2279C50.6773 -41.8306 50.6418 -41.4399 50.607 -41.0584C50.4487 -39.3196 50.312 -37.818 50.4959 -36.7509L50.5253 -36.5803L50.5274 -36.5737C50.6457 -36.1936 50.7576 -35.8342 50.8365 -35.5549L50.9043 -35.4432C51.6012 -34.2898 52.4546 -30.8738 52.1739 -26.8858C52.287 -26.3039 52.431 -25.9026 52.6024 -25.6921C52.7958 -25.5644 53.053 -25.2525 53.4698 -24.747C53.6048 -24.5834 53.7558 -24.4004 53.9248 -24.1991C55.1119 -22.7861 56.4637 -18.8681 56.8768 -15.6435C57.0955 -13.9365 57.1501 -10.4599 57.1871 -7.04366C58.1069 -0.749031 58.808 2.81367 59.271 3.54516C59.4712 3.86166 59.8776 4.04187 60.348 4.25059C61.1363 4.60021 62.1171 5.03526 62.6497 6.34791C63.4483 8.31644 65.6949 11.5954 66.867 12.5032C67.3168 12.8515 67.282 13.2021 67.2212 13.3801C67.0603 13.8512 66.3942 14.193 65.6373 14.193C65.1551 14.193 64.697 14.0533 64.3128 13.7888C63.8393 13.4629 63.4355 12.9398 63.1111 12.5197C62.9384 12.2958 62.7871 12.0999 62.6685 11.9902C62.6041 12.2637 62.6825 13.2303 62.7585 14.1678C62.9132 16.0764 63.1251 18.6904 62.8053 20.8722C62.6761 21.7538 61.984 22.6189 61.4081 22.6189C61.3221 22.6189 61.2432 22.5988 61.1736 22.56C61.2135 23.8614 61.1875 25.0164 60.3083 25.0486L60.2881 25.0489C59.6635 25.0489 59.2289 23.9642 58.9917 23.1552C58.8543 23.6245 58.5811 23.884 58.206 23.884C58.1546 23.884 58.1009 23.879 58.0464 23.8691C57.2843 23.7304 56.8262 21.9164 56.6285 20.9046C56.5014 21.0909 56.3134 21.2725 56.0633 21.2725C55.8188 21.2725 55.5756 21.0953 55.3408 20.7458C54.9464 20.159 54.547 18.8542 54.1242 17.4728C53.6889 16.0508 53.2389 14.5803 52.7307 13.6184C51.536 11.3575 51.4458 8.69863 51.9674 7.34476C52.4375 6.12456 52.7221 5.34698 52.7108 4.83897C52.6715 3.066 51.1094 -1.92789 49.9688 -5.57431C49.7919 -6.13983 49.6246 -6.67451 49.474 -7.16211C48.3387 -9.79118 47.4888 -11.8609 47.2003 -12.6994C46.9133 -13.5333 46.7304 -14.2406 46.6409 -14.8617C46.5649 -15.2508 46.502 -15.667 46.4413 -16.0693C46.3809 -16.4691 46.3186 -16.8819 46.2429 -17.2681C45.8514 -17.5883 45.1037 -19.2025 45.2049 -21.3572C45.2807 -22.9669 44.3265 -26.0021 43.5597 -28.441C43.1113 -29.8673 42.7241 -31.099 42.6497 -31.7178C42.5803 -32.2945 42.4782 -33.2498 42.5247 -33.5319C42.5059 -33.575 42.4865 -33.5906 42.4717 -33.5985C42.4682 -33.6004 42.4548 -33.6065 42.4256 -33.6065C42.3965 -33.6065 42.3631 -33.6005 42.3283 -33.5892C42.0791 -32.0518 41.405 -29.1165 41.0691 -27.9904C40.8976 -27.4154 40.7931 -26.8565 40.7092 -26.4074C40.5922 -25.7819 40.5271 -25.4342 40.3614 -25.3138C40.317 -25.2005 40.2614 -25.0704 40.1982 -24.9225C40.0058 -24.4722 39.7422 -23.8554 39.6086 -23.239C39.5891 -23.086 39.5641 -22.9304 39.536 -22.7879C39.4631 -22.1295 39.4578 -21.1525 39.4626 -20.2828C39.5274 -19.877 39.5286 -19.1059 39.4653 -18.438C39.4915 -18.0108 39.6279 -17.6134 39.7599 -17.2289C39.8188 -17.0574 39.8744 -16.8953 39.9194 -16.7338C40.0516 -16.3083 40.2476 -15.4278 40.425 -13.6708C40.5319 -12.6114 40.3921 -11.7176 40.2798 -10.9994C40.1774 -10.3444 40.0889 -9.77872 40.218 -9.30842C40.3123 -8.96465 40.4248 -8.51389 40.4612 -8.06786C40.5211 -7.83639 40.6078 -7.51417 40.7028 -7.16136C40.8786 -6.50847 41.0778 -5.76846 41.1928 -5.28453C41.7315 -3.62906 42.4651 -0.556068 42.434 0.88044C42.4033 2.29349 43.158 6.72984 43.5562 8.39742C43.8521 9.63686 43.9742 11.8444 44.055 13.3052C44.0865 13.8766 44.1114 14.3279 44.137 14.5325C44.1468 14.6103 44.1533 14.6892 44.1331 14.752C44.1659 15.0755 44.2226 15.8132 44.203 16.1886C44.2576 17.7926 44.2049 21.06 43.8312 22.9495C43.6461 23.8848 43.6066 25.5331 43.5684 27.1272C43.5271 28.8472 43.4844 30.6257 43.2625 31.6405C42.8208 33.6617 41.8343 36.1693 40.8619 38.5646L40.8609 38.5671C40.7811 39.2035 40.7607 39.7061 40.8001 40.0614C40.8323 40.3518 40.9373 40.9295 41.059 41.5985C41.2868 42.8519 41.5705 44.4117 41.6425 45.4669C41.753 47.0858 41.7174 50.631 41.6321 51.5483C41.6486 51.8051 41.6559 52.0772 41.6543 52.3669C41.7035 52.821 41.7997 53.3102 41.8847 53.7419L41.896 53.7994C41.9792 53.996 42.0583 54.5635 42.0902 54.8126C42.1408 55.0174 42.2071 55.2414 42.2772 55.4784C42.4348 56.0116 42.6135 56.6158 42.7052 57.2919C42.7349 57.4614 42.7617 57.65 42.778 57.8041L42.7955 57.9652C42.8735 58.6793 43.0039 59.8744 42.8901 61.7092C42.7614 63.7875 41.9898 67.7954 41.5026 69.9823C40.9839 72.3103 39.9888 79.8092 39.7703 81.5407C39.732 81.844 39.6803 82.1405 39.6166 82.4221C39.5486 83.6743 39.5123 85.3271 39.593 86.009C39.691 86.8386 39.9179 87.5208 40.1372 88.1805L40.216 88.4184C40.4505 89.1324 40.3665 89.9244 39.9663 90.7724C39.6531 91.436 39.8695 92.8783 40.403 93.684C40.7856 94.2619 41.6736 95.3262 42.3221 96.1033C42.5754 96.4068 42.7941 96.669 42.9316 96.841C43.4645 97.5076 43.6109 98.606 43.4444 99.2829C43.2787 99.9564 43.0085 100.219 42.4805 100.219C42.2347 100.219 42.0197 100.107 41.847 100.018C41.7312 99.9574 41.6217 99.9006 41.5474 99.9006C41.5342 99.9006 41.5227 99.9024 41.5122 99.9062C41.4294 99.9361 41.3733 99.9814 41.3083 100.034C41.2021 100.12 41.0818 100.217 40.8499 100.238C40.8358 100.24 40.822 100.241 40.808 100.241Z" fill="white" stroke="#28839F" stroke-width="0.504915"/>
<path d="M1.22784 -21.2092C-0.58986 -19.845 -0.942819 -17.9105 -1.36883 -16.4184C-1.79486 -14.9264 -5.33993 -1.97008 -5.65944 -0.615067C-5.97895 0.739958 -6.08545 2.35379 -5.59858 1.72956C-5.11169 1.10535 -0.653739 -11.9119 0.700385 -14.7437C2.05451 -17.5755 2.72997 -18.4873 2.47546 -19.6461C2.27259 -20.5698 1.8973 -21.7116 1.22784 -21.2092Z" fill="#28839F" fill-opacity="0.2"/>
<path d="M2.53635 -17.4948C1.74081 -16.1515 -2.67728 -4.34055 -3.42789 -1.41739C-4.17849 1.50579 -4.19878 2.68317 -3.71189 2.39898C-3.22502 2.11478 2.21176 -10.2681 3.0638 -12.7447C3.91584 -15.2212 3.72311 -16.2362 3.4391 -17.17C3.15509 -18.1038 2.86093 -18.0429 2.53635 -17.4948Z" fill="#28839F" fill-opacity="0.2"/>
<path d="M23.0459 -12.379C21.6259 -12.3896 18.7756 -12.5414 18.096 -12.6429C17.4164 -12.7444 16.8281 -12.0136 16.9803 -11.0595C17.1324 -10.1054 17.7106 -6.30938 18.9278 -2.47272C20.145 1.36394 21.0376 3.73902 22.2345 4.81491C23.4314 5.89079 23.7154 7.14938 24.3138 7.05803C24.9123 6.96668 24.9148 4.55355 24.9224 3.602C24.929 2.78718 25.0036 -10.0192 24.7931 -10.4353C24.5733 -10.87 24.1389 -11.1471 23.884 -11.4021C23.6118 -11.6745 23.7255 -12.374 23.0459 -12.379Z" fill="#28839F" fill-opacity="0.2"/>
<path d="M10.884 -3.73148C11.5701 0.013166 11.9261 2.36819 12.6591 5.44402C13.288 8.083 14.2719 12.417 15.1544 15.1879C16.0368 17.9589 17.68 22.3741 18.5321 25.3886C19.3841 28.4031 20.6926 36.5941 20.8143 37.1117C20.936 37.6294 21.1186 34.6148 21.3012 33.0923C21.4837 31.5699 21.2403 27.7028 20.6926 25.1145C20.1448 22.5263 19.3232 17.9284 18.0756 15.0052C15.6103 9.22902 12.9503 -1.40557 12.1824 -3.18338C12.0108 -3.58064 10.7167 -4.64497 10.884 -3.73148Z" fill="#28839F" fill-opacity="0.2"/>
<path d="M9.33249 -5.25303C8.78476 -3.56815 8.06458 -0.523187 8.09501 0.877511C8.12544 2.27819 7.37992 6.70862 6.9691 8.42904C6.55831 10.1494 6.48223 13.8186 6.39094 14.5494C6.29965 15.2802 6.99953 13.6664 7.3647 12.1135C7.72985 10.5605 9.23612 5.91693 9.70779 4.44013C10.1795 2.9633 11.0923 -0.310021 10.925 -1.52801C10.7576 -2.746 10.4533 -3.94876 10.5294 -4.42074C10.6055 -4.89271 10.3468 -5.32408 10.0932 -5.62857C9.83965 -5.93308 9.33249 -5.25303 9.33249 -5.25303Z" fill="#28839F" fill-opacity="0.2"/>
<path d="M17.1937 24.0193C17.0197 26.1859 16.7169 28.8507 16.3924 31.1243C16.0678 33.3978 15.2766 35.306 15.2157 37.2548C15.1549 39.2036 15.4186 42.4312 16.4735 42.6545C17.5284 42.8778 20.3077 40.7464 20.4496 38.8382C20.5917 36.93 19.4962 32.2814 19.273 30.7995C19.0499 29.3176 17.8628 24.1518 17.5893 23.3088C17.4295 22.8166 17.285 22.8825 17.1937 24.0193Z" fill="#28839F"/>
<path d="M6.33005 16.0611C6.27043 17.5825 6.30976 20.9736 6.6952 22.9224C7.08065 24.8712 6.83721 29.6619 7.26322 31.6107C7.68925 33.5595 8.60213 35.9143 9.65704 38.5127C10.7119 41.111 10.9959 41.8012 11.3611 40.9892C11.7263 40.1772 11.6451 36.2391 10.9148 34.2091C10.1845 32.1791 9.06873 29.8041 8.521 27.429C7.97325 25.0539 7.58781 21.136 7.64867 19.8166C7.70953 18.4971 7.66896 16.7107 7.8921 15.1273C8.11526 13.5439 8.71498 10.4076 8.63256 10.2858C8.37439 9.90424 7.81097 11.5139 7.56753 12.5898C7.32408 13.6657 6.88793 14.5894 6.6952 14.9649C6.50249 15.3404 6.35034 15.5434 6.33005 16.0611Z" fill="#28839F"/>
<path d="M12.7607 -2.25387C12.935 -1.55634 14.1807 2.45061 14.3937 2.9987C14.6068 3.54679 14.9719 1.65891 14.8299 0.390166C14.717 -0.618721 14.6372 -1.09172 13.7344 -2.04581C12.8317 -2.9999 12.5984 -2.90347 12.7607 -2.25387Z" fill="#28839F" fill-opacity="0.2"/>
<path d="M15.0333 0.724951C15.0608 2.53676 14.9725 3.84604 14.9116 4.34845C14.8507 4.85088 15.155 6.49516 15.5202 6.96714C15.8854 7.4391 16.5396 6.69309 16.9504 5.23149C17.3612 3.76991 17.3764 2.62805 17.0721 2.00384C16.7678 1.37961 15.8701 0.481342 15.4898 0.11595C15.1094 -0.249443 15.0181 -0.279891 15.0333 0.724951Z" fill="#28839F" fill-opacity="0.2"/>
<path d="M17.4671 3.33344C17.4993 4.23433 17.2845 5.57658 16.7976 6.56112C16.3108 7.54565 16.047 7.85014 16.1485 8.63169C16.2499 9.41323 16.5745 10.6008 16.7976 10.9662C17.0208 11.3316 17.9946 9.39293 18.3191 8.5099C18.6437 7.62686 19.161 5.90137 19.1712 5.20103C19.1813 4.50069 18.4611 3.74959 18.096 3.31315C17.7308 2.8767 17.4367 2.48086 17.4671 3.33344Z" fill="#28839F" fill-opacity="0.2"/>
<path d="M21.5754 11.96C21.8427 13.1186 22.0775 16.8319 22.1536 18.2631C22.2297 19.6942 22.2906 21.4146 21.8493 22.7696C21.4081 24.1246 21.2407 24.5509 21.2407 25.9668C21.2407 27.3827 21.7276 30.0166 21.8037 30.8997C21.8798 31.7827 22.4883 29.7121 22.6253 28.5246C22.7622 27.3371 23.5838 22.4194 24.0555 20.8513C24.5271 19.2831 24.2989 16.1925 24.1772 15.0658C24.0555 13.9392 24.0174 12.9039 23.523 12.5233C23.0285 12.1427 22.4427 12.0894 21.971 11.4423C21.4994 10.7953 21.3701 11.0693 21.5754 11.96Z" fill="#28839F" fill-opacity="0.2"/>
<path d="M19.4453 42.5022C18.5144 44.6313 17.9542 45.7908 17.7412 46.4911C17.5282 47.1915 17.7868 47.1001 18.0759 47.2828C18.365 47.4655 18.0759 48.1506 17.8629 48.8053C17.6499 49.46 17.513 49.7949 17.8021 49.871C18.0911 49.9472 19.2475 47.1458 19.567 46.4302C19.8865 45.7147 19.973 43.8881 19.9626 42.9285C19.955 42.232 19.9626 41.6877 19.8732 41.7277C19.7903 41.7647 19.5878 42.1761 19.4453 42.5022Z" fill="#28839F" fill-opacity="0.2"/>
<path d="M10.3772 47.4349C10.2212 49.1785 11.0011 54.1795 11.3814 56.2653C11.7618 58.3511 13.5419 69.5109 13.755 70.942C13.968 72.3731 15.1344 80.4728 15.0127 81.7923C14.891 83.1117 14.3027 81.1021 13.8361 79.5593C13.3695 78.0165 11.3409 71.3988 10.6714 68.435C10.002 65.4712 9.25134 58.7926 9.12963 56.3566C8.96651 53.0921 8.29898 50.8198 10.1034 47.3892C10.2555 47.0999 10.4229 46.9248 10.3772 47.4349Z" fill="#28839F" fill-opacity="0.2"/>
<path d="M16.4734 27.6733C16.5343 26.2117 17.2258 22.2073 16.7726 21.0606C14.318 14.8489 13.3746 11.0173 11.5261 2.24991C11.2565 0.970951 10.991 1.75552 10.7942 2.30601C10.2807 3.74211 9.90291 5.65843 9.57599 6.75434C9.17025 8.11444 8.91668 11.1696 8.65295 12.6311C8.38923 14.0927 7.99364 17.9192 8.01393 20.4364C8.03421 22.9536 8.68338 26.8816 9.27169 28.5056C9.86001 30.1296 11.3612 33.8241 11.9901 35.7729C13.437 40.2565 14.9779 35.3464 14.9811 35.3328C15.4548 33.8306 16.4203 28.9494 16.4734 27.6733Z" fill="#28839F"/>
<path d="M49.1653 -21.2092C50.983 -19.845 51.3359 -17.9105 51.7619 -16.4184C52.188 -14.9264 55.733 -1.97008 56.0525 -0.615067C56.3721 0.739958 56.4786 2.35379 55.9917 1.72956C55.5048 1.10535 51.0468 -11.9119 49.6927 -14.7437C48.3386 -17.5755 47.6631 -18.4873 47.9177 -19.6461C48.1205 -20.5698 48.4958 -21.7116 49.1653 -21.2092Z" fill="#28839F" fill-opacity="0.2"/>
<path d="M47.8563 -17.4948C48.6519 -16.1515 53.07 -4.34055 53.8206 -1.41739C54.5712 1.50579 54.5915 2.68317 54.1046 2.39898C53.6177 2.11478 48.1809 -10.2681 47.3289 -12.7447C46.4769 -15.2212 46.6696 -16.2362 46.9536 -17.17C47.2376 -18.1038 47.5318 -18.0429 47.8563 -17.4948Z" fill="#28839F" fill-opacity="0.2"/>
<path d="M27.3468 -12.379C28.7668 -12.3896 31.6171 -12.5414 32.2967 -12.6429C32.9763 -12.7444 33.5646 -12.0136 33.4124 -11.0595C33.2603 -10.1054 32.6821 -6.30938 31.4649 -2.47272C30.2477 1.36394 29.3551 3.73902 28.1582 4.81491C26.9613 5.89079 26.6773 7.14938 26.0788 7.05803C25.4804 6.96668 25.4779 4.55355 25.4703 3.602C25.4637 2.78718 25.3891 -10.0192 25.5996 -10.4353C25.8194 -10.87 26.2538 -11.1471 26.5087 -11.4021C26.7809 -11.6745 26.6672 -12.374 27.3468 -12.379Z" fill="#28839F" fill-opacity="0.2"/>
<path d="M39.5083 -3.73148C38.8223 0.013166 38.4662 2.36819 37.7333 5.44402C37.1044 8.083 36.1205 12.417 35.238 15.1879C34.3556 17.9589 32.7123 22.3741 31.8603 25.3886C31.0083 28.4031 29.6998 36.5941 29.5781 37.1117C29.4564 37.6294 29.2738 34.6148 29.0912 33.0923C28.9086 31.5699 29.1521 27.7028 29.6998 25.1145C30.2475 22.5263 31.0691 17.9284 32.3167 15.0052C34.7821 9.22902 37.4421 -1.40557 38.21 -3.18338C38.3816 -3.58064 39.6757 -4.64497 39.5083 -3.73148Z" fill="#28839F" fill-opacity="0.2"/>
<path d="M41.0605 -5.25303C41.6082 -3.56815 42.3284 -0.523187 42.2979 0.877511C42.2675 2.27819 43.013 6.70862 43.4238 8.42904C43.8347 10.1494 43.9107 13.8186 44.002 14.5494C44.0933 15.2802 43.3934 13.6664 43.0283 12.1135C42.6631 10.5605 41.1568 5.91693 40.6852 4.44013C40.2135 2.9633 39.3006 -0.310021 39.468 -1.52801C39.6353 -2.746 39.9396 -3.94876 39.8636 -4.42074C39.7875 -4.89271 40.0461 -5.32408 40.2997 -5.62857C40.5533 -5.93308 41.0605 -5.25303 41.0605 -5.25303Z" fill="#28839F" fill-opacity="0.2"/>
<path d="M33.2297 23.9983C33.4037 26.1649 33.676 28.8499 34.0006 31.1235C34.3252 33.3971 35.1164 35.3053 35.1772 37.2541C35.2381 39.2028 34.9744 42.4305 33.9195 42.6538C32.8646 42.8771 30.0853 40.7456 29.9433 38.8374C29.8013 36.9293 30.8968 32.2806 31.1199 30.7987C31.3431 29.3168 32.4501 24.1207 32.8037 23.3081C33.0776 22.6788 33.1384 22.8615 33.2297 23.9983Z" fill="#28839F"/>
<path d="M44.0627 16.0611C44.1223 17.5825 44.083 20.9736 43.6975 22.9224C43.3121 24.8712 43.5555 29.6619 43.1295 31.6107C42.7035 33.5595 41.7906 35.9143 40.7357 38.5127C39.6808 41.111 39.3968 41.8012 39.0316 40.9892C38.6665 40.1772 38.7476 36.2391 39.4779 34.2091C40.2083 32.1791 41.324 29.8041 41.8718 27.429C42.4195 25.0539 42.8049 21.136 42.7441 19.8166C42.6832 18.4971 42.7238 16.7107 42.5006 15.1273C42.2775 13.5439 41.6778 10.4076 41.7602 10.2858C42.0184 9.90424 42.5818 11.5139 42.8252 12.5898C43.0687 13.6657 43.5048 14.5894 43.6975 14.9649C43.8903 15.3404 44.0424 15.5434 44.0627 16.0611Z" fill="#28839F"/>
<path d="M37.6045 -2.19065C37.4302 -1.49312 36.22 2.35397 36.007 2.90206C35.7939 3.45016 35.4212 1.6587 35.5632 0.389958C35.6761 -0.618929 35.7559 -1.09193 36.6587 -2.04602C37.5614 -3.0001 37.7668 -2.84024 37.6045 -2.19065Z" fill="#28839F" fill-opacity="0.2"/>
<path d="M35.3604 0.724951C35.3329 2.53676 35.4212 3.84604 35.4821 4.34845C35.543 4.85088 35.2387 6.49516 34.8735 6.96714C34.5083 7.43912 33.8541 6.69309 33.4433 5.23149C33.0325 3.76991 33.0173 2.62805 33.3216 2.00384C33.6259 1.37961 34.5236 0.481342 34.9039 0.11595C35.2843 -0.249443 35.3756 -0.279891 35.3604 0.724951Z" fill="#28839F" fill-opacity="0.2"/>
<path d="M32.9254 3.33344C32.8932 4.23433 33.108 5.57658 33.5948 6.56112C34.0817 7.54565 34.3454 7.85014 34.244 8.63169C34.1426 9.41323 33.818 10.6008 33.5948 10.9662C33.3717 11.3316 32.3979 9.39293 32.0733 8.5099C31.7487 7.62686 31.2314 5.90137 31.2213 5.20103C31.2112 4.50069 31.9313 3.74959 32.2965 3.31315C32.6616 2.8767 32.9558 2.48086 32.9254 3.33344Z" fill="#28839F" fill-opacity="0.2"/>
<path d="M28.8174 11.96C28.5502 13.1186 28.3153 16.8319 28.2392 18.2631C28.1631 19.6942 28.1023 21.4146 28.5435 22.7696C28.9847 24.1246 29.1521 24.5509 29.1521 25.9668C29.1521 27.3827 28.6652 30.0166 28.5891 30.8997C28.5131 31.7827 27.9045 29.7121 27.7675 28.5246C27.6306 27.3371 26.809 22.4194 26.3373 20.8513C25.8657 19.2831 26.0939 16.1925 26.2156 15.0658C26.3373 13.9392 26.3754 12.9039 26.8699 12.5233C27.3644 12.1427 27.9501 12.0894 28.4218 11.4423C28.8934 10.7953 29.0228 11.0693 28.8174 11.96Z" fill="#28839F" fill-opacity="0.2"/>
<path d="M30.9476 42.5015C31.8784 44.6306 32.4386 45.79 32.6516 46.4904C32.8646 47.1907 32.606 47.0994 32.3169 47.2821C32.0278 47.4648 32.3169 48.1499 32.5299 48.8046C32.7429 49.4592 32.8798 49.7942 32.5908 49.8703C32.3017 49.9464 31.1453 47.1451 30.8258 46.4295C30.5063 45.7139 30.4607 43.8869 30.4303 42.9278C30.4131 42.3882 30.4455 41.7688 30.5215 41.8595C30.6661 42.032 30.7612 42.0752 30.9476 42.5015Z" fill="#28839F" fill-opacity="0.2"/>
<path d="M40.0164 47.4349C40.1725 49.1785 39.3926 54.1795 39.0122 56.2653C38.6319 58.3511 36.8517 69.5109 36.6387 70.942C36.4257 72.3731 35.2592 80.4728 35.3809 81.7923C35.5027 83.1117 36.091 81.1021 36.5576 79.5593C37.0242 78.0165 39.0528 71.3988 39.7223 68.435C40.3917 65.4712 41.1423 58.7926 41.264 56.3566C41.4272 53.0921 42.0947 50.8198 40.2903 47.3892C40.1381 47.0999 39.9708 46.9248 40.0164 47.4349Z" fill="#28839F" fill-opacity="0.2"/>
<path d="M33.9196 27.6726C33.8587 26.211 33.1013 22.2422 33.5544 21.0954C36.0091 14.8837 36.8205 11.0112 38.8668 2.2492C39.1641 0.976388 39.402 1.75482 39.5988 2.30531C40.1123 3.74141 40.4393 5.72877 40.7663 6.82469C41.172 8.18478 41.456 11.0775 41.7197 12.5391C41.9835 14.0007 42.3486 17.8475 42.3283 20.3647C42.3081 22.8818 41.6893 26.82 41.101 28.444C40.5127 30.068 39.0318 33.8234 38.4029 35.7722C36.9217 40.3622 35.4151 35.3457 35.4119 35.3321C34.9382 33.8299 33.9727 28.9487 33.9196 27.6726Z" fill="#28839F"/>
</g>
<defs>
<clipPath id="clip0_4089_13882">
<rect width="49" height="48" fill="white" transform="translate(1)"/>
</clipPath>
</defs>
</svg>
