<svg width="61" height="48" viewBox="0 0 61 48" fill="none" xmlns="http://www.w3.org/2000/svg">
<g clip-path="url(#clip0_4048_2474)">
<path d="M42.808 161.241C42.6244 161.241 42.4761 161.133 42.3327 161.03C42.2137 160.944 42.1014 160.862 41.9936 160.862C41.9749 160.862 41.9568 160.865 41.9381 160.869C41.8153 160.901 41.7477 160.954 41.6695 161.015C41.5589 161.102 41.4335 161.2 41.1792 161.2C41.1624 161.2 41.1449 161.199 41.1267 161.198C40.8895 161.187 40.7413 161.087 40.6105 160.998C40.49 160.917 40.3949 160.853 40.2359 160.853C40.2264 160.853 40.2166 160.853 40.2066 160.853C40.0397 160.861 39.9434 160.918 39.8215 160.989C39.6689 161.079 39.496 161.18 39.1731 161.198C39.1507 161.2 39.1286 161.2 39.1068 161.2C38.8053 161.2 38.5461 161.085 38.3174 160.983C38.1252 160.898 37.9437 160.817 37.7627 160.813L37.7478 160.813C37.5631 160.813 37.336 160.888 37.0956 160.967C36.7967 161.066 36.458 161.178 36.1065 161.178L36.0798 161.178C35.2324 161.165 34.7509 160.728 34.6486 159.881C34.5943 159.432 34.7434 158.945 34.8876 158.475C35.0544 157.931 35.2268 157.369 35.0979 156.853C34.8256 155.763 34.6691 154.36 34.7085 153.363C34.7356 152.679 34.523 151.757 34.3355 150.944C34.2452 150.552 34.1599 150.183 34.1019 149.85C33.9806 149.156 34.4886 147.938 34.9368 146.863C35.1822 146.275 35.414 145.719 35.4607 145.421C35.5617 144.775 35.4463 141.256 35.3843 139.364L35.3752 139.087C35.3236 138.717 35.2718 138.323 35.2206 137.933C35.0812 136.871 34.9495 135.868 34.8348 135.439L34.7487 135.118C34.4431 133.982 33.9838 132.275 33.9829 131.678C33.8771 131.402 33.7228 130.993 33.5649 130.528C33.1839 130.059 32.9068 129.027 32.7414 127.46C32.4799 124.984 32.7685 121.507 33.068 120.05C33.2187 119.317 33.4544 118.429 33.6624 117.646C33.861 116.899 34.0486 116.193 34.1221 115.77C34.1979 115.336 34.2148 115.09 34.225 114.944C34.2316 114.848 34.236 114.784 34.2548 114.734C34.2295 114.599 34.2022 114.446 34.173 114.282C34.0293 113.476 33.8327 112.373 33.5767 111.802C33.2395 111.051 32.7967 108.811 32.6077 107.855L32.6012 107.822C32.541 107.517 32.4858 107.007 32.4371 106.304C32.3449 105.548 32.3165 104.638 32.2977 104.037L32.2944 103.933C32.2853 103.647 32.2854 103.076 32.3458 102.863C32.3379 102.683 32.3077 102.518 32.2224 102.181C32.1335 101.829 32.0739 101.449 32.0049 101.009C31.9713 100.795 31.9355 100.566 31.8929 100.32C31.8489 100.164 31.8203 100.008 31.8085 99.8565C31.7286 99.4462 31.6689 99.2524 31.6163 99.0812C31.5541 98.879 31.5 98.7029 31.4336 98.2626C31.3463 98.1421 31.2935 97.6902 31.1415 95.9965C31.0812 95.3247 31.0188 94.63 30.9564 94.1096C30.923 93.8313 30.9031 93.4741 30.8973 93.0477C30.8382 92.9257 30.759 92.8016 30.6754 92.6707C30.5817 92.5238 30.485 92.3723 30.397 92.1966C30.0435 91.8658 29.69 90.0393 29.6326 89.5415C29.5032 88.4192 28.6819 83.4697 28.2073 81.8917C27.6655 80.0905 28.0365 76.4604 28.0806 76.0524C28.0955 75.9138 28.1093 75.7766 28.1228 75.6418C28.1805 75.0654 28.2351 74.5197 28.3665 74.1003C28.2286 73.8427 27.5884 73.7272 27.2776 73.7272H27.1153C26.8069 73.7272 26.1741 73.841 26.0271 74.1024C26.1581 74.5218 26.2127 75.0671 26.2703 75.6429C26.2837 75.7774 26.2975 75.9142 26.3124 76.0525C26.3565 76.4605 26.7275 80.0908 26.1856 81.8917C25.7111 83.4697 24.8897 88.4192 24.7603 89.5415C24.7029 90.0393 24.3494 91.8658 23.9961 92.1966C23.908 92.3723 23.8113 92.5237 23.7177 92.6704C23.6341 92.8014 23.5548 92.9256 23.4957 93.0477C23.4899 93.4736 23.47 93.8307 23.4366 94.1096C23.3742 94.6301 23.3118 95.325 23.2515 95.997C23.0995 97.6904 23.0467 98.1422 22.9594 98.2627C22.893 98.7029 22.8388 98.879 22.7766 99.0812C22.7241 99.2523 22.6645 99.4461 22.5845 99.8565C22.5727 100.008 22.5441 100.164 22.497 100.333C22.4575 100.566 22.4218 100.794 22.3882 101.008C22.3192 101.448 22.2596 101.829 22.1706 102.181C22.0995 102.462 22.068 102.619 22.0542 102.762C22.088 102.908 22.0922 103.203 22.0964 103.689L22.0987 103.927C22.1056 104.569 22.0694 105.619 21.944 106.465C21.8989 107.081 21.8473 107.541 21.7917 107.822L21.7859 107.851C21.5968 108.808 21.1539 111.05 20.8162 111.802C20.5602 112.373 20.3635 113.477 20.2199 114.282C20.1907 114.446 20.1635 114.599 20.1383 114.734C20.157 114.784 20.1614 114.848 20.168 114.943C20.1781 115.09 20.1951 115.336 20.2709 115.77C20.3445 116.193 20.5321 116.899 20.7308 117.647C20.9387 118.43 21.1744 119.317 21.325 120.05C21.6245 121.507 21.9131 124.984 21.6516 127.46C21.5312 128.6 21.2819 130.071 20.7763 130.651C20.6173 131.126 20.4822 131.489 20.4101 131.678C20.4092 132.276 19.9495 133.984 19.6436 135.12L19.5582 135.439C19.4436 135.868 19.312 136.87 19.1727 137.931C19.1214 138.322 19.0695 138.717 19.0178 139.087L19.0086 139.369C18.9466 141.259 18.8314 144.776 18.9323 145.421C18.979 145.719 19.2108 146.275 19.4561 146.863C19.9044 147.937 20.4124 149.156 20.2911 149.85C20.233 150.183 20.1478 150.552 20.0575 150.944C19.87 151.757 19.6574 152.679 19.6844 153.363C19.724 154.36 19.5675 155.763 19.2951 156.853C19.1661 157.369 19.3386 157.931 19.5054 158.475C19.6496 158.945 19.7987 159.432 19.7444 159.881C19.6421 160.728 19.1605 161.165 18.3132 161.178L18.2865 161.178C17.9349 161.178 17.5962 161.066 17.2974 160.967C17.0569 160.888 16.8299 160.813 16.6451 160.813L16.6303 160.813C16.4493 160.817 16.2678 160.898 16.0756 160.983C15.8469 161.085 15.5877 161.2 15.2862 161.2C15.2643 161.2 15.2422 161.2 15.2199 161.198C14.8969 161.18 14.7241 161.079 14.5715 160.989C14.4496 160.918 14.3533 160.861 14.1864 160.853C14.1763 160.853 14.1666 160.853 14.1571 160.853C13.9981 160.853 13.903 160.917 13.7825 160.998C13.6517 161.087 13.5035 161.187 13.2663 161.198C13.2481 161.199 13.2306 161.2 13.2139 161.2C12.9595 161.2 12.8341 161.102 12.7235 161.015C12.6452 160.954 12.5776 160.901 12.4548 160.869C12.4362 160.865 12.418 160.862 12.3993 160.862C12.2916 160.862 12.1793 160.944 12.0603 161.03C11.9169 161.133 11.7686 161.241 11.585 161.241C11.5711 161.241 11.557 161.24 11.5429 161.239C11.311 161.217 11.1907 161.12 11.0845 161.034C11.0195 160.981 10.9634 160.936 10.8806 160.906C10.8701 160.903 10.8586 160.901 10.8454 160.901C10.7711 160.901 10.6617 160.957 10.5459 161.018C10.3732 161.107 10.1581 161.219 9.91232 161.219C9.38438 161.219 9.11413 160.956 8.9484 160.283C8.78195 159.606 8.92828 158.508 9.46127 157.841C9.59888 157.669 9.8179 157.406 10.0715 157.102C10.7197 156.326 11.6075 155.262 11.9899 154.684C12.5234 153.878 12.7397 152.436 12.4265 151.773C12.0263 150.924 11.9423 150.132 12.1769 149.419L12.256 149.18C12.4752 148.52 12.7019 147.838 12.7999 147.009C12.8804 146.327 12.8442 144.675 12.7763 143.422C12.7126 143.141 12.6608 142.844 12.6225 142.541C12.4039 140.809 11.4082 133.308 10.8902 130.982C10.4031 128.796 9.63151 124.788 9.50266 122.709C9.38891 120.874 9.51935 119.679 9.59729 118.965L9.61476 118.804C9.64154 118.552 9.71364 118.065 9.76307 117.839C9.85995 117.344 9.99578 116.884 10.1156 116.479C10.1857 116.242 10.252 116.018 10.3027 115.812C10.3345 115.564 10.4135 114.996 10.4968 114.8L10.5082 114.742C10.5932 114.31 10.6894 113.821 10.7386 113.367C10.737 113.08 10.7441 112.811 10.7602 112.545C10.6752 111.611 10.6402 108.081 10.7503 106.467C10.8223 105.412 11.106 103.852 11.3338 102.599C11.4554 101.93 11.5605 101.352 11.5928 101.061C11.6322 100.706 11.6116 100.203 11.5319 99.5669L11.5308 99.5641C10.5585 97.1696 9.57208 94.6621 9.13026 92.6406C8.90838 91.6258 8.86573 89.8474 8.82446 88.1276C8.78619 86.5334 8.74664 84.8849 8.56164 83.9496C8.18799 82.0608 8.13523 78.7931 8.18966 77.1771C8.17018 76.8139 8.227 76.0759 8.25969 75.752C8.23956 75.6892 8.24606 75.6104 8.25583 75.5326C8.28135 75.328 8.30627 74.877 8.33783 74.306C8.41863 72.845 8.54063 70.6371 8.8366 69.3975C9.23476 67.7301 9.98956 63.294 9.95879 61.8805C9.92763 60.4441 10.6613 57.3711 11.2029 55.7049C11.3148 55.2321 11.5139 54.4929 11.6895 53.8408C11.7846 53.4872 11.8716 53.1642 11.9315 52.9323C11.968 52.4865 12.0806 52.0356 12.1749 51.6916C12.3039 51.2214 12.2154 50.6558 12.113 50.0008C12.0007 49.2826 11.8609 48.3887 11.9678 47.3292C12.1452 45.5721 12.3413 44.6917 12.4745 44.2626C12.5184 44.1049 12.574 43.9428 12.6329 43.7712C12.7649 43.3867 12.9013 42.9892 12.9275 42.5621C12.8642 41.8941 12.8654 41.1232 12.9302 40.7173C12.935 39.8476 12.9297 38.8705 12.8551 38.2009C12.8288 38.0705 12.8038 37.9149 12.7824 37.7498C12.6506 37.1448 12.3871 36.528 12.1946 36.0776C12.1314 35.9297 12.0758 35.7995 12.0314 35.6862C11.8656 35.5659 11.8006 35.2181 11.6837 34.5926C11.5997 34.1435 11.4952 33.5846 11.3237 33.0097C10.9879 31.884 10.3139 28.9488 10.0645 27.4108C10.0296 27.3996 9.99634 27.3936 9.96718 27.3936C9.93807 27.3936 9.92465 27.3997 9.92126 27.4015C9.90644 27.4095 9.88703 27.4251 9.8681 27.4681C9.91469 27.7503 9.81249 28.7056 9.74311 29.2823C9.66868 29.9011 9.28141 31.1329 8.83308 32.5592C8.06639 34.998 7.11217 38.0332 7.18785 39.6429C7.28918 41.7977 6.54136 43.4119 6.1499 43.732C6.07435 44.118 6.01202 44.5306 5.95162 44.9302C5.89082 45.3328 5.82789 45.7492 5.75074 46.1452C5.66243 46.7594 5.47942 47.4667 5.19249 48.3007C4.90404 49.1393 4.05415 51.209 2.91879 53.8379C2.76822 54.3254 2.60097 54.8601 2.42406 55.4256C1.2834 59.072 -0.278764 64.066 -0.318039 65.839C-0.329267 66.3472 -0.0446644 67.1247 0.4254 68.3448C0.946959 69.6987 0.856718 72.3576 -0.33791 74.6184C-0.846119 75.5803 -1.29618 77.0508 -1.73148 78.4729C-2.15423 79.8543 -2.55366 81.1591 -2.94805 81.7459C-3.18288 82.0953 -3.42595 82.2725 -3.67049 82.2725C-3.92054 82.2725 -4.10859 82.091 -4.23577 81.9047C-4.43353 82.9165 -4.89183 84.7305 -5.65355 84.8691C-5.70811 84.8791 -5.76179 84.8841 -5.8131 84.8841C-6.18827 84.8841 -6.46151 84.6246 -6.59893 84.1552C-6.83616 84.9643 -7.27073 86.049 -7.89536 86.049L-7.91556 86.0487C-8.79481 86.0165 -8.82074 84.8615 -8.78073 83.56C-8.85037 83.5989 -8.92924 83.619 -9.01529 83.619C-9.59114 83.619 -10.2832 82.7539 -10.4125 81.8723C-10.7323 79.6905 -10.5204 77.0768 -10.3657 75.1683C-10.2896 74.2305 -10.2112 73.2636 -10.2757 72.9902C-10.3943 73.0998 -10.5454 73.2957 -10.7182 73.5195C-11.0427 73.9398 -11.4464 74.4629 -11.92 74.7888C-12.3043 75.0533 -12.7623 75.1931 -13.2445 75.1931C-14.0014 75.1931 -14.6675 74.8512 -14.8284 74.3801C-14.8892 74.2021 -14.924 73.8515 -14.4742 73.5032C-13.3021 72.5955 -11.0555 69.3164 -10.2569 67.348C-9.72438 66.0353 -8.74345 65.6003 -7.9553 65.2506C-7.48477 65.0419 -7.07842 64.8617 -6.87815 64.5452C-6.41526 63.8137 -5.71416 60.251 -4.79436 53.9564C-4.75735 50.5402 -4.70279 47.0635 -4.48411 45.3566C-4.071 42.132 -2.71915 38.214 -1.53209 36.8009C-1.36225 36.5988 -1.21067 36.415 -1.07525 36.2507C-0.664126 35.7522 -0.409954 35.444 -0.218056 35.3133C-0.04774 35.0851 0.0977116 34.6571 0.21453 34.0405C-0.0507336 30.0824 0.799085 26.6978 1.48843 25.5567L1.52517 25.4964C1.60484 25.2231 1.71596 24.8752 1.83343 24.5073L1.87469 24.3778L1.89688 24.2491C2.08076 23.1818 1.944 21.6798 1.78565 19.9406C1.75096 19.5595 1.71541 19.169 1.68231 18.7721C1.47452 16.2774 1.78823 14.2808 2.66956 12.489C2.92053 11.8794 3.39352 11.0924 3.84505 10.5351C5.84591 7.0275 9.898 5.57143 11.6248 5.57143C11.7374 5.57143 11.8391 5.57821 11.9276 5.59157C11.9696 5.58944 12.0138 5.58851 12.0603 5.58851C12.2427 5.58851 12.4598 5.60366 12.6898 5.61969C12.9692 5.63918 13.2859 5.66132 13.6095 5.66139C13.759 5.53605 14.0895 5.42068 14.6912 5.21747C15.1205 5.07246 15.6549 4.892 16.1892 4.66884C17.434 4.14907 18.9703 3.19489 19.8422 2.39997C20.1112 2.15467 20.2788 2.02515 20.3978 1.97229C20.4804 1.85733 20.5682 1.74269 20.659 1.62419C21.0005 1.17882 21.387 0.67487 21.4924 0.157093C21.4584 -0.142525 21.4465 -1.78876 21.5587 -2.87093C21.5461 -3.04408 21.5332 -3.13131 21.5247 -3.17421C21.5087 -3.2544 21.4954 -3.33578 21.4818 -3.4197C21.4192 -3.80376 21.3484 -4.23902 20.9365 -4.85316C20.585 -5.37746 20.4875 -6.59588 20.4677 -7.52565C20.464 -7.70538 20.3175 -7.8516 20.1413 -7.8516C20.1183 -7.8516 20.0951 -7.84907 20.0722 -7.84409C19.9674 -7.82121 19.8577 -7.80912 19.7549 -7.80912C19.478 -7.80912 19.2492 -7.89317 19.0933 -8.05228C18.9324 -8.21632 18.8538 -8.45209 18.8595 -8.75311C18.8795 -9.80497 18.6657 -10.4152 18.477 -10.9537C18.3819 -11.2252 18.2921 -11.4817 18.238 -11.7703C18.1419 -12.2832 18.0834 -12.9728 18.3503 -13.3455C18.4553 -13.4921 18.5993 -13.5794 18.7785 -13.605C18.8223 -13.6113 18.8675 -13.6144 18.9127 -13.6144C19.0613 -13.6144 19.2166 -13.5805 19.3744 -13.5135C19.396 -13.5044 19.4183 -13.4997 19.4405 -13.4997C19.4885 -13.4997 19.536 -13.5213 19.5708 -13.5588C19.6065 -13.5972 19.624 -13.6472 19.62 -13.6995C19.5044 -15.2383 19.3988 -19.0272 20.9118 -20.9685C22.7107 -23.2766 25.4774 -23.7442 26.5836 -23.8381C26.7266 -23.8502 26.8991 -23.8633 27.1375 -23.8633C27.3163 -23.8633 27.5101 -23.8556 27.7137 -23.8404C28.8401 -23.7567 31.6567 -23.3092 33.481 -20.9685C34.9939 -19.0272 34.8883 -15.2383 34.7727 -13.6994C34.7688 -13.6472 34.7862 -13.5972 34.8219 -13.5587C34.8567 -13.5212 34.9042 -13.4997 34.9522 -13.4997C34.9746 -13.4997 34.9968 -13.5044 35.0184 -13.5135C35.1762 -13.5805 35.3315 -13.6144 35.48 -13.6144C35.5252 -13.6144 35.5704 -13.6113 35.6143 -13.605C35.7934 -13.5794 35.9374 -13.4921 36.0424 -13.3455C36.3093 -12.9728 36.2508 -12.2832 36.1548 -11.7703C36.1007 -11.4817 36.0108 -11.2253 35.9157 -10.9538C35.7271 -10.4153 35.5133 -9.80505 35.5333 -8.75311C35.539 -8.45211 35.4604 -8.21625 35.2995 -8.05221C35.1435 -7.89315 34.9147 -7.8091 34.6379 -7.8091C34.535 -7.8091 34.4253 -7.82121 34.3205 -7.84407C34.2976 -7.84906 34.2744 -7.85159 34.2514 -7.85159C34.0753 -7.85159 33.9288 -7.70538 33.925 -7.52563C33.9052 -6.59587 33.8078 -5.37751 33.4563 -4.85315C33.0445 -4.23908 32.9736 -3.80381 32.911 -3.41982C32.8974 -3.33591 32.8841 -3.25445 32.868 -3.17426C32.8594 -3.13091 32.8466 -3.04327 32.8341 -2.87098C32.9463 -1.78854 32.9344 -0.142441 32.9004 0.15711C33.0057 0.674885 33.3922 1.17884 33.7337 1.62421C33.8259 1.74442 33.915 1.86065 33.9952 1.97236C34.1142 2.02536 34.2817 2.15481 34.5506 2.39997C35.4224 3.19483 36.9586 4.14901 38.2035 4.66884C38.7378 4.892 39.2722 5.07246 39.7016 5.21747C40.3033 5.42075 40.6338 5.53605 40.7833 5.66139C41.1068 5.66132 41.4235 5.63918 41.703 5.61969C41.9329 5.60366 42.1501 5.58851 42.3325 5.58851C42.3789 5.58851 42.4231 5.58943 42.4651 5.59157C42.5536 5.57821 42.6553 5.57143 42.7679 5.57143C44.4947 5.57143 48.5468 7.02749 50.5477 10.5351C50.9993 11.0926 51.4723 11.8796 51.7269 12.4971C52.6045 14.2807 52.9182 16.2772 52.7104 18.7721C52.6773 19.1694 52.6418 19.5601 52.607 19.9416C52.4487 21.6804 52.312 23.182 52.4959 24.2491L52.5253 24.4197L52.5274 24.4263C52.6457 24.8064 52.7576 25.1658 52.8365 25.4451L52.9043 25.5568C53.6012 26.7102 54.4546 30.1262 54.1739 34.1142C54.287 34.6961 54.431 35.0974 54.6024 35.3079C54.7958 35.4356 55.053 35.7475 55.4698 36.253C55.6048 36.4166 55.7558 36.5996 55.9248 36.8009C57.1119 38.2139 58.4637 42.1319 58.8768 45.3565C59.0955 47.0635 59.1501 50.5401 59.1871 53.9563C60.1069 60.251 60.808 63.8137 61.271 64.5452C61.4712 64.8617 61.8776 65.0419 62.348 65.2506C63.1363 65.6002 64.1171 66.0353 64.6497 67.3479C65.4483 69.3164 67.6949 72.5954 68.867 73.5032C69.3168 73.8515 69.282 74.2021 69.2212 74.3801C69.0603 74.8512 68.3942 75.193 67.6373 75.193C67.1551 75.193 66.697 75.0533 66.3128 74.7888C65.8393 74.4629 65.4355 73.9398 65.1111 73.5197C64.9384 73.2958 64.7871 73.0999 64.6685 72.9902C64.6041 73.2637 64.6825 74.2303 64.7585 75.1678C64.9132 77.0764 65.1251 79.6904 64.8053 81.8722C64.6761 82.7538 63.984 83.6189 63.4081 83.6189C63.3221 83.6189 63.2432 83.5988 63.1736 83.56C63.2135 84.8614 63.1875 86.0164 62.3083 86.0486L62.2881 86.0489C61.6635 86.0489 61.2289 84.9642 60.9917 84.1552C60.8543 84.6245 60.5811 84.884 60.206 84.884C60.1546 84.884 60.1009 84.879 60.0464 84.8691C59.2843 84.7304 58.8262 82.9164 58.6285 81.9046C58.5014 82.0909 58.3134 82.2725 58.0633 82.2725C57.8188 82.2725 57.5756 82.0953 57.3408 81.7458C56.9464 81.159 56.547 79.8542 56.1242 78.4728C55.6889 77.0508 55.2389 75.5803 54.7307 74.6184C53.536 72.3575 53.4458 69.6986 53.9674 68.3448C54.4375 67.1246 54.7221 66.347 54.7108 65.839C54.6715 64.066 53.1094 59.0721 51.9688 55.4257C51.7919 54.8602 51.6246 54.3255 51.474 53.8379C50.3387 51.2088 49.4888 49.1391 49.2003 48.3006C48.9133 47.4667 48.7304 46.7594 48.6409 46.1383C48.5649 45.7492 48.502 45.333 48.4413 44.9307C48.3809 44.5309 48.3186 44.1181 48.2429 43.7319C47.8514 43.4117 47.1037 41.7975 47.2049 39.6428C47.2807 38.0331 46.3265 34.9979 45.5597 32.559C45.1113 31.1327 44.7241 29.901 44.6497 29.2822C44.5803 28.7055 44.4782 27.7502 44.5247 27.4681C44.5059 27.425 44.4865 27.4094 44.4717 27.4015C44.4682 27.3996 44.4548 27.3935 44.4256 27.3935C44.3965 27.3935 44.3631 27.3995 44.3283 27.4108C44.0791 28.9482 43.405 31.8835 43.0691 33.0096C42.8976 33.5846 42.7931 34.1435 42.7092 34.5926C42.5922 35.2181 42.5271 35.5658 42.3614 35.6862C42.317 35.7995 42.2614 35.9296 42.1982 36.0775C42.0058 36.5278 41.7422 37.1446 41.6086 37.761C41.5891 37.914 41.5641 38.0696 41.536 38.2121C41.4631 38.8705 41.4578 39.8475 41.4626 40.7172C41.5274 41.123 41.5286 41.8941 41.4653 42.562C41.4915 42.9892 41.6279 43.3866 41.7599 43.7711C41.8188 43.9426 41.8744 44.1047 41.9194 44.2662C42.0516 44.6917 42.2476 45.5722 42.425 47.3292C42.5319 48.3886 42.3921 49.2824 42.2798 50.0006C42.1774 50.6556 42.0889 51.2213 42.218 51.6916C42.3123 52.0353 42.4248 52.4861 42.4612 52.9321C42.5211 53.1636 42.6078 53.4858 42.7028 53.8386C42.8786 54.4915 43.0778 55.2315 43.1928 55.7155C43.7315 57.3709 44.4651 60.4439 44.434 61.8804C44.4033 63.2935 45.158 67.7298 45.5562 69.3974C45.8521 70.6369 45.9742 72.8444 46.055 74.3052C46.0865 74.8766 46.1114 75.3279 46.137 75.5325C46.1468 75.6103 46.1533 75.6892 46.1331 75.752C46.1659 76.0755 46.2226 76.8132 46.203 77.1886C46.2576 78.7926 46.2049 82.06 45.8312 83.9495C45.6461 84.8848 45.6066 86.5331 45.5684 88.1272C45.5271 89.8472 45.4844 91.6257 45.2625 92.6405C44.8208 94.6617 43.8343 97.1693 42.8619 99.5646L42.8609 99.5671C42.7811 100.204 42.7607 100.706 42.8001 101.061C42.8323 101.352 42.9373 101.929 43.059 102.598C43.2868 103.852 43.5705 105.412 43.6425 106.467C43.753 108.086 43.7174 111.631 43.6321 112.548C43.6486 112.805 43.6559 113.077 43.6543 113.367C43.7035 113.821 43.7997 114.31 43.8847 114.742L43.896 114.799C43.9792 114.996 44.0583 115.564 44.0902 115.813C44.1408 116.017 44.2071 116.241 44.2772 116.478C44.4348 117.012 44.6135 117.616 44.7052 118.292C44.7349 118.461 44.7617 118.65 44.778 118.804L44.7955 118.965C44.8735 119.679 45.0039 120.874 44.8901 122.709C44.7614 124.788 43.9898 128.795 43.5026 130.982C42.9839 133.31 41.9888 140.809 41.7703 142.541C41.732 142.844 41.6803 143.141 41.6166 143.422C41.5486 144.674 41.5123 146.327 41.593 147.009C41.691 147.839 41.9179 148.521 42.1372 149.181L42.216 149.418C42.4505 150.132 42.3665 150.924 41.9663 151.772C41.6531 152.436 41.8695 153.878 42.403 154.684C42.7856 155.262 43.6736 156.326 44.3221 157.103C44.5754 157.407 44.7941 157.669 44.9316 157.841C45.4645 158.508 45.6109 159.606 45.4444 160.283C45.2787 160.956 45.0085 161.219 44.4805 161.219C44.2347 161.219 44.0197 161.107 43.847 161.018C43.7312 160.957 43.6217 160.901 43.5474 160.901C43.5342 160.901 43.5227 160.902 43.5122 160.906C43.4294 160.936 43.3733 160.981 43.3083 161.034C43.2021 161.12 43.0818 161.217 42.8499 161.238C42.8358 161.24 42.822 161.241 42.808 161.241Z" fill="white" stroke="#28839F" stroke-width="0.504915"/>
<path d="M5.22533 20.6746C5.19625 20.6914 5.15966 20.6745 5.15387 20.6414C4.74092 18.2756 1.68489 15.2191 3.70436 11.087C5.74316 6.91536 10.6119 5.51468 11.9204 5.72782C13.161 5.9299 16.4256 8.07527 17.9541 8.53102C18.0037 8.54583 17.9974 8.61972 17.9458 8.62501C15.7579 8.84891 13.922 8.91489 11.7513 10.4424C9.49514 12.0302 9.94965 14.0406 9.46278 15.5935C8.97979 17.134 7.71346 19.2439 5.22533 20.6746Z" fill="#28839F"/>
<path d="M2.79133 12.5479C2.47182 14.3748 2.86682 15.995 3.58251 17.8157C4.19954 19.3853 4.7997 20.3278 4.76927 21.0738C4.13024 21.6523 2.41096 23.7838 2.0306 24.271C2.25882 22.9464 2.00017 20.952 1.81759 18.7596C1.635 16.5672 1.8328 14.4966 2.79133 12.5479Z" fill="#28839F"/>
<path d="M9.5086 16.6895C8.85943 19.1051 6.11821 20.2724 3.8867 27.6716C3.24948 29.7846 2.46145 36.4714 2.48693 39.0801C2.49644 40.0548 3.26796 38.8162 3.26796 38.8162C3.26796 38.8162 8.79604 30.879 9.48578 26.9002C10.1755 22.9215 9.5086 16.6895 9.5086 16.6895Z" fill="#28839F" fill-opacity="0.2"/>
<path d="M7.09234 20.0186C6.39816 20.8274 4.00879 25.2153 3.36113 27.845C2.79521 30.1427 1.88752 35.5005 1.82165 39.919C1.82003 40.0275 1.66935 40.0533 1.63035 39.952C-0.806973 33.623 0.672461 27.1695 1.60483 25.6264C2.39487 24.3189 4.20151 21.5004 7.09234 20.0186Z" fill="#28839F" fill-opacity="0.2"/>
<path d="M4.09023 38.6336C3.72888 39.2866 5.30742 40.7753 5.91603 43.5868C6.01998 44.0671 7.17379 42.2368 7.05207 39.6486C6.93035 37.0604 9.41038 30.9096 9.60817 29.2653C9.80596 27.621 9.72988 27.4688 9.72988 27.4688C7.39282 33.3802 6.17974 34.8579 4.09023 38.6336Z" fill="#28839F" fill-opacity="0.2"/>
<path d="M0.194968 35.7111C0.586945 37.7843 1.16872 40.8266 0.681839 42.8566C0.194968 44.8866 -3.90291 59.6242 -4.51151 61.4918C-5.1201 63.3594 -4.99838 61.4309 -4.79551 59.7054C-4.59265 57.9799 -4.75495 48.5405 -4.34921 45.3738C-3.94348 42.207 -2.60457 38.2891 -1.42796 36.8884C-0.251335 35.4877 0.0529594 34.96 0.194968 35.7111Z" fill="#28839F" fill-opacity="0.2"/>
<path d="M3.22784 39.7908C1.41014 41.155 1.05718 43.0895 0.631169 44.5816C0.205143 46.0736 -3.33993 59.0299 -3.65944 60.3849C-3.97895 61.74 -4.08545 63.3538 -3.59858 62.7296C-3.11169 62.1054 1.34626 49.0881 2.70038 46.2563C4.05451 43.4245 4.72997 42.5127 4.47546 41.3539C4.27259 40.4302 3.8973 39.2884 3.22784 39.7908Z" fill="#28839F" fill-opacity="0.2"/>
<path d="M4.53635 43.5052C3.74081 44.8485 -0.67728 56.6594 -1.42789 59.5826C-2.17849 62.5058 -2.19878 63.6832 -1.71189 63.399C-1.22502 63.1148 4.21176 50.7319 5.0638 48.2553C5.91584 45.7788 5.72311 44.7638 5.4391 43.83C5.15509 42.8962 4.86093 42.9571 4.53635 43.5052Z" fill="#28839F" fill-opacity="0.2"/>
<path d="M23.5857 8.89431C21.7695 8.43484 17.9826 8.83797 16.3637 9.05671C13.5845 9.43226 11.4963 10.6414 10.7647 11.9799C10.1155 13.1674 9.64953 15.9552 10.1561 16.527C11.7384 18.3134 11.0284 23.429 16.6072 26.0273C18.4743 26.897 24.4581 26.342 25.371 25.2762C26.2838 24.2105 26.649 19.0036 26.3447 16.0195C26.0404 13.0355 25.3912 9.35106 23.5857 8.89431Z" fill="#28839F" fill-opacity="0.2"/>
<path d="M19.934 2.50011C19.0833 3.27567 17.53 4.25604 16.2418 4.79399C14.9536 5.33193 13.7162 5.60599 13.6452 5.82928C13.5742 6.05258 14.9841 6.50932 15.9578 6.86457C16.9316 7.21982 18.1995 7.48371 18.6356 7.25027C19.0718 7.01682 19.8021 4.7737 20.0151 4.1038C20.2281 3.43391 20.4716 2.64221 20.5628 2.27682C20.6541 1.91142 20.3904 2.08397 19.934 2.50011Z" fill="#28839F" fill-opacity="0.2"/>
<path d="M20.8978 1.86054C20.598 2.67031 20.0153 5.13387 19.6501 6.21484C19.285 7.2958 19.1633 7.69165 19.6197 7.88958C20.0762 8.0875 21.0651 7.49372 21.2021 7.06743C21.339 6.64114 21.339 1.93666 21.3238 1.58648C21.3086 1.23631 21.0499 1.44946 20.8978 1.86054Z" fill="#28839F" fill-opacity="0.2"/>
<path d="M21.6127 2.53013C21.6026 3.30152 21.5215 5.6969 21.7801 6.24499C22.0388 6.79309 23.1951 7.50865 23.5755 7.73702C23.9558 7.96541 24.443 8.10997 24.4579 7.73702C24.4681 7.48328 23.4671 6.06525 22.8299 4.45353C22.2822 3.06807 21.9063 1.86641 21.9018 1.86024C21.704 1.58618 21.6192 2.03872 21.6127 2.53013Z" fill="#28839F" fill-opacity="0.2"/>
<path d="M21.63 0.159973C21.7565 0.839459 22.6423 3.33428 23.3007 4.76041C23.6012 5.41128 24.5636 7.39085 24.9164 7.28521C25.2385 7.18878 23.9462 2.97945 23.5344 1.51498C22.6097 -1.77359 22.3967 -3.98118 21.9343 -3.76803C21.5667 -3.59856 21.5819 -0.0988464 21.63 0.159973Z" fill="#28839F" fill-opacity="0.2"/>
<path d="M25.7968 26.3418C26.3531 27.3439 26.8162 29.1889 26.8314 30.3307C26.8466 31.4726 26.2989 31.6248 25.5838 31.975C24.8687 32.3252 21.5366 34.0557 20.6237 34.8373C19.6956 35.6318 19.1631 36.1314 18.9805 34.5632C18.7979 32.9951 18.5697 31.2747 18.8588 29.5999C19.1479 27.9252 19.437 27.2705 20.1977 27.0422C20.9585 26.8138 21.9094 26.8671 23.0885 26.6311C24.2505 26.3985 25.5686 25.9307 25.7968 26.3418Z" fill="#28839F" fill-opacity="0.2"/>
<path d="M25.6598 32.5919C21.4225 34.1829 19.5372 36.6776 19.1428 37.4156C18.6762 38.2885 18.9178 40.3947 19.0515 40.76C19.1833 41.1203 20.1894 41.1591 21.0801 40.9681C22.3582 40.6941 24.6708 40.3997 25.4924 40.2982C26.314 40.1967 26.8111 39.202 26.8516 38.2682C26.8922 37.3344 26.9226 34.391 26.8516 33.8023C26.7806 33.2136 26.4254 32.3044 25.6598 32.5919Z" fill="#28839F" fill-opacity="0.2"/>
<path d="M25.695 40.9285C24.485 40.7969 20.6741 41.5984 19.9945 41.9232C19.3149 42.248 18.7773 42.8976 18.757 43.7502C18.7368 44.6028 18.9802 46.2471 19.2033 46.7343C19.4265 47.2215 20.1771 47.668 21.232 47.7087C22.2869 47.7492 24.4778 47.9117 25.4516 47.7696C26.4253 47.6274 26.6586 46.6734 26.7297 45.5975C26.8007 44.5216 26.8514 43.0904 26.7499 42.1262C26.6485 41.162 26.1616 40.9793 25.695 40.9285Z" fill="#28839F" fill-opacity="0.2"/>
<path d="M17.134 26.5951C16.2695 26.4408 13.8802 25.0409 12.9956 24.4027C11.6185 23.4092 11.9921 28.0685 14.8214 28.016C15.9168 27.9957 16.7892 27.4299 17.2152 27.2091C17.6412 26.9884 17.5322 26.6661 17.134 26.5951Z" fill="#28839F" fill-opacity="0.2"/>
<path d="M12.8146 28.2951C12.9021 29.0563 13.0951 29.6085 13.4675 30.2832C13.8961 31.0597 16.5333 29.2124 16.7095 28.7785C16.8932 28.326 16.3002 27.9563 15.709 28.1276C14.9019 28.3614 13.8758 28.219 13.3319 27.8041C12.7816 27.3844 12.7711 27.917 12.8146 28.2951Z" fill="#28839F" fill-opacity="0.2"/>
<path d="M16.8502 29.164C16.4051 29.5497 15.5315 30.1333 14.6592 30.5393C13.8516 30.9152 13.9036 31.2853 14.1216 31.5695C14.3397 31.8537 15.704 32.6149 16.201 32.8382C16.698 33.0615 17.5196 32.8788 17.6768 32.4018C17.9427 31.595 17.7714 28.3655 16.8502 29.164Z" fill="#28839F" fill-opacity="0.2"/>
<path d="M13.0974 34.5742C13.28 35.1324 14.487 35.9546 15.2173 36.4215C15.9477 36.8884 16.9569 37.4314 17.2967 37.1624C17.6365 36.8934 17.6467 34.3255 17.3981 33.7622C17.1496 33.1989 16.5968 33.2953 15.9375 33.0821C15.2411 32.857 15.0617 32.4808 14.2943 32.4173C13.6806 32.3666 12.8436 33.7981 13.0974 34.5742Z" fill="#28839F" fill-opacity="0.2"/>
<path d="M14.1571 36.071C14.6004 36.3853 16.8653 37.5935 17.2609 37.8371C17.6565 38.0807 17.8543 38.9333 17.976 39.9229C18.0977 40.9125 18.0233 42.0801 17.6108 42.2371C16.5306 42.6482 13.7606 39.643 13.4039 39.2378C12.9551 38.7278 12.8638 37.3727 12.8334 36.7257C12.7931 35.8692 13.4267 35.5534 14.1571 36.071Z" fill="#28839F" fill-opacity="0.2"/>
<path d="M14.1114 40.4556C14.8721 41.2929 16.6751 42.4729 17.1087 42.8459C17.5423 43.2189 17.5727 44.6805 17.5651 45.358C17.5575 46.0355 16.8805 46.5607 16.424 46.4389C15.9676 46.3171 13.6473 44.0867 13.3354 43.6985C13.0235 43.3102 12.9474 41.3005 13.0768 40.6687C13.2061 40.0369 13.5901 39.8818 14.1114 40.4556Z" fill="#28839F" fill-opacity="0.2"/>
<path d="M13.645 44.4186C14.3103 45.174 15.8258 46.4993 16.4446 47.0575C17.0633 47.6158 17.8443 49.8995 18.0878 50.9957C18.3312 52.0919 18.2704 53.5129 17.9458 54.6497C17.6212 55.7865 18.0269 56.3549 17.824 57.2886C17.6212 58.2224 16.5257 58.872 16.0794 58.1818C15.6331 57.4916 13.9087 55.3399 12.8336 54.7309C11.7584 54.1219 12.0221 52.7618 12.3061 51.7265C12.5901 50.6912 11.9004 49.3514 12.1032 47.3417C12.3061 45.3321 12.5445 44.3907 12.6966 44.0481C12.8488 43.7055 13.1936 43.906 13.645 44.4186Z" fill="#28839F" fill-opacity="0.2"/>
<path d="M10.2023 18.6131C10.3444 21.2316 10.0403 25.8048 10.115 26.7588C10.1962 27.794 11.0482 31.6104 11.454 32.9705C11.8597 34.3306 11.8901 35.5841 12.164 35.5993C12.4379 35.6145 13.0566 32.463 13.1175 31.4277C13.1783 30.3924 12.1031 25.825 11.9003 24.201C11.6974 22.577 10.8479 19.2783 10.5969 18.6084C10.2514 17.6866 10.1206 17.1085 10.2023 18.6131Z" fill="#28839F" fill-opacity="0.2"/>
<path d="M24.9679 -2.03788C25.2482 -1.15455 25.599 -0.104322 25.7055 0.976644C25.812 2.05761 26.2228 0.215396 26.2837 -0.530613C26.3446 -1.27664 26.2076 -1.48978 25.8272 -1.79427C25.4469 -2.09878 24.7848 -2.61474 24.9679 -2.03788Z" fill="#28839F" fill-opacity="0.2"/>
<path d="M49.1671 20.6746C49.1962 20.6914 49.2328 20.6745 49.2385 20.6414C49.6515 18.2756 52.7075 15.2191 50.688 11.087C48.6493 6.91536 43.7805 5.51468 42.472 5.72782C41.2314 5.9299 37.9668 8.07527 36.4383 8.53102C36.3887 8.54583 36.395 8.61972 36.4466 8.62501C38.6345 8.84891 40.4704 8.91489 42.6411 10.4424C44.8973 12.0302 44.4428 14.0406 44.9296 15.5935C45.4126 17.134 46.6789 19.2439 49.1671 20.6746Z" fill="#28839F"/>
<path d="M51.6016 12.5479C51.9211 14.3748 51.5261 15.995 50.8104 17.8157C50.1934 19.3853 49.5932 20.3278 49.6237 21.0738C50.2627 21.6523 51.982 23.7838 52.3623 24.271C52.1341 22.9464 52.3928 20.952 52.5754 18.7596C52.7579 16.5672 52.5601 14.4966 51.6016 12.5479Z" fill="#28839F"/>
<path d="M44.8835 16.6895C45.5327 19.1051 48.2739 20.2724 50.5054 27.6716C51.1426 29.7846 51.9306 36.4714 51.9052 39.0801C51.8957 40.0548 51.1241 38.8162 51.1241 38.8162C51.1241 38.8162 45.5961 30.879 44.9063 26.9002C44.2166 22.9215 44.8835 16.6895 44.8835 16.6895Z" fill="#28839F" fill-opacity="0.2"/>
<path d="M47.3003 20.0186C47.9945 20.8274 50.3838 25.2153 51.0315 27.845C51.5974 30.1427 52.5051 35.5005 52.571 39.919C52.5726 40.0275 52.7233 40.0533 52.7623 39.952C55.1996 33.623 53.7202 27.1695 52.7878 25.6264C51.9978 24.3189 50.1911 21.5004 47.3003 20.0186Z" fill="#28839F" fill-opacity="0.2"/>
<path d="M50.303 38.6336C50.6643 39.2866 49.0858 40.7753 48.4772 43.5868C48.3732 44.0671 47.2194 42.2368 47.3411 39.6486C47.4628 37.0604 44.9828 30.9096 44.785 29.2653C44.5872 27.621 44.6633 27.4688 44.6633 27.4688C47.0004 33.3802 48.2134 34.8579 50.303 38.6336Z" fill="#28839F" fill-opacity="0.2"/>
<path d="M54.1982 35.7111C53.8062 37.7843 53.2244 40.8266 53.7113 42.8566C54.1982 44.8866 58.2961 59.6242 58.9047 61.4918C59.5133 63.3594 59.3915 61.4309 59.1887 59.7054C58.9858 57.9799 59.1481 48.5405 58.7424 45.3738C58.3366 42.207 56.9977 38.2891 55.8211 36.8884C54.6445 35.4877 54.3402 34.96 54.1982 35.7111Z" fill="#28839F" fill-opacity="0.2"/>
<path d="M51.1653 39.7908C52.983 41.155 53.3359 43.0895 53.7619 44.5816C54.188 46.0736 57.733 59.0299 58.0525 60.3849C58.3721 61.74 58.4786 63.3538 57.9917 62.7296C57.5048 62.1054 53.0468 49.0881 51.6927 46.2563C50.3386 43.4245 49.6631 42.5127 49.9177 41.3539C50.1205 40.4302 50.4958 39.2884 51.1653 39.7908Z" fill="#28839F" fill-opacity="0.2"/>
<path d="M49.8563 43.5052C50.6519 44.8485 55.07 56.6594 55.8206 59.5826C56.5712 62.5058 56.5915 63.6832 56.1046 63.399C55.6177 63.1148 50.1809 50.7319 49.3289 48.2553C48.4769 45.7788 48.6696 44.7638 48.9536 43.83C49.2376 42.8962 49.5318 42.9571 49.8563 43.5052Z" fill="#28839F" fill-opacity="0.2"/>
<path d="M30.8075 8.89431C32.6238 8.43484 36.4107 8.83797 38.0295 9.05671C40.8088 9.43226 42.897 10.6414 43.6286 11.9799C44.2778 13.1674 44.7437 15.9552 44.2372 16.527C42.6549 18.3134 43.3649 23.429 37.7861 26.0273C35.919 26.897 29.9352 26.342 29.0223 25.2762C28.1094 24.2105 27.7443 19.0036 28.0486 16.0195C28.3529 13.0355 29.002 9.35106 30.8075 8.89431Z" fill="#28839F" fill-opacity="0.2"/>
<path d="M34.4593 2.50011C35.31 3.27567 36.8633 4.25604 38.1515 4.79399C39.4397 5.33193 40.6772 5.60599 40.7482 5.82928C40.8192 6.05258 39.4093 6.50932 38.4355 6.86457C37.4617 7.21982 36.1938 7.48371 35.7577 7.25027C35.3215 7.01682 34.5912 4.7737 34.3782 4.1038C34.1652 3.43391 33.9218 2.64221 33.8305 2.27682C33.7392 1.91142 34.0029 2.08397 34.4593 2.50011Z" fill="#28839F" fill-opacity="0.2"/>
<path d="M33.4957 1.86054C33.7954 2.67031 34.3781 5.13387 34.7433 6.21484C35.1084 7.2958 35.2302 7.69165 34.7737 7.88958C34.3173 8.0875 33.3283 7.49372 33.1914 7.06743C33.0544 6.64114 33.0544 1.93666 33.0696 1.58648C33.0849 1.23631 33.3435 1.44946 33.4957 1.86054Z" fill="#28839F" fill-opacity="0.2"/>
<path d="M32.7803 2.53013C32.7905 3.30152 32.8716 5.6969 32.613 6.24499C32.3543 6.79309 31.198 7.50865 30.8176 7.73702C30.4372 7.96541 29.95 8.10997 29.9351 7.73702C29.925 7.48328 30.9259 6.06525 31.5631 4.45353C32.1109 3.06807 32.4868 1.86641 32.4912 1.86024C32.689 1.58618 32.7739 2.03872 32.7803 2.53013Z" fill="#28839F" fill-opacity="0.2"/>
<path d="M32.7627 0.159973C32.6362 0.839459 31.7505 3.33428 31.092 4.76041C30.7915 5.41128 29.8291 7.39085 29.4763 7.28521C29.1542 7.18878 30.4465 2.97945 30.8583 1.51498C31.783 -1.77359 31.996 -3.98118 32.4584 -3.76803C32.826 -3.59856 32.8109 -0.0988464 32.7627 0.159973Z" fill="#28839F" fill-opacity="0.2"/>
<path d="M28.5964 26.3418C28.0401 27.3439 27.577 29.1889 27.5618 30.3307C27.5466 31.4726 28.0943 31.6248 28.8095 31.975C29.5245 32.3252 32.8566 34.0557 33.7695 34.8373C34.6976 35.6318 35.2301 36.1314 35.4127 34.5632C35.5953 32.9951 35.8235 31.2747 35.5344 29.5999C35.2453 27.9252 34.9563 27.2705 34.1955 27.0422C33.4348 26.8138 32.4838 26.8671 31.3047 26.6311C30.1427 26.3985 28.8247 25.9307 28.5964 26.3418Z" fill="#28839F" fill-opacity="0.2"/>
<path d="M28.733 32.5919C32.9703 34.1829 34.8555 36.6776 35.25 37.4156C35.7166 38.2885 35.475 40.3947 35.3413 40.76C35.2094 41.1203 34.2034 41.1591 33.3126 40.9681C32.0346 40.6941 29.7219 40.3997 28.9003 40.2982C28.0787 40.1967 27.5817 39.202 27.5411 38.2682C27.5006 37.3344 27.4701 34.391 27.5411 33.8023C27.6121 33.2136 27.9673 32.3044 28.733 32.5919Z" fill="#28839F" fill-opacity="0.2"/>
<path d="M28.6975 40.9285C29.9075 40.7969 33.7184 41.5984 34.398 41.9232C35.0776 42.248 35.6152 42.8976 35.6355 43.7502C35.6558 44.6028 35.4123 46.2471 35.1892 46.7343C34.966 47.2215 34.2154 47.668 33.1605 47.7087C32.1056 47.7492 29.9147 47.9117 28.9409 47.7696C27.9672 47.6274 27.7339 46.6734 27.6629 45.5975C27.5919 44.5216 27.5411 43.0904 27.6426 42.1262C27.744 41.162 28.2309 40.9793 28.6975 40.9285Z" fill="#28839F" fill-opacity="0.2"/>
<path d="M37.2585 26.5951C38.123 26.4408 40.5123 25.0409 41.3969 24.4027C42.774 23.4092 42.4004 28.0685 39.5711 28.016C38.4757 27.9957 37.6034 27.4299 37.1773 27.2091C36.7513 26.9884 36.8604 26.6661 37.2585 26.5951Z" fill="#28839F" fill-opacity="0.2"/>
<path d="M41.5784 28.2951C41.4909 29.0563 41.2978 29.6085 40.9254 30.2832C40.4968 31.0597 37.8596 29.2124 37.6834 28.7785C37.4997 28.326 38.0927 27.9563 38.6839 28.1276C39.491 28.3614 40.5171 28.219 41.061 27.8041C41.6113 27.3844 41.6218 27.917 41.5784 28.2951Z" fill="#28839F" fill-opacity="0.2"/>
<path d="M37.5429 29.164C37.988 29.5497 38.8615 30.1333 39.7338 30.5393C40.5415 30.9152 40.4895 31.2853 40.2714 31.5695C40.0533 31.8537 38.6891 32.6149 38.192 32.8382C37.695 33.0615 36.8734 32.8788 36.7162 32.4018C36.4503 31.595 36.6217 28.3655 37.5429 29.164Z" fill="#28839F" fill-opacity="0.2"/>
<path d="M41.2954 34.5742C41.1128 35.1324 39.9058 35.9546 39.1754 36.4215C38.4451 36.8884 37.4359 37.4314 37.0961 37.1624C36.7563 36.8934 36.7461 34.3255 36.9946 33.7622C37.2432 33.1989 37.796 33.2953 38.4553 33.0821C39.1517 32.857 39.3311 32.4808 40.0985 32.4173C40.7122 32.3666 41.5492 33.7981 41.2954 34.5742Z" fill="#28839F" fill-opacity="0.2"/>
<path d="M40.2352 36.071C39.7918 36.3853 37.527 37.5935 37.1314 37.8371C36.7358 38.0807 36.538 38.9333 36.4163 39.9229C36.2946 40.9125 36.369 42.0801 36.7814 42.2371C37.8617 42.6482 40.6317 39.643 40.9883 39.2378C41.4372 38.7278 41.5285 37.3727 41.5589 36.7257C41.5992 35.8692 40.9655 35.5534 40.2352 36.071Z" fill="#28839F" fill-opacity="0.2"/>
<path d="M40.2814 40.4556C39.5206 41.2929 37.7177 42.4729 37.284 42.8459C36.8504 43.2189 36.82 44.6805 36.8276 45.358C36.8352 46.0355 37.5123 46.5607 37.9687 46.4389C38.4251 46.3171 40.7454 44.0867 41.0573 43.6985C41.3692 43.3102 41.4453 41.3005 41.316 40.6687C41.1866 40.0369 40.8026 39.8818 40.2814 40.4556Z" fill="#28839F" fill-opacity="0.2"/>
<path d="M40.7478 44.4186C40.0825 45.174 38.567 46.4993 37.9482 47.0575C37.3295 47.6158 36.5485 49.8995 36.305 50.9957C36.0616 52.0919 36.1224 53.5129 36.447 54.6497C36.7716 55.7865 36.3659 56.3549 36.5687 57.2886C36.7716 58.2224 37.8671 58.872 38.3134 58.1818C38.7597 57.4916 40.484 55.3399 41.5592 54.7309C42.6344 54.1219 42.3707 52.7618 42.0867 51.7265C41.8027 50.6912 42.4924 49.3514 42.2895 47.3417C42.0867 45.3321 41.8483 44.3907 41.6962 44.0481C41.544 43.7055 41.1991 43.906 40.7478 44.4186Z" fill="#28839F" fill-opacity="0.2"/>
<path d="M44.1906 18.6131C44.0485 21.2316 44.3526 25.8048 44.2779 26.7588C44.1967 27.794 43.3447 31.6104 42.9389 32.9705C42.5332 34.3306 42.5028 35.5841 42.2289 35.5993C41.955 35.6145 41.3363 32.463 41.2754 31.4277C41.2146 30.3924 42.2898 25.825 42.4926 24.201C42.6955 22.577 43.545 19.2783 43.796 18.6084C44.1415 17.6866 44.2723 17.1085 44.1906 18.6131Z" fill="#28839F" fill-opacity="0.2"/>
<path d="M29.4254 -2.03788C29.1451 -1.15455 28.7943 -0.104322 28.6878 0.976644C28.5812 2.05761 28.1704 0.215396 28.1096 -0.530613C28.0487 -1.27664 28.1857 -1.48978 28.566 -1.79427C28.9464 -2.09878 29.6085 -2.61474 29.4254 -2.03788Z" fill="#28839F" fill-opacity="0.2"/>
</g>
<defs>
<clipPath id="clip0_4048_2474">
<rect width="61" height="48" fill="white"/>
</clipPath>
</defs>
</svg>
