<svg width="61" height="47" viewBox="0 0 61 47" fill="none" xmlns="http://www.w3.org/2000/svg">
<g clip-path="url(#clip0_4048_2340)">
<path d="M43.8058 155.233C43.6222 155.233 43.4739 155.126 43.3305 155.022C43.2116 154.936 43.0992 154.855 42.9914 154.855C42.9728 154.855 42.9546 154.857 42.936 154.862C42.8132 154.894 42.7456 154.946 42.6674 155.008C42.5567 155.094 42.4314 155.192 42.1771 155.192C42.1603 155.192 42.1427 155.192 42.1246 155.191C41.8874 155.179 41.7392 155.079 41.6084 154.991C41.4879 154.909 41.3928 154.845 41.2338 154.845C41.2243 154.845 41.2145 154.845 41.2045 154.846C41.0376 154.854 40.9414 154.91 40.8194 154.982C40.6669 155.071 40.494 155.173 40.171 155.191C40.1486 155.192 40.1266 155.193 40.1047 155.193C39.8033 155.193 39.5441 155.077 39.3153 154.976C39.1232 154.89 38.9416 154.809 38.7608 154.805L38.7459 154.805C38.5611 154.805 38.334 154.88 38.0936 154.96C37.7948 155.059 37.4561 155.171 37.1046 155.171L37.0778 155.171C36.2305 155.157 35.749 154.721 35.6467 153.874C35.5924 153.424 35.7415 152.938 35.8857 152.468C36.0525 151.924 36.2249 151.361 36.096 150.845C35.8236 149.755 35.6672 148.353 35.7067 147.356C35.7337 146.672 35.5211 145.75 35.3336 144.937C35.2434 144.545 35.1581 144.176 35.1 143.843C34.9787 143.148 35.4867 141.931 35.9349 140.856C36.1803 140.268 36.412 139.712 36.4588 139.414C36.5085 139.095 36.5116 138.021 36.4677 136.22C36.3824 135.785 36.3225 134.335 36.2902 133.553C36.2819 133.353 36.2755 133.197 36.2709 133.113C36.2667 133.035 36.2487 132.654 36.2887 132.456L36.2187 131.926C36.0793 130.864 35.9476 129.861 35.8329 129.432C35.8329 129.432 35.6511 128.756 35.5987 128.559C35.541 128.468 35.4894 128.356 35.4414 128.217C35.3429 127.932 35.24 127.537 35.1312 127.119C34.9303 126.348 34.7027 125.474 34.4146 124.916C34.1489 124.402 33.9949 123.725 33.944 122.845C33.8628 122.437 33.794 121.97 33.7395 121.454C33.4781 118.978 33.7667 115.501 34.0662 114.044C34.2168 113.311 34.4525 112.424 34.6604 111.641C34.859 110.893 35.0466 110.187 35.1202 109.764C35.196 109.33 35.2129 109.084 35.2231 108.938C35.2297 108.842 35.2341 108.778 35.2528 108.728C35.2276 108.593 35.2004 108.441 35.1714 108.278C35.1231 108.008 35.0688 107.703 35.0087 107.398C34.881 107.247 34.7953 106.945 34.68 106.54C34.5778 106.18 34.4507 105.733 34.2635 105.299C33.8274 104.288 33.2886 100.95 33.2381 99.3625C33.1867 97.7483 32.9153 95.1601 32.593 93.8802C32.3057 92.739 32.0018 89.9992 32.0309 88.8149C32.0055 88.5582 31.9801 88.3166 31.9546 88.1045C31.9278 87.8805 31.9096 87.5969 31.9005 87.261C31.843 87.1308 31.7546 86.9469 31.6279 86.7683C31.4621 86.5346 31.3089 86.2144 31.1726 85.8168C30.9593 85.2717 30.7103 84.225 30.6309 83.5365C30.5015 82.4142 29.6802 77.4649 29.2056 75.8871C28.6641 74.0865 29.0349 70.456 29.0789 70.048C29.0936 69.9119 29.1072 69.7773 29.1205 69.6452C29.159 69.2614 29.1956 68.8978 29.253 68.5741C29.0991 68.3351 28.9719 68.0836 28.8659 67.8085C28.6216 67.7412 28.3776 67.7228 28.276 67.7228H28.1137C28.0122 67.7228 27.7683 67.7412 27.5239 67.8085C27.4179 68.0836 27.2907 68.3352 27.1367 68.5741C27.1943 68.8983 27.2308 69.2624 27.2694 69.6467C27.2827 69.7784 27.2961 69.9125 27.3108 70.048C27.3549 70.456 27.7259 74.0861 27.1841 75.8871C26.7095 77.4651 25.8882 82.4143 25.7588 83.5366C25.6795 84.2249 25.4306 85.2716 25.2153 85.8221C25.0808 86.2146 24.9276 86.5348 24.7619 86.7683C24.6347 86.9475 24.5465 87.1312 24.4892 87.261C24.4802 87.5964 24.462 87.8801 24.4351 88.1045C24.4097 88.3166 24.3842 88.5583 24.3589 88.8148C24.388 89.9991 24.0841 92.739 23.7968 93.8802C23.4746 95.1598 23.2031 97.7479 23.1517 99.3625C23.1011 100.95 22.5623 104.288 22.1263 105.299C21.939 105.733 21.8119 106.18 21.7097 106.54C21.5945 106.945 21.5088 107.247 21.381 107.398C21.3209 107.703 21.2665 108.008 21.2184 108.278C21.1892 108.441 21.1621 108.593 21.1369 108.728C21.1556 108.778 21.16 108.842 21.1667 108.938C21.1768 109.084 21.1938 109.33 21.2695 109.764C21.3431 110.187 21.5307 110.893 21.7294 111.641C21.9373 112.424 22.173 113.311 22.3236 114.044C22.6231 115.501 22.9117 118.978 22.6502 121.454C22.5956 121.971 22.5266 122.443 22.4452 122.857C22.3934 123.731 22.2397 124.405 21.9752 124.916C21.687 125.474 21.4594 126.348 21.2586 127.119C21.1497 127.537 21.0469 127.932 20.9483 128.217C20.9004 128.356 20.8488 128.468 20.7911 128.559C20.7388 128.755 20.5569 129.432 20.5569 129.432C20.4421 129.861 20.3104 130.865 20.171 131.926L20.1011 132.456C20.1411 132.654 20.1231 133.035 20.1188 133.113C20.1142 133.197 20.1078 133.354 20.0995 133.553C20.0672 134.336 20.0073 135.785 19.9221 136.22C19.8782 138.021 19.8812 139.096 19.931 139.414C19.9777 139.712 20.2095 140.268 20.4549 140.856C20.9031 141.93 21.4111 143.148 21.2897 143.843C21.2317 144.175 21.1464 144.545 21.0561 144.937C20.8686 145.75 20.656 146.672 20.6831 147.356C20.7226 148.353 20.5661 149.755 20.2938 150.845C20.1648 151.361 20.3373 151.924 20.5041 152.468C20.6483 152.938 20.7974 153.424 20.7431 153.874C20.6407 154.721 20.1592 155.157 19.3119 155.171L19.2852 155.171C18.9337 155.171 18.595 155.059 18.2961 154.96C18.0557 154.88 17.8286 154.805 17.6439 154.805L17.629 154.805C17.4481 154.809 17.2665 154.89 17.0744 154.976C16.8457 155.077 16.5865 155.193 16.285 155.193C16.2631 155.193 16.241 155.192 16.2187 155.191C15.8957 155.173 15.7229 155.071 15.5703 154.982C15.4485 154.91 15.3522 154.854 15.1852 154.846C15.1752 154.845 15.1655 154.845 15.1559 154.845C14.997 154.845 14.9018 154.909 14.7814 154.991C14.6506 155.079 14.5023 155.179 14.2652 155.191C14.247 155.192 14.2295 155.192 14.2128 155.192C13.9583 155.192 13.8329 155.094 13.7223 155.008C13.6441 154.946 13.5765 154.894 13.4538 154.862C13.4351 154.857 13.417 154.855 13.3983 154.855C13.2905 154.855 13.1782 154.936 13.0592 155.022C12.9158 155.126 12.7675 155.233 12.5839 155.233C12.57 155.233 12.5559 155.232 12.5418 155.231C12.31 155.209 12.1896 155.112 12.0834 155.026C12.0185 154.974 11.9624 154.929 11.8795 154.899C11.8691 154.895 11.8575 154.893 11.8444 154.893C11.7701 154.893 11.6607 154.95 11.5448 155.01C11.3721 155.1 11.1572 155.211 10.9114 155.211C10.3834 155.211 10.1132 154.949 9.94743 154.275C9.78099 153.599 9.92731 152.5 10.4603 151.834C10.5979 151.661 10.8169 151.399 11.0705 151.095C11.7187 150.318 12.6064 149.254 12.9888 148.677C13.5223 147.871 13.7387 146.429 13.4255 145.765C13.0253 144.917 12.9412 144.125 13.1758 143.411L13.2546 143.174C13.4739 142.514 13.7008 141.832 13.7988 141.002C13.8794 140.321 13.8431 138.668 13.7752 137.415C13.7116 137.134 13.6598 136.838 13.6214 136.534C13.4576 135.236 12.6786 129.331 12.1314 126.227C11.9549 125.779 11.8068 125.216 11.6759 124.719C11.6158 124.49 11.5589 124.275 11.5048 124.09C11.1938 123.032 10.5493 119.385 10.3645 118.042C10.1706 116.632 10.3126 113.955 10.4045 113.076C10.4776 112.377 10.6732 110.983 11.1612 109.496C11.524 108.39 11.5391 107.552 11.5502 106.94C11.5526 106.807 11.5549 106.683 11.5602 106.568C11.5703 106.352 11.6234 106.13 11.7224 105.892C11.7059 105.471 11.6931 104.915 11.6863 104.321C11.611 103.524 11.5909 101.342 11.6464 99.9263C11.6872 98.887 12.0348 97.4142 12.3141 96.2308C12.4325 95.7292 12.5349 95.2956 12.5997 94.9583C12.6264 94.6089 12.6032 94.1392 12.5308 93.5616L12.5297 93.5588C11.5575 91.1642 10.5712 88.6566 10.1293 86.6355C9.90742 85.6207 9.86471 83.8425 9.82338 82.1228C9.80577 81.3907 9.78756 80.6337 9.75566 79.9578C9.36675 77.0803 9.01278 73.7508 8.98388 72.699C8.96108 71.8741 9.10348 70.1385 9.32236 68.5723L9.33711 68.298C9.41785 66.8382 9.5399 64.6321 9.83574 63.3932C10.2339 61.7257 10.9885 57.2896 10.9578 55.8765C10.9267 54.4401 11.6603 51.3672 12.2019 49.7011C12.3138 49.2283 12.5128 48.4894 12.6882 47.8376C12.7556 47.5873 12.8189 47.3522 12.8714 47.154C12.6306 46.6931 12.825 41.5946 12.9968 41.0394C13.0421 40.62 13.0911 40.2308 13.1426 39.8801C13.1077 39.831 13.1158 39.7913 13.2255 39.3635C13.3033 38.9113 13.3875 38.5361 13.4735 38.2592C13.5173 38.1015 13.5729 37.9394 13.6319 37.7678C13.7639 37.3834 13.9003 36.9859 13.9264 36.5587C13.8632 35.8908 13.8644 35.1199 13.9291 34.714C13.9318 34.2296 13.9321 33.6067 13.9112 33.0478C13.8344 32.8439 13.7538 32.6428 13.6658 32.4232C13.5662 32.1747 13.4573 31.9027 13.3338 31.577C12.8946 30.4184 12.3425 28.3709 11.8087 26.3908C11.5251 25.339 11.2571 24.3455 11.0179 23.5286C10.944 23.2763 10.8724 23.012 10.8034 22.7377C10.786 22.9044 10.7656 23.0851 10.7422 23.2794C10.6678 23.8982 10.2806 25.1301 9.83211 26.5564C9.06544 28.995 8.11133 32.0301 8.18708 33.6397C8.28031 35.6231 7.63244 37.1924 7.2432 37.6389C7.14911 38.0561 7.07282 38.3523 7.01037 38.543C6.99164 38.6635 6.97329 38.7845 6.95489 38.9058C6.89282 39.3152 6.82858 39.7387 6.74996 40.1418C6.66159 40.7563 6.47865 41.4635 6.19173 42.2972C5.90329 43.1358 5.05343 45.2054 3.91811 47.8342C3.7676 48.3215 3.60042 48.8559 3.42361 49.4211C2.28298 53.0677 0.720738 58.0619 0.681464 59.8349C0.67017 60.343 0.954763 61.1206 1.42481 62.3406C1.94635 63.6945 1.85611 66.3533 0.661529 68.614C0.153337 69.5759 -0.296774 71.0464 -0.731997 72.4685C-1.1548 73.8498 -1.55408 75.1544 -1.94845 75.7412C-2.18328 76.0906 -2.42641 76.2678 -2.67093 76.2678C-2.92098 76.2678 -3.10902 76.0863 -3.23613 75.9C-3.43381 76.9118 -3.89196 78.7257 -4.65392 78.8643C-4.70848 78.8743 -4.76216 78.8793 -4.81347 78.8793C-5.18862 78.8793 -5.4618 78.6199 -5.5992 78.1506C-5.83643 78.9595 -6.27105 80.0442 -6.89559 80.0442L-6.91579 80.0438C-7.79508 80.0117 -7.821 78.8567 -7.781 77.5553C-7.85063 77.5941 -7.9295 77.6143 -8.01555 77.6143C-8.59138 77.6143 -9.28343 76.7492 -9.41267 75.8676C-9.73248 73.6859 -9.52058 71.0722 -9.36588 69.1638C-9.2898 68.226 -9.21146 67.2592 -9.27592 66.9858C-9.39446 67.0954 -9.54562 67.2913 -9.7184 67.5151C-10.0429 67.9354 -10.4466 68.4584 -10.9202 68.7843C-11.3044 69.0489 -11.7624 69.1886 -12.2446 69.1886C-13.0014 69.1886 -13.6675 68.8467 -13.8284 68.3757C-13.8892 68.1977 -13.924 67.847 -13.4743 67.4988C-12.3022 66.5911 -10.0557 63.3122 -9.25711 61.3438C-8.7246 60.0312 -7.74371 59.5961 -6.95558 59.2465C-6.48507 59.0378 -6.07874 58.8576 -5.87848 58.5411C-5.48525 57.9198 -4.91931 55.2541 -4.19637 50.6181C-4.09304 49.4815 -4.00845 48.7415 -3.93118 48.2978C-3.88533 48.0349 -3.83762 47.741 -3.78892 47.4292C-3.75444 44.4004 -3.69942 41.0309 -3.48446 39.3532C-3.07142 36.1287 -1.71961 32.2108 -0.532539 30.7978C-0.362965 30.596 -0.211598 30.4124 -0.0763178 30.2483C0.335051 29.7495 0.589418 29.4411 0.781446 29.3102C0.951619 29.0822 1.09707 28.6543 1.21402 28.0374C1.04856 25.5668 1.31569 22.9066 1.92926 20.9142C2.01618 20.0873 2.08614 19.4362 2.12933 19.1935C2.27099 18.3974 2.1191 17.6295 1.9971 17.0123C1.93929 16.7199 1.88932 16.4673 1.88381 16.2676C1.87019 15.7781 1.78281 15.1318 1.65045 14.1536C1.58833 13.694 1.51656 13.1637 1.43855 12.5459C1.16904 10.4111 1.56719 7.84991 2.50364 5.69468C3.60621 3.15706 4.84385 1.79547 6.77547 0.994917C7.2713 0.789459 8.18036 0.682007 8.82205 0.682007C8.86337 0.682007 8.90404 0.6824 8.94405 0.683271C10.5032 -0.138491 11.8991 -0.43058 12.624 -0.43058C12.7366 -0.43058 12.8383 -0.4238 12.9267 -0.41044C12.9684 -0.412497 13.0124 -0.413504 13.0586 -0.413504C13.1493 -0.413504 13.2488 -0.409653 13.3456 -0.404465C13.3761 -0.721626 13.7893 -0.956739 14.2826 -1.20355C14.9683 -1.54657 15.6835 -1.86029 16.4083 -2.13602C17.2461 -2.45471 18.0884 -2.71788 19.0953 -3.01497C19.2184 -3.05134 19.3425 -3.08578 19.4666 -3.12021C20.1926 -3.32182 20.8782 -3.51224 21.3795 -4.05899C21.5228 -4.2153 21.6432 -4.38832 21.7706 -4.5715C21.8311 -4.65848 21.8917 -4.74538 21.9545 -4.83022C22.1485 -5.09193 22.3491 -5.36248 22.4575 -5.66707C22.509 -5.81189 22.4963 -5.97605 22.4827 -6.14979C22.477 -6.2244 22.4712 -6.29879 22.4702 -6.37227C22.4668 -6.60686 22.467 -6.8546 22.4708 -7.1298C22.478 -7.64896 22.494 -8.26154 22.5574 -8.87272C22.5449 -9.04499 22.5321 -9.13263 22.5235 -9.17599C22.5074 -9.25618 22.4942 -9.33763 22.4805 -9.42154C22.4179 -9.80552 22.347 -10.2408 21.9353 -10.8548C21.5836 -11.3794 21.4863 -12.5976 21.4666 -13.5273C21.4628 -13.7069 21.3163 -13.8531 21.1401 -13.8531C21.1171 -13.8531 21.0939 -13.8506 21.071 -13.8456C20.9662 -13.8228 20.8565 -13.8107 20.7537 -13.8107C20.4768 -13.8107 20.248 -13.8947 20.0921 -14.0538C19.9313 -14.2178 19.8526 -14.4536 19.8583 -14.7546C19.8784 -15.8064 19.6645 -16.4167 19.4759 -16.9551C19.3807 -17.2266 19.2909 -17.4831 19.2368 -17.7717C19.1407 -18.2846 19.0823 -18.9741 19.3492 -19.3469C19.4542 -19.4934 19.5982 -19.5807 19.7774 -19.6063C19.8212 -19.6127 19.8664 -19.6158 19.9116 -19.6158C20.0601 -19.6158 20.2154 -19.5819 20.3732 -19.5148C20.3948 -19.5057 20.417 -19.5011 20.4394 -19.5011C20.4873 -19.5011 20.5349 -19.5226 20.5697 -19.5601C20.6053 -19.5985 20.6228 -19.6485 20.6188 -19.7007C20.5033 -21.2397 20.3978 -25.0286 21.9106 -26.9696C23.7094 -29.2776 26.4761 -29.7452 27.5822 -29.8391C27.7251 -29.8512 27.8977 -29.8643 28.136 -29.8643C28.3148 -29.8643 28.5086 -29.8566 28.7122 -29.8414C29.8385 -29.7577 32.6551 -29.3102 34.4793 -26.9696C35.9921 -25.0283 35.8865 -21.2396 35.7709 -19.7007C35.767 -19.6485 35.7845 -19.5985 35.8202 -19.5601C35.855 -19.5225 35.9024 -19.5011 35.9505 -19.5011C35.9728 -19.5011 35.995 -19.5057 36.0166 -19.5148C36.1744 -19.5819 36.3297 -19.6158 36.4782 -19.6158C36.5234 -19.6158 36.5686 -19.6127 36.6125 -19.6063C36.7916 -19.5807 36.9356 -19.4934 37.0406 -19.3469C37.3075 -18.9741 37.249 -18.2846 37.1529 -17.7717C37.0989 -17.4831 37.009 -17.2266 36.9139 -16.9551C36.7252 -16.4167 36.5114 -15.8065 36.5315 -14.7546C36.5372 -14.4536 36.4585 -14.2178 36.2977 -14.0537C36.1418 -13.8947 35.913 -13.8106 35.6362 -13.8106C35.5333 -13.8106 35.4235 -13.8228 35.3187 -13.8456C35.2959 -13.8506 35.2727 -13.8531 35.2497 -13.8531C35.0736 -13.8531 34.927 -13.7069 34.9233 -13.5272C34.9035 -12.5974 34.806 -11.379 34.4545 -10.8548C34.0428 -10.2408 33.9719 -9.8055 33.9093 -9.42152C33.8957 -9.33761 33.8824 -9.25616 33.8664 -9.17598C33.8577 -9.13262 33.8449 -9.04499 33.8324 -8.87271C33.9171 -8.05786 33.925 -7.25611 33.9216 -6.57871C33.9211 -6.48329 33.9159 -6.38642 33.9107 -6.28941C33.9034 -6.15204 33.8965 -6.02218 33.9025 -5.89499C33.9177 -5.5751 34.1492 -5.23993 34.3534 -4.94417C34.3825 -4.90201 34.4109 -4.86086 34.4379 -4.82089C34.7 -4.43279 34.9711 -4.03151 35.3392 -3.74348C35.6396 -3.50843 35.9978 -3.40165 36.3769 -3.28855L36.7073 -3.18855C38.5084 -2.63973 40.3708 -2.0723 42.1072 -1.20354L42.2133 -1.15128C42.4365 -1.04257 42.6895 -0.919292 42.8652 -0.735445C42.9588 -0.63751 43.0183 -0.520483 43.0372 -0.403061C43.2097 -0.410973 43.3691 -0.414827 43.521 -0.414827C44.1146 -0.414827 44.624 -0.354979 45.1239 -0.226458C45.8959 -0.0280552 46.6768 0.277939 47.4457 0.683271C47.4857 0.682415 47.5264 0.682007 47.5677 0.682007C48.2094 0.682007 49.1185 0.789459 49.6142 0.994917C51.5459 1.7954 52.7836 3.15706 53.8862 5.69468C54.8226 7.84978 55.2207 10.4109 54.9513 12.5459C54.8732 13.1639 54.8014 13.6945 54.7393 14.1542C54.607 15.1321 54.5196 15.7781 54.506 16.2676C54.5004 16.4673 54.4505 16.7199 54.3927 17.0123C54.2707 17.6294 54.1188 18.3974 54.2604 19.1935C54.3037 19.4361 54.3736 20.0869 54.4604 20.9134C55.0815 22.9285 55.347 25.6164 55.1715 28.1112C55.2846 28.6931 55.4286 29.0944 55.6 29.3049C55.7934 29.4326 56.0506 29.7444 56.4674 30.2499C56.6023 30.4135 56.7533 30.5965 56.9224 30.7978C58.1094 32.2109 59.4612 36.1288 59.8743 39.3531C60.0893 41.031 60.1443 44.4003 60.1788 47.4292C60.2274 47.741 60.2751 48.0349 60.3209 48.2977C60.3973 48.7362 60.4844 49.4981 60.5872 50.6267C61.3091 55.2541 61.8751 57.9198 62.2683 58.5411C62.4686 58.8576 62.8749 59.0378 63.3454 59.2465C64.1335 59.5961 65.1144 60.0311 65.6469 61.3437C66.4454 63.3122 68.692 66.591 69.8641 67.4988C70.3139 67.847 70.279 68.1977 70.2182 68.3757C70.0574 68.8467 69.3913 69.1886 68.6344 69.1886C68.1522 69.1886 67.6942 69.0488 67.3099 68.7843C66.8365 68.4584 66.4327 67.9354 66.1083 67.5153C65.9356 67.2914 65.7843 67.0955 65.6657 66.9858C65.6014 67.2593 65.6797 68.2259 65.7557 69.1633C65.9104 71.0719 66.1223 73.6858 65.8025 75.8675C65.6733 76.7491 64.9812 77.6142 64.4053 77.6142C64.3198 77.6142 64.2412 77.5942 64.1719 77.5558C64.2106 78.857 64.1834 80.0116 63.3056 80.0438L63.2854 80.0441C62.6608 80.0441 62.2262 78.9594 61.989 78.1504C61.8516 78.6197 61.5784 78.8792 61.2033 78.8792C61.152 78.8792 61.0983 78.8742 61.0437 78.8643C60.282 78.7256 59.8237 76.9118 59.626 75.9C59.4988 76.0862 59.3107 76.2677 59.0607 76.2677C58.8162 76.2677 58.5731 76.0905 58.3383 75.7411C57.9439 75.1543 57.5446 73.8497 57.1218 72.4685C56.6865 71.0463 56.2365 69.5758 55.7282 68.6139C54.5337 66.353 54.4434 63.6943 54.965 62.3405C55.4351 61.1204 55.7197 60.3428 55.7084 59.8348C55.6692 58.062 54.1072 53.0685 52.9666 49.4224C52.7897 48.8568 52.6223 48.3219 52.4717 47.8342C51.3364 45.2052 50.4865 43.1355 50.1981 42.2971C49.9111 41.4632 49.7282 40.756 49.6387 40.1349C49.5613 39.7387 49.4971 39.3155 49.435 38.9063C49.4166 38.7849 49.3982 38.6636 49.3795 38.543C49.317 38.3524 49.2407 38.0562 49.1466 37.6388C48.7574 37.1924 48.1095 35.623 48.2028 33.6396C48.2785 32.0299 47.3243 28.9948 46.5576 26.556C46.1092 25.1298 45.722 23.8981 45.6476 23.2794C45.6242 23.0851 45.6038 22.9043 45.5863 22.7377C45.5175 23.0119 45.4459 23.2762 45.3719 23.5286C45.1326 24.3454 44.8648 25.339 44.5811 26.3909C44.0472 28.3709 43.4952 30.4183 43.056 31.5769C42.9326 31.9024 42.8237 32.1743 42.7242 32.4228C42.6361 32.6424 42.5555 32.8437 42.4787 33.0478C42.4577 33.6079 42.4579 34.2302 42.4607 34.7139C42.5254 35.1198 42.5266 35.8907 42.4634 36.5587C42.4896 36.9858 42.626 37.3832 42.7579 37.7677C42.8168 37.9392 42.8724 38.1013 42.9174 38.2628C43.0022 38.5357 43.0865 38.9109 43.1666 39.374C43.2715 39.7824 43.2816 39.8289 43.2498 39.8764C43.3245 40.2579 43.5491 41.1694 43.663 41.6313C43.6979 41.7732 43.724 41.8793 43.7351 41.9261C43.8285 42.3227 43.8155 46.6878 43.5206 47.162C43.5728 47.3594 43.6356 47.5926 43.7024 47.8408C43.8776 48.4915 44.0761 49.229 44.1907 49.7117C44.7294 51.3669 45.4631 54.4398 45.432 55.8764C45.4012 57.2895 46.1559 61.7256 46.5541 63.3932C46.8501 64.6329 46.9722 66.8402 47.0528 68.3009L47.0686 68.5836C47.2827 70.1129 47.4283 71.8869 47.4059 72.6989C47.377 73.7508 47.0231 77.0805 46.6331 79.9697C46.6022 80.6337 46.584 81.3906 46.5664 82.1227C46.5251 83.8424 46.4824 85.6206 46.2604 86.6354C45.8187 88.6566 44.8323 91.1641 43.8599 93.5593L43.8592 93.5591C43.7866 94.1376 43.7634 94.6083 43.79 94.9581C43.8549 95.2953 43.9572 95.7289 44.0756 96.2303C44.3549 97.4138 44.7027 98.8867 44.7433 99.9262C44.7989 101.342 44.7788 103.524 44.7028 104.332C44.6967 104.913 44.6839 105.469 44.6674 105.892C44.7664 106.13 44.8195 106.352 44.8296 106.568C44.8349 106.683 44.8372 106.807 44.8396 106.94C44.8507 107.552 44.8659 108.39 45.2286 109.496C45.7167 110.983 45.9122 112.377 45.9853 113.076C46.0772 113.955 46.2192 116.632 46.0253 118.042C45.8406 119.384 45.1961 123.032 44.885 124.09C44.831 124.274 44.7742 124.49 44.7141 124.718C44.5832 125.215 44.435 125.778 44.2584 126.227C43.7113 129.331 42.9322 135.236 42.7684 136.534C42.73 136.837 42.6783 137.134 42.6146 137.415C42.5466 138.667 42.5104 140.32 42.591 141.002C42.689 141.831 42.9158 142.513 43.135 143.173L43.214 143.411C43.4485 144.125 43.3645 144.917 42.9643 145.765C42.6512 146.429 42.8675 147.871 43.401 148.677C43.7836 149.255 44.6716 150.319 45.3201 151.096C45.5733 151.399 45.7921 151.662 45.9295 151.834C46.4625 152.5 46.6088 153.599 46.4423 154.275C46.2767 154.949 46.0064 155.211 45.4784 155.211C45.2326 155.211 45.0177 155.1 44.8449 155.01C44.7291 154.95 44.6197 154.893 44.5454 154.893C44.5322 154.893 44.5207 154.895 44.5102 154.899C44.4274 154.929 44.3713 154.974 44.3063 155.026C44.2001 155.112 44.0798 155.209 43.8479 155.231C43.8338 155.232 43.8198 155.233 43.8058 155.233Z" fill="white" stroke="#28839F" stroke-width="0.7"/>
<path d="M26.151 -11.5405C24.0058 -1.75132 21.1143 -4.46914 14.3434 -1.08145C13.3899 -0.604426 13.1769 -0.350682 13.9478 0.21769C14.7187 0.786062 17.0515 2.37954 17.7615 4.61244C18.4715 6.84534 18.7352 10.6616 19.6684 13.0974C20.6015 15.5333 22.6504 18.8218 23.6241 20.5269C24.5978 22.232 26.1193 25.7844 26.383 26.9414C26.6467 28.0985 27.5393 29.4382 27.6001 28.0376C27.661 26.6369 27.1539 21.1765 27.0321 17.9286C26.9104 14.6808 27.1133 8.93614 27.1539 7.04833C27.1944 5.16051 27.0727 2.52164 27.235 1.2225C27.3973 -0.0766468 27.093 -7.14073 27.0321 -8.56167C26.9713 -9.98259 27.2756 -11.2411 27.1133 -11.9313C26.951 -12.6215 26.3786 -12.5794 26.151 -11.5405Z" fill="#28839F" fill-opacity="0.2"/>
<path d="M6.82764 1.12147C4.81936 1.95373 3.64278 3.41527 2.62849 5.74966C1.6142 8.08406 1.33019 10.6011 1.57362 12.5295C1.81706 14.458 1.99963 15.5338 2.01991 16.2646C2.0402 16.9954 2.52706 16.0819 3.64278 15.0466C4.7585 14.0114 7.39566 11.6161 7.98394 10.1749C8.57223 8.73363 8.24765 7.2518 9.36338 6.27744C10.4791 5.30308 11.6354 4.00393 12.7714 3.51676C13.9074 3.02959 13.5017 2.29882 12.528 2.17702C11.5542 2.05523 10.1545 1.01998 9.52566 0.877881C8.8968 0.735784 7.45767 0.860381 6.82764 1.12147Z" fill="#28839F" fill-opacity="0.2"/>
<path d="M15.1754 3.14058C13.9583 3.35373 11.879 4.35853 11.2907 5.2314C10.7293 6.06441 9.97211 5.97231 9.8504 6.43918C9.72869 6.90606 10.459 6.86547 10.9053 7.69773C11.3516 8.53 11.5747 9.89004 12.2441 10.702C14.5226 13.4656 15.4949 13.2445 18.2082 14.5182C18.8255 14.808 19.689 15.1272 19.7499 14.7212C19.8107 14.3152 19.5774 13.8179 19.0804 12.9349C18.5834 12.0519 18.2893 9.48405 18.0662 8.3067C17.843 7.12936 17.4677 5.19079 17.0519 4.26718C16.636 3.34358 15.5821 3.06936 15.1754 3.14058Z" fill="#28839F" fill-opacity="0.2"/>
<path d="M9.05895 8.35812C9.32157 8.8498 9.39366 8.79201 9.92616 9.13457C10.4587 9.47711 10.8162 9.92622 10.9607 10.0937C11.1053 10.2612 11.3639 9.83488 11.1585 9.28681C10.9531 8.73873 10.6184 8.17543 10.3217 7.87095C10.0251 7.56645 9.90334 7.19346 9.62188 7.12495C9.34041 7.05645 8.82312 7.91662 9.05895 8.35812Z" fill="#28839F" fill-opacity="0.2"/>
<path d="M13.1162 12.5088C12.5972 12.0127 11.8788 11.1387 11.0876 10.7631C10.2965 10.3876 9.23149 9.06815 8.91707 9.42339C8.60263 9.77862 8.71421 10.824 9.03878 11.6157C9.36336 12.4073 9.71836 13.5035 9.97193 14.3967C10.2255 15.2898 10.9456 16.051 11.7165 16.2845C12.4874 16.5179 14.3334 16.8325 15.5505 16.7108C16.7677 16.589 17.8428 16.0003 18.3094 15.6958C19.4281 14.9657 15.3882 14.6808 13.1162 12.5088Z" fill="#28839F" fill-opacity="0.2"/>
<path d="M19.5267 15.574C18.5924 15.8233 17.9647 16.6296 15.8956 17.0761C14.5489 17.3668 11.737 17.0355 11.1081 16.8325C10.4793 16.6296 10.0533 17.4009 10.1344 18.0099C10.2155 18.6189 10.459 21.136 11.1487 23.4906C11.8384 25.8453 12.7918 29.7631 13.4613 31.5291C14.1307 33.2951 14.3741 33.4778 15.003 36.9286C15.6319 40.3795 17.4779 42.3079 17.9647 43.5867C18.4516 44.8656 20.5816 43.7897 20.3585 41.8004C20.1353 39.8111 20.1962 38.3496 21.251 35.7107C22.3059 33.0718 23.4825 30.5547 24.3345 29.1744C25.1865 27.7941 25.4603 26.3528 25.1256 25.1146C24.7909 23.8763 23.9592 22.0291 23.3607 20.9939C22.7623 19.9586 21.3322 17.7968 20.8656 16.9138C20.399 16.0307 20.3077 15.8683 20.1962 15.7161C20.0846 15.5639 19.831 15.4928 19.5267 15.574Z" fill="#28839F" fill-opacity="0.2"/>
<path d="M16.5853 41.8616C17.0088 42.6082 17.4576 43.3637 17.7416 44.2163C18.0256 45.0688 17.4779 45.7793 16.8693 46.0838C16.2607 46.3883 14.9117 46.4086 13.9887 46.6928C13.0657 46.9769 12.7006 47.3829 12.4673 47.322C12.234 47.2611 12.6649 46.2393 12.9338 45.6981C13.8873 43.7798 15.286 41.462 15.6522 41.2526C15.8652 41.1308 16.1593 41.1105 16.5853 41.8616Z" fill="#28839F" fill-opacity="0.2"/>
<path d="M14.7863 39.0501C13.8957 39.432 12.9625 41.2157 12.7875 41.9579C12.6637 42.4829 12.6054 43.3596 12.6024 44.0741C12.6005 44.5456 12.5065 44.9964 12.6258 45.0104C13.2116 45.0789 13.4018 43.7848 14.5403 42.1508C14.8735 41.6727 15.2566 40.8364 15.4088 40.542C15.5609 40.2477 15.3543 38.8065 14.7863 39.0501Z" fill="#28839F" fill-opacity="0.2"/>
<path d="M14.2018 37.1769C13.7431 37.6971 13.2465 39.8195 13.2616 39.8111C13.4874 39.6852 13.8084 39.3679 14.0953 39.1256C14.3569 38.9047 14.7343 38.6384 14.7191 38.2273C14.7039 37.8163 14.5441 36.7886 14.2018 37.1769Z" fill="#28839F" fill-opacity="0.2"/>
<path d="M7.92299 11.8597C7.21115 12.9875 5.55971 15.9855 4.98155 17.645C4.40341 19.3044 4.27155 21.1567 4.21069 23.349C4.14984 25.5413 3.55141 30.8394 3.82526 32.0573C4.09912 33.2752 4.50484 34.1075 5.38727 33.5594C6.26971 33.0114 7.57814 29.936 8.49099 27.8351C9.40386 25.7341 10.06 22.0946 9.911 20.6289C9.66758 18.2336 9.68787 17.6856 9.62701 15.412C9.57226 13.3671 8.28815 11.2812 7.92299 11.8597Z" fill="#28839F"/>
<path d="M6.86839 33.3556C6.4622 34.3209 5.95552 34.8324 5.31651 35.2434C4.67752 35.6545 4.99701 36.842 5.68167 37.4966C6.3663 38.1513 6.57932 38.6841 6.74667 38.745C6.91403 38.8059 7.34763 36.4081 7.46174 36.0046C7.57585 35.6012 7.81929 34.33 7.67474 33.9493C7.5302 33.5687 7.29438 32.3432 6.86839 33.3556Z" fill="#28839F" fill-opacity="0.2"/>
<path d="M4.88151 14.9139C4.14317 15.3105 2.8642 15.8417 2.26336 19.2179C2.16447 19.7736 1.91296 22.6078 1.76082 23.5517C1.60868 24.4956 1.62486 27.1782 1.68983 27.9668C1.76256 28.8498 1.65986 30.1794 1.79679 30.8797C1.93371 31.58 2.55751 30.4991 2.70965 28.9614C2.86179 27.4238 3.36894 23.9882 3.69351 21.06C3.93219 18.9068 4.05993 17.6549 5.39373 15.6452C6.12058 14.5501 5.88049 14.3773 4.88151 14.9139Z" fill="#28839F"/>
<path d="M-0.028978 31.6302C0.120102 32.3571 0.397033 33.2745 0.883886 34.33C1.37075 35.3856 2.06047 36.025 2.08076 36.9486C2.10104 37.8722 1.64461 38.6131 1.5736 39.3845C1.50261 40.1558 1.1476 40.4299 1.02589 40.0746C0.904177 39.7194 0.224601 38.6435 0.133316 37.3952C0.0420312 36.1468 -0.373829 35.3653 -0.556399 34.6548C-0.738969 33.9443 -0.444836 32.8888 -0.373828 32.4625C-0.302833 32.0362 -0.0987074 31.2902 -0.028978 31.6302Z" fill="#28839F" fill-opacity="0.2"/>
<path d="M-1.85462 38.4514C-1.85462 40.1018 -1.81405 44.2569 -1.97633 46.7334C-2.13863 49.2099 -3.17319 58.5881 -3.47749 60.009C-3.78177 61.43 -3.05148 59.806 -2.66605 58.1821C-2.28062 56.5582 -1.7329 54.508 -0.880897 51.8488C-0.0289025 49.1896 0.762248 45.3328 0.701391 43.9322C0.640534 42.5315 0.640534 40.6031 0.255104 39.71C-0.130327 38.8168 -0.191184 37.7613 -0.353464 37.0508C-0.515757 36.3403 -0.749045 35.4776 -0.880897 35.2645C-1.01276 35.0513 -1.31705 36.0561 -1.53004 36.726C-1.74304 37.3959 -1.85462 38.3296 -1.85462 38.4514Z" fill="#28839F" fill-opacity="0.2"/>
<path d="M3.27753 39.1208C3.27753 40.1241 2.35453 42.328 1.91838 43.2618C1.48223 44.1955 0.630236 48.4685 0.336091 49.93C0.0419453 51.3916 -0.678197 56.7099 -1.28678 58.6383C-1.89535 60.5667 -1.97649 61.1351 -1.42878 60.6885C-0.881058 60.242 0.11294 57.2783 0.49837 55.9385C0.883801 54.5988 4.15997 47.1186 4.47947 45.7027C4.79896 44.2869 6.1074 42.6579 6.1074 41.851C6.1074 41.0441 6.06175 39.5673 5.1641 38.9888C4.26647 38.4103 3.27753 38.0652 3.27753 39.1208Z" fill="#28839F" fill-opacity="0.2"/>
<path d="M27.0427 48.0318C27.1035 46.9661 27.1339 42.8251 27.0122 41.5767C26.8905 40.3283 27.3926 36.8571 27.1644 35.5478C26.9362 34.2385 27.713 30.7404 27.4382 29.7017C27.2356 28.9357 25.4898 28.9903 24.1722 31.2444C23.5434 32.3203 22.8739 33.7615 22.4277 34.6547C21.9814 35.5478 20.7845 38.9378 21.0888 40.5414C21.3931 42.145 21.0685 43.4239 19.8716 44.4388C18.2472 45.8164 20.2984 46.406 21.5351 46.8443C22.9957 47.3619 24.791 49.6456 25.3082 50.6503C25.8255 51.6552 27.423 52.5229 27.2253 51.1071C27.0275 49.6912 27.0427 48.0318 27.0427 48.0318Z" fill="#28839F" fill-opacity="0.2"/>
<path d="M30.2389 -11.5405C32.3841 -1.75132 35.2755 -4.46914 42.0465 -1.08145C42.9999 -0.604426 43.2129 -0.350682 42.4421 0.21769C41.6712 0.786062 39.3383 2.37954 38.6283 4.61244C37.9183 6.84534 37.6546 10.6616 36.7215 13.0974C35.7883 15.5333 33.7395 18.8218 32.7657 20.5269C31.792 22.232 30.2706 25.7844 30.0069 26.9414C29.7431 28.0985 28.8506 29.4382 28.7897 28.0376C28.7289 26.6369 29.236 21.1765 29.3577 17.9286C29.4794 14.6808 29.2766 8.93614 29.236 7.04833C29.1954 5.16051 29.3171 2.52164 29.1549 1.2225C28.9926 -0.0766468 29.2969 -7.14073 29.3577 -8.56167C29.4186 -9.98259 29.1143 -11.2411 29.2766 -11.9313C29.4389 -12.6215 30.0112 -12.5794 30.2389 -11.5405Z" fill="#28839F" fill-opacity="0.2"/>
<path d="M49.5621 1.12147C51.5704 1.95373 52.747 3.41527 53.7613 5.74966C54.7756 8.08406 55.0596 10.6011 54.8162 12.5295C54.5727 14.458 54.3902 15.5338 54.3699 16.2646C54.3496 16.9954 53.8627 16.0819 52.747 15.0466C51.6313 14.0114 48.9941 11.6161 48.4059 10.1749C47.8176 8.73363 48.1421 7.2518 47.0264 6.27744C45.9107 5.30308 44.7544 4.00393 43.6184 3.51676C42.4824 3.02959 42.8881 2.29882 43.8618 2.17702C44.8355 2.05523 46.2353 1.01998 46.8641 0.877881C47.493 0.735784 48.9321 0.860381 49.5621 1.12147Z" fill="#28839F" fill-opacity="0.2"/>
<path d="M41.2148 3.14058C42.4319 3.35373 44.5112 4.35853 45.0995 5.2314C45.661 6.06441 46.4181 5.97231 46.5398 6.43918C46.6615 6.90606 45.9312 6.86547 45.4849 7.69773C45.0387 8.53 44.8155 9.89004 44.1461 10.702C41.8676 13.4656 40.8953 13.2445 38.1821 14.5182C37.5647 14.808 36.7012 15.1272 36.6403 14.7212C36.5795 14.3152 36.8128 13.8179 37.3098 12.9349C37.8068 12.0519 38.1009 9.48405 38.3241 8.3067C38.5472 7.12936 38.9225 5.19079 39.3384 4.26718C39.7542 3.34358 40.8081 3.06936 41.2148 3.14058Z" fill="#28839F" fill-opacity="0.2"/>
<path d="M47.3306 8.35812C47.068 8.8498 46.9959 8.79201 46.4634 9.13457C45.9309 9.47711 45.5734 9.92622 45.4289 10.0937C45.2843 10.2612 45.0257 9.83488 45.2311 9.28681C45.4365 8.73873 45.7712 8.17543 46.0678 7.87095C46.3645 7.56645 46.4863 7.19346 46.7677 7.12495C47.0492 7.05645 47.5665 7.91662 47.3306 8.35812Z" fill="#28839F" fill-opacity="0.2"/>
<path d="M43.2738 12.5088C43.7928 12.0127 44.5112 11.1387 45.3023 10.7631C46.0935 10.3876 47.1585 9.06815 47.4729 9.42339C47.7874 9.77862 47.6758 10.824 47.3512 11.6157C47.0266 12.4073 46.6716 13.5035 46.4181 14.3967C46.1645 15.2898 45.4444 16.051 44.6735 16.2845C43.9026 16.5179 42.0566 16.8325 40.8395 16.7108C39.6223 16.589 38.5472 16.0003 38.0806 15.6958C36.9618 14.9657 41.0018 14.6808 43.2738 12.5088Z" fill="#28839F" fill-opacity="0.2"/>
<path d="M36.8636 15.574C37.7979 15.8233 38.4256 16.6296 40.4947 17.0761C41.8414 17.3668 44.6533 17.0355 45.2822 16.8325C45.911 16.6296 46.337 17.4009 46.2559 18.0099C46.1747 18.6189 45.9313 21.136 45.2416 23.4906C44.5519 25.8453 43.5985 29.7631 42.929 31.5291C42.2596 33.2951 42.0162 33.4778 41.3873 36.9286C40.7584 40.3795 38.9124 42.3079 38.4256 43.5867C37.9387 44.8656 35.8087 43.7897 36.0319 41.8004C36.255 39.8111 36.1941 38.3496 35.1393 35.7107C34.0844 33.0718 32.9078 30.5547 32.0558 29.1744C31.2038 27.7941 30.93 26.3528 31.2647 25.1146C31.5994 23.8763 32.4311 22.0291 33.0296 20.9939C33.628 19.9586 35.0581 17.7968 35.5247 16.9138C35.9913 16.0307 36.0826 15.8683 36.1941 15.7161C36.3057 15.5639 36.5593 15.4928 36.8636 15.574Z" fill="#28839F" fill-opacity="0.2"/>
<path d="M39.8047 41.8616C39.3812 42.6082 38.9324 43.3637 38.6484 44.2163C38.3644 45.0688 38.9121 45.7793 39.5207 46.0838C40.1293 46.3883 41.4783 46.4086 42.4013 46.6928C43.3243 46.9769 43.6894 47.3829 43.9227 47.322C44.156 47.2611 43.7251 46.2393 43.4561 45.6981C42.5027 43.7798 41.104 41.462 40.7378 41.2526C40.5248 41.1308 40.2307 41.1105 39.8047 41.8616Z" fill="#28839F" fill-opacity="0.2"/>
<path d="M41.604 39.0501C42.4945 39.432 43.4278 41.2157 43.6028 41.9579C43.7265 42.4829 43.7849 43.3596 43.7878 44.0741C43.7898 44.5456 43.8837 44.9964 43.7644 45.0104C43.1787 45.0789 42.9885 43.7848 41.8499 42.1508C41.5168 41.6727 41.1336 40.8364 40.9815 40.542C40.8293 40.2477 41.036 38.8065 41.604 39.0501Z" fill="#28839F" fill-opacity="0.2"/>
<path d="M42.1881 37.1769C42.6468 37.6971 43.1435 39.8195 43.1284 39.8111C42.9025 39.6852 42.5816 39.3679 42.2946 39.1256C42.033 38.9047 41.6556 38.6384 41.6709 38.2273C41.6861 37.8163 41.8458 36.7886 42.1881 37.1769Z" fill="#28839F" fill-opacity="0.2"/>
<path d="M48.4667 11.8597C49.1785 12.9875 50.8299 15.9855 51.4081 17.645C51.9862 19.3044 52.1181 21.1567 52.179 23.349C52.2398 25.5413 52.8382 30.8394 52.5644 32.0573C52.2905 33.2752 51.8848 34.1075 51.0024 33.5594C50.1199 33.0114 48.8115 29.936 47.8987 27.8351C46.9858 25.7341 46.3297 22.0946 46.4786 20.6289C46.7221 18.2336 46.7018 17.6856 46.7626 15.412C46.8174 13.3671 48.1015 11.2812 48.4667 11.8597Z" fill="#28839F"/>
<path d="M49.5218 33.3556C49.928 34.3209 50.4347 34.8324 51.0737 35.2434C51.7127 35.6545 51.3932 36.842 50.7085 37.4966C50.0239 38.1513 49.8109 38.6841 49.6435 38.745C49.4762 38.8059 49.0426 36.4081 48.9285 36.0046C48.8144 35.6012 48.5709 34.33 48.7155 33.9493C48.86 33.5687 49.0958 32.3432 49.5218 33.3556Z" fill="#28839F" fill-opacity="0.2"/>
<path d="M51.5085 14.9139C52.2468 15.3105 53.5258 15.8417 54.1266 19.2179C54.2255 19.7736 54.477 22.6078 54.6292 23.5517C54.7813 24.4956 54.7651 27.1782 54.7002 27.9668C54.6274 28.8498 54.7301 30.1794 54.5932 30.8797C54.4563 31.58 53.8325 30.4991 53.6803 28.9614C53.5282 27.4238 53.0211 23.9882 52.6965 21.06C52.4578 18.9068 52.3301 17.6549 50.9963 15.6452C50.2694 14.5501 50.5095 14.3773 51.5085 14.9139Z" fill="#28839F"/>
<path d="M56.419 31.6302C56.2699 32.3571 55.993 33.2745 55.5061 34.33C55.0193 35.3856 54.3295 36.025 54.3092 36.9486C54.289 37.8722 54.7454 38.6131 54.8164 39.3845C54.8874 40.1558 55.2424 40.4299 55.3641 40.0746C55.4858 39.7194 56.1654 38.6435 56.2567 37.3952C56.348 36.1468 56.7638 35.3653 56.9464 34.6548C57.129 33.9443 56.8348 32.8888 56.7638 32.4625C56.6928 32.0362 56.4887 31.2902 56.419 31.6302Z" fill="#28839F" fill-opacity="0.2"/>
<path d="M58.2444 38.4514C58.2444 40.1018 58.2038 44.2569 58.3661 46.7334C58.5284 49.2099 59.5629 58.5881 59.8672 60.009C60.1715 61.43 59.4412 59.806 59.0558 58.1821C58.6704 56.5582 58.1227 54.508 57.2706 51.8488C56.4186 49.1896 55.6275 45.3328 55.6884 43.9322C55.7492 42.5315 55.7492 40.6031 56.1346 39.71C56.5201 38.8168 56.5809 37.7613 56.7432 37.0508C56.9055 36.3403 57.1388 35.4776 57.2706 35.2645C57.4025 35.0513 57.7068 36.0561 57.9198 36.726C58.1328 37.3959 58.2444 38.3296 58.2444 38.4514Z" fill="#28839F" fill-opacity="0.2"/>
<path d="M53.1121 39.1208C53.1121 40.1241 54.0351 42.328 54.4712 43.2618C54.9074 44.1955 55.7594 48.4685 56.0535 49.93C56.3477 51.3916 57.0678 56.7099 57.6764 58.6383C58.285 60.5667 58.3661 61.1351 57.8184 60.6885C57.2707 60.242 56.2767 57.2783 55.8913 55.9385C55.5058 54.5988 52.2297 47.1186 51.9102 45.7027C51.5907 44.2869 50.2822 42.6579 50.2822 41.851C50.2822 41.0441 50.3279 39.5673 51.2255 38.9888C52.1232 38.4103 53.1121 38.0652 53.1121 39.1208Z" fill="#28839F" fill-opacity="0.2"/>
<path d="M60.8714 59.6334C59.867 57.9583 59.6999 52.2801 59.4717 50.5901C59.2435 48.9003 58.9849 43.8001 58.9696 42.7801C58.9544 41.76 59.137 41.8362 59.3348 42.8105C59.5326 43.7849 59.8977 46.6623 60.1868 48.3217C60.4759 49.9812 60.8106 55.6446 61.0084 56.8778C61.2061 58.111 61.054 59.9379 60.8714 59.6334Z" fill="#28839F" fill-opacity="0.2"/>
<path d="M29.3473 48.0318C29.2864 46.9661 29.256 42.8251 29.3777 41.5767C29.4994 40.3283 28.9974 36.8571 29.2256 35.5478C29.4538 34.2385 28.677 30.7404 28.9517 29.7017C29.1543 28.9357 30.9002 28.9903 32.2177 31.2444C32.8466 32.3203 33.516 33.7615 33.9623 34.6547C34.4086 35.5478 35.6055 38.9378 35.3012 40.5414C34.9969 42.145 35.3215 43.4239 36.5183 44.4388C38.1428 45.8164 36.0916 46.406 34.8549 46.8443C33.3943 47.3619 31.599 49.6456 31.0817 50.6503C30.5644 51.6552 28.9669 52.5229 29.1647 51.1071C29.3625 49.6912 29.3473 48.0318 29.3473 48.0318Z" fill="#28839F" fill-opacity="0.2"/>
</g>
<defs>
<clipPath id="clip0_4048_2340">
<rect width="61" height="48" fill="white"/>
</clipPath>
</defs>
</svg>
