<?xml version="1.0" encoding="UTF-8"?>
<svg width="3300px" height="2200px" viewBox="0 0 3300 2200" version="1.1" xmlns="http://www.w3.org/2000/svg">
 <g id="Notes">
  <rect height="2200" id="artboard" style="fill:white;opacity:0" width="3300" x="0" y="0"/>
 </g>
 <g id="Guides" style="stroke:#27AAE1;stroke-width:0.5;opacity:0">
  <line id="Capline-S" x1="263" y1="700" x2="3036" y2="700"/>
  <line id="Baseline-S" x1="263" y1="1500" x2="3036" y2="1500"/>
  <line id="Capline-M" x1="263" y1="700" x2="3036" y2="700"/>
  <line id="Baseline-M" x1="263" y1="1500" x2="3036" y2="1500"/>
  <line id="Capline-L" x1="263" y1="700" x2="3036" y2="700"/>
  <line id="Baseline-L" x1="263" y1="1500" x2="3036" y2="1500"/>
 </g>
 <g id="Symbols">
  <g id="Ultralight-S">
   <g transform="translate(1349.323, 700.000) scale(1.80587)">
      <path d="M82.9834 22.7979C117.311 -3.7928 169.878 4.87431 189.791 43.8701V43.8711C196.591 57.1792 200.499 71.609 201.484 87.2373V87.2383C201.864 93.2827 202.083 96.7672 202.137 97.6074C202.25 100.534 202.151 103.219 201.998 106.087C201.848 108.902 201.633 112.07 201.591 115.476V115.478C201.567 117.409 201.431 119.81 201.163 122.711C199.448 141.07 198.921 157.275 199.63 171.276L199.702 172.625C201.307 200.802 209.569 227.013 224.445 251.153C234.27 267.097 245.898 277.922 263.069 284.95H263.07C278.986 291.462 295.883 292.735 313.532 288.941L313.533 288.942C317.776 288.033 322.461 290.399 324.24 294.495C325.57 297.572 325.58 299.933 324.893 301.975C322.822 308.122 319.571 314.507 315.033 321.13L315.032 321.131C298.016 345.977 272.413 362.175 242.97 370.192L242.961 370.194C241.557 370.578 240.248 371.248 239.115 372.162L238.892 372.349C237.709 373.358 236.764 374.616 236.124 376.034C232.764 383.48 225.356 399.778 213.895 424.94C212.247 428.557 210.227 430.84 208.014 432.263C205.8 433.686 202.882 434.579 198.9 434.579C179.97 434.579 161.386 434.569 143.148 434.549H143.14C142.892 434.549 142.014 434.426 140.794 433.919C139.603 433.424 138.743 432.834 138.355 432.459L138.354 432.458L138.052 432.151C136.61 430.617 136.192 429.034 136.317 427.356C136.469 425.332 137.484 422.824 139.505 420.396L139.513 420.387C141.222 418.326 143.728 416.43 147.342 414.853L147.341 414.851C149.486 413.917 151.237 412.245 152.259 410.119L158.669 396.789L158.691 396.743L158.713 396.696C159.183 395.684 159.441 394.584 159.471 393.466C159.496 392.489 159.347 391.515 159.029 390.593L158.883 390.2L158.717 389.816C158.365 389.057 157.899 388.356 157.335 387.738L157.045 387.437L156.74 387.149C156.013 386.5 155.174 385.985 154.262 385.63L154.241 385.622L154.22 385.614L153.965 385.511C152.584 384.929 149.592 383.323 144.596 380.275L144.594 380.274L144.169 380.025C142.03 378.814 139.649 378.152 137.129 378.139H137.084C135.5 378.14 133.95 378.56 132.588 379.349L132.318 379.512C130.893 380.405 129.751 381.678 129.015 383.181L129.004 383.202L128.993 383.225C128.918 383.38 127.428 386.714 124.544 393.175L111.73 421.894C108.778 428.513 106.319 431.841 101.668 433.73L101.658 433.733C101.651 433.736 101.58 433.764 101.431 433.806C101.267 433.852 101.038 433.908 100.733 433.969C100.117 434.091 99.2897 434.212 98.2197 434.316C96.0715 434.525 93.2168 434.637 89.5928 434.628C65.5664 434.548 50.3971 434.541 44.1592 434.608C37.8529 434.674 35.3594 433.486 34.0674 431.58L34.0645 431.575L33.8916 431.312C32.1649 428.59 32.2958 425.825 33.9521 422.848C35.8249 419.481 39.4409 416.479 43.1816 415.09L43.1934 415.085L43.2051 415.081C45.7359 414.131 47.797 412.242 48.9668 409.813L48.9697 409.809L56.8594 393.398L56.8584 393.397C57.6162 391.824 57.8555 390.054 57.5449 388.341L57.4746 387.995L57.3896 387.652C56.9289 385.953 55.9361 384.442 54.5518 383.344L54.5449 383.338L54.5391 383.333L53.9473 382.859C47.8755 377.928 43.0197 371.862 39.3623 364.582L39.3613 364.58L38.9512 363.749C34.7917 355.14 32.998 346.059 33.5576 336.383C34.4207 321.504 40.1683 309.097 50.9717 298.801C52.0258 297.797 52.8239 296.556 53.2988 295.181C53.7738 293.805 53.9114 292.335 53.7012 290.896L53.6982 290.873L53.6953 290.852L53.5312 289.752C51.8796 278.368 51.3199 266.101 51.8828 252.932C51.9599 251.194 51.4945 249.479 50.5557 248.021L50.3613 247.733L50.1553 247.454C49.0989 246.079 47.6402 245.064 45.9785 244.552L45.9707 244.549L45.9629 244.547L41.3828 243.146L41.3447 243.135L41.3076 243.124L41.0049 243.041C39.5883 242.681 38.1021 242.698 36.6943 243.09L36.3945 243.18C34.799 243.689 33.3922 244.664 32.3564 245.98L32.3545 245.983C29.9252 249.073 28.4937 250.837 26.9199 252.065C25.6724 253.039 24.2506 253.725 21.7627 253.884C15.0241 254.311 11.0332 251.441 9.09766 247.867C7.02897 244.047 6.74702 238.331 9.96777 232.452L9.9668 232.451C13.4705 226.058 18.9759 221.71 27.1426 219.439C29.0769 218.906 31.5501 218.458 34.9404 217.722C37.9577 217.066 41.6569 216.184 44.7373 214.857L44.749 214.852C46.9261 213.909 50.0933 212.319 52.9902 210.249C55.4985 208.457 59.4974 205.146 60.7861 200.325L60.7852 200.324C64.4881 186.516 68.5476 174.143 72.9492 163.185L72.9541 163.174L72.958 163.164C73.3409 162.203 73.5335 161.177 73.5264 160.145L73.5107 159.702L73.4707 159.261C73.367 158.383 73.119 157.527 72.7354 156.729L72.5322 156.336L72.3086 155.954C71.7614 155.079 71.049 154.316 70.2109 153.71C69.2688 153.028 68.1898 152.562 67.0498 152.34L67.0508 152.339C67.0375 152.336 67.024 152.334 67.0107 152.331C67.0039 152.33 66.9971 152.328 66.9902 152.327H66.9893C65.0817 151.959 63.2728 151.833 61.8398 151.74C60.2877 151.64 59.1068 151.574 57.834 151.394L57.8232 151.392L56.9287 151.26C38.4733 148.422 21.9232 138.217 13.959 122.154L13.5801 121.372C7.46855 108.451 5.96699 95.0951 9.06348 81.0371C15.2377 53.0968 38.339 38.5154 67.2002 34.5898C69.3999 34.2938 71.4572 33.3567 73.123 31.9053L73.124 31.9062C75.0906 30.1945 77.0146 28.2928 78.625 26.7334C80.3367 25.0759 81.7244 23.7726 82.9824 22.7969L82.9834 22.7979Z" fill="black" stroke="black" stroke-width="15"/>
      <path d="M159.829 219.203C149.595 239.857 141.219 247.401 119.658 245.342C114.99 244.896 112.656 244.673 110.943 245.306C109.229 245.939 107.293 247.944 103.423 251.952C100.156 255.336 96.7511 256.521 90.0307 255.221C89.1577 255.052 88.7212 254.968 88.0828 254.726C87.4445 254.485 87.0701 254.265 86.3213 253.825C80.5563 250.436 79.0314 247.25 79.174 240.443C79.3301 232.993 85.5453 223.72 91.8034 221.5C100.701 218.342 106.729 216.333 115.914 213.176C125.099 210.019 128.256 204.852 128.256 195.667" stroke="black" stroke-width="13" stroke-linecap="round"/>
   </g>
  </g>
  <g id="Ultralight-M">
   <g transform="translate(1349.323, 700.000) scale(1.80587)">
      <path d="M82.9834 22.7979C117.311 -3.7928 169.878 4.87431 189.791 43.8701V43.8711C196.591 57.1792 200.499 71.609 201.484 87.2373V87.2383C201.864 93.2827 202.083 96.7672 202.137 97.6074C202.25 100.534 202.151 103.219 201.998 106.087C201.848 108.902 201.633 112.07 201.591 115.476V115.478C201.567 117.409 201.431 119.81 201.163 122.711C199.448 141.07 198.921 157.275 199.63 171.276L199.702 172.625C201.307 200.802 209.569 227.013 224.445 251.153C234.27 267.097 245.898 277.922 263.069 284.95H263.07C278.986 291.462 295.883 292.735 313.532 288.941L313.533 288.942C317.776 288.033 322.461 290.399 324.24 294.495C325.57 297.572 325.58 299.933 324.893 301.975C322.822 308.122 319.571 314.507 315.033 321.13L315.032 321.131C298.016 345.977 272.413 362.175 242.97 370.192L242.961 370.194C241.557 370.578 240.248 371.248 239.115 372.162L238.892 372.349C237.709 373.358 236.764 374.616 236.124 376.034C232.764 383.48 225.356 399.778 213.895 424.94C212.247 428.557 210.227 430.84 208.014 432.263C205.8 433.686 202.882 434.579 198.9 434.579C179.97 434.579 161.386 434.569 143.148 434.549H143.14C142.892 434.549 142.014 434.426 140.794 433.919C139.603 433.424 138.743 432.834 138.355 432.459L138.354 432.458L138.052 432.151C136.61 430.617 136.192 429.034 136.317 427.356C136.469 425.332 137.484 422.824 139.505 420.396L139.513 420.387C141.222 418.326 143.728 416.43 147.342 414.853L147.341 414.851C149.486 413.917 151.237 412.245 152.259 410.119L158.669 396.789L158.691 396.743L158.713 396.696C159.183 395.684 159.441 394.584 159.471 393.466C159.496 392.489 159.347 391.515 159.029 390.593L158.883 390.2L158.717 389.816C158.365 389.057 157.899 388.356 157.335 387.738L157.045 387.437L156.74 387.149C156.013 386.5 155.174 385.985 154.262 385.63L154.241 385.622L154.22 385.614L153.965 385.511C152.584 384.929 149.592 383.323 144.596 380.275L144.594 380.274L144.169 380.025C142.03 378.814 139.649 378.152 137.129 378.139H137.084C135.5 378.14 133.95 378.56 132.588 379.349L132.318 379.512C130.893 380.405 129.751 381.678 129.015 383.181L129.004 383.202L128.993 383.225C128.918 383.38 127.428 386.714 124.544 393.175L111.73 421.894C108.778 428.513 106.319 431.841 101.668 433.73L101.658 433.733C101.651 433.736 101.58 433.764 101.431 433.806C101.267 433.852 101.038 433.908 100.733 433.969C100.117 434.091 99.2897 434.212 98.2197 434.316C96.0715 434.525 93.2168 434.637 89.5928 434.628C65.5664 434.548 50.3971 434.541 44.1592 434.608C37.8529 434.674 35.3594 433.486 34.0674 431.58L34.0645 431.575L33.8916 431.312C32.1649 428.59 32.2958 425.825 33.9521 422.848C35.8249 419.481 39.4409 416.479 43.1816 415.09L43.1934 415.085L43.2051 415.081C45.7359 414.131 47.797 412.242 48.9668 409.813L48.9697 409.809L56.8594 393.398L56.8584 393.397C57.6162 391.824 57.8555 390.054 57.5449 388.341L57.4746 387.995L57.3896 387.652C56.9289 385.953 55.9361 384.442 54.5518 383.344L54.5449 383.338L54.5391 383.333L53.9473 382.859C47.8755 377.928 43.0197 371.862 39.3623 364.582L39.3613 364.58L38.9512 363.749C34.7917 355.14 32.998 346.059 33.5576 336.383C34.4207 321.504 40.1683 309.097 50.9717 298.801C52.0258 297.797 52.8239 296.556 53.2988 295.181C53.7738 293.805 53.9114 292.335 53.7012 290.896L53.6982 290.873L53.6953 290.852L53.5312 289.752C51.8796 278.368 51.3199 266.101 51.8828 252.932C51.9599 251.194 51.4945 249.479 50.5557 248.021L50.3613 247.733L50.1553 247.454C49.0989 246.079 47.6402 245.064 45.9785 244.552L45.9707 244.549L45.9629 244.547L41.3828 243.146L41.3447 243.135L41.3076 243.124L41.0049 243.041C39.5883 242.681 38.1021 242.698 36.6943 243.09L36.3945 243.18C34.799 243.689 33.3922 244.664 32.3564 245.98L32.3545 245.983C29.9252 249.073 28.4937 250.837 26.9199 252.065C25.6724 253.039 24.2506 253.725 21.7627 253.884C15.0241 254.311 11.0332 251.441 9.09766 247.867C7.02897 244.047 6.74702 238.331 9.96777 232.452L9.9668 232.451C13.4705 226.058 18.9759 221.71 27.1426 219.439C29.0769 218.906 31.5501 218.458 34.9404 217.722C37.9577 217.066 41.6569 216.184 44.7373 214.857L44.749 214.852C46.9261 213.909 50.0933 212.319 52.9902 210.249C55.4985 208.457 59.4974 205.146 60.7861 200.325L60.7852 200.324C64.4881 186.516 68.5476 174.143 72.9492 163.185L72.9541 163.174L72.958 163.164C73.3409 162.203 73.5335 161.177 73.5264 160.145L73.5107 159.702L73.4707 159.261C73.367 158.383 73.119 157.527 72.7354 156.729L72.5322 156.336L72.3086 155.954C71.7614 155.079 71.049 154.316 70.2109 153.71C69.2688 153.028 68.1898 152.562 67.0498 152.34L67.0508 152.339C67.0375 152.336 67.024 152.334 67.0107 152.331C67.0039 152.33 66.9971 152.328 66.9902 152.327H66.9893C65.0817 151.959 63.2728 151.833 61.8398 151.74C60.2877 151.64 59.1068 151.574 57.834 151.394L57.8232 151.392L56.9287 151.26C38.4733 148.422 21.9232 138.217 13.959 122.154L13.5801 121.372C7.46855 108.451 5.96699 95.0951 9.06348 81.0371C15.2377 53.0968 38.339 38.5154 67.2002 34.5898C69.3999 34.2938 71.4572 33.3567 73.123 31.9053L73.124 31.9062C75.0906 30.1945 77.0146 28.2928 78.625 26.7334C80.3367 25.0759 81.7244 23.7726 82.9824 22.7969L82.9834 22.7979Z" fill="black" stroke="black" stroke-width="15"/>
      <path d="M159.829 219.203C149.595 239.857 141.219 247.401 119.658 245.342C114.99 244.896 112.656 244.673 110.943 245.306C109.229 245.939 107.293 247.944 103.423 251.952C100.156 255.336 96.7511 256.521 90.0307 255.221C89.1577 255.052 88.7212 254.968 88.0828 254.726C87.4445 254.485 87.0701 254.265 86.3213 253.825C80.5563 250.436 79.0314 247.25 79.174 240.443C79.3301 232.993 85.5453 223.72 91.8034 221.5C100.701 218.342 106.729 216.333 115.914 213.176C125.099 210.019 128.256 204.852 128.256 195.667" stroke="black" stroke-width="13" stroke-linecap="round"/>
   </g>
  </g>
  <g id="Ultralight-L">
   <g transform="translate(1349.323, 700.000) scale(1.80587)">
      <path d="M82.9834 22.7979C117.311 -3.7928 169.878 4.87431 189.791 43.8701V43.8711C196.591 57.1792 200.499 71.609 201.484 87.2373V87.2383C201.864 93.2827 202.083 96.7672 202.137 97.6074C202.25 100.534 202.151 103.219 201.998 106.087C201.848 108.902 201.633 112.07 201.591 115.476V115.478C201.567 117.409 201.431 119.81 201.163 122.711C199.448 141.07 198.921 157.275 199.63 171.276L199.702 172.625C201.307 200.802 209.569 227.013 224.445 251.153C234.27 267.097 245.898 277.922 263.069 284.95H263.07C278.986 291.462 295.883 292.735 313.532 288.941L313.533 288.942C317.776 288.033 322.461 290.399 324.24 294.495C325.57 297.572 325.58 299.933 324.893 301.975C322.822 308.122 319.571 314.507 315.033 321.13L315.032 321.131C298.016 345.977 272.413 362.175 242.97 370.192L242.961 370.194C241.557 370.578 240.248 371.248 239.115 372.162L238.892 372.349C237.709 373.358 236.764 374.616 236.124 376.034C232.764 383.48 225.356 399.778 213.895 424.94C212.247 428.557 210.227 430.84 208.014 432.263C205.8 433.686 202.882 434.579 198.9 434.579C179.97 434.579 161.386 434.569 143.148 434.549H143.14C142.892 434.549 142.014 434.426 140.794 433.919C139.603 433.424 138.743 432.834 138.355 432.459L138.354 432.458L138.052 432.151C136.61 430.617 136.192 429.034 136.317 427.356C136.469 425.332 137.484 422.824 139.505 420.396L139.513 420.387C141.222 418.326 143.728 416.43 147.342 414.853L147.341 414.851C149.486 413.917 151.237 412.245 152.259 410.119L158.669 396.789L158.691 396.743L158.713 396.696C159.183 395.684 159.441 394.584 159.471 393.466C159.496 392.489 159.347 391.515 159.029 390.593L158.883 390.2L158.717 389.816C158.365 389.057 157.899 388.356 157.335 387.738L157.045 387.437L156.74 387.149C156.013 386.5 155.174 385.985 154.262 385.63L154.241 385.622L154.22 385.614L153.965 385.511C152.584 384.929 149.592 383.323 144.596 380.275L144.594 380.274L144.169 380.025C142.03 378.814 139.649 378.152 137.129 378.139H137.084C135.5 378.14 133.95 378.56 132.588 379.349L132.318 379.512C130.893 380.405 129.751 381.678 129.015 383.181L129.004 383.202L128.993 383.225C128.918 383.38 127.428 386.714 124.544 393.175L111.73 421.894C108.778 428.513 106.319 431.841 101.668 433.73L101.658 433.733C101.651 433.736 101.58 433.764 101.431 433.806C101.267 433.852 101.038 433.908 100.733 433.969C100.117 434.091 99.2897 434.212 98.2197 434.316C96.0715 434.525 93.2168 434.637 89.5928 434.628C65.5664 434.548 50.3971 434.541 44.1592 434.608C37.8529 434.674 35.3594 433.486 34.0674 431.58L34.0645 431.575L33.8916 431.312C32.1649 428.59 32.2958 425.825 33.9521 422.848C35.8249 419.481 39.4409 416.479 43.1816 415.09L43.1934 415.085L43.2051 415.081C45.7359 414.131 47.797 412.242 48.9668 409.813L48.9697 409.809L56.8594 393.398L56.8584 393.397C57.6162 391.824 57.8555 390.054 57.5449 388.341L57.4746 387.995L57.3896 387.652C56.9289 385.953 55.9361 384.442 54.5518 383.344L54.5449 383.338L54.5391 383.333L53.9473 382.859C47.8755 377.928 43.0197 371.862 39.3623 364.582L39.3613 364.58L38.9512 363.749C34.7917 355.14 32.998 346.059 33.5576 336.383C34.4207 321.504 40.1683 309.097 50.9717 298.801C52.0258 297.797 52.8239 296.556 53.2988 295.181C53.7738 293.805 53.9114 292.335 53.7012 290.896L53.6982 290.873L53.6953 290.852L53.5312 289.752C51.8796 278.368 51.3199 266.101 51.8828 252.932C51.9599 251.194 51.4945 249.479 50.5557 248.021L50.3613 247.733L50.1553 247.454C49.0989 246.079 47.6402 245.064 45.9785 244.552L45.9707 244.549L45.9629 244.547L41.3828 243.146L41.3447 243.135L41.3076 243.124L41.0049 243.041C39.5883 242.681 38.1021 242.698 36.6943 243.09L36.3945 243.18C34.799 243.689 33.3922 244.664 32.3564 245.98L32.3545 245.983C29.9252 249.073 28.4937 250.837 26.9199 252.065C25.6724 253.039 24.2506 253.725 21.7627 253.884C15.0241 254.311 11.0332 251.441 9.09766 247.867C7.02897 244.047 6.74702 238.331 9.96777 232.452L9.9668 232.451C13.4705 226.058 18.9759 221.71 27.1426 219.439C29.0769 218.906 31.5501 218.458 34.9404 217.722C37.9577 217.066 41.6569 216.184 44.7373 214.857L44.749 214.852C46.9261 213.909 50.0933 212.319 52.9902 210.249C55.4985 208.457 59.4974 205.146 60.7861 200.325L60.7852 200.324C64.4881 186.516 68.5476 174.143 72.9492 163.185L72.9541 163.174L72.958 163.164C73.3409 162.203 73.5335 161.177 73.5264 160.145L73.5107 159.702L73.4707 159.261C73.367 158.383 73.119 157.527 72.7354 156.729L72.5322 156.336L72.3086 155.954C71.7614 155.079 71.049 154.316 70.2109 153.71C69.2688 153.028 68.1898 152.562 67.0498 152.34L67.0508 152.339C67.0375 152.336 67.024 152.334 67.0107 152.331C67.0039 152.33 66.9971 152.328 66.9902 152.327H66.9893C65.0817 151.959 63.2728 151.833 61.8398 151.74C60.2877 151.64 59.1068 151.574 57.834 151.394L57.8232 151.392L56.9287 151.26C38.4733 148.422 21.9232 138.217 13.959 122.154L13.5801 121.372C7.46855 108.451 5.96699 95.0951 9.06348 81.0371C15.2377 53.0968 38.339 38.5154 67.2002 34.5898C69.3999 34.2938 71.4572 33.3567 73.123 31.9053L73.124 31.9062C75.0906 30.1945 77.0146 28.2928 78.625 26.7334C80.3367 25.0759 81.7244 23.7726 82.9824 22.7969L82.9834 22.7979Z" fill="black" stroke="black" stroke-width="15"/>
      <path d="M159.829 219.203C149.595 239.857 141.219 247.401 119.658 245.342C114.99 244.896 112.656 244.673 110.943 245.306C109.229 245.939 107.293 247.944 103.423 251.952C100.156 255.336 96.7511 256.521 90.0307 255.221C89.1577 255.052 88.7212 254.968 88.0828 254.726C87.4445 254.485 87.0701 254.265 86.3213 253.825C80.5563 250.436 79.0314 247.25 79.174 240.443C79.3301 232.993 85.5453 223.72 91.8034 221.5C100.701 218.342 106.729 216.333 115.914 213.176C125.099 210.019 128.256 204.852 128.256 195.667" stroke="black" stroke-width="13" stroke-linecap="round"/>
   </g>
  </g>
  <g id="Regular-S">
   <g transform="translate(1349.323, 700.000) scale(1.80587)">
      <path d="M82.9834 22.7979C117.311 -3.7928 169.878 4.87431 189.791 43.8701V43.8711C196.591 57.1792 200.499 71.609 201.484 87.2373V87.2383C201.864 93.2827 202.083 96.7672 202.137 97.6074C202.25 100.534 202.151 103.219 201.998 106.087C201.848 108.902 201.633 112.07 201.591 115.476V115.478C201.567 117.409 201.431 119.81 201.163 122.711C199.448 141.07 198.921 157.275 199.63 171.276L199.702 172.625C201.307 200.802 209.569 227.013 224.445 251.153C234.27 267.097 245.898 277.922 263.069 284.95H263.07C278.986 291.462 295.883 292.735 313.532 288.941L313.533 288.942C317.776 288.033 322.461 290.399 324.24 294.495C325.57 297.572 325.58 299.933 324.893 301.975C322.822 308.122 319.571 314.507 315.033 321.13L315.032 321.131C298.016 345.977 272.413 362.175 242.97 370.192L242.961 370.194C241.557 370.578 240.248 371.248 239.115 372.162L238.892 372.349C237.709 373.358 236.764 374.616 236.124 376.034C232.764 383.48 225.356 399.778 213.895 424.94C212.247 428.557 210.227 430.84 208.014 432.263C205.8 433.686 202.882 434.579 198.9 434.579C179.97 434.579 161.386 434.569 143.148 434.549H143.14C142.892 434.549 142.014 434.426 140.794 433.919C139.603 433.424 138.743 432.834 138.355 432.459L138.354 432.458L138.052 432.151C136.61 430.617 136.192 429.034 136.317 427.356C136.469 425.332 137.484 422.824 139.505 420.396L139.513 420.387C141.222 418.326 143.728 416.43 147.342 414.853L147.341 414.851C149.486 413.917 151.237 412.245 152.259 410.119L158.669 396.789L158.691 396.743L158.713 396.696C159.183 395.684 159.441 394.584 159.471 393.466C159.496 392.489 159.347 391.515 159.029 390.593L158.883 390.2L158.717 389.816C158.365 389.057 157.899 388.356 157.335 387.738L157.045 387.437L156.74 387.149C156.013 386.5 155.174 385.985 154.262 385.63L154.241 385.622L154.22 385.614L153.965 385.511C152.584 384.929 149.592 383.323 144.596 380.275L144.594 380.274L144.169 380.025C142.03 378.814 139.649 378.152 137.129 378.139H137.084C135.5 378.14 133.95 378.56 132.588 379.349L132.318 379.512C130.893 380.405 129.751 381.678 129.015 383.181L129.004 383.202L128.993 383.225C128.918 383.38 127.428 386.714 124.544 393.175L111.73 421.894C108.778 428.513 106.319 431.841 101.668 433.73L101.658 433.733C101.651 433.736 101.58 433.764 101.431 433.806C101.267 433.852 101.038 433.908 100.733 433.969C100.117 434.091 99.2897 434.212 98.2197 434.316C96.0715 434.525 93.2168 434.637 89.5928 434.628C65.5664 434.548 50.3971 434.541 44.1592 434.608C37.8529 434.674 35.3594 433.486 34.0674 431.58L34.0645 431.575L33.8916 431.312C32.1649 428.59 32.2958 425.825 33.9521 422.848C35.8249 419.481 39.4409 416.479 43.1816 415.09L43.1934 415.085L43.2051 415.081C45.7359 414.131 47.797 412.242 48.9668 409.813L48.9697 409.809L56.8594 393.398L56.8584 393.397C57.6162 391.824 57.8555 390.054 57.5449 388.341L57.4746 387.995L57.3896 387.652C56.9289 385.953 55.9361 384.442 54.5518 383.344L54.5449 383.338L54.5391 383.333L53.9473 382.859C47.8755 377.928 43.0197 371.862 39.3623 364.582L39.3613 364.58L38.9512 363.749C34.7917 355.14 32.998 346.059 33.5576 336.383C34.4207 321.504 40.1683 309.097 50.9717 298.801C52.0258 297.797 52.8239 296.556 53.2988 295.181C53.7738 293.805 53.9114 292.335 53.7012 290.896L53.6982 290.873L53.6953 290.852L53.5312 289.752C51.8796 278.368 51.3199 266.101 51.8828 252.932C51.9599 251.194 51.4945 249.479 50.5557 248.021L50.3613 247.733L50.1553 247.454C49.0989 246.079 47.6402 245.064 45.9785 244.552L45.9707 244.549L45.9629 244.547L41.3828 243.146L41.3447 243.135L41.3076 243.124L41.0049 243.041C39.5883 242.681 38.1021 242.698 36.6943 243.09L36.3945 243.18C34.799 243.689 33.3922 244.664 32.3564 245.98L32.3545 245.983C29.9252 249.073 28.4937 250.837 26.9199 252.065C25.6724 253.039 24.2506 253.725 21.7627 253.884C15.0241 254.311 11.0332 251.441 9.09766 247.867C7.02897 244.047 6.74702 238.331 9.96777 232.452L9.9668 232.451C13.4705 226.058 18.9759 221.71 27.1426 219.439C29.0769 218.906 31.5501 218.458 34.9404 217.722C37.9577 217.066 41.6569 216.184 44.7373 214.857L44.749 214.852C46.9261 213.909 50.0933 212.319 52.9902 210.249C55.4985 208.457 59.4974 205.146 60.7861 200.325L60.7852 200.324C64.4881 186.516 68.5476 174.143 72.9492 163.185L72.9541 163.174L72.958 163.164C73.3409 162.203 73.5335 161.177 73.5264 160.145L73.5107 159.702L73.4707 159.261C73.367 158.383 73.119 157.527 72.7354 156.729L72.5322 156.336L72.3086 155.954C71.7614 155.079 71.049 154.316 70.2109 153.71C69.2688 153.028 68.1898 152.562 67.0498 152.34L67.0508 152.339C67.0375 152.336 67.024 152.334 67.0107 152.331C67.0039 152.33 66.9971 152.328 66.9902 152.327H66.9893C65.0817 151.959 63.2728 151.833 61.8398 151.74C60.2877 151.64 59.1068 151.574 57.834 151.394L57.8232 151.392L56.9287 151.26C38.4733 148.422 21.9232 138.217 13.959 122.154L13.5801 121.372C7.46855 108.451 5.96699 95.0951 9.06348 81.0371C15.2377 53.0968 38.339 38.5154 67.2002 34.5898C69.3999 34.2938 71.4572 33.3567 73.123 31.9053L73.124 31.9062C75.0906 30.1945 77.0146 28.2928 78.625 26.7334C80.3367 25.0759 81.7244 23.7726 82.9824 22.7969L82.9834 22.7979Z" fill="black" stroke="black" stroke-width="15"/>
      <path d="M159.829 219.203C149.595 239.857 141.219 247.401 119.658 245.342C114.99 244.896 112.656 244.673 110.943 245.306C109.229 245.939 107.293 247.944 103.423 251.952C100.156 255.336 96.7511 256.521 90.0307 255.221C89.1577 255.052 88.7212 254.968 88.0828 254.726C87.4445 254.485 87.0701 254.265 86.3213 253.825C80.5563 250.436 79.0314 247.25 79.174 240.443C79.3301 232.993 85.5453 223.72 91.8034 221.5C100.701 218.342 106.729 216.333 115.914 213.176C125.099 210.019 128.256 204.852 128.256 195.667" stroke="black" stroke-width="13" stroke-linecap="round"/>
   </g>
  </g>
  <g id="Regular-M">
   <g transform="translate(1349.323, 700.000) scale(1.80587)">
      <path d="M82.9834 22.7979C117.311 -3.7928 169.878 4.87431 189.791 43.8701V43.8711C196.591 57.1792 200.499 71.609 201.484 87.2373V87.2383C201.864 93.2827 202.083 96.7672 202.137 97.6074C202.25 100.534 202.151 103.219 201.998 106.087C201.848 108.902 201.633 112.07 201.591 115.476V115.478C201.567 117.409 201.431 119.81 201.163 122.711C199.448 141.07 198.921 157.275 199.63 171.276L199.702 172.625C201.307 200.802 209.569 227.013 224.445 251.153C234.27 267.097 245.898 277.922 263.069 284.95H263.07C278.986 291.462 295.883 292.735 313.532 288.941L313.533 288.942C317.776 288.033 322.461 290.399 324.24 294.495C325.57 297.572 325.58 299.933 324.893 301.975C322.822 308.122 319.571 314.507 315.033 321.13L315.032 321.131C298.016 345.977 272.413 362.175 242.97 370.192L242.961 370.194C241.557 370.578 240.248 371.248 239.115 372.162L238.892 372.349C237.709 373.358 236.764 374.616 236.124 376.034C232.764 383.48 225.356 399.778 213.895 424.94C212.247 428.557 210.227 430.84 208.014 432.263C205.8 433.686 202.882 434.579 198.9 434.579C179.97 434.579 161.386 434.569 143.148 434.549H143.14C142.892 434.549 142.014 434.426 140.794 433.919C139.603 433.424 138.743 432.834 138.355 432.459L138.354 432.458L138.052 432.151C136.61 430.617 136.192 429.034 136.317 427.356C136.469 425.332 137.484 422.824 139.505 420.396L139.513 420.387C141.222 418.326 143.728 416.43 147.342 414.853L147.341 414.851C149.486 413.917 151.237 412.245 152.259 410.119L158.669 396.789L158.691 396.743L158.713 396.696C159.183 395.684 159.441 394.584 159.471 393.466C159.496 392.489 159.347 391.515 159.029 390.593L158.883 390.2L158.717 389.816C158.365 389.057 157.899 388.356 157.335 387.738L157.045 387.437L156.74 387.149C156.013 386.5 155.174 385.985 154.262 385.63L154.241 385.622L154.22 385.614L153.965 385.511C152.584 384.929 149.592 383.323 144.596 380.275L144.594 380.274L144.169 380.025C142.03 378.814 139.649 378.152 137.129 378.139H137.084C135.5 378.14 133.95 378.56 132.588 379.349L132.318 379.512C130.893 380.405 129.751 381.678 129.015 383.181L129.004 383.202L128.993 383.225C128.918 383.38 127.428 386.714 124.544 393.175L111.73 421.894C108.778 428.513 106.319 431.841 101.668 433.73L101.658 433.733C101.651 433.736 101.58 433.764 101.431 433.806C101.267 433.852 101.038 433.908 100.733 433.969C100.117 434.091 99.2897 434.212 98.2197 434.316C96.0715 434.525 93.2168 434.637 89.5928 434.628C65.5664 434.548 50.3971 434.541 44.1592 434.608C37.8529 434.674 35.3594 433.486 34.0674 431.58L34.0645 431.575L33.8916 431.312C32.1649 428.59 32.2958 425.825 33.9521 422.848C35.8249 419.481 39.4409 416.479 43.1816 415.09L43.1934 415.085L43.2051 415.081C45.7359 414.131 47.797 412.242 48.9668 409.813L48.9697 409.809L56.8594 393.398L56.8584 393.397C57.6162 391.824 57.8555 390.054 57.5449 388.341L57.4746 387.995L57.3896 387.652C56.9289 385.953 55.9361 384.442 54.5518 383.344L54.5449 383.338L54.5391 383.333L53.9473 382.859C47.8755 377.928 43.0197 371.862 39.3623 364.582L39.3613 364.58L38.9512 363.749C34.7917 355.14 32.998 346.059 33.5576 336.383C34.4207 321.504 40.1683 309.097 50.9717 298.801C52.0258 297.797 52.8239 296.556 53.2988 295.181C53.7738 293.805 53.9114 292.335 53.7012 290.896L53.6982 290.873L53.6953 290.852L53.5312 289.752C51.8796 278.368 51.3199 266.101 51.8828 252.932C51.9599 251.194 51.4945 249.479 50.5557 248.021L50.3613 247.733L50.1553 247.454C49.0989 246.079 47.6402 245.064 45.9785 244.552L45.9707 244.549L45.9629 244.547L41.3828 243.146L41.3447 243.135L41.3076 243.124L41.0049 243.041C39.5883 242.681 38.1021 242.698 36.6943 243.09L36.3945 243.18C34.799 243.689 33.3922 244.664 32.3564 245.98L32.3545 245.983C29.9252 249.073 28.4937 250.837 26.9199 252.065C25.6724 253.039 24.2506 253.725 21.7627 253.884C15.0241 254.311 11.0332 251.441 9.09766 247.867C7.02897 244.047 6.74702 238.331 9.96777 232.452L9.9668 232.451C13.4705 226.058 18.9759 221.71 27.1426 219.439C29.0769 218.906 31.5501 218.458 34.9404 217.722C37.9577 217.066 41.6569 216.184 44.7373 214.857L44.749 214.852C46.9261 213.909 50.0933 212.319 52.9902 210.249C55.4985 208.457 59.4974 205.146 60.7861 200.325L60.7852 200.324C64.4881 186.516 68.5476 174.143 72.9492 163.185L72.9541 163.174L72.958 163.164C73.3409 162.203 73.5335 161.177 73.5264 160.145L73.5107 159.702L73.4707 159.261C73.367 158.383 73.119 157.527 72.7354 156.729L72.5322 156.336L72.3086 155.954C71.7614 155.079 71.049 154.316 70.2109 153.71C69.2688 153.028 68.1898 152.562 67.0498 152.34L67.0508 152.339C67.0375 152.336 67.024 152.334 67.0107 152.331C67.0039 152.33 66.9971 152.328 66.9902 152.327H66.9893C65.0817 151.959 63.2728 151.833 61.8398 151.74C60.2877 151.64 59.1068 151.574 57.834 151.394L57.8232 151.392L56.9287 151.26C38.4733 148.422 21.9232 138.217 13.959 122.154L13.5801 121.372C7.46855 108.451 5.96699 95.0951 9.06348 81.0371C15.2377 53.0968 38.339 38.5154 67.2002 34.5898C69.3999 34.2938 71.4572 33.3567 73.123 31.9053L73.124 31.9062C75.0906 30.1945 77.0146 28.2928 78.625 26.7334C80.3367 25.0759 81.7244 23.7726 82.9824 22.7969L82.9834 22.7979Z" fill="black" stroke="black" stroke-width="15"/>
      <path d="M159.829 219.203C149.595 239.857 141.219 247.401 119.658 245.342C114.99 244.896 112.656 244.673 110.943 245.306C109.229 245.939 107.293 247.944 103.423 251.952C100.156 255.336 96.7511 256.521 90.0307 255.221C89.1577 255.052 88.7212 254.968 88.0828 254.726C87.4445 254.485 87.0701 254.265 86.3213 253.825C80.5563 250.436 79.0314 247.25 79.174 240.443C79.3301 232.993 85.5453 223.72 91.8034 221.5C100.701 218.342 106.729 216.333 115.914 213.176C125.099 210.019 128.256 204.852 128.256 195.667" stroke="black" stroke-width="13" stroke-linecap="round"/>
   </g>
  </g>
  <g id="Regular-L">
   <g transform="translate(1349.323, 700.000) scale(1.80587)">
      <path d="M82.9834 22.7979C117.311 -3.7928 169.878 4.87431 189.791 43.8701V43.8711C196.591 57.1792 200.499 71.609 201.484 87.2373V87.2383C201.864 93.2827 202.083 96.7672 202.137 97.6074C202.25 100.534 202.151 103.219 201.998 106.087C201.848 108.902 201.633 112.07 201.591 115.476V115.478C201.567 117.409 201.431 119.81 201.163 122.711C199.448 141.07 198.921 157.275 199.63 171.276L199.702 172.625C201.307 200.802 209.569 227.013 224.445 251.153C234.27 267.097 245.898 277.922 263.069 284.95H263.07C278.986 291.462 295.883 292.735 313.532 288.941L313.533 288.942C317.776 288.033 322.461 290.399 324.24 294.495C325.57 297.572 325.58 299.933 324.893 301.975C322.822 308.122 319.571 314.507 315.033 321.13L315.032 321.131C298.016 345.977 272.413 362.175 242.97 370.192L242.961 370.194C241.557 370.578 240.248 371.248 239.115 372.162L238.892 372.349C237.709 373.358 236.764 374.616 236.124 376.034C232.764 383.48 225.356 399.778 213.895 424.94C212.247 428.557 210.227 430.84 208.014 432.263C205.8 433.686 202.882 434.579 198.9 434.579C179.97 434.579 161.386 434.569 143.148 434.549H143.14C142.892 434.549 142.014 434.426 140.794 433.919C139.603 433.424 138.743 432.834 138.355 432.459L138.354 432.458L138.052 432.151C136.61 430.617 136.192 429.034 136.317 427.356C136.469 425.332 137.484 422.824 139.505 420.396L139.513 420.387C141.222 418.326 143.728 416.43 147.342 414.853L147.341 414.851C149.486 413.917 151.237 412.245 152.259 410.119L158.669 396.789L158.691 396.743L158.713 396.696C159.183 395.684 159.441 394.584 159.471 393.466C159.496 392.489 159.347 391.515 159.029 390.593L158.883 390.2L158.717 389.816C158.365 389.057 157.899 388.356 157.335 387.738L157.045 387.437L156.74 387.149C156.013 386.5 155.174 385.985 154.262 385.63L154.241 385.622L154.22 385.614L153.965 385.511C152.584 384.929 149.592 383.323 144.596 380.275L144.594 380.274L144.169 380.025C142.03 378.814 139.649 378.152 137.129 378.139H137.084C135.5 378.14 133.95 378.56 132.588 379.349L132.318 379.512C130.893 380.405 129.751 381.678 129.015 383.181L129.004 383.202L128.993 383.225C128.918 383.38 127.428 386.714 124.544 393.175L111.73 421.894C108.778 428.513 106.319 431.841 101.668 433.73L101.658 433.733C101.651 433.736 101.58 433.764 101.431 433.806C101.267 433.852 101.038 433.908 100.733 433.969C100.117 434.091 99.2897 434.212 98.2197 434.316C96.0715 434.525 93.2168 434.637 89.5928 434.628C65.5664 434.548 50.3971 434.541 44.1592 434.608C37.8529 434.674 35.3594 433.486 34.0674 431.58L34.0645 431.575L33.8916 431.312C32.1649 428.59 32.2958 425.825 33.9521 422.848C35.8249 419.481 39.4409 416.479 43.1816 415.09L43.1934 415.085L43.2051 415.081C45.7359 414.131 47.797 412.242 48.9668 409.813L48.9697 409.809L56.8594 393.398L56.8584 393.397C57.6162 391.824 57.8555 390.054 57.5449 388.341L57.4746 387.995L57.3896 387.652C56.9289 385.953 55.9361 384.442 54.5518 383.344L54.5449 383.338L54.5391 383.333L53.9473 382.859C47.8755 377.928 43.0197 371.862 39.3623 364.582L39.3613 364.58L38.9512 363.749C34.7917 355.14 32.998 346.059 33.5576 336.383C34.4207 321.504 40.1683 309.097 50.9717 298.801C52.0258 297.797 52.8239 296.556 53.2988 295.181C53.7738 293.805 53.9114 292.335 53.7012 290.896L53.6982 290.873L53.6953 290.852L53.5312 289.752C51.8796 278.368 51.3199 266.101 51.8828 252.932C51.9599 251.194 51.4945 249.479 50.5557 248.021L50.3613 247.733L50.1553 247.454C49.0989 246.079 47.6402 245.064 45.9785 244.552L45.9707 244.549L45.9629 244.547L41.3828 243.146L41.3447 243.135L41.3076 243.124L41.0049 243.041C39.5883 242.681 38.1021 242.698 36.6943 243.09L36.3945 243.18C34.799 243.689 33.3922 244.664 32.3564 245.98L32.3545 245.983C29.9252 249.073 28.4937 250.837 26.9199 252.065C25.6724 253.039 24.2506 253.725 21.7627 253.884C15.0241 254.311 11.0332 251.441 9.09766 247.867C7.02897 244.047 6.74702 238.331 9.96777 232.452L9.9668 232.451C13.4705 226.058 18.9759 221.71 27.1426 219.439C29.0769 218.906 31.5501 218.458 34.9404 217.722C37.9577 217.066 41.6569 216.184 44.7373 214.857L44.749 214.852C46.9261 213.909 50.0933 212.319 52.9902 210.249C55.4985 208.457 59.4974 205.146 60.7861 200.325L60.7852 200.324C64.4881 186.516 68.5476 174.143 72.9492 163.185L72.9541 163.174L72.958 163.164C73.3409 162.203 73.5335 161.177 73.5264 160.145L73.5107 159.702L73.4707 159.261C73.367 158.383 73.119 157.527 72.7354 156.729L72.5322 156.336L72.3086 155.954C71.7614 155.079 71.049 154.316 70.2109 153.71C69.2688 153.028 68.1898 152.562 67.0498 152.34L67.0508 152.339C67.0375 152.336 67.024 152.334 67.0107 152.331C67.0039 152.33 66.9971 152.328 66.9902 152.327H66.9893C65.0817 151.959 63.2728 151.833 61.8398 151.74C60.2877 151.64 59.1068 151.574 57.834 151.394L57.8232 151.392L56.9287 151.26C38.4733 148.422 21.9232 138.217 13.959 122.154L13.5801 121.372C7.46855 108.451 5.96699 95.0951 9.06348 81.0371C15.2377 53.0968 38.339 38.5154 67.2002 34.5898C69.3999 34.2938 71.4572 33.3567 73.123 31.9053L73.124 31.9062C75.0906 30.1945 77.0146 28.2928 78.625 26.7334C80.3367 25.0759 81.7244 23.7726 82.9824 22.7969L82.9834 22.7979Z" fill="black" stroke="black" stroke-width="15"/>
      <path d="M159.829 219.203C149.595 239.857 141.219 247.401 119.658 245.342C114.99 244.896 112.656 244.673 110.943 245.306C109.229 245.939 107.293 247.944 103.423 251.952C100.156 255.336 96.7511 256.521 90.0307 255.221C89.1577 255.052 88.7212 254.968 88.0828 254.726C87.4445 254.485 87.0701 254.265 86.3213 253.825C80.5563 250.436 79.0314 247.25 79.174 240.443C79.3301 232.993 85.5453 223.72 91.8034 221.5C100.701 218.342 106.729 216.333 115.914 213.176C125.099 210.019 128.256 204.852 128.256 195.667" stroke="black" stroke-width="13" stroke-linecap="round"/>
   </g>
  </g>
  <g id="Black-S">
   <g transform="translate(1349.323, 700.000) scale(1.80587)">
      <path d="M82.9834 22.7979C117.311 -3.7928 169.878 4.87431 189.791 43.8701V43.8711C196.591 57.1792 200.499 71.609 201.484 87.2373V87.2383C201.864 93.2827 202.083 96.7672 202.137 97.6074C202.25 100.534 202.151 103.219 201.998 106.087C201.848 108.902 201.633 112.07 201.591 115.476V115.478C201.567 117.409 201.431 119.81 201.163 122.711C199.448 141.07 198.921 157.275 199.63 171.276L199.702 172.625C201.307 200.802 209.569 227.013 224.445 251.153C234.27 267.097 245.898 277.922 263.069 284.95H263.07C278.986 291.462 295.883 292.735 313.532 288.941L313.533 288.942C317.776 288.033 322.461 290.399 324.24 294.495C325.57 297.572 325.58 299.933 324.893 301.975C322.822 308.122 319.571 314.507 315.033 321.13L315.032 321.131C298.016 345.977 272.413 362.175 242.97 370.192L242.961 370.194C241.557 370.578 240.248 371.248 239.115 372.162L238.892 372.349C237.709 373.358 236.764 374.616 236.124 376.034C232.764 383.48 225.356 399.778 213.895 424.94C212.247 428.557 210.227 430.84 208.014 432.263C205.8 433.686 202.882 434.579 198.9 434.579C179.97 434.579 161.386 434.569 143.148 434.549H143.14C142.892 434.549 142.014 434.426 140.794 433.919C139.603 433.424 138.743 432.834 138.355 432.459L138.354 432.458L138.052 432.151C136.61 430.617 136.192 429.034 136.317 427.356C136.469 425.332 137.484 422.824 139.505 420.396L139.513 420.387C141.222 418.326 143.728 416.43 147.342 414.853L147.341 414.851C149.486 413.917 151.237 412.245 152.259 410.119L158.669 396.789L158.691 396.743L158.713 396.696C159.183 395.684 159.441 394.584 159.471 393.466C159.496 392.489 159.347 391.515 159.029 390.593L158.883 390.2L158.717 389.816C158.365 389.057 157.899 388.356 157.335 387.738L157.045 387.437L156.74 387.149C156.013 386.5 155.174 385.985 154.262 385.63L154.241 385.622L154.22 385.614L153.965 385.511C152.584 384.929 149.592 383.323 144.596 380.275L144.594 380.274L144.169 380.025C142.03 378.814 139.649 378.152 137.129 378.139H137.084C135.5 378.14 133.95 378.56 132.588 379.349L132.318 379.512C130.893 380.405 129.751 381.678 129.015 383.181L129.004 383.202L128.993 383.225C128.918 383.38 127.428 386.714 124.544 393.175L111.73 421.894C108.778 428.513 106.319 431.841 101.668 433.73L101.658 433.733C101.651 433.736 101.58 433.764 101.431 433.806C101.267 433.852 101.038 433.908 100.733 433.969C100.117 434.091 99.2897 434.212 98.2197 434.316C96.0715 434.525 93.2168 434.637 89.5928 434.628C65.5664 434.548 50.3971 434.541 44.1592 434.608C37.8529 434.674 35.3594 433.486 34.0674 431.58L34.0645 431.575L33.8916 431.312C32.1649 428.59 32.2958 425.825 33.9521 422.848C35.8249 419.481 39.4409 416.479 43.1816 415.09L43.1934 415.085L43.2051 415.081C45.7359 414.131 47.797 412.242 48.9668 409.813L48.9697 409.809L56.8594 393.398L56.8584 393.397C57.6162 391.824 57.8555 390.054 57.5449 388.341L57.4746 387.995L57.3896 387.652C56.9289 385.953 55.9361 384.442 54.5518 383.344L54.5449 383.338L54.5391 383.333L53.9473 382.859C47.8755 377.928 43.0197 371.862 39.3623 364.582L39.3613 364.58L38.9512 363.749C34.7917 355.14 32.998 346.059 33.5576 336.383C34.4207 321.504 40.1683 309.097 50.9717 298.801C52.0258 297.797 52.8239 296.556 53.2988 295.181C53.7738 293.805 53.9114 292.335 53.7012 290.896L53.6982 290.873L53.6953 290.852L53.5312 289.752C51.8796 278.368 51.3199 266.101 51.8828 252.932C51.9599 251.194 51.4945 249.479 50.5557 248.021L50.3613 247.733L50.1553 247.454C49.0989 246.079 47.6402 245.064 45.9785 244.552L45.9707 244.549L45.9629 244.547L41.3828 243.146L41.3447 243.135L41.3076 243.124L41.0049 243.041C39.5883 242.681 38.1021 242.698 36.6943 243.09L36.3945 243.18C34.799 243.689 33.3922 244.664 32.3564 245.98L32.3545 245.983C29.9252 249.073 28.4937 250.837 26.9199 252.065C25.6724 253.039 24.2506 253.725 21.7627 253.884C15.0241 254.311 11.0332 251.441 9.09766 247.867C7.02897 244.047 6.74702 238.331 9.96777 232.452L9.9668 232.451C13.4705 226.058 18.9759 221.71 27.1426 219.439C29.0769 218.906 31.5501 218.458 34.9404 217.722C37.9577 217.066 41.6569 216.184 44.7373 214.857L44.749 214.852C46.9261 213.909 50.0933 212.319 52.9902 210.249C55.4985 208.457 59.4974 205.146 60.7861 200.325L60.7852 200.324C64.4881 186.516 68.5476 174.143 72.9492 163.185L72.9541 163.174L72.958 163.164C73.3409 162.203 73.5335 161.177 73.5264 160.145L73.5107 159.702L73.4707 159.261C73.367 158.383 73.119 157.527 72.7354 156.729L72.5322 156.336L72.3086 155.954C71.7614 155.079 71.049 154.316 70.2109 153.71C69.2688 153.028 68.1898 152.562 67.0498 152.34L67.0508 152.339C67.0375 152.336 67.024 152.334 67.0107 152.331C67.0039 152.33 66.9971 152.328 66.9902 152.327H66.9893C65.0817 151.959 63.2728 151.833 61.8398 151.74C60.2877 151.64 59.1068 151.574 57.834 151.394L57.8232 151.392L56.9287 151.26C38.4733 148.422 21.9232 138.217 13.959 122.154L13.5801 121.372C7.46855 108.451 5.96699 95.0951 9.06348 81.0371C15.2377 53.0968 38.339 38.5154 67.2002 34.5898C69.3999 34.2938 71.4572 33.3567 73.123 31.9053L73.124 31.9062C75.0906 30.1945 77.0146 28.2928 78.625 26.7334C80.3367 25.0759 81.7244 23.7726 82.9824 22.7969L82.9834 22.7979Z" fill="black" stroke="black" stroke-width="15"/>
      <path d="M159.829 219.203C149.595 239.857 141.219 247.401 119.658 245.342C114.99 244.896 112.656 244.673 110.943 245.306C109.229 245.939 107.293 247.944 103.423 251.952C100.156 255.336 96.7511 256.521 90.0307 255.221C89.1577 255.052 88.7212 254.968 88.0828 254.726C87.4445 254.485 87.0701 254.265 86.3213 253.825C80.5563 250.436 79.0314 247.25 79.174 240.443C79.3301 232.993 85.5453 223.72 91.8034 221.5C100.701 218.342 106.729 216.333 115.914 213.176C125.099 210.019 128.256 204.852 128.256 195.667" stroke="black" stroke-width="13" stroke-linecap="round"/>
   </g>
  </g>
  <g id="Black-M">
   <g transform="translate(1349.323, 700.000) scale(1.80587)">
      <path d="M82.9834 22.7979C117.311 -3.7928 169.878 4.87431 189.791 43.8701V43.8711C196.591 57.1792 200.499 71.609 201.484 87.2373V87.2383C201.864 93.2827 202.083 96.7672 202.137 97.6074C202.25 100.534 202.151 103.219 201.998 106.087C201.848 108.902 201.633 112.07 201.591 115.476V115.478C201.567 117.409 201.431 119.81 201.163 122.711C199.448 141.07 198.921 157.275 199.63 171.276L199.702 172.625C201.307 200.802 209.569 227.013 224.445 251.153C234.27 267.097 245.898 277.922 263.069 284.95H263.07C278.986 291.462 295.883 292.735 313.532 288.941L313.533 288.942C317.776 288.033 322.461 290.399 324.24 294.495C325.57 297.572 325.58 299.933 324.893 301.975C322.822 308.122 319.571 314.507 315.033 321.13L315.032 321.131C298.016 345.977 272.413 362.175 242.97 370.192L242.961 370.194C241.557 370.578 240.248 371.248 239.115 372.162L238.892 372.349C237.709 373.358 236.764 374.616 236.124 376.034C232.764 383.48 225.356 399.778 213.895 424.94C212.247 428.557 210.227 430.84 208.014 432.263C205.8 433.686 202.882 434.579 198.9 434.579C179.97 434.579 161.386 434.569 143.148 434.549H143.14C142.892 434.549 142.014 434.426 140.794 433.919C139.603 433.424 138.743 432.834 138.355 432.459L138.354 432.458L138.052 432.151C136.61 430.617 136.192 429.034 136.317 427.356C136.469 425.332 137.484 422.824 139.505 420.396L139.513 420.387C141.222 418.326 143.728 416.43 147.342 414.853L147.341 414.851C149.486 413.917 151.237 412.245 152.259 410.119L158.669 396.789L158.691 396.743L158.713 396.696C159.183 395.684 159.441 394.584 159.471 393.466C159.496 392.489 159.347 391.515 159.029 390.593L158.883 390.2L158.717 389.816C158.365 389.057 157.899 388.356 157.335 387.738L157.045 387.437L156.74 387.149C156.013 386.5 155.174 385.985 154.262 385.63L154.241 385.622L154.22 385.614L153.965 385.511C152.584 384.929 149.592 383.323 144.596 380.275L144.594 380.274L144.169 380.025C142.03 378.814 139.649 378.152 137.129 378.139H137.084C135.5 378.14 133.95 378.56 132.588 379.349L132.318 379.512C130.893 380.405 129.751 381.678 129.015 383.181L129.004 383.202L128.993 383.225C128.918 383.38 127.428 386.714 124.544 393.175L111.73 421.894C108.778 428.513 106.319 431.841 101.668 433.73L101.658 433.733C101.651 433.736 101.58 433.764 101.431 433.806C101.267 433.852 101.038 433.908 100.733 433.969C100.117 434.091 99.2897 434.212 98.2197 434.316C96.0715 434.525 93.2168 434.637 89.5928 434.628C65.5664 434.548 50.3971 434.541 44.1592 434.608C37.8529 434.674 35.3594 433.486 34.0674 431.58L34.0645 431.575L33.8916 431.312C32.1649 428.59 32.2958 425.825 33.9521 422.848C35.8249 419.481 39.4409 416.479 43.1816 415.09L43.1934 415.085L43.2051 415.081C45.7359 414.131 47.797 412.242 48.9668 409.813L48.9697 409.809L56.8594 393.398L56.8584 393.397C57.6162 391.824 57.8555 390.054 57.5449 388.341L57.4746 387.995L57.3896 387.652C56.9289 385.953 55.9361 384.442 54.5518 383.344L54.5449 383.338L54.5391 383.333L53.9473 382.859C47.8755 377.928 43.0197 371.862 39.3623 364.582L39.3613 364.58L38.9512 363.749C34.7917 355.14 32.998 346.059 33.5576 336.383C34.4207 321.504 40.1683 309.097 50.9717 298.801C52.0258 297.797 52.8239 296.556 53.2988 295.181C53.7738 293.805 53.9114 292.335 53.7012 290.896L53.6982 290.873L53.6953 290.852L53.5312 289.752C51.8796 278.368 51.3199 266.101 51.8828 252.932C51.9599 251.194 51.4945 249.479 50.5557 248.021L50.3613 247.733L50.1553 247.454C49.0989 246.079 47.6402 245.064 45.9785 244.552L45.9707 244.549L45.9629 244.547L41.3828 243.146L41.3447 243.135L41.3076 243.124L41.0049 243.041C39.5883 242.681 38.1021 242.698 36.6943 243.09L36.3945 243.18C34.799 243.689 33.3922 244.664 32.3564 245.98L32.3545 245.983C29.9252 249.073 28.4937 250.837 26.9199 252.065C25.6724 253.039 24.2506 253.725 21.7627 253.884C15.0241 254.311 11.0332 251.441 9.09766 247.867C7.02897 244.047 6.74702 238.331 9.96777 232.452L9.9668 232.451C13.4705 226.058 18.9759 221.71 27.1426 219.439C29.0769 218.906 31.5501 218.458 34.9404 217.722C37.9577 217.066 41.6569 216.184 44.7373 214.857L44.749 214.852C46.9261 213.909 50.0933 212.319 52.9902 210.249C55.4985 208.457 59.4974 205.146 60.7861 200.325L60.7852 200.324C64.4881 186.516 68.5476 174.143 72.9492 163.185L72.9541 163.174L72.958 163.164C73.3409 162.203 73.5335 161.177 73.5264 160.145L73.5107 159.702L73.4707 159.261C73.367 158.383 73.119 157.527 72.7354 156.729L72.5322 156.336L72.3086 155.954C71.7614 155.079 71.049 154.316 70.2109 153.71C69.2688 153.028 68.1898 152.562 67.0498 152.34L67.0508 152.339C67.0375 152.336 67.024 152.334 67.0107 152.331C67.0039 152.33 66.9971 152.328 66.9902 152.327H66.9893C65.0817 151.959 63.2728 151.833 61.8398 151.74C60.2877 151.64 59.1068 151.574 57.834 151.394L57.8232 151.392L56.9287 151.26C38.4733 148.422 21.9232 138.217 13.959 122.154L13.5801 121.372C7.46855 108.451 5.96699 95.0951 9.06348 81.0371C15.2377 53.0968 38.339 38.5154 67.2002 34.5898C69.3999 34.2938 71.4572 33.3567 73.123 31.9053L73.124 31.9062C75.0906 30.1945 77.0146 28.2928 78.625 26.7334C80.3367 25.0759 81.7244 23.7726 82.9824 22.7969L82.9834 22.7979Z" fill="black" stroke="black" stroke-width="15"/>
      <path d="M159.829 219.203C149.595 239.857 141.219 247.401 119.658 245.342C114.99 244.896 112.656 244.673 110.943 245.306C109.229 245.939 107.293 247.944 103.423 251.952C100.156 255.336 96.7511 256.521 90.0307 255.221C89.1577 255.052 88.7212 254.968 88.0828 254.726C87.4445 254.485 87.0701 254.265 86.3213 253.825C80.5563 250.436 79.0314 247.25 79.174 240.443C79.3301 232.993 85.5453 223.72 91.8034 221.5C100.701 218.342 106.729 216.333 115.914 213.176C125.099 210.019 128.256 204.852 128.256 195.667" stroke="black" stroke-width="13" stroke-linecap="round"/>
   </g>
  </g>
  <g id="Black-L">
   <g transform="translate(1349.323, 700.000) scale(1.80587)">
      <path d="M82.9834 22.7979C117.311 -3.7928 169.878 4.87431 189.791 43.8701V43.8711C196.591 57.1792 200.499 71.609 201.484 87.2373V87.2383C201.864 93.2827 202.083 96.7672 202.137 97.6074C202.25 100.534 202.151 103.219 201.998 106.087C201.848 108.902 201.633 112.07 201.591 115.476V115.478C201.567 117.409 201.431 119.81 201.163 122.711C199.448 141.07 198.921 157.275 199.63 171.276L199.702 172.625C201.307 200.802 209.569 227.013 224.445 251.153C234.27 267.097 245.898 277.922 263.069 284.95H263.07C278.986 291.462 295.883 292.735 313.532 288.941L313.533 288.942C317.776 288.033 322.461 290.399 324.24 294.495C325.57 297.572 325.58 299.933 324.893 301.975C322.822 308.122 319.571 314.507 315.033 321.13L315.032 321.131C298.016 345.977 272.413 362.175 242.97 370.192L242.961 370.194C241.557 370.578 240.248 371.248 239.115 372.162L238.892 372.349C237.709 373.358 236.764 374.616 236.124 376.034C232.764 383.48 225.356 399.778 213.895 424.94C212.247 428.557 210.227 430.84 208.014 432.263C205.8 433.686 202.882 434.579 198.9 434.579C179.97 434.579 161.386 434.569 143.148 434.549H143.14C142.892 434.549 142.014 434.426 140.794 433.919C139.603 433.424 138.743 432.834 138.355 432.459L138.354 432.458L138.052 432.151C136.61 430.617 136.192 429.034 136.317 427.356C136.469 425.332 137.484 422.824 139.505 420.396L139.513 420.387C141.222 418.326 143.728 416.43 147.342 414.853L147.341 414.851C149.486 413.917 151.237 412.245 152.259 410.119L158.669 396.789L158.691 396.743L158.713 396.696C159.183 395.684 159.441 394.584 159.471 393.466C159.496 392.489 159.347 391.515 159.029 390.593L158.883 390.2L158.717 389.816C158.365 389.057 157.899 388.356 157.335 387.738L157.045 387.437L156.74 387.149C156.013 386.5 155.174 385.985 154.262 385.63L154.241 385.622L154.22 385.614L153.965 385.511C152.584 384.929 149.592 383.323 144.596 380.275L144.594 380.274L144.169 380.025C142.03 378.814 139.649 378.152 137.129 378.139H137.084C135.5 378.14 133.95 378.56 132.588 379.349L132.318 379.512C130.893 380.405 129.751 381.678 129.015 383.181L129.004 383.202L128.993 383.225C128.918 383.38 127.428 386.714 124.544 393.175L111.73 421.894C108.778 428.513 106.319 431.841 101.668 433.73L101.658 433.733C101.651 433.736 101.58 433.764 101.431 433.806C101.267 433.852 101.038 433.908 100.733 433.969C100.117 434.091 99.2897 434.212 98.2197 434.316C96.0715 434.525 93.2168 434.637 89.5928 434.628C65.5664 434.548 50.3971 434.541 44.1592 434.608C37.8529 434.674 35.3594 433.486 34.0674 431.58L34.0645 431.575L33.8916 431.312C32.1649 428.59 32.2958 425.825 33.9521 422.848C35.8249 419.481 39.4409 416.479 43.1816 415.09L43.1934 415.085L43.2051 415.081C45.7359 414.131 47.797 412.242 48.9668 409.813L48.9697 409.809L56.8594 393.398L56.8584 393.397C57.6162 391.824 57.8555 390.054 57.5449 388.341L57.4746 387.995L57.3896 387.652C56.9289 385.953 55.9361 384.442 54.5518 383.344L54.5449 383.338L54.5391 383.333L53.9473 382.859C47.8755 377.928 43.0197 371.862 39.3623 364.582L39.3613 364.58L38.9512 363.749C34.7917 355.14 32.998 346.059 33.5576 336.383C34.4207 321.504 40.1683 309.097 50.9717 298.801C52.0258 297.797 52.8239 296.556 53.2988 295.181C53.7738 293.805 53.9114 292.335 53.7012 290.896L53.6982 290.873L53.6953 290.852L53.5312 289.752C51.8796 278.368 51.3199 266.101 51.8828 252.932C51.9599 251.194 51.4945 249.479 50.5557 248.021L50.3613 247.733L50.1553 247.454C49.0989 246.079 47.6402 245.064 45.9785 244.552L45.9707 244.549L45.9629 244.547L41.3828 243.146L41.3447 243.135L41.3076 243.124L41.0049 243.041C39.5883 242.681 38.1021 242.698 36.6943 243.09L36.3945 243.18C34.799 243.689 33.3922 244.664 32.3564 245.98L32.3545 245.983C29.9252 249.073 28.4937 250.837 26.9199 252.065C25.6724 253.039 24.2506 253.725 21.7627 253.884C15.0241 254.311 11.0332 251.441 9.09766 247.867C7.02897 244.047 6.74702 238.331 9.96777 232.452L9.9668 232.451C13.4705 226.058 18.9759 221.71 27.1426 219.439C29.0769 218.906 31.5501 218.458 34.9404 217.722C37.9577 217.066 41.6569 216.184 44.7373 214.857L44.749 214.852C46.9261 213.909 50.0933 212.319 52.9902 210.249C55.4985 208.457 59.4974 205.146 60.7861 200.325L60.7852 200.324C64.4881 186.516 68.5476 174.143 72.9492 163.185L72.9541 163.174L72.958 163.164C73.3409 162.203 73.5335 161.177 73.5264 160.145L73.5107 159.702L73.4707 159.261C73.367 158.383 73.119 157.527 72.7354 156.729L72.5322 156.336L72.3086 155.954C71.7614 155.079 71.049 154.316 70.2109 153.71C69.2688 153.028 68.1898 152.562 67.0498 152.34L67.0508 152.339C67.0375 152.336 67.024 152.334 67.0107 152.331C67.0039 152.33 66.9971 152.328 66.9902 152.327H66.9893C65.0817 151.959 63.2728 151.833 61.8398 151.74C60.2877 151.64 59.1068 151.574 57.834 151.394L57.8232 151.392L56.9287 151.26C38.4733 148.422 21.9232 138.217 13.959 122.154L13.5801 121.372C7.46855 108.451 5.96699 95.0951 9.06348 81.0371C15.2377 53.0968 38.339 38.5154 67.2002 34.5898C69.3999 34.2938 71.4572 33.3567 73.123 31.9053L73.124 31.9062C75.0906 30.1945 77.0146 28.2928 78.625 26.7334C80.3367 25.0759 81.7244 23.7726 82.9824 22.7969L82.9834 22.7979Z" fill="black" stroke="black" stroke-width="15"/>
      <path d="M159.829 219.203C149.595 239.857 141.219 247.401 119.658 245.342C114.99 244.896 112.656 244.673 110.943 245.306C109.229 245.939 107.293 247.944 103.423 251.952C100.156 255.336 96.7511 256.521 90.0307 255.221C89.1577 255.052 88.7212 254.968 88.0828 254.726C87.4445 254.485 87.0701 254.265 86.3213 253.825C80.5563 250.436 79.0314 247.25 79.174 240.443C79.3301 232.993 85.5453 223.72 91.8034 221.5C100.701 218.342 106.729 216.333 115.914 213.176C125.099 210.019 128.256 204.852 128.256 195.667" stroke="black" stroke-width="13" stroke-linecap="round"/>
   </g>
  </g>
 </g>
</svg>
