<?xml version="1.0" encoding="UTF-8"?>
<svg width="112px" height="234px" viewBox="0 0 112 234" version="1.1" xmlns="http://www.w3.org/2000/svg" xmlns:xlink="http://www.w3.org/1999/xlink">
    <title>Shoulders</title>
    <g id="Page-1" stroke="none" stroke-width="1" fill="none" fill-rule="evenodd">
        <g id="Artboard" transform="translate(-143.000000, -24.000000)">
            <g id="Shoulders" transform="translate(143.000000, 24.000000)">
                <path d="M93.6946662,62.5123927 C94.1236662,63.7313927 90.8456662,59.9743927 86.0286662,57.6253927 C84.9236662,57.0853927 83.7206662,56.6143927 82.4326662,56.2813927 C75.7296662,54.5513927 70.6486662,50.4553927 76.4656662,46.0313927 C79.8166662,43.4813927 82.7956662,42.6943927 84.2976662,43.1013927 C90.5046662,44.7903927 91.7466662,49.5153927 92.0596662,53.2943927 C92.3586662,56.9153927 92.9196662,60.3093927 93.6946662,62.5123927" id="Fill-450" fill="#E2E8F0"></path>
                <path d="M20.0376662,62.5123927 C19.6086662,63.7313927 22.8866662,59.9743927 27.7036662,57.6253927 C28.8076662,57.0853927 30.0116662,56.6143927 31.2996662,56.2813927 C38.0016662,54.5513927 43.0826662,50.4553927 37.2666662,46.0313927 C33.9146662,43.4813927 30.9356662,42.6943927 29.4346662,43.1013927 C23.2266662,44.7903927 21.9846662,49.5153927 21.6726662,53.2943927 C21.3736662,56.9153927 20.8116662,60.3093927 20.0376662,62.5123927" id="Fill-463" fill="#E2E8F0"></path>
                <rect id="Rectangle" x="0.270844087" y="0.504567846" width="111" height="233"></rect>
            </g>
        </g>
    </g>
</svg>