<?xml version="1.0" encoding="UTF-8"?>
<svg width="112px" height="234px" viewBox="0 0 112 234" version="1.1" xmlns="http://www.w3.org/2000/svg" xmlns:xlink="http://www.w3.org/1999/xlink">
    <title>Hamstrings</title>
    <g id="Page-1" stroke="none" stroke-width="1" fill="none" fill-rule="evenodd">
        <g id="Artboard" transform="translate(-144.000000, -25.000000)">
            <g id="Hamstrings" transform="translate(144.000000, 25.000000)">
                <path d="M26,166.667986 C27.625,148.730986 32.213,142.013986 34.982,135.487986 C38.615,126.928986 39.997,126.542986 41.859,127.223986 C43.654,127.882986 46.203,128.310986 49.163,128.310986 C54.225,128.310986 51.864,140.965986 50.646,145.452986 C48.544,153.188986 43.624,161.450986 43.624,169.470986 C41.286,158.203986 37.943,163.470986 38.707,152.625986 C34.314,162.070986 31.767,157.550986 26,166.667986" id="Fill-473" fill="#E2E8F0"></path>
                <path d="M86.156,166.667986 C84.532,148.730986 79.944,142.013986 77.174,135.487986 C73.542,126.928986 72.16,126.542986 70.298,127.223986 C68.502,127.882986 65.954,128.310986 62.993,128.310986 C57.931,128.310986 60.292,140.965986 61.511,145.452986 C63.612,153.188986 68.533,161.450986 68.533,169.470986 C70.871,158.203986 74.213,163.470986 73.449,152.625986 C77.842,162.070986 80.39,157.550986 86.156,166.667986" id="Fill-460" fill="#E2E8F0"></path>
                <rect id="Rectangle" x="0.319147245" y="0.911510485" width="111" height="233"></rect>
            </g>
        </g>
    </g>
</svg>