<?xml version="1.0" encoding="UTF-8"?>
<svg width="112px" height="234px" viewBox="0 0 112 234" version="1.1" xmlns="http://www.w3.org/2000/svg" xmlns:xlink="http://www.w3.org/1999/xlink">
    <title>Glutes</title>
    <g id="Page-1" stroke="none" stroke-width="1" fill="none" fill-rule="evenodd">
        <g id="Artboard" transform="translate(-143.000000, -24.000000)">
            <g id="Glutes" transform="translate(143.000000, 24.000000)">
                <path d="M59.7202557,105.815207 C56.3782557,108.557207 57.1492557,111.836207 57.1562557,116.456207 C57.1702557,124.847207 57.8352557,126.240207 61.3352557,127.984207 C65.2182557,129.919207 73.8072557,128.136207 75.8722557,124.182207 C78.6572557,118.848207 77.4352557,108.733207 75.2792557,106.577207 C68.8392557,100.136207 61.6042557,104.268207 59.7202557,105.815207" id="Fill-454" fill="#E2E8F0"></path>
                <path d="M75.4502557,103.027207 C76.3512557,103.927207 76.0742557,106.576207 75.7242557,106.227207 C74.9542557,105.455207 74.4502557,104.077207 70.5182557,102.636207 C67.7932557,101.637207 65.0422557,102.597207 63.6532557,103.019207 C63.5062557,103.064207 70.8732557,98.4482066 75.4502557,103.027207" id="Fill-456" fill="#E2E8F0"></path>
                <path d="M53.7692557,105.815207 C57.1102557,108.557207 56.3392557,111.836207 56.3322557,116.456207 C56.3192557,124.847207 55.6532557,126.240207 52.1532557,127.984207 C48.2702557,129.919207 39.6822557,128.136207 37.6162557,124.182207 C34.8322557,118.848207 36.0532557,108.733207 38.2092557,106.577207 C44.6492557,100.136207 51.8842557,104.268207 53.7692557,105.815207" id="Fill-467" fill="#E2E8F0"></path>
                <path d="M38.0392557,103.027207 C37.1382557,103.927207 37.4152557,106.576207 37.7642557,106.227207 C38.5352557,105.455207 39.0392557,104.077207 42.9712557,102.636207 C45.6962557,101.637207 48.4462557,102.597207 49.8352557,103.019207 C49.9822557,103.064207 42.6162557,98.4482066 38.0392557,103.027207" id="Fill-469" fill="#E2E8F0"></path>
                <rect id="Rectangle" x="0.337177865" y="0.888175142" width="111" height="233"></rect>
            </g>
        </g>
    </g>
</svg>