<?xml version="1.0" encoding="UTF-8"?>
<svg width="112px" height="234px" viewBox="0 0 112 234" version="1.1" xmlns="http://www.w3.org/2000/svg" xmlns:xlink="http://www.w3.org/1999/xlink">
    <title>Triceps</title>
    <g id="Page-1" stroke="none" stroke-width="1" fill="none" fill-rule="evenodd">
        <g id="Artboard" transform="translate(-142.000000, -24.000000)">
            <g id="Triceps" transform="translate(142.000000, 24.000000)">
                <path d="M94.867,64.100458 C95.74,65.184458 97.201,72.818458 96.539,79.383458 C96.316,81.600458 99.045,88.354458 99.045,88.354458 C99.045,88.354458 97.98,90.026458 96.799,87.065458 C95.841,84.665458 95.247,80.690458 93.635,81.287458 C91.056,82.240458 95.636,89.390458 94.194,90.832458 C93.535,91.491458 86.434,87.496458 85.907,85.676458 C84.059,81.919458 81.888,79.917458 81.697,76.145458 C84.944,69.412458 86.759,60.131458 85.983,58.044458 C85.767,57.464458 93.762,62.726458 94.867,64.100458" id="Fill-457" fill="#E2E8F0"></path>
                <path d="M21.176,64.100458 C20.305,65.184458 18.844,72.818458 19.506,79.383458 C19.729,81.600458 17,88.354458 17,88.354458 C17,88.354458 18.064,90.026458 19.245,87.065458 C20.203,84.665458 20.797,80.690458 22.409,81.287458 C24.988,82.240458 20.408,89.390458 21.851,90.832458 C22.51,91.491458 29.611,87.496458 30.137,85.676458 C31.986,81.919458 34.157,79.917458 34.348,76.145458 C31.1,69.412458 29.286,60.131458 30.062,58.044458 C30.278,57.464458 22.282,62.726458 21.176,64.100458" id="Fill-470" fill="#E2E8F0"></path>
                <rect id="Rectangle" x="0.524922195" y="0.608968519" width="111" height="233"></rect>
            </g>
        </g>
    </g>
</svg>