<?xml version="1.0" encoding="UTF-8"?>
<svg width="112px" height="234px" viewBox="0 0 112 234" version="1.1" xmlns="http://www.w3.org/2000/svg" xmlns:xlink="http://www.w3.org/1999/xlink">
    <title>Back</title>
    <g id="Page-1" stroke="none" stroke-width="1" fill="none" fill-rule="evenodd">
        <g id="Artboard" transform="translate(-143.000000, -24.000000)">
            <g id="Back" transform="translate(143.000000, 24.000000)">
                <path d="M65.9680522,37.1373091 C68.8320522,39.1953091 72.9700522,38.4693091 80.9080522,42.4123091 C81.2320522,42.5753091 79.1140522,42.4813091 75.8350522,44.9633091 C73.6450522,46.6223091 72.0270522,49.4113091 71.4740522,51.6993091 C70.2560522,56.7353091 73.2730522,62.5193091 58.1810522,76.6723091 C57.4940522,77.3173091 57.2850522,58.2523091 57.2850522,54.4733091 C57.2850522,44.5813091 61.7200522,44.9003091 61.7200522,42.0713091 C61.7200522,39.4243091 58.1350522,34.2033091 58.1350522,28.7913091 C58.1350522,27.9443091 61.0710522,27.6223091 61.4190522,28.6103091 C62.7860522,32.4903091 63.8330522,35.6043091 65.9680522,37.1373091" id="Fill-449" fill="#E2E8F0"></path>
                <path d="M73.0610522,52.1823091 C74.3150522,54.9673091 79.9490522,56.6003091 81.0240522,57.0923091 C78.4690522,58.1203091 71.7640522,62.4473091 70.2560522,63.6883091 C73.0740522,57.9743091 72.0380522,49.9123091 73.0610522,52.1823091" id="Fill-451" fill="#E2E8F0"></path>
                <path d="M82.7930522,64.4753091 C79.8070522,67.8143091 69.0880522,66.4473091 70.0650522,65.4703091 C71.0420522,64.4923091 81.1440522,58.0483091 83.1350522,57.8473091 C83.4480522,57.8163091 83.5260522,63.6563091 82.7930522,64.4753091" id="Fill-452" fill="#E2E8F0"></path>
                <path d="M58.7539993,77.7363091 C58.7300522,84.4563091 66.8800522,98.0883091 68.2910522,97.7783091 C69.0220522,97.6183091 70.0560522,95.8413091 70.6530522,94.7553091 C74.7920522,87.2263091 76.3330522,88.6353091 76.8570522,85.3813091 C78.2300522,76.8393091 80.4510522,74.2123091 82.8590522,65.8483091 C82.8590522,65.8483091 78.1820522,69.3763091 69.3010522,67.0833091 C68.0780522,66.7683091 66.8480522,69.7863091 63.7820522,72.8523091 C60.5980522,76.0373091 58.7539993,77.7363091 58.7539993,77.7363091" id="Fill-453" fill="#E2E8F0"></path>
                <path d="M76.6220522,88.7673091 C76.1770522,92.3603091 75.9710522,94.4213091 75.7710522,100.423309 C75.7100522,102.242309 73.0570522,99.3253091 69.9840522,98.8303091 C69.4030522,98.7373091 74.2910522,90.2103091 76.6220522,88.7673091" id="Fill-455" fill="#E2E8F0"></path>
                <path d="M47.3940522,37.1373091 C44.5300522,39.1953091 40.3930522,38.4693091 32.4550522,42.4123091 C32.1290522,42.5753091 34.2480522,42.4813091 37.5270522,44.9633091 C39.7170522,46.6223091 41.3360522,49.4113091 41.8890522,51.6993091 C43.1060522,56.7353091 40.0890522,62.5193091 55.1820522,76.6723091 C55.8690522,77.3173091 56.0780522,58.2523091 56.0780522,54.4733091 C56.0780522,44.5813091 51.6430522,44.9003091 51.6430522,42.0713091 C51.6430522,39.4243091 55.2280522,34.2033091 55.2280522,28.7913091 C55.2280522,27.9443091 52.2910522,27.6223091 51.9430522,28.6103091 C50.5770522,32.4903091 49.5290522,35.6043091 47.3940522,37.1373091" id="Fill-462" fill="#E2E8F0"></path>
                <path d="M40.3020522,52.1823091 C39.0470522,54.9673091 33.4130522,56.6003091 32.3380522,57.0923091 C34.8930522,58.1203091 41.5990522,62.4473091 43.1060522,63.6883091 C40.2890522,57.9743091 41.3240522,49.9123091 40.3020522,52.1823091" id="Fill-464" fill="#E2E8F0"></path>
                <path d="M30.5690522,64.4753091 C33.5560522,67.8143091 44.2750522,66.4473091 43.2980522,65.4703091 C42.3210522,64.4923091 32.2190522,58.0483091 30.2280522,57.8473091 C29.9150522,57.8163091 29.8360522,63.6563091 30.5690522,64.4753091" id="Fill-465" fill="#E2E8F0"></path>
                <path d="M54.6090522,77.7363091 C54.6080522,84.4093091 46.4820522,98.0883091 45.0710522,97.7783091 C44.3400522,97.6183091 43.3060522,95.8413091 42.7090522,94.7553091 C38.5700522,87.2263091 37.0290522,88.6353091 36.5060522,85.3813091 C35.1320522,76.8393091 32.9110522,74.2123091 30.5030522,65.8483091 C30.5030522,65.8483091 35.1800522,69.3763091 44.0620522,67.0833091 C45.2850522,66.7683091 46.5150522,69.7863091 49.5800522,72.8523091 C52.7650522,76.0373091 54.6090522,77.7363091 54.6090522,77.7363091" id="Fill-466" fill="#E2E8F0"></path>
                <path d="M36.7400522,88.7673091 C37.1860522,92.3603091 37.3920522,94.4213091 37.5910522,100.423309 C37.6520522,102.242309 40.3060522,99.3253091 43.3790522,98.8303091 C43.9590522,98.7373091 39.0710522,90.2103091 36.7400522,88.7673091" id="Fill-468" fill="#E2E8F0"></path>
                <path d="M55.6370522,78.5203091 C55.6370522,78.5203091 54.9130522,87.4613091 46.7120522,98.0963091 C45.0190522,100.292309 54.5430522,103.387309 54.8610522,102.859309 C55.0160522,102.601309 55.2550522,97.3553091 55.3620522,91.8543091 C55.4730522,86.0793091 56.0730522,79.3893091 55.6370522,78.5203091" id="Fill-475" fill="#E2E8F0"></path>
                <path d="M57.7260522,78.5203091 C57.7260522,78.5203091 58.4500522,87.4613091 66.6500522,98.0963091 C68.3440522,100.292309 58.8190522,103.387309 58.5020522,102.859309 C58.3470522,102.601309 58.1070522,97.3553091 58.0010522,91.8543091 C57.8900522,86.0793091 57.2910522,79.3893091 57.7260522,78.5203091" id="Fill-476" fill="#E2E8F0"></path>
                <rect id="Rectangle" x="0.019896299" y="0.0728769238" width="111" height="233"></rect>
            </g>
        </g>
    </g>
</svg>