<?xml version="1.0" encoding="UTF-8"?>
<svg width="112px" height="234px" viewBox="0 0 112 234" version="1.1" xmlns="http://www.w3.org/2000/svg" xmlns:xlink="http://www.w3.org/1999/xlink">
    <title>Forearms</title>
    <g id="Page-1" stroke="none" stroke-width="1" fill="none" fill-rule="evenodd">
        <g id="Artboard" transform="translate(-143.000000, -25.000000)">
            <g id="Forearms" transform="translate(143.000000, 25.000000)">
                <path d="M98.3597749,89 C94.5077749,91.421 98.0947749,94.983 102.264775,110.423 C101.456775,105.818 101.858775,103.882 101.232775,100.01 C100.338775,94.486 98.9407749,91.17 98.3597749,89" id="Fill-458" fill="#E2E8F0"></path>
                <path d="M93.1847749,91.973 C94.3317749,91.293 95.3667749,90.769 100.839775,108.553 C101.539775,110.827 102.344775,112.224 102.916775,114.939 C103.143775,116.018 103.226775,118.494 102.730775,121.052 C102.674775,121.343 102.873775,115.085 101.625775,114.984 C100.991775,114.932 101.472775,118.365 100.789775,121.351 C100.709775,118.215 100.645775,115.08 99.8577749,115.072 C99.3207749,115.066 99.2717749,118.773 98.5877749,121.114 C98.5877749,121.114 98.8837749,115.159 97.9667749,115.15 C97.3257749,115.143 97.5397749,117.705 96.6297749,120.354 C96.9727749,117.079 96.4967749,114.28 96.4557749,113.609 C96.3597749,112.033 95.9917749,110.411 95.4407749,109.169 C94.1617749,106.284 93.0067749,104.811 91.6617749,100.918 C89.5737749,94.875 92.5697749,92.339 93.1847749,91.973" id="Fill-459" fill="#E2E8F0"></path>
                <path d="M15.7357749,89 C19.5887749,91.421 16.0017749,94.983 11.8317749,110.423 C12.6387749,105.818 12.2367749,103.882 12.8637749,100.01 C13.7577749,94.486 15.1557749,91.17 15.7357749,89" id="Fill-471" fill="#E2E8F0"></path>
                <path d="M20.9107749,91.973 C19.7637749,91.293 18.7297749,90.769 13.2557749,108.553 C12.5557749,110.827 11.7507749,112.224 11.1787749,114.939 C10.9527749,116.018 10.8697749,118.494 11.3647749,121.052 C11.4207749,121.343 11.2217749,115.085 12.4697749,114.984 C13.1047749,114.932 12.6237749,118.365 13.3057749,121.351 C13.3867749,118.215 13.4497749,115.08 14.2377749,115.072 C14.7757749,115.066 14.8237749,118.773 15.5087749,121.114 C15.5087749,121.114 15.2127749,115.159 16.1297749,115.15 C16.7697749,115.143 16.5567749,117.705 17.4667749,120.354 C17.1227749,117.079 17.5987749,114.28 17.6397749,113.609 C17.7357749,112.033 18.1037749,110.411 18.6547749,109.169 C19.9347749,106.284 21.0897749,104.811 22.4347749,100.918 C24.5217749,94.875 21.5267749,92.339 20.9107749,91.973" id="Fill-472" fill="#E2E8F0"></path>
                <rect id="Rectangle" x="0.434922195" y="0.201510485" width="111" height="233"></rect>
            </g>
        </g>
    </g>
</svg>