<?xml version="1.0" encoding="UTF-8"?>
<svg width="112px" height="234px" viewBox="0 0 112 234" version="1.1" xmlns="http://www.w3.org/2000/svg" xmlns:xlink="http://www.w3.org/1999/xlink">
    <title>Calves</title>
    <g id="Page-1" stroke="none" stroke-width="1" fill="none" fill-rule="evenodd">
        <g id="Artboard" transform="translate(-145.000000, -26.000000)">
            <g id="Calves" transform="translate(145.000000, 26.000000)">
                <path d="M67.3921472,171.386525 C67.5501472,169.093525 68.7271472,166.419525 71.9541472,166.022525 C74.9691472,165.653525 76.4921472,170.109525 76.4921472,170.109525 C76.4921472,170.109525 76.5041472,165.262525 80.5761472,165.011525 C84.1701472,164.790525 84.2251472,167.778525 85.0761472,171.341525 C86.6841472,178.084525 86.1111472,181.780525 86.1111472,193.331525 C86.1111472,198.661525 85.5671472,200.133525 84.4561472,200.133525 C81.1451472,200.133525 78.8531472,191.641525 78.8531472,191.641525 C78.8531472,191.641525 77.2711472,201.834525 74.9691472,200.708525 C73.8791472,200.175525 72.0921472,191.607525 70.5611472,186.674525 C68.6791472,180.613525 67.0841472,175.846525 67.3921472,171.386525" id="Fill-461" fill="#E2E8F0"></path>
                <path d="M41.8191472,171.386525 C41.6601472,169.093525 40.4841472,166.419525 37.2561472,166.022525 C34.2411472,165.653525 32.7181472,170.109525 32.7181472,170.109525 C32.7181472,170.109525 32.7061472,165.262525 28.6341472,165.011525 C25.0411472,164.790525 24.9861472,167.778525 24.1351472,171.341525 C22.5261472,178.084525 23.0991472,181.780525 23.0991472,193.331525 C23.0991472,198.661525 23.6441472,200.133525 24.7551472,200.133525 C28.0661472,200.133525 30.3581472,191.641525 30.3581472,191.641525 C30.3581472,191.641525 31.9401472,201.834525 34.2411472,200.708525 C35.3321472,200.175525 37.1181472,191.607525 38.6501472,186.674525 C40.5311472,180.613525 42.1261472,175.846525 41.8191472,171.386525" id="Fill-474" fill="#E2E8F0"></path>
                <rect id="Rectangle" x="0.173147245" y="0.282524897" width="111" height="233"></rect>
            </g>
        </g>
    </g>
</svg>