<?xml version="1.0" encoding="UTF-8" standalone="no"?>
<svg version="1.1" xmlns="http://www.w3.org/2000/svg">
  <defs>
    <g id="back">
      <path d="M35.9680522,9.13730908 C38.8320522,11.1953091 42.9700522,10.4693091 50.9080522,14.4123091 C51.2320522,14.5753091 49.1140522,14.4813091 45.8350522,16.9633091 C43.6450522,18.6223091 42.0270522,21.4113091 41.4740522,23.6993091 C40.2560522,28.7353091 43.2730522,34.5193091 28.1810522,48.6723091 C27.4940522,49.3173091 27.2850522,30.2523091 27.2850522,26.4733091 C27.2850522,16.5813091 31.7200522,16.9003091 31.7200522,14.0713091 C31.7200522,11.4243091 28.1350522,6.20330908 28.1350522,0.791309078 C28.1350522,-0.0556909219 31.0710522,-0.377690922 31.4190522,0.610309078 C32.7860522,4.49030908 33.8330522,7.60430908 35.9680522,9.13730908"></path>
      <path d="M43.0610522,24.1823091 C44.3150522,26.9673091 49.9490522,28.6003091 51.0240522,29.0923091 C48.4690522,30.1203091 41.7640522,34.4473091 40.2560522,35.6883091 C43.0740522,29.9743091 42.0380522,21.9123091 43.0610522,24.1823091"></path>
      <path d="M52.7930522,36.4753091 C49.8070522,39.8143091 39.0880522,38.4473091 40.0650522,37.4703091 C41.0420522,36.4923091 51.1440522,30.0483091 53.1350522,29.8473091 C53.4480522,29.8163091 53.5260522,35.6563091 52.7930522,36.4753091"></path>
      <path d="M28.7539993,49.7363091 C28.7300522,56.4563091 36.8800522,70.0883091 38.2910522,69.7783091 C39.0220522,69.6183091 40.0560522,67.8413091 40.6530522,66.7553091 C44.7920522,59.2263091 46.3330522,60.6353091 46.8570522,57.3813091 C48.2300522,48.8393091 50.4510522,46.2123091 52.8590522,37.8483091 C52.8590522,37.8483091 48.1820522,41.3763091 39.3010522,39.0833091 C38.0780522,38.7683091 36.8480522,41.7863091 33.7820522,44.8523091 C30.5980522,48.0373091 28.7539993,49.7363091 28.7539993,49.7363091"></path>
      <path d="M46.6220522,60.7673091 C46.1770522,64.3603091 45.9710522,66.4213091 45.7710522,72.4233091 C45.7100522,74.2423091 43.0570522,71.3253091 39.9840522,70.8303091 C39.4030522,70.7373091 44.2910522,62.2103091 46.6220522,60.7673091"></path>
      <path d="M17.3940522,9.13730908 C14.5300522,11.1953091 10.3930522,10.4693091 2.45505221,14.4123091 C2.12905221,14.5753091 4.24805221,14.4813091 7.52705221,16.9633091 C9.71705221,18.6223091 11.3360522,21.4113091 11.8890522,23.6993091 C13.1060522,28.7353091 10.0890522,34.5193091 25.1820522,48.6723091 C25.8690522,49.3173091 26.0780522,30.2523091 26.0780522,26.4733091 C26.0780522,16.5813091 21.6430522,16.9003091 21.6430522,14.0713091 C21.6430522,11.4243091 25.2280522,6.20330908 25.2280522,0.791309078 C25.2280522,-0.0556909219 22.2910522,-0.377690922 21.9430522,0.610309078 C20.5770522,4.49030908 19.5290522,7.60430908 17.3940522,9.13730908"></path>
      <path d="M10.3020522,24.1823091 C9.04705221,26.9673091 3.41305221,28.6003091 2.33805221,29.0923091 C4.89305221,30.1203091 11.5990522,34.4473091 13.1060522,35.6883091 C10.2890522,29.9743091 11.3240522,21.9123091 10.3020522,24.1823091"></path>
      <path d="M0.569052212,36.4753091 C3.55605221,39.8143091 14.2750522,38.4473091 13.2980522,37.4703091 C12.3210522,36.4923091 2.21905221,30.0483091 0.228052212,29.8473091 C-0.0849477882,29.8163091 -0.163947788,35.6563091 0.569052212,36.4753091"></path>
      <path d="M24.6090522,49.7363091 C24.6080522,56.4093091 16.4820522,70.0883091 15.0710522,69.7783091 C14.3400522,69.6183091 13.3060522,67.8413091 12.7090522,66.7553091 C8.57005221,59.2263091 7.02905221,60.6353091 6.50605221,57.3813091 C5.13205221,48.8393091 2.91105221,46.2123091 0.503052212,37.8483091 C0.503052212,37.8483091 5.18005221,41.3763091 14.0620522,39.0833091 C15.2850522,38.7683091 16.5150522,41.7863091 19.5800522,44.8523091 C22.7650522,48.0373091 24.6090522,49.7363091 24.6090522,49.7363091"></path>
      <path d="M6.74005221,60.7673091 C7.18605221,64.3603091 7.39205221,66.4213091 7.59105221,72.4233091 C7.65205221,74.2423091 10.3060522,71.3253091 13.3790522,70.8303091 C13.9590522,70.7373091 9.07105221,62.2103091 6.74005221,60.7673091"></path>
      <path d="M25.6370522,50.5203091 C25.6370522,50.5203091 24.9130522,59.4613091 16.7120522,70.0963091 C15.0190522,72.2923091 24.5430522,75.3873091 24.8610522,74.8593091 C25.0160522,74.6013091 25.2550522,69.3553091 25.3620522,63.8543091 C25.4730522,58.0793091 26.0730522,51.3893091 25.6370522,50.5203091"></path>
      <path d="M27.7260522,50.5203091 C27.7260522,50.5203091 28.4500522,59.4613091 36.6500522,70.0963091 C38.3440522,72.2923091 28.8190522,75.3873091 28.5020522,74.8593091 C28.3470522,74.6013091 28.1070522,69.3553091 28.0010522,63.8543091 C27.8900522,58.0793091 27.2910522,51.3893091 27.7260522,50.5203091"></path>
    </g>
    <g id="shoulders">
      <path d="M73.6946662,19.5123927 C74.1236662,20.7313927 70.8456662,16.9743927 66.0286662,14.6253927 C64.9236662,14.0853927 63.7206662,13.6143927 62.4326662,13.2813927 C55.7296662,11.5513927 50.6486662,7.4553927 56.4656662,3.0313927 C59.8166662,0.481392703 62.7956662,-0.305607297 64.2976662,0.101392703 C70.5046662,1.7903927 71.7466662,6.5153927 72.0596662,10.2943927 C72.3586662,13.9153927 72.9196662,17.3093927 73.6946662,19.5123927"></path>
      <path d="M0.0376662226,19.5123927 C-0.391333777,20.7313927 2.88666622,16.9743927 7.70366622,14.6253927 C8.80766622,14.0853927 10.0116662,13.6143927 11.2996662,13.2813927 C18.0016662,11.5513927 23.0826662,7.4553927 17.2666662,3.0313927 C13.9146662,0.481392703 10.9356662,-0.305607297 9.43466622,0.101392703 C3.22666622,1.7903927 1.98466622,6.5153927 1.67266622,10.2943927 C1.37366622,13.9153927 0.811666223,17.3093927 0.0376662226,19.5123927"></path>
    </g>
    <g id="glutes">
      <path d="M23.7202557,4.81520662 C20.3782557,7.55720662 21.1492557,10.8362066 21.1562557,15.4562066 C21.1702557,23.8472066 21.8352557,25.2402066 25.3352557,26.9842066 C29.2182557,28.9192066 37.8072557,27.1362066 39.8722557,23.1822066 C42.6572557,17.8482066 41.4352557,7.73320662 39.2792557,5.57720662 C32.8392557,-0.863793377 25.6042557,3.26820662 23.7202557,4.81520662"></path>
      <path d="M39.4502557,2.02720662 C40.3512557,2.92720662 40.0742557,5.57620662 39.7242557,5.22720662 C38.9542557,4.45520662 38.4502557,3.07720662 34.5182557,1.63620662 C31.7932557,0.637206623 29.0422557,1.59720662 27.6532557,2.01920662 C27.5062557,2.06420662 34.8732557,-2.55179338 39.4502557,2.02720662"></path>
      <path d="M17.7692557,4.81520662 C21.1102557,7.55720662 20.3392557,10.8362066 20.3322557,15.4562066 C20.3192557,23.8472066 19.6532557,25.2402066 16.1532557,26.9842066 C12.2702557,28.9192066 3.68225567,27.1362066 1.61625567,23.1822066 C-1.16774433,17.8482066 0.0532556698,7.73320662 2.20925567,5.57720662 C8.64925567,-0.863793377 15.8842557,3.26820662 17.7692557,4.81520662"></path>
      <path d="M2.03925567,2.02720662 C1.13825567,2.92720662 1.41525567,5.57620662 1.76425567,5.22720662 C2.53525567,4.45520662 3.03925567,3.07720662 6.97125567,1.63620662 C9.69625567,0.637206623 12.4462557,1.59720662 13.8352557,2.01920662 C13.9822557,2.06420662 6.61625567,-2.55179338 2.03925567,2.02720662"></path>
    </g>
    <g id="triceps">
      <path d="M77.867,6.10045803 C78.74,7.18445803 80.201,14.818458 79.539,21.383458 C79.316,23.600458 82.045,30.354458 82.045,30.354458 C82.045,30.354458 80.98,32.026458 79.799,29.065458 C78.841,26.665458 78.247,22.690458 76.635,23.287458 C74.056,24.240458 78.636,31.390458 77.194,32.832458 C76.535,33.491458 69.434,29.496458 68.907,27.676458 C67.059,23.919458 64.888,21.917458 64.697,18.145458 C67.944,11.412458 69.759,2.13145803 68.983,0.0444580343 C68.767,-0.535541966 76.762,4.72645803 77.867,6.10045803"></path>
      <path d="M4.176,6.10045803 C3.305,7.18445803 1.844,14.818458 2.506,21.383458 C2.729,23.600458 -1.77635684e-15,30.354458 -1.77635684e-15,30.354458 C-1.77635684e-15,30.354458 1.064,32.026458 2.245,29.065458 C3.203,26.665458 3.797,22.690458 5.409,23.287458 C7.988,24.240458 3.408,31.390458 4.851,32.832458 C5.51,33.491458 12.611,29.496458 13.137,27.676458 C14.986,23.919458 17.157,21.917458 17.348,18.145458 C14.1,11.412458 12.286,2.13145803 13.062,0.0444580343 C13.278,-0.535541966 5.282,4.72645803 4.176,6.10045803"></path>
    </g>
    <g id="forearms">
      <path d="M87.3597749,1.77635684e-15 C83.5077749,2.421 87.0947749,5.983 91.2647749,21.423 C90.4567749,16.818 90.8587749,14.882 90.2327749,11.01 C89.3387749,5.486 87.9407749,2.17 87.3597749,1.77635684e-15"></path>
      <path d="M82.1847749,2.973 C83.3317749,2.293 84.3667749,1.769 89.8397749,19.553 C90.5397749,21.827 91.3447749,23.224 91.9167749,25.939 C92.1437749,27.018 92.2267749,29.494 91.7307749,32.052 C91.6747749,32.343 91.8737749,26.085 90.6257749,25.984 C89.9917749,25.932 90.4727749,29.365 89.7897749,32.351 C89.7097749,29.215 89.6457749,26.08 88.8577749,26.072 C88.3207749,26.066 88.2717749,29.773 87.5877749,32.114 C87.5877749,32.114 87.8837749,26.159 86.9667749,26.15 C86.3257749,26.143 86.5397749,28.705 85.6297749,31.354 C85.9727749,28.079 85.4967749,25.28 85.4557749,24.609 C85.3597749,23.033 84.9917749,21.411 84.4407749,20.169 C83.1617749,17.284 82.0067749,15.811 80.6617749,11.918 C78.5737749,5.875 81.5697749,3.339 82.1847749,2.973"></path>
      <path d="M4.73577495,1.77635684e-15 C8.58877495,2.421 5.00177495,5.983 0.83177495,21.423 C1.63877495,16.818 1.23677495,14.882 1.86377495,11.01 C2.75777495,5.486 4.15577495,2.17 4.73577495,1.77635684e-15"></path>
      <path d="M9.91077495,2.973 C8.76377495,2.293 7.72977495,1.769 2.25577495,19.553 C1.55577495,21.827 0.75077495,23.224 0.17877495,25.939 C-0.0472250502,27.018 -0.13022505,29.494 0.36477495,32.052 C0.42077495,32.343 0.22177495,26.085 1.46977495,25.984 C2.10477495,25.932 1.62377495,29.365 2.30577495,32.351 C2.38677495,29.215 2.44977495,26.08 3.23777495,26.072 C3.77577495,26.066 3.82377495,29.773 4.50877495,32.114 C4.50877495,32.114 4.21277495,26.159 5.12977495,26.15 C5.76977495,26.143 5.55677495,28.705 6.46677495,31.354 C6.12277495,28.079 6.59877495,25.28 6.63977495,24.609 C6.73577495,23.033 7.10377495,21.411 7.65477495,20.169 C8.93477495,17.284 10.0897749,15.811 11.4347749,11.918 C13.5217749,5.875 10.5267749,3.339 9.91077495,2.973"></path>
    </g>
    <g id="calves">
      <path d="M67.3921472,171.386525 C67.5501472,169.093525 68.7271472,166.419525 71.9541472,166.022525 C74.9691472,165.653525 76.4921472,170.109525 76.4921472,170.109525 C76.4921472,170.109525 76.5041472,165.262525 80.5761472,165.011525 C84.1701472,164.790525 84.2251472,167.778525 85.0761472,171.341525 C86.6841472,178.084525 86.1111472,181.780525 86.1111472,193.331525 C86.1111472,198.661525 85.5671472,200.133525 84.4561472,200.133525 C81.1451472,200.133525 78.8531472,191.641525 78.8531472,191.641525 C78.8531472,191.641525 77.2711472,201.834525 74.9691472,200.708525 C73.8791472,200.175525 72.0921472,191.607525 70.5611472,186.674525 C68.6791472,180.613525 67.0841472,175.846525 67.3921472,171.386525"></path>
      <path d="M41.8191472,171.386525 C41.6601472,169.093525 40.4841472,166.419525 37.2561472,166.022525 C34.2411472,165.653525 32.7181472,170.109525 32.7181472,170.109525 C32.7181472,170.109525 32.7061472,165.262525 28.6341472,165.011525 C25.0411472,164.790525 24.9861472,167.778525 24.1351472,171.341525 C22.5261472,178.084525 23.0991472,181.780525 23.0991472,193.331525 C23.0991472,198.661525 23.6441472,200.133525 24.7551472,200.133525 C28.0661472,200.133525 30.3581472,191.641525 30.3581472,191.641525 C30.3581472,191.641525 31.9401472,201.834525 34.2411472,200.708525 C35.3321472,200.175525 37.1181472,191.607525 38.6501472,186.674525 C40.5311472,180.613525 42.1261472,175.846525 41.8191472,171.386525"></path>
    </g>
    <g id="hamstrings">
      <path d="M0,39.6679856 C1.625,21.7309856 6.213,15.0139856 8.982,8.48798559 C12.615,-0.071014412 13.997,-0.457014412 15.859,0.223985588 C17.654,0.882985588 20.203,1.31098559 23.163,1.31098559 C28.225,1.31098559 25.864,13.9659856 24.646,18.4529856 C22.544,26.1889856 17.624,34.4509856 17.624,42.4709856 C15.286,31.2039856 11.943,36.4709856 12.707,25.6259856 C8.314,35.0709856 5.767,30.5509856 0,39.6679856"></path>
      <path d="M60.156,39.6679856 C58.532,21.7309856 53.944,15.0139856 51.174,8.48798559 C47.542,-0.071014412 46.16,-0.457014412 44.298,0.223985588 C42.502,0.882985588 39.954,1.31098559 36.993,1.31098559 C31.931,1.31098559 34.292,13.9659856 35.511,18.4529856 C37.612,26.1889856 42.533,34.4509856 42.533,42.4709856 C44.871,31.2039856 48.213,36.4709856 47.449,25.6259856 C51.842,35.0709856 54.39,30.5509856 60.156,39.6679856"></path>
    </g>
    <g id="contour">
      <path d="M108.882,126.739 C108.742,126.835 108.552,126.88 108.364,126.903 C108.268,126.915 108.174,126.922 108.08,126.925 L107.928,126.924 C107.889,126.92 107.855,126.916 107.816,126.905 C107.661,126.866 107.499,126.781 107.348,126.687 C107.197,126.592 107.052,126.486 106.915,126.373 C106.775,126.264 106.644,126.147 106.515,126.033 C106.383,125.923 106.262,125.803 106.14,125.692 C105.898,125.466 105.664,125.25 105.452,125.033 C105.347,124.925 105.246,124.816 105.151,124.708 C105.053,124.602 104.96,124.498 104.873,124.393 C104.7,124.185 104.543,123.986 104.403,123.798 C104.265,123.606 104.146,123.426 104.037,123.261 C103.83,122.927 103.681,122.647 103.591,122.456 C103.584,122.442 103.578,122.427 103.571,122.414 C103.561,122.234 103.548,122.054 103.532,121.874 C103.492,121.44 103.439,121.008 103.375,120.577 C103.311,120.146 103.226,119.718 103.133,119.295 C103.081,119.085 103.032,118.872 102.976,118.663 L102.794,118.038 C102.787,118.014 102.763,118 102.738,118.004 C102.712,118.008 102.694,118.034 102.699,118.061 L102.7,118.063 L102.817,118.698 L102.912,119.335 C102.968,119.76 103.009,120.187 103.042,120.614 C103.103,121.469 103.116,122.325 103.089,123.178 C103.072,123.606 103.049,124.032 103.013,124.457 C102.978,124.878 102.932,125.313 102.867,125.711 C102.771,126.119 102.65,126.544 102.545,126.957 C102.444,127.374 102.333,127.784 102.222,128.187 C102.112,128.591 101.985,128.991 101.868,129.393 C101.806,129.594 101.741,129.814 101.686,130.005 C101.633,130.184 101.561,130.368 101.479,130.55 C101.317,130.917 101.117,131.28 100.898,131.632 C100.679,131.983 100.446,132.33 100.201,132.668 C99.947,133.003 99.667,133.321 99.373,133.62 C99.079,133.92 98.761,134.195 98.415,134.425 C98.068,134.65 97.688,134.831 97.289,134.893 C97.09,134.924 96.889,134.923 96.696,134.884 C96.53,134.854 96.36,134.776 96.239,134.685 C96.509,134.504 96.74,134.293 96.937,134.083 C97.159,133.837 97.344,133.591 97.498,133.352 C97.607,133.246 97.717,133.138 97.824,133.028 C97.975,132.877 98.121,132.72 98.264,132.561 C98.409,132.403 98.547,132.239 98.681,132.071 C98.952,131.738 99.196,131.382 99.418,131.009 C99.636,130.636 99.849,130.258 100.022,129.858 C100.11,129.658 100.191,129.456 100.267,129.251 C100.345,129.047 100.404,128.836 100.462,128.626 C100.577,128.204 100.647,127.768 100.674,127.332 C100.682,127.114 100.685,126.896 100.667,126.679 C100.651,126.463 100.617,126.247 100.568,126.039 C100.563,126.019 100.547,126.003 100.526,126.001 C100.499,125.998 100.475,126.017 100.472,126.044 C100.448,126.256 100.415,126.46 100.377,126.664 C100.336,126.867 100.294,127.067 100.237,127.264 C100.183,127.461 100.125,127.655 100.056,127.846 C99.985,128.037 99.917,128.227 99.837,128.413 C99.76,128.6 99.67,128.782 99.585,128.966 C99.498,129.148 99.405,129.328 99.307,129.507 C99.109,129.86 98.91,130.215 98.685,130.554 L98.011,131.582 L97.322,132.617 C97.088,132.962 96.849,133.307 96.597,133.643 C96.488,133.792 96.374,133.937 96.261,134.085 C96.04,134.249 95.795,134.395 95.524,134.506 C95.307,134.593 95.077,134.651 94.815,134.709 C94.564,134.768 94.303,134.824 94.039,134.87 C93.777,134.921 93.508,134.954 93.243,134.972 C93.11,134.978 92.978,134.979 92.853,134.964 C92.73,134.951 92.61,134.922 92.535,134.872 C92.462,134.823 92.434,134.772 92.445,134.666 C92.458,134.561 92.518,134.44 92.595,134.333 C92.751,134.11 92.968,133.924 93.203,133.751 C93.676,133.392 94.149,133.034 94.614,132.68 C95.079,132.324 95.525,131.941 95.895,131.511 C96.267,131.085 96.591,130.637 96.855,130.188 C97.119,129.735 97.313,129.278 97.46,128.848 C97.602,128.415 97.696,128.009 97.757,127.647 C97.818,127.285 97.841,126.966 97.854,126.704 C97.86,126.441 97.857,126.236 97.851,126.096 C97.843,125.957 97.838,125.882 97.838,125.882 C97.837,125.87 97.829,125.859 97.816,125.855 C97.801,125.851 97.784,125.861 97.78,125.877 L97.78,125.878 C97.78,125.878 97.762,125.95 97.728,126.085 C97.701,126.219 97.648,126.417 97.583,126.664 C97.516,126.911 97.438,127.209 97.326,127.543 C97.218,127.878 97.087,128.25 96.917,128.643 C96.754,129.039 96.55,129.455 96.318,129.884 C96.086,130.313 95.813,130.755 95.491,131.186 C95.167,131.614 94.826,132.06 94.431,132.478 C94.303,132.615 94.166,132.744 94.025,132.871 C93.974,132.907 93.92,132.945 93.858,132.987 C93.673,133.113 93.446,133.26 93.175,133.413 C92.905,133.562 92.593,133.72 92.243,133.855 C91.892,133.989 91.501,134.103 91.083,134.147 C90.667,134.19 90.224,134.159 89.814,134.005 C89.611,133.927 89.416,133.821 89.252,133.681 C89.17,133.612 89.094,133.537 89.034,133.456 C88.977,133.382 88.932,133.293 88.921,133.238 C88.928,133.231 88.934,133.225 88.944,133.217 C88.965,133.199 88.981,133.181 89.005,133.164 C89.091,133.092 89.186,133.012 89.284,132.938 C89.484,132.791 89.681,132.632 89.882,132.473 C90.275,132.149 90.684,131.836 91.058,131.489 C91.245,131.312 91.429,131.138 91.611,130.966 C91.795,130.794 91.984,130.64 92.169,130.467 C92.465,130.073 92.75,129.691 93.021,129.329 C93.287,128.966 93.495,128.591 93.652,128.228 C93.728,128.045 93.799,127.87 93.858,127.699 C93.913,127.527 93.964,127.363 94.004,127.207 C94.082,126.893 94.124,126.613 94.142,126.383 C94.16,126.152 94.155,125.967 94.147,125.843 C94.134,125.721 94.127,125.657 94.127,125.657 C94.125,125.645 94.118,125.634 94.105,125.632 C94.09,125.627 94.073,125.635 94.069,125.652 C94.069,125.652 94.052,125.716 94.019,125.834 C93.985,125.949 93.938,126.118 93.867,126.328 C93.798,126.538 93.708,126.79 93.593,127.073 C93.481,127.357 93.341,127.674 93.18,128.014 C93.018,128.354 92.847,128.726 92.672,129.13 C92.583,129.329 92.492,129.538 92.387,129.743 C92.336,129.848 92.279,129.95 92.221,130.055 C92.162,130.153 92.107,130.286 92.042,130.341 C92.034,130.349 92.025,130.357 92.016,130.365 C91.917,130.425 91.771,130.512 91.584,130.621 C91.21,130.836 90.667,131.138 89.986,131.409 C89.645,131.54 89.267,131.665 88.869,131.722 C88.674,131.75 88.463,131.758 88.303,131.712 C88.265,131.7 88.229,131.686 88.211,131.671 C88.203,131.666 88.198,131.66 88.194,131.656 C88.172,131.544 88.148,131.43 88.125,131.316 C88.076,131.097 88.05,130.885 88.054,130.696 C88.059,130.508 88.114,130.337 88.184,130.226 C88.188,130.218 88.224,130.163 88.222,130.17 C88.23,130.165 88.227,130.164 88.241,130.152 C88.261,130.131 88.296,130.101 88.333,130.072 C88.41,130.009 88.502,129.945 88.596,129.876 C88.787,129.739 88.993,129.6 89.198,129.457 C89.404,129.315 89.608,129.165 89.803,128.997 L89.946,128.867 L90.09,128.731 C90.23,128.601 90.283,128.47 90.337,128.346 C90.387,128.22 90.428,128.098 90.461,127.976 C90.497,127.856 90.529,127.737 90.557,127.618 C90.622,127.383 90.673,127.149 90.739,126.924 C90.864,126.47 91.029,126.04 91.156,125.624 C91.287,125.21 91.361,124.809 91.402,124.437 C91.446,124.065 91.473,123.723 91.486,123.42 C91.488,123.38 91.489,123.342 91.49,123.303 C91.539,123.134 91.59,122.962 91.646,122.78 C91.73,122.505 91.819,122.216 91.911,121.915 C91.958,121.774 92.002,121.576 92.042,121.387 L92.058,121.315 L92.065,121.255 L92.08,121.133 L92.085,121.071 L92.089,121.041 L92.09,121.034 L92.09,120.966 L92.085,120.834 C92.074,120.486 92.043,120.157 92.023,119.826 C91.973,119.168 91.937,118.52 91.937,117.915 C91.936,117.764 91.938,117.616 91.945,117.471 C91.949,117.326 91.955,117.184 91.968,117.048 C91.985,116.773 92.023,116.518 92.063,116.28 C92.085,116.163 92.111,116.051 92.131,115.942 C92.161,115.837 92.19,115.736 92.217,115.642 C92.222,115.62 92.23,115.602 92.236,115.582 C92.269,115.588 92.302,115.575 92.319,115.545 C92.319,115.545 92.342,115.504 92.387,115.426 C92.429,115.343 92.493,115.22 92.555,115.05 C92.685,114.709 92.774,114.152 92.713,113.483 C92.667,112.813 92.517,112.029 92.317,111.147 C92.117,110.265 91.857,109.287 91.559,108.225 C91.409,107.689 91.254,107.153 91.075,106.565 C90.984,106.283 90.891,105.995 90.796,105.703 C90.693,105.409 90.588,105.107 90.477,104.804 C90.032,103.602 89.499,102.377 88.908,101.128 C88.316,99.881 87.672,98.612 87.059,97.303 C86.437,96 85.87,94.648 85.384,93.268 C84.899,91.888 84.484,90.483 84.205,89.076 C84.125,88.726 84.063,88.374 84.009,88.024 C83.98,87.849 83.952,87.675 83.923,87.502 L83.901,87.372 L83.884,87.233 L83.85,86.967 C83.81,86.618 83.755,86.26 83.697,85.904 C83.671,85.725 83.636,85.55 83.604,85.376 C83.571,85.202 83.541,85.026 83.499,84.855 C83.203,83.474 82.726,82.176 82.223,80.989 C81.972,80.397 81.705,79.833 81.48,79.308 C81.426,79.18 81.373,79.051 81.32,78.925 L81.246,78.743 L81.169,78.541 C81.07,78.273 80.96,78.012 80.861,77.758 C80.451,76.754 80.05,75.836 79.715,75.028 C79.375,74.22 79.117,73.516 78.95,72.93 C78.866,72.637 78.813,72.373 78.778,72.137 C78.871,71.889 78.963,71.638 79.057,71.391 C79.428,70.41 79.793,69.443 80.134,68.486 C80.469,67.528 80.781,66.581 81.042,65.643 C81.303,64.705 81.527,63.782 81.685,62.875 C81.837,61.969 81.945,61.086 81.998,60.235 C82.107,58.532 81.989,56.969 81.807,55.605 C81.783,55.434 81.76,55.267 81.736,55.102 C81.707,54.938 81.678,54.778 81.649,54.619 C81.589,54.303 81.542,53.998 81.473,53.709 C81.408,53.419 81.346,53.141 81.286,52.876 C81.221,52.611 81.15,52.362 81.087,52.124 C80.966,51.648 80.829,51.228 80.719,50.863 C80.611,50.497 80.501,50.192 80.414,49.945 C80.24,49.45 80.148,49.186 80.148,49.186 C80.138,49.158 80.108,49.141 80.078,49.149 C80.047,49.157 80.028,49.189 80.037,49.219 C80.037,49.219 80.107,49.491 80.24,49.999 C80.307,50.252 80.389,50.565 80.47,50.934 C80.554,51.303 80.66,51.723 80.747,52.204 C80.947,53.157 81.135,54.325 81.253,55.667 C81.375,57.01 81.4,58.533 81.243,60.175 C81.164,60.996 81.03,61.844 80.854,62.716 C80.666,63.586 80.439,64.477 80.162,65.384 C79.887,66.292 79.56,67.214 79.208,68.151 C78.862,69.093 78.488,70.049 78.107,71.026 C77.343,72.979 76.57,75.021 75.941,77.154 C75.782,77.685 75.642,78.226 75.498,78.766 C75.431,79.038 75.364,79.31 75.296,79.583 L75.271,79.684 L75.258,79.735 L75.25,79.774 L75.245,79.8 L75.209,80.005 C75.187,80.144 75.169,80.298 75.15,80.443 C75.021,81.574 74.981,82.691 74.917,83.813 C74.803,86.051 74.604,88.279 74.336,90.467 C74.068,92.653 73.758,94.803 73.573,96.895 C73.388,98.99 73.204,101.003 73.143,102.955 C73.14,103.208 73.131,103.432 73.15,103.731 L73.158,103.844 C73.158,103.849 73.167,103.903 73.164,103.891 L73.168,103.913 L73.176,103.956 L73.206,104.13 C73.224,104.243 73.251,104.368 73.276,104.488 C73.302,104.609 73.328,104.73 73.353,104.849 C73.381,104.964 73.408,105.078 73.436,105.191 C73.491,105.416 73.546,105.638 73.601,105.86 C73.825,106.74 74.037,107.589 74.264,108.398 C74.488,109.208 74.701,109.983 74.914,110.719 C75.129,111.453 75.333,112.149 75.526,112.804 C75.727,113.457 75.914,114.067 76.088,114.632 C76.268,115.194 76.433,115.711 76.582,116.177 C76.898,117.106 77.146,117.837 77.315,118.334 C77.403,118.581 77.475,118.771 77.523,118.898 C77.572,119.026 77.596,119.091 77.596,119.091 C77.596,119.092 77.598,119.092 77.598,119.092 C77.598,119.093 77.597,119.094 77.598,119.094 L78.015,120.377 L78.414,121.66 L78.795,122.949 L79.157,124.244 C79.283,124.673 79.391,125.108 79.509,125.54 C79.627,125.971 79.739,126.405 79.846,126.841 C80.07,127.707 80.28,128.577 80.489,129.447 L80.787,130.757 C80.891,131.192 80.987,131.628 81.081,132.065 L81.363,133.378 L81.627,134.694 C81.809,135.57 81.972,136.449 82.137,137.328 C82.291,138.209 82.45,139.089 82.59,139.971 L82.81,141.295 L83.01,142.62 C83.158,143.503 83.266,144.389 83.398,145.274 C83.511,146.16 83.637,147.049 83.739,147.933 L84.061,150.61 C84.168,151.502 84.243,152.392 84.336,153.284 C84.435,154.175 84.472,155.071 84.535,155.966 C84.566,156.413 84.579,156.86 84.59,157.307 C84.6,157.756 84.621,158.203 84.621,158.65 C84.613,159.096 84.617,159.546 84.599,159.991 L84.568,160.658 C84.549,160.876 84.538,161.106 84.507,161.31 C84.505,161.324 84.505,161.338 84.505,161.35 L84.505,161.352 C84.574,162.658 84.637,163.964 84.677,165.271 L84.735,167.229 C84.741,167.553 84.75,167.883 84.748,168.202 C84.75,168.497 84.709,168.836 84.713,169.184 C84.713,169.864 84.783,170.531 84.865,171.187 C84.948,171.843 85.045,172.491 85.141,173.136 C85.329,174.425 85.497,175.708 85.597,176.997 C85.701,178.284 85.746,179.575 85.729,180.866 C85.722,181.515 85.697,182.149 85.665,182.81 L85.587,184.77 C85.548,186.079 85.526,187.405 85.536,188.714 C85.544,190.026 85.544,191.337 85.586,192.645 C85.615,193.955 85.655,195.262 85.697,196.571 L85.853,200.495 L86.036,204.414 L86.136,206.374 C86.165,207.02 86.172,207.678 86.188,208.33 C86.2,208.983 86.228,209.641 86.25,210.296 L86.356,212.261 L86.499,214.223 C86.552,214.877 86.625,215.528 86.686,216.18 L86.782,217.158 L86.898,218.133 L87.132,220.085 C87.301,221.383 87.497,222.677 87.683,223.972 C87.688,224.003 87.715,224.025 87.746,224.022 C87.778,224.019 87.801,223.991 87.798,223.959 L87.798,223.958 L87.427,220.053 L87.362,219.236 C87.462,219.331 87.599,219.433 87.768,219.538 C87.987,219.675 88.263,219.806 88.587,219.923 C88.749,219.98 88.924,220.036 89.11,220.08 C89.297,220.122 89.499,220.14 89.712,220.146 C90.143,220.149 90.606,220.112 91.075,220.231 C91.565,220.338 92.145,220.258 92.457,220.507 C92.616,220.624 92.746,220.791 92.869,220.987 C92.996,221.18 93.113,221.399 93.223,221.63 C93.277,221.746 93.328,221.864 93.38,221.984 L93.457,222.166 L93.489,222.244 C93.5,222.274 93.518,222.314 93.52,222.328 C93.577,222.497 93.613,222.746 93.625,222.983 C93.646,223.469 93.592,223.991 93.508,224.499 C93.422,225.008 93.303,225.51 93.167,225.993 C93.029,226.473 92.869,226.932 92.703,227.362 C92.532,227.79 92.354,228.188 92.168,228.545 C91.98,228.898 91.794,229.216 91.604,229.478 C91.417,229.743 91.229,229.956 91.06,230.113 C90.892,230.273 90.739,230.375 90.631,230.437 C90.576,230.469 90.533,230.491 90.504,230.504 C90.5,230.507 90.498,230.508 90.494,230.508 C90.485,230.506 90.475,230.504 90.465,230.505 C90.465,230.505 88.46,230.666 84.95,230.949 C84.073,231.017 83.102,231.091 82.045,231.149 C80.989,231.206 79.843,231.258 78.633,231.214 C78.032,231.186 77.404,231.139 76.813,230.977 C76.521,230.895 76.235,230.776 76.042,230.596 L76.023,230.58 C76.018,230.575 76.016,230.573 76.006,230.561 L75.963,230.516 L75.877,230.424 C75.818,230.362 75.766,230.3 75.713,230.239 C75.608,230.119 75.503,229.989 75.404,229.858 C75.009,229.332 74.678,228.746 74.519,228.105 C74.356,227.465 74.383,226.782 74.536,226.093 C74.847,224.708 75.623,223.331 76.239,221.796 C76.552,221.029 76.842,220.222 77.052,219.371 C77.264,218.52 77.386,217.625 77.395,216.713 C77.396,216.484 77.391,216.256 77.38,216.027 L77.357,215.683 L77.332,215.356 C77.297,214.921 77.262,214.48 77.227,214.039 C77.156,213.156 77.083,212.26 77.011,211.358 C76.938,210.454 76.864,209.54 76.79,208.617 C76.706,207.693 76.633,206.764 76.526,205.811 C76.473,205.336 76.408,204.853 76.322,204.377 L76.258,204.008 L76.187,203.658 C76.143,203.428 76.074,203.175 76.018,202.934 C75.772,201.981 75.457,201.058 75.138,200.137 C74.491,198.3 73.827,196.459 73.23,194.575 C72.929,193.635 72.644,192.688 72.375,191.727 C72.093,190.768 71.811,189.807 71.529,188.843 C70.954,186.921 70.366,184.995 69.846,183.056 C69.344,181.114 68.936,179.158 68.734,177.186 C68.692,176.692 68.63,176.202 68.607,175.707 C68.577,175.214 68.536,174.722 68.524,174.228 C68.503,173.735 68.485,173.244 68.479,172.752 L68.465,172.013 L68.461,171.83 L68.453,171.626 C68.447,171.501 68.444,171.382 68.436,171.252 C68.389,170.706 68.319,170.199 68.216,169.699 C68.119,169.196 67.996,168.706 67.868,168.219 C67.604,167.249 67.295,166.307 66.971,165.382 C66.313,163.533 65.604,161.743 64.895,159.993 C63.467,156.5 62.052,153.158 60.971,149.912 C60.699,149.101 60.443,148.299 60.222,147.501 C59.999,146.705 59.793,145.891 59.588,145.112 C59.178,143.544 58.797,142.02 58.449,140.556 C57.745,137.628 57.151,134.932 56.673,132.533 C56.558,131.932 56.446,131.351 56.338,130.791 C56.238,130.228 56.142,129.686 56.048,129.165 C55.87,128.122 55.707,127.163 55.588,126.294 C55.456,125.425 55.373,124.645 55.291,123.968 C55.226,123.29 55.17,122.712 55.126,122.244 C55.104,121.899 55.088,121.615 55.075,121.391 C55.317,122.167 55.663,122.933 56.153,123.629 C56.42,124.005 56.727,124.361 57.073,124.676 C57.418,124.993 57.803,125.266 58.208,125.5 C59.019,125.966 59.91,126.25 60.796,126.405 C61.684,126.564 62.572,126.592 63.436,126.547 C64.301,126.504 65.146,126.393 65.966,126.25 C66.376,126.177 66.782,126.096 67.181,126.011 L67.478,125.944 L67.639,125.906 L67.783,125.87 C67.979,125.816 68.162,125.777 68.366,125.715 C69.178,125.482 69.932,125.196 70.654,124.822 C71.372,124.451 72.038,123.995 72.6,123.453 C73.167,122.915 73.631,122.299 73.975,121.655 C74.325,121.012 74.559,120.347 74.707,119.702 C75.007,118.407 75.017,117.203 74.941,116.161 C74.868,115.118 74.712,114.223 74.555,113.499 C74.401,112.77 74.248,112.209 74.141,111.828 C74.029,111.447 73.969,111.244 73.969,111.244 C73.969,111.244 73.999,111.454 74.054,111.845 C74.109,112.237 74.183,112.813 74.255,113.544 C74.321,114.275 74.384,115.165 74.363,116.176 C74.331,117.183 74.243,118.325 73.88,119.477 C73.697,120.05 73.453,120.624 73.123,121.165 C72.794,121.707 72.37,122.209 71.861,122.642 C71.352,123.075 70.768,123.452 70.124,123.759 C69.484,124.066 68.769,124.309 68.055,124.489 C66.555,124.837 64.961,125.145 63.377,125.207 C62.98,125.222 62.584,125.221 62.19,125.2 C61.797,125.183 61.405,125.147 61.021,125.083 C60.253,124.958 59.512,124.725 58.854,124.358 C58.197,123.991 57.63,123.488 57.171,122.888 C56.713,122.285 56.374,121.582 56.132,120.842 C55.895,120.099 55.729,119.326 55.633,118.546 C55.582,118.155 55.554,117.762 55.529,117.379 C55.521,117.182 55.511,116.973 55.506,116.785 C55.503,116.587 55.5,116.387 55.497,116.189 C55.465,114.607 55.417,113.08 55.399,111.635 C55.391,110.194 55.386,108.83 55.56,107.608 C55.648,106.999 55.79,106.427 56.006,105.92 C56.221,105.411 56.505,104.966 56.834,104.592 C57.162,104.217 57.525,103.911 57.873,103.645 C58.222,103.378 58.564,103.159 58.873,102.96 C59.496,102.569 60.008,102.297 60.352,102.104 C60.7,101.916 60.885,101.815 60.885,101.815 C60.885,101.815 60.692,101.899 60.33,102.057 C59.97,102.222 59.438,102.458 58.783,102.803 C58.455,102.979 58.096,103.178 57.721,103.43 C57.346,103.679 56.949,103.972 56.574,104.349 C56.2,104.723 55.853,105.188 55.592,105.73 C55.328,106.271 55.144,106.878 55.017,107.513 C54.98,107.697 54.949,107.883 54.92,108.072 C54.892,107.886 54.86,107.703 54.825,107.522 C54.697,106.886 54.513,106.279 54.25,105.739 C53.989,105.197 53.642,104.733 53.267,104.357 C52.893,103.981 52.495,103.688 52.12,103.438 C51.746,103.187 51.385,102.988 51.059,102.812 C50.402,102.467 49.871,102.231 49.512,102.066 C49.149,101.908 48.956,101.823 48.956,101.823 C48.956,101.823 49.141,101.924 49.489,102.112 C49.834,102.305 50.346,102.578 50.969,102.968 C51.277,103.168 51.62,103.385 51.967,103.654 C52.316,103.919 52.679,104.225 53.007,104.6 C53.337,104.974 53.621,105.42 53.835,105.928 C54.051,106.436 54.192,107.008 54.281,107.617 C54.456,108.839 54.451,110.203 54.442,111.644 C54.425,113.089 54.376,114.616 54.344,116.198 C54.342,116.396 54.338,116.594 54.335,116.794 C54.331,116.982 54.32,117.191 54.313,117.387 C54.288,117.77 54.259,118.165 54.208,118.553 C54.112,119.334 53.946,120.108 53.71,120.85 C53.467,121.591 53.128,122.294 52.67,122.897 C52.211,123.497 51.645,123.999 50.987,124.366 C50.33,124.734 49.588,124.967 48.82,125.092 C48.437,125.156 48.045,125.192 47.651,125.209 C47.258,125.23 46.861,125.231 46.464,125.216 C44.88,125.154 43.287,124.845 41.787,124.499 C41.072,124.319 40.357,124.075 39.717,123.768 C39.074,123.46 38.49,123.084 37.98,122.651 C37.471,122.217 37.047,121.716 36.719,121.174 C36.39,120.632 36.145,120.059 35.962,119.486 C35.598,118.334 35.51,117.192 35.479,116.185 C35.457,115.174 35.521,114.284 35.586,113.553 C35.66,112.821 35.732,112.247 35.787,111.854 C35.844,111.463 35.873,111.253 35.873,111.253 C35.873,111.253 35.813,111.456 35.701,111.837 C35.594,112.217 35.44,112.78 35.287,113.508 C35.13,114.233 34.974,115.126 34.901,116.171 C34.824,117.212 34.834,118.416 35.134,119.711 C35.283,120.356 35.517,121.021 35.866,121.664 C36.21,122.308 36.675,122.923 37.241,123.462 C37.804,124.005 38.471,124.46 39.188,124.831 C39.909,125.204 40.664,125.491 41.476,125.722 C41.68,125.786 41.862,125.826 42.059,125.878 L42.203,125.916 L42.364,125.953 L42.661,126.019 C43.061,126.105 43.465,126.185 43.875,126.258 C44.696,126.401 45.54,126.513 46.405,126.555 C47.27,126.601 48.158,126.574 49.046,126.414 C49.932,126.258 50.823,125.974 51.634,125.508 C52.038,125.275 52.423,125.003 52.769,124.686 C53.114,124.37 53.421,124.014 53.688,123.637 C54.178,122.942 54.523,122.175 54.767,121.401 C54.754,121.624 54.736,121.908 54.716,122.251 C54.67,122.719 54.616,123.298 54.551,123.976 C54.469,124.654 54.386,125.432 54.253,126.301 C54.134,127.171 53.973,128.13 53.793,129.173 C53.7,129.694 53.604,130.236 53.503,130.799 C53.396,131.359 53.283,131.94 53.168,132.541 C52.69,134.94 52.096,137.636 51.393,140.564 C51.043,142.028 50.664,143.551 50.253,145.12 C50.048,145.899 49.842,146.713 49.62,147.508 C49.399,148.306 49.141,149.109 48.871,149.92 C47.79,153.166 46.374,156.508 44.947,160.001 C44.237,161.751 43.528,163.54 42.871,165.389 C42.546,166.316 42.236,167.257 41.974,168.227 C41.846,168.714 41.722,169.203 41.626,169.706 C41.521,170.207 41.452,170.715 41.405,171.259 C41.396,171.388 41.394,171.508 41.388,171.633 L41.38,171.838 L41.376,172.022 L41.362,172.759 C41.356,173.252 41.338,173.744 41.317,174.236 C41.305,174.73 41.264,175.221 41.234,175.716 C41.211,176.21 41.149,176.7 41.107,177.194 C40.905,179.165 40.498,181.122 39.996,183.064 C39.476,185.003 38.887,186.928 38.313,188.852 C38.03,189.815 37.748,190.776 37.467,191.735 C37.198,192.696 36.913,193.643 36.611,194.584 C36.015,196.467 35.35,198.307 34.704,200.145 C34.385,201.067 34.07,201.989 33.823,202.942 C33.768,203.183 33.698,203.436 33.655,203.665 L33.583,204.016 L33.52,204.384 C33.434,204.862 33.368,205.343 33.314,205.819 C33.208,206.772 33.136,207.702 33.052,208.626 C32.977,209.548 32.903,210.461 32.831,211.365 C32.758,212.268 32.686,213.163 32.615,214.046 C32.579,214.489 32.544,214.928 32.509,215.364 L32.483,215.691 L32.461,216.035 C32.451,216.263 32.446,216.492 32.447,216.72 C32.455,217.633 32.577,218.528 32.79,219.379 C32.999,220.23 33.289,221.037 33.602,221.804 C34.218,223.34 34.994,224.717 35.306,226.101 C35.458,226.79 35.485,227.472 35.322,228.113 C35.164,228.755 34.833,229.341 34.437,229.866 C34.338,229.997 34.234,230.128 34.128,230.247 C34.075,230.308 34.024,230.37 33.964,230.431 L33.878,230.524 L33.835,230.57 C33.826,230.58 33.824,230.583 33.818,230.588 L33.8,230.604 C33.606,230.784 33.32,230.903 33.028,230.985 C32.437,231.146 31.81,231.194 31.208,231.221 C29.999,231.266 28.853,231.214 27.797,231.157 C26.739,231.098 25.769,231.026 24.891,230.957 C21.382,230.675 19.376,230.512 19.376,230.512 C19.368,230.511 19.361,230.517 19.354,230.519 C19.348,230.517 19.344,230.515 19.338,230.512 C19.308,230.499 19.265,230.477 19.21,230.446 C19.103,230.383 18.95,230.281 18.782,230.121 C18.612,229.964 18.425,229.75 18.238,229.486 C18.047,229.224 17.861,228.906 17.673,228.552 C17.488,228.196 17.309,227.798 17.138,227.37 C16.973,226.94 16.813,226.481 16.674,226.001 C16.539,225.518 16.419,225.016 16.333,224.507 C16.25,223.999 16.195,223.477 16.217,222.991 C16.228,222.754 16.265,222.505 16.321,222.336 C16.323,222.322 16.341,222.282 16.353,222.252 L16.384,222.174 L16.461,221.992 C16.514,221.873 16.564,221.754 16.619,221.637 C16.729,221.407 16.846,221.188 16.973,220.995 C17.096,220.799 17.226,220.632 17.385,220.514 C17.696,220.266 18.276,220.344 18.767,220.24 C19.235,220.121 19.699,220.158 20.129,220.154 C20.342,220.148 20.544,220.13 20.731,220.087 C20.918,220.044 21.092,219.989 21.254,219.93 C21.579,219.814 21.855,219.682 22.074,219.546 C22.242,219.441 22.379,219.339 22.479,219.244 L22.415,220.06 L22.043,223.966 L22.043,223.967 C22.04,223.997 22.062,224.025 22.093,224.03 C22.125,224.034 22.154,224.012 22.159,223.981 C22.344,222.684 22.541,221.39 22.709,220.092 L22.943,218.141 L23.059,217.166 L23.155,216.188 C23.217,215.536 23.289,214.885 23.342,214.231 L23.485,212.269 L23.591,210.304 C23.613,209.649 23.642,208.991 23.654,208.338 C23.669,207.686 23.676,207.028 23.706,206.382 L23.805,204.422 L23.988,200.503 L24.144,196.579 C24.186,195.271 24.227,193.964 24.255,192.653 C24.297,191.344 24.298,190.034 24.306,188.722 C24.314,187.414 24.294,186.087 24.254,184.778 L24.177,182.819 C24.144,182.156 24.119,181.523 24.112,180.874 C24.096,179.582 24.141,178.292 24.244,177.005 C24.345,175.717 24.513,174.434 24.7,173.144 C24.796,172.5 24.894,171.852 24.976,171.195 C25.058,170.54 25.128,169.872 25.127,169.192 C25.132,168.843 25.092,168.506 25.094,168.21 C25.091,167.889 25.1,167.562 25.106,167.237 L25.165,165.279 C25.204,163.971 25.268,162.666 25.336,161.36 L25.336,161.358 C25.336,161.345 25.336,161.332 25.334,161.319 C25.303,161.114 25.293,160.883 25.272,160.666 L25.242,159.999 C25.224,159.553 25.229,159.104 25.22,158.658 C25.221,158.212 25.241,157.763 25.251,157.316 C25.262,156.868 25.275,156.42 25.306,155.972 C25.37,155.079 25.406,154.182 25.505,153.292 C25.599,152.4 25.673,151.509 25.78,150.618 L26.103,147.942 C26.204,147.055 26.331,146.169 26.443,145.282 C26.575,144.397 26.684,143.51 26.832,142.628 L27.031,141.302 L27.251,139.98 C27.391,139.096 27.551,138.217 27.704,137.336 C27.87,136.458 28.033,135.578 28.214,134.701 L28.478,133.385 L28.761,132.074 C28.854,131.635 28.951,131.2 29.055,130.764 L29.353,129.455 C29.561,128.585 29.771,127.715 29.996,126.848 C30.103,126.414 30.214,125.979 30.332,125.548 C30.45,125.116 30.558,124.68 30.684,124.252 L31.046,122.957 L31.427,121.668 L31.826,120.384 L32.244,119.102 L32.244,119.1 C32.244,119.1 32.245,119.099 32.246,119.098 C32.246,119.098 32.271,119.033 32.318,118.906 C32.367,118.779 32.438,118.589 32.526,118.342 C32.695,117.843 32.943,117.114 33.259,116.185 C33.409,115.718 33.574,115.202 33.754,114.639 C33.927,114.074 34.114,113.464 34.315,112.812 C34.508,112.158 34.712,111.462 34.928,110.727 C35.14,109.992 35.353,109.216 35.578,108.406 C35.804,107.596 36.017,106.749 36.24,105.868 C36.294,105.647 36.35,105.424 36.405,105.199 C36.432,105.086 36.46,104.972 36.488,104.857 C36.513,104.738 36.539,104.617 36.565,104.496 C36.591,104.376 36.618,104.251 36.635,104.137 L36.666,103.964 L36.673,103.921 L36.677,103.899 C36.675,103.911 36.684,103.857 36.683,103.852 L36.692,103.738 C36.709,103.44 36.702,103.216 36.698,102.963 C36.638,101.01 36.453,98.999 36.269,96.904 C36.083,94.812 35.773,92.662 35.505,90.473 C35.237,88.287 35.038,86.059 34.925,83.82 C34.86,82.699 34.82,81.583 34.691,80.451 C34.672,80.305 34.654,80.152 34.632,80.012 L34.596,79.807 L34.592,79.782 L34.583,79.744 L34.57,79.692 L34.545,79.591 C34.479,79.318 34.411,79.046 34.344,78.774 C34.199,78.233 34.06,77.693 33.9,77.162 C33.271,75.029 32.499,72.987 31.733,71.035 C31.354,70.057 30.979,69.1 30.633,68.16 C30.282,67.22 29.955,66.299 29.68,65.391 C29.402,64.485 29.175,63.593 28.988,62.723 C28.811,61.852 28.677,61.004 28.598,60.183 C28.441,58.541 28.466,57.018 28.588,55.677 C28.706,54.332 28.895,53.165 29.094,52.213 C29.181,51.732 29.288,51.312 29.372,50.942 C29.452,50.573 29.534,50.26 29.602,50.007 C29.734,49.499 29.805,49.228 29.805,49.228 C29.812,49.199 29.797,49.169 29.768,49.159 C29.737,49.147 29.704,49.164 29.693,49.194 C29.693,49.194 29.601,49.458 29.427,49.953 C29.34,50.2 29.231,50.505 29.122,50.871 C29.012,51.236 28.875,51.656 28.754,52.132 C28.691,52.37 28.621,52.62 28.555,52.884 C28.496,53.149 28.434,53.427 28.369,53.717 C28.299,54.005 28.252,54.311 28.192,54.628 C28.163,54.786 28.135,54.946 28.105,55.11 C28.082,55.275 28.059,55.442 28.034,55.612 C27.852,56.976 27.734,58.54 27.844,60.243 C27.896,61.094 28.004,61.976 28.156,62.884 C28.314,63.79 28.539,64.713 28.799,65.651 C29.06,66.589 29.372,67.536 29.707,68.494 C30.048,69.452 30.414,70.419 30.784,71.399 C30.877,71.645 30.97,71.896 31.063,72.146 C31.028,72.381 30.975,72.646 30.891,72.938 C30.725,73.525 30.466,74.227 30.126,75.036 C29.791,75.843 29.391,76.761 28.98,77.765 C28.881,78.02 28.771,78.281 28.671,78.55 L28.596,78.751 L28.521,78.933 C28.469,79.059 28.416,79.188 28.361,79.316 C28.137,79.841 27.87,80.405 27.618,80.998 C27.116,82.184 26.639,83.482 26.342,84.863 C26.3,85.034 26.27,85.21 26.237,85.383 C26.206,85.558 26.171,85.733 26.145,85.913 C26.087,86.268 26.031,86.626 25.992,86.976 L25.958,87.241 L25.939,87.38 L25.918,87.508 C25.89,87.683 25.861,87.857 25.833,88.032 C25.777,88.383 25.717,88.734 25.637,89.084 C25.357,90.49 24.943,91.896 24.457,93.276 C23.971,94.656 23.404,96.008 22.783,97.312 C22.17,98.62 21.525,99.888 20.933,101.135 C20.342,102.384 19.809,103.61 19.364,104.813 C19.253,105.115 19.148,105.418 19.045,105.712 C18.95,106.003 18.857,106.291 18.766,106.573 C18.587,107.161 18.433,107.697 18.283,108.232 C17.984,109.295 17.725,110.274 17.524,111.156 C17.324,112.037 17.174,112.821 17.128,113.492 C17.067,114.159 17.156,114.717 17.286,115.057 C17.349,115.228 17.413,115.351 17.455,115.434 C17.5,115.512 17.522,115.552 17.522,115.552 C17.536,115.576 17.562,115.587 17.589,115.588 C17.594,115.606 17.601,115.624 17.605,115.642 C17.632,115.736 17.661,115.837 17.69,115.942 C17.709,116.051 17.734,116.164 17.757,116.28 C17.794,116.518 17.831,116.773 17.845,117.049 C17.857,117.184 17.862,117.327 17.865,117.471 C17.871,117.615 17.871,117.764 17.869,117.915 C17.864,118.519 17.822,119.167 17.766,119.825 C17.743,120.156 17.71,120.485 17.698,120.834 L17.693,120.967 L17.692,120.984 L17.693,121.031 L17.694,121.036 L17.694,121.044 L17.698,121.073 L17.704,121.135 L17.718,121.257 L17.726,121.317 L17.741,121.389 C17.782,121.579 17.826,121.776 17.872,121.917 C17.964,122.217 18.053,122.506 18.138,122.78 C18.193,122.963 18.245,123.135 18.292,123.303 C18.294,123.342 18.295,123.38 18.297,123.42 C18.311,123.723 18.337,124.065 18.382,124.437 C18.423,124.809 18.496,125.21 18.626,125.624 C18.755,126.04 18.919,126.47 19.044,126.924 C19.11,127.149 19.161,127.383 19.227,127.618 C19.254,127.737 19.287,127.856 19.323,127.976 C19.355,128.098 19.396,128.22 19.446,128.346 C19.5,128.47 19.553,128.601 19.693,128.731 L19.837,128.867 L19.98,128.997 C20.175,129.165 20.379,129.315 20.585,129.457 C20.79,129.6 20.997,129.739 21.187,129.876 C21.28,129.945 21.372,130.009 21.451,130.072 C21.486,130.101 21.521,130.131 21.542,130.152 C21.557,130.164 21.553,130.165 21.562,130.17 C21.56,130.163 21.595,130.218 21.599,130.226 C21.669,130.337 21.725,130.508 21.73,130.696 C21.733,130.885 21.707,131.097 21.658,131.316 C21.635,131.43 21.611,131.544 21.589,131.656 C21.585,131.66 21.581,131.666 21.572,131.671 C21.554,131.686 21.519,131.7 21.481,131.712 C21.32,131.758 21.109,131.75 20.914,131.722 C20.517,131.665 20.138,131.54 19.797,131.409 C19.117,131.138 18.574,130.836 18.199,130.621 C18.012,130.512 17.867,130.425 17.767,130.365 C17.759,130.357 17.749,130.349 17.741,130.341 C17.676,130.286 17.622,130.153 17.562,130.055 C17.504,129.95 17.448,129.848 17.397,129.743 C17.292,129.538 17.2,129.329 17.111,129.13 C16.937,128.726 16.766,128.354 16.603,128.014 C16.442,127.674 16.302,127.357 16.191,127.073 C16.075,126.79 15.985,126.538 15.917,126.328 C15.844,126.118 15.799,125.949 15.765,125.834 C15.731,125.716 15.714,125.652 15.714,125.652 C15.711,125.64 15.701,125.632 15.689,125.631 C15.673,125.629 15.658,125.64 15.656,125.657 C15.656,125.657 15.649,125.721 15.636,125.843 C15.629,125.967 15.623,126.152 15.641,126.383 C15.659,126.613 15.702,126.893 15.779,127.207 C15.819,127.363 15.87,127.527 15.926,127.699 C15.984,127.87 16.055,128.045 16.131,128.228 C16.288,128.591 16.497,128.966 16.763,129.329 C17.033,129.691 17.319,130.073 17.614,130.467 C17.799,130.64 17.987,130.794 18.171,130.966 C18.354,131.138 18.539,131.312 18.725,131.489 C19.1,131.836 19.508,132.149 19.901,132.473 C20.102,132.632 20.299,132.791 20.499,132.938 C20.597,133.012 20.692,133.092 20.778,133.164 C20.802,133.181 20.819,133.199 20.839,133.217 C20.85,133.225 20.855,133.231 20.862,133.238 C20.852,133.293 20.807,133.382 20.749,133.456 C20.688,133.537 20.613,133.612 20.531,133.681 C20.367,133.821 20.173,133.927 19.969,134.005 C19.56,134.159 19.116,134.19 18.7,134.147 C18.283,134.103 17.892,133.989 17.541,133.855 C17.19,133.72 16.879,133.562 16.607,133.413 C16.338,133.26 16.109,133.113 15.924,132.987 C15.864,132.945 15.81,132.907 15.758,132.871 C15.618,132.744 15.481,132.615 15.353,132.478 C14.958,132.06 14.616,131.614 14.292,131.186 C13.97,130.755 13.697,130.313 13.465,129.884 C13.233,129.455 13.029,129.039 12.866,128.643 C12.697,128.25 12.565,127.878 12.457,127.543 C12.345,127.209 12.268,126.911 12.2,126.664 C12.135,126.417 12.083,126.219 12.056,126.085 C12.021,125.95 12.003,125.878 12.003,125.878 L12.003,125.877 C12,125.865 11.989,125.855 11.976,125.854 C11.96,125.853 11.946,125.866 11.945,125.882 C11.945,125.882 11.94,125.957 11.932,126.096 C11.926,126.236 11.923,126.441 11.929,126.704 C11.942,126.966 11.965,127.285 12.026,127.647 C12.087,128.009 12.181,128.415 12.324,128.848 C12.471,129.278 12.665,129.735 12.928,130.188 C13.192,130.637 13.517,131.085 13.888,131.511 C14.258,131.941 14.704,132.324 15.169,132.68 C15.635,133.034 16.107,133.392 16.58,133.751 C16.815,133.924 17.031,134.11 17.188,134.333 C17.266,134.44 17.325,134.561 17.339,134.666 C17.35,134.772 17.321,134.823 17.249,134.872 C17.174,134.922 17.054,134.951 16.93,134.964 C16.805,134.979 16.673,134.978 16.541,134.972 C16.275,134.954 16.006,134.921 15.744,134.87 C15.48,134.824 15.219,134.768 14.968,134.709 C14.706,134.651 14.477,134.593 14.26,134.506 C13.989,134.395 13.744,134.249 13.522,134.085 C13.409,133.937 13.295,133.792 13.187,133.643 C12.934,133.307 12.696,132.962 12.461,132.617 L11.772,131.582 L11.098,130.554 C10.874,130.215 10.674,129.86 10.476,129.507 C10.378,129.328 10.285,129.148 10.198,128.966 C10.114,128.782 10.023,128.6 9.946,128.413 C9.866,128.227 9.798,128.037 9.727,127.846 C9.658,127.655 9.601,127.461 9.546,127.264 C9.489,127.067 9.447,126.867 9.406,126.664 C9.368,126.46 9.334,126.256 9.312,126.044 C9.309,126.024 9.294,126.006 9.273,126.002 C9.247,125.995 9.221,126.013 9.215,126.039 C9.167,126.247 9.133,126.463 9.117,126.679 C9.099,126.896 9.102,127.114 9.109,127.332 C9.136,127.768 9.206,128.204 9.321,128.626 C9.379,128.836 9.438,129.047 9.517,129.251 C9.592,129.456 9.674,129.658 9.761,129.858 C9.934,130.258 10.147,130.636 10.365,131.009 C10.586,131.382 10.831,131.738 11.103,132.071 C11.236,132.239 11.374,132.403 11.519,132.561 C11.662,132.72 11.809,132.877 11.959,133.028 C12.066,133.138 12.176,133.246 12.286,133.352 C12.44,133.591 12.625,133.837 12.847,134.083 C13.043,134.293 13.274,134.504 13.544,134.685 C13.423,134.776 13.254,134.854 13.087,134.884 C12.895,134.923 12.694,134.924 12.495,134.893 C12.096,134.831 11.715,134.65 11.369,134.425 C11.022,134.195 10.705,133.92 10.41,133.62 C10.117,133.321 9.837,133.003 9.583,132.668 C9.337,132.33 9.104,131.983 8.885,131.632 C8.667,131.28 8.466,130.917 8.305,130.55 C8.222,130.368 8.15,130.184 8.097,130.005 C8.042,129.814 7.978,129.594 7.916,129.393 C7.797,128.991 7.671,128.591 7.562,128.187 C7.451,127.784 7.339,127.374 7.237,126.957 C7.133,126.544 7.013,126.119 6.916,125.711 C6.852,125.313 6.806,124.878 6.771,124.457 C6.734,124.032 6.711,123.606 6.694,123.178 C6.667,122.325 6.681,121.469 6.742,120.614 C6.773,120.187 6.815,119.76 6.872,119.335 L6.967,118.698 L7.083,118.063 L7.084,118.06 C7.088,118.036 7.074,118.011 7.049,118.005 C7.024,117.998 6.997,118.012 6.99,118.038 L6.808,118.663 C6.75,118.872 6.702,119.085 6.651,119.295 C6.558,119.718 6.473,120.146 6.409,120.577 C6.344,121.008 6.291,121.44 6.251,121.874 C6.235,122.054 6.223,122.234 6.211,122.414 C6.206,122.427 6.199,122.442 6.191,122.456 C6.103,122.647 5.953,122.927 5.746,123.261 C5.638,123.426 5.519,123.606 5.38,123.798 C5.239,123.986 5.083,124.185 4.91,124.393 C4.823,124.498 4.73,124.602 4.632,124.708 C4.538,124.816 4.437,124.925 4.332,125.033 C4.12,125.25 3.885,125.466 3.644,125.692 C3.521,125.803 3.4,125.923 3.268,126.033 C3.14,126.147 3.009,126.264 2.868,126.373 C2.731,126.486 2.586,126.592 2.435,126.687 C2.284,126.781 2.123,126.866 1.967,126.905 C1.927,126.916 1.895,126.92 1.855,126.924 L1.704,126.925 C1.608,126.922 1.516,126.915 1.419,126.903 C1.231,126.88 1.041,126.835 0.901,126.739 C0.759,126.646 0.698,126.503 0.717,126.323 C0.738,126.144 0.823,125.956 0.925,125.776 C1.129,125.41 1.448,125.116 1.701,124.692 C1.944,124.3 2.164,123.893 2.379,123.485 C2.594,123.079 2.81,122.668 3.03,122.288 C3.085,122.195 3.144,122.099 3.199,122.022 C3.228,121.981 3.255,121.943 3.28,121.916 L3.339,121.845 C3.357,121.821 3.372,121.806 3.402,121.758 C3.463,121.668 3.487,121.618 3.522,121.556 C3.552,121.499 3.583,121.439 3.608,121.383 C3.664,121.27 3.71,121.159 3.758,121.048 C4.125,120.164 4.427,119.289 4.75,118.439 C4.908,118.014 5.063,117.595 5.228,117.2 C5.309,117.004 5.394,116.807 5.481,116.651 C5.504,116.614 5.525,116.575 5.544,116.549 L5.558,116.526 C5.562,116.521 5.536,116.552 5.55,116.535 L5.557,116.527 L5.569,116.51 L5.595,116.478 L5.608,116.464 C5.618,116.451 5.655,116.415 5.684,116.385 C5.717,116.355 5.75,116.324 5.787,116.293 C6.084,116.045 6.437,115.797 6.778,115.561 C7.122,115.323 7.458,115.081 7.787,114.838 C8.109,114.586 8.426,114.337 8.702,114.031 C8.771,113.952 8.837,113.874 8.898,113.782 L8.91,113.765 L8.916,113.758 L8.944,113.713 L8.96,113.67 C8.967,113.647 8.975,113.624 8.98,113.601 L8.99,113.559 L9.018,113.42 C9.042,113.286 9.064,113.156 9.087,113.026 C9.133,112.854 9.186,112.65 9.246,112.403 C9.431,111.622 9.692,110.473 9.988,109.005 C10.281,107.535 10.606,105.745 10.932,103.683 C11.092,102.652 11.257,101.547 11.415,100.401 C11.577,99.26 11.797,98.066 12.075,96.828 C12.355,95.591 12.667,94.304 13.035,92.981 C13.395,91.657 13.812,90.298 14.226,88.892 C14.641,87.487 15.086,86.046 15.508,84.553 C15.715,83.805 15.918,83.047 16.102,82.27 C16.286,81.49 16.451,80.706 16.564,79.867 C16.597,79.649 16.609,79.475 16.634,79.252 C16.65,79.05 16.667,78.848 16.683,78.645 C16.714,78.242 16.75,77.837 16.775,77.428 C16.833,76.614 16.883,75.794 16.93,74.969 C17.011,73.323 17.094,71.659 17.177,69.981 C17.272,68.309 17.396,66.632 17.625,64.957 C17.85,63.279 18.18,61.62 18.583,59.959 C18.68,59.544 18.78,59.132 18.888,58.714 C18.985,58.295 19.083,57.876 19.16,57.453 C19.321,56.607 19.442,55.759 19.548,54.912 C19.653,54.066 19.736,53.219 19.833,52.377 C19.876,51.956 19.92,51.535 19.963,51.115 C20.007,50.694 20.043,50.275 20.111,49.871 C20.246,49.055 20.467,48.26 20.792,47.513 C20.956,47.141 21.142,46.781 21.354,46.438 C21.561,46.093 21.794,45.765 22.046,45.456 C23.05,44.213 24.367,43.275 25.788,42.691 C26.498,42.4 27.239,42.192 27.973,42.081 C28.168,42.051 28.363,42.02 28.557,41.991 C28.755,41.961 28.953,41.927 29.151,41.884 C29.349,41.844 29.546,41.802 29.741,41.751 C29.937,41.704 30.131,41.65 30.323,41.591 C31.094,41.363 31.811,41.054 32.503,40.772 C33.195,40.486 33.881,40.23 34.561,39.978 C35.924,39.485 37.28,39.076 38.599,38.71 C39.265,38.527 39.921,38.346 40.564,38.171 C41.211,37.99 41.845,37.799 42.463,37.591 C43.081,37.381 43.681,37.154 44.259,36.859 C44.547,36.708 44.831,36.545 45.096,36.326 C45.359,36.114 45.614,35.824 45.745,35.469 C45.779,35.383 45.803,35.295 45.822,35.208 C45.832,35.164 45.839,35.115 45.847,35.07 L45.86,34.954 C45.87,34.802 45.88,34.652 45.89,34.502 C45.894,34.211 45.903,33.922 45.895,33.643 C45.887,33.083 45.863,32.544 45.836,32.021 C45.728,29.932 45.544,28.124 45.398,26.635 C45.295,25.657 45.199,24.822 45.115,24.136 C45.149,24.211 45.185,24.287 45.22,24.36 C45.318,24.555 45.416,24.749 45.511,24.939 C45.612,25.135 45.712,25.317 45.811,25.502 C46.005,25.871 46.21,26.221 46.405,26.562 C46.799,27.242 47.203,27.858 47.561,28.424 C47.919,28.989 48.192,29.53 48.362,30.055 C48.532,30.58 48.639,31.067 48.717,31.494 C48.801,31.919 48.848,32.286 48.896,32.582 C48.974,33.177 49.016,33.495 49.016,33.495 C49.016,33.495 48.996,33.176 48.958,32.576 C48.931,32.277 48.909,31.906 48.853,31.472 C48.807,31.039 48.729,30.54 48.583,29.989 C48.44,29.438 48.182,28.848 47.851,28.254 C47.522,27.658 47.149,27.036 46.793,26.347 C46.616,26.003 46.431,25.648 46.256,25.274 C46.169,25.09 46.075,24.899 45.99,24.712 C45.903,24.517 45.815,24.32 45.726,24.12 C45.384,23.326 45.05,22.481 44.756,21.579 C44.468,20.676 44.221,19.72 44.028,18.719 C43.832,17.72 43.693,16.675 43.625,15.594 C43.556,14.514 43.537,13.4 43.601,12.263 C43.608,11.979 43.633,11.693 43.655,11.407 C43.68,11.12 43.69,10.831 43.726,10.542 C43.756,10.254 43.786,9.963 43.817,9.671 L43.822,9.616 L43.825,9.594 C43.826,9.589 43.827,9.578 43.828,9.577 L43.845,9.467 L43.878,9.245 L43.913,9.023 L43.957,8.821 C43.989,8.686 44.009,8.553 44.051,8.417 L44.167,8.007 C44.261,7.738 44.353,7.469 44.473,7.209 C44.704,6.686 44.993,6.186 45.335,5.72 C46.02,4.786 46.926,4.002 47.943,3.371 C48.963,2.742 50.1,2.27 51.283,1.949 C52.461,1.629 53.709,1.451 54.91,1.448 C56.148,1.452 57.369,1.627 58.556,1.947 C59.739,2.267 60.877,2.737 61.897,3.364 C62.914,3.995 63.821,4.778 64.506,5.713 C65.189,6.645 65.666,7.71 65.888,8.822 L65.933,9.03 L65.964,9.24 C65.983,9.379 66.012,9.523 66.025,9.656 C66.056,9.952 66.087,10.246 66.117,10.539 C66.153,10.835 66.163,11.116 66.188,11.403 C66.21,11.687 66.234,11.97 66.242,12.256 C66.306,13.392 66.287,14.507 66.217,15.587 C66.148,16.667 66.01,17.713 65.813,18.712 C65.621,19.713 65.374,20.668 65.085,21.57 C64.496,23.371 63.761,24.964 63.047,26.339 C62.691,27.028 62.318,27.649 61.99,28.245 C61.658,28.84 61.401,29.43 61.258,29.981 C61.112,30.532 61.034,31.03 60.987,31.464 C60.932,31.898 60.91,32.268 60.883,32.568 C60.846,33.168 60.826,33.487 60.826,33.487 C60.826,33.487 60.868,33.17 60.946,32.574 C60.994,32.279 61.041,31.911 61.125,31.486 C61.203,31.059 61.31,30.573 61.48,30.048 C61.649,29.522 61.923,28.982 62.281,28.417 C62.64,27.85 63.042,27.235 63.438,26.555 C63.833,25.871 64.234,25.145 64.624,24.35 C64.659,24.278 64.692,24.204 64.727,24.132 C64.642,24.816 64.547,25.651 64.443,26.627 C64.297,28.117 64.114,29.924 64.006,32.012 C63.978,32.535 63.955,33.075 63.946,33.635 C63.938,33.915 63.947,34.203 63.951,34.494 C63.961,34.643 63.971,34.794 63.981,34.946 L63.994,35.062 C64.002,35.106 64.01,35.156 64.02,35.199 C64.039,35.286 64.063,35.375 64.096,35.462 C64.227,35.817 64.482,36.106 64.745,36.318 C65.011,36.536 65.294,36.7 65.582,36.85 C66.16,37.145 66.761,37.374 67.379,37.584 C67.996,37.792 68.63,37.982 69.277,38.163 C69.92,38.339 70.576,38.518 71.243,38.702 C72.562,39.068 73.917,39.477 75.28,39.969 C75.96,40.221 76.646,40.478 77.338,40.764 C78.031,41.047 78.747,41.355 79.519,41.583 C79.71,41.642 79.903,41.696 80.1,41.743 C80.295,41.796 80.492,41.837 80.69,41.875 C80.888,41.919 81.086,41.954 81.285,41.982 C81.479,42.012 81.673,42.043 81.868,42.072 C82.602,42.184 83.343,42.391 84.053,42.682 C85.474,43.266 86.791,44.205 87.795,45.448 C88.047,45.758 88.28,46.085 88.487,46.43 C88.699,46.773 88.886,47.134 89.049,47.506 C89.375,48.252 89.595,49.048 89.73,49.862 C89.799,50.267 89.834,50.685 89.878,51.107 C89.921,51.527 89.965,51.948 90.008,52.368 C90.105,53.211 90.188,54.057 90.294,54.904 C90.399,55.75 90.521,56.599 90.681,57.444 C90.758,57.868 90.856,58.287 90.953,58.706 C91.062,59.124 91.161,59.535 91.259,59.951 C91.661,61.612 91.991,63.27 92.216,64.949 C92.445,66.624 92.569,68.302 92.665,69.973 C92.747,71.651 92.83,73.315 92.912,74.962 C92.958,75.786 93.007,76.606 93.066,77.421 C93.092,77.829 93.127,78.233 93.159,78.638 C93.175,78.841 93.191,79.042 93.207,79.243 C93.232,79.467 93.244,79.641 93.277,79.859 C93.391,80.698 93.556,81.481 93.739,82.261 C93.923,83.038 94.126,83.799 94.333,84.545 C94.755,86.037 95.2,87.479 95.616,88.883 C96.03,90.29 96.447,91.649 96.806,92.973 C97.175,94.297 97.486,95.583 97.766,96.82 C98.044,98.058 98.264,99.253 98.426,100.393 C98.584,101.54 98.749,102.645 98.91,103.675 C99.235,105.736 99.56,107.527 99.854,108.995 C100.143,110.434 100.399,111.563 100.583,112.343 C100.612,112.522 100.642,112.703 100.672,112.889 C100.702,113.062 100.733,113.239 100.766,113.42 L100.793,113.559 L100.803,113.601 C100.809,113.624 100.816,113.647 100.824,113.67 L100.84,113.713 L100.868,113.758 L100.874,113.765 L100.885,113.782 C100.946,113.874 101.013,113.952 101.081,114.031 C101.358,114.337 101.674,114.586 101.996,114.838 C102.324,115.081 102.662,115.323 103.005,115.561 C103.346,115.797 103.699,116.045 103.996,116.293 C104.034,116.324 104.066,116.355 104.1,116.385 C104.129,116.415 104.166,116.451 104.175,116.464 L104.188,116.478 L104.214,116.51 L104.227,116.527 L104.233,116.535 C104.247,116.552 104.222,116.521 104.225,116.526 L104.239,116.549 C104.258,116.575 104.28,116.614 104.301,116.651 C104.389,116.807 104.474,117.004 104.556,117.2 C104.72,117.595 104.875,118.014 105.033,118.439 C105.356,119.289 105.659,120.164 106.025,121.048 C106.073,121.159 106.119,121.27 106.175,121.383 C106.2,121.439 106.231,121.499 106.261,121.556 C106.295,121.618 106.32,121.668 106.381,121.758 C106.412,121.806 106.426,121.821 106.445,121.845 L106.503,121.916 C106.528,121.943 106.557,121.981 106.585,122.022 C106.64,122.099 106.698,122.195 106.754,122.288 C106.974,122.668 107.189,123.079 107.404,123.485 C107.619,123.893 107.839,124.3 108.083,124.692 C108.335,125.116 108.654,125.41 108.858,125.776 C108.96,125.956 109.045,126.144 109.067,126.323 C109.085,126.503 109.024,126.646 108.882,126.739 Z M44.566,24.958 C44.409,24.926 44.244,24.863 44.093,24.74 C43.942,24.618 43.795,24.441 43.658,24.213 C43.38,23.756 43.137,23.121 42.819,22.443 C42.66,22.103 42.5,21.744 42.356,21.37 C42.21,20.997 42.069,20.614 41.925,20.228 C41.786,19.845 41.625,19.458 41.487,19.086 C41.353,18.715 41.243,18.343 41.162,17.981 C41.083,17.62 41.039,17.263 41.057,16.936 C41.074,16.608 41.161,16.308 41.329,16.094 C41.494,15.878 41.732,15.754 41.957,15.693 C42.184,15.632 42.397,15.622 42.571,15.626 C42.641,15.628 42.704,15.632 42.761,15.638 C42.762,15.646 42.762,15.655 42.763,15.664 C42.954,17.893 43.47,19.964 44.126,21.795 C44.342,22.38 44.573,22.94 44.813,23.479 C44.84,23.898 44.873,24.402 44.908,24.982 C44.817,24.985 44.698,24.982 44.566,24.958 Z M67.283,15.782 C67.449,15.819 67.644,15.872 67.823,15.957 C68.004,16.043 68.149,16.163 68.247,16.311 C68.343,16.462 68.432,16.669 68.498,16.957 C68.566,17.242 68.577,17.589 68.536,17.949 C68.5,18.309 68.425,18.687 68.339,19.072 C68.24,19.46 68.111,19.854 68,20.248 C67.771,21.035 67.55,21.822 67.301,22.542 C67.053,23.259 66.778,23.918 66.427,24.397 C66.251,24.635 66.055,24.822 65.85,24.934 C65.646,25.048 65.438,25.081 65.269,25.076 C65.129,25.071 65.015,25.048 64.93,25.024 C64.966,24.424 65,23.904 65.028,23.473 C65.268,22.934 65.498,22.374 65.715,21.786 C66.363,19.979 66.873,17.938 67.069,15.741 C67.133,15.752 67.205,15.765 67.283,15.782 Z M109.355,126.293 C109.329,126.044 109.232,125.829 109.125,125.628 C109.013,125.428 108.894,125.235 108.765,125.05 C108.736,125.007 108.695,124.953 108.673,124.917 L108.583,124.776 C108.534,124.682 108.485,124.596 108.438,124.495 C108.249,124.103 108.1,123.676 107.944,123.247 C107.788,122.816 107.644,122.377 107.442,121.931 C107.39,121.819 107.342,121.707 107.271,121.59 C107.238,121.532 107.204,121.473 107.155,121.41 L107.121,121.362 L107.104,121.341 C107.086,121.317 107.119,121.358 107.114,121.35 L107.107,121.342 C107.092,121.319 107.07,121.288 107.073,121.285 C107.071,121.278 107.044,121.222 107.026,121.181 L106.967,121.037 L106.852,120.726 C106.702,120.301 106.565,119.858 106.427,119.418 C106.285,118.974 106.143,118.533 106.003,118.095 C105.853,117.657 105.695,117.223 105.51,116.793 C105.413,116.576 105.315,116.364 105.181,116.137 C105.145,116.079 105.111,116.023 105.064,115.961 L105.03,115.916 L105.01,115.89 L105.003,115.883 L104.99,115.867 L104.962,115.836 L104.919,115.791 C104.854,115.723 104.809,115.686 104.757,115.641 C104.707,115.6 104.657,115.559 104.608,115.524 C104.218,115.234 103.838,115.031 103.47,114.818 C103.102,114.61 102.739,114.423 102.399,114.226 C102.057,114.037 101.73,113.842 101.455,113.634 C101.388,113.583 101.322,113.529 101.269,113.474 L101.264,113.47 C101.264,113.47 101.263,113.468 101.264,113.468 C101.266,113.469 101.267,113.47 101.267,113.47 C101.267,113.473 101.262,113.454 101.259,113.446 L101.227,113.319 C101.186,113.143 101.145,112.971 101.105,112.802 C100.922,111.997 100.758,111.272 100.617,110.649 C100.552,110.13 100.482,109.55 100.406,108.908 C100.228,107.425 100.022,105.625 99.805,103.557 C99.751,103.042 99.696,102.508 99.64,101.96 C99.584,101.406 99.539,100.849 99.466,100.258 C99.328,99.083 99.134,97.855 98.881,96.587 C98.633,95.316 98.318,94.007 97.969,92.663 C97.615,91.318 97.235,89.935 96.807,88.528 C96.384,87.12 95.943,85.678 95.515,84.207 C95.299,83.472 95.087,82.729 94.897,81.977 C94.707,81.23 94.535,80.46 94.421,79.714 C94.39,79.537 94.369,79.309 94.346,79.134 C94.326,78.935 94.306,78.736 94.286,78.536 C94.248,78.137 94.205,77.736 94.172,77.332 C94.1,76.525 94.035,75.712 93.974,74.892 C93.851,73.253 93.748,71.587 93.589,69.903 C93.436,68.221 93.213,66.524 92.9,64.839 C92.587,63.157 92.188,61.474 91.712,59.833 L91.364,58.601 C91.259,58.19 91.153,57.78 91.068,57.366 C91.021,57.16 90.979,56.952 90.943,56.743 C90.905,56.535 90.863,56.327 90.831,56.118 C90.771,55.698 90.701,55.28 90.651,54.858 C90.54,54.017 90.447,53.174 90.364,52.334 C90.325,51.912 90.287,51.491 90.248,51.071 C90.21,50.652 90.172,50.231 90.118,49.805 C90.003,48.958 89.796,48.121 89.481,47.328 C89.329,46.929 89.151,46.54 88.946,46.167 C88.745,45.791 88.514,45.431 88.263,45.089 C87.26,43.712 85.894,42.632 84.386,41.927 C83.629,41.575 82.843,41.312 82.028,41.147 C81.835,41.11 81.643,41.073 81.451,41.036 C81.264,41.003 81.078,40.966 80.896,40.921 C80.712,40.88 80.531,40.836 80.354,40.783 C80.173,40.737 79.996,40.682 79.821,40.622 C79.121,40.389 78.434,40.096 77.732,39.806 C77.033,39.516 76.332,39.236 75.63,38.992 C74.225,38.503 72.84,38.104 71.493,37.747 C70.823,37.581 70.165,37.418 69.519,37.258 C68.877,37.096 68.253,36.927 67.651,36.741 C67.053,36.552 66.468,36.359 65.944,36.115 C65.425,35.872 64.946,35.572 64.792,35.188 C64.77,35.138 64.755,35.087 64.74,35.033 L64.722,34.958 C64.717,34.926 64.708,34.878 64.707,34.86 C64.694,34.724 64.682,34.589 64.669,34.455 C64.656,34.178 64.636,33.907 64.635,33.633 C64.622,33.087 64.625,32.552 64.633,32.034 C64.671,29.961 64.76,28.148 64.839,26.658 C64.866,26.106 64.896,25.6 64.922,25.139 C65.009,25.167 65.122,25.197 65.26,25.211 C65.446,25.229 65.688,25.21 65.93,25.094 C66.174,24.983 66.406,24.786 66.61,24.541 C67.018,24.048 67.338,23.383 67.635,22.668 C67.93,21.95 68.202,21.173 68.473,20.399 C68.61,20.011 68.735,19.627 68.885,19.247 C69.044,18.864 69.174,18.472 69.269,18.076 C69.36,17.679 69.434,17.279 69.431,16.863 C69.431,16.452 69.3,15.999 68.994,15.678 C68.846,15.518 68.668,15.401 68.493,15.328 C68.318,15.25 68.146,15.222 67.993,15.206 C67.684,15.183 67.437,15.24 67.246,15.302 C67.193,15.32 67.146,15.339 67.101,15.357 C67.184,14.338 67.225,13.29 67.193,12.222 C67.192,11.928 67.175,11.633 67.16,11.335 C67.143,11.039 67.133,10.734 67.103,10.444 C67.077,10.15 67.051,9.855 67.024,9.559 C67.01,9.396 66.984,9.246 66.965,9.089 L66.932,8.854 L66.886,8.622 C66.659,7.376 66.138,6.15 65.378,5.079 C64.621,4.004 63.609,3.108 62.488,2.413 C61.365,1.713 60.132,1.199 58.857,0.845 C57.584,0.495 56.25,0.296 54.929,0.287 C53.567,0.298 52.262,0.497 50.98,0.848 C49.706,1.204 48.473,1.719 47.352,2.419 C46.23,3.116 45.22,4.012 44.462,5.087 C44.081,5.622 43.762,6.197 43.509,6.793 C43.379,7.09 43.278,7.395 43.179,7.7 L43.055,8.164 C43.011,8.317 42.986,8.481 42.953,8.639 L42.906,8.877 L42.875,9.099 L42.83,9.432 L42.824,9.475 L42.822,9.504 L42.817,9.56 C42.79,9.86 42.764,10.159 42.737,10.457 C42.707,10.754 42.697,11.052 42.68,11.347 C42.665,11.642 42.647,11.936 42.647,12.23 C42.614,13.344 42.659,14.439 42.75,15.501 C42.699,15.492 42.644,15.483 42.583,15.475 C42.4,15.454 42.172,15.44 41.91,15.485 C41.652,15.533 41.348,15.654 41.114,15.912 C40.878,16.168 40.747,16.529 40.696,16.899 C40.645,17.273 40.663,17.665 40.715,18.059 C40.767,18.454 40.859,18.852 40.971,19.25 C41.082,19.644 41.176,20.036 41.285,20.433 C41.393,20.831 41.5,21.228 41.606,21.619 C41.715,22.01 41.814,22.402 41.928,22.781 C42.155,23.536 42.505,24.225 42.988,24.741 C43.111,24.867 43.24,24.982 43.377,25.081 C43.515,25.177 43.664,25.251 43.81,25.304 C44.104,25.411 44.389,25.4 44.589,25.345 C44.732,25.308 44.84,25.257 44.923,25.21 C44.949,25.655 44.976,26.139 45.003,26.666 C45.081,28.157 45.17,29.969 45.208,32.042 C45.216,32.559 45.22,33.094 45.207,33.64 C45.206,33.915 45.185,34.186 45.172,34.463 C45.16,34.597 45.147,34.731 45.134,34.868 C45.133,34.885 45.124,34.934 45.119,34.966 L45.101,35.042 C45.086,35.095 45.07,35.147 45.049,35.196 C44.896,35.58 44.416,35.88 43.897,36.123 C43.372,36.367 42.788,36.56 42.19,36.749 C41.588,36.934 40.964,37.104 40.323,37.265 C39.677,37.426 39.018,37.589 38.349,37.755 C37.001,38.112 35.617,38.51 34.212,39 C33.51,39.243 32.808,39.524 32.108,39.813 C31.408,40.104 30.72,40.397 30.021,40.631 C29.845,40.69 29.668,40.745 29.488,40.791 C29.311,40.844 29.128,40.888 28.945,40.928 C28.763,40.973 28.578,41.01 28.39,41.044 C28.198,41.081 28.006,41.118 27.813,41.155 C26.999,41.32 26.212,41.583 25.456,41.935 C23.947,42.639 22.582,43.72 21.579,45.096 C21.327,45.439 21.097,45.799 20.896,46.175 C20.69,46.548 20.512,46.937 20.36,47.337 C20.045,48.13 19.839,48.966 19.724,49.812 C19.669,50.239 19.631,50.66 19.594,51.079 C19.555,51.499 19.516,51.92 19.477,52.342 C19.395,53.182 19.301,54.025 19.19,54.866 C19.14,55.288 19.069,55.705 19.01,56.126 C18.978,56.335 18.936,56.543 18.898,56.751 C18.861,56.96 18.821,57.168 18.773,57.374 C18.688,57.789 18.583,58.198 18.478,58.609 L18.13,59.842 C17.654,61.481 17.254,63.165 16.941,64.846 C16.628,66.532 16.406,68.229 16.252,69.912 C16.094,71.594 15.991,73.26 15.868,74.9 C15.806,75.719 15.742,76.533 15.669,77.341 C15.636,77.744 15.594,78.144 15.555,78.545 C15.535,78.744 15.516,78.943 15.496,79.142 C15.473,79.318 15.451,79.545 15.421,79.721 C15.307,80.467 15.134,81.239 14.944,81.987 C14.754,82.737 14.542,83.48 14.326,84.216 C13.898,85.686 13.457,87.128 13.034,88.536 C12.606,89.944 12.226,91.327 11.873,92.671 C11.522,94.015 11.209,95.324 10.96,96.594 C10.708,97.863 10.513,99.091 10.375,100.266 C10.303,100.857 10.256,101.414 10.201,101.967 C10.145,102.516 10.09,103.05 10.036,103.565 C9.818,105.633 9.614,107.433 9.435,108.916 C9.386,109.33 9.34,109.716 9.295,110.079 C9.129,110.812 8.92,111.736 8.678,112.802 C8.639,112.971 8.598,113.143 8.556,113.319 L8.523,113.446 C8.522,113.454 8.517,113.473 8.517,113.47 C8.517,113.47 8.518,113.469 8.52,113.468 L8.52,113.47 L8.515,113.474 C8.461,113.529 8.395,113.583 8.329,113.634 C8.053,113.842 7.726,114.037 7.384,114.226 C7.044,114.423 6.681,114.61 6.313,114.818 C5.945,115.031 5.565,115.234 5.176,115.524 C5.126,115.559 5.076,115.6 5.026,115.641 C4.975,115.686 4.93,115.723 4.864,115.791 L4.821,115.836 L4.794,115.867 L4.779,115.883 L4.773,115.89 L4.752,115.916 L4.719,115.961 C4.672,116.023 4.638,116.079 4.603,116.137 C4.468,116.364 4.37,116.576 4.273,116.793 C4.087,117.223 3.93,117.657 3.781,118.095 C3.641,118.533 3.499,118.974 3.356,119.418 C3.219,119.858 3.081,120.301 2.932,120.726 L2.816,121.037 L2.757,121.181 C2.739,121.222 2.712,121.278 2.711,121.285 C2.714,121.288 2.691,121.319 2.675,121.342 L2.669,121.35 C2.664,121.358 2.697,121.317 2.679,121.341 L2.662,121.362 L2.628,121.41 C2.58,121.473 2.544,121.532 2.513,121.59 C2.441,121.707 2.393,121.819 2.341,121.931 C2.14,122.377 1.996,122.816 1.839,123.247 C1.684,123.676 1.534,124.103 1.345,124.495 C1.298,124.596 1.25,124.682 1.2,124.776 L1.11,124.917 C1.088,124.953 1.048,125.007 1.019,125.05 C0.889,125.235 0.771,125.428 0.658,125.628 C0.551,125.829 0.454,126.044 0.427,126.293 C0.414,126.417 0.423,126.552 0.476,126.679 C0.528,126.804 0.618,126.912 0.719,126.987 C0.922,127.136 1.143,127.209 1.356,127.257 C1.462,127.281 1.572,127.299 1.678,127.312 L1.829,127.334 C1.89,127.339 1.958,127.345 2.017,127.342 C2.495,127.307 2.88,127.14 3.244,126.968 C3.604,126.789 3.922,126.573 4.208,126.342 C4.494,126.112 4.735,125.855 4.954,125.604 C5.063,125.478 5.167,125.354 5.263,125.229 C5.357,125.103 5.445,124.977 5.527,124.853 C5.609,124.729 5.685,124.607 5.755,124.488 C5.821,124.365 5.886,124.248 5.94,124.131 C6.034,123.949 6.104,123.77 6.165,123.603 C6.16,123.898 6.158,124.194 6.168,124.49 C6.182,124.93 6.202,125.357 6.25,125.815 C6.293,126.258 6.329,126.681 6.381,127.118 C6.437,127.549 6.495,127.987 6.586,128.422 C6.672,128.858 6.793,129.286 6.927,129.709 C6.995,129.919 7.061,130.11 7.143,130.329 C7.227,130.559 7.327,130.772 7.436,130.975 C7.655,131.383 7.904,131.761 8.174,132.121 C8.445,132.479 8.74,132.816 9.069,133.124 C9.391,133.431 9.712,133.734 10.063,134.009 C10.411,134.286 10.78,134.54 11.173,134.754 C11.374,134.856 11.575,134.956 11.789,135.034 C12.002,135.11 12.225,135.165 12.453,135.196 C12.681,135.227 12.918,135.221 13.148,135.171 C13.361,135.121 13.56,135.047 13.75,134.898 C13.771,134.893 13.792,134.886 13.821,134.869 C13.825,134.866 13.829,134.86 13.833,134.856 C13.909,134.896 13.986,134.934 14.067,134.969 C14.316,135.077 14.59,135.153 14.846,135.216 C15.111,135.278 15.381,135.333 15.663,135.376 C15.944,135.412 16.234,135.443 16.537,135.433 C16.688,135.427 16.842,135.415 17.001,135.382 C17.158,135.344 17.325,135.296 17.481,135.168 C17.558,135.103 17.628,135.01 17.659,134.903 C17.691,134.796 17.684,134.688 17.66,134.597 C17.61,134.415 17.511,134.28 17.409,134.159 C17.394,134.141 17.376,134.125 17.36,134.107 C17.38,134.118 17.399,134.128 17.419,134.137 C17.776,134.307 18.187,134.46 18.647,134.537 C19.104,134.616 19.619,134.614 20.124,134.452 C20.375,134.372 20.624,134.252 20.849,134.081 C20.961,133.996 21.067,133.896 21.162,133.781 C21.255,133.662 21.345,133.535 21.392,133.341 C21.403,133.292 21.411,133.234 21.406,133.17 C21.404,133.137 21.398,133.1 21.387,133.063 C21.381,133.042 21.369,133.012 21.356,132.988 L21.344,132.967 L21.337,132.956 L21.334,132.951 L21.317,132.925 L21.308,132.913 L21.289,132.887 C21.277,132.871 21.263,132.853 21.252,132.84 C21.228,132.812 21.203,132.781 21.18,132.756 C21.084,132.649 20.984,132.561 20.886,132.472 C20.69,132.292 20.479,132.139 20.269,131.987 C20.213,131.948 20.158,131.913 20.102,131.875 C20.332,131.967 20.577,132.051 20.847,132.109 C21.071,132.152 21.307,132.189 21.586,132.135 C21.656,132.12 21.73,132.098 21.807,132.051 C21.882,132.006 21.964,131.945 22.021,131.815 L22.028,131.796 L22.032,131.786 C22.036,131.774 22.027,131.803 22.041,131.758 L22.042,131.757 L22.058,131.729 L22.095,131.662 L22.181,131.508 C22.293,131.29 22.404,131.043 22.446,130.753 C22.491,130.464 22.473,130.135 22.305,129.815 C22.28,129.768 22.283,129.772 22.248,129.715 C22.218,129.672 22.181,129.62 22.151,129.589 C22.088,129.52 22.029,129.47 21.97,129.422 C21.854,129.331 21.742,129.257 21.628,129.192 C21.402,129.06 21.179,128.948 20.957,128.836 C20.737,128.722 20.516,128.614 20.294,128.514 L20.127,128.44 L19.966,128.366 C19.91,128.346 19.832,128.259 19.769,128.173 C19.512,127.796 19.371,127.317 19.288,126.868 C19.205,126.412 19.206,125.956 19.19,125.529 C19.178,125.1 19.13,124.703 19.062,124.337 C19.017,124.077 18.969,123.833 18.919,123.608 C18.917,123.56 18.916,123.513 18.915,123.465 C18.91,123.334 18.908,123.198 18.896,123.058 C18.881,122.92 18.866,122.776 18.851,122.629 C18.814,122.337 18.762,122.027 18.709,121.723 C18.678,121.559 18.666,121.441 18.643,121.313 L18.635,121.265 L18.633,121.205 L18.628,121.083 L18.626,121.02 L18.625,121.008 L18.625,121.005 L18.635,120.889 C18.667,120.563 18.699,120.233 18.731,119.902 C18.755,119.562 18.776,119.217 18.774,118.877 C18.773,118.706 18.774,118.537 18.762,118.369 C18.753,118.2 18.746,118.035 18.724,117.871 C18.706,117.708 18.69,117.547 18.657,117.389 C18.628,117.233 18.605,117.081 18.562,116.932 C18.492,116.637 18.394,116.362 18.29,116.116 C18.232,115.995 18.178,115.879 18.123,115.771 C18.059,115.666 17.994,115.57 17.936,115.478 C17.881,115.387 17.816,115.305 17.75,115.235 C17.689,115.167 17.633,115.104 17.583,115.048 C17.58,115.028 17.578,115.009 17.576,114.989 C17.537,114.662 17.576,114.191 17.738,113.592 C17.902,112.995 18.162,112.27 18.47,111.435 C18.777,110.601 19.128,109.655 19.495,108.618 C19.675,108.1 19.862,107.562 20.056,107.005 C20.154,106.724 20.253,106.439 20.353,106.15 C20.458,105.869 20.564,105.584 20.672,105.295 C21.112,104.133 21.585,102.894 22.052,101.601 C22.519,100.308 22.98,98.956 23.455,97.585 C23.93,96.214 24.414,94.822 24.897,93.429 C25.38,92.038 25.854,90.64 26.258,89.239 C26.368,88.89 26.454,88.537 26.549,88.186 C26.596,88.011 26.643,87.837 26.689,87.663 L26.725,87.531 L26.761,87.409 L26.836,87.152 C26.933,86.807 27.041,86.479 27.148,86.157 C27.254,85.833 27.379,85.512 27.488,85.195 C27.958,83.93 28.442,82.739 29.009,81.64 C29.295,81.077 29.574,80.53 29.844,80 C29.911,79.859 29.979,79.725 30.041,79.577 C30.072,79.503 30.104,79.43 30.135,79.357 L30.217,79.157 C30.327,78.892 30.425,78.631 30.525,78.372 C30.911,77.323 31.205,76.342 31.414,75.446 C31.545,74.877 31.64,74.341 31.691,73.847 C31.756,74.026 31.821,74.203 31.887,74.382 C32.254,75.39 32.6,76.417 32.92,77.459 C33.088,77.977 33.237,78.504 33.39,79.03 C33.462,79.296 33.534,79.56 33.606,79.826 L33.708,80.216 C33.742,80.348 33.766,80.47 33.796,80.599 C34.012,81.669 34.216,82.775 34.389,83.877 C34.742,86.085 34.936,88.314 35.031,90.513 C35.126,92.713 35.142,94.882 35.242,96.973 C35.333,99.061 35.42,101.094 35.461,102.985 C35.464,103.212 35.466,103.465 35.455,103.639 L35.451,103.702 L35.448,103.722 L35.44,103.765 L35.409,103.94 C35.39,104.058 35.365,104.163 35.342,104.27 C35.246,104.717 35.15,105.156 35.057,105.588 C34.856,106.467 34.663,107.315 34.477,108.131 C34.292,108.948 34.115,109.731 33.947,110.476 C33.782,111.222 33.626,111.93 33.479,112.595 C33.334,113.261 33.201,113.885 33.076,114.462 C32.955,115.039 32.844,115.569 32.744,116.049 C32.359,117.951 32.138,119.045 32.135,119.063 L31.594,120.296 L31.087,121.55 L30.611,122.815 L30.159,124.088 C30.007,124.512 29.875,124.943 29.732,125.371 C29.59,125.798 29.454,126.227 29.322,126.658 C29.051,127.518 28.811,128.386 28.562,129.253 C28.326,130.122 28.085,130.991 27.877,131.868 L27.556,133.181 L27.254,134.499 C27.152,134.938 27.065,135.381 26.974,135.821 L26.705,137.147 C26.542,138.034 26.36,138.917 26.222,139.809 L26.007,141.143 L25.815,142.483 C25.753,142.93 25.701,143.378 25.651,143.827 L25.499,145.171 L25.382,146.519 L25.325,147.193 C25.307,147.425 25.296,147.643 25.283,147.87 L25.127,150.56 C25.073,151.457 25.052,152.36 25.012,153.258 C24.969,154.158 24.947,155.058 24.921,155.958 L24.896,156.632 L24.886,157.307 C24.882,157.757 24.867,158.207 24.871,158.657 C24.876,159.552 24.864,160.43 24.96,161.345 C24.862,162.647 24.764,163.948 24.655,165.25 L24.506,167.209 C24.483,167.538 24.462,167.863 24.446,168.198 C24.428,168.555 24.45,168.871 24.429,169.175 C24.356,170.433 24.052,171.706 23.815,172.995 C23.566,174.284 23.354,175.592 23.217,176.909 C23.076,178.225 23.01,179.551 22.998,180.875 C22.992,181.535 23.006,182.208 23.025,182.853 L23.063,184.815 C23.081,185.47 23.064,186.116 23.066,186.766 C23.067,187.416 23.077,188.064 23.066,188.717 L23.032,192.633 L22.948,200.475 L22.926,204.399 L22.935,208.329 L22.932,210.286 L22.89,212.242 L22.811,214.196 C22.781,214.848 22.738,215.5 22.702,216.151 L22.646,217.13 L22.568,218.106 L22.504,218.927 C22.482,218.931 22.456,218.935 22.426,218.94 C22.3,218.954 22.115,218.974 21.88,219.001 C21.644,219.025 21.358,219.065 21.033,219.128 C20.871,219.16 20.698,219.195 20.518,219.244 C20.338,219.294 20.155,219.37 19.965,219.459 C19.588,219.644 19.176,219.878 18.713,219.952 C18.495,219.992 18.267,219.975 18.015,219.94 C17.768,219.91 17.462,219.871 17.144,219.972 C16.828,220.068 16.558,220.268 16.348,220.483 C16.137,220.704 15.965,220.942 15.811,221.188 C15.733,221.31 15.658,221.433 15.588,221.558 L15.485,221.747 L15.46,221.796 L15.454,221.807 L15.441,221.833 L15.431,221.856 C15.417,221.889 15.404,221.913 15.385,221.964 C15.249,222.311 15.206,222.616 15.184,222.93 C15.144,223.548 15.219,224.133 15.332,224.694 C15.447,225.253 15.605,225.788 15.794,226.29 C15.98,226.793 16.189,227.267 16.419,227.701 C16.645,228.136 16.89,228.531 17.14,228.882 C17.637,229.582 18.175,230.085 18.616,230.343 C18.834,230.475 19.023,230.547 19.154,230.582 C19.22,230.6 19.27,230.612 19.305,230.616 C19.31,230.618 19.312,230.618 19.315,230.619 C19.326,230.633 19.343,230.645 19.363,230.647 C19.363,230.647 21.363,230.871 24.863,231.26 C25.739,231.352 26.71,231.451 27.77,231.538 C28.831,231.621 29.979,231.708 31.222,231.689 C31.843,231.673 32.489,231.643 33.161,231.476 C33.493,231.387 33.845,231.267 34.156,230.999 C34.3,230.866 34.407,230.771 34.538,230.636 C34.667,230.51 34.786,230.383 34.904,230.247 C35.378,229.712 35.793,229.065 36.029,228.312 C36.268,227.561 36.292,226.725 36.147,225.936 C36.006,225.144 35.74,224.387 35.455,223.644 C35.17,222.901 34.859,222.168 34.576,221.422 C34.297,220.675 34.048,219.912 33.879,219.126 C33.711,218.34 33.613,217.535 33.615,216.717 C33.617,216.512 33.625,216.306 33.636,216.101 L33.661,215.793 L33.69,215.466 C33.73,215.03 33.771,214.591 33.812,214.148 C33.895,213.266 33.974,212.37 34.041,211.463 C34.108,210.556 34.178,209.641 34.247,208.716 C34.307,207.793 34.358,206.855 34.437,205.931 C34.521,205.01 34.621,204.076 34.819,203.177 C35.021,202.268 35.283,201.346 35.558,200.421 C36.111,198.567 36.706,196.684 37.222,194.764 C37.488,193.807 37.722,192.834 37.968,191.87 C38.086,191.384 38.206,190.9 38.325,190.415 C38.456,189.933 38.588,189.453 38.719,188.969 C39.256,187.042 39.894,185.134 40.496,183.209 C41.115,181.288 41.643,179.319 41.993,177.319 C42.163,176.319 42.307,175.315 42.394,174.311 C42.442,173.809 42.49,173.307 42.511,172.806 L42.553,172.055 L42.564,171.868 L42.576,171.7 C42.585,171.578 42.592,171.449 42.604,171.332 C42.66,170.892 42.73,170.421 42.837,169.958 C42.937,169.494 43.063,169.031 43.195,168.571 C43.465,167.651 43.785,166.743 44.122,165.843 C44.798,164.047 45.553,162.29 46.279,160.551 C47.735,157.075 49.113,153.669 50.132,150.323 C50.383,149.484 50.619,148.655 50.82,147.826 C51.024,146.997 51.219,146.205 51.402,145.404 C51.771,143.813 52.109,142.276 52.418,140.794 C53.035,137.833 53.536,135.103 53.915,132.675 C54.005,132.065 54.093,131.476 54.177,130.909 C54.254,130.34 54.327,129.791 54.398,129.262 C54.522,128.206 54.634,127.234 54.706,126.354 C54.794,125.475 54.835,124.687 54.881,124.004 C54.899,123.669 54.911,123.359 54.921,123.074 C54.931,123.356 54.942,123.664 54.959,123.995 C55.006,124.679 55.048,125.467 55.135,126.345 C55.208,127.226 55.319,128.198 55.444,129.255 C55.514,129.782 55.588,130.331 55.664,130.901 C55.749,131.469 55.836,132.057 55.926,132.666 C56.305,135.095 56.806,137.824 57.423,140.786 C57.732,142.268 58.071,143.805 58.439,145.396 C58.622,146.197 58.816,146.989 59.021,147.817 C59.222,148.646 59.458,149.476 59.709,150.315 C60.729,153.661 62.106,157.066 63.563,160.544 C64.289,162.282 65.043,164.038 65.72,165.837 C66.057,166.735 66.376,167.643 66.646,168.563 C66.777,169.024 66.904,169.485 67.004,169.949 C67.11,170.412 67.182,170.884 67.237,171.324 C67.25,171.441 67.256,171.569 67.265,171.692 L67.278,171.859 L67.288,172.048 L67.33,172.798 C67.352,173.3 67.399,173.801 67.447,174.302 C67.534,175.307 67.679,176.31 67.848,177.311 C68.199,179.311 68.726,181.28 69.346,183.2 C69.948,185.127 70.585,187.034 71.122,188.963 C71.253,189.444 71.385,189.926 71.516,190.407 C71.636,190.892 71.755,191.378 71.874,191.861 C72.12,192.826 72.354,193.8 72.619,194.757 C73.135,196.675 73.73,198.559 74.284,200.412 C74.559,201.34 74.82,202.26 75.022,203.17 C75.22,204.067 75.32,205.003 75.403,205.923 C75.484,206.847 75.534,207.785 75.595,208.708 C75.664,209.633 75.732,210.549 75.8,211.455 C75.868,212.362 75.947,213.258 76.03,214.14 C76.07,214.583 76.111,215.021 76.15,215.458 L76.181,215.785 L76.205,216.094 C76.217,216.3 76.224,216.504 76.226,216.709 C76.229,217.526 76.129,218.333 75.962,219.118 C75.793,219.904 75.544,220.667 75.265,221.414 C74.982,222.16 74.671,222.892 74.386,223.636 C74.101,224.38 73.835,225.136 73.694,225.928 C73.55,226.717 73.574,227.553 73.812,228.304 C74.049,229.057 74.463,229.704 74.937,230.239 C75.056,230.375 75.175,230.503 75.303,230.629 C75.434,230.762 75.542,230.858 75.686,230.991 C75.996,231.259 76.348,231.38 76.681,231.467 C77.352,231.635 77.999,231.665 78.619,231.681 C79.862,231.699 81.011,231.612 82.071,231.53 C83.131,231.442 84.102,231.344 84.978,231.253 C88.478,230.863 90.479,230.639 90.479,230.639 C90.498,230.637 90.515,230.626 90.525,230.61 C90.529,230.61 90.532,230.61 90.537,230.608 C90.571,230.604 90.622,230.592 90.687,230.574 C90.818,230.539 91.007,230.467 91.226,230.335 C91.666,230.077 92.203,229.574 92.702,228.874 C92.952,228.523 93.197,228.129 93.422,227.692 C93.652,227.258 93.862,226.785 94.048,226.282 C94.236,225.78 94.394,225.246 94.51,224.686 C94.622,224.126 94.698,223.541 94.658,222.923 C94.636,222.608 94.592,222.303 94.457,221.956 C94.437,221.904 94.425,221.882 94.411,221.848 L94.399,221.825 L94.387,221.8 L94.381,221.788 L94.355,221.739 L94.253,221.55 C94.184,221.425 94.107,221.302 94.031,221.179 C93.876,220.935 93.704,220.696 93.494,220.475 C93.283,220.26 93.014,220.06 92.697,219.965 C92.38,219.863 92.073,219.903 91.826,219.933 C91.575,219.967 91.347,219.984 91.128,219.944 C90.666,219.87 90.253,219.636 89.876,219.451 C89.686,219.361 89.503,219.285 89.323,219.236 C89.144,219.187 88.971,219.152 88.809,219.12 C88.483,219.057 88.198,219.018 87.961,218.992 C87.726,218.967 87.542,218.946 87.416,218.932 C87.386,218.927 87.359,218.924 87.337,218.919 L87.273,218.098 L87.196,217.122 L87.14,216.143 C87.104,215.492 87.06,214.841 87.03,214.188 L86.951,212.233 L86.91,210.278 L86.907,208.321 L86.915,204.391 L86.893,200.467 L86.81,192.626 L86.774,188.71 C86.765,188.056 86.774,187.408 86.774,186.758 C86.777,186.108 86.761,185.462 86.778,184.806 L86.816,182.845 C86.836,182.201 86.849,181.527 86.843,180.868 C86.832,179.544 86.766,178.217 86.625,176.901 C86.486,175.584 86.276,174.276 86.026,172.987 C85.79,171.698 85.485,170.425 85.413,169.168 C85.391,168.863 85.414,168.548 85.396,168.19 C85.379,167.855 85.358,167.53 85.335,167.201 L85.187,165.242 C85.077,163.94 84.979,162.639 84.88,161.338 C84.978,160.423 84.965,159.545 84.97,158.649 C84.975,158.199 84.96,157.749 84.955,157.299 L84.944,156.624 L84.92,155.949 C84.894,155.05 84.872,154.15 84.829,153.251 C84.79,152.352 84.767,151.448 84.713,150.551 L84.559,147.861 C84.545,147.635 84.535,147.417 84.517,147.184 L84.458,146.51 L84.343,145.163 L84.19,143.818 C84.141,143.37 84.088,142.923 84.025,142.475 L83.834,141.135 L83.62,139.8 C83.481,138.909 83.3,138.025 83.136,137.138 L82.867,135.813 C82.776,135.373 82.689,134.93 82.587,134.491 L82.285,133.174 L81.964,131.86 C81.756,130.983 81.516,130.114 81.279,129.245 C81.031,128.378 80.791,127.51 80.52,126.65 C80.388,126.219 80.252,125.79 80.109,125.363 C79.966,124.935 79.834,124.506 79.683,124.08 L79.23,122.807 L78.754,121.543 L78.248,120.288 L77.707,119.055 C77.703,119.037 77.482,117.943 77.097,116.04 C76.997,115.562 76.886,115.031 76.766,114.454 C76.641,113.877 76.506,113.254 76.363,112.588 C76.216,111.923 76.06,111.215 75.894,110.468 C75.726,109.723 75.549,108.94 75.364,108.123 C75.179,107.308 74.985,106.459 74.784,105.579 C74.691,105.148 74.596,104.709 74.5,104.262 C74.477,104.155 74.452,104.05 74.433,103.932 L74.401,103.758 L74.394,103.714 L74.39,103.694 L74.387,103.632 C74.375,103.456 74.378,103.204 74.38,102.976 C74.421,101.087 74.508,99.054 74.6,96.966 C74.7,94.874 74.716,92.705 74.811,90.505 C74.906,88.305 75.099,86.077 75.453,83.869 C75.625,82.766 75.829,81.66 76.045,80.591 C76.075,80.463 76.099,80.341 76.133,80.207 L76.235,79.818 C76.308,79.552 76.379,79.288 76.451,79.022 C76.604,78.495 76.753,77.969 76.922,77.451 C77.242,76.409 77.588,75.383 77.955,74.375 C78.02,74.195 78.085,74.018 78.15,73.84 C78.202,74.332 78.296,74.869 78.427,75.437 C78.637,76.336 78.93,77.315 79.316,78.364 C79.417,78.623 79.514,78.884 79.624,79.149 L79.706,79.349 C79.738,79.422 79.769,79.495 79.8,79.568 C79.861,79.717 79.931,79.851 79.998,79.992 C80.268,80.522 80.546,81.069 80.833,81.632 C81.399,82.731 81.883,83.923 82.353,85.187 C82.463,85.505 82.587,85.825 82.693,86.148 C82.8,86.471 82.908,86.8 83.006,87.144 L83.117,87.523 L83.152,87.654 C83.199,87.829 83.245,88.004 83.292,88.178 C83.388,88.529 83.472,88.883 83.583,89.23 C83.988,90.632 84.461,92.03 84.944,93.422 C85.428,94.814 85.911,96.206 86.387,97.576 C86.861,98.947 87.322,100.3 87.79,101.593 C88.257,102.886 88.729,104.126 89.169,105.287 C89.276,105.576 89.383,105.861 89.488,106.141 C89.589,106.431 89.688,106.716 89.785,106.997 C89.979,107.554 90.167,108.092 90.347,108.61 C90.714,109.648 91.064,110.593 91.372,111.427 C91.679,112.261 91.939,112.987 92.103,113.585 C92.265,114.182 92.305,114.653 92.265,114.981 C92.264,114.999 92.262,115.013 92.26,115.03 C92.255,115.034 92.25,115.038 92.246,115.043 C92.194,115.1 92.137,115.164 92.074,115.234 C92.008,115.304 91.942,115.385 91.888,115.476 C91.829,115.569 91.766,115.666 91.699,115.769 C91.644,115.876 91.589,115.992 91.529,116.113 C91.425,116.358 91.324,116.632 91.252,116.926 C91.208,117.074 91.184,117.227 91.153,117.383 C91.119,117.54 91.102,117.701 91.083,117.864 C91.059,118.027 91.05,118.192 91.04,118.361 C91.026,118.53 91.025,118.698 91.023,118.87 C91.019,119.211 91.036,119.554 91.058,119.895 C91.084,120.235 91.118,120.575 91.148,120.887 L91.158,121.003 L91.158,121.018 L91.155,121.081 L91.151,121.203 L91.148,121.263 L91.14,121.311 C91.118,121.44 91.105,121.557 91.075,121.722 C91.021,122.025 90.969,122.336 90.933,122.628 C90.917,122.775 90.902,122.919 90.887,123.057 C90.875,123.197 90.873,123.334 90.868,123.464 C90.868,123.512 90.866,123.56 90.864,123.608 C90.814,123.833 90.767,124.077 90.722,124.337 C90.653,124.703 90.605,125.1 90.593,125.529 C90.577,125.956 90.579,126.412 90.496,126.868 C90.412,127.317 90.271,127.796 90.014,128.173 C89.952,128.259 89.874,128.346 89.817,128.366 L89.656,128.44 L89.489,128.514 C89.268,128.614 89.046,128.722 88.826,128.836 C88.604,128.948 88.382,129.06 88.156,129.192 C88.041,129.257 87.929,129.331 87.813,129.422 C87.754,129.47 87.695,129.52 87.632,129.589 C87.602,129.62 87.566,129.672 87.536,129.715 C87.5,129.772 87.503,129.768 87.478,129.815 C87.311,130.135 87.292,130.464 87.337,130.753 C87.379,131.043 87.49,131.29 87.602,131.508 L87.688,131.662 L87.726,131.729 L87.74,131.757 L87.742,131.758 C87.756,131.803 87.748,131.774 87.751,131.786 L87.755,131.796 L87.763,131.815 C87.818,131.945 87.901,132.006 87.976,132.051 C88.054,132.098 88.127,132.12 88.197,132.135 C88.477,132.189 88.712,132.152 88.937,132.109 C89.207,132.051 89.452,131.967 89.682,131.875 C89.626,131.913 89.57,131.948 89.515,131.987 C89.305,132.139 89.093,132.292 88.897,132.472 C88.799,132.561 88.699,132.649 88.604,132.756 C88.58,132.781 88.555,132.812 88.531,132.84 C88.52,132.853 88.507,132.871 88.495,132.887 L88.476,132.913 L88.466,132.925 L88.449,132.951 L88.445,132.956 L88.439,132.967 L88.427,132.988 C88.415,133.012 88.402,133.042 88.396,133.063 C88.385,133.1 88.378,133.137 88.377,133.17 C88.373,133.234 88.38,133.292 88.392,133.341 C88.438,133.535 88.528,133.662 88.622,133.781 C88.716,133.896 88.821,133.996 88.935,134.081 C89.159,134.252 89.408,134.372 89.659,134.452 C90.165,134.614 90.68,134.616 91.137,134.537 C91.597,134.46 92.007,134.307 92.364,134.137 C92.385,134.128 92.403,134.118 92.423,134.107 C92.408,134.125 92.39,134.141 92.374,134.159 C92.272,134.28 92.173,134.415 92.123,134.597 C92.1,134.688 92.092,134.796 92.125,134.903 C92.155,135.01 92.226,135.103 92.301,135.168 C92.458,135.296 92.625,135.344 92.783,135.382 C92.941,135.415 93.096,135.427 93.247,135.433 C93.549,135.443 93.838,135.412 94.121,135.376 C94.402,135.333 94.673,135.278 94.938,135.216 C95.192,135.153 95.467,135.077 95.716,134.969 C95.797,134.934 95.875,134.896 95.95,134.856 C95.954,134.86 95.958,134.866 95.963,134.869 C95.99,134.886 96.013,134.893 96.033,134.898 C96.223,135.047 96.422,135.121 96.635,135.171 C96.865,135.221 97.102,135.227 97.33,135.196 C97.558,135.165 97.781,135.11 97.995,135.034 C98.208,134.956 98.41,134.856 98.61,134.754 C99.004,134.54 99.372,134.286 99.721,134.009 C100.071,133.734 100.393,133.431 100.715,133.124 C101.042,132.816 101.338,132.479 101.609,132.121 C101.879,131.761 102.129,131.383 102.348,130.975 C102.457,130.772 102.556,130.559 102.641,130.329 C102.723,130.11 102.788,129.919 102.857,129.709 C102.991,129.286 103.111,128.858 103.197,128.422 C103.288,127.987 103.346,127.549 103.402,127.118 C103.454,126.681 103.49,126.258 103.533,125.815 C103.582,125.357 103.602,124.93 103.615,124.49 C103.625,124.194 103.623,123.898 103.619,123.603 C103.679,123.77 103.75,123.949 103.843,124.131 C103.897,124.248 103.963,124.365 104.028,124.488 C104.098,124.607 104.174,124.729 104.256,124.853 C104.338,124.977 104.425,125.103 104.52,125.229 C104.617,125.354 104.721,125.478 104.83,125.604 C105.048,125.855 105.29,126.112 105.575,126.342 C105.861,126.573 106.179,126.789 106.539,126.968 C106.903,127.14 107.288,127.307 107.766,127.342 C107.826,127.345 107.894,127.339 107.955,127.334 L108.105,127.312 C108.212,127.299 108.322,127.281 108.427,127.257 C108.641,127.209 108.861,127.136 109.065,126.987 C109.166,126.912 109.255,126.804 109.308,126.679 C109.36,126.552 109.37,126.417 109.355,126.293 L109.355,126.293 Z"></path>
    </g>
  </defs>
</svg>
