<svg width="93" height="125" viewBox="0 0 93 125" fill="none" xmlns="http://www.w3.org/2000/svg">
<g clip-path="url(#clip0_3477_1842)">
<path d="M19.079 15.1035C16.6279 14.7037 16.0394 14.4729 13.4229 15.1035C9.83193 15.9691 9.67568 17.2806 9.07214 20.7427C9.517 20.4584 14.3422 18.4249 15.1632 18.14C16.7619 17.5853 19.1108 17.1597 20.8193 16.8387L19.079 15.1035Z" fill="#252147"/>
<path d="M19.1723 66.0982C18.958 69.5689 17.8352 74.4736 13.9482 75.0586C11.2993 75.4572 9.09125 74.5147 8.61366 74.301C6.27502 73.255 4.74433 71.9628 0.160156 71.566C0.216607 70.7022 1.27435 68.3988 3.20446 67.3514C4.68871 66.5458 6.868 66.1208 10.5576 67.7745C13.1471 66.6777 13.9031 60.6143 13.9031 60.6143" fill="#EF6654"/>
<path opacity="0.5" d="M10.5577 67.7745C6.86811 66.1208 4.68881 66.5458 3.20451 67.3514C1.28203 68.3948 0.22528 70.6836 0.161255 71.5553C0.262711 71.5711 0.329446 71.5812 0.340283 71.5822C1.15481 70.3191 3.02951 68.0876 5.85426 67.9381C9.00687 67.7706 12.6785 69.7253 12.7748 69.8067L12.1317 68.8601C12.1317 68.8601 15.3699 66.2952 13.9032 60.6143C13.9032 60.6143 13.1472 66.6777 10.5577 67.7745Z" fill="#EF6654"/>
<path d="M19.1723 66.0977C19.1723 66.0977 17.5136 71.4842 14.4334 72.4313C11.3531 73.3784 7.67575 71.0743 7.67575 71.0743L6.34155 73.1858C7.10742 73.5557 7.81325 73.9425 8.61362 74.3005C9.09122 74.5141 11.2993 75.4566 13.9482 75.058C17.8353 74.473 18.9579 69.5683 19.1723 66.0977Z" fill="#EF6654"/>
<path d="M0.590133 70.658C-0.845241 72.8313 0.678264 76.3919 1.58374 76.4519C2.48922 76.5119 3.02636 73.5611 4.72618 72.6767C4.72618 72.6767 3.26947 67.9153 0.590133 70.658Z" fill="#EF6654"/>
<path d="M4.72629 72.6764C3.02558 73.5618 2.48927 76.5127 1.58291 76.4521C1.13241 76.4222 0.527209 75.521 0.211063 74.3567C-0.106134 73.1855 -0.129743 71.747 0.590515 70.6586C1.74126 69.4793 2.66647 69.6871 3.34936 70.3045C4.25224 71.1277 4.72629 72.6764 4.72629 72.6764Z" fill="#EF6654"/>
<path d="M4.72629 72.6766C3.02558 73.5619 2.48927 76.5129 1.58291 76.4522C1.13241 76.4224 0.527206 75.5212 0.21106 74.3569C0.618433 74.6565 1.20517 74.9624 1.67341 74.6931C2.49734 74.2204 2.35961 73.3797 3.43643 72.4748C3.94057 72.0502 3.64311 71.0208 3.3493 70.3047C4.25218 71.1279 4.72629 72.6766 4.72629 72.6766Z" fill="#EF6654"/>
<path d="M4.22501 71.498C2.89983 74.3139 5.10002 77.2399 5.73884 77.1992C6.64443 77.1415 7.3251 74.6268 8.08937 73.8045C8.73012 72.7152 6.87233 68.5305 4.22501 71.498Z" fill="#EF6654"/>
<path d="M8.08894 73.8041C7.325 74.627 6.64389 77.1412 5.73791 77.199C5.32064 77.2269 4.22867 75.9752 3.90252 74.3171L3.90224 74.3154C3.73051 73.4467 3.76927 72.4661 4.22436 71.4979C5.73039 69.8117 6.97906 70.4347 7.65973 71.4884C7.66172 71.4899 7.66221 71.4933 7.66443 71.4964C8.17873 72.2944 8.36428 73.3354 8.08894 73.8041Z" fill="#EF6654"/>
<path d="M8.08901 73.8047C7.32507 74.6277 6.64396 77.1418 5.73798 77.1996C5.32071 77.2275 4.22874 75.9759 3.90259 74.3178C3.92078 74.3569 4.52642 75.7236 5.72919 75.281C6.36889 75.047 6.37464 74.4497 6.8791 73.7496C7.44306 72.969 8.04975 72.2395 7.66455 71.4971C8.17885 72.295 8.36435 73.3361 8.08901 73.8047Z" fill="#EF6654"/>
<path d="M20.5662 75.6419C26.6613 75.6419 31.6023 70.4769 31.6023 64.1056C31.6023 57.7343 26.6613 52.5693 20.5662 52.5693C14.4712 52.5693 9.53015 57.7343 9.53015 64.1056C9.53015 70.4769 14.4712 75.6419 20.5662 75.6419Z" fill="#EF6654"/>
<path fill-rule="evenodd" clip-rule="evenodd" d="M14.5999 110.787C11.1211 107.799 8.9155 103.378 8.9155 98.4405C8.9155 92.8504 11.7402 87.9194 16.0424 84.9844C16.186 86.0425 16.385 87.0897 16.6393 88.1093C16.6855 88.2966 16.7435 88.479 16.7934 88.6648C17.8647 92.6545 19.7631 96.3028 22.3073 99.4144C22.307 99.4142 22.3073 99.4145 22.3073 99.4144C22.3089 99.4163 22.3106 99.4188 22.3122 99.4208C25.7788 103.671 30.4342 106.923 35.7753 108.671C36.1397 108.792 36.5044 108.902 36.8692 109.001C36.8511 109.025 36.8311 109.047 36.813 109.071C37.1574 109.109 37.4571 109.198 37.6644 109.384C37.4166 109.924 30.4444 125 30.4444 125L7.92737 124.987C7.92737 124.987 12.5916 115.237 14.5999 110.787Z" fill="#FF775D"/>
<path d="M13.7164 125C13.7164 125 12.7533 122.183 9.52473 122.183C6.29615 122.183 5.16907 125 5.16907 125H13.7164Z" fill="#FFB544"/>
<path d="M21.5611 125C21.5611 125 20.598 122.183 17.3695 122.183C14.1409 122.183 13.0138 125 13.0138 125H21.5611Z" fill="#FFB544"/>
<path d="M69.0514 72.82L62.8197 76.9924L74.9307 84.5548L75.9756 77.1435C76.5143 73.3234 72.2637 70.669 69.0514 72.82Z" fill="#FFB544"/>
<path d="M41.4745 1.32953L32.9479 10.6811L49.6403 14.4483L48.6733 3.78542C48.3488 0.207307 43.9296 -1.30034 41.4745 1.32953Z" fill="#FFB544"/>
<path d="M78.457 78.2103C80.5928 75.0034 85.5283 75.8292 86.4968 79.5554L88.2825 86.4241L74.5203 84.1215L78.457 78.2103Z" fill="#FFB544"/>
<path d="M56.9024 10.3819C60.8746 9.64623 63.8468 13.9448 61.7441 17.3844L56.7439 25.564L47.4562 12.1317L56.9024 10.3819Z" fill="#FFB544"/>
<path d="M63.1428 34.1048L54.8465 38.9361L53.0699 22.7178L62.2166 25.6498C66.0627 26.8828 66.6313 32.0732 63.1428 34.1048Z" fill="#FFB544"/>
<path d="M63.0533 48.9285L54.2889 52.5072L54.7914 36.4326L63.3152 40.5485C66.8995 42.2793 66.7387 47.4236 63.0533 48.9285Z" fill="#FFB544"/>
<path d="M63.9052 60.1887L57.288 65.978L52.8514 51.6982L61.5923 52.7444C65.2678 53.1844 66.6876 57.7543 63.9052 60.1887Z" fill="#FFB544"/>
<path d="M68.478 69.7275L64.2559 77.1174L55.6597 65.4401L63.9966 63.6399C67.5023 62.883 70.2533 66.6201 68.478 69.7275Z" fill="#FFB544"/>
<path d="M35.6677 72.4873C41.177 89.1091 53.0324 102.717 68.2471 110.634C67.1783 110.804 66.0914 110.924 64.9862 110.982L57.0468 111.399C40.0771 112.29 25.5952 99.2975 24.7009 82.3785L24.2598 74.033C24.2428 73.7035 24.1436 73.3835 23.9712 73.1018L35.6677 72.4873Z" fill="#FFB544"/>
<path d="M18.4622 52.0229C18.5484 51.7307 18.6358 51.4389 18.7242 51.1474C18.9634 50.3591 20.8054 43.4128 21.1381 43.4484L27.4813 44.09C27.8099 44.09 28.2565 43.9766 28.5844 43.9983C28.5238 43.9934 28.6453 44.0023 28.5844 43.9983C28.9062 44.0243 28.9121 44.6853 29.2279 44.7316C29.2852 44.7399 29.6306 44.1727 29.6876 44.1816C29.9851 44.2287 30.5909 44.3921 30.8827 44.4566C30.8459 44.4481 30.9197 44.4648 30.8827 44.4566C39.343 46.4023 36.2147 56.3718 36.9501 65.354C37.2254 68.7156 38.0533 70.8533 39.1691 75.2018C39.3354 75.8499 43.0472 82.8241 42.4794 83.06C36.5712 85.5147 31.864 91.3259 31.864 98.106C31.864 102.137 33.3353 105.824 35.7675 108.668C30.4299 106.92 24.1186 103.669 20.6535 99.4212C15.3208 92.8834 13.6786 84.3552 14.1422 76.1205C14.4587 70.4973 15.2931 64.9075 16.5343 59.4148C17.0956 56.9307 17.7408 54.4656 18.4622 52.0229Z" fill="#FFB544"/>
<path fill-rule="evenodd" clip-rule="evenodd" d="M18.1376 15.6815C18.6629 15.6098 19.1883 15.5381 19.7134 15.472C23.2186 10.1966 29.2287 6.71826 36.0571 6.71826C43.8694 6.71826 50.6149 11.2715 53.7662 17.8644C53.9765 18.2006 54.159 18.5534 54.3191 18.9338C60.2077 33.0401 53.5065 48.078 57.9022 63.0938C57.9022 63.0938 61.4169 71.2203 62.8836 73.7769C67.176 81.2587 76.3632 85.3475 85.547 84.8623C86.6857 84.8017 87.8082 84.6694 88.8973 84.4654C91.4131 83.9914 93.564 86.2956 92.8672 88.7541C92.7014 89.355 92.5133 89.9503 92.3032 90.5401H92.3089C91.5846 91.4662 90.8713 92.3427 90.1635 93.1585C90.1414 93.1916 90.1192 93.2192 90.0863 93.2467L83.114 101.763L79.8798 102.061C75.2796 104.768 70.8011 105.854 66.1014 106.653C64.9017 106.857 63.6855 107.039 62.4468 107.226C61.6507 107.348 60.8435 107.474 60.0306 107.601L59.8041 107.64L50.5596 109.111L45.4949 104.668L38.678 98.6875L39.7227 98.1528L35.1338 94.1232L34.133 89.829C34.6959 88.8799 35.3619 88.0007 36.0992 87.1877C36.1983 87.0782 36.2939 86.966 36.3959 86.8593C36.5557 86.6924 36.7228 86.5334 36.8897 86.3734C37.0193 86.2487 37.1483 86.1236 37.2819 86.0032C37.4415 85.8598 37.6051 85.7217 37.7703 85.5845C37.925 85.4558 38.0816 85.3295 38.2412 85.2064C38.3989 85.085 38.5579 84.966 38.7198 84.8503C38.9029 84.7195 39.0896 84.5945 39.2784 84.4712C39.4285 84.3731 39.5778 84.2739 39.7314 84.1806C39.9565 84.0438 40.1874 83.9165 40.4195 83.7905C40.5472 83.7212 40.6719 83.6476 40.8018 83.5816C41.1692 83.3947 41.5434 83.2187 41.9265 83.0596L38.9412 75.0334L42.1902 54.0801C39.8911 48.7853 38.317 45.5204 32.2808 45.5204H25.5467C25.5521 45.5149 25.5578 45.5148 25.5632 45.5093H25.5246C25.4085 45.5148 25.3035 45.5204 25.2204 45.5204C25.0435 45.5258 24.9496 45.5314 24.9496 45.5314H23.6502L20.1671 45.5369C12.5813 45.5369 6.18436 39.9032 5.23891 32.4008C4.21599 24.2479 9.96589 16.7895 18.1376 15.6815Z" fill="#FF775D"/>
<path d="M48.2078 114.4C57.2342 114.4 64.5516 107.105 64.5516 98.1054C64.5516 89.106 57.2342 81.8105 48.2078 81.8105C39.1814 81.8105 31.864 89.106 31.864 98.1054C31.864 107.105 39.1814 114.4 48.2078 114.4Z" fill="#FF775D"/>
<path d="M60.0306 107.601C60.8435 107.474 61.6507 107.347 62.4468 107.226C63.6854 107.039 64.9016 106.857 66.1014 106.653C70.801 105.854 75.2796 104.768 79.8798 102.061C83.1804 100.121 86.5421 97.3479 90.0863 93.2466C90.1192 93.2191 90.1413 93.1915 90.1635 93.1584C90.8713 92.3426 91.5846 91.4661 92.3089 90.54C88.6708 100.92 79.5534 108.836 68.2469 110.638H68.2248L64.5148 110.319L57.974 109.751L50.5596 109.111L59.8041 107.64L60.0306 107.601Z" fill="#FFB544"/>
<path fill-rule="evenodd" clip-rule="evenodd" d="M36.8524 124.979C36.8524 124.979 42.1884 113.655 43.6946 110.302C43.9458 109.743 44.1359 109.315 43.5639 108.741C37.2637 102.422 38.5295 90.7507 48.1624 86.4219C48.821 89.3813 49.4591 92.3454 50.142 95.2992C51.0873 99.388 52.8462 102.73 55.4045 105.342C60.0605 102.09 62.7493 99.3376 69.5259 98.2412C69.8294 98.9814 70.1364 99.7194 70.449 100.454L62.3519 119.13L59.6706 125L39.5591 124.979H36.8524Z" fill="#FF775D"/>
<path d="M43.5019 125C43.5019 125 42.5388 122.183 39.3103 122.183C36.0817 122.183 34.9546 125 34.9546 125H43.5019Z" fill="#FFB544"/>
<path d="M51.3465 125C51.3465 125 50.3834 122.183 47.1549 122.183C43.9263 122.183 42.7992 125 42.7992 125H51.3465Z" fill="#FFB544"/>
<path d="M18.3666 39.2258C13.7798 39.2261 9.06343 37.9037 6.65319 37.2281C6.13861 37.0839 5.83894 36.5512 5.98368 36.0384C6.12838 35.5251 6.66402 35.2261 7.17694 35.3709C9.58558 36.046 15.2258 37.6295 19.9751 37.2325C24.4733 36.8589 31.9315 33.7608 32.006 33.7296C32.1707 33.6607 32.3516 33.6384 32.5255 33.6655L34.6917 33.9936C35.2203 34.0736 35.5831 34.5653 35.5033 35.0921C35.4228 35.6189 34.9336 35.9833 34.4012 35.9009L32.5006 35.6132C31.1076 36.1809 24.5069 38.792 20.1361 39.1554C19.5524 39.2038 18.9605 39.2258 18.3666 39.2258Z" fill="#994D6A"/>
<path d="M34.7068 28.0868C37.3018 28.5349 39.7964 26.7356 40.2995 24.0528C40.8029 21.368 39.1039 18.8558 36.4885 18.4181C33.8216 17.9717 31.4127 19.7033 30.913 22.426C30.4186 25.12 32.1059 27.6377 34.7068 28.0868Z" fill="#252147"/>
<path d="M34.3068 23.252C35.3021 23.26 36.113 22.489 36.1249 21.5236C36.1367 20.5575 35.34 19.7776 34.3378 19.7744C33.3159 19.7712 32.5324 20.5135 32.5245 21.4927C32.5166 22.4615 33.3094 23.244 34.3068 23.252Z" fill="white"/>
<path fill-rule="evenodd" clip-rule="evenodd" d="M30.8827 45.3727C30.8827 45.3727 29.4118 59.121 33.2729 69.9363C35.2079 75.3564 41.8224 85.1511 41.8224 85.1511L44.8561 69.7531L37.7775 43.9062L30.8827 45.3727Z" fill="#FF775D"/>
<path fill-rule="evenodd" clip-rule="evenodd" d="M34.6519 43.4482C34.6519 43.4482 35.4792 59.4879 39.3403 70.3033C41.2753 75.7233 46.3577 83.8072 46.3577 83.8072L50.9235 70.12L43.5691 49.0393L34.6519 43.4482Z" fill="#FF775D"/>
<path d="M42.899 66.0982C42.6846 69.5689 41.5619 74.4736 37.6749 75.0586C35.026 75.4572 32.8179 74.5147 32.3403 74.301C30.0017 73.255 28.471 71.9628 23.8868 71.566C23.9433 70.7022 25.001 68.3988 26.9311 67.3514C28.4154 66.5458 30.5947 66.1208 34.2843 67.7745C36.8738 66.6777 37.6298 60.6143 37.6298 60.6143" fill="#FF775D"/>
<path opacity="0.5" d="M34.2843 67.7745C30.5947 66.1208 28.4154 66.5458 26.9311 67.3514C25.0086 68.3948 23.9518 70.6836 23.8878 71.5553C23.9893 71.5711 24.056 71.5812 24.0668 71.5822C24.8814 70.3191 26.7561 68.0876 29.5808 67.9381C32.7334 67.7706 36.4051 69.7253 36.5014 69.8067C36.5013 69.8062 35.8582 68.8601 35.8582 68.8601C35.8582 68.8601 39.0965 66.2952 37.6297 60.6143C37.6297 60.6143 36.8737 66.6777 34.2843 67.7745Z" fill="#FF775D"/>
<path d="M42.8991 66.0977C42.8991 66.0977 41.2405 71.4842 38.1602 72.4313C35.0799 73.3784 31.4026 71.0743 31.4026 71.0743L30.0684 73.1858C30.8342 73.5557 31.5401 73.9425 32.3404 74.3005C32.818 74.5141 35.0261 75.4566 37.675 75.058C41.5621 74.473 42.6847 69.5683 42.8991 66.0977Z" fill="#FF775D"/>
<path d="M24.3168 70.658C22.8814 72.8313 24.4049 76.3919 25.3104 76.4519C26.2159 76.5119 26.753 73.5611 28.4529 72.6767C28.4529 72.6767 26.9962 67.9153 24.3168 70.658Z" fill="#FF775D"/>
<path d="M28.453 72.6764C26.7523 73.5618 26.216 76.5127 25.3096 76.4521C24.8591 76.4222 24.2539 75.521 23.9377 74.3567C23.6206 73.1855 23.5969 71.747 24.3172 70.6586C25.4679 69.4793 26.3932 69.6871 27.076 70.3045C27.9789 71.1277 28.453 72.6764 28.453 72.6764Z" fill="#FF775D"/>
<path d="M28.453 72.6766C26.7523 73.5619 26.216 76.5129 25.3096 76.4522C24.8591 76.4224 24.2539 75.5212 23.9377 74.3569C24.3451 74.6565 24.9319 74.9624 25.4001 74.6931C26.224 74.2204 26.0863 73.3797 27.1631 72.4748C27.6672 72.0502 27.3698 71.0208 27.076 70.3047C27.9789 71.1279 28.453 72.6766 28.453 72.6766Z" fill="#FF775D"/>
<path d="M27.9517 71.498C26.6265 74.3139 28.8267 77.2399 29.4655 77.1992C30.3711 77.1415 31.0518 74.6268 31.8161 73.8045C32.4568 72.7152 30.599 68.5305 27.9517 71.498Z" fill="#FF775D"/>
<path d="M31.8156 73.8041C31.0517 74.627 30.3706 77.1412 29.4646 77.199C29.0473 77.2269 27.9554 75.9752 27.6292 74.3171L27.6289 74.3154C27.4572 73.4467 27.496 72.4661 27.951 71.4979C29.4571 69.8117 30.7057 70.4347 31.3864 71.4884C31.3884 71.4899 31.3889 71.4933 31.3911 71.4964C31.9054 72.2944 32.091 73.3354 31.8156 73.8041Z" fill="#FF775D"/>
<path d="M31.8157 73.8047C31.0518 74.6277 30.3706 77.1418 29.4647 77.1996C29.0474 77.2275 27.9554 75.9759 27.6293 74.3178C27.6475 74.3569 28.2531 75.7236 29.4559 75.281C30.0956 75.047 30.1013 74.4497 30.6058 73.7496C31.1697 72.969 31.7764 72.2395 31.3912 71.4971C31.9055 72.295 32.091 73.3361 31.8157 73.8047Z" fill="#FF775D"/>
<path d="M44.2929 75.6419C50.388 75.6419 55.329 70.4769 55.329 64.1056C55.329 57.7343 50.388 52.5693 44.2929 52.5693C38.1979 52.5693 33.2568 57.7343 33.2568 64.1056C33.2568 70.4769 38.1979 75.6419 44.2929 75.6419Z" fill="#FF775D"/>
<path d="M27.6624 14.1248C27.6624 14.1248 24.5537 12.3402 21.8492 13.505C21.8492 13.505 21.9339 14.4889 21.7095 16.1713C21.7095 16.1713 25.567 15.5309 27.0798 17.3247C27.0798 17.3247 27.3398 14.9935 27.6624 14.1248Z" fill="#252147"/>
<path d="M26.6247 17.7061C25.5665 16.4512 22.7879 16.5948 21.807 16.756C21.6221 16.7867 21.4316 16.7282 21.2959 16.5973C21.1605 16.4666 21.0952 16.2795 21.1201 16.0931C21.3315 14.5081 21.2576 13.5636 21.2568 13.5554C21.2351 13.3014 21.3787 13.0618 21.6135 12.9606C24.5582 11.6927 27.8218 13.5321 27.959 13.611C28.2104 13.7554 28.3206 14.0595 28.2199 14.3306C27.9762 14.9866 27.7408 16.7615 27.6706 17.39C27.6443 17.6256 27.4797 17.8231 27.2522 17.8918C27.1852 17.9121 27.1164 17.92 27.049 17.9165C26.8873 17.9081 26.7327 17.8341 26.6247 17.7061ZM22.4589 13.9099C22.4626 14.2584 22.4512 14.7978 22.3844 15.5C23.418 15.4226 25.2708 15.4228 26.6262 16.198C26.7072 15.6391 26.8192 14.9652 26.9516 14.4334C26.128 14.0592 24.2154 13.3542 22.4589 13.9099Z" fill="#252147"/>
<path d="M31.1139 26.4939C32.8402 27.3725 34.4712 27.8774 35.9618 28.1023C36.3252 28.1559 36.679 28.194 37.0246 28.2168C38.1757 28.2925 39.2292 28.1983 40.1618 27.9823C40.8025 27.8354 41.3869 27.6299 41.9073 27.3845C42.4309 27.1381 42.8895 26.8485 43.2752 26.5343C46.0188 24.298 47.8357 17.6448 47.4001 16.2085C46.6964 13.892 41.5417 12.4683 37.3807 12.1666C36.3328 12.0914 35.3467 12.0865 34.5128 12.1563C34.0491 12.1949 33.6142 12.2444 33.2059 12.3015C32.3576 12.4196 31.6251 12.5725 30.996 12.7414C30.0152 13.006 29.2868 13.307 28.7637 13.578C27.9455 14.0004 27.6268 14.3458 27.6268 14.3458C27.6268 14.3458 24.7869 23.275 31.1139 26.4939Z" fill="#252147"/>
<g opacity="0.4">
<path d="M33.2059 12.302L40.1619 27.9828C40.8026 27.8359 41.387 27.6304 41.9074 27.385L37.3808 12.1671C36.3328 12.0919 35.3468 12.087 34.5129 12.1568C34.0492 12.1954 33.6143 12.2449 33.2059 12.302Z" fill="#4946AF"/>
</g>
<g opacity="0.4">
<path d="M28.7637 13.5784L35.9618 28.1027C36.3253 28.1562 36.679 28.1943 37.0247 28.2172L30.9961 12.7417C30.0153 13.0063 29.2868 13.3073 28.7637 13.5784Z" fill="#4946AF"/>
</g>
<path d="M8.96896 21.9522C10.1189 23.4919 12.7319 24.8752 16.5397 24.1073C16.7834 24.0588 17.032 24.001 17.2855 23.9327C17.4065 23.9016 17.5292 23.8665 17.6532 23.8301C18.3632 23.6204 18.963 23.3064 19.4696 22.9177C19.8664 22.6142 20.2063 22.2644 20.4978 21.8841C22.7722 18.9015 22.0215 13.9991 22.0215 13.9991C22.0215 13.9991 20.894 12.3343 16.7581 11.5336C16.382 11.4613 15.9677 11.4067 15.5288 11.3723C14.3346 11.2762 12.961 11.3229 11.6806 11.5232C11.2345 11.5931 10.7979 11.6815 10.386 11.7893C9.54419 12.0089 8.79933 12.3075 8.24809 12.6903C7.83608 12.9765 7.53281 13.3097 7.37922 13.6914C6.96278 14.7291 7.43688 19.8971 8.96896 21.9522Z" fill="#252147"/>
<g opacity="0.4">
<path d="M11.6805 11.5232L19.4695 22.9178C19.8663 22.6142 20.2063 22.2645 20.4977 21.8842L15.5288 11.3723C14.3346 11.2762 12.9609 11.323 11.6805 11.5232Z" fill="#4946AF"/>
</g>
<g opacity="0.4">
<path d="M8.24805 12.6906L16.5396 24.1077C16.7833 24.0592 17.0319 24.0014 17.2854 23.9331L10.386 11.7896C9.54415 12.0092 8.79928 12.3078 8.24805 12.6906Z" fill="#4946AF"/>
</g>
<path d="M30.8433 27.0213C28.0518 25.6011 26.5166 22.9071 26.4034 19.2305C26.3201 16.5259 27.0293 14.2612 27.0594 14.1661C27.0858 14.083 27.1302 14.0069 27.1893 13.943C27.2619 13.8648 29.0261 12.0219 34.4623 11.5653C38.6396 11.2145 46.9396 12.6455 47.9693 16.0372C48.4944 17.7671 46.508 24.665 43.6512 26.9936C42.2752 28.1151 40.0099 28.9685 37.1544 28.8203C35.2774 28.7229 33.1454 28.1927 30.8433 27.0213ZM34.5622 12.7466C30.2957 13.1049 28.5416 14.3461 28.1507 14.6696C27.8346 15.8048 26.0082 23.2304 31.3838 25.9655C36.6779 28.6589 40.8955 27.7084 42.8987 26.0757C45.54 23.9227 47.156 17.4502 46.8314 16.3806C46.0949 13.9582 38.6636 12.4025 34.5622 12.7466Z" fill="#252147"/>
<path d="M8.5411 22.2694C6.93444 20.1153 6.37358 14.7635 6.88352 13.4944C7.9474 10.8447 14.0315 10.4647 16.8597 11.012C21.1635 11.8452 22.4132 13.6254 22.4642 13.7008C22.5086 13.7662 22.5377 13.8406 22.5498 13.9186C22.5629 14.0054 22.8705 16.0728 22.4703 18.3815C21.9231 21.5383 20.3097 23.5989 17.8046 24.3403C16.7705 24.6464 15.8069 24.8044 14.9179 24.8453C11.7942 24.9888 9.59675 23.6852 8.5411 22.2694ZM16.6562 12.057C13.4657 11.4393 8.54033 12.2325 7.8747 13.8899C7.5601 14.6731 7.91705 19.649 9.39787 21.6344C10.5486 23.1777 13.361 24.5447 17.5007 23.3198C22.2233 21.9222 21.6354 15.2642 21.512 14.2172C21.2155 13.889 19.9408 12.6928 16.6562 12.057Z" fill="#252147"/>
<path fill-rule="evenodd" clip-rule="evenodd" d="M19.5245 15.4974C19.0623 15.5567 18.6 15.6187 18.1376 15.6818C10.249 16.7514 4.61901 23.7392 5.15852 31.5567C9.29164 31.0151 13.6262 28.8496 16.9484 27.2191C19.9131 25.764 22.5178 24.1075 23.4107 20.7222C23.7932 19.2721 26.8647 18.2183 26.3966 16.9518C24.3593 14.7127 19.6964 15.5986 19.5245 15.4974Z" fill="#FF775D"/>
<path d="M15.7907 28.5726C16.1166 27.7747 15.9056 26.9349 15.3194 26.6969C14.7331 26.4588 13.9937 26.9126 13.6677 27.7105C13.3418 28.5084 13.5528 29.3483 14.139 29.5863C14.7252 29.8244 15.4647 29.3705 15.7907 28.5726Z" fill="#994D6A"/>
<path d="M10.2031 27.2146C10.3526 26.4169 9.99862 25.6818 9.41258 25.5727C8.82654 25.4635 8.23031 26.0217 8.08088 26.8194C7.93144 27.617 8.28538 28.3521 8.87143 28.4613C9.45747 28.5704 10.0537 28.0122 10.2031 27.2146Z" fill="#994D6A"/>
</g>
<defs>
<clipPath id="clip0_3477_1842">
<rect width="93" height="125" fill="white"/>
</clipPath>
</defs>
</svg>
