<svg width="180" height="232" viewBox="0 0 180 232" fill="none" xmlns="http://www.w3.org/2000/svg">
<g clip-path="url(#clip0_3044_2529)">
<path d="M144.257 85.2578C145.552 85.2578 146.604 86.3095 146.604 87.6051V90.8422H141.91V87.6051C141.91 86.3095 142.961 85.2578 144.257 85.2578Z" fill="#EA851B"/>
<path d="M140.733 125.423C150.61 125.423 158.616 117.028 158.616 106.673C158.616 96.3175 150.61 87.9229 140.733 87.9229C130.856 87.9229 122.849 96.3175 122.849 106.673C122.849 117.028 130.856 125.423 140.733 125.423Z" fill="#EF6654"/>
<path d="M158.819 85.589C164.994 85.589 170.001 80.5828 170.001 74.4073C170.001 68.2318 164.994 63.2256 158.819 63.2256C152.643 63.2256 147.637 68.2318 147.637 74.4073C147.637 80.5828 152.643 85.589 158.819 85.589Z" fill="#EF6654"/>
<path fill-rule="evenodd" clip-rule="evenodd" d="M148.045 110.533C148.205 110.461 148.331 110.372 148.47 110.29C150.884 110.379 153.442 108.439 152.587 105.427C148.875 92.3586 155.526 74.8886 165.334 66.0142C165.434 65.9239 165.027 65.2865 165.113 65.1934C173.701 71.1592 179.802 81.6291 179.802 92.8778C179.802 111.123 165.009 126.184 146.766 125.914C135.709 125.75 134.603 124.726 129.346 120.945C135.694 117.665 141.508 113.452 148.045 110.533Z" fill="#EF6654"/>
<path opacity="0.6" fill-rule="evenodd" clip-rule="evenodd" d="M165.96 226.088C168.271 226.088 170.144 227.412 170.144 229.044C170.144 230.676 168.271 231.999 165.96 231.999H43.0661C40.7559 231.999 38.8828 230.676 38.8828 229.044C38.8828 227.412 40.7559 226.088 43.0661 226.088H165.96Z" fill="#D5CFEE"/>
<path fill-rule="evenodd" clip-rule="evenodd" d="M141.638 200.468C147.914 195.061 151.893 187.061 151.893 178.127C151.893 168.012 146.797 159.089 139.035 153.778C138.776 155.693 138.417 157.588 137.958 159.433C137.875 159.772 137.77 160.102 137.68 160.438C135.748 167.657 132.323 174.259 127.733 179.889C127.733 179.889 127.733 179.889 127.733 179.889C127.73 179.893 127.727 179.897 127.724 179.901C121.47 187.591 113.071 193.476 103.436 196.638C102.778 196.858 102.12 197.057 101.462 197.236C101.495 197.28 101.531 197.32 101.564 197.363C100.942 197.432 100.401 197.593 100.027 197.929C100.474 198.906 113.053 226.186 113.053 226.186L153.675 226.163C153.675 226.163 145.261 208.52 141.638 200.468Z" fill="#FF775D"/>
<path d="M143.232 226.186C143.232 226.186 144.969 221.088 150.794 221.088C156.618 221.088 158.652 226.186 158.652 226.186H143.232Z" fill="#FFB544"/>
<path d="M129.079 226.186C129.079 226.186 130.816 221.088 136.641 221.088C142.466 221.088 144.499 226.186 144.499 226.186H129.079Z" fill="#FFB544"/>
<path d="M43.403 131.767C37.6079 127.875 29.9393 132.678 30.9113 139.59L32.7963 153.001L54.6455 139.317L43.403 131.767Z" fill="#FFB544"/>
<path d="M80.1665 6.84958L78.422 26.1439L108.536 19.3273L93.1538 2.40566C88.7245 -2.35305 80.7519 0.37502 80.1665 6.84958Z" fill="#FFB544"/>
<path d="M26.4345 141.521C22.5815 135.718 13.6775 137.212 11.9303 143.955L8.70866 156.384L33.5368 152.217L26.4345 141.521Z" fill="#FFB544"/>
<path d="M65.3208 18.7861C58.1545 17.4549 52.7925 25.233 56.586 31.457L65.6065 46.2578L82.3624 21.9524L65.3208 18.7861Z" fill="#FFB544"/>
<path d="M54.0626 61.7122L69.0296 70.4544L72.2347 41.1074L55.7334 46.4129C48.7947 48.6441 47.769 58.0359 54.0626 61.7122Z" fill="#FFB544"/>
<path d="M54.224 88.535L70.0356 95.0107L69.1292 65.9238L53.7515 73.3714C47.2852 76.5033 47.5752 85.8118 54.224 88.535Z" fill="#FFB544"/>
<path d="M52.6872 108.911L64.6249 119.387L72.6289 93.5479L56.8598 95.4408C50.2289 96.237 47.6674 104.506 52.6872 108.911Z" fill="#FFB544"/>
<path d="M44.4375 126.172L52.0545 139.544L67.5628 118.414L52.5224 115.157C46.1978 113.787 41.2347 120.549 44.4375 126.172Z" fill="#FFB544"/>
<path d="M103.63 131.165C93.6906 161.242 72.3027 185.866 44.8541 200.19C46.7824 200.499 48.7431 200.715 50.7369 200.82L65.0602 201.575C95.675 203.188 121.801 179.678 123.415 149.063L124.211 133.962C124.241 133.366 124.42 132.787 124.731 132.277L103.63 131.165Z" fill="#FFB544"/>
<path d="M134.67 94.1339C134.514 93.6052 134.357 93.0772 134.197 92.5496C133.766 91.1234 130.442 78.5541 129.842 78.6184L118.399 79.7794C117.806 79.7794 117 79.5743 116.409 79.6135C116.299 79.6208 116.518 79.6046 116.409 79.6135C115.828 79.6605 115.817 80.8566 115.248 80.9403C115.144 80.9555 114.521 79.929 114.418 79.9452C113.882 80.0304 112.789 80.326 112.262 80.4428C112.196 80.4575 112.329 80.4274 112.262 80.4428C96.9993 83.9635 102.643 102.003 101.316 118.256C100.82 124.339 99.326 128.207 97.3129 136.076C97.0129 137.249 90.3165 149.868 91.3409 150.295C102 154.737 110.492 165.252 110.492 177.521C110.492 184.815 107.838 191.486 103.45 196.633C113.079 193.47 124.465 187.587 130.716 179.901C140.337 168.071 143.3 152.639 142.463 137.738C141.892 127.563 140.387 117.448 138.148 107.51C137.135 103.015 135.971 98.5539 134.67 94.1339Z" fill="#FFB544"/>
<path fill-rule="evenodd" clip-rule="evenodd" d="M135.255 28.376C134.308 28.2464 133.36 28.1167 132.412 27.997C126.089 18.4512 115.246 12.1572 102.927 12.1572C88.8332 12.1572 76.6639 20.3963 70.9786 32.326C70.5992 32.9345 70.27 33.5728 69.9811 34.2611C59.3577 59.7863 71.4471 86.9972 63.5171 114.168C63.5171 114.168 57.1763 128.873 54.5301 133.499C46.7864 147.037 30.2119 154.436 13.6437 153.558C11.5893 153.448 9.56428 153.209 7.59947 152.84C3.0607 151.982 -0.819547 156.152 0.437461 160.6C0.736502 161.687 1.07594 162.765 1.45488 163.832H1.4446C2.75138 165.508 4.03812 167.094 5.31517 168.57C5.35507 168.63 5.39507 168.68 5.45442 168.73L18.0329 184.14L23.8677 184.679C32.1669 189.577 40.2465 191.542 48.7249 192.988C50.8893 193.357 53.0835 193.686 55.3181 194.025C56.7543 194.245 58.2106 194.474 59.6771 194.704L60.0858 194.773L76.7636 197.437L85.9006 189.397L98.199 178.575L96.3142 177.607L104.593 170.316L106.398 162.545C105.383 160.828 104.181 159.237 102.851 157.766C102.673 157.568 102.5 157.365 102.316 157.172C102.028 156.87 101.726 156.582 101.425 156.292C101.191 156.067 100.959 155.84 100.717 155.622C100.43 155.363 100.134 155.113 99.8364 154.865C99.5573 154.632 99.2748 154.403 98.987 154.181C98.7025 153.961 98.4156 153.746 98.1235 153.536C97.7932 153.3 97.4563 153.073 97.1157 152.85C96.8449 152.673 96.5756 152.493 96.2985 152.325C95.8923 152.077 95.4759 151.847 95.0571 151.619C94.8327 151.496 94.6131 151.367 94.3855 151.25C97.8798 145.85 105.316 133.949 107.95 126.55C114.498 108.153 112.546 85.0716 112.289 82.369H121.889C121.879 82.359 121.869 82.359 121.859 82.3491H121.929C122.138 82.359 122.328 82.369 122.478 82.369C122.797 82.3789 122.966 82.389 122.966 82.389H125.31L131.594 82.3989C145.28 82.3989 156.82 72.2048 158.526 58.6293C160.371 43.8768 149.998 30.3809 135.255 28.376Z" fill="#FF775D"/>
<path d="M142.469 53.5364C143.527 53.1056 143.907 51.586 143.319 50.1422C142.731 48.6984 141.397 47.8772 140.34 48.3079C139.282 48.7387 138.901 50.2583 139.489 51.7021C140.077 53.1459 141.411 53.9671 142.469 53.5364Z" fill="#994D6A"/>
<path d="M151.972 51.5002C153.03 51.3027 153.668 49.9726 153.399 48.5292C153.129 47.0858 152.053 46.0758 150.996 46.2733C149.939 46.4708 149.3 47.8009 149.57 49.2443C149.839 50.6877 150.915 51.6977 151.972 51.5002Z" fill="#994D6A"/>
<path d="M81.0065 207.006C97.2909 207.006 110.492 193.805 110.492 177.521C110.492 161.236 97.2909 148.035 81.0065 148.035C64.7222 148.035 51.5211 161.236 51.5211 177.521C51.5211 193.805 64.7222 207.006 81.0065 207.006Z" fill="#FF775D"/>
<path d="M59.6772 194.704C58.2107 194.474 56.7544 194.245 55.3182 194.025C53.0837 193.686 50.8895 193.357 48.725 192.988C40.2466 191.542 32.167 189.577 23.8678 184.679C17.9132 181.168 11.8485 176.151 5.45452 168.73C5.39507 168.68 5.35517 168.63 5.31527 168.57C4.03822 167.094 2.75148 165.508 1.4447 163.832C8.00813 182.614 24.4566 196.938 44.8545 200.2H44.8944L51.5874 199.621L63.3875 198.594L76.7637 197.437L60.0859 194.773L59.6772 194.704Z" fill="#FFB544"/>
<path fill-rule="evenodd" clip-rule="evenodd" d="M101.492 226.148C101.492 226.148 91.866 205.657 89.1487 199.591C88.6954 198.579 88.3525 197.804 89.3844 196.766C100.751 185.332 98.4669 164.213 81.0883 156.38C79.9003 161.735 78.7491 167.098 77.517 172.443C75.8116 179.842 72.6384 185.89 68.023 190.617C59.6233 184.732 54.7725 179.751 42.5469 177.767C41.9994 179.106 41.4456 180.442 40.8815 181.771L55.4894 215.565L60.3268 226.186L96.6094 226.148H101.492Z" fill="#FF775D"/>
<path d="M89.4963 226.186C89.4963 226.186 91.2338 221.088 97.0584 221.088C102.883 221.088 104.916 226.186 104.916 226.186H89.4963Z" fill="#FFB544"/>
<path d="M75.3438 226.186C75.3438 226.186 77.0813 221.088 82.9059 221.088C88.7305 221.088 90.7639 226.186 90.7639 226.186H75.3438Z" fill="#FFB544"/>
<path d="M134.763 70.9747C133.715 70.9747 132.674 70.9357 131.651 70.851C123.765 70.1935 111.857 65.4682 109.344 64.4415L105.915 64.9627C104.959 65.1107 104.072 64.4523 103.927 63.4986C103.783 62.5459 104.437 61.6556 105.391 61.5104L109.299 60.9162C109.614 60.8685 109.939 60.9075 110.236 61.0321C110.371 61.0886 123.826 66.6946 131.941 67.3715C140.509 68.0924 150.684 65.2247 155.029 64.0031C155.952 63.7401 156.92 64.2817 157.181 65.2109C157.443 66.1393 156.902 67.1026 155.974 67.3637C151.952 68.4946 143.131 70.9747 134.763 70.9747Z" fill="#994D6A"/>
<path d="M105.363 50.8232C100.682 51.6341 96.1812 48.3782 95.2737 43.5238C94.3654 38.6655 97.4306 34.1198 102.149 33.3278C106.96 32.52 111.306 35.6533 112.208 40.58C113.1 45.4548 110.055 50.0105 105.363 50.8232Z" fill="#252147"/>
<path d="M106.085 42.0739C104.289 42.0883 102.826 40.6933 102.805 38.9464C102.784 37.1982 104.221 35.7871 106.029 35.7813C107.873 35.7754 109.286 37.1187 109.3 38.8905C109.314 40.6435 107.884 42.0594 106.085 42.0739Z" fill="white"/>
<path d="M70.5787 126.301C81.2805 126.301 89.956 117.205 89.956 105.984C89.956 94.7639 81.2805 85.668 70.5787 85.668C59.8769 85.668 51.2014 94.7639 51.2014 105.984C51.2014 117.205 59.8769 126.301 70.5787 126.301Z" fill="#FF775D"/>
<path d="M53.5396 85.9724C59.7918 85.9724 64.8602 80.9039 64.8602 74.6517C64.8602 68.3995 59.7918 63.3311 53.5396 63.3311C47.2874 63.3311 42.2189 68.3995 42.2189 74.6517C42.2189 80.9039 47.2874 85.9724 53.5396 85.9724Z" fill="#FF775D"/>
<path fill-rule="evenodd" clip-rule="evenodd" d="M64.4469 111.226C64.285 111.154 64.1582 111.063 64.0169 110.98C61.5728 111.071 58.9831 109.106 59.8492 106.057C63.6072 92.826 56.8733 75.1389 46.9439 66.1542C46.8429 66.0628 47.2549 65.4175 47.1669 65.3232C38.4726 71.3633 32.2957 81.9633 32.2957 93.3518C32.2957 111.824 47.2721 127.072 65.742 126.798C76.9369 126.632 78.0563 125.596 83.3787 121.768C76.9521 118.447 71.065 114.181 64.4469 111.226Z" fill="#FF775D"/>
<g opacity="0.3">
<path d="M56.1879 85.2567C55.9911 85.2567 55.7914 85.2177 55.5996 85.1359C54.8398 84.8105 54.4881 83.931 54.8135 83.1712C56.2201 79.8885 56.1372 76.9536 54.5378 73.3572C54.2017 72.6023 54.5407 71.7188 55.2965 71.3827C56.0475 71.0447 56.936 71.3847 57.271 72.1415C59.1909 76.4557 59.2845 80.3346 57.5642 84.3498C57.3207 84.9167 56.7684 85.2567 56.1879 85.2567Z" fill="#994D6A"/>
<path d="M54.1754 85.8884C52.3295 85.8884 50.4952 85.4101 48.8812 84.4916C46.7937 83.3042 45.1495 81.4222 44.2534 79.1935C43.9446 78.4269 44.3167 77.5551 45.0833 77.2473C45.8479 76.9365 46.7207 77.3096 47.0295 78.0771C47.6744 79.6815 48.8579 81.0354 50.3609 81.8907C51.8649 82.7459 53.6338 83.0723 55.3414 82.8063C56.1539 82.6836 56.9224 83.2398 57.049 84.0561C57.1756 84.8723 56.6165 85.637 55.7993 85.7636C55.2606 85.8474 54.7179 85.8884 54.1754 85.8884Z" fill="#994D6A"/>
<path d="M57.0343 85.6977C56.2726 85.6977 55.6209 85.118 55.5469 84.3447C55.468 83.5216 56.071 82.791 56.8931 82.7121C58.3971 82.568 59.8203 81.3562 60.2031 79.8941C60.4125 79.0963 61.2288 78.617 62.0304 78.8265C62.8292 79.036 63.3075 79.8542 63.098 80.6539C62.3898 83.3531 59.9566 85.424 57.1795 85.6909C57.1308 85.6958 57.082 85.6977 57.0343 85.6977Z" fill="#994D6A"/>
</g>
<path opacity="0.3" d="M92.5048 103.518C91.7177 103.518 91.0583 102.904 91.0125 102.108C90.7466 97.5536 89.2339 94.0722 86.5152 91.7617C83.0864 88.8472 78.1078 88.1995 74.5875 88.5657C73.7643 88.6397 73.0299 88.0533 72.9441 87.2322C72.8584 86.4101 73.4555 85.6747 74.2776 85.5889C76.2813 85.3804 83.2315 85.0444 88.4535 89.4813C91.819 92.3422 93.6843 96.5318 93.999 101.935C94.0477 102.76 93.4175 103.467 92.5924 103.515C92.5632 103.517 92.5341 103.518 92.5048 103.518Z" fill="#994D6A"/>
<path opacity="0.3" d="M64.2367 128.382C63.1974 128.382 62.1161 128.305 60.9551 128.142C60.1369 128.026 59.567 127.269 59.6829 126.451C59.7998 125.632 60.5635 125.069 61.3739 125.179C65.2771 125.731 68.1 125.163 71.9505 123.927C72.7405 123.671 73.5802 124.108 73.8325 124.893C74.0857 125.68 73.6522 126.523 72.8661 126.775C69.7802 127.767 67.1795 128.382 64.2367 128.382Z" fill="#994D6A"/>
<g opacity="0.3">
<path d="M159.51 85.5617C155.436 85.5617 151.973 83.8891 149.335 80.6055C148.818 79.9606 148.921 79.0197 149.565 78.5014C150.212 77.9861 151.152 78.0875 151.669 78.7313C154.554 82.3257 158.417 83.3914 163.48 81.9858C164.279 81.7656 165.101 82.2313 165.322 83.027C165.543 83.8238 165.076 84.6479 164.281 84.8691C162.615 85.3318 161.02 85.5617 159.51 85.5617Z" fill="#994D6A"/>
<path d="M154.144 84.2556C154.12 84.2556 154.095 84.2547 154.07 84.2537C153.245 84.2138 152.608 83.5114 152.649 82.6863C152.814 79.3277 153.832 76.0382 155.595 73.1744C156.028 72.4701 156.95 72.2509 157.653 72.6844C158.356 73.1169 158.576 74.0384 158.143 74.7427C156.644 77.1789 155.778 79.9765 155.638 82.8326C155.599 83.6332 154.937 84.2556 154.144 84.2556Z" fill="#994D6A"/>
</g>
<path d="M153.153 85.2578H144.529L144.541 85.2864C145.702 85.4284 146.604 86.406 146.604 87.605V139.609H155.148V87.2527C155.148 86.1509 154.255 85.2578 153.153 85.2578Z" fill="#FFB544"/>
<path d="M155.148 129.242H151.278V130.293H155.148V129.242Z" fill="#EA851B"/>
<path d="M155.148 119.268H151.278V120.318H155.148V119.268Z" fill="#EA851B"/>
<path d="M155.148 109.293H151.278V110.343H155.148V109.293Z" fill="#EA851B"/>
<path d="M155.148 99.3184H151.278V100.369H155.148V99.3184Z" fill="#EA851B"/>
<path d="M155.148 89.3438H151.278V90.3941H155.148V89.3438Z" fill="#EA851B"/>
<path d="M155.148 134.229H153.273V135.28H155.148V134.229Z" fill="#EA851B"/>
<path d="M155.148 124.255H153.273V125.305H155.148V124.255Z" fill="#EA851B"/>
<path d="M155.148 114.28H153.273V115.331H155.148V114.28Z" fill="#EA851B"/>
<path d="M155.148 104.306H153.273V105.356H155.148V104.306Z" fill="#EA851B"/>
<path d="M155.148 94.3311H153.273V95.3814H155.148V94.3311Z" fill="#EA851B"/>
<path d="M155.901 138.088H145.742C145.191 138.088 144.744 138.534 144.744 139.085V142.715C144.744 143.266 145.191 143.713 145.742 143.713H155.901C156.452 143.713 156.899 143.266 156.899 142.715V139.085C156.899 138.534 156.452 138.088 155.901 138.088Z" fill="#5C5CAA"/>
<g opacity="0.46">
<path d="M115.452 179.127C115.096 179.127 114.738 179.001 114.452 178.744C113.837 178.191 113.788 177.245 114.34 176.631C135.911 152.627 126.543 112.876 125.424 108.496C124.515 107.677 121.343 105.059 116.49 103.638C115.697 103.407 115.243 102.576 115.475 101.782C115.708 100.989 116.535 100.537 117.331 100.767C123.893 102.688 127.673 106.494 127.831 106.654L128.099 106.929L128.202 107.298C128.33 107.752 131.317 118.585 131.434 132.827C131.59 151.795 126.449 167.634 116.565 178.632C116.27 178.96 115.861 179.127 115.452 179.127Z" fill="#EA851B"/>
<path d="M126.761 109.198C126.462 109.198 126.161 109.109 125.899 108.924C125.224 108.448 125.063 107.514 125.539 106.839C125.899 106.328 129.145 101.81 132.024 100.764C132.799 100.483 133.659 100.882 133.941 101.658C134.223 102.435 133.823 103.293 133.046 103.575C131.538 104.125 129.14 106.927 127.984 108.565C127.693 108.977 127.23 109.198 126.761 109.198Z" fill="#EA851B"/>
<path d="M126.022 155.376C122.809 155.376 119.595 154.779 116.58 153.58C115.813 153.275 115.437 152.406 115.742 151.638C116.048 150.869 116.918 150.497 117.685 150.799C123.259 153.014 129.605 152.902 135.097 150.497C135.852 150.165 136.735 150.511 137.067 151.268C137.399 152.025 137.054 152.907 136.297 153.239C133.049 154.662 129.536 155.376 126.022 155.376Z" fill="#EA851B"/>
<path d="M124.185 166.414C120.408 166.414 116.632 165.739 113.067 164.392C112.294 164.1 111.904 163.237 112.196 162.463C112.488 161.69 113.353 161.304 114.125 161.593C120.16 163.873 126.866 164.027 133.003 162.027C133.792 161.769 134.633 162.2 134.888 162.985C135.145 163.771 134.716 164.615 133.93 164.871C130.772 165.901 127.477 166.414 124.185 166.414Z" fill="#EA851B"/>
<path d="M127.234 143.241C124.204 143.241 121.173 142.8 118.263 141.913C117.473 141.672 117.026 140.836 117.268 140.045C117.51 139.254 118.348 138.806 119.135 139.051C124.895 140.806 131.179 140.631 136.83 138.556C137.603 138.271 138.465 138.669 138.75 139.445C139.034 140.221 138.637 141.081 137.86 141.365C134.457 142.614 130.846 143.241 127.234 143.241Z" fill="#EA851B"/>
</g>
</g>
<defs>
<clipPath id="clip0_3044_2529">
<rect width="179.604" height="232" fill="white" transform="translate(0.197968)"/>
</clipPath>
</defs>
</svg>
