<svg width="190" height="232" viewBox="0 0 190 232" fill="none" xmlns="http://www.w3.org/2000/svg">
<g clip-path="url(#clip0_3044_2299)">
<path d="M48.7111 97.196C65.8862 97.196 79.8094 83.2321 79.8094 66.0067C79.8094 48.7813 65.8862 34.8174 48.7111 34.8174C31.536 34.8174 17.6128 48.7813 17.6128 66.0067C17.6128 83.2321 31.536 97.196 48.7111 97.196Z" fill="#252147"/>
<path d="M132.137 86.8824C131.385 86.8824 130.624 86.8648 129.851 86.8306C129.025 86.794 128.386 86.093 128.423 85.2652C128.459 84.4373 129.169 83.7945 129.983 83.8326C136.282 84.1154 141.742 83.1864 147.723 80.8306C151.64 79.2875 156.288 77.3465 161.059 74.6508C166.836 71.3875 171.686 69.9724 176.358 70.1884C177.183 70.2275 177.821 70.9298 177.782 71.7577C177.744 72.5851 177.037 73.2143 176.218 73.1864C172.142 72.9832 167.793 74.2903 162.528 77.2659C157.597 80.0515 152.829 82.0429 148.817 83.6235C143.161 85.8514 137.928 86.8824 132.137 86.8824Z" fill="#AEAED3"/>
<path opacity="0.6" fill-rule="evenodd" clip-rule="evenodd" d="M162.874 226.071C165.184 226.071 167.057 227.399 167.057 229.036C167.057 230.673 165.184 232 162.874 232H39.9854C37.6753 232 35.8023 230.673 35.8023 229.036C35.8023 227.399 37.6753 226.071 39.9854 226.071H162.874Z" fill="#D5CFEE"/>
<path fill-rule="evenodd" clip-rule="evenodd" d="M113.514 110.715L128.778 92.1496C131.059 89.3748 135.152 88.9801 137.919 91.2684L137.935 91.2815L160.923 110.415C163.677 112.707 164.063 116.801 161.786 119.57L146.522 138.135C144.241 140.91 140.148 141.305 137.381 139.016C137.376 139.012 137.371 139.007 137.365 139.003L114.377 119.87C111.623 117.578 111.237 113.484 113.514 110.715Z" fill="#FF775D"/>
<path d="M135.448 124.253C145.157 124.253 153.027 116.359 153.027 106.622C153.027 96.8847 145.157 88.9912 135.448 88.9912C125.739 88.9912 117.869 96.8847 117.869 106.622C117.869 116.359 125.739 124.253 135.448 124.253Z" fill="#FF775D"/>
<path fill-rule="evenodd" clip-rule="evenodd" d="M143.279 123.15C146.418 122.963 149.114 125.363 149.301 128.512L149.872 138.13C150.058 141.278 147.665 143.982 144.526 144.169C141.387 144.356 138.691 141.956 138.504 138.807L137.934 129.189C137.747 126.041 140.141 123.337 143.279 123.15Z" fill="#FF775D"/>
<path fill-rule="evenodd" clip-rule="evenodd" d="M142.219 201.045C148.495 195.622 152.474 187.599 152.474 178.639C152.474 168.495 147.378 159.547 139.617 154.221C139.358 156.141 138.999 158.041 138.541 159.892C138.457 160.231 138.352 160.562 138.262 160.9C136.33 168.14 132.905 174.76 128.315 180.407C128.315 180.407 128.316 180.407 128.315 180.407C128.313 180.41 128.31 180.415 128.307 180.418C122.053 188.131 113.655 194.033 104.019 197.204C103.362 197.424 102.704 197.624 102.046 197.804C102.079 197.847 102.115 197.888 102.147 197.931C101.526 198 100.985 198.162 100.611 198.499C101.058 199.478 113.636 226.837 113.636 226.837L154.257 226.814C154.257 226.814 145.842 209.12 142.219 201.045Z" fill="#FF775D"/>
<path d="M143.813 226.838C143.813 226.838 145.551 221.725 151.375 221.725C157.199 221.725 159.233 226.838 159.233 226.838H143.813Z" fill="#FFB544"/>
<path d="M129.661 226.838C129.661 226.838 131.399 221.725 137.223 221.725C143.048 221.725 145.081 226.838 145.081 226.838H129.661Z" fill="#FFB544"/>
<path d="M43.9897 132.146C38.1948 128.243 30.5267 133.059 31.4986 139.992L33.3835 153.441L55.2316 139.718L43.9897 132.146Z" fill="#FFB544"/>
<path d="M80.7514 6.86929L79.007 26.2191L109.12 19.3829L93.7381 2.41259C89.3091 -2.35982 81.3368 0.376099 80.7514 6.86929Z" fill="#FFB544"/>
<path d="M27.0221 141.929C23.1692 136.109 14.2657 137.608 12.5185 144.37L9.29706 156.834L34.124 152.656L27.0221 141.929Z" fill="#FFB544"/>
<path d="M65.9064 18.8402C58.7405 17.5052 53.3787 25.3057 57.172 31.5476L66.1922 46.391L82.9472 22.0156L65.9064 18.8402Z" fill="#FFB544"/>
<path d="M54.6487 61.8906L69.6151 70.658L72.82 41.2266L56.3195 46.5474C49.3812 48.7849 48.3555 58.2038 54.6487 61.8906Z" fill="#FFB544"/>
<path d="M54.8102 88.7905L70.6211 95.2848L69.7147 66.1143L54.3377 73.5833C47.8718 76.7241 48.1618 86.0595 54.8102 88.7905Z" fill="#FFB544"/>
<path d="M53.2735 109.224L65.2107 119.73L73.2142 93.8164L57.4459 95.7148C50.8153 96.5133 48.254 104.806 53.2735 109.224Z" fill="#FFB544"/>
<path d="M45.0242 126.535L52.6408 139.946L68.1484 118.755L53.1087 115.488C46.7845 114.115 41.8216 120.896 45.0242 126.535Z" fill="#FFB544"/>
<path d="M104.214 131.542C94.2749 161.705 72.888 186.401 45.4408 200.766C47.369 201.075 49.3296 201.292 51.3233 201.398L65.6459 202.155C96.2592 203.773 122.384 180.194 123.998 149.491L124.793 134.347C124.824 133.749 125.003 133.168 125.314 132.657L104.214 131.542Z" fill="#FFB544"/>
<path d="M135.252 94.4051C135.096 93.8749 134.939 93.3454 134.779 92.8163C134.348 91.3859 131.025 78.7805 130.425 78.845L118.982 80.0093C118.389 80.0093 117.583 79.8036 116.992 79.8429C116.882 79.8502 117.101 79.834 116.992 79.8429C116.411 79.89 116.401 81.0896 115.831 81.1736C115.727 81.1888 115.104 80.1593 115.001 80.1756C114.465 80.2611 113.372 80.5575 112.846 80.6746C112.779 80.6894 112.912 80.6592 112.846 80.6746C97.5834 84.2055 103.227 102.297 101.9 118.597C101.403 124.697 99.9099 128.577 97.897 136.468C97.5969 137.644 90.9009 150.3 91.9252 150.728C102.584 155.183 111.075 165.728 111.075 178.032C111.075 185.347 108.421 192.037 104.033 197.2C113.662 194.027 125.048 188.128 131.299 180.419C140.919 168.555 143.881 153.079 143.045 138.135C142.474 127.931 140.969 117.787 138.73 107.819C137.717 103.311 136.553 98.8378 135.252 94.4051Z" fill="#FFB544"/>
<path d="M60.2632 195.263C58.7968 195.033 57.3406 194.803 55.9044 194.583C53.67 194.243 51.4759 193.913 49.3115 193.543C40.8335 192.092 32.7543 190.121 24.4555 185.21C18.5012 181.689 12.4368 176.657 6.04319 169.214C5.98374 169.164 5.94384 169.114 5.90395 169.054C4.62695 167.574 3.34029 165.983 2.03357 164.303C8.59667 183.139 25.0443 197.504 45.4412 200.775H45.4811L52.1737 200.195L63.9733 199.165L77.3488 198.004L60.6718 195.333L60.2632 195.263Z" fill="#FFB544"/>
<path fill-rule="evenodd" clip-rule="evenodd" d="M135.838 28.4579C134.89 28.3278 133.942 28.1978 132.995 28.0777C126.671 18.5045 115.829 12.1924 103.511 12.1924C89.4176 12.1924 77.2489 20.4552 71.5639 32.4192C71.1845 33.0294 70.8554 33.6696 70.5665 34.3599C59.9436 59.9585 72.0324 87.2477 64.1028 114.497C64.1028 114.497 57.7623 129.244 55.1162 133.883C47.3729 147.461 30.7993 154.881 14.2319 154C12.1776 153.89 10.1527 153.65 8.18794 153.28C3.64939 152.42 -0.23066 156.601 1.02629 161.063C1.32531 162.153 1.66473 163.233 2.04365 164.304H2.03338C3.34009 165.984 4.62676 167.575 5.90376 169.055C5.94365 169.115 5.98365 169.165 6.043 169.215C12.4366 176.658 18.5009 181.69 24.4553 185.211C25.3013 185.711 26.1446 186.176 26.9868 186.618C27.2632 186.763 27.539 186.894 27.8152 187.033C28.3821 187.319 28.9485 187.6 29.5142 187.861C29.8382 188.011 30.1617 188.153 30.4854 188.295C31.0064 188.524 31.5273 188.747 32.0479 188.958C32.3826 189.094 32.7174 189.227 33.0521 189.356C33.5711 189.555 34.0903 189.745 34.6094 189.928C34.9337 190.043 35.2577 190.16 35.5821 190.268C36.1439 190.456 36.7063 190.632 37.2687 190.803C37.5453 190.888 37.8216 190.978 38.0984 191.059C38.9249 191.3 39.7525 191.527 40.5821 191.738C40.7356 191.777 40.89 191.81 41.0435 191.849C42.707 192.261 44.3775 192.627 46.0618 192.953L56.0752 216.187L60.9122 226.838L97.1931 226.8H102.076C102.076 226.8 96.0809 214.002 92.2177 205.615C103.248 201.337 111.075 190.605 111.075 178.033C111.075 166.534 104.526 156.576 94.9699 151.685C98.4646 146.268 105.9 134.334 108.533 126.914C115.081 108.464 113.129 85.3166 112.871 82.6064H122.471C122.461 82.5964 122.451 82.5963 122.441 82.5863H122.511C122.721 82.5963 122.91 82.6064 123.06 82.6064C123.379 82.6163 123.548 82.6264 123.548 82.6264H125.892L132.176 82.6364C145.861 82.6364 157.401 72.4129 159.106 58.7983C160.952 44.0033 150.579 30.4685 135.838 28.4579Z" fill="#FF775D"/>
<path d="M72.4357 123.781C82.4346 123.781 90.5404 115.652 90.5404 105.624C90.5404 95.5953 82.4346 87.4658 72.4357 87.4658C62.4367 87.4658 54.331 95.5953 54.331 105.624C54.331 115.652 62.4367 123.781 72.4357 123.781Z" fill="#FF775D"/>
<path d="M54.1259 83.3363C60.3778 83.3363 65.446 78.2533 65.446 71.9831C65.446 65.7129 60.3778 60.6299 54.1259 60.6299C47.874 60.6299 42.8058 65.7129 42.8058 71.9831C42.8058 78.2533 47.874 83.3363 54.1259 83.3363Z" fill="#FF775D"/>
<path fill-rule="evenodd" clip-rule="evenodd" d="M65.0326 108.664C64.8708 108.591 64.744 108.5 64.6026 108.417C62.1587 108.508 59.5691 106.537 60.4351 103.479C64.193 90.2108 57.4594 72.4728 47.5306 63.4623C47.4295 63.3706 47.8415 62.7234 47.7535 62.6289C39.0596 68.6864 32.8831 79.3168 32.8831 90.7381C32.8831 109.263 47.8587 124.555 66.3277 124.281C77.522 124.114 78.6414 123.075 83.9635 119.236C77.5373 115.905 71.6504 111.628 65.0326 108.664Z" fill="#FF775D"/>
<path opacity="0.3" d="M64.3932 125.674C63.0189 125.674 61.6464 125.579 60.2886 125.386C59.4704 125.27 58.9006 124.511 59.0165 123.69C59.1314 122.87 59.8932 122.302 60.7074 122.414C64.6503 122.973 68.7423 122.624 72.5362 121.4C73.3281 121.148 74.1668 121.581 74.418 122.369C74.6713 123.158 74.2388 124.004 73.4517 124.257C70.5364 125.197 67.4624 125.674 64.3932 125.674Z" fill="#994D6A"/>
<path d="M111.162 50.2176C106.648 51.0272 102.308 47.7766 101.432 42.9299C100.556 38.0795 103.512 33.5413 108.063 32.7504C112.703 31.9439 116.893 35.0723 117.763 39.991C118.623 44.8579 115.687 49.4062 111.162 50.2176Z" fill="#252147"/>
<path d="M107.03 45.0719C105.196 45.0872 103.701 43.6117 103.679 41.7639C103.658 39.9146 105.126 38.4221 106.973 38.416C108.857 38.4098 110.301 39.8307 110.316 41.7047C110.33 43.559 108.869 45.0566 107.03 45.0719Z" fill="white"/>
<path d="M122.792 30.7063L97.164 31.7842L97.5117 40.0997L123.139 39.0218L122.792 30.7063Z" fill="#FF775D"/>
<path d="M130.004 21.9932C127.093 19.1978 123.766 16.9104 120.113 15.1955C119.871 15.0816 119.602 15.0387 119.336 15.0709C118.504 15.1687 117.671 15.2688 116.834 15.3846C100.373 17.6553 85.2525 22.5999 73.1086 29.6843C72.8929 29.8088 72.7121 29.9901 72.5851 30.2089C71.5638 31.9727 70.638 33.8834 69.8334 35.8885C68.8696 38.2916 68.0806 40.8232 67.4884 43.413C67.3539 44.0006 67.5955 44.5887 68.103 44.9111C68.3378 45.0606 68.5993 45.1343 68.8598 45.1343C69.1676 45.1343 69.4734 45.0313 69.7321 44.8276C82.3537 34.8745 101.628 27.6729 122.613 25.0689C124.717 24.8081 126.91 24.5903 129.131 24.4217C129.695 24.3792 130.165 24.0212 130.355 23.4878C130.545 22.9568 130.41 22.3844 130.004 21.9932Z" fill="#383875"/>
<path d="M130.004 19.9919C128.556 18.6017 127.005 17.3382 125.363 16.2073C124.627 16.823 123.927 17.047 123.54 16.2227C121.84 12.6051 116.201 13.4783 116.201 13.4783L116.202 13.4772C99.9868 15.7866 85.0963 20.6896 73.1086 27.6829C72.8929 27.8074 72.7121 27.9887 72.5851 28.2075C71.5638 29.9713 70.638 31.882 69.8334 33.8871C68.8696 36.2902 68.0806 38.8218 67.4884 41.4116C67.3539 41.9992 67.5955 42.5873 68.103 42.9097C68.3378 43.0592 68.5993 43.1329 68.8598 43.1329C69.1676 43.1329 69.4734 43.0299 69.7321 42.8262C82.3537 32.8731 101.628 25.6715 122.613 23.0675C124.717 22.8067 126.91 22.5889 129.131 22.4203C129.695 22.3778 130.165 22.0198 130.355 21.4864C130.545 20.9554 130.41 20.3831 130.004 19.9919Z" fill="#5C5CAA"/>
<path d="M128.849 18.9693C127.734 17.9851 126.583 17.0476 125.363 16.2074C124.627 16.8231 123.927 17.047 123.54 16.2228C123.466 16.0657 123.376 15.9278 123.288 15.7871C121.682 16.0478 119.656 16.3759 118.055 16.6332C117.8 16.6658 117.547 16.695 117.292 16.7302C101.693 18.8826 86.785 23.7128 75.2469 30.3455L70.2794 32.8775C70.1337 33.2171 69.9719 33.5418 69.8333 33.8873C69.6006 34.4677 69.3791 35.0562 69.167 35.6506L67.9842 39.4915L72.3396 36.7838C85.2536 28.2237 103.059 22.0897 122.2 19.7143C122.845 19.6344 123.498 19.5582 124.155 19.4869L128.849 18.9693Z" fill="white"/>
<path d="M175.604 68.2024C174.939 68.2024 174.32 68.3763 173.774 68.6663C172.521 66.2239 169.994 64.5488 167.064 64.5488H157.571L148.687 68.6158L159.532 72.5906C159.773 76.5595 163.05 79.7042 167.064 79.7042C169.994 79.7042 172.52 78.0291 173.774 75.5868C174.319 75.8768 174.939 76.0507 175.604 76.0507C177.765 76.0507 179.517 74.2938 179.517 72.1266C179.517 69.9594 177.765 68.2024 175.604 68.2024ZM175.604 73.6359C175.188 73.6359 174.811 73.4662 174.539 73.1924C174.588 72.8435 174.62 72.4891 174.62 72.1266C174.62 71.7641 174.588 71.4095 174.539 71.0606C174.811 70.7868 175.188 70.6173 175.604 70.6173C176.435 70.6173 177.109 71.293 177.109 72.1266C177.109 72.9602 176.435 73.6359 175.604 73.6359Z" fill="#413F87"/>
<path d="M174.59 58.3552C174.284 58.1067 174.206 57.6703 174.408 57.331L180.111 47.7422C180.785 46.6089 182.247 46.2379 183.377 46.9135C184.507 47.5891 184.877 49.0555 184.203 50.1888C184.088 50.3837 183.945 50.561 183.779 50.7153L175.627 58.3189C175.338 58.5881 174.897 58.6037 174.59 58.3552Z" fill="#FFB544"/>
<path d="M169.048 56.2907C168.651 56.2874 168.314 55.9981 168.248 55.6049L166.859 47.2757C166.648 46.0169 167.495 44.8253 168.75 44.6142C170.005 44.4031 171.193 45.2525 171.404 46.5114C171.449 46.7779 171.446 47.0503 171.397 47.3161L169.861 55.6191C169.788 56.0108 169.446 56.2938 169.048 56.2907ZM177.765 63.3565C177.851 63.7455 178.204 64.0155 178.601 63.9973L187.013 63.6135C188.284 63.5559 189.268 62.4755 189.211 61.2004C189.153 59.9253 188.076 58.9382 186.805 58.9959C186.535 59.0081 186.27 59.0676 186.022 59.1716L178.249 62.4191C177.883 62.5727 177.678 62.9677 177.765 63.3565Z" fill="#FFB544"/>
<path d="M133.718 108.998C132.182 108.998 130.656 108.902 129.144 108.707C120.776 107.633 113.316 103.717 107.122 100.028C100.416 96.0347 92.6258 91.9874 85.7481 88.9229C81.7068 87.1225 79.1402 86.3375 75.5889 85.2508C73.031 84.4683 70.1324 83.5813 65.9537 82.091C65.1754 81.8136 64.7692 80.9553 65.0458 80.1748C65.3215 79.3934 66.1747 78.987 66.9569 79.2634C71.0712 80.7307 73.9349 81.607 76.4616 82.3802C79.9779 83.4558 82.7539 84.3056 86.9627 86.1803C93.9436 89.2902 101.848 93.3971 108.65 97.4478C114.581 100.979 121.698 104.726 129.523 105.731C139.153 106.967 149.486 103.857 157.876 97.1977C164.645 91.8233 169.974 83.3912 174.168 71.42C174.441 70.6385 175.298 70.2258 176.075 70.5017C176.854 70.7762 177.264 71.6325 176.99 72.4144C172.605 84.9373 166.96 93.8138 159.732 99.551C152.025 105.67 142.757 108.998 133.718 108.998Z" fill="#AEAED3"/>
<path d="M60.1595 96.8142C77.3346 96.8142 91.2577 82.8503 91.2577 65.6249C91.2577 48.3995 77.3346 34.4355 60.1595 34.4355C42.9844 34.4355 29.0612 48.3995 29.0612 65.6249C29.0612 82.8503 42.9844 96.8142 60.1595 96.8142Z" fill="#413F87"/>
<path opacity="0.77" d="M60.1595 80.3155C68.2488 80.3155 74.8065 73.7386 74.8065 65.6255C74.8065 57.5125 68.2488 50.9355 60.1595 50.9355C52.0701 50.9355 45.5124 57.5125 45.5124 65.6255C45.5124 73.7386 52.0701 80.3155 60.1595 80.3155Z" fill="#252147"/>
<path d="M114.725 74.4285C113.76 74.4285 112.979 73.6446 112.979 72.678C112.979 71.7113 113.76 70.9274 114.725 70.9274C119.054 70.9274 122.577 67.3945 122.577 63.0517C122.577 61.3729 122.058 59.7713 121.077 58.4197C120.51 57.6387 120.681 56.5436 121.46 55.9741C122.238 55.4051 123.331 55.5775 123.898 56.3585C125.318 58.3123 126.068 60.6271 126.068 63.0517C126.068 69.3248 120.98 74.4285 114.725 74.4285Z" fill="#994D6A"/>
<path d="M128.92 69.7868C127.115 69.7868 125.27 69.5728 123.435 69.1499C122.495 68.9335 121.908 67.9942 122.124 67.052C122.34 66.1093 123.276 65.5193 124.216 65.7376C125.824 66.1078 127.425 66.2807 129.005 66.2856C147.81 66.2021 156.682 64.453 156.769 64.4354C157.705 64.2474 158.635 64.857 158.826 65.8046C159.016 66.7517 158.407 67.6748 157.462 67.8668C157.094 67.942 148.228 69.7014 129.021 69.7868H128.92Z" fill="#994D6A"/>
<path d="M90.0808 226.838C90.0808 226.838 91.8182 221.725 97.6425 221.725C103.467 221.725 105.5 226.838 105.5 226.838H90.0808Z" fill="#FFB544"/>
<path d="M75.929 226.838C75.929 226.838 77.6664 221.725 83.4907 221.725C89.3151 221.725 91.3483 226.838 91.3483 226.838H75.929Z" fill="#FFB544"/>
<path d="M141.668 53.6908C142.726 53.2588 143.106 51.7348 142.518 50.2868C141.93 48.8389 140.596 48.0153 139.539 48.4473C138.481 48.8793 138.1 50.4033 138.688 51.8512C139.276 53.2992 140.61 54.1228 141.668 53.6908Z" fill="#994D6A"/>
<path d="M151.171 51.648C152.228 51.45 152.866 50.116 152.597 48.6684C152.327 47.2209 151.252 46.208 150.194 46.4061C149.137 46.6041 148.499 47.9381 148.768 49.3856C149.038 50.8331 150.113 51.846 151.171 51.648Z" fill="#994D6A"/>
</g>
<defs>
<clipPath id="clip0_3044_2299">
<rect width="188.426" height="232" fill="white" transform="translate(0.786804)"/>
</clipPath>
</defs>
</svg>
