<svg width="169" height="150" viewBox="0 0 169 150" fill="none" xmlns="http://www.w3.org/2000/svg">
<g clip-path="url(#clip0_3044_3365)">
<path d="M91.7179 81.088C97.8401 81.088 102.803 75.9016 102.803 69.504C102.803 63.1063 97.8401 57.9199 91.7179 57.9199C85.5956 57.9199 80.6326 63.1063 80.6326 69.504C80.6326 75.9016 85.5956 81.088 91.7179 81.088Z" fill="#FF775D"/>
<path fill-rule="evenodd" clip-rule="evenodd" d="M96.0068 49.4953C96.0068 53.3128 99.1081 56.4062 102.935 56.4062C106.762 56.4062 109.863 53.3128 109.863 49.4953C109.863 45.6779 107.224 43.1768 103.397 43.1768C99.57 43.1768 96.0068 45.6779 96.0068 49.4953Z" fill="#FF775D"/>
<path fill-rule="evenodd" clip-rule="evenodd" d="M96.2708 71.8735C96.4028 71.8735 96.4687 71.7418 96.5347 71.7418C98.0524 71.7418 99.636 70.6229 99.1081 68.7142C96.7987 60.6185 100.362 50.3509 106.498 44.8221C106.498 44.8221 106.498 43.8349 106.498 43.769C112.503 46.5334 116 53.9709 116 60.9476C116 72.2684 106.828 81.5488 95.479 81.4171C88.6166 81.2855 87.9568 80.6931 84.6576 78.3237C88.6166 76.2833 92.1798 73.7164 96.2708 71.8735Z" fill="#FF775D"/>
<g opacity="0.3">
<path d="M100.098 55.6822C99.57 55.6822 99.1081 55.2215 99.1741 54.6291C99.3061 52.5229 99.8999 50.4826 101.022 48.7055C101.286 48.2447 101.945 48.1131 102.407 48.3764C102.869 48.6396 103.001 49.2978 102.737 49.7586C101.813 51.2724 101.286 52.9837 101.22 54.7607C101.22 55.2873 100.758 55.6822 100.23 55.6822H100.098Z" fill="#994D6A"/>
<path fill-rule="evenodd" clip-rule="evenodd" d="M105.838 54.1685C102.737 55.0241 100.362 54.3659 98.5802 52.1939C98.2503 51.799 97.5905 51.7332 97.1946 52.0623C96.9966 52.2597 96.8646 52.523 96.7986 52.7863C97.3925 53.8394 98.1843 54.7608 99.2401 55.419C100.164 56.0114 101.154 56.3405 102.275 56.4721C102.473 56.4721 102.737 56.4721 103.001 56.4721C104.519 56.4721 105.97 55.9456 107.158 55.0899C107.158 55.0241 107.158 54.9583 107.158 54.8266C107.026 54.3001 106.498 53.971 105.97 54.1685H105.838Z" fill="#994D6A"/>
</g>
<path opacity="0.6" fill-rule="evenodd" clip-rule="evenodd" d="M155.904 146.116C157.422 146.116 158.676 146.972 158.676 148.091C158.676 149.21 157.422 150.065 155.904 150.065H24.6121C23.0945 150.065 21.8408 149.21 21.8408 148.091C21.8408 146.972 23.0945 146.116 24.6121 146.116H155.904Z" fill="#D5CFEE"/>
<path fill-rule="evenodd" clip-rule="evenodd" d="M93.5654 131.637C97.7224 128.083 100.362 122.817 100.362 116.894C100.362 110.97 96.9966 104.322 91.8498 100.834C91.6519 102.085 91.4539 103.335 91.124 104.586C91.124 104.783 90.992 105.046 90.9261 105.244C89.6724 109.983 87.3629 114.393 84.3276 118.078C80.1706 123.146 74.628 127.03 68.2275 129.136C67.7656 129.268 67.3697 129.399 66.9078 129.531C66.9078 129.531 66.9078 129.531 66.9738 129.597C66.5779 129.597 66.182 129.728 65.9841 129.992C66.248 130.65 74.628 145.985 74.628 145.985H101.484C101.484 145.985 95.9408 136.968 93.4994 131.637H93.5654Z" fill="#FF775D"/>
<path d="M94.6212 145.985C94.6212 145.985 95.7429 142.628 99.6359 142.628C103.529 142.628 104.849 145.985 104.849 145.985H94.6212Z" fill="#FFB544"/>
<path d="M85.2515 145.985C85.2515 145.985 86.3732 142.628 90.2663 142.628C94.1593 142.628 95.479 145.985 95.479 145.985H85.2515Z" fill="#FFB544"/>
<path d="M28.5711 86.2877C24.7441 83.7207 19.6633 86.88 20.3231 91.4215L21.5768 100.241L36.0273 91.224L28.5711 86.2218V86.2877Z" fill="#FFB544"/>
<path d="M52.8532 4.34398L51.7315 16.5862L70.9329 12.2422L61.1672 1.51379C58.3299 -1.51385 53.2491 0.197424 52.9192 4.34398H52.8532Z" fill="#FFB544"/>
<path d="M17.3538 92.738C14.7804 88.9206 8.90784 89.9078 7.78611 94.3177L5.67462 102.545L22.1047 99.7806L17.4198 92.738H17.3538Z" fill="#FFB544"/>
<path d="M44.0774 11.8475C39.7884 11.0577 36.5552 15.7308 38.7987 19.4824L44.2094 28.3679L54.3049 13.7562L44.0114 11.8475H44.0774Z" fill="#FFB544"/>
<path d="M35.6314 39.9519L44.6712 45.2173L46.5848 27.5122L36.6212 30.7373C32.3982 32.0537 31.8044 37.7141 35.6314 39.9519Z" fill="#FFB544"/>
<path d="M36.2253 57.7224L46.0569 61.7374L45.463 43.7031L35.8953 48.3104C31.8703 50.2191 32.0683 56.0112 36.1593 57.7224H36.2253Z" fill="#FFB544"/>
<path d="M33.4539 72.0052L41.9659 78.1263L45.595 60.6187L35.3015 62.8565C31.0125 63.7779 29.8248 69.3725 33.3879 71.9394L33.4539 72.0052Z" fill="#FFB544"/>
<path d="M29.2969 82.6018L34.3117 91.4215L44.5392 77.468L34.5756 75.296C30.4186 74.3745 27.1194 78.8502 29.2309 82.536L29.2969 82.6018Z" fill="#FFB544"/>
<path d="M68.4255 85.8926C61.8271 105.77 47.7065 121.961 29.5609 131.439C30.8145 131.636 32.1342 131.768 33.4539 131.834L42.9556 132.36C63.2127 133.413 80.5006 117.88 81.5563 97.7399L82.0842 87.8013C82.0842 87.4064 82.2161 87.0115 82.4141 86.6824L68.4255 85.9584V85.8926Z" fill="#FFB544"/>
<path d="M88.9465 61.4742C88.8146 61.1451 88.7486 60.7502 88.6166 60.4211C88.3527 59.4997 86.1092 51.2065 85.7133 51.2065C85.7133 51.2065 76.8715 51.8647 76.8055 51.8647C76.4096 51.8647 74.43 52.3255 74.0341 52.3913C63.9386 54.6949 67.6997 66.608 66.7759 77.3364C66.446 81.3513 65.4562 83.9183 64.1365 89.1179C63.9386 89.9077 59.5176 98.2008 60.1775 98.5299C67.2378 101.492 72.8464 108.403 72.8464 116.498C72.8464 124.594 71.0649 125.713 68.1616 129.135C74.562 127.029 82.0842 123.146 86.1752 118.078C92.5097 110.246 94.4892 100.11 93.9613 90.2368C93.5654 83.5234 92.5757 76.8757 91.124 70.2939C90.4642 67.332 89.6724 64.3702 88.8146 61.4742H88.9465Z" fill="#FFB544"/>
<path fill-rule="evenodd" clip-rule="evenodd" d="M74.1001 52.1282L69.5472 51.9307C69.5472 51.47 69.5472 51.2067 69.5472 51.2067L68.4915 51.8649H66.446C66.38 51.6017 66.314 51.4042 66.248 51.1409C65.1923 46.2045 61.4312 42.3213 60.9033 37.3191C60.3095 32.1194 60.1115 26.9198 59.9136 21.6543C59.8476 19.0874 59.8476 16.5205 59.7816 13.8877C59.7816 12.4397 60.1775 10.2019 59.6496 8.75391C53.909 10.8601 49.2901 15.1383 46.6508 20.6012C46.3868 20.9961 46.1889 21.391 45.9909 21.8518C38.9306 38.7013 46.9807 56.6697 41.702 74.5723C41.702 74.5723 37.479 84.2475 35.7634 87.341C30.6166 96.2923 19.6633 101.163 8.70992 100.57C7.32425 100.505 6.00457 100.307 4.68489 100.11C1.64962 99.5174 -0.857775 102.282 -0.0659661 105.244C0.131986 105.968 0.329938 106.692 0.593875 107.35C1.45167 108.469 2.30946 109.522 3.16725 110.509C3.16725 110.509 3.16725 110.575 3.23324 110.641L11.5472 120.777L15.3743 121.106C20.851 124.331 26.1957 125.647 31.8043 126.569C33.256 126.832 34.7076 127.029 36.1593 127.227C37.0831 127.359 38.0728 127.49 39.0626 127.688H39.3265L50.3459 129.465L56.4164 124.133L64.5324 116.959L63.2787 116.301L68.7554 111.496L69.9431 106.363C69.2833 105.244 68.4915 104.191 67.5677 103.203C67.4357 103.072 67.3038 102.94 67.2378 102.808C67.0398 102.611 66.8419 102.413 66.6439 102.216C66.512 102.084 66.314 101.887 66.182 101.755C65.9841 101.558 65.7861 101.426 65.5882 101.229C65.3902 101.097 65.1923 100.9 64.9943 100.768C64.7964 100.636 64.5984 100.505 64.4005 100.373C64.2025 100.241 63.9386 100.044 63.7406 99.9123C63.5427 99.7807 63.4107 99.649 63.2128 99.5832C62.9488 99.4516 62.6849 99.2541 62.4209 99.1225C62.289 99.0567 62.157 98.925 61.9591 98.8592C64.2685 95.305 69.2173 87.4726 70.9329 82.5363C75.5518 69.6359 73.7702 51.7991 73.7702 51.7991L74.1001 52.1282Z" fill="#FF775D"/>
<path d="M53.4471 135.981C64.2339 135.981 72.9784 127.259 72.9784 116.499C72.9784 105.739 64.2339 97.0166 53.4471 97.0166C42.6603 97.0166 33.9158 105.739 33.9158 116.499C33.9158 127.259 42.6603 135.981 53.4471 135.981Z" fill="#FF775D"/>
<path d="M39.3265 127.819C38.3367 127.687 37.413 127.49 36.4232 127.358C34.9716 127.161 33.5199 126.897 32.0683 126.7C26.4596 125.778 21.1149 124.462 15.6382 121.237C11.6792 118.933 7.72014 115.577 3.43117 110.706C3.43117 110.706 3.43117 110.64 3.36519 110.574C2.50739 109.587 1.6496 108.534 0.791809 107.415C5.14676 119.789 16.0341 129.267 29.4949 131.439L33.9158 131.044L41.7019 130.386L50.5438 129.596L39.5245 127.819H39.2605H39.3265Z" fill="#FFB544"/>
<path fill-rule="evenodd" clip-rule="evenodd" d="M67.0398 145.919C67.0398 145.919 60.6394 135.059 58.8578 131.044C58.5279 130.386 58.3299 129.86 58.9898 129.201C66.512 121.632 64.9943 107.745 53.5131 102.545C52.7213 106.099 51.9955 109.587 51.1377 113.142C50.0159 118.012 47.9044 122.027 44.8692 125.121C39.3265 121.237 36.0933 117.946 28.0432 116.63C27.7133 117.486 27.3174 118.407 26.9215 119.263L36.5552 138.942L39.7224 145.919H63.7406H66.9738H67.0398Z" fill="#FF775D"/>
<path d="M59.0558 145.985C59.0558 145.985 60.1775 142.628 64.0706 142.628C67.9636 142.628 69.2833 145.985 69.2833 145.985H59.0558Z" fill="#FFB544"/>
<path d="M49.686 145.985C49.686 145.985 50.8078 142.628 54.7008 142.628C58.5939 142.628 59.9136 145.985 59.9136 145.985H49.686Z" fill="#FFB544"/>
<path fill-rule="evenodd" clip-rule="evenodd" d="M90.3982 34.5546C90.6621 33.1724 90.7941 31.7902 90.7941 30.408C90.7941 17.7051 80.4346 7.37158 67.6996 7.37158C54.9647 7.37158 44.6052 17.7051 44.6052 30.408C44.6052 43.1109 54.9647 53.4444 67.6996 53.4444C80.4346 53.4444 73.9681 52.7862 76.7395 51.6015C79.1149 44.6248 84.7895 39.3593 90.3982 34.5546Z" fill="#FF775D"/>
<path fill-rule="evenodd" clip-rule="evenodd" d="M86.5711 36.0685L90.1342 40.0176L95.5449 45.2172L88.2867 50.2853L71.1968 48.9031L66.05 44.8223L67.3037 36.5292L76.2776 33.8965L86.5711 36.0685Z" fill="#203064"/>
<path d="M88.7486 47.5867C88.0887 47.5867 87.4949 47.5867 86.835 47.5867C86.835 47.5867 86.7031 47.5867 86.6371 47.5867C83.4699 47.4551 81.6883 46.6653 78.785 45.678C78.587 45.678 77.3333 46.6653 77.1354 46.5994L75.9477 44.2958C75.9477 44.2958 75.8157 44.1642 75.7497 44.0983L75.4198 43.7693C75.4198 43.7693 75.4198 43.6376 75.4198 43.5718L75.7497 43.2427C77.3993 41.3998 82.5461 42.1896 84.6576 43.2427C86.0432 43.9667 88.3527 45.9413 88.6166 47.5209L88.7486 47.5867Z" fill="#FF775D"/>
<path fill-rule="evenodd" clip-rule="evenodd" d="M71.6587 45.7436C72.0546 44.0981 74.3641 42.9792 75.4198 43.2425C76.4756 43.5058 77.9932 45.612 77.5313 47.2574C77.0694 48.9029 74.892 49.6927 73.8362 49.4294C72.7805 49.1661 71.1969 47.389 71.6587 45.7436Z" fill="white"/>
<path fill-rule="evenodd" clip-rule="evenodd" d="M77.1354 47.192C77.5973 45.349 80.1707 44.0985 81.3584 44.4276C82.5461 44.7567 84.1957 47.0603 83.7338 48.9032C83.2719 50.7462 80.7646 51.6676 79.5768 51.3385C78.3891 51.0094 76.6735 49.0349 77.1354 47.192Z" fill="white"/>
<path fill-rule="evenodd" clip-rule="evenodd" d="M83.008 48.0475C83.1399 46.2046 85.3834 44.4275 86.6371 44.5591C87.8908 44.6908 89.9363 46.6653 89.8043 48.5082C89.6724 50.3511 87.4289 51.7333 86.1752 51.6675C84.9215 51.6017 82.876 49.8904 83.008 48.0475Z" fill="white"/>
<path fill-rule="evenodd" clip-rule="evenodd" d="M88.8146 47.5208C88.8146 45.7437 90.4642 43.9666 91.5199 43.9008C92.5757 43.8349 94.4232 45.5462 94.4892 47.3233C94.4892 49.1004 92.7736 50.5484 91.7179 50.6142C90.6621 50.6801 88.8146 49.2979 88.7486 47.5208H88.8146Z" fill="white"/>
<path fill-rule="evenodd" clip-rule="evenodd" d="M81.1604 39.3595C81.2924 41.2024 79.3129 43.2428 78.0592 43.3744C76.8055 43.5061 74.496 41.729 74.3641 39.886C74.2321 38.0431 76.2776 36.3319 77.5313 36.266C78.785 36.2002 81.0284 37.5166 81.1604 39.4253V39.3595Z" fill="#F2F2F2"/>
<path fill-rule="evenodd" clip-rule="evenodd" d="M87.7588 39.0958C87.8908 40.9387 85.9113 42.9791 84.6576 43.1107C83.4039 43.2424 81.0944 41.4653 80.9624 39.6224C80.8305 37.7795 82.876 36.0682 84.1297 36.0024C85.3834 35.9365 87.6268 37.2529 87.7588 39.1616V39.0958Z" fill="#F2F2F2"/>
<path fill-rule="evenodd" clip-rule="evenodd" d="M93.6974 37.9773C94.0273 39.8202 92.2457 42.058 90.992 42.2555C89.7383 42.4529 87.2969 41.0049 86.967 39.162C86.6371 37.3191 88.4846 35.4104 89.7383 35.2129C90.992 35.0154 93.3675 36.1344 93.6974 37.9773Z" fill="#F2F2F2"/>
<path fill-rule="evenodd" clip-rule="evenodd" d="M99.57 35.7393C100.032 37.5822 98.4483 39.8858 97.2605 40.2149C96.0728 40.544 93.4335 39.2935 92.9716 37.4506C92.5097 35.6076 94.1593 33.6331 95.413 33.304C96.6667 32.9749 99.1081 33.8964 99.57 35.7393Z" fill="#F2F2F2"/>
<path fill-rule="evenodd" clip-rule="evenodd" d="M79.9067 13.1638C79.9067 13.1638 88.5506 12.4398 93.6974 14.4143C99.1081 16.5205 102.341 21.4569 102.803 24.4845C103.331 27.7754 104.321 34.8838 95.6769 37.4507C87.4289 39.9518 85.4494 39.886 81.6883 40.0835C78.1911 40.2809 71.2628 39.162 70.0751 40.0835C68.3595 41.334 72.9784 46.402 79.8407 47.1919C86.7031 47.9817 91.9818 46.402 93.4994 45.8097C95.0171 45.2173 96.3368 44.4275 96.0068 46.7311C95.6769 48.8373 92.6417 52.6548 81.1604 52.7864C69.8112 52.918 62.7509 52.5231 62.7509 52.5231L58.5939 26.3933L79.9067 13.2296V13.1638Z" fill="#FF775D"/>
<path d="M90.3494 25.9382C91.0579 25.6498 91.3198 24.652 90.9343 23.7097C90.5487 22.7673 89.6618 22.2372 88.9532 22.5256C88.2447 22.814 87.9828 23.8118 88.3684 24.7542C88.7539 25.6965 89.6408 26.2266 90.3494 25.9382Z" fill="#994D6A"/>
<path d="M96.6833 24.683C97.3997 24.5493 97.8337 23.6588 97.6527 22.6941C97.4717 21.7294 96.7442 21.0558 96.0278 21.1895C95.3114 21.3232 94.8774 22.2137 95.0584 23.1784C95.2394 24.1431 95.9669 24.8168 96.6833 24.683Z" fill="#994D6A"/>
<path d="M70.9989 29.2233C67.8976 29.7498 64.9283 27.5778 64.3345 24.4185C63.7406 21.1934 65.7861 18.2316 68.8874 17.705C72.0546 17.1785 74.9579 19.2189 75.5518 22.5098C76.1456 25.7349 74.1001 28.7625 70.9989 29.2891V29.2233Z" fill="#252147"/>
<path d="M72.3186 23.6945C71.1968 24.0894 69.9431 23.497 69.5472 22.3123C69.0854 21.1276 69.6792 19.877 70.8009 19.4163C71.9227 19.0214 73.1764 19.6137 73.5723 20.7985C74.0342 21.9832 73.4403 23.2337 72.3186 23.6945Z" fill="white"/>
<path opacity="0.6" d="M68.2935 27.3804C67.5677 27.6437 66.7759 27.2487 66.512 26.4589C66.248 25.7349 66.578 24.8793 67.3038 24.616C68.0296 24.3527 68.8214 24.7477 69.0853 25.4717C69.3493 26.2615 69.0194 27.0513 68.2935 27.3146V27.3804Z" fill="white"/>
<path fill-rule="evenodd" clip-rule="evenodd" d="M73.6383 39.6882C73.6383 39.6882 71.3288 41.4653 71.5268 43.5715C71.5268 43.5715 65.4562 39.0958 67.0399 39.2275C69.8112 39.4907 73.7042 39.6882 73.7042 39.6882H73.6383Z" fill="#CC4533"/>
<path fill-rule="evenodd" clip-rule="evenodd" d="M65.1923 72.4659C66.8419 74.4404 66.5779 77.4022 64.5984 79.0477L48.0364 92.7379C46.0569 94.3834 43.0876 94.1201 41.438 92.0797L30.4187 78.7844C28.7691 76.8099 29.033 73.848 31.0125 72.2026L47.5745 58.5124C49.554 56.8669 52.5233 57.1302 54.1729 59.1047L65.1923 72.4V72.4659Z" fill="#FF775D"/>
<path fill-rule="evenodd" clip-rule="evenodd" d="M47.6405 85.6958L47.2446 92.6068C47.1126 94.8446 45.1991 96.5559 42.8896 96.4242C40.5802 96.2926 38.9306 94.3839 39.0626 92.0802L39.4585 85.1693C39.5904 82.9315 41.504 81.2202 43.8134 81.3518C46.0569 81.4835 47.7725 83.3922 47.6405 85.6958Z" fill="#FF775D"/>
<path d="M49.2241 84.1816C56.7312 84.1816 62.8168 78.1112 62.8168 70.623C62.8168 63.1348 56.7312 57.0645 49.2241 57.0645C41.7171 57.0645 35.6314 63.1348 35.6314 70.623C35.6314 78.1112 41.7171 84.1816 49.2241 84.1816Z" fill="#FF775D"/>
<path opacity="0.3" d="M43.0876 97.4109C42.9557 97.4109 42.8897 97.4109 42.7577 97.4109C42.2298 97.4109 41.768 96.8844 41.8339 96.3578C41.8999 95.8313 42.3618 95.3706 42.8897 95.4364C44.5393 95.5022 46.0569 94.2517 46.1889 92.6062L45.3971 84.3131C45.3971 84.0498 45.3971 83.7865 45.661 83.5233C45.859 83.3258 46.1229 83.1942 46.3868 83.1942H49.2242C56.1525 83.1942 61.8271 77.5338 61.8271 70.6229C61.8271 63.7119 59.7156 62.4614 56.1525 60.0919C55.6906 59.7628 55.5586 59.1705 55.8885 58.7098C56.2185 58.249 56.8123 58.1174 57.2742 58.4465C61.3652 61.145 63.8726 65.6865 63.8726 70.6229C63.8726 78.6527 57.3402 85.1687 49.2901 85.1687H47.5086L48.2344 92.4746V92.6062C48.1024 95.3048 45.793 97.4109 43.1536 97.4109H43.0876Z" fill="#994D6A"/>
<path d="M156.081 100.357H149.127V140.223H156.081C161.573 140.223 166.024 131.299 166.024 120.29C166.024 109.282 161.573 100.357 156.081 100.357Z" fill="#413F87"/>
<path d="M145.973 94.5H136.975V146.081H145.973C153.078 146.081 158.838 134.534 158.838 120.29C158.838 106.047 153.078 94.5 145.973 94.5Z" fill="#413F87"/>
<path d="M136.975 146.079C144.081 146.079 149.841 134.532 149.841 120.289C149.841 106.046 144.081 94.5 136.975 94.5C129.87 94.5 124.11 106.046 124.11 120.289C124.11 134.532 129.87 146.079 136.975 146.079Z" fill="#252147"/>
<path d="M141.147 120.163C141.147 122.299 140.283 124.031 139.217 124.031H84.3896V116.294H139.217C140.283 116.294 141.147 118.026 141.147 120.163Z" fill="#413F87"/>
<path d="M74.8002 94.5H65.803V146.081H74.8002C81.9057 146.081 87.6656 134.534 87.6656 120.29C87.6656 106.047 81.9056 94.5 74.8002 94.5Z" fill="#413F87"/>
<path d="M65.803 146.08C72.9083 146.08 78.6684 134.533 78.6684 120.29C78.6684 106.047 72.9083 94.501 65.803 94.501C58.6976 94.501 52.9376 106.047 52.9376 120.29C52.9376 134.533 58.6976 146.08 65.803 146.08Z" fill="#252147"/>
<path d="M64.8974 100.357H57.9435V140.223H64.8974C70.3891 140.223 74.841 131.299 74.841 120.29C74.841 109.282 70.3891 100.357 64.8974 100.357Z" fill="#434289"/>
<path d="M57.9436 140.222C63.4352 140.222 67.8871 131.298 67.8871 120.29C67.8871 109.281 63.4352 100.357 57.9436 100.357C52.4519 100.357 48 109.281 48 120.29C48 131.298 52.4519 140.222 57.9436 140.222Z" fill="#252147"/>
<path d="M61.7228 120.269C61.7228 122.383 60.8305 124.097 59.7297 124.097C59.5397 124.097 58.2423 124.092 56.8392 124.087C54.7349 124.079 53.0323 122.37 53.0323 120.264C53.0323 118.153 54.7427 116.441 56.8526 116.441H59.7296C60.8304 116.441 61.7228 118.155 61.7228 120.269Z" fill="#413F87"/>
</g>
<defs>
<clipPath id="clip0_3044_3365">
<rect width="169" height="150" fill="white"/>
</clipPath>
</defs>
</svg>
