<?xml version="1.0" encoding="UTF-8"?>
<svg viewBox="0 0 152 77" version="1.1" xmlns="http://www.w3.org/2000/svg" xmlns:xlink="http://www.w3.org/1999/xlink">
    <g stroke="none" stroke-width="1" fill="none" fill-rule="evenodd">
        <g transform="translate(-447.000000, -2862.000000)" fill="#C53030">
            <g transform="translate(122.000000, 1023.000000)">
                <g transform="translate(10.000000, 1796.000000)">
                    <path d="M433.539749,75.7553142 C410.565749,80.3653142 388.547749,88.0153142 366.895749,96.8113142 C358.455749,100.241314 350.060749,103.783314 341.642749,107.267314 C334.250749,110.329314 327.008749,113.703314 320.061749,117.687314 C319.094749,118.242314 318.100749,118.756314 317.086749,119.215314 C316.254749,119.591314 315.100749,118.748314 315.024749,117.789314 C314.845749,115.539314 315.636749,113.684314 317.429749,112.345314 C318.448749,111.583314 319.570749,110.937314 320.712749,110.371314 C325.005749,108.237314 329.289749,106.081314 333.642749,104.076314 C339.594749,101.333314 345.604749,98.7173142 351.591749,96.0533142 C371.193749,87.3323142 391.385749,80.2373142 411.939749,74.1383142 C420.676749,71.5463142 429.514749,69.3493142 438.423749,67.4293142 C438.886749,67.3303142 439.344749,67.1953142 439.796749,67.0463142 C439.924749,67.0043142 440.047749,66.8723142 440.120749,66.7503142 C440.333749,66.3973142 440.244749,66.1023142 439.864749,65.9533142 C434.806749,63.9623142 429.646749,62.2713142 424.383749,60.9263142 C416.637749,58.9463142 408.950749,56.7763142 401.383749,54.1943142 C398.663749,53.2653142 395.970749,52.2483142 393.294749,51.1993142 C392.412749,50.8533142 391.569749,50.3513142 390.799749,49.7933142 C390.122749,49.3013142 389.878749,48.5003142 389.954749,47.6613142 C390.108749,45.9743142 390.917749,44.6213142 392.242749,43.6103142 C392.882749,43.1223142 393.675749,42.8713142 394.502749,43.0663142 C395.120749,43.2123142 395.745749,43.3963142 396.316749,43.6703142 C403.127749,46.9443142 410.345749,49.0343142 417.622749,50.9113142 C425.517749,52.9473142 433.332749,55.2193142 441.085749,57.7553142 C445.781749,59.2913142 450.657749,60.2813142 455.456749,61.4973142 C458.090749,62.1643142 460.735749,62.7843142 463.371749,63.4413142 C463.987749,63.5953142 464.604749,63.7703142 465.192749,64.0083142 C466.174749,64.4063142 466.815749,65.7963142 466.521749,66.8093142 C466.113749,68.2153142 465.475749,69.4903142 464.349749,70.4693142 C464.108749,70.6793142 463.861749,70.8913142 463.586749,71.0493142 C456.580749,75.0793142 452.176749,81.6323142 447.269749,87.7253142 C444.335749,91.3693142 442.445749,95.6113142 440.000749,99.5313142 C439.412749,100.473314 438.999749,101.529314 438.549749,102.551314 C436.940749,106.201314 435.367749,109.866314 433.743749,113.507314 C433.282749,114.541314 432.627749,115.454314 431.494749,115.884314 C430.873749,116.120314 430.266749,116.153314 429.656749,115.825314 C428.876749,115.406314 428.501749,114.727314 428.470749,113.887314 C428.454749,113.420314 428.535749,112.918314 428.701749,112.481314 C429.378749,110.689314 430.071749,108.901314 430.823749,107.139314 C431.512749,105.523314 432.385749,103.980314 432.997749,102.336314 C434.007749,99.6233142 435.467749,97.1583142 436.825749,94.6203142 C440.244749,88.2313142 444.763749,82.6343142 449.158749,76.9403142 C449.939749,75.9273142 450.741749,74.9313142 451.493749,73.8983142 C451.664749,73.6653142 451.793749,73.0843142 451.722749,73.0443142 C451.356749,72.8333142 450.878749,72.5123142 450.362749,72.6043142 C444.838749,73.5883142 439.178749,74.6253142 433.539749,75.7553142 Z" id="Fill-23" transform="translate(390.796792, 81.153419) scale(1, -1) rotate(-180.000000) translate(-390.796792, -81.153419) "></path>
                </g>
            </g>
        </g>
    </g>
</svg>