<svg width="64" height="64" viewBox="0 0 64 64" fill="none" xmlns="http://www.w3.org/2000/svg">
<g clip-path="url(#clip0_178_2507)">
<rect width="64" height="64" fill="#8356F6"/>
<g clip-path="url(#clip1_178_2507)">
<path d="M63.985 0H0V63.985H63.985V0Z" fill="#8356F6"/>
<mask id="mask0_178_2507" style="mask-type:luminance" maskUnits="userSpaceOnUse" x="0" y="0" width="64" height="64">
<path d="M63.985 0H0V63.985H63.985V0Z" fill="white"/>
</mask>
<g mask="url(#mask0_178_2507)">
<path d="M41.2352 70.2719C41.2059 68.145 41.1718 65.4327 41.1475 62.7741C41.1378 62.0228 41.128 61.2814 41.123 60.5545V60.3692C41.1085 59.1838 41.0987 58.0521 41.0937 57.0325C41.0937 56.9008 41.0937 56.7691 41.0889 56.6374C41.0839 55.4227 41.0792 54.3983 41.0839 53.6715C41.0742 50.0519 41.0546 42.8176 41.0546 42.8176C41.0546 42.8176 41.0303 42.798 40.9815 42.759C40.9767 42.7541 40.967 42.7492 40.962 42.7444H35.0205C34.7221 42.7444 34.4262 42.7578 34.1323 42.7777C34.0732 42.7817 34.0142 42.7852 33.9553 42.7899C33.6714 42.8129 33.3896 42.8442 33.1109 42.8852C33.0604 42.8926 33.0107 42.9016 32.9604 42.9096C32.9154 42.9168 32.8718 42.9273 32.827 42.9349C32.6098 42.9717 32.3928 43.0098 32.1791 43.0572C32.1467 43.0644 32.1143 43.0702 32.0822 43.0777C31.8447 43.1322 31.6115 43.1975 31.3793 43.2651C31.3428 43.2757 31.3052 43.2837 31.2688 43.2946C31.2121 43.3116 31.1554 43.329 31.0987 43.3467C30.8317 43.4306 30.5673 43.5209 30.3077 43.6213C30.2784 43.6327 30.2493 43.6455 30.2198 43.6572C29.9756 43.7535 29.7355 43.8575 29.4988 43.9679C29.4564 43.9878 29.413 44.0066 29.3708 44.0269C29.1227 44.1458 28.8795 44.2728 28.6401 44.4065C28.592 44.4336 28.5446 44.4613 28.4967 44.4889C28.0127 44.7676 27.5482 45.0768 27.1052 45.4137C27.1006 45.4171 27.0956 45.4202 27.0914 45.4236C27.0492 45.4557 27.0066 45.4876 26.9649 45.5202C26.7486 45.6892 26.5373 45.8645 26.332 46.0467C26.2982 46.0771 26.2651 46.1084 26.2312 46.139C26.1946 46.1723 26.1605 46.2082 26.1243 46.2418C25.9666 46.388 25.8094 46.5348 25.6589 46.6887C25.6417 46.7063 25.6236 46.7234 25.6065 46.7412C25.4135 46.9407 25.2285 47.1478 25.0486 47.3594C25.0127 47.4016 24.9769 47.444 24.9417 47.4867C24.8843 47.5557 24.8321 47.6289 24.7761 47.6989C24.6585 47.8467 24.5387 47.9925 24.4277 48.1456C24.4112 48.1683 24.3957 48.1918 24.3793 48.2146C24.2247 48.4303 24.077 48.6514 23.9353 48.8769C23.9129 48.9124 23.8901 48.9473 23.8677 48.983C23.7217 49.2206 23.5837 49.4638 23.4525 49.7115C23.4282 49.7574 23.4046 49.8038 23.3808 49.8502C23.2493 50.106 23.1233 50.3654 23.0083 50.6311C22.5414 51.7095 22.2137 52.8665 22.0493 54.0812L21.9664 54.53C20.7228 54.8278 19.6374 55.529 18.8499 56.4849H27.7914C27.8526 56.559 27.9188 56.6285 27.9765 56.7057L28.3228 47.9299L28.4741 47.9103C30.518 47.6128 32.4252 49.0323 32.7229 51.0763L33.3472 61.9595C33.3863 63.6961 32.5912 65.3596 31.2204 66.4181L29.8641 67.0084L25.3421 68.9694L24.9179 69.1548L20.6104 71.0231L18.9099 71.7614L18.2173 75.9644C18.2178 75.9646 18.218 75.9647 18.2185 75.9649C18.3395 76.0154 18.4552 76.0754 18.5746 76.129C18.7763 76.2197 18.98 76.3068 19.1765 76.4063C19.3254 76.4817 19.4678 76.5676 19.6138 76.6479C19.7748 76.7365 19.9389 76.82 20.0961 76.9145C20.2138 76.9853 20.3253 77.0651 20.4406 77.1391C20.619 77.2534 20.8 77.3642 20.9727 77.486C24.6761 80.0956 27.0954 84.4045 27.0954 89.2792V89.2812C27.0952 89.6278 27.0794 89.9706 27.0552 90.3112C27.0513 90.3679 27.0482 90.4248 27.0437 90.4814C27.017 90.8039 26.9789 91.123 26.9313 91.439C26.9213 91.5062 26.9101 91.573 26.8991 91.64C26.8472 91.9545 26.7874 92.2662 26.7155 92.5733C26.7036 92.624 26.6895 92.6737 26.6771 92.7241C26.6074 93.0082 26.5295 93.289 26.443 93.5662C26.4275 93.6161 26.4137 93.6667 26.3975 93.7165C26.3041 94.0053 26.1996 94.2889 26.0886 94.5694C26.0586 94.6451 26.0288 94.7207 25.9976 94.7958C25.8859 95.0653 25.7665 95.3308 25.6391 95.5917C25.6027 95.6664 25.5643 95.7396 25.5267 95.8135C25.4 96.0619 25.2682 96.307 25.1277 96.5468C25.0927 96.6067 25.0563 96.6657 25.0205 96.7251C24.884 96.9507 24.7409 97.1715 24.5925 97.3887C24.5465 97.4561 24.5017 97.5242 24.4546 97.5908C24.2897 97.8241 24.1168 98.0514 23.9387 98.2742C23.8855 98.3407 23.8317 98.4063 23.7776 98.4718C23.735 98.5229 23.6945 98.5758 23.6514 98.6263C28.3607 97.0793 32.4657 94.2023 35.5229 90.4431C37.8743 87.5601 39.6107 84.16 40.528 80.433C40.7524 79.5307 40.9279 78.6037 41.0546 77.6672C41.0889 77.4135 41.1182 77.1598 41.1425 76.9061C41.1766 76.5891 41.2011 76.2769 41.2207 75.9598C41.2597 75.394 41.2793 74.828 41.2793 74.2573C41.2793 73.95 41.2597 72.4914 41.2352 70.467L41.2352 70.2719Z" fill="#FFB544"/>
<path d="M20.3624 6.56022L19.5693 15.3319L33.2602 12.2329L26.2668 4.53985C24.2532 2.37642 20.6286 3.61669 20.3624 6.56022Z" fill="#FFB544"/>
<path d="M13.7453 12.233C10.4873 11.6278 8.04962 15.1639 9.77422 17.9935L13.8752 24.7224L21.4929 13.6724L13.7453 12.233Z" fill="#FFB544"/>
<path d="M5.00105 31.0004L10.9241 36.1979L14.8953 23.3776L7.07134 24.3169C3.78138 24.7119 2.51048 28.8147 5.00105 31.0004Z" fill="#FFB544"/>
<path d="M67.8814 38.5736H66.4089C64.7275 35.805 62.5752 34.1422 60.229 34.1422H53.4175V34.1426C58.7966 34.1426 63.1574 42.8784 63.1574 53.6546C63.1574 64.4308 58.7966 73.1666 53.4175 73.1666V73.1675H60.229C62.5752 73.1675 64.7278 71.5045 66.4092 68.7358H67.8814C72.0388 68.7358 75.4092 61.9837 75.4092 53.6547C75.4092 45.3257 72.0388 38.5736 67.8814 38.5736Z" fill="#413F87"/>
<path d="M53.4176 73.1668C58.7968 73.1668 63.1574 64.431 63.1574 53.6548C63.1574 42.8786 58.7968 34.1428 53.4176 34.1428C48.0384 34.1428 43.6777 42.8786 43.6777 53.6548C43.6777 64.431 48.0384 73.1668 53.4176 73.1668Z" fill="#252147"/>
<path d="M42.1871 42.7446H40.9623C40.9575 42.7397 40.9525 42.7397 40.9478 42.7349H40.9818V41.6419H41.2112L42.1871 42.7446Z" fill="#FF775D"/>
<path fill-rule="evenodd" clip-rule="evenodd" d="M47.4993 16.3389C47.0358 16.2755 46.5722 16.212 46.109 16.1535C43.0163 11.4851 37.7137 8.40698 31.6891 8.40698C24.7963 8.40698 18.8448 12.4364 16.0644 18.2706C15.8789 18.5682 15.7178 18.8804 15.5766 19.217C10.3812 31.7002 6.53722 45.0079 2.65898 58.296L-1.73614 67.7498C-6.06789 74.0281 -13.629 77.9892 -21.7319 77.5599C-22.7365 77.5062 -23.7269 77.3891 -24.6878 77.2087C-26.9075 76.7891 -28.8052 78.8282 -28.1904 81.0039C-28.0442 81.5355 -27.8782 82.0624 -27.6928 82.5844H-27.6978C-27.0588 83.4039 -26.4295 84.1795 -25.8049 84.9016C-25.7854 84.9308 -25.7659 84.9551 -25.7368 84.9795L-25.7366 84.9799C-22.6096 88.609 -19.6439 91.0627 -16.7317 92.7797C-14.3791 94.1682 -12.0622 95.0729 -9.72271 95.7275C-9.35137 95.8314 -8.97907 95.9292 -8.60606 96.0214C-8.48339 96.0518 -8.36049 96.0817 -8.23758 96.1109C-7.84385 96.2044 -7.44917 96.2925 -7.05305 96.3756C-6.94753 96.3978 -6.84178 96.4198 -6.73602 96.4413C-6.02097 96.5869 -5.30187 96.7193 -4.57634 96.8431L0.196548 107.885L2.56227 113.079L20.3064 113.061H22.6945C22.6945 113.061 19.7626 106.82 17.873 102.73C23.2678 100.644 27.0958 95.4101 27.0958 89.2793C27.0958 83.2798 23.4312 78.1375 18.2188 75.9649C18.2184 75.9648 18.2181 75.9646 18.2177 75.9644L18.9103 71.7615L20.6108 71.0231L24.9182 69.1548L25.3424 68.9694L29.8645 67.0084L31.2208 66.4181C32.5916 65.3596 33.3867 63.6961 33.3476 61.9595L32.7233 51.0763C32.4256 49.0324 30.5184 47.6128 28.4744 47.9104L28.3232 47.9299L27.9768 56.7057C27.9192 56.6285 27.853 56.559 27.7918 56.4849H13.607V50.6311H23.0087C25.0371 45.9455 29.6952 42.7444 35.0209 42.7444H40.9624C40.9576 42.7395 40.9526 42.7395 40.9478 42.7346H40.9819C41.0843 42.7395 41.177 42.7444 41.2503 42.7444C41.4063 42.7492 41.4892 42.7541 41.4892 42.7541H42.6357L45.7088 42.759C52.4017 42.759 58.0457 37.7735 58.8799 31.1343C59.7824 23.9196 54.7091 17.3194 47.4993 16.3389Z" fill="#FF775D"/>
<path d="M33.8818 24.95C31.6737 25.3448 29.5511 23.7596 29.123 21.3961C28.6946 19.0308 30.1403 16.8177 32.3658 16.432C34.635 16.0388 36.6847 17.5643 37.1099 19.9629C37.5305 22.3363 36.0948 24.5543 33.8818 24.95Z" fill="#252147"/>
<path d="M31.591 21.5222C30.6936 21.5296 29.9624 20.81 29.9518 19.9087C29.9411 19.0068 30.6595 18.2788 31.5631 18.2758C32.4845 18.2727 33.1909 18.9658 33.1981 19.8799C33.2052 20.7843 32.4904 21.5147 31.591 21.5222Z" fill="white"/>
<path d="M27.9856 56.4861L28.2164 50.631H13.6069V56.4861H24.6526H27.7917H27.9856Z" fill="#413F87"/>
<path d="M55.1144 50.631H32.6274C32.667 50.7761 32.7008 50.9238 32.723 51.0763L33.0333 56.4861H55.1144C55.9212 56.4861 56.5752 55.1755 56.5752 53.559C56.5752 51.9416 55.9212 50.631 55.1144 50.631Z" fill="#413F87"/>
<path d="M6.34721 34.1422H-0.464355V34.1426C4.91497 34.1426 9.27554 42.8784 9.27554 53.6546C9.27554 64.4308 4.91496 73.1666 -0.464355 73.1666V73.1675H6.34721C11.7263 73.1675 16.0871 64.4313 16.0871 53.6548C16.0871 42.8783 11.7263 34.1422 6.34721 34.1422Z" fill="#413F87"/>
<path d="M-0.464248 73.1665C4.91492 73.1665 9.27561 64.4307 9.27561 53.6545C9.27561 42.8783 4.91492 34.1425 -0.464248 34.1425C-5.84342 34.1425 -10.2041 42.8783 -10.2041 53.6545C-10.2041 64.4307 -5.84342 73.1665 -0.464248 73.1665Z" fill="#252147"/>
<path d="M-1.14955 38.5735H-6.41406C-2.25642 38.5735 1.11375 45.3257 1.11375 53.6545C1.11375 61.9833 -2.25642 68.7352 -6.41406 68.7352V68.7358H-1.14955C3.00809 68.7358 6.37827 61.9837 6.37827 53.6547C6.37827 45.3256 3.00809 38.5735 -1.14955 38.5735Z" fill="#434289"/>
<path d="M-6.41407 68.7354C-2.25657 68.7354 1.11375 61.9836 1.11375 53.6548C1.11375 45.326 -2.25657 38.5742 -6.41407 38.5742C-10.5716 38.5742 -13.9419 45.326 -13.9419 53.6548C-13.9419 61.9836 -10.5716 68.7354 -6.41407 68.7354Z" fill="#252147"/>
<path d="M51.7337 51.2972L51.7322 51.2824C51.5879 50.2915 51.0663 49.4159 50.2635 48.8176C49.4608 48.2183 48.4728 47.9691 47.4824 48.113L47.3309 48.1349L47.0489 56.4849H41.0904L41.0894 56.6457C41.0894 56.6457 41.0941 56.9035 41.0941 57.0325C41.0991 58.052 41.1089 59.1837 41.1234 60.3691V60.5545C41.1284 61.2814 41.1382 62.0228 41.148 62.7741C41.1722 65.4327 41.2063 68.1449 41.2356 70.2718V70.4716L50.2538 66.6462L50.294 66.6224C51.6674 65.5648 52.4625 63.8984 52.4204 62.1582L51.7337 51.2972Z" fill="#FF775D"/>
<path d="M45.303 33.2477C44.9558 33.2477 44.6128 33.2072 44.2743 33.1262C42.7811 32.7683 41.742 31.6843 41.1016 30.7628C39.0381 32.7559 36.1152 32.5615 34.664 32.0888C34.1311 31.9149 33.8399 31.3417 34.0136 30.809C34.1871 30.2768 34.7576 29.9851 35.2894 30.1572C35.4317 30.202 38.7326 31.2078 40.3727 28.427C40.57 28.0925 40.9413 27.8977 41.3282 27.9305C41.7153 27.9615 42.0509 28.2112 42.1923 28.5728C42.1998 28.5914 43.0811 30.7585 44.7548 31.153C45.8153 31.4032 47.0674 30.8943 48.475 29.6387C48.6637 29.4701 48.9124 29.3772 49.1613 29.381L58.3514 29.4791C58.912 29.4853 59.3615 29.9446 59.3556 30.5055C59.3495 31.0663 58.8904 31.5004 58.3297 31.5099L49.5236 31.4156C48.0686 32.6344 46.6544 33.2477 45.303 33.2477Z" fill="#994D6A"/>
<path d="M52.7611 24.166C53.2785 23.9553 53.4647 23.212 53.177 22.5057C52.8894 21.7995 52.2368 21.3978 51.7194 21.6085C51.2021 21.8192 51.0159 22.5625 51.3035 23.2688C51.5912 23.975 52.2438 24.3767 52.7611 24.166Z" fill="#994D6A"/>
</g>
</g>
</g>
<defs>
<clipPath id="clip0_178_2507">
<rect width="64" height="64" fill="white"/>
</clipPath>
<clipPath id="clip1_178_2507">
<rect width="64" height="64" fill="white"/>
</clipPath>
</defs>
</svg>
