<?xml version="1.0"?>
<svg xmlns="http://www.w3.org/2000/svg" version="1" viewBox="0 0 24 24" enable-background="new 0 0 24 24">
    <path d="M 9.6875 2 C 9.0875 2.1 8.3875 2.5 7.6875 3 C 5.5875 3.2 2.8125 4.60625 2.8125 7.90625 C 2.8125 8.70625 2.80625 9.10625 2.90625 9.40625 C 2.50625 9.90625 2 10.90625 2 12.90625 C 2 13.40625 2.2875 13.8875 2.6875 14.1875 L 5.09375 15.5 C 5.29375 15.6 5.60625 15.6875 5.90625 15.6875 C 6.00625 15.6875 6.3125 15.1875 6.3125 15.1875 L 6.3125 16 C 6.3125 16.3 6.1875 16.4875 6.1875 16.6875 C 6.0875 17.0875 6.09375 17.4 6.09375 18 C 6.09375 19.6 7.8125 20.99375 8.8125 21.59375 C 9.1125 21.89375 9.3875 22 9.6875 22 L 14.3125 22 C 14.6125 22 14.8875 21.8875 15.1875 21.6875 C 16.1875 20.9875 17.8125 19.59375 17.8125 18.09375 C 17.8125 17.49375 17.7875 17.2125 17.6875 16.8125 C 17.6875 16.6125 17.59375 16.39375 17.59375 16.09375 L 17.59375 15.3125 C 17.59375 15.3125 17.9 15.8125 18 15.8125 C 18.3 15.8125 18.5125 15.69375 18.8125 15.59375 L 21.1875 14.3125 C 21.6875 14.0125 21.90625 13.5 21.90625 13 C 22.00625 10.9 21.49375 9.90625 21.09375 9.40625 C 21.09375 9.10625 21.1875 8.70625 21.1875 7.90625 C 21.1875 4.60625 18.4125 3.2 16.3125 3 C 15.6125 2.5 14.9125 2.19375 14.3125 2.09375 L 14 2.09375 L 10 2.09375 C 9.9 1.99375 9.7875 2 9.6875 2 z M 9.90625 3.59375 L 13.90625 3.59375 C 14.30625 3.69375 14.8125 3.9125 15.3125 4.3125 L 15.59375 4.5 L 16 4.5 C 16.4 4.5 19.5 4.90625 19.5 7.90625 C 19.5 8.50625 19.50625 8.8875 19.40625 9.1875 L 19.3125 9.6875 L 19.59375 10.09375 C 19.79375 10.39375 20.1875 11.10625 20.1875 12.90625 L 18.59375 14 C 17.49375 13.9 17.2 12.39375 17 12.09375 C 16.8 14.19375 16.1875 15.1875 16.1875 15.1875 L 16.1875 16.3125 C 16.1875 16.6125 16.3125 16.8 16.3125 17 C 16.3125 17.4 16.40625 17.59375 16.40625 18.09375 C 16.40625 18.69375 15.60625 19.7 14.40625 20.5 L 9.8125 20.5 C 8.6125 19.7 7.8125 18.69375 7.8125 18.09375 C 7.8125 17.59375 7.80625 17.4 7.90625 17 C 7.90625 16.8 8 16.6125 8 16.3125 L 8 15.1875 C 8 15.1875 7.09375 14.09375 7.09375 12.09375 C 6.49375 13.09375 5.5 14 5.5 14 L 3.59375 13 C 3.59375 11.3 4.0875 10.5125 4.1875 10.3125 L 4.5 9.90625 L 4.40625 9.1875 C 4.40625 8.8875 4.3125 8.40625 4.3125 7.90625 C 4.3125 4.90625 7.5125 4.5 7.8125 4.5 L 8.1875 4.5 L 8.5 4.3125 C 9 3.9125 9.50625 3.69375 9.90625 3.59375 z M 9.1875 12 C 8.6875 12 8.5 12.60625 8.5 12.90625 C 8.5 13.20625 8.8 13.6125 9 13.8125 C 9.2 14.0125 11.0875 14.2875 11.6875 13.6875 C 11.8875 13.4875 11.8125 12.9875 11.8125 12.6875 C 11.7125 12.0875 10.90625 12 10.90625 12 L 9.1875 12 z M 13.09375 12 C 13.09375 12 12.2875 12.0875 12.1875 12.6875 C 12.1875 12.9875 12.1125 13.4875 12.3125 13.6875 C 12.9125 14.2875 14.8 14.0125 15 13.8125 C 15.2 13.6125 15.5 13.20625 15.5 12.90625 C 15.5 12.60625 15.3125 12 14.8125 12 L 13.09375 12 z M 10 14.34375 C 9.85 14.348437 9.69375 14.38125 9.59375 14.40625 C 9.09375 14.50625 8.90625 15.0125 8.90625 15.3125 C 8.80625 15.5125 9.1125 15.8 9.3125 16 C 9.5125 16.2 11.1875 16.6 11.6875 16 C 11.8875 15.8 11.8125 15.39375 11.8125 15.09375 C 11.7125 14.49375 11 14.40625 11 14.40625 C 11 14.40625 10.45 14.329688 10 14.34375 z M 14 14.34375 C 13.55 14.329688 13 14.40625 13 14.40625 C 13 14.40625 12.2875 14.49375 12.1875 15.09375 C 12.1875 15.39375 12.1125 15.8 12.3125 16 C 12.8125 16.6 14.4875 16.2 14.6875 16 C 14.8875 15.8 15.19375 15.5125 15.09375 15.3125 C 15.09375 15.0125 14.90625 14.50625 14.40625 14.40625 C 14.30625 14.38125 14.15 14.348437 14 14.34375 z M 10.125 16.65625 C 9.9703125 16.660937 9.8125 16.6625 9.6875 16.6875 C 9.2875 16.7875 9.1875 17.1 9.1875 17.5 C 9.1875 18.1 9.70625 18.7 9.90625 19 C 10.10625 19.3 11.2875 19.9125 11.6875 19.3125 C 11.8875 19.1125 11.8125 18.0875 11.8125 17.6875 C 11.8125 16.7875 11.09375 16.6875 11.09375 16.6875 C 11.09375 16.6875 10.589063 16.642187 10.125 16.65625 z M 13.40625 16.65625 C 13.11875 16.66875 12.90625 16.6875 12.90625 16.6875 C 12.90625 16.6875 12.1875 16.7875 12.1875 17.6875 C 12.1875 18.0875 12.1125 19.1125 12.3125 19.3125 C 12.7125 19.9125 13.89375 19.3 14.09375 19 C 14.29375 18.7 14.8125 18.1 14.8125 17.5 C 14.8125 17.1 14.7125 16.7875 14.3125 16.6875 C 14.0625 16.6375 13.69375 16.64375 13.40625 16.65625 z"/>
</svg>
