<?xml version="1.0" encoding="UTF-8"?>
<svg viewBox="0 0 261 261" version="1.1" xmlns="http://www.w3.org/2000/svg" xmlns:xlink="http://www.w3.org/1999/xlink">
    <g stroke="none" stroke-width="1" fill="none" fill-rule="evenodd">
        <path d="M260.096,130.048 C260.096,58.23 201.866,0 130.048,0 C58.23,0 0,58.23 0,130.048 C0,194.953 47.55,248.757 109.73,258.524 L109.73,167.649 L76.701,167.649 L76.701,130.048 L109.73,130.048 L109.73,101.39 C109.73,68.8 129.152,50.786 158.852,50.786 C173.08,50.786 187.967,53.328 187.967,53.328 L187.967,85.333 L171.562,85.333 C155.414,85.333 150.366,95.355 150.366,105.651 L150.366,130.047 L186.43,130.047 L180.669,167.648 L150.365,167.648 L150.365,258.524 C212.545,248.774 260.096,194.97 260.096,130.047 L260.096,130.048 Z" fill="#1977F3"></path>
        <path d="M180.67,167.648 L186.431,130.047 L150.367,130.047 L150.367,105.651 C150.367,95.373 155.396,85.333 171.563,85.333 L187.968,85.333 L187.968,53.328 C187.968,53.328 173.082,50.786 158.853,50.786 C129.153,50.786 109.731,68.782 109.731,101.39 L109.731,130.048 L76.702,130.048 L76.702,167.649 L109.731,167.649 L109.731,258.524 C116.351,259.565 123.136,260.096 130.049,260.096 C136.962,260.096 143.747,259.547 150.367,258.524 L150.367,167.649 L180.671,167.649 L180.67,167.648 Z" fill="#FEFEFE"></path>
    </g>
</svg>