<?xml version="1.0" encoding="UTF-8"?><svg id="Layer_2" xmlns="http://www.w3.org/2000/svg" viewBox="0 0 212.6143 226.7606"><g id="Layer_6"><path d="M142.5601,139.0078c-.0601-4.3601-.1299-9.9202-.1797-15.3701-.02-1.54-.04-3.0599-.0503-4.55v-.3799c-.0298-2.4301-.0498-4.75-.0601-6.8401,0-.27,0-.5399-.0098-.8099-.0103-2.49-.02-4.59-.0103-6.08-.02-7.42-.0601-22.25-.0601-22.25,0,0-.0498-.04-.1499-.1201-.0098-.01-.0298-.02-.04-.0299h-12.1797c-.6118,0-1.2183.0276-1.8208.0682-.1211.0082-.2422.0154-.3628.0251-.582.0471-1.1597.1113-1.731.1953-.1035.0151-.2056.0337-.3086.05-.0923.0146-.1816.0363-.2734.0518-.4453.0754-.8901.1537-1.3281.2509-.0664.0146-.1328.0266-.1987.0419-.4868.1118-.9648.2456-1.4409.3843-.0747.0217-.1519.0381-.2266.0604-.1162.0348-.2324.0704-.3486.1068-.5474.1719-1.0894.3572-1.6216.5629-.0601.0233-.1196.0497-.1802.0736-.5005.1975-.9927.4106-1.478.637-.0869.0406-.1758.0793-.2622.121-.5088.2437-1.0073.504-1.498.7782-.0986.0554-.1958.1123-.2939.1688-.9922.5714-1.9443,1.2052-2.8525,1.8959-.0093.007-.0195.0132-.0283.0203-.0864.0658-.1738.1311-.2593.198-.4434.3464-.8765.7058-1.2974,1.0793-.0693.0623-.1372.1265-.2065.1892-.0752.0681-.145.1418-.2192.2106-.3232.2998-.6455.6007-.9541.9161-.0352.0361-.0723.0712-.1074.1077-.3955.4089-.7749.8335-1.1436,1.2673-.0737.0865-.147.1733-.2192.2609-.1177.1415-.2246.2915-.3394.4352-.2412.3029-.4868.6018-.7144.9155-.0337.0466-.0654.0947-.0991.1416-.3169.4421-.6196.8954-.9102,1.3577-.0459.0728-.0928.1443-.1387.2175-.2993.4871-.582.9856-.8511,1.4933-.0498.0941-.0981.1893-.147.2843-.2695.5244-.5278,1.0562-.7637,1.6008h0c-.957,2.2107-1.6289,4.5824-1.9658,7.0726l-.1699.92c-2.5493.6105-4.7744,2.0479-6.3887,4.0073h18.3296c.1255.1519.2612.2944.3794.4526l.71-17.99.3101-.04c4.1899-.61,8.0996,2.3,8.71,6.49l1.2798,22.3101c.0801,3.5599-1.5498,6.97-4.3599,9.1399l-2.7803,1.2101-9.27,4.0199-.8696.3801-8.8301,3.83-3.4858,1.5135-1.4199,8.6158c.001.0004.0015.0007.0024.0011.248.1034.4854.2264.73.3364.4136.1858.8311.3644,1.2339.5684.3052.1545.5972.3307.8965.4954.3301.1816.6665.3528.9888.5465.2412.1451.4697.3087.7061.4603.3657.2344.7368.4614,1.0908.7112,7.5918,5.3496,12.5513,14.1826,12.5513,24.1755v.0039c-.0005.7107-.0327,1.4133-.0825,2.1115-.0078.1163-.0142.233-.0234.349-.0547.6611-.1328,1.3152-.2305,1.9631-.0205.1377-.0435.2747-.0659.412-.1064.6447-.229,1.2836-.3765,1.9132-.0244.1039-.0532.2058-.0786.3091-.1431.5824-.3027,1.158-.48,1.7262-.0317.1024-.0601.2062-.0933.3082-.1914.592-.4058,1.1733-.6333,1.7483-.0615.1553-.1226.3103-.1865.4641-.229.5525-.4736,1.0968-.7349,1.6317-.0747.153-.1533.3031-.2305.4546-.2598.5092-.5298,1.0117-.8179,1.5033-.0718.1228-.1465.2438-.2197.3655-.2798.4624-.5732.915-.8774,1.3604-.0942.1382-.186.2777-.2827.4142-.3379.4783-.6924.9443-1.0576,1.401-.1089.1362-.2192.2708-.3301.405-.0874.1049-.1704.2131-.2588.3168,9.6538-3.1713,18.0688-9.069,24.3359-16.7753,4.8203-5.9099,8.3799-12.8799,10.2603-20.52.46-1.8499.8198-3.75,1.0796-5.6699.0703-.52.1304-1.04.1802-1.5601.0698-.6499.1201-1.2899.1602-1.9399.0801-1.1599.1201-2.3201.1201-3.49,0-.63-.04-3.62-.0903-7.77v-.3999Z" fill="#ffb544"/><path d="M43.3147,132.1014c-5.8099-3.902-13.4979.9132-12.5235,7.8433l1.8898,13.4446,21.9047-13.7187-11.271-7.5692h0Z" fill="#ffb544"/><path d="M100.1716,6.8671l-1.7489,19.3433,30.1909-6.8339-15.4217-16.9646c-4.4405-4.7708-12.4334-2.0357-13.0203,4.4553Z" fill="#ffb544"/><path d="M26.3032,141.8804c-3.8628-5.8176-12.7894-4.3195-14.5411,2.4402l-3.2298,12.4604,24.8912-4.1772-7.1204-10.7234h0Z" fill="#ffb544"/><path d="M85.2881,18.8338c-7.1845-1.3346-12.5601,6.4633-8.757,12.7031l9.0435,14.8384,16.7984-24.3672-17.0849-3.1743h0Z" fill="#ffb544"/><path d="M66.0057,60.2194l13.0614,11.4616,8.7573-28.2711-17.2534,2.0712c-7.255.8711-10.0576,9.9187-4.5654,14.7384Z" fill="#ffb544"/><path d="M144.7988,200.9773c6.292-5.4209,10.2812-13.4412,10.2812-22.398,0-10.1408-5.1089-19.0861-12.8901-24.4105-.2598,1.9196-.6196,3.8193-1.0796,5.6689-.0835.3397-.1885.6707-.2788,1.0077-1.9375,7.2377-5.3711,13.856-9.9727,19.5006,0,.0002,0,.0005-.0005.0007-.0029.0036-.0054.0074-.0083.011-6.27,7.71-14.6899,13.61-24.3501,16.78-.6592.2198-1.3188.4197-1.9785.5995.0327.0433.0688.0839.1016.127-.623.0689-1.165.2306-1.54.5677.4482.9792,13.0586,28.3285,13.0586,28.3285l40.7256-.0228s-8.436-17.6886-12.0684-25.7605Z" fill="#ff775d" fill-rule="evenodd"/><path d="M197.1826,74.0279h-3.0186c-3.4468-5.6755-7.8589-9.0842-12.6685-9.0842h-13.9634v.001h0c11.0269,0,19.9663,17.908,19.9663,39.9987s-8.9395,39.9987-19.9663,39.9987h0v.0017h13.9634c4.8096,0,9.2222-3.4089,12.6689-9.0847h3.0181c8.5225,0,15.4316-13.8414,15.4316-30.9155s-6.9092-30.9155-15.4316-30.9155Z" fill="#413f87"/><ellipse cx="167.5323" cy="104.9433" rx="19.9662" ry="39.9986" fill="#252147"/><path d="M144.5102,82.5778h-2.5103c-.0098-.01-.02-.01-.0298-.02h.0698v-2.24h.4702l2,2.26Z" fill="#ff775d"/><path d="M155.4004,28.4478c-.9502-.13-1.9004-.26-2.8501-.38-6.3398-9.5699-17.21-15.88-29.5601-15.88-14.1299,0-26.3301,8.26-32.0298,20.22-.3804.61-.7104,1.25-1,1.9399-10.6504,25.5901-18.5303,52.8701-26.4805,80.1101l-9.0098,19.3799c-8.8799,12.8701-24.3799,20.9901-40.9902,20.1101-2.0596-.1101-4.0898-.3501-6.0596-.72-4.5503-.8601-8.4404,3.3199-7.1802,7.78.2998,1.0898.6401,2.1699,1.02,3.24h-.0103c1.3101,1.6799,2.6001,3.2699,3.8804,4.75.04.0599.0801.1099.1396.1599l.0005.0007c6.4102,7.4395,12.4897,12.4695,18.4595,15.9893,4.8228,2.8462,9.5723,4.7009,14.3682,6.0427.7612.213,1.5244.4136,2.2891.6025.2515.0623.5034.1237.7554.1835.8071.1917,1.6162.3722,2.4282.5426.2163.0454.4331.0906.6499.1348,1.4658.2983,2.9399.5698,4.4272.8235l9.7842,22.6357,4.8496,10.6475,36.3745-.0376h4.8955s-6.0103-12.7942-9.8838-21.1779c11.0591-4.2765,18.9062-15.0051,18.9062-27.5731,0-12.2986-7.5122-22.8401-18.1973-27.2937-.001-.0004-.0015-.0007-.0024-.0011l1.4199-8.6158,3.4858-1.5135,8.8301-3.83.8696-.3801,9.27-4.0199,2.7803-1.2101c2.8101-2.1699,4.4399-5.58,4.3599-9.1399l-1.2798-22.3101c-.6104-4.1899-4.52-7.1-8.71-6.49l-.3101.04-.71,17.99c-.1182-.1582-.2539-.3008-.3794-.4526h-29.0781v-12h19.2729c4.1582-9.6052,13.707-16.1674,24.6245-16.1674h12.1797c-.0098-.01-.02-.01-.0298-.02h.0698c.21.01.3999.02.5503.02.3198.0099.4897.0199.4897.0199h2.3501l6.2998.01c13.7202,0,25.29-10.22,27-23.83,1.8501-14.7899-8.5498-28.3199-23.3296-30.33Z" fill="#ff775d" fill-rule="evenodd"/><path d="M127.4858,46.1001c-4.5264.8093-8.8777-2.4402-9.7552-7.2852-.8782-4.8488,2.0854-9.3855,6.6475-10.1761,4.6518-.8062,8.8536,2.3211,9.7251,7.2382.8623,4.8652-2.0808,9.4121-6.6174,10.2232Z" fill="#252147"/><path d="M122.7888,39.0719c-1.8392.0153-3.3378-1.4597-3.3596-3.3069-.0219-1.8486,1.4504-3.3406,3.3025-3.3467,1.8885-.0062,3.3362,1.4142,3.3509,3.2876.0145,1.8536-1.4504,3.3507-3.2938,3.366Z" fill="#fff"/><g id="Layer_1-2"><polygon points="115.3984 110.7451 115.8716 98.7451 85.9229 98.7451 85.9229 110.7451 108.5659 110.7451 115.001 110.7451 115.3984 110.7451" fill="#413f87"/><path d="M171.0117,98.7451h-46.0972c.0811.2974.1504.6001.1958.9126l.6362,11.0874h45.2651c1.6538,0,2.9946-2.686,2.9946-5.9991,0-3.3148-1.3408-6.0009-2.9946-6.0009Z" fill="#413f87"/><path d="M71.041,64.9436h-13.9634v.001c11.0273,0,19.9663,17.908,19.9663,39.9987s-8.939,39.9987-19.9663,39.9987v.0017h13.9634c11.0269,0,19.9663-17.9087,19.9663-40s-8.9395-40-19.9663-40Z" fill="#413f87"/><ellipse cx="57.0778" cy="104.9433" rx="19.9662" ry="39.9986" fill="#252147"/><path d="M55.6724,74.0279h-10.792v.0007c8.5229,0,15.4316,13.8409,15.4316,30.9146s-6.9087,30.9146-15.4316,30.9146v.0012h10.792c8.5229,0,15.4316-13.8414,15.4316-30.9155s-6.9087-30.9155-15.4316-30.9155Z" fill="#434289"/><ellipse cx="44.8805" cy="104.9432" rx="15.4317" ry="30.9145" fill="#252147"/></g><path d="M164.0805,100.1106l-.0029-.0303c-.2959-2.0312-1.3652-3.8262-3.0107-5.0527-1.6455-1.2285-3.6709-1.7393-5.7012-1.4443l-.3105.0449-.5781,17.1169h-12.2147l-.0021.3297s.0098.5286.0098.793c.0103,2.09.0303,4.41.0601,6.84v.38c.0103,1.4901.0303,3.01.0503,4.55.0498,5.45.1196,11.0099.1797,15.37v.4096l18.4868-7.8419.0825-.0488c2.8154-2.168,4.4453-5.584,4.3589-9.1514l-1.4077-22.2646Z" fill="#ff775d"/><path d="M150.8981,63.1077c-.7117,0-1.4148-.083-2.1086-.249-3.061-.7334-5.1912-2.9551-6.5039-4.8438-4.2302,4.085-10.2219,3.6865-13.1968,2.7178-1.0925-.3564-1.6895-1.5312-1.3333-2.623.3555-1.0908,1.5251-1.6885,2.6152-1.3359.2917.0918,7.0583,2.1533,10.4204-3.5459.4045-.6855,1.1658-1.085,1.9587-1.0176.7937.0635,1.4817.5752,1.7715,1.3164.0154.0381,1.822,4.4795,5.2529,5.2881,2.1741.5127,4.7407-.5303,7.6262-3.1035.387-.3457.8967-.5361,1.407-.5283l18.8391.2012c1.1492.0127,2.0708.9541,2.0586,2.1035-.0125,1.1494-.9536,2.0391-2.103,2.0586l-18.052-.1934c-2.9827,2.498-5.8818,3.7549-8.6521,3.7549Z" fill="#994d6a"/><path d="M50.7455,104.9109c0,3.2787-1.3848,5.9365-3.0931,5.9365-.2948,0-2.3084-.0073-4.4859-.0155-3.2656-.0124-5.9079-2.6631-5.9079-5.9287h0c0-3.2745,2.6544-5.9288,5.9287-5.9288h4.465c1.7083,0,3.0931,2.6579,3.0931,5.9365Z" fill="#413f87"/><ellipse cx="165.1186" cy="41.8713" rx="2.073" ry="2.8299" transform="translate(-3.5967 65.3763) rotate(-22.1605)" fill="#994d6a"/><path d="M52.0742,201.4043l-.5518-1.2769h0l-2.8745-6.6501c-1.4868-.2537-2.9609-.5249-4.4263-.8232-.0005-.0001-.0005-.0002-.001-.0002-.0005-.0001-.001-.0002-.0015-.0002-2.0547-.4185-4.0918-.8954-6.1201-1.4629l-.001-.0002s-.0005,0-.0005-.0001c-1.7798-.4979-3.5537-1.0671-5.3271-1.7316-.0747-.0281-.1499-.0582-.2251-.0867-.4819-.1826-.9639-.3722-1.4458-.5697-.1538-.0629-.3071-.1283-.4609-.1927-.4062-.1707-.813-.3464-1.2197-.5283-.1846-.0825-.3696-.1663-.5542-.2512-.3823-.1758-.7646-.3582-1.147-.5446-.1943-.0946-.3882-.1881-.5825-.2855-.395-.1981-.7905-.4053-1.186-.6155-.1733-.0923-.3472-.1808-.521-.2755-.5649-.3082-1.1309-.6266-1.6982-.9613-1.0215-.6022-2.0474-1.2668-3.0762-1.9619-1.2192-.8236-2.4429-1.6981-3.6758-2.666-2.8838-2.2634-5.813-4.9592-8.8066-8.1486-.9609-1.0233-1.9258-2.0812-2.9009-3.2128l-.0005-.0005v-.0002c-.0596-.05-.0996-.1-.1396-.1599-1.2803-1.4801-2.5703-3.0701-3.8804-4.75,6.5801,18.83,23.0703,33.1899,43.52,36.46h.04l.0176-.0015c1.9146.3042,3.8604.5195,5.8398.6238l1.4067.0742Z" fill="#ffb544"/><path d="M146.3968,226.7606s1.7419-5.1113,7.5813-5.1113,7.8779,5.1113,7.8779,5.1113h-15.4592Z" fill="#ffb544"/><path d="M132.2083,226.7606s1.7419-5.1113,7.5813-5.1113,7.8779,5.1113,7.8779,5.1113h-15.4592Z" fill="#ffb544"/><path d="M92.5251,226.7606s1.7419-5.1113,7.5813-5.1113,7.8779,5.1113,7.8779,5.1113h-15.4592Z" fill="#ffb544"/><path d="M78.3367,226.7606s1.7419-5.1113,7.5813-5.1113,7.8779,5.1113,7.8779,5.1113h-15.4592Z" fill="#ffb544"/></g></svg>