<?xml version="1.0" encoding="UTF-8"?>
<svg viewBox="0 0 256 258" version="1.1" xmlns="http://www.w3.org/2000/svg" xmlns:xlink="http://www.w3.org/1999/xlink">
    <g stroke="none" stroke-width="1" fill="none" fill-rule="evenodd">
        <path d="M256,49.4500259 C246.580841,53.6272672 236.458451,56.4504868 225.834156,57.7202333 C236.678503,51.2198053 245.00583,40.9269929 248.927437,28.6630768 C238.779765,34.6812633 227.539325,39.0523376 215.57599,41.408298 C205.994835,31.2006971 192.34506,24.822 177.239197,24.822 C148.232605,24.822 124.716076,48.3375931 124.716076,77.3423116 C124.716076,81.4586875 125.181462,85.4673784 126.076652,89.3112644 C82.4258385,87.1210453 43.7257252,66.211429 17.821398,34.4359288 C13.3005011,42.1929938 10.710443,51.2151234 10.710443,60.8402889 C10.710443,79.061526 19.9835254,95.1374907 34.0762135,104.555714 C25.4660961,104.283224 17.3681846,101.920709 10.2862577,97.9869292 C10.2825122,98.2060448 10.2825122,98.4260967 10.2825122,98.647085 C10.2825122,124.094453 28.3867003,145.322443 52.413563,150.14673 C48.0059695,151.347184 43.3661509,151.988612 38.5755734,151.988612 C35.1914554,151.988612 31.9009766,151.659938 28.694773,151.046602 C35.3777973,171.913145 54.7742053,187.097665 77.7569918,187.52185 C59.7820257,201.607983 37.1354036,210.004604 12.5289147,210.004604 C8.28987161,210.004604 4.10888474,209.75646 0,209.271409 C23.2431033,224.173139 50.8507261,232.867532 80.5109185,232.867532 C177.116529,232.867532 229.943977,152.836982 229.943977,83.4326002 C229.943977,81.1552968 229.893412,78.8901664 229.792282,76.6381454 C240.053257,69.2331635 248.958338,59.9825545 256,49.4500259" fill="#55ACEE" fill-rule="nonzero"></path>
        <rect id="Rectangle" x="0" y="0.5" width="256" height="256"></rect>
    </g>
</svg>