<svg width="61" height="48" viewBox="0 0 61 48" fill="none" xmlns="http://www.w3.org/2000/svg">
<g clip-path="url(#clip0_4089_13874)">
<path d="M44.808 93.2405C44.6244 93.2405 44.4761 93.1333 44.3327 93.0296C44.2137 92.9436 44.1014 92.8623 43.9936 92.8623C43.9749 92.8623 43.9568 92.8647 43.9381 92.8694C43.8153 92.9011 43.7477 92.9539 43.6695 93.0151C43.5589 93.1016 43.4335 93.1998 43.1792 93.1998C43.1624 93.1998 43.1449 93.1993 43.1267 93.1984C42.8895 93.1868 42.7413 93.0867 42.6105 92.9984C42.49 92.9169 42.3949 92.8526 42.2359 92.8526C42.2264 92.8526 42.2166 92.8529 42.2066 92.8533C42.0397 92.8613 41.9434 92.9178 41.8215 92.9893C41.6689 93.0789 41.496 93.1804 41.1731 93.1984C41.1507 93.1996 41.1286 93.2003 41.1068 93.2003C40.8053 93.2003 40.5461 93.0849 40.3174 92.9832C40.1252 92.8977 39.9437 92.8169 39.7627 92.8129L39.7478 92.8127C39.5631 92.8127 39.336 92.8878 39.0956 92.9674C38.7967 93.0663 38.458 93.1784 38.1065 93.1784L38.0798 93.1782C37.2324 93.1646 36.7509 92.7281 36.6486 91.881C36.5943 91.4317 36.7434 90.9454 36.8876 90.4751C37.0544 89.9312 37.2268 89.3688 37.0979 88.8528C36.8256 87.7626 36.6691 86.3603 36.7085 85.3634C36.7356 84.6792 36.523 83.7572 36.3355 82.9439C36.2452 82.5524 36.1599 82.1826 36.1019 81.8499C35.9806 81.1556 36.4886 79.9376 36.9368 78.863C37.1822 78.2746 37.414 77.7189 37.4607 77.4206C37.5617 76.7755 37.4463 73.2555 37.3843 71.3644L37.3752 71.0874C37.3236 70.7173 37.2718 70.3229 37.2206 69.9326C37.0812 68.8708 36.9495 67.868 36.8348 67.4386L36.7487 67.1179C36.4431 65.9823 35.9838 64.2753 35.9829 63.6776C35.8771 63.4019 35.7228 62.9928 35.5649 62.5282C35.1839 62.0586 34.9068 61.0268 34.7414 59.4602C34.4799 56.9841 34.7685 53.5067 35.068 52.0496C35.2187 51.3166 35.4544 50.4292 35.6624 49.6463C35.861 48.8987 36.0486 48.1927 36.1221 47.7704C36.1979 47.336 36.2148 47.0903 36.225 46.9435C36.2316 46.8479 36.236 46.7843 36.2548 46.7336C36.2295 46.5986 36.2022 46.4458 36.173 46.2816C36.0293 45.4761 35.8327 44.3728 35.5767 43.8023C35.2395 43.0508 34.7967 40.8111 34.6077 39.8546L34.6012 39.8222C34.541 39.5174 34.4858 39.0066 34.4371 38.304C34.3449 37.5479 34.3165 36.6385 34.2977 36.0368L34.2944 35.9329C34.2853 35.6472 34.2854 35.0758 34.3458 34.8629C34.3379 34.6833 34.3077 34.5179 34.2224 34.1806C34.1335 33.8289 34.0739 33.4488 34.0049 33.0087C33.9713 32.7947 33.9355 32.5662 33.8929 32.32C33.8489 32.1636 33.8203 32.0078 33.8085 31.8565C33.7286 31.4462 33.6689 31.2524 33.6163 31.0812C33.5541 30.879 33.5 30.7029 33.4336 30.2626C33.3463 30.1421 33.2935 29.6902 33.1415 27.9965C33.0812 27.3247 33.0188 26.63 32.9564 26.1096C32.923 25.8313 32.9031 25.4741 32.8973 25.0477C32.8382 24.9257 32.759 24.8016 32.6754 24.6707C32.5817 24.5238 32.485 24.3723 32.397 24.1966C32.0435 23.8658 31.69 22.0393 31.6326 21.5415C31.5032 20.4192 30.6819 15.4697 30.2073 13.8917C29.6655 12.0905 30.0365 8.46044 30.0806 8.05244C30.0955 7.9138 30.1093 7.77657 30.1228 7.64178C30.1805 7.06536 30.2351 6.51971 30.3665 6.10027C30.2286 5.84267 29.5884 5.72719 29.2776 5.72719H29.1153C28.8069 5.72719 28.1741 5.84096 28.0271 6.10242C28.1581 6.52179 28.2127 7.0671 28.2703 7.64293C28.2837 7.77738 28.2975 7.91422 28.3124 8.05245C28.3565 8.46046 28.7275 12.0908 28.1856 13.8917C27.7111 15.4697 26.8897 20.4192 26.7603 21.5415C26.7029 22.0393 26.3494 23.8658 25.9961 24.1966C25.908 24.3723 25.8113 24.5237 25.7177 24.6704C25.6341 24.8014 25.5548 24.9256 25.4957 25.0477C25.4899 25.4736 25.47 25.8307 25.4366 26.1096C25.3742 26.6301 25.3118 27.325 25.2515 27.997C25.0995 29.6904 25.0467 30.1422 24.9594 30.2627C24.893 30.7029 24.8388 30.879 24.7766 31.0812C24.7241 31.2523 24.6645 31.4461 24.5845 31.8565C24.5727 32.0076 24.5441 32.1637 24.497 32.3332C24.4575 32.5659 24.4218 32.7941 24.3882 33.008C24.3192 33.4484 24.2596 33.8287 24.1706 34.1807C24.0995 34.4617 24.068 34.6185 24.0542 34.7623C24.088 34.9083 24.0922 35.2025 24.0964 35.6885L24.0987 35.9271C24.1056 36.5692 24.0694 37.6191 23.944 38.4651C23.8989 39.0812 23.8473 39.5412 23.7917 39.8221L23.7859 39.8513C23.5968 40.8084 23.1539 43.0499 22.8162 43.8024C22.5602 44.3729 22.3635 45.4765 22.2199 46.2823C22.1907 46.4462 22.1635 46.5989 22.1383 46.7336C22.157 46.7842 22.1614 46.8479 22.168 46.9435C22.1781 47.0902 22.1951 47.3359 22.2709 47.7704C22.3445 48.1928 22.5321 48.8993 22.7308 49.6472C22.9387 50.4299 23.1744 51.3169 23.325 52.0496C23.6245 53.5069 23.9131 56.9843 23.6516 59.4602C23.5312 60.5999 23.2819 62.0709 22.7763 62.651C22.6173 63.126 22.4822 63.489 22.4101 63.6776C22.4092 64.2757 21.9495 65.984 21.6436 67.1203L21.5582 67.4386C21.4436 67.8677 21.312 68.8698 21.1727 69.9307C21.1214 70.3216 21.0695 70.7166 21.0178 71.0873L21.0086 71.3693C20.9466 73.2589 20.8314 76.776 20.9323 77.4206C20.979 77.7189 21.2108 78.2746 21.4561 78.8628C21.9044 79.9375 22.4124 81.1556 22.2911 81.8499C22.233 82.1826 22.1478 82.5524 22.0575 82.9439C21.87 83.7573 21.6574 84.6792 21.6844 85.3634C21.724 86.3602 21.5675 87.7625 21.2951 88.8528C21.1661 89.3689 21.3386 89.9313 21.5054 90.4753C21.6496 90.9455 21.7987 91.4318 21.7444 91.8811C21.6421 92.7282 21.1605 93.1646 20.3132 93.1783L20.2865 93.1785C19.9349 93.1785 19.5962 93.0664 19.2974 92.9674C19.0569 92.8879 18.8299 92.8127 18.6451 92.8127L18.6303 92.8129C18.4493 92.8169 18.2678 92.8977 18.0756 92.9832C17.8469 93.0849 17.5877 93.2003 17.2862 93.2003C17.2643 93.2003 17.2422 93.1996 17.2199 93.1984C16.8969 93.1805 16.7241 93.0789 16.5715 92.9894C16.4496 92.9178 16.3533 92.8613 16.1864 92.8534C16.1763 92.8529 16.1666 92.8526 16.1571 92.8526C15.9981 92.8526 15.903 92.9169 15.7825 92.9983C15.6517 93.0867 15.5035 93.1868 15.2663 93.1985C15.2481 93.1993 15.2306 93.1998 15.2139 93.1998C14.9595 93.1998 14.8341 93.1017 14.7235 93.0151C14.6452 92.954 14.5776 92.9011 14.4548 92.8695C14.4362 92.8647 14.418 92.8624 14.3993 92.8624C14.2916 92.8624 14.1793 92.9436 14.0603 93.0296C13.9169 93.1333 13.7686 93.2406 13.585 93.2406C13.5711 93.2406 13.557 93.2399 13.5429 93.2386C13.311 93.2168 13.1907 93.1196 13.0845 93.0339C13.0195 92.9814 12.9634 92.9362 12.8806 92.9063C12.8701 92.9025 12.8586 92.9007 12.8454 92.9007C12.7711 92.9007 12.6617 92.9574 12.5459 93.0176C12.3732 93.1073 12.1581 93.2189 11.9123 93.2189C11.3844 93.2189 11.1141 92.9565 10.9484 92.2829C10.782 91.6061 10.9283 90.5077 11.4613 89.8411C11.5989 89.6689 11.8179 89.4063 12.0715 89.1024C12.7197 88.3256 13.6075 87.2617 13.9899 86.6841C14.5234 85.8783 14.7397 84.4361 14.4265 83.7725C14.0263 82.9245 13.9423 82.1324 14.1769 81.4185L14.256 81.1796C14.4752 80.5201 14.7019 79.8382 14.7999 79.0091C14.8804 78.3275 14.8442 76.6747 14.7763 75.4223C14.7126 75.1407 14.6608 74.8442 14.6225 74.5407C14.4039 72.8086 13.4082 65.3075 12.8902 62.9824C12.4031 60.7957 11.6315 56.7881 11.5027 54.7093C11.3889 52.8745 11.5194 51.6794 11.5973 50.9653L11.6148 50.8041C11.6415 50.5523 11.7136 50.0655 11.7631 49.8386C11.86 49.3436 11.9958 48.8844 12.1156 48.4792C12.1857 48.2419 12.252 48.0176 12.3027 47.8125C12.3345 47.5636 12.4135 46.9963 12.4968 46.7995L12.5082 46.7416C12.5932 46.3099 12.6894 45.821 12.7386 45.3669C12.737 45.0803 12.7441 44.8113 12.7602 44.5454C12.6752 43.6107 12.6402 40.0807 12.7503 38.467C12.8223 37.4118 13.106 35.8521 13.3338 34.5987C13.4554 33.9297 13.5605 33.3519 13.5928 33.0615C13.6322 32.7062 13.6116 32.2035 13.5319 31.5669L13.5308 31.5641C12.5585 29.1696 11.5721 26.6621 11.1303 24.6406C10.9084 23.6258 10.8657 21.8474 10.8245 20.1276C10.7862 18.5334 10.7466 16.8849 10.5616 15.9496C10.188 14.0608 10.1352 10.7931 10.1897 9.17711C10.1702 8.81392 10.227 8.07591 10.2597 7.75196C10.2396 7.68919 10.2461 7.61039 10.2558 7.53261C10.2814 7.32801 10.3063 6.87698 10.3378 6.30601C10.4186 4.84502 10.5406 2.63713 10.8366 1.39751C11.2348 -0.269867 11.9896 -4.70602 11.9588 -6.11947C11.9276 -7.55586 12.6613 -10.6289 13.2029 -12.2951C13.3148 -12.7679 13.5139 -13.5071 13.6895 -14.1592C13.7846 -14.5128 13.8716 -14.8358 13.9315 -15.0677C13.968 -15.5135 14.0806 -15.9644 14.1749 -16.3084C14.3039 -16.7786 14.2154 -17.3442 14.113 -17.9992C14.0007 -18.7174 13.8609 -19.6113 13.9678 -20.6708C14.1452 -22.4279 14.3413 -23.3083 14.4745 -23.7374C14.5184 -23.8951 14.574 -24.0572 14.6329 -24.2288C14.7649 -24.6133 14.9013 -25.0108 14.9275 -25.4379C14.8642 -26.1059 14.8654 -26.8768 14.9302 -27.2827C14.935 -28.1524 14.9297 -29.1295 14.8551 -29.7991C14.8288 -29.9295 14.8038 -30.0851 14.7824 -30.2502C14.6506 -30.8552 14.3871 -31.472 14.1946 -31.9224C14.1314 -32.0703 14.0758 -32.2005 14.0314 -32.3138C13.8656 -32.4341 13.8006 -32.7819 13.6837 -33.4074C13.5997 -33.8565 13.4952 -34.4154 13.3237 -34.9903C12.9879 -36.116 12.3139 -39.0512 12.0645 -40.5892C12.0296 -40.6004 11.9963 -40.6064 11.9672 -40.6064C11.9381 -40.6064 11.9247 -40.6003 11.9213 -40.5985C11.9064 -40.5905 11.887 -40.5749 11.8681 -40.5319C11.9147 -40.2497 11.8125 -39.2944 11.7431 -38.7177C11.6687 -38.0989 11.2814 -36.8671 10.8331 -35.4408C10.0664 -33.002 9.11217 -29.9668 9.18785 -28.3571C9.28918 -26.2023 8.54136 -24.5881 8.1499 -24.268C8.07435 -23.882 8.01202 -23.4694 7.95162 -23.0698C7.89082 -22.6672 7.82789 -22.2508 7.75074 -21.8548C7.66243 -21.2406 7.47942 -20.5333 7.19249 -19.6993C6.90404 -18.8607 6.05415 -16.791 4.91879 -14.1621C4.76822 -13.6746 4.60097 -13.1399 4.42406 -12.5744C3.2834 -8.92802 1.72124 -3.93401 1.68196 -2.16096C1.67073 -1.65283 1.95534 -0.875252 2.4254 0.344833C2.94696 1.6987 2.85672 4.35755 1.66209 6.61845C1.15388 7.58034 0.703823 9.05082 0.268517 10.4729C-0.154229 11.8543 -0.553664 13.1591 -0.94805 13.7459C-1.18288 14.0953 -1.42595 14.2725 -1.67049 14.2725C-1.92054 14.2725 -2.10859 14.091 -2.23577 13.9047C-2.43353 14.9165 -2.89183 16.7305 -3.65355 16.8691C-3.70811 16.8791 -3.76179 16.8841 -3.8131 16.8841C-4.18827 16.8841 -4.46151 16.6246 -4.59893 16.1552C-4.83616 16.9643 -5.27073 18.049 -5.89536 18.049L-5.91556 18.0487C-6.79481 18.0165 -6.82074 16.8615 -6.78073 15.56C-6.85037 15.5989 -6.92924 15.619 -7.01529 15.619C-7.59114 15.619 -8.28322 14.7539 -8.41246 13.8723C-8.73228 11.6905 -8.52038 9.07677 -8.36567 7.16827C-8.28959 6.23046 -8.21124 5.2636 -8.2757 4.99017C-8.39425 5.09982 -8.54542 5.29572 -8.7182 5.51952C-9.04267 5.93982 -9.44642 6.46285 -9.92001 6.78881C-10.3043 7.05332 -10.7623 7.19308 -11.2445 7.19308C-12.0014 7.19308 -12.6675 6.85119 -12.8284 6.38015C-12.8892 6.20215 -12.924 5.85147 -12.4742 5.50323C-11.3021 4.59547 -9.05551 1.31644 -8.25691 -0.652031C-7.72438 -1.96468 -6.74345 -2.39974 -5.9553 -2.74937C-5.48477 -2.95808 -5.07842 -3.13828 -4.87815 -3.45479C-4.41526 -4.18635 -3.71416 -7.74898 -2.79436 -14.0436C-2.75735 -17.4598 -2.70279 -20.9365 -2.48411 -22.6434C-2.071 -25.868 -0.71915 -29.786 0.467912 -31.1991C0.637751 -31.4012 0.789328 -31.585 0.924749 -31.7493C1.33587 -32.2478 1.59005 -32.556 1.78194 -32.6867C1.95226 -32.9149 2.09771 -33.3429 2.21453 -33.9595C1.94927 -37.9176 2.79908 -41.3022 3.48843 -42.4433L3.52517 -42.5036C3.60484 -42.7769 3.71596 -43.1248 3.83343 -43.4927L3.87469 -43.6222L3.89688 -43.7509C4.08076 -44.8182 3.944 -46.3202 3.78565 -48.0594C3.75096 -48.4405 3.71541 -48.831 3.68231 -49.2279C3.47452 -51.7226 3.78823 -53.7192 4.66956 -55.511C4.92053 -56.1206 5.39352 -56.9076 5.84505 -57.4649C7.84591 -60.9725 11.898 -62.4286 13.6248 -62.4286C13.7374 -62.4286 13.8391 -62.4218 13.9276 -62.4084C13.9696 -62.4106 14.0138 -62.4115 14.0603 -62.4115C14.2427 -62.4115 14.4598 -62.3963 14.6898 -62.3803C14.9692 -62.3608 15.2859 -62.3387 15.6095 -62.3386C15.759 -62.4639 16.0895 -62.5793 16.6912 -62.7825C17.1205 -62.9275 17.6549 -63.108 18.1892 -63.3312C19.434 -63.8509 20.9703 -64.8051 21.8422 -65.6C22.1112 -65.8453 22.2788 -65.9748 22.3978 -66.0277C22.4804 -66.1427 22.5682 -66.2573 22.659 -66.3758C23.0005 -66.8212 23.387 -67.3251 23.4924 -67.8429C23.4584 -68.1425 23.4465 -69.7888 23.5587 -70.8709C23.5461 -71.0441 23.5332 -71.1313 23.5247 -71.1742C23.5087 -71.2544 23.4954 -71.3358 23.4818 -71.4197C23.4192 -71.8038 23.3484 -72.239 22.9365 -72.8532C22.585 -73.3775 22.4875 -74.5959 22.4677 -75.5256C22.464 -75.7054 22.3175 -75.8516 22.1413 -75.8516C22.1183 -75.8516 22.0951 -75.8491 22.0722 -75.8441C21.9674 -75.8212 21.8577 -75.8091 21.7549 -75.8091C21.478 -75.8091 21.2492 -75.8932 21.0933 -76.0523C20.9324 -76.2163 20.8538 -76.4521 20.8595 -76.7531C20.8795 -77.805 20.6657 -78.4152 20.477 -78.9537C20.3819 -79.2252 20.2921 -79.4817 20.238 -79.7703C20.1419 -80.2832 20.0834 -80.9728 20.3503 -81.3455C20.4553 -81.4921 20.5993 -81.5794 20.7785 -81.605C20.8223 -81.6113 20.8675 -81.6144 20.9127 -81.6144C21.0613 -81.6144 21.2166 -81.5805 21.3744 -81.5135C21.396 -81.5044 21.4183 -81.4997 21.4405 -81.4997C21.4885 -81.4997 21.536 -81.5213 21.5708 -81.5588C21.6065 -81.5972 21.624 -81.6472 21.62 -81.6995C21.5044 -83.2383 21.3988 -87.0272 22.9118 -88.9685C24.7107 -91.2766 27.4774 -91.7442 28.5836 -91.8381C28.7266 -91.8502 28.8991 -91.8633 29.1375 -91.8633C29.3163 -91.8633 29.5101 -91.8556 29.7137 -91.8404C30.8401 -91.7567 33.6567 -91.3092 35.481 -88.9685C36.9939 -87.0272 36.8883 -83.2383 36.7727 -81.6994C36.7688 -81.6472 36.7862 -81.5972 36.8219 -81.5587C36.8567 -81.5212 36.9042 -81.4997 36.9522 -81.4997C36.9746 -81.4997 36.9968 -81.5044 37.0184 -81.5135C37.1762 -81.5805 37.3315 -81.6144 37.48 -81.6144C37.5252 -81.6144 37.5704 -81.6113 37.6143 -81.605C37.7934 -81.5794 37.9374 -81.4921 38.0424 -81.3455C38.3093 -80.9728 38.2508 -80.2832 38.1548 -79.7703C38.1007 -79.4817 38.0108 -79.2253 37.9157 -78.9538C37.7271 -78.4153 37.5133 -77.805 37.5333 -76.7531C37.539 -76.4521 37.4604 -76.2162 37.2995 -76.0522C37.1435 -75.8932 36.9147 -75.8091 36.6379 -75.8091C36.535 -75.8091 36.4253 -75.8212 36.3205 -75.8441C36.2976 -75.8491 36.2744 -75.8516 36.2514 -75.8516C36.0753 -75.8516 35.9288 -75.7054 35.925 -75.5256C35.9052 -74.5959 35.8078 -73.3775 35.4563 -72.8531C35.0445 -72.2391 34.9736 -71.8038 34.911 -71.4198C34.8974 -71.3359 34.8841 -71.2544 34.868 -71.1743C34.8594 -71.1309 34.8466 -71.0433 34.8341 -70.871C34.9463 -69.7885 34.9344 -68.1424 34.9004 -67.8429C35.0057 -67.3251 35.3922 -66.8212 35.7337 -66.3758C35.8259 -66.2556 35.915 -66.1393 35.9952 -66.0276C36.1142 -65.9746 36.2817 -65.8452 36.5506 -65.6C37.4224 -64.8052 38.9586 -63.851 40.2035 -63.3312C40.7378 -63.108 41.2722 -62.9275 41.7016 -62.7825C42.3033 -62.5793 42.6338 -62.4639 42.7833 -62.3386C43.1068 -62.3387 43.4235 -62.3608 43.703 -62.3803C43.9329 -62.3963 44.1501 -62.4115 44.3325 -62.4115C44.3789 -62.4115 44.4231 -62.4106 44.4651 -62.4084C44.5536 -62.4218 44.6553 -62.4286 44.7679 -62.4286C46.4947 -62.4286 50.5468 -60.9725 52.5477 -57.4649C52.9993 -56.9074 53.4723 -56.1204 53.7269 -55.5029C54.6045 -53.7193 54.9182 -51.7228 54.7104 -49.2279C54.6773 -48.8306 54.6418 -48.4399 54.607 -48.0584C54.4487 -46.3196 54.312 -44.818 54.4959 -43.7509L54.5253 -43.5803L54.5274 -43.5737C54.6457 -43.1936 54.7576 -42.8342 54.8365 -42.5549L54.9043 -42.4432C55.6012 -41.2898 56.4546 -37.8738 56.1739 -33.8858C56.287 -33.3039 56.431 -32.9026 56.6024 -32.6921C56.7958 -32.5644 57.053 -32.2525 57.4698 -31.747C57.6048 -31.5834 57.7558 -31.4004 57.9248 -31.1991C59.1119 -29.7861 60.4637 -25.8681 60.8768 -22.6435C61.0955 -20.9365 61.1501 -17.4599 61.1871 -14.0437C62.1069 -7.74903 62.808 -4.18633 63.271 -3.45484C63.4712 -3.13834 63.8776 -2.95813 64.348 -2.74941C65.1363 -2.39979 66.1171 -1.96474 66.6497 -0.652092C67.4483 1.31644 69.6949 4.59542 70.867 5.50318C71.3168 5.85146 71.282 6.20215 71.2212 6.38015C71.0603 6.85119 70.3942 7.19302 69.6373 7.19302C69.1551 7.19302 68.697 7.05325 68.3128 6.78881C67.8393 6.46285 67.4355 5.93982 67.1111 5.51965C66.9384 5.29578 66.7871 5.09989 66.6685 4.99017C66.6041 5.26366 66.6825 6.23033 66.7585 7.16782C66.9132 9.07644 67.1251 11.6904 66.8053 13.8722C66.6761 14.7538 65.984 15.6189 65.4081 15.6189C65.3221 15.6189 65.2432 15.5988 65.1736 15.56C65.2135 16.8614 65.1875 18.0164 64.3083 18.0486L64.2881 18.0489C63.6635 18.0489 63.2289 16.9642 62.9917 16.1552C62.8543 16.6245 62.5811 16.884 62.206 16.884C62.1546 16.884 62.1009 16.879 62.0464 16.8691C61.2843 16.7304 60.8262 14.9164 60.6285 13.9046C60.5014 14.0909 60.3134 14.2725 60.0633 14.2725C59.8188 14.2725 59.5756 14.0953 59.3408 13.7458C58.9464 13.159 58.547 11.8542 58.1242 10.4728C57.6889 9.05075 57.2389 7.58027 56.7307 6.61838C55.536 4.35749 55.4458 1.69863 55.9674 0.344765C56.4375 -0.875443 56.7221 -1.65302 56.7108 -2.16103C56.6715 -3.934 55.1094 -8.92789 53.9688 -12.5743C53.7919 -13.1398 53.6246 -13.6745 53.474 -14.1621C52.3387 -16.7912 51.4888 -18.8609 51.2003 -19.6994C50.9133 -20.5333 50.7304 -21.2406 50.6409 -21.8617C50.5649 -22.2508 50.502 -22.667 50.4413 -23.0693C50.3809 -23.4691 50.3186 -23.8819 50.2429 -24.2681C49.8514 -24.5883 49.1037 -26.2025 49.2049 -28.3572C49.2807 -29.9669 48.3265 -33.0021 47.5597 -35.441C47.1113 -36.8673 46.7241 -38.099 46.6497 -38.7178C46.5803 -39.2945 46.4782 -40.2498 46.5247 -40.5319C46.5059 -40.575 46.4865 -40.5906 46.4717 -40.5985C46.4682 -40.6004 46.4548 -40.6065 46.4256 -40.6065C46.3965 -40.6065 46.3631 -40.6005 46.3283 -40.5892C46.0791 -39.0518 45.405 -36.1165 45.0691 -34.9904C44.8976 -34.4154 44.7931 -33.8565 44.7092 -33.4074C44.5922 -32.7819 44.5271 -32.4342 44.3614 -32.3138C44.317 -32.2005 44.2614 -32.0704 44.1982 -31.9225C44.0058 -31.4722 43.7422 -30.8554 43.6086 -30.239C43.5891 -30.086 43.5641 -29.9304 43.536 -29.7879C43.4631 -29.1295 43.4578 -28.1525 43.4626 -27.2828C43.5274 -26.877 43.5286 -26.1059 43.4653 -25.438C43.4915 -25.0108 43.6279 -24.6134 43.7599 -24.2289C43.8188 -24.0574 43.8744 -23.8953 43.9194 -23.7338C44.0516 -23.3083 44.2476 -22.4278 44.425 -20.6708C44.5319 -19.6114 44.3921 -18.7176 44.2798 -17.9994C44.1774 -17.3444 44.0889 -16.7787 44.218 -16.3084C44.3123 -15.9647 44.4248 -15.5139 44.4612 -15.0679C44.5211 -14.8364 44.6078 -14.5142 44.7028 -14.1614C44.8786 -13.5085 45.0778 -12.7685 45.1928 -12.2845C45.7315 -10.6291 46.4651 -7.55607 46.434 -6.11956C46.4033 -4.70651 47.158 -0.270164 47.5562 1.39742C47.8521 2.63686 47.9742 4.84442 48.055 6.30521C48.0865 6.87659 48.1114 7.32788 48.137 7.53254C48.1468 7.61034 48.1533 7.68919 48.1331 7.75196C48.1659 8.07552 48.2226 8.81319 48.203 9.18861C48.2576 10.7926 48.2049 14.06 47.8312 15.9495C47.6461 16.8848 47.6066 18.5331 47.5684 20.1272C47.5271 21.8472 47.4844 23.6257 47.2625 24.6405C46.8208 26.6617 45.8343 29.1693 44.8619 31.5646L44.8609 31.5671C44.7811 32.2035 44.7607 32.7061 44.8001 33.0614C44.8323 33.3518 44.9373 33.9295 45.059 34.5985C45.2868 35.8519 45.5705 37.4117 45.6425 38.4669C45.753 40.0858 45.7174 43.631 45.6321 44.5483C45.6486 44.8051 45.6559 45.0772 45.6543 45.3669C45.7035 45.821 45.7997 46.3102 45.8847 46.7419L45.896 46.7994C45.9792 46.996 46.0583 47.5635 46.0902 47.8126C46.1408 48.0174 46.2071 48.2414 46.2772 48.4784C46.4348 49.0116 46.6135 49.6158 46.7052 50.2919C46.7349 50.4614 46.7617 50.65 46.778 50.8041L46.7955 50.9652C46.8735 51.6793 47.0039 52.8744 46.8901 54.7092C46.7614 56.7875 45.9898 60.7954 45.5026 62.9823C44.9839 65.3103 43.9888 72.8092 43.7703 74.5407C43.732 74.844 43.6803 75.1405 43.6166 75.4221C43.5486 76.6743 43.5123 78.3271 43.593 79.009C43.691 79.8386 43.9179 80.5208 44.1372 81.1805L44.216 81.4184C44.4505 82.1324 44.3665 82.9244 43.9663 83.7724C43.6531 84.436 43.8695 85.8783 44.403 86.684C44.7856 87.2619 45.6736 88.3262 46.3221 89.1033C46.5754 89.4068 46.7941 89.669 46.9316 89.841C47.4645 90.5076 47.6109 91.606 47.4444 92.2829C47.2787 92.9564 47.0085 93.2188 46.4805 93.2188C46.2347 93.2188 46.0197 93.1072 45.847 93.0175C45.7312 92.9574 45.6217 92.9006 45.5474 92.9006C45.5342 92.9006 45.5227 92.9024 45.5122 92.9062C45.4294 92.9361 45.3733 92.9814 45.3083 93.0338C45.2021 93.1195 45.0818 93.2168 44.8499 93.2385C44.8358 93.2398 44.822 93.2405 44.808 93.2405Z" fill="white" stroke="#28839F" stroke-width="0.7"/>
<path d="M33.7611 19.9704C33.2246 16.1874 33.8712 12.17 32.5144 8.62567C32.2311 7.88566 31.8673 7.18969 31.459 6.52063C30.8093 7.14677 30.5002 11 30.5002 11C30.5002 11 32.0508 20.3111 32.5144 22.5C32.9779 24.6889 34.7248 30.9939 35.0002 32.9997C35.2756 35.0055 37.6418 42.5 37.6418 42.5L38.5 40.5C38.5 40.5 36.981 38.2064 36.8456 37.2514C36.7101 36.2965 36.4556 34.9047 37.6419 34.0803C38.6834 33.3565 39.845 38.978 39.845 38.978C39.845 38.978 41.2504 38.0478 41.5707 35.7673C39.8309 33.8414 35.4727 27.1875 35.1187 24.7754C34.875 23.115 33.9968 21.632 33.7611 19.9704Z" fill="#28839F" fill-opacity="0.2"/>
<path d="M40.7641 22.7285C41.0447 20.1453 40.6235 15.3865 40.8764 12.9282C40.6839 12.6638 40.4815 12.4071 40.2672 12.1603C39.4092 11.1717 38.3912 10.3599 37.4794 9.42833C36.7877 8.72156 36.1604 7.94363 35.6035 7.11133C36.8019 10.5098 38.1085 14.425 39.0638 18.1291C39.4953 19.1215 40.2326 21.8737 40.7641 22.7285Z" fill="#28839F" fill-opacity="0.2" stroke="white" stroke-width="0.3" stroke-linejoin="round"/>
<path d="M39 18C38.0447 14.2959 36.802 10.5104 35.6036 7.11188C34.8323 5.95912 34.1971 4.70134 33.7212 3.37762L33.7201 3.37612C32.6963 2.62019 32.4125 1.23926 32.4125 1.23926L30.5352 1.92324L31.4543 6.23936C32 8 31.9533 7.73198 32.2032 8.47815C33 13.5 33.3446 16.1976 33.7201 20C33.8851 21.6701 34.6225 23.3797 34.7955 25.0489C35.0468 27.4739 38.4433 33.9816 40.0998 35.9796C40.5805 33.3671 40.7116 28.9002 40.8971 27.7158C40.9899 27.1238 40.7896 26.412 41 24.5C40.7706 23.2754 39.3378 19.3099 39 18C39.1323 18.4994 38.8677 17.5006 39 18Z" fill="#28839F"/>
<path d="M45.3434 -0.653859C45.2855 -0.693482 45.2228 -0.725825 45.1575 -0.751571C45.1325 -0.76163 45.1071 -0.770463 45.0814 -0.778456C45.018 -0.798261 44.9532 -0.812011 44.8883 -0.820645C44.1458 -0.918898 41.9625 -0.785081 41.3264 -1.18214C41.3215 -1.18518 41.3178 -1.1878 41.3131 -1.19077C41.3449 -1.35857 41.3623 -1.53063 41.3623 -1.70629C41.3623 -3.43745 39.7559 -4.84082 37.7744 -4.84082C35.7929 -4.84082 34.1865 -3.43745 34.1865 -1.70629C34.1865 0.0248666 35.7929 1.42824 37.7744 1.42824C38.3686 1.42824 38.9286 1.30126 39.4222 1.07785C39.4308 1.08377 39.4401 1.08997 39.4477 1.09542C39.9438 1.44955 41.4807 2.76987 41.6034 3.40131C41.6114 3.4385 41.6168 3.46907 41.6205 3.49651C41.6221 3.50754 41.6233 3.51811 41.6245 3.52846C41.6272 3.55516 41.6285 3.58025 41.6294 3.60765C41.6389 3.76111 41.6448 3.82843 41.6487 3.95259C41.6505 3.99224 41.6523 4.03188 41.6543 4.07154C41.6605 4.18138 41.6693 4.29123 41.6716 4.40137C41.7079 6.15156 41.4951 7.91533 41.1247 9.62016C39.7779 15.8182 40.4158 35.6152 38.6553 38.4589C37.9003 39.6786 37.4674 40.2179 36.7675 41.573C36.5846 41.9273 36.4614 42.354 36.4292 42.7794C36.4007 43.1595 36.4447 43.5384 36.5842 43.8639C36.6613 44.0439 36.7676 44.2077 36.9067 44.3459C37.1105 44.5466 37.3373 44.6724 37.5747 44.7432C37.8835 44.8354 38.2099 44.8341 38.5252 44.7829C38.8553 44.7292 39.1748 44.5907 39.4932 44.4552C39.9178 44.2746 40.0563 43.9614 40.5 44C40.9219 44.0367 40.5908 44.3752 40.9745 44.5855C41.2415 44.7321 41.5082 44.8834 41.7865 44.9874C41.833 45.0047 41.8803 45.0209 41.9282 45.0358C42.1157 45.0935 42.3124 45.1302 42.5078 45.1355C42.7386 45.1417 42.9673 45.1037 43.1757 45.0044C43.3441 44.917 43.4836 44.7927 43.5975 44.6421C43.8036 44.3701 43.927 44.0119 43.9916 43.6292C44.0638 43.2009 44.0623 42.7416 44.0202 42.3377C43.8926 41.1121 43.0424 40.0149 43.1386 38.7979C43.397 35.5274 42.7448 16.0406 44.0232 9.87206C44.395 8.0777 44.9587 6.31816 45.6881 4.65479C45.8548 4.27436 46.309 4.04977 46.5482 3.72794C46.6306 3.61706 46.6874 3.49456 46.6984 3.35036C46.8054 1.93496 46.4615 0.107005 45.3434 -0.653859Z" fill="white" stroke="#28839F" stroke-width="0.3" stroke-linejoin="round"/>
<path d="M43.1401 -15.0648C42.7033 -17.0271 40.0757 -18.1863 37.0932 -17.6688C36.0695 -17.4914 34.7401 -16.5556 33.9717 -15.8726C33.9126 -15.82 33.8554 -15.7683 33.8 -15.7174C33.4252 -15.3734 33.1379 -15.0747 32.9853 -14.9231V-13.0167C32.9853 -12.5954 33.2247 -10.7939 33.3208 -9.70486C33.3236 -9.67409 33.3261 -9.64435 33.3288 -9.61513C33.3481 -9.3854 33.3601 -9.20891 33.3601 -9.11514C33.5347 -9.11514 33.6848 -9.11683 33.814 -9.11527C33.8331 -9.11514 33.8519 -9.11489 33.8699 -9.11449C34.107 -9.10981 34.534 -8.94891 34.6498 -8.88021C35.0366 -8.65099 35.2437 -8.224 35.3589 -7.6713C35.4021 -7.46363 35.3871 -7.22247 35.4012 -6.99677C35.376 -6.95755 35.3601 -6.92898 35.3259 -6.87977C35.0233 -6.44381 34.4134 -5.67033 34.2455 -5.53306C34.0494 -5.37267 33.5315 -4.95515 33.2921 -4.65036C33.2108 -4.54712 33.1615 -4.45686 33.1674 -4.39387C33.1674 -4.3731 33.169 -4.34946 33.1719 -4.32349C33.1753 -4.29414 33.1803 -4.26154 33.1868 -4.22622C33.2331 -3.97351 33.3509 -3.58364 33.4134 -3.20157C33.4633 -2.89795 33.5178 -2.54172 33.5576 -2.16783C33.5614 -2.13134 33.5599 -2.09329 33.5635 -2.05641C33.3003 -1.73149 33.033 -1.43046 32.7983 -1.25423C32.482 -1.01658 32.0276 -0.818659 31.5386 -0.661007C30.8602 -0.442316 30.3178 -0.298029 29.7615 -0.237646C29.7456 -0.236094 29.73 -0.234396 29.7143 -0.232843C29.5108 -0.212711 29.3056 -0.202198 29.0901 -0.205702C29.0699 -0.205959 29.0046 -0.206614 28.9842 -0.206999C28.9835 -0.183105 28.9909 -0.164013 28.9888 -0.140375C28.9885 -0.137911 28.9894 -0.125956 28.9896 -0.119474C28.9081 0.0296154 28.9568 0.577646 28.9008 0.805428C28.8865 0.863743 28.865 0.899189 28.8315 0.899189C29.111 1.19113 29.0282 1.05841 29.2773 1.31372C29.4225 1.46268 29.8642 1.65449 30.0739 1.91864C30.3254 2.2359 30.7827 2.91615 31.234 2.92991C31.5822 2.94055 32.2083 2.95848 32.4526 2.93017C33.0934 2.85562 34.8183 1.92344 35.5815 0.407255C35.8211 -0.0687084 35.8855 -0.632198 35.8829 -1.22126C36.1484 -1.55657 36.4381 -1.88994 36.8237 -2.1437C37.6511 -2.68796 38.6518 -2.64914 39.1264 -3.2247C39.8825 -4.14155 39.3916 -6.32331 40.1044 -7.18821C40.441 -7.59664 40.8843 -7.96896 41.2716 -8.33362C41.5106 -8.55919 41.7283 -8.78166 41.8861 -9.00814C43.3468 -11.1043 43.615 -12.9312 43.1401 -15.0648ZM32.3589 1.39544C32.2083 1.45206 31.7302 1.4657 31.51 1.43583C31.2247 1.39714 30.9409 1.2448 30.9033 0.991175C30.8753 0.802605 30.89 0.686897 31.123 0.542223C31.1293 0.538334 31.1215 0.529245 31.1267 0.524956C31.4504 0.471056 31.8058 0.40613 32.2532 0.317295C32.5693 0.254576 32.969 0.238987 33.3736 0.213797C33.123 0.857672 32.7303 1.2561 32.3589 1.39544Z" fill="white" stroke="#28839F" stroke-width="0.3" stroke-linejoin="round"/>
<path d="M24.7389 19.9704C25.2754 16.1874 24.6288 12.17 25.9856 8.62567C26.2689 7.88566 26.6327 7.18969 27.041 6.52063C27.6907 7.14677 27.9998 11 27.9998 11C27.9998 11 26.4492 20.3111 25.9856 22.5C25.5221 24.6889 23.7752 30.9939 23.4998 32.9997C23.2244 35.0055 20.8582 42.5 20.8582 42.5L20 40.5C20 40.5 21.519 38.2064 21.6544 37.2514C21.7899 36.2965 22.0444 34.9047 20.8581 34.0803C19.8166 33.3565 18.655 38.978 18.655 38.978C18.655 38.978 17.2496 38.0478 16.9293 35.7673C18.6691 33.8414 23.0273 27.1875 23.3813 24.7754C23.625 23.115 24.5032 21.632 24.7389 19.9704Z" fill="#28839F" fill-opacity="0.2"/>
<path d="M17.7359 22.7285C17.4553 20.1453 17.8765 15.3865 17.6236 12.9282C17.8161 12.6638 18.0185 12.4071 18.2328 12.1603C19.0908 11.1717 20.1088 10.3599 21.0206 9.42833C21.7123 8.72156 22.3396 7.94363 22.8965 7.11133C21.6981 10.5098 20.3915 14.425 19.4362 18.1291C19.0047 19.1215 18.2674 21.8737 17.7359 22.7285Z" fill="#28839F" fill-opacity="0.2" stroke="white" stroke-width="0.3" stroke-linejoin="round"/>
<path d="M19.5 18C20.4553 14.2959 21.698 10.5104 22.8964 7.11188C23.6677 5.95912 24.3029 4.70134 24.7788 3.37762L24.7799 3.37612C25.8037 2.62019 26.0875 1.23926 26.0875 1.23926L27.9648 1.92324L27.0457 6.23936C26.5 8 26.5467 7.73198 26.2968 8.47815C25.5 13.5 25.1554 16.1976 24.7799 20C24.6149 21.6701 23.8775 23.3797 23.7045 25.0489C23.4532 27.4739 20.0567 33.9816 18.4002 35.9796C17.9195 33.3671 17.7884 28.9002 17.6029 27.7158C17.5101 27.1238 17.7104 26.412 17.5 24.5C17.7294 23.2754 19.1622 19.3099 19.5 18C19.3677 18.4994 19.6323 17.5006 19.5 18Z" fill="#28839F"/>
<path d="M13.1566 -0.653859C13.2145 -0.693482 13.2772 -0.725825 13.3425 -0.751571C13.3675 -0.76163 13.3929 -0.770463 13.4186 -0.778456C13.482 -0.798261 13.5468 -0.812011 13.6117 -0.820645C14.3542 -0.918898 16.5375 -0.785081 17.1736 -1.18214C17.1785 -1.18518 17.1822 -1.1878 17.1869 -1.19077C17.1551 -1.35857 17.1377 -1.53063 17.1377 -1.70629C17.1377 -3.43745 18.7441 -4.84082 20.7256 -4.84082C22.7071 -4.84082 24.3135 -3.43745 24.3135 -1.70629C24.3135 0.0248666 22.7071 1.42824 20.7256 1.42824C20.1314 1.42824 19.5714 1.30126 19.0778 1.07785C19.0692 1.08377 19.0599 1.08997 19.0523 1.09542C18.5562 1.44955 17.0193 2.76987 16.8966 3.40131C16.8886 3.4385 16.8832 3.46907 16.8795 3.49651C16.8779 3.50754 16.8767 3.51811 16.8755 3.52846C16.8728 3.55516 16.8715 3.58025 16.8706 3.60765C16.8611 3.76111 16.8552 3.82843 16.8513 3.95259C16.8495 3.99224 16.8477 4.03188 16.8457 4.07154C16.8395 4.18138 16.8307 4.29123 16.8284 4.40137C16.7921 6.15156 17.0049 7.91533 17.3753 9.62016C18.7221 15.8182 18.0842 35.6152 19.8447 38.4589C20.5997 39.6786 21.0326 40.2179 21.7325 41.573C21.9154 41.9273 22.0386 42.354 22.0708 42.7794C22.0993 43.1595 22.0553 43.5384 21.9158 43.8639C21.8387 44.0439 21.7324 44.2077 21.5933 44.3459C21.3895 44.5466 21.1627 44.6724 20.9253 44.7432C20.6165 44.8354 20.2901 44.8341 19.9748 44.7829C19.6447 44.7292 19.3252 44.5907 19.0068 44.4552C18.5822 44.2746 18.4437 43.9614 18 44C17.5781 44.0367 17.9092 44.3752 17.5255 44.5855C17.2585 44.7321 16.9918 44.8834 16.7135 44.9874C16.667 45.0047 16.6197 45.0209 16.5718 45.0358C16.3843 45.0935 16.1876 45.1302 15.9922 45.1355C15.7614 45.1417 15.5327 45.1037 15.3243 45.0044C15.1559 44.917 15.0164 44.7927 14.9025 44.6421C14.6964 44.3701 14.573 44.0119 14.5084 43.6292C14.4362 43.2009 14.4377 42.7416 14.4798 42.3377C14.6074 41.1121 15.4576 40.0149 15.3614 38.7979C15.103 35.5274 15.7552 16.0406 14.4768 9.87206C14.105 8.0777 13.5413 6.31816 12.8119 4.65479C12.6452 4.27436 12.191 4.04977 11.9518 3.72794C11.8694 3.61706 11.8126 3.49456 11.8016 3.35036C11.6946 1.93496 12.0385 0.107005 13.1566 -0.653859Z" fill="white" stroke="#28839F" stroke-width="0.3" stroke-linejoin="round"/>
<path d="M15.3599 -15.0648C15.7967 -17.0271 18.4243 -18.1863 21.4068 -17.6688C22.4305 -17.4914 23.7599 -16.5556 24.5283 -15.8726C24.5874 -15.82 24.6446 -15.7683 24.7 -15.7174C25.0748 -15.3734 25.3621 -15.0747 25.5147 -14.9231V-13.0167C25.5147 -12.5954 25.2753 -10.7939 25.1792 -9.70486C25.1764 -9.67409 25.1739 -9.64435 25.1712 -9.61513C25.1519 -9.3854 25.1399 -9.20891 25.1399 -9.11514C24.9653 -9.11514 24.8152 -9.11683 24.686 -9.11527C24.6669 -9.11514 24.6481 -9.11489 24.6301 -9.11449C24.393 -9.10981 23.966 -8.94891 23.8502 -8.88021C23.4634 -8.65099 23.2563 -8.224 23.1411 -7.6713C23.0979 -7.46363 23.1129 -7.22247 23.0988 -6.99677C23.124 -6.95755 23.1399 -6.92898 23.1741 -6.87977C23.4767 -6.44381 24.0866 -5.67033 24.2545 -5.53306C24.4506 -5.37267 24.9685 -4.95515 25.2079 -4.65036C25.2892 -4.54712 25.3385 -4.45686 25.3326 -4.39387C25.3326 -4.3731 25.331 -4.34946 25.3281 -4.32349C25.3247 -4.29414 25.3197 -4.26154 25.3132 -4.22622C25.2669 -3.97351 25.1491 -3.58364 25.0866 -3.20157C25.0367 -2.89795 24.9822 -2.54172 24.9424 -2.16783C24.9386 -2.13134 24.9401 -2.09329 24.9365 -2.05641C25.1997 -1.73149 25.467 -1.43046 25.7017 -1.25423C26.018 -1.01658 26.4724 -0.818659 26.9614 -0.661007C27.6398 -0.442316 28.1822 -0.298029 28.7385 -0.237646C28.7544 -0.236094 28.77 -0.234396 28.7857 -0.232843C28.9892 -0.212711 29.1944 -0.202198 29.4099 -0.205702C29.4301 -0.205959 29.4954 -0.206614 29.5158 -0.206999C29.5165 -0.183105 29.5091 -0.164013 29.5112 -0.140375C29.5115 -0.137911 29.5106 -0.125956 29.5104 -0.119474C29.5919 0.0296154 29.5432 0.577646 29.5992 0.805428C29.6135 0.863743 29.635 0.899189 29.6685 0.899189C29.389 1.19113 29.4718 1.05841 29.2227 1.31372C29.0775 1.46268 28.6358 1.65449 28.4261 1.91864C28.1746 2.2359 27.7173 2.91615 27.266 2.92991C26.9178 2.94055 26.2917 2.95848 26.0474 2.93017C25.4066 2.85562 23.6817 1.92344 22.9185 0.407255C22.6789 -0.0687084 22.6145 -0.632198 22.6171 -1.22126C22.3516 -1.55657 22.0619 -1.88994 21.6763 -2.1437C20.8489 -2.68796 19.8482 -2.64914 19.3736 -3.2247C18.6175 -4.14155 19.1084 -6.32331 18.3956 -7.18821C18.059 -7.59664 17.6157 -7.96896 17.2284 -8.33362C16.9894 -8.55919 16.7717 -8.78166 16.6139 -9.00814C15.1532 -11.1043 14.885 -12.9312 15.3599 -15.0648ZM26.1411 1.39544C26.2917 1.45206 26.7698 1.4657 26.99 1.43583C27.2753 1.39714 27.5591 1.2448 27.5967 0.991175C27.6247 0.802605 27.61 0.686897 27.377 0.542223C27.3707 0.538334 27.3785 0.529245 27.3733 0.524956C27.0496 0.471056 26.6942 0.40613 26.2468 0.317295C25.9307 0.254576 25.531 0.238987 25.1264 0.213797C25.377 0.857672 25.7697 1.2561 26.1411 1.39544Z" fill="white" stroke="#28839F" stroke-width="0.3" stroke-linejoin="round"/>
</g>
<defs>
<clipPath id="clip0_4089_13874">
<rect width="42" height="85" fill="white" transform="translate(8 -23)"/>
</clipPath>
</defs>
</svg>
