<svg width="61" height="48" viewBox="0 0 61 48" fill="none" xmlns="http://www.w3.org/2000/svg">
<g clip-path="url(#clip0_4089_13875)">
<g clip-path="url(#clip1_4089_13875)">
<path d="M45.808 93.2405C45.6244 93.2405 45.4761 93.1333 45.3327 93.0296C45.2137 92.9436 45.1014 92.8623 44.9936 92.8623C44.9749 92.8623 44.9568 92.8647 44.9381 92.8694C44.8153 92.9011 44.7477 92.9539 44.6695 93.0151C44.5589 93.1016 44.4335 93.1998 44.1792 93.1998C44.1624 93.1998 44.1449 93.1993 44.1267 93.1984C43.8895 93.1868 43.7413 93.0867 43.6105 92.9984C43.49 92.9169 43.3949 92.8526 43.2359 92.8526C43.2264 92.8526 43.2166 92.8529 43.2066 92.8533C43.0397 92.8613 42.9434 92.9178 42.8215 92.9893C42.6689 93.0789 42.496 93.1804 42.1731 93.1984C42.1507 93.1996 42.1286 93.2003 42.1068 93.2003C41.8053 93.2003 41.5461 93.0849 41.3174 92.9832C41.1252 92.8977 40.9437 92.8169 40.7627 92.8129L40.7478 92.8127C40.5631 92.8127 40.336 92.8878 40.0956 92.9674C39.7967 93.0663 39.458 93.1784 39.1065 93.1784L39.0798 93.1782C38.2324 93.1646 37.7509 92.7281 37.6486 91.881C37.5943 91.4317 37.7434 90.9454 37.8876 90.4751C38.0544 89.9312 38.2268 89.3688 38.0979 88.8528C37.8256 87.7626 37.6691 86.3603 37.7085 85.3634C37.7356 84.6792 37.523 83.7572 37.3355 82.9439C37.2452 82.5524 37.1599 82.1826 37.1019 81.8499C36.9806 81.1556 37.4886 79.9376 37.9368 78.863C38.1822 78.2746 38.414 77.7189 38.4607 77.4206C38.5617 76.7755 38.4463 73.2555 38.3843 71.3644L38.3752 71.0874C38.3236 70.7173 38.2718 70.3229 38.2206 69.9326C38.0812 68.8708 37.9495 67.868 37.8348 67.4386L37.7487 67.1179C37.4431 65.9823 36.9838 64.2753 36.9829 63.6776C36.8771 63.4019 36.7228 62.9928 36.5649 62.5282C36.1839 62.0586 35.9068 61.0268 35.7414 59.4602C35.4799 56.9841 35.7685 53.5067 36.068 52.0496C36.2187 51.3166 36.4544 50.4292 36.6624 49.6463C36.861 48.8987 37.0486 48.1927 37.1221 47.7704C37.1979 47.336 37.2148 47.0903 37.225 46.9435C37.2316 46.8479 37.236 46.7843 37.2548 46.7336C37.2295 46.5986 37.2022 46.4458 37.173 46.2816C37.0293 45.4761 36.8327 44.3728 36.5767 43.8023C36.2395 43.0508 35.7967 40.8111 35.6077 39.8546L35.6012 39.8222C35.541 39.5174 35.4858 39.0066 35.4371 38.304C35.3449 37.5479 35.3165 36.6385 35.2977 36.0368L35.2944 35.9329C35.2853 35.6472 35.2854 35.0758 35.3458 34.8629C35.3379 34.6833 35.3077 34.5179 35.2224 34.1806C35.1335 33.8289 35.0739 33.4488 35.0049 33.0087C34.9713 32.7947 34.9355 32.5662 34.8929 32.32C34.8489 32.1636 34.8203 32.0078 34.8085 31.8565C34.7286 31.4462 34.6689 31.2524 34.6163 31.0812C34.5541 30.879 34.5 30.7029 34.4336 30.2626C34.3463 30.1421 34.2935 29.6902 34.1415 27.9965C34.0812 27.3247 34.0188 26.63 33.9564 26.1096C33.923 25.8313 33.9031 25.4741 33.8973 25.0477C33.8382 24.9257 33.759 24.8016 33.6754 24.6707C33.5817 24.5238 33.485 24.3723 33.397 24.1966C33.0435 23.8658 32.69 22.0393 32.6326 21.5415C32.5032 20.4192 31.6819 15.4697 31.2073 13.8917C30.6655 12.0905 31.0365 8.46044 31.0806 8.05244C31.0955 7.9138 31.1093 7.77657 31.1228 7.64178C31.1805 7.06536 31.2351 6.51971 31.3665 6.10027C31.2286 5.84267 30.5884 5.72719 30.2776 5.72719H30.1153C29.8069 5.72719 29.1741 5.84096 29.0271 6.10242C29.1581 6.52179 29.2127 7.0671 29.2703 7.64293C29.2837 7.77738 29.2975 7.91422 29.3124 8.05245C29.3565 8.46046 29.7275 12.0908 29.1856 13.8917C28.7111 15.4697 27.8897 20.4192 27.7603 21.5415C27.7029 22.0393 27.3494 23.8658 26.9961 24.1966C26.908 24.3723 26.8113 24.5237 26.7177 24.6704C26.6341 24.8014 26.5548 24.9256 26.4957 25.0477C26.4899 25.4736 26.47 25.8307 26.4366 26.1096C26.3742 26.6301 26.3118 27.325 26.2515 27.997C26.0995 29.6904 26.0467 30.1422 25.9594 30.2627C25.893 30.7029 25.8388 30.879 25.7766 31.0812C25.7241 31.2523 25.6645 31.4461 25.5845 31.8565C25.5727 32.0076 25.5441 32.1637 25.497 32.3332C25.4575 32.5659 25.4218 32.7941 25.3882 33.008C25.3192 33.4484 25.2596 33.8287 25.1706 34.1807C25.0995 34.4617 25.068 34.6185 25.0542 34.7623C25.088 34.9083 25.0922 35.2025 25.0964 35.6885L25.0987 35.9271C25.1056 36.5692 25.0694 37.6191 24.944 38.4651C24.8989 39.0812 24.8473 39.5412 24.7917 39.8221L24.7859 39.8513C24.5968 40.8084 24.1539 43.0499 23.8162 43.8024C23.5602 44.3729 23.3635 45.4765 23.2199 46.2823C23.1907 46.4462 23.1635 46.5989 23.1383 46.7336C23.157 46.7842 23.1614 46.8479 23.168 46.9435C23.1781 47.0902 23.1951 47.3359 23.2709 47.7704C23.3445 48.1928 23.5321 48.8993 23.7308 49.6472C23.9387 50.4299 24.1744 51.3169 24.325 52.0496C24.6245 53.5069 24.9131 56.9843 24.6516 59.4602C24.5312 60.5999 24.2819 62.0709 23.7763 62.651C23.6173 63.126 23.4822 63.489 23.4101 63.6776C23.4092 64.2757 22.9495 65.984 22.6436 67.1203L22.5582 67.4386C22.4436 67.8677 22.312 68.8698 22.1727 69.9307C22.1214 70.3216 22.0695 70.7166 22.0178 71.0873L22.0086 71.3693C21.9466 73.2589 21.8314 76.776 21.9323 77.4206C21.979 77.7189 22.2108 78.2746 22.4561 78.8628C22.9044 79.9375 23.4124 81.1556 23.2911 81.8499C23.233 82.1826 23.1478 82.5524 23.0575 82.9439C22.87 83.7573 22.6574 84.6792 22.6844 85.3634C22.724 86.3602 22.5675 87.7625 22.2951 88.8528C22.1661 89.3689 22.3386 89.9313 22.5054 90.4753C22.6496 90.9455 22.7987 91.4318 22.7444 91.8811C22.6421 92.7282 22.1605 93.1646 21.3132 93.1783L21.2865 93.1785C20.9349 93.1785 20.5962 93.0664 20.2974 92.9674C20.0569 92.8879 19.8299 92.8127 19.6451 92.8127L19.6303 92.8129C19.4493 92.8169 19.2678 92.8977 19.0756 92.9832C18.8469 93.0849 18.5877 93.2003 18.2862 93.2003C18.2643 93.2003 18.2422 93.1996 18.2199 93.1984C17.8969 93.1805 17.7241 93.0789 17.5715 92.9894C17.4496 92.9178 17.3533 92.8613 17.1864 92.8534C17.1763 92.8529 17.1666 92.8526 17.1571 92.8526C16.9981 92.8526 16.903 92.9169 16.7825 92.9983C16.6517 93.0867 16.5035 93.1868 16.2663 93.1985C16.2481 93.1993 16.2306 93.1998 16.2139 93.1998C15.9595 93.1998 15.8341 93.1017 15.7235 93.0151C15.6452 92.954 15.5776 92.9011 15.4548 92.8695C15.4362 92.8647 15.418 92.8624 15.3993 92.8624C15.2916 92.8624 15.1793 92.9436 15.0603 93.0296C14.9169 93.1333 14.7686 93.2406 14.585 93.2406C14.5711 93.2406 14.557 93.2399 14.5429 93.2386C14.311 93.2168 14.1907 93.1196 14.0845 93.0339C14.0195 92.9814 13.9634 92.9362 13.8806 92.9063C13.8701 92.9025 13.8586 92.9007 13.8454 92.9007C13.7711 92.9007 13.6617 92.9574 13.5459 93.0176C13.3732 93.1073 13.1581 93.2189 12.9123 93.2189C12.3844 93.2189 12.1141 92.9565 11.9484 92.2829C11.782 91.6061 11.9283 90.5077 12.4613 89.8411C12.5989 89.6689 12.8179 89.4063 13.0715 89.1024C13.7197 88.3256 14.6075 87.2617 14.9899 86.6841C15.5234 85.8783 15.7397 84.4361 15.4265 83.7725C15.0263 82.9245 14.9423 82.1324 15.1769 81.4185L15.256 81.1796C15.4752 80.5201 15.7019 79.8382 15.7999 79.0091C15.8804 78.3275 15.8442 76.6747 15.7763 75.4223C15.7126 75.1407 15.6608 74.8442 15.6225 74.5407C15.4039 72.8086 14.4082 65.3075 13.8902 62.9824C13.4031 60.7957 12.6315 56.7881 12.5027 54.7093C12.3889 52.8745 12.5194 51.6794 12.5973 50.9653L12.6148 50.8041C12.6415 50.5523 12.7136 50.0655 12.7631 49.8386C12.86 49.3436 12.9958 48.8844 13.1156 48.4792C13.1857 48.2419 13.252 48.0176 13.3027 47.8125C13.3345 47.5636 13.4135 46.9963 13.4968 46.7995L13.5082 46.7416C13.5932 46.3099 13.6894 45.821 13.7386 45.3669C13.737 45.0803 13.7441 44.8113 13.7602 44.5454C13.6752 43.6107 13.6402 40.0807 13.7503 38.467C13.8223 37.4118 14.106 35.8521 14.3338 34.5987C14.4554 33.9297 14.5605 33.3519 14.5928 33.0615C14.6322 32.7062 14.6116 32.2035 14.5319 31.5669L14.5308 31.5641C13.5585 29.1696 12.5721 26.6621 12.1303 24.6406C11.9084 23.6258 11.8657 21.8474 11.8245 20.1276C11.7862 18.5334 11.7466 16.8849 11.5616 15.9496C11.188 14.0608 11.1352 10.7931 11.1897 9.17711C11.1702 8.81392 11.227 8.07591 11.2597 7.75196C11.2396 7.68919 11.2461 7.61039 11.2558 7.53261C11.2814 7.32801 11.3063 6.87698 11.3378 6.30601C11.4186 4.84502 11.5406 2.63713 11.8366 1.39751C12.2348 -0.269867 12.9896 -4.70602 12.9588 -6.11947C12.9276 -7.55586 13.6613 -10.6289 14.2029 -12.2951C14.3148 -12.7679 14.5139 -13.5071 14.6895 -14.1592C14.7846 -14.5128 14.8716 -14.8358 14.9315 -15.0677C14.968 -15.5135 15.0806 -15.9644 15.1749 -16.3084C15.3039 -16.7786 15.2154 -17.3442 15.113 -17.9992C15.0007 -18.7174 14.8609 -19.6113 14.9678 -20.6708C15.1452 -22.4279 15.3413 -23.3083 15.4745 -23.7374C15.5184 -23.8951 15.574 -24.0572 15.6329 -24.2288C15.7649 -24.6133 15.9013 -25.0108 15.9275 -25.4379C15.8642 -26.1059 15.8654 -26.8768 15.9302 -27.2827C15.935 -28.1524 15.9297 -29.1295 15.8551 -29.7991C15.8288 -29.9295 15.8038 -30.0851 15.7824 -30.2502C15.6506 -30.8552 15.3871 -31.472 15.1946 -31.9224C15.1314 -32.0703 15.0758 -32.2005 15.0314 -32.3138C14.8656 -32.4341 14.8006 -32.7819 14.6837 -33.4074C14.5997 -33.8565 14.4952 -34.4154 14.3237 -34.9903C13.9879 -36.116 13.3139 -39.0512 13.0645 -40.5892C13.0296 -40.6004 12.9963 -40.6064 12.9672 -40.6064C12.9381 -40.6064 12.9247 -40.6003 12.9213 -40.5985C12.9064 -40.5905 12.887 -40.5749 12.8681 -40.5319C12.9147 -40.2497 12.8125 -39.2944 12.7431 -38.7177C12.6687 -38.0989 12.2814 -36.8671 11.8331 -35.4408C11.0664 -33.002 10.1122 -29.9668 10.1879 -28.3571C10.2892 -26.2023 9.54136 -24.5881 9.1499 -24.268C9.07435 -23.882 9.01202 -23.4694 8.95162 -23.0698C8.89082 -22.6672 8.82789 -22.2508 8.75074 -21.8548C8.66243 -21.2406 8.47942 -20.5333 8.19249 -19.6993C7.90404 -18.8607 7.05415 -16.791 5.91879 -14.1621C5.76822 -13.6746 5.60097 -13.1399 5.42406 -12.5744C4.2834 -8.92802 2.72124 -3.93401 2.68196 -2.16096C2.67073 -1.65283 2.95534 -0.875252 3.4254 0.344833C3.94696 1.6987 3.85672 4.35755 2.66209 6.61845C2.15388 7.58034 1.70382 9.05082 1.26852 10.4729C0.845771 11.8543 0.446336 13.1591 0.0519505 13.7459C-0.182884 14.0953 -0.425952 14.2725 -0.670489 14.2725C-0.920539 14.2725 -1.10859 14.091 -1.23577 13.9047C-1.43353 14.9165 -1.89183 16.7305 -2.65355 16.8691C-2.70811 16.8791 -2.76179 16.8841 -2.8131 16.8841C-3.18827 16.8841 -3.46151 16.6246 -3.59893 16.1552C-3.83616 16.9643 -4.27073 18.049 -4.89536 18.049L-4.91556 18.0487C-5.79481 18.0165 -5.82074 16.8615 -5.78073 15.56C-5.85037 15.5989 -5.92924 15.619 -6.01529 15.619C-6.59114 15.619 -7.28322 14.7539 -7.41246 13.8723C-7.73228 11.6905 -7.52038 9.07677 -7.36567 7.16827C-7.28959 6.23046 -7.21124 5.2636 -7.2757 4.99017C-7.39425 5.09982 -7.54542 5.29572 -7.7182 5.51952C-8.04267 5.93982 -8.44642 6.46285 -8.92001 6.78881C-9.30428 7.05332 -9.76226 7.19308 -10.2445 7.19308C-11.0014 7.19308 -11.6675 6.85119 -11.8284 6.38015C-11.8892 6.20215 -11.924 5.85147 -11.4742 5.50323C-10.3021 4.59547 -8.05551 1.31644 -7.25691 -0.652031C-6.72438 -1.96468 -5.74345 -2.39974 -4.9553 -2.74937C-4.48477 -2.95808 -4.07842 -3.13828 -3.87815 -3.45479C-3.41526 -4.18635 -2.71416 -7.74898 -1.79436 -14.0436C-1.75735 -17.4598 -1.70279 -20.9365 -1.48411 -22.6434C-1.071 -25.868 0.28085 -29.786 1.46791 -31.1991C1.63775 -31.4012 1.78933 -31.585 1.92475 -31.7493C2.33587 -32.2478 2.59005 -32.556 2.78194 -32.6867C2.95226 -32.9149 3.09771 -33.3429 3.21453 -33.9595C2.94927 -37.9176 3.79908 -41.3022 4.48843 -42.4433L4.52517 -42.5036C4.60484 -42.7769 4.71596 -43.1248 4.83343 -43.4927L4.87469 -43.6222L4.89688 -43.7509C5.08076 -44.8182 4.944 -46.3202 4.78565 -48.0594C4.75096 -48.4405 4.71541 -48.831 4.68231 -49.2279C4.47452 -51.7226 4.78823 -53.7192 5.66956 -55.511C5.92053 -56.1206 6.39352 -56.9076 6.84505 -57.4649C8.84591 -60.9725 12.898 -62.4286 14.6248 -62.4286C14.7374 -62.4286 14.8391 -62.4218 14.9276 -62.4084C14.9696 -62.4106 15.0138 -62.4115 15.0603 -62.4115C15.2427 -62.4115 15.4598 -62.3963 15.6898 -62.3803C15.9692 -62.3608 16.2859 -62.3387 16.6095 -62.3386C16.759 -62.4639 17.0895 -62.5793 17.6912 -62.7825C18.1205 -62.9275 18.6549 -63.108 19.1892 -63.3312C20.434 -63.8509 21.9703 -64.8051 22.8422 -65.6C23.1112 -65.8453 23.2788 -65.9748 23.3978 -66.0277C23.4804 -66.1427 23.5682 -66.2573 23.659 -66.3758C24.0005 -66.8212 24.387 -67.3251 24.4924 -67.8429C24.4584 -68.1425 24.4465 -69.7888 24.5587 -70.8709C24.5461 -71.0441 24.5332 -71.1313 24.5247 -71.1742C24.5087 -71.2544 24.4954 -71.3358 24.4818 -71.4197C24.4192 -71.8038 24.3484 -72.239 23.9365 -72.8532C23.585 -73.3775 23.4875 -74.5959 23.4677 -75.5256C23.464 -75.7054 23.3175 -75.8516 23.1413 -75.8516C23.1183 -75.8516 23.0951 -75.8491 23.0722 -75.8441C22.9674 -75.8212 22.8577 -75.8091 22.7549 -75.8091C22.478 -75.8091 22.2492 -75.8932 22.0933 -76.0523C21.9324 -76.2163 21.8538 -76.4521 21.8595 -76.7531C21.8795 -77.805 21.6657 -78.4152 21.477 -78.9537C21.3819 -79.2252 21.2921 -79.4817 21.238 -79.7703C21.1419 -80.2832 21.0834 -80.9728 21.3503 -81.3455C21.4553 -81.4921 21.5993 -81.5794 21.7785 -81.605C21.8223 -81.6113 21.8675 -81.6144 21.9127 -81.6144C22.0613 -81.6144 22.2166 -81.5805 22.3744 -81.5135C22.396 -81.5044 22.4183 -81.4997 22.4405 -81.4997C22.4885 -81.4997 22.536 -81.5213 22.5708 -81.5588C22.6065 -81.5972 22.624 -81.6472 22.62 -81.6995C22.5044 -83.2383 22.3988 -87.0272 23.9118 -88.9685C25.7107 -91.2766 28.4774 -91.7442 29.5836 -91.8381C29.7266 -91.8502 29.8991 -91.8633 30.1375 -91.8633C30.3163 -91.8633 30.5101 -91.8556 30.7137 -91.8404C31.8401 -91.7567 34.6567 -91.3092 36.481 -88.9685C37.9939 -87.0272 37.8883 -83.2383 37.7727 -81.6994C37.7688 -81.6472 37.7862 -81.5972 37.8219 -81.5587C37.8567 -81.5212 37.9042 -81.4997 37.9522 -81.4997C37.9746 -81.4997 37.9968 -81.5044 38.0184 -81.5135C38.1762 -81.5805 38.3315 -81.6144 38.48 -81.6144C38.5252 -81.6144 38.5704 -81.6113 38.6143 -81.605C38.7934 -81.5794 38.9374 -81.4921 39.0424 -81.3455C39.3093 -80.9728 39.2508 -80.2832 39.1548 -79.7703C39.1007 -79.4817 39.0108 -79.2253 38.9157 -78.9538C38.7271 -78.4153 38.5133 -77.805 38.5333 -76.7531C38.539 -76.4521 38.4604 -76.2162 38.2995 -76.0522C38.1435 -75.8932 37.9147 -75.8091 37.6379 -75.8091C37.535 -75.8091 37.4253 -75.8212 37.3205 -75.8441C37.2976 -75.8491 37.2744 -75.8516 37.2514 -75.8516C37.0753 -75.8516 36.9288 -75.7054 36.925 -75.5256C36.9052 -74.5959 36.8078 -73.3775 36.4563 -72.8531C36.0445 -72.2391 35.9736 -71.8038 35.911 -71.4198C35.8974 -71.3359 35.8841 -71.2544 35.868 -71.1743C35.8594 -71.1309 35.8466 -71.0433 35.8341 -70.871C35.9463 -69.7885 35.9344 -68.1424 35.9004 -67.8429C36.0057 -67.3251 36.3922 -66.8212 36.7337 -66.3758C36.8259 -66.2556 36.915 -66.1393 36.9952 -66.0276C37.1142 -65.9746 37.2817 -65.8452 37.5506 -65.6C38.4224 -64.8052 39.9586 -63.851 41.2035 -63.3312C41.7378 -63.108 42.2722 -62.9275 42.7016 -62.7825C43.3033 -62.5793 43.6338 -62.4639 43.7833 -62.3386C44.1068 -62.3387 44.4235 -62.3608 44.703 -62.3803C44.9329 -62.3963 45.1501 -62.4115 45.3325 -62.4115C45.3789 -62.4115 45.4231 -62.4106 45.4651 -62.4084C45.5536 -62.4218 45.6553 -62.4286 45.7679 -62.4286C47.4947 -62.4286 51.5468 -60.9725 53.5477 -57.4649C53.9993 -56.9074 54.4723 -56.1204 54.7269 -55.5029C55.6045 -53.7193 55.9182 -51.7228 55.7104 -49.2279C55.6773 -48.8306 55.6418 -48.4399 55.607 -48.0584C55.4487 -46.3196 55.312 -44.818 55.4959 -43.7509L55.5253 -43.5803L55.5274 -43.5737C55.6457 -43.1936 55.7576 -42.8342 55.8365 -42.5549L55.9043 -42.4432C56.6012 -41.2898 57.4546 -37.8738 57.1739 -33.8858C57.287 -33.3039 57.431 -32.9026 57.6024 -32.6921C57.7958 -32.5644 58.053 -32.2525 58.4698 -31.747C58.6048 -31.5834 58.7558 -31.4004 58.9248 -31.1991C60.1119 -29.7861 61.4637 -25.8681 61.8768 -22.6435C62.0955 -20.9365 62.1501 -17.4599 62.1871 -14.0437C63.1069 -7.74903 63.808 -4.18633 64.271 -3.45484C64.4712 -3.13834 64.8776 -2.95813 65.348 -2.74941C66.1363 -2.39979 67.1171 -1.96474 67.6497 -0.652092C68.4483 1.31644 70.6949 4.59542 71.867 5.50318C72.3168 5.85146 72.282 6.20215 72.2212 6.38015C72.0603 6.85119 71.3942 7.19302 70.6373 7.19302C70.1551 7.19302 69.697 7.05325 69.3128 6.78881C68.8393 6.46285 68.4355 5.93982 68.1111 5.51965C67.9384 5.29578 67.7871 5.09989 67.6685 4.99017C67.6041 5.26366 67.6825 6.23033 67.7585 7.16782C67.9132 9.07644 68.1251 11.6904 67.8053 13.8722C67.6761 14.7538 66.984 15.6189 66.4081 15.6189C66.3221 15.6189 66.2432 15.5988 66.1736 15.56C66.2135 16.8614 66.1875 18.0164 65.3083 18.0486L65.2881 18.0489C64.6635 18.0489 64.2289 16.9642 63.9917 16.1552C63.8543 16.6245 63.5811 16.884 63.206 16.884C63.1546 16.884 63.1009 16.879 63.0464 16.8691C62.2843 16.7304 61.8262 14.9164 61.6285 13.9046C61.5014 14.0909 61.3134 14.2725 61.0633 14.2725C60.8188 14.2725 60.5756 14.0953 60.3408 13.7458C59.9464 13.159 59.547 11.8542 59.1242 10.4728C58.6889 9.05075 58.2389 7.58027 57.7307 6.61838C56.536 4.35749 56.4458 1.69863 56.9674 0.344765C57.4375 -0.875443 57.7221 -1.65302 57.7108 -2.16103C57.6715 -3.934 56.1094 -8.92789 54.9688 -12.5743C54.7919 -13.1398 54.6246 -13.6745 54.474 -14.1621C53.3387 -16.7912 52.4888 -18.8609 52.2003 -19.6994C51.9133 -20.5333 51.7304 -21.2406 51.6409 -21.8617C51.5649 -22.2508 51.502 -22.667 51.4413 -23.0693C51.3809 -23.4691 51.3186 -23.8819 51.2429 -24.2681C50.8514 -24.5883 50.1037 -26.2025 50.2049 -28.3572C50.2807 -29.9669 49.3265 -33.0021 48.5597 -35.441C48.1113 -36.8673 47.7241 -38.099 47.6497 -38.7178C47.5803 -39.2945 47.4782 -40.2498 47.5247 -40.5319C47.5059 -40.575 47.4865 -40.5906 47.4717 -40.5985C47.4682 -40.6004 47.4548 -40.6065 47.4256 -40.6065C47.3965 -40.6065 47.3631 -40.6005 47.3283 -40.5892C47.0791 -39.0518 46.405 -36.1165 46.0691 -34.9904C45.8976 -34.4154 45.7931 -33.8565 45.7092 -33.4074C45.5922 -32.7819 45.5271 -32.4342 45.3614 -32.3138C45.317 -32.2005 45.2614 -32.0704 45.1982 -31.9225C45.0058 -31.4722 44.7422 -30.8554 44.6086 -30.239C44.5891 -30.086 44.5641 -29.9304 44.536 -29.7879C44.4631 -29.1295 44.4578 -28.1525 44.4626 -27.2828C44.5274 -26.877 44.5286 -26.1059 44.4653 -25.438C44.4915 -25.0108 44.6279 -24.6134 44.7599 -24.2289C44.8188 -24.0574 44.8744 -23.8953 44.9194 -23.7338C45.0516 -23.3083 45.2476 -22.4278 45.425 -20.6708C45.5319 -19.6114 45.3921 -18.7176 45.2798 -17.9994C45.1774 -17.3444 45.0889 -16.7787 45.218 -16.3084C45.3123 -15.9647 45.4248 -15.5139 45.4612 -15.0679C45.5211 -14.8364 45.6078 -14.5142 45.7028 -14.1614C45.8786 -13.5085 46.0778 -12.7685 46.1928 -12.2845C46.7315 -10.6291 47.4651 -7.55607 47.434 -6.11956C47.4033 -4.70651 48.158 -0.270164 48.5562 1.39742C48.8521 2.63686 48.9742 4.84442 49.055 6.30521C49.0865 6.87659 49.1114 7.32788 49.137 7.53254C49.1468 7.61034 49.1533 7.68919 49.1331 7.75196C49.1659 8.07552 49.2226 8.81319 49.203 9.18861C49.2576 10.7926 49.2049 14.06 48.8312 15.9495C48.6461 16.8848 48.6066 18.5331 48.5684 20.1272C48.5271 21.8472 48.4844 23.6257 48.2625 24.6405C47.8208 26.6617 46.8343 29.1693 45.8619 31.5646L45.8609 31.5671C45.7811 32.2035 45.7607 32.7061 45.8001 33.0614C45.8323 33.3518 45.9373 33.9295 46.059 34.5985C46.2868 35.8519 46.5705 37.4117 46.6425 38.4669C46.753 40.0858 46.7174 43.631 46.6321 44.5483C46.6486 44.8051 46.6559 45.0772 46.6543 45.3669C46.7035 45.821 46.7997 46.3102 46.8847 46.7419L46.896 46.7994C46.9792 46.996 47.0583 47.5635 47.0902 47.8126C47.1408 48.0174 47.2071 48.2414 47.2772 48.4784C47.4348 49.0116 47.6135 49.6158 47.7052 50.2919C47.7349 50.4614 47.7617 50.65 47.778 50.8041L47.7955 50.9652C47.8735 51.6793 48.0039 52.8744 47.8901 54.7092C47.7614 56.7875 46.9898 60.7954 46.5026 62.9823C45.9839 65.3103 44.9888 72.8092 44.7703 74.5407C44.732 74.844 44.6803 75.1405 44.6166 75.4221C44.5486 76.6743 44.5123 78.3271 44.593 79.009C44.691 79.8386 44.9179 80.5208 45.1372 81.1805L45.216 81.4184C45.4505 82.1324 45.3665 82.9244 44.9663 83.7724C44.6531 84.436 44.8695 85.8783 45.403 86.684C45.7856 87.2619 46.6736 88.3262 47.3221 89.1033C47.5754 89.4068 47.7941 89.669 47.9316 89.841C48.4645 90.5076 48.6109 91.606 48.4444 92.2829C48.2787 92.9564 48.0085 93.2188 47.4805 93.2188C47.2347 93.2188 47.0197 93.1072 46.847 93.0175C46.7312 92.9574 46.6217 92.9006 46.5474 92.9006C46.5342 92.9006 46.5227 92.9024 46.5122 92.9062C46.4294 92.9361 46.3733 92.9814 46.3083 93.0338C46.2021 93.1195 46.0818 93.2168 45.8499 93.2385C45.8358 93.2398 45.822 93.2405 45.808 93.2405Z" fill="white" stroke="#28839F" stroke-width="0.7"/>
<path d="M39.75 18C38.7947 14.2959 37.552 10.5104 36.3536 7.11188C35.5823 5.95912 34.9471 4.70134 34.4712 3.37762L34.4701 3.37612C33.4463 2.62019 33.1625 1.23926 33.1625 1.23926L31.2852 1.92324L32.2043 6.23936C32.1253 6.23984 32.0535 6.27237 31.9881 6.33023C32.3677 7.01601 32.7016 7.72679 32.9532 8.47815C34.1585 12.0768 33.3419 16.0632 33.7175 19.8655C33.8825 21.5356 34.3725 23.3797 34.5455 25.0489C34.7968 27.4739 39.1933 33.9816 40.8498 35.9796C41.3305 33.3671 41.4616 28.9002 41.6471 27.7158C41.7399 27.1238 41.5396 26.412 41.75 24.5C41.5206 23.2754 40.0878 19.3099 39.75 18C39.8823 18.4994 39.6177 17.5006 39.75 18Z" fill="#28839F" fill-opacity="0.2"/>
<path d="M41.5141 22.7285C41.7947 20.1453 41.3735 15.3865 41.6264 12.9282C41.4339 12.6638 41.2315 12.4071 41.0172 12.1603C40.1592 11.1717 39.1412 10.3599 38.2294 9.42833C37.5377 8.72156 36.9104 7.94363 36.3535 7.11133C37.5519 10.5098 38.8585 14.425 39.8138 18.1291C40.2453 19.1215 40.9826 21.8737 41.5141 22.7285Z" fill="#28839F" stroke="white" stroke-width="0.3" stroke-linejoin="round"/>
<path d="M34.5111 19.9704C33.9746 16.1874 34.6212 12.17 33.2644 8.62567C32.9811 7.88566 32.6173 7.18969 32.209 6.52063C31.5593 7.14677 31.2502 11 31.2502 11C31.2502 11 32.8008 20.3111 33.2644 22.5C33.7279 24.6889 35.4748 30.9939 35.7502 32.9997C36.0256 35.0055 38.3918 42.5 38.3918 42.5L39.25 40.5C39.25 40.5 37.731 38.2064 37.5956 37.2514C37.4601 36.2965 37.2056 34.9047 38.3919 34.0803C39.4334 33.3565 40.595 38.978 40.595 38.978C40.595 38.978 42.0004 38.0478 42.3207 35.7673C40.5809 33.8414 36.2227 27.1875 35.8687 24.7754C35.625 23.115 34.7468 21.632 34.5111 19.9704Z" fill="#D4E6EC" stroke="white" stroke-width="0.3" stroke-linejoin="round"/>
<path d="M46.0934 -0.653859C46.0355 -0.693482 45.9728 -0.725825 45.9075 -0.751571C45.8825 -0.76163 45.8571 -0.770463 45.8314 -0.778456C45.768 -0.798261 45.7032 -0.812011 45.6383 -0.820645C44.8958 -0.918898 42.7125 -0.785081 42.0764 -1.18214C42.0715 -1.18518 42.0678 -1.1878 42.0631 -1.19077C42.0949 -1.35857 42.1123 -1.53063 42.1123 -1.70629C42.1123 -3.43745 40.5059 -4.84082 38.5244 -4.84082C36.5429 -4.84082 34.9365 -3.43745 34.9365 -1.70629C34.9365 0.0248666 36.5429 1.42824 38.5244 1.42824C39.1186 1.42824 39.6786 1.30126 40.1722 1.07785C40.1808 1.08377 40.1901 1.08997 40.1977 1.09542C40.6938 1.44955 42.2307 2.76987 42.3534 3.40131C42.3614 3.4385 42.3668 3.46907 42.3705 3.49651C42.3721 3.50754 42.3733 3.51811 42.3745 3.52846C42.3772 3.55516 42.3785 3.58025 42.3794 3.60765C42.3889 3.76111 42.3948 3.82843 42.3987 3.95259C42.4005 3.99224 42.4023 4.03188 42.4043 4.07154C42.4105 4.18138 42.4193 4.29123 42.4216 4.40137C42.4579 6.15156 42.2451 7.91533 41.8747 9.62016C40.5279 15.8182 41.1658 35.6152 39.4053 38.4589C38.6503 39.6786 38.2174 40.2179 37.5175 41.573C37.3346 41.9273 37.2114 42.354 37.1792 42.7794C37.1507 43.1595 37.1947 43.5384 37.3342 43.8639C37.4113 44.0439 37.5176 44.2077 37.6567 44.3459C37.8605 44.5466 38.0873 44.6724 38.3247 44.7432C38.6335 44.8354 38.9599 44.8341 39.2752 44.7829C39.6053 44.7292 39.9248 44.5907 40.2432 44.4552C40.6678 44.2746 40.8063 43.9614 41.25 44C41.6719 44.0367 41.3408 44.3752 41.7245 44.5855C41.9915 44.7321 42.2582 44.8834 42.5365 44.9874C42.583 45.0047 42.6303 45.0209 42.6782 45.0358C42.8657 45.0935 43.0624 45.1302 43.2578 45.1355C43.4886 45.1417 43.7173 45.1037 43.9257 45.0044C44.0941 44.917 44.2336 44.7927 44.3475 44.6421C44.5536 44.3701 44.677 44.0119 44.7416 43.6292C44.8138 43.2009 44.8123 42.7416 44.7702 42.3377C44.6426 41.1121 43.7924 40.0149 43.8886 38.7979C44.147 35.5274 43.4948 16.0406 44.7732 9.87206C45.145 8.0777 45.7087 6.31816 46.4381 4.65479C46.6048 4.27436 47.059 4.04977 47.2982 3.72794C47.3806 3.61706 47.4374 3.49456 47.4484 3.35036C47.5554 1.93496 47.2115 0.107005 46.0934 -0.653859Z" fill="white" stroke="#28839F" stroke-width="0.3" stroke-linejoin="round"/>
<path d="M43.8901 -15.0648C43.4533 -17.0271 40.8257 -18.1863 37.8432 -17.6688C36.8195 -17.4914 35.4901 -16.5556 34.7217 -15.8726C34.6626 -15.82 34.6054 -15.7683 34.55 -15.7174C34.1752 -15.3734 33.8879 -15.0747 33.7353 -14.9231V-13.0167C33.7353 -12.5954 33.9747 -10.7939 34.0708 -9.70486C34.0736 -9.67409 34.0761 -9.64435 34.0788 -9.61513C34.0981 -9.3854 34.1101 -9.20891 34.1101 -9.11514C34.2847 -9.11514 34.4348 -9.11683 34.564 -9.11527C34.5831 -9.11514 34.6019 -9.11489 34.6199 -9.11449C34.857 -9.10981 35.284 -8.94891 35.3998 -8.88021C35.7866 -8.65099 35.9937 -8.224 36.1089 -7.6713C36.1521 -7.46363 36.1371 -7.22247 36.1512 -6.99677C36.126 -6.95755 36.1101 -6.92898 36.0759 -6.87977C35.7733 -6.44381 35.1634 -5.67033 34.9955 -5.53306C34.7994 -5.37267 34.2815 -4.95515 34.0421 -4.65036C33.9608 -4.54712 33.9115 -4.45686 33.9174 -4.39387C33.9174 -4.3731 33.919 -4.34946 33.9219 -4.32349C33.9253 -4.29414 33.9303 -4.26154 33.9368 -4.22622C33.9831 -3.97351 34.1009 -3.58364 34.1634 -3.20157C34.2133 -2.89795 34.2678 -2.54172 34.3076 -2.16783C34.3114 -2.13134 34.3099 -2.09329 34.3135 -2.05641C34.0503 -1.73149 33.783 -1.43046 33.5483 -1.25423C33.232 -1.01658 32.7776 -0.818659 32.2886 -0.661007C31.6102 -0.442316 31.0678 -0.298029 30.5115 -0.237646C30.4956 -0.236094 30.48 -0.234396 30.4643 -0.232843C30.2608 -0.212711 30.0556 -0.202198 29.8401 -0.205702C29.8199 -0.205959 29.7546 -0.206614 29.7342 -0.206999C29.7335 -0.183105 29.7409 -0.164013 29.7388 -0.140375C29.7385 -0.137911 29.7394 -0.125956 29.7396 -0.119474C29.6581 0.0296154 29.7068 0.577646 29.6508 0.805428C29.6365 0.863743 29.615 0.899189 29.5815 0.899189C29.861 1.19113 29.7782 1.05841 30.0273 1.31372C30.1725 1.46268 30.6142 1.65449 30.8239 1.91864C31.0754 2.2359 31.5327 2.91615 31.984 2.92991C32.3322 2.94055 32.9583 2.95848 33.2026 2.93017C33.8434 2.85562 35.5683 1.92344 36.3315 0.407255C36.5711 -0.0687084 36.6355 -0.632198 36.6329 -1.22126C36.8984 -1.55657 37.1881 -1.88994 37.5737 -2.1437C38.4011 -2.68796 39.4018 -2.64914 39.8764 -3.2247C40.6325 -4.14155 40.1416 -6.32331 40.8544 -7.18821C41.191 -7.59664 41.6343 -7.96896 42.0216 -8.33362C42.2606 -8.55919 42.4783 -8.78166 42.6361 -9.00814C44.0968 -11.1043 44.365 -12.9312 43.8901 -15.0648ZM33.1089 1.39544C32.9583 1.45206 32.4802 1.4657 32.26 1.43583C31.9747 1.39714 31.6909 1.2448 31.6533 0.991175C31.6253 0.802605 31.64 0.686897 31.873 0.542223C31.8793 0.538334 31.8715 0.529245 31.8767 0.524956C32.2004 0.471056 32.5558 0.40613 33.0032 0.317295C33.3193 0.254576 33.719 0.238987 34.1236 0.213797C33.873 0.857672 33.4803 1.2561 33.1089 1.39544Z" fill="white" stroke="#28839F" stroke-width="0.3" stroke-linejoin="round"/>
<path d="M20.25 18C21.2053 14.2959 22.448 10.5104 23.6464 7.11188C24.4177 5.95912 25.0529 4.70134 25.5288 3.37762L25.5299 3.37612C26.5537 2.62019 26.8375 1.23926 26.8375 1.23926L28.7148 1.92324L27.7957 6.23936C27.8747 6.23984 27.9465 6.27237 28.0119 6.33023C27.6323 7.01601 27.2984 7.72679 27.0468 8.47815C25.8415 12.0768 26.6581 16.0632 26.2825 19.8655C26.1175 21.5356 25.6275 23.3797 25.4545 25.0489C25.2032 27.4739 20.8067 33.9816 19.1502 35.9796C18.6695 33.3671 18.5384 28.9002 18.3529 27.7158C18.2601 27.1238 18.4604 26.412 18.25 24.5C18.4794 23.2754 19.9122 19.3099 20.25 18C20.1177 18.4994 20.3823 17.5006 20.25 18Z" fill="#28839F" fill-opacity="0.2"/>
<path d="M18.4859 22.7285C18.2053 20.1453 18.6265 15.3865 18.3736 12.9282C18.5661 12.6638 18.7685 12.4071 18.9828 12.1603C19.8408 11.1717 20.8588 10.3599 21.7706 9.42833C22.4623 8.72156 23.0896 7.94363 23.6465 7.11133C22.4481 10.5098 21.1415 14.425 20.1862 18.1291C19.7547 19.1215 19.0174 21.8737 18.4859 22.7285Z" fill="#28839F" stroke="white" stroke-width="0.3" stroke-linejoin="round"/>
<path d="M25.4889 19.9704C26.0254 16.1874 25.3788 12.17 26.7356 8.62567C27.0189 7.88566 27.3827 7.18969 27.791 6.52063C28.4407 7.14677 28.7498 11 28.7498 11C28.7498 11 27.1992 20.3111 26.7356 22.5C26.2721 24.6889 24.5252 30.9939 24.2498 32.9997C23.9744 35.0055 21.6082 42.5 21.6082 42.5L20.75 40.5C20.75 40.5 22.269 38.2064 22.4044 37.2514C22.5399 36.2965 22.7944 34.9047 21.6081 34.0803C20.5666 33.3565 19.405 38.978 19.405 38.978C19.405 38.978 17.9996 38.0478 17.6793 35.7673C19.4191 33.8414 23.7773 27.1875 24.1313 24.7754C24.375 23.115 25.2532 21.632 25.4889 19.9704Z" fill="#D4E6EC" stroke="white" stroke-width="0.3" stroke-linejoin="round"/>
<path d="M13.9066 -0.653859C13.9645 -0.693482 14.0272 -0.725825 14.0925 -0.751571C14.1175 -0.76163 14.1429 -0.770463 14.1686 -0.778456C14.232 -0.798261 14.2968 -0.812011 14.3617 -0.820645C15.1042 -0.918898 17.2875 -0.785081 17.9236 -1.18214C17.9285 -1.18518 17.9322 -1.1878 17.9369 -1.19077C17.9051 -1.35857 17.8877 -1.53063 17.8877 -1.70629C17.8877 -3.43745 19.4941 -4.84082 21.4756 -4.84082C23.4571 -4.84082 25.0635 -3.43745 25.0635 -1.70629C25.0635 0.0248666 23.4571 1.42824 21.4756 1.42824C20.8814 1.42824 20.3214 1.30126 19.8278 1.07785C19.8192 1.08377 19.8099 1.08997 19.8023 1.09542C19.3062 1.44955 17.7693 2.76987 17.6466 3.40131C17.6386 3.4385 17.6332 3.46907 17.6295 3.49651C17.6279 3.50754 17.6267 3.51811 17.6255 3.52846C17.6228 3.55516 17.6215 3.58025 17.6206 3.60765C17.6111 3.76111 17.6052 3.82843 17.6013 3.95259C17.5995 3.99224 17.5977 4.03188 17.5957 4.07154C17.5895 4.18138 17.5807 4.29123 17.5784 4.40137C17.5421 6.15156 17.7549 7.91533 18.1253 9.62016C19.4721 15.8182 18.8342 35.6152 20.5947 38.4589C21.3497 39.6786 21.7826 40.2179 22.4825 41.573C22.6654 41.9273 22.7886 42.354 22.8208 42.7794C22.8493 43.1595 22.8053 43.5384 22.6658 43.8639C22.5887 44.0439 22.4824 44.2077 22.3433 44.3459C22.1395 44.5466 21.9127 44.6724 21.6753 44.7432C21.3665 44.8354 21.0401 44.8341 20.7248 44.7829C20.3947 44.7292 20.0752 44.5907 19.7568 44.4552C19.3322 44.2746 19.1937 43.9614 18.75 44C18.3281 44.0367 18.6592 44.3752 18.2755 44.5855C18.0085 44.7321 17.7418 44.8834 17.4635 44.9874C17.417 45.0047 17.3697 45.0209 17.3218 45.0358C17.1343 45.0935 16.9376 45.1302 16.7422 45.1355C16.5114 45.1417 16.2827 45.1037 16.0743 45.0044C15.9059 44.917 15.7664 44.7927 15.6525 44.6421C15.4464 44.3701 15.323 44.0119 15.2584 43.6292C15.1862 43.2009 15.1877 42.7416 15.2298 42.3377C15.3574 41.1121 16.2076 40.0149 16.1114 38.7979C15.853 35.5274 16.5052 16.0406 15.2268 9.87206C14.855 8.0777 14.2913 6.31816 13.5619 4.65479C13.3952 4.27436 12.941 4.04977 12.7018 3.72794C12.6194 3.61706 12.5626 3.49456 12.5516 3.35036C12.4446 1.93496 12.7885 0.107005 13.9066 -0.653859Z" fill="white" stroke="#28839F" stroke-width="0.3" stroke-linejoin="round"/>
<path d="M16.1099 -15.0648C16.5467 -17.0271 19.1743 -18.1863 22.1568 -17.6688C23.1805 -17.4914 24.5099 -16.5556 25.2783 -15.8726C25.3374 -15.82 25.3946 -15.7683 25.45 -15.7174C25.8248 -15.3734 26.1121 -15.0747 26.2647 -14.9231V-13.0167C26.2647 -12.5954 26.0253 -10.7939 25.9292 -9.70486C25.9264 -9.67409 25.9239 -9.64435 25.9212 -9.61513C25.9019 -9.3854 25.8899 -9.20891 25.8899 -9.11514C25.7153 -9.11514 25.5652 -9.11683 25.436 -9.11527C25.4169 -9.11514 25.3981 -9.11489 25.3801 -9.11449C25.143 -9.10981 24.716 -8.94891 24.6002 -8.88021C24.2134 -8.65099 24.0063 -8.224 23.8911 -7.6713C23.8479 -7.46363 23.8629 -7.22247 23.8488 -6.99677C23.874 -6.95755 23.8899 -6.92898 23.9241 -6.87977C24.2267 -6.44381 24.8366 -5.67033 25.0045 -5.53306C25.2006 -5.37267 25.7185 -4.95515 25.9579 -4.65036C26.0392 -4.54712 26.0885 -4.45686 26.0826 -4.39387C26.0826 -4.3731 26.081 -4.34946 26.0781 -4.32349C26.0747 -4.29414 26.0697 -4.26154 26.0632 -4.22622C26.0169 -3.97351 25.8991 -3.58364 25.8366 -3.20157C25.7867 -2.89795 25.7322 -2.54172 25.6924 -2.16783C25.6886 -2.13134 25.6901 -2.09329 25.6865 -2.05641C25.9497 -1.73149 26.217 -1.43046 26.4517 -1.25423C26.768 -1.01658 27.2224 -0.818659 27.7114 -0.661007C28.3898 -0.442316 28.9322 -0.298029 29.4885 -0.237646C29.5044 -0.236094 29.52 -0.234396 29.5357 -0.232843C29.7392 -0.212711 29.9444 -0.202198 30.1599 -0.205702C30.1801 -0.205959 30.2454 -0.206614 30.2658 -0.206999C30.2665 -0.183105 30.2591 -0.164013 30.2612 -0.140375C30.2615 -0.137911 30.2606 -0.125956 30.2604 -0.119474C30.3419 0.0296154 30.2932 0.577646 30.3492 0.805428C30.3635 0.863743 30.385 0.899189 30.4185 0.899189C30.139 1.19113 30.2218 1.05841 29.9727 1.31372C29.8275 1.46268 29.3858 1.65449 29.1761 1.91864C28.9246 2.2359 28.4673 2.91615 28.016 2.92991C27.6678 2.94055 27.0417 2.95848 26.7974 2.93017C26.1566 2.85562 24.4317 1.92344 23.6685 0.407255C23.4289 -0.0687084 23.3645 -0.632198 23.3671 -1.22126C23.1016 -1.55657 22.8119 -1.88994 22.4263 -2.1437C21.5989 -2.68796 20.5982 -2.64914 20.1236 -3.2247C19.3675 -4.14155 19.8584 -6.32331 19.1456 -7.18821C18.809 -7.59664 18.3657 -7.96896 17.9784 -8.33362C17.7394 -8.55919 17.5217 -8.78166 17.3639 -9.00814C15.9032 -11.1043 15.635 -12.9312 16.1099 -15.0648ZM26.8911 1.39544C27.0417 1.45206 27.5198 1.4657 27.74 1.43583C28.0253 1.39714 28.3091 1.2448 28.3467 0.991175C28.3747 0.802605 28.36 0.686897 28.127 0.542223C28.1207 0.538334 28.1285 0.529245 28.1233 0.524956C27.7996 0.471056 27.4442 0.40613 26.9968 0.317295C26.6807 0.254576 26.281 0.238987 25.8764 0.213797C26.127 0.857672 26.5197 1.2561 26.8911 1.39544Z" fill="white" stroke="#28839F" stroke-width="0.3" stroke-linejoin="round"/>
</g>
</g>
<defs>
<clipPath id="clip0_4089_13875">
<rect width="61" height="48" fill="white"/>
</clipPath>
<clipPath id="clip1_4089_13875">
<rect width="42" height="85" fill="white" transform="translate(9 -23)"/>
</clipPath>
</defs>
</svg>
