<svg width="61" height="48" viewBox="0 0 61 48" fill="none" xmlns="http://www.w3.org/2000/svg">
<g clip-path="url(#clip0_4055_6924)">
<path d="M40.808 159.241C40.6244 159.241 40.4761 159.133 40.3327 159.03C40.2137 158.944 40.1014 158.862 39.9936 158.862C39.9749 158.862 39.9568 158.865 39.9381 158.869C39.8153 158.901 39.7477 158.954 39.6695 159.015C39.5589 159.102 39.4335 159.2 39.1792 159.2C39.1624 159.2 39.1449 159.199 39.1267 159.198C38.8895 159.187 38.7413 159.087 38.6105 158.998C38.49 158.917 38.3949 158.853 38.2359 158.853C38.2264 158.853 38.2166 158.853 38.2066 158.853C38.0397 158.861 37.9434 158.918 37.8215 158.989C37.6689 159.079 37.496 159.18 37.1731 159.198C37.1507 159.2 37.1286 159.2 37.1068 159.2C36.8053 159.2 36.5461 159.085 36.3174 158.983C36.1252 158.898 35.9437 158.817 35.7627 158.813L35.7478 158.813C35.5631 158.813 35.336 158.888 35.0956 158.967C34.7967 159.066 34.458 159.178 34.1065 159.178L34.0798 159.178C33.2324 159.165 32.7509 158.728 32.6486 157.881C32.5943 157.432 32.7434 156.945 32.8876 156.475C33.0544 155.931 33.2268 155.369 33.0979 154.853C32.8256 153.763 32.6691 152.36 32.7085 151.363C32.7356 150.679 32.523 149.757 32.3355 148.944C32.2452 148.552 32.1599 148.183 32.1019 147.85C31.9806 147.156 32.4886 145.938 32.9368 144.863C33.1822 144.275 33.414 143.719 33.4607 143.421C33.5617 142.775 33.4463 139.256 33.3843 137.364L33.3752 137.087C33.3236 136.717 33.2718 136.323 33.2206 135.933C33.0812 134.871 32.9495 133.868 32.8348 133.439L32.7487 133.118C32.4431 131.982 31.9838 130.275 31.9829 129.678C31.8771 129.402 31.7228 128.993 31.5649 128.528C31.1839 128.059 30.9068 127.027 30.7414 125.46C30.4799 122.984 30.7685 119.507 31.068 118.05C31.2187 117.317 31.4544 116.429 31.6624 115.646C31.861 114.899 32.0486 114.193 32.1221 113.77C32.1979 113.336 32.2148 113.09 32.225 112.944C32.2316 112.848 32.236 112.784 32.2548 112.734C32.2295 112.599 32.2022 112.446 32.173 112.282C32.0293 111.476 31.8327 110.373 31.5767 109.802C31.2395 109.051 30.7967 106.811 30.6077 105.855L30.6012 105.822C30.541 105.517 30.4858 105.007 30.4371 104.304C30.3449 103.548 30.3165 102.638 30.2977 102.037L30.2944 101.933C30.2853 101.647 30.2854 101.076 30.3458 100.863C30.3379 100.683 30.3077 100.518 30.2224 100.181C30.1335 99.8289 30.0739 99.4488 30.0049 99.0087C29.9713 98.7947 29.9355 98.5662 29.8929 98.32C29.8489 98.1636 29.8203 98.0078 29.8085 97.8565C29.7286 97.4462 29.6689 97.2524 29.6163 97.0812C29.5541 96.879 29.5 96.7029 29.4336 96.2626C29.3463 96.1421 29.2935 95.6902 29.1415 93.9965C29.0812 93.3247 29.0188 92.63 28.9564 92.1096C28.923 91.8313 28.9031 91.4741 28.8973 91.0477C28.8382 90.9257 28.759 90.8016 28.6754 90.6707C28.5817 90.5238 28.485 90.3723 28.397 90.1966C28.0435 89.8658 27.69 88.0393 27.6326 87.5415C27.5032 86.4192 26.6819 81.4697 26.2073 79.8917C25.6655 78.0905 26.0365 74.4604 26.0806 74.0524C26.0955 73.9138 26.1093 73.7766 26.1228 73.6418C26.1805 73.0654 26.2351 72.5197 26.3665 72.1003C26.2286 71.8427 25.5884 71.7272 25.2776 71.7272H25.1153C24.8069 71.7272 24.1741 71.841 24.0271 72.1024C24.1581 72.5218 24.2127 73.0671 24.2703 73.6429C24.2837 73.7774 24.2975 73.9142 24.3124 74.0525C24.3565 74.4605 24.7275 78.0908 24.1856 79.8917C23.7111 81.4697 22.8897 86.4192 22.7603 87.5415C22.7029 88.0393 22.3494 89.8658 21.9961 90.1966C21.908 90.3723 21.8113 90.5237 21.7177 90.6704C21.6341 90.8014 21.5548 90.9256 21.4957 91.0477C21.4899 91.4736 21.47 91.8307 21.4366 92.1096C21.3742 92.6301 21.3118 93.325 21.2515 93.997C21.0995 95.6904 21.0467 96.1422 20.9594 96.2627C20.893 96.7029 20.8388 96.879 20.7766 97.0812C20.7241 97.2523 20.6645 97.4461 20.5845 97.8565C20.5727 98.0076 20.5441 98.1637 20.497 98.3332C20.4575 98.5659 20.4218 98.7941 20.3882 99.008C20.3192 99.4484 20.2596 99.8287 20.1706 100.181C20.0995 100.462 20.068 100.619 20.0542 100.762C20.088 100.908 20.0922 101.203 20.0964 101.689L20.0987 101.927C20.1056 102.569 20.0694 103.619 19.944 104.465C19.8989 105.081 19.8473 105.541 19.7917 105.822L19.7859 105.851C19.5968 106.808 19.1539 109.05 18.8162 109.802C18.5602 110.373 18.3635 111.477 18.2199 112.282C18.1907 112.446 18.1635 112.599 18.1383 112.734C18.157 112.784 18.1614 112.848 18.168 112.943C18.1781 113.09 18.1951 113.336 18.2709 113.77C18.3445 114.193 18.5321 114.899 18.7308 115.647C18.9387 116.43 19.1744 117.317 19.325 118.05C19.6245 119.507 19.9131 122.984 19.6516 125.46C19.5312 126.6 19.2819 128.071 18.7763 128.651C18.6173 129.126 18.4822 129.489 18.4101 129.678C18.4092 130.276 17.9495 131.984 17.6436 133.12L17.5582 133.439C17.4436 133.868 17.312 134.87 17.1727 135.931C17.1214 136.322 17.0695 136.717 17.0178 137.087L17.0086 137.369C16.9466 139.259 16.8314 142.776 16.9323 143.421C16.979 143.719 17.2108 144.275 17.4561 144.863C17.9044 145.937 18.4124 147.156 18.2911 147.85C18.233 148.183 18.1478 148.552 18.0575 148.944C17.87 149.757 17.6574 150.679 17.6844 151.363C17.724 152.36 17.5675 153.763 17.2951 154.853C17.1661 155.369 17.3386 155.931 17.5054 156.475C17.6496 156.945 17.7987 157.432 17.7444 157.881C17.6421 158.728 17.1605 159.165 16.3132 159.178L16.2865 159.178C15.9349 159.178 15.5962 159.066 15.2974 158.967C15.0569 158.888 14.8299 158.813 14.6451 158.813L14.6303 158.813C14.4493 158.817 14.2678 158.898 14.0756 158.983C13.8469 159.085 13.5877 159.2 13.2862 159.2C13.2643 159.2 13.2422 159.2 13.2199 159.198C12.8969 159.18 12.7241 159.079 12.5715 158.989C12.4496 158.918 12.3533 158.861 12.1864 158.853C12.1763 158.853 12.1666 158.853 12.1571 158.853C11.9981 158.853 11.903 158.917 11.7825 158.998C11.6517 159.087 11.5035 159.187 11.2663 159.198C11.2481 159.199 11.2306 159.2 11.2139 159.2C10.9595 159.2 10.8341 159.102 10.7235 159.015C10.6452 158.954 10.5776 158.901 10.4548 158.869C10.4362 158.865 10.418 158.862 10.3993 158.862C10.2916 158.862 10.1793 158.944 10.0603 159.03C9.91692 159.133 9.7686 159.241 9.585 159.241C9.57105 159.241 9.55695 159.24 9.54287 159.239C9.31103 159.217 9.19068 159.12 9.08449 159.034C9.01951 158.981 8.96343 158.936 8.88056 158.906C8.87012 158.903 8.85857 158.901 8.84541 158.901C8.77112 158.901 8.66168 158.957 8.54585 159.018C8.37316 159.107 8.15812 159.219 7.91232 159.219C7.38438 159.219 7.11413 158.956 6.9484 158.283C6.78195 157.606 6.92828 156.508 7.46127 155.841C7.59888 155.669 7.8179 155.406 8.07154 155.102C8.71969 154.326 9.60745 153.262 9.98988 152.684C10.5234 151.878 10.7397 150.436 10.4265 149.773C10.0263 148.924 9.9423 148.132 10.1769 147.419L10.256 147.18C10.4752 146.52 10.7019 145.838 10.7999 145.009C10.8804 144.327 10.8442 142.675 10.7763 141.422C10.7126 141.141 10.6608 140.844 10.6225 140.541C10.4039 138.809 9.40823 131.308 8.8902 128.982C8.40306 126.796 7.63151 122.788 7.50266 120.709C7.38891 118.874 7.51935 117.679 7.59729 116.965L7.61476 116.804C7.64154 116.552 7.71364 116.065 7.76307 115.839C7.85995 115.344 7.99578 114.884 8.11558 114.479C8.18568 114.242 8.252 114.018 8.3027 113.812C8.33453 113.564 8.41355 112.996 8.49681 112.8L8.50817 112.742C8.59316 112.31 8.68937 111.821 8.73862 111.367C8.73696 111.08 8.74407 110.811 8.76022 110.545C8.67523 109.611 8.64015 106.081 8.75031 104.467C8.82235 103.412 9.10595 101.852 9.33381 100.599C9.45542 99.9297 9.56046 99.3519 9.59276 99.0615C9.63217 98.7062 9.61163 98.2035 9.53189 97.5669L9.53076 97.5641C8.55854 95.1696 7.57208 92.6621 7.13026 90.6406C6.90838 89.6258 6.86573 87.8474 6.82446 86.1276C6.78619 84.5334 6.74664 82.8849 6.56164 81.9496C6.18799 80.0608 6.13523 76.7931 6.18966 75.1771C6.17018 74.8139 6.227 74.0759 6.25969 73.752C6.23956 73.6892 6.24606 73.6104 6.25583 73.5326C6.28135 73.328 6.30627 72.877 6.33783 72.306C6.41863 70.845 6.54063 68.6371 6.8366 67.3975C7.23476 65.7301 7.98956 61.294 7.95879 59.8805C7.92763 58.4441 8.6613 55.3711 9.20293 53.7049C9.31484 53.2321 9.51385 52.4929 9.68948 51.8408C9.78463 51.4872 9.87162 51.1642 9.93155 50.9323C9.96797 50.4865 10.0806 50.0356 10.1749 49.6916C10.3039 49.2214 10.2154 48.6558 10.113 48.0008C10.0007 47.2826 9.86092 46.3887 9.96783 45.3292C10.1452 43.5721 10.3413 42.6917 10.4745 42.2626C10.5184 42.1049 10.574 41.9428 10.6329 41.7712C10.7649 41.3867 10.9013 40.9892 10.9275 40.5621C10.8642 39.8941 10.8654 39.1232 10.9302 38.7173C10.935 37.8476 10.9297 36.8705 10.8551 36.2009C10.8288 36.0705 10.8038 35.9149 10.7824 35.7498C10.6506 35.1448 10.3871 34.528 10.1946 34.0776C10.1314 33.9297 10.0758 33.7995 10.0314 33.6862C9.86563 33.5659 9.80065 33.2181 9.68369 32.5926C9.5997 32.1435 9.49517 31.5846 9.32374 31.0097C8.9879 29.884 8.3139 26.9488 8.06452 25.4108C8.02964 25.3996 7.99634 25.3936 7.96718 25.3936C7.93807 25.3936 7.92465 25.3997 7.92126 25.4015C7.90644 25.4095 7.88703 25.4251 7.8681 25.4681C7.91469 25.7503 7.81249 26.7056 7.74311 27.2823C7.66868 27.9011 7.28141 29.1329 6.83308 30.5592C6.06639 32.998 5.11217 36.0332 5.18785 37.6429C5.28918 39.7977 4.54136 41.4119 4.1499 41.732C4.07435 42.118 4.01202 42.5306 3.95162 42.9302C3.89082 43.3328 3.82789 43.7492 3.75074 44.1452C3.66243 44.7594 3.47942 45.4667 3.19249 46.3007C2.90404 47.1393 2.05415 49.209 0.918789 51.8379C0.768219 52.3254 0.600965 52.8601 0.424065 53.4256C-0.716604 57.072 -2.27876 62.066 -2.31804 63.839C-2.32927 64.3472 -2.04466 65.1247 -1.5746 66.3448C-1.05304 67.6987 -1.14328 70.3576 -2.33791 72.6184C-2.84612 73.5803 -3.29618 75.0508 -3.73148 76.4729C-4.15423 77.8543 -4.55366 79.1591 -4.94805 79.7459C-5.18288 80.0953 -5.42595 80.2725 -5.67049 80.2725C-5.92054 80.2725 -6.10859 80.091 -6.23577 79.9047C-6.43353 80.9165 -6.89183 82.7305 -7.65355 82.8691C-7.70811 82.8791 -7.76179 82.8841 -7.8131 82.8841C-8.18827 82.8841 -8.46151 82.6246 -8.59893 82.1552C-8.83616 82.9643 -9.27073 84.049 -9.89536 84.049L-9.91556 84.0487C-10.7948 84.0165 -10.8207 82.8615 -10.7807 81.56C-10.8504 81.5989 -10.9292 81.619 -11.0153 81.619C-11.5911 81.619 -12.2832 80.7539 -12.4125 79.8723C-12.7323 77.6905 -12.5204 75.0768 -12.3657 73.1683C-12.2896 72.2305 -12.2112 71.2636 -12.2757 70.9902C-12.3943 71.0998 -12.5454 71.2957 -12.7182 71.5195C-13.0427 71.9398 -13.4464 72.4629 -13.92 72.7888C-14.3043 73.0533 -14.7623 73.1931 -15.2445 73.1931C-16.0014 73.1931 -16.6675 72.8512 -16.8284 72.3801C-16.8892 72.2021 -16.924 71.8515 -16.4742 71.5032C-15.3021 70.5955 -13.0555 67.3164 -12.2569 65.348C-11.7244 64.0353 -10.7435 63.6003 -9.9553 63.2506C-9.48477 63.0419 -9.07842 62.8617 -8.87815 62.5452C-8.41526 61.8137 -7.71416 58.251 -6.79436 51.9564C-6.75735 48.5402 -6.70279 45.0635 -6.48411 43.3566C-6.071 40.132 -4.71915 36.214 -3.53209 34.8009C-3.36225 34.5988 -3.21067 34.415 -3.07525 34.2507C-2.66413 33.7522 -2.40995 33.444 -2.21806 33.3133C-2.04774 33.0851 -1.90229 32.6571 -1.78547 32.0405C-2.05073 28.0824 -1.20092 24.6978 -0.511572 23.5567L-0.474827 23.4964C-0.395161 23.2231 -0.284044 22.8752 -0.166573 22.5073L-0.125311 22.3778L-0.103115 22.2491C0.0807552 21.1818 -0.0560017 19.6798 -0.214354 17.9406C-0.249043 17.5595 -0.28459 17.169 -0.317686 16.7721C-0.52548 14.2774 -0.211767 12.2808 0.669558 10.489C0.920532 9.87936 1.39352 9.09241 1.84505 8.53514C3.84591 5.0275 7.898 3.57143 9.62483 3.57143C9.73739 3.57143 9.83913 3.57821 9.92758 3.59157C9.96957 3.58944 10.0138 3.58851 10.0603 3.58851C10.2427 3.58851 10.4598 3.60366 10.6898 3.61969C10.9692 3.63918 11.2859 3.66132 11.6095 3.66139C11.759 3.53605 12.0895 3.42068 12.6912 3.21747C13.1205 3.07246 13.6549 2.892 14.1892 2.66884C15.434 2.14907 16.9703 1.19489 17.8422 0.399969C18.1112 0.154673 18.2788 0.0251541 18.3978 -0.02771C18.4804 -0.142672 18.5682 -0.257305 18.659 -0.375809C19.0005 -0.821177 19.387 -1.32513 19.4924 -1.84291C19.4584 -2.14252 19.4465 -3.78876 19.5587 -4.87093C19.5461 -5.04408 19.5332 -5.13131 19.5247 -5.17421C19.5087 -5.2544 19.4954 -5.33578 19.4818 -5.4197C19.4192 -5.80376 19.3484 -6.23902 18.9365 -6.85316C18.585 -7.37746 18.4875 -8.59588 18.4677 -9.52565C18.464 -9.70538 18.3175 -9.8516 18.1413 -9.8516C18.1183 -9.8516 18.0951 -9.84907 18.0722 -9.84409C17.9674 -9.82121 17.8577 -9.80912 17.7549 -9.80912C17.478 -9.80912 17.2492 -9.89317 17.0933 -10.0523C16.9324 -10.2163 16.8538 -10.4521 16.8595 -10.7531C16.8795 -11.805 16.6657 -12.4152 16.477 -12.9537C16.3819 -13.2252 16.2921 -13.4817 16.238 -13.7703C16.1419 -14.2832 16.0834 -14.9728 16.3503 -15.3455C16.4553 -15.4921 16.5993 -15.5794 16.7785 -15.605C16.8223 -15.6113 16.8675 -15.6144 16.9127 -15.6144C17.0613 -15.6144 17.2166 -15.5805 17.3744 -15.5135C17.396 -15.5044 17.4183 -15.4997 17.4405 -15.4997C17.4885 -15.4997 17.536 -15.5213 17.5708 -15.5588C17.6065 -15.5972 17.624 -15.6472 17.62 -15.6995C17.5044 -17.2383 17.3988 -21.0272 18.9118 -22.9685C20.7107 -25.2766 23.4774 -25.7442 24.5836 -25.8381C24.7266 -25.8502 24.8991 -25.8633 25.1375 -25.8633C25.3163 -25.8633 25.5101 -25.8556 25.7137 -25.8404C26.8401 -25.7567 29.6567 -25.3092 31.481 -22.9685C32.9939 -21.0272 32.8883 -17.2383 32.7727 -15.6994C32.7688 -15.6472 32.7862 -15.5972 32.8219 -15.5587C32.8567 -15.5212 32.9042 -15.4997 32.9522 -15.4997C32.9746 -15.4997 32.9968 -15.5044 33.0184 -15.5135C33.1762 -15.5805 33.3315 -15.6144 33.48 -15.6144C33.5252 -15.6144 33.5704 -15.6113 33.6143 -15.605C33.7934 -15.5794 33.9374 -15.4921 34.0424 -15.3455C34.3093 -14.9728 34.2508 -14.2832 34.1548 -13.7703C34.1007 -13.4817 34.0108 -13.2253 33.9157 -12.9538C33.7271 -12.4153 33.5133 -11.805 33.5333 -10.7531C33.539 -10.4521 33.4604 -10.2162 33.2995 -10.0522C33.1435 -9.89315 32.9147 -9.8091 32.6379 -9.8091C32.535 -9.8091 32.4253 -9.82121 32.3205 -9.84407C32.2976 -9.84906 32.2744 -9.85159 32.2514 -9.85159C32.0753 -9.85159 31.9288 -9.70538 31.925 -9.52563C31.9052 -8.59587 31.8078 -7.37751 31.4563 -6.85315C31.0445 -6.23908 30.9736 -5.80381 30.911 -5.41982C30.8974 -5.33591 30.8841 -5.25445 30.868 -5.17426C30.8594 -5.13091 30.8466 -5.04327 30.8341 -4.87098C30.9463 -3.78854 30.9344 -2.14244 30.9004 -1.84289C31.0057 -1.32512 31.3922 -0.821163 31.7337 -0.375793C31.8259 -0.255577 31.915 -0.139347 31.9952 -0.0276413C32.1142 0.0253601 32.2817 0.15481 32.5506 0.399969C33.4224 1.19483 34.9586 2.14901 36.2035 2.66884C36.7378 2.892 37.2722 3.07246 37.7016 3.21747C38.3033 3.42075 38.6338 3.53605 38.7833 3.66139C39.1068 3.66132 39.4235 3.63918 39.703 3.61969C39.9329 3.60366 40.1501 3.58851 40.3325 3.58851C40.3789 3.58851 40.4231 3.58943 40.4651 3.59157C40.5536 3.57821 40.6553 3.57143 40.7679 3.57143C42.4947 3.57143 46.5468 5.02749 48.5477 8.53507C48.9993 9.09255 49.4723 9.87955 49.7269 10.4971C50.6045 12.2807 50.9182 14.2772 50.7104 16.7721C50.6773 17.1694 50.6418 17.5601 50.607 17.9416C50.4487 19.6804 50.312 21.182 50.4959 22.2491L50.5253 22.4197L50.5274 22.4263C50.6457 22.8064 50.7576 23.1658 50.8365 23.4451L50.9043 23.5568C51.6012 24.7102 52.4546 28.1262 52.1739 32.1142C52.287 32.6961 52.431 33.0974 52.6024 33.3079C52.7958 33.4356 53.053 33.7475 53.4698 34.253C53.6048 34.4166 53.7558 34.5996 53.9248 34.8009C55.1119 36.2139 56.4637 40.1319 56.8768 43.3565C57.0955 45.0635 57.1501 48.5401 57.1871 51.9563C58.1069 58.251 58.808 61.8137 59.271 62.5452C59.4712 62.8617 59.8776 63.0419 60.348 63.2506C61.1363 63.6002 62.1171 64.0353 62.6497 65.3479C63.4483 67.3164 65.6949 70.5954 66.867 71.5032C67.3168 71.8515 67.282 72.2021 67.2212 72.3801C67.0603 72.8512 66.3942 73.193 65.6373 73.193C65.1551 73.193 64.697 73.0533 64.3128 72.7888C63.8393 72.4629 63.4355 71.9398 63.1111 71.5197C62.9384 71.2958 62.7871 71.0999 62.6685 70.9902C62.6041 71.2637 62.6825 72.2303 62.7585 73.1678C62.9132 75.0764 63.1251 77.6904 62.8053 79.8722C62.6761 80.7538 61.984 81.6189 61.4081 81.6189C61.3221 81.6189 61.2432 81.5988 61.1736 81.56C61.2135 82.8614 61.1875 84.0164 60.3083 84.0486L60.2881 84.0489C59.6635 84.0489 59.2289 82.9642 58.9917 82.1552C58.8543 82.6245 58.5811 82.884 58.206 82.884C58.1546 82.884 58.1009 82.879 58.0464 82.8691C57.2843 82.7304 56.8262 80.9164 56.6285 79.9046C56.5014 80.0909 56.3134 80.2725 56.0633 80.2725C55.8188 80.2725 55.5756 80.0953 55.3408 79.7458C54.9464 79.159 54.547 77.8542 54.1242 76.4728C53.6889 75.0508 53.2389 73.5803 52.7307 72.6184C51.536 70.3575 51.4458 67.6986 51.9674 66.3448C52.4375 65.1246 52.7221 64.347 52.7108 63.839C52.6715 62.066 51.1094 57.0721 49.9688 53.4257C49.7919 52.8602 49.6246 52.3255 49.474 51.8379C48.3387 49.2088 47.4888 47.1391 47.2003 46.3006C46.9133 45.4667 46.7304 44.7594 46.6409 44.1383C46.5649 43.7492 46.502 43.333 46.4413 42.9307C46.3809 42.5309 46.3186 42.1181 46.2429 41.7319C45.8514 41.4117 45.1037 39.7975 45.2049 37.6428C45.2807 36.0331 44.3265 32.9979 43.5597 30.559C43.1113 29.1327 42.7241 27.901 42.6497 27.2822C42.5803 26.7055 42.4782 25.7502 42.5247 25.4681C42.5059 25.425 42.4865 25.4094 42.4717 25.4015C42.4682 25.3996 42.4548 25.3935 42.4256 25.3935C42.3965 25.3935 42.3631 25.3995 42.3283 25.4108C42.0791 26.9482 41.405 29.8835 41.0691 31.0096C40.8976 31.5846 40.7931 32.1435 40.7092 32.5926C40.5922 33.2181 40.5271 33.5658 40.3614 33.6862C40.317 33.7995 40.2614 33.9296 40.1982 34.0775C40.0058 34.5278 39.7422 35.1446 39.6086 35.761C39.5891 35.914 39.5641 36.0696 39.536 36.2121C39.4631 36.8705 39.4578 37.8475 39.4626 38.7172C39.5274 39.123 39.5286 39.8941 39.4653 40.562C39.4915 40.9892 39.6279 41.3866 39.7599 41.7711C39.8188 41.9426 39.8744 42.1047 39.9194 42.2662C40.0516 42.6917 40.2476 43.5722 40.425 45.3292C40.5319 46.3886 40.3921 47.2824 40.2798 48.0006C40.1774 48.6556 40.0889 49.2213 40.218 49.6916C40.3123 50.0353 40.4248 50.4861 40.4612 50.9321C40.5211 51.1636 40.6078 51.4858 40.7028 51.8386C40.8786 52.4915 41.0778 53.2315 41.1928 53.7155C41.7315 55.3709 42.4651 58.4439 42.434 59.8804C42.4033 61.2935 43.158 65.7298 43.5562 67.3974C43.8521 68.6369 43.9742 70.8444 44.055 72.3052C44.0865 72.8766 44.1114 73.3279 44.137 73.5325C44.1468 73.6103 44.1533 73.6892 44.1331 73.752C44.1659 74.0755 44.2226 74.8132 44.203 75.1886C44.2576 76.7926 44.2049 80.06 43.8312 81.9495C43.6461 82.8848 43.6066 84.5331 43.5684 86.1272C43.5271 87.8472 43.4844 89.6257 43.2625 90.6405C42.8208 92.6617 41.8343 95.1693 40.8619 97.5646L40.8609 97.5671C40.7811 98.2035 40.7607 98.7061 40.8001 99.0614C40.8323 99.3518 40.9373 99.9295 41.059 100.598C41.2868 101.852 41.5705 103.412 41.6425 104.467C41.753 106.086 41.7174 109.631 41.6321 110.548C41.6486 110.805 41.6559 111.077 41.6543 111.367C41.7035 111.821 41.7997 112.31 41.8847 112.742L41.896 112.799C41.9792 112.996 42.0583 113.564 42.0902 113.813C42.1408 114.017 42.2071 114.241 42.2772 114.478C42.4348 115.012 42.6135 115.616 42.7052 116.292C42.7349 116.461 42.7617 116.65 42.778 116.804L42.7955 116.965C42.8735 117.679 43.0039 118.874 42.8901 120.709C42.7614 122.788 41.9898 126.795 41.5026 128.982C40.9839 131.31 39.9888 138.809 39.7703 140.541C39.732 140.844 39.6803 141.141 39.6166 141.422C39.5486 142.674 39.5123 144.327 39.593 145.009C39.691 145.839 39.9179 146.521 40.1372 147.181L40.216 147.418C40.4505 148.132 40.3665 148.924 39.9663 149.772C39.6531 150.436 39.8695 151.878 40.403 152.684C40.7856 153.262 41.6736 154.326 42.3221 155.103C42.5754 155.407 42.7941 155.669 42.9316 155.841C43.4645 156.508 43.6109 157.606 43.4444 158.283C43.2787 158.956 43.0085 159.219 42.4805 159.219C42.2347 159.219 42.0197 159.107 41.847 159.018C41.7312 158.957 41.6217 158.901 41.5474 158.901C41.5342 158.901 41.5227 158.902 41.5122 158.906C41.4294 158.936 41.3733 158.981 41.3083 159.034C41.2021 159.12 41.0818 159.217 40.8499 159.238C40.8358 159.24 40.822 159.241 40.808 159.241Z" fill="white" stroke="#28839F" stroke-width="0.504915"/>
<path d="M3.22533 18.6746C3.19625 18.6914 3.15966 18.6745 3.15387 18.6414C2.74092 16.2756 -0.315111 13.2191 1.70436 9.08696C3.74316 4.91536 8.61193 3.51468 9.92041 3.72782C11.161 3.9299 14.4256 6.07527 15.9541 6.53102C16.0037 6.54583 15.9974 6.61972 15.9458 6.62501C13.7579 6.84891 11.922 6.91489 9.75134 8.44245C7.49514 10.0302 7.94965 12.0406 7.46278 13.5935C6.97979 15.134 5.71346 17.2439 3.22533 18.6746Z" fill="#28839F" fill-opacity="0.2"/>
<path d="M0.791332 10.5479C0.471823 12.3748 0.866821 13.995 1.58251 15.8157C2.19954 17.3853 2.7997 18.3278 2.76927 19.0738C2.13024 19.6523 0.410965 21.7838 0.0305968 22.271C0.258818 20.9464 0.000167236 18.952 -0.182409 16.7596C-0.365 14.5672 -0.167195 12.4966 0.791332 10.5479Z" fill="#28839F" fill-opacity="0.2"/>
<path d="M7.5086 14.6895C6.85943 17.1051 4.11821 18.2724 1.8867 25.6716C1.24948 27.7846 0.461454 34.4714 0.48693 37.0801C0.496443 38.0548 1.26796 36.8162 1.26796 36.8162C1.26796 36.8162 6.79604 28.879 7.48578 24.9002C8.17552 20.9215 7.5086 14.6895 7.5086 14.6895Z" fill="#28839F"/>
<path d="M5.09234 18.0186C4.39816 18.8274 2.00879 23.2153 1.36113 25.845C0.795215 28.1427 -0.112485 33.5005 -0.178352 37.919C-0.179971 38.0275 -0.330649 38.0533 -0.369652 37.952C-2.80697 31.623 -1.32754 25.1695 -0.395168 23.6264C0.394868 22.3189 2.20151 19.5004 5.09234 18.0186Z" fill="#28839F"/>
<path d="M2.09023 36.6336C1.72888 37.2866 3.30742 38.7753 3.91603 41.5868C4.01998 42.0671 5.17379 40.2368 5.05207 37.6486C4.93035 35.0604 7.41038 28.9096 7.60817 27.2653C7.80596 25.621 7.72988 25.4688 7.72988 25.4688C5.39282 31.3802 4.17974 32.8579 2.09023 36.6336Z" fill="#28839F" fill-opacity="0.2"/>
<path d="M1.22784 37.7908C-0.58986 39.155 -0.942819 41.0895 -1.36883 42.5816C-1.79486 44.0736 -5.33993 57.0299 -5.65944 58.3849C-5.97895 59.74 -6.08545 61.3538 -5.59858 60.7296C-5.11169 60.1054 -0.653739 47.0881 0.700385 44.2563C2.05451 41.4245 2.72997 40.5127 2.47546 39.3539C2.27259 38.4302 1.8973 37.2884 1.22784 37.7908Z" fill="#28839F" fill-opacity="0.2"/>
<path d="M2.53635 41.5052C1.74081 42.8485 -2.67728 54.6594 -3.42789 57.5826C-4.17849 60.5058 -4.19878 61.6832 -3.71189 61.399C-3.22502 61.1148 2.21176 48.7319 3.0638 46.2553C3.91584 43.7788 3.72311 42.7638 3.4391 41.83C3.15509 40.8962 2.86093 40.9571 2.53635 41.5052Z" fill="#28839F" fill-opacity="0.2"/>
<path d="M21.5857 6.89431C19.7695 6.43484 15.9826 6.83797 14.3637 7.05671C11.5845 7.43226 9.49631 8.64144 8.76466 9.97988C8.11549 11.1674 7.64953 13.9552 8.15605 14.527C9.73841 16.3134 9.02838 21.429 14.6072 24.0273C16.4743 24.897 22.4581 24.342 23.371 23.2762C24.2838 22.2105 24.649 17.0036 24.3447 14.0195C24.0404 11.0355 23.3912 7.35106 21.5857 6.89431Z" fill="#28839F" fill-opacity="0.2"/>
<path d="M17.934 0.500114C17.0833 1.27567 15.53 2.25604 14.2418 2.79399C12.9536 3.33193 11.7162 3.60599 11.6452 3.82928C11.5742 4.05258 12.9841 4.50932 13.9578 4.86457C14.9316 5.21982 16.1995 5.48371 16.6356 5.25027C17.0718 5.01682 17.8021 2.7737 18.0151 2.1038C18.2281 1.43391 18.4716 0.642214 18.5628 0.276822C18.6541 -0.0885842 18.3904 0.0839679 17.934 0.500114Z" fill="#28839F" fill-opacity="0.2"/>
<path d="M18.8978 -0.13946C18.598 0.670308 18.0153 3.13387 17.6501 4.21484C17.285 5.2958 17.1633 5.69165 17.6197 5.88958C18.0762 6.0875 19.0651 5.49372 19.2021 5.06743C19.339 4.64114 19.339 -0.0633383 19.3238 -0.41352C19.3086 -0.763687 19.0499 -0.55054 18.8978 -0.13946Z" fill="#28839F" fill-opacity="0.2"/>
<path d="M19.6127 0.530127C19.6026 1.30152 19.5215 3.6969 19.7801 4.24499C20.0388 4.79309 21.1951 5.50865 21.5755 5.73702C21.9558 5.96541 22.443 6.10997 22.4579 5.73702C22.4681 5.48328 21.4671 4.06525 20.8299 2.45353C20.2822 1.06807 19.9063 -0.133589 19.9018 -0.139758C19.704 -0.413816 19.6192 0.0387154 19.6127 0.530127Z" fill="#28839F" fill-opacity="0.2"/>
<path d="M19.63 -1.84003C19.7565 -1.16054 20.6423 1.33428 21.3007 2.76041C21.6012 3.41128 22.5636 5.39085 22.9164 5.28521C23.2385 5.18878 21.9462 0.979453 21.5344 -0.485017C20.6097 -3.77359 20.3967 -5.98118 19.9343 -5.76803C19.5667 -5.59856 19.5819 -2.09885 19.63 -1.84003Z" fill="#28839F" fill-opacity="0.2"/>
<path d="M23.7968 24.3418C24.3531 25.3439 24.8162 27.1889 24.8314 28.3307C24.8466 29.4726 24.2989 29.6248 23.5838 29.975C22.8687 30.3252 19.5366 32.0557 18.6237 32.8373C17.6956 33.6318 17.1631 34.1314 16.9805 32.5632C16.7979 30.9951 16.5697 29.2747 16.8588 27.5999C17.1479 25.9252 17.437 25.2705 18.1977 25.0422C18.9585 24.8138 19.9094 24.8671 21.0885 24.6311C22.2505 24.3985 23.5686 23.9307 23.7968 24.3418Z" fill="#28839F" fill-opacity="0.2"/>
<path d="M23.6598 30.5919C19.4225 32.1829 17.5372 34.6776 17.1428 35.4156C16.6762 36.2885 16.9178 38.3947 17.0515 38.76C17.1833 39.1203 18.1894 39.1591 19.0801 38.9681C20.3582 38.6941 22.6708 38.3997 23.4924 38.2982C24.314 38.1967 24.8111 37.202 24.8516 36.2682C24.8922 35.3344 24.9226 32.391 24.8516 31.8023C24.7806 31.2136 24.4254 30.3044 23.6598 30.5919Z" fill="#28839F" fill-opacity="0.2"/>
<path d="M23.695 38.9285C22.485 38.7969 18.6741 39.5984 17.9945 39.9232C17.3149 40.248 16.7773 40.8976 16.757 41.7502C16.7368 42.6028 16.9802 44.2471 17.2033 44.7343C17.4265 45.2215 18.1771 45.668 19.232 45.7087C20.2869 45.7492 22.4778 45.9117 23.4516 45.7696C24.4253 45.6274 24.6586 44.6734 24.7297 43.5975C24.8007 42.5216 24.8514 41.0904 24.7499 40.1262C24.6485 39.162 24.1616 38.9793 23.695 38.9285Z" fill="#28839F" fill-opacity="0.2"/>
<path d="M15.134 24.5951C14.2695 24.4408 11.8802 23.0409 10.9956 22.4027C9.61854 21.4092 9.99213 26.0685 12.8214 26.016C13.9168 25.9957 14.7892 25.4299 15.2152 25.2091C15.6412 24.9884 15.5322 24.6661 15.134 24.5951Z" fill="#28839F" fill-opacity="0.2"/>
<path d="M10.8146 26.2951C10.9021 27.0563 11.0951 27.6085 11.4675 28.2832C11.8961 29.0597 14.5333 27.2124 14.7095 26.7785C14.8932 26.326 14.3002 25.9563 13.709 26.1276C12.9019 26.3614 11.8758 26.219 11.3319 25.8041C10.7816 25.3844 10.7711 25.917 10.8146 26.2951Z" fill="#28839F" fill-opacity="0.2"/>
<path d="M14.8502 27.164C14.4051 27.5497 13.5315 28.1333 12.6592 28.5393C11.8516 28.9152 11.9036 29.2853 12.1216 29.5695C12.3397 29.8537 13.704 30.6149 14.201 30.8382C14.698 31.0615 15.5196 30.8788 15.6768 30.4018C15.9427 29.595 15.7714 26.3655 14.8502 27.164Z" fill="#28839F" fill-opacity="0.2"/>
<path d="M11.0974 32.5742C11.28 33.1324 12.487 33.9546 13.2173 34.4215C13.9477 34.8884 14.9569 35.4314 15.2967 35.1624C15.6365 34.8934 15.6467 32.3255 15.3981 31.7622C15.1496 31.1989 14.5968 31.2953 13.9375 31.0821C13.2411 30.857 13.0617 30.4808 12.2943 30.4173C11.6806 30.3666 10.8436 31.7981 11.0974 32.5742Z" fill="#28839F" fill-opacity="0.2"/>
<path d="M12.1571 34.071C12.6004 34.3853 14.8653 35.5935 15.2609 35.8371C15.6565 36.0807 15.8543 36.9333 15.976 37.9229C16.0977 38.9125 16.0233 40.0801 15.6108 40.2371C14.5306 40.6482 11.7606 37.643 11.4039 37.2378C10.9551 36.7278 10.8638 35.3727 10.8334 34.7257C10.7931 33.8692 11.4267 33.5534 12.1571 34.071Z" fill="#28839F" fill-opacity="0.2"/>
<path d="M12.1114 38.4556C12.8721 39.2929 14.6751 40.4729 15.1087 40.8459C15.5423 41.2189 15.5727 42.6805 15.5651 43.358C15.5575 44.0355 14.8805 44.5607 14.424 44.4389C13.9676 44.3171 11.6473 42.0867 11.3354 41.6985C11.0235 41.3102 10.9474 39.3005 11.0768 38.6687C11.2061 38.0369 11.5901 37.8818 12.1114 38.4556Z" fill="#28839F" fill-opacity="0.2"/>
<path d="M23.0459 46.621C21.6259 46.6104 18.7756 46.4586 18.096 46.3571C17.4164 46.2556 16.8281 46.9864 16.9803 47.9405C17.1324 48.8946 17.7106 52.6906 18.9278 56.5273C20.145 60.3639 21.0376 62.739 22.2345 63.8149C23.4314 64.8908 23.7154 66.1494 24.3138 66.058C24.9123 65.9667 24.9148 63.5536 24.9224 62.602C24.929 61.7872 25.0036 48.9808 24.7931 48.5647C24.5733 48.13 24.1389 47.8529 23.884 47.5979C23.6118 47.3255 23.7255 46.626 23.0459 46.621Z" fill="#28839F" fill-opacity="0.2"/>
<path d="M11.645 42.4186C12.3103 43.174 13.8258 44.4993 14.4446 45.0575C15.0633 45.6158 15.8443 47.8995 16.0878 48.9957C16.3312 50.0919 16.2704 51.5129 15.9458 52.6497C15.6212 53.7865 16.0269 54.3549 15.824 55.2886C15.6212 56.2224 14.5257 56.872 14.0794 56.1818C13.6331 55.4916 11.9087 53.3399 10.8336 52.7309C9.75837 52.1219 10.0221 50.7618 10.3061 49.7265C10.5901 48.6912 9.90038 47.3514 10.1032 45.3417C10.3061 43.3321 10.5445 42.3907 10.6966 42.0481C10.8488 41.7055 11.1936 41.906 11.645 42.4186Z" fill="#28839F" fill-opacity="0.2"/>
<path d="M8.20225 16.6131C8.34443 19.2316 8.04028 23.8048 8.11505 24.7588C8.1962 25.794 9.04822 29.6104 9.45396 30.9705C9.85969 32.3306 9.89012 33.5841 10.164 33.5993C10.4379 33.6145 11.0566 30.463 11.1175 29.4277C11.1783 28.3924 10.1031 23.825 9.90026 22.201C9.69739 20.577 8.8479 17.2783 8.59686 16.6084C8.25141 15.6866 8.12056 15.1085 8.20225 16.6131Z" fill="#28839F" fill-opacity="0.2"/>
<path d="M22.9679 -4.03788C23.2482 -3.15455 23.599 -2.10432 23.7055 -1.02336C23.812 0.0576096 24.2228 -1.7846 24.2837 -2.53061C24.3446 -3.27664 24.2076 -3.48978 23.8272 -3.79427C23.4469 -4.09878 22.7848 -4.61474 22.9679 -4.03788Z" fill="#28839F" fill-opacity="0.2"/>
<path d="M47.1671 18.6746C47.1962 18.6914 47.2328 18.6745 47.2385 18.6414C47.6515 16.2756 50.7075 13.2191 48.688 9.08696C46.6493 4.91536 41.7805 3.51468 40.472 3.72782C39.2314 3.9299 35.9668 6.07527 34.4383 6.53102C34.3887 6.54583 34.395 6.61972 34.4466 6.62501C36.6345 6.84891 38.4704 6.91489 40.6411 8.44245C42.8973 10.0302 42.4428 12.0406 42.9296 13.5935C43.4126 15.134 44.6789 17.2439 47.1671 18.6746Z" fill="#28839F" fill-opacity="0.2"/>
<path d="M49.6016 10.5479C49.9211 12.3748 49.5261 13.995 48.8104 15.8157C48.1934 17.3853 47.5932 18.3278 47.6237 19.0738C48.2627 19.6523 49.982 21.7838 50.3623 22.271C50.1341 20.9464 50.3928 18.952 50.5754 16.7596C50.7579 14.5672 50.5601 12.4966 49.6016 10.5479Z" fill="#28839F" fill-opacity="0.2"/>
<path d="M42.8835 14.6895C43.5327 17.1051 46.2739 18.2724 48.5054 25.6716C49.1426 27.7846 49.9306 34.4714 49.9052 37.0801C49.8957 38.0548 49.1241 36.8162 49.1241 36.8162C49.1241 36.8162 43.5961 28.879 42.9063 24.9002C42.2166 20.9215 42.8835 14.6895 42.8835 14.6895Z" fill="#28839F"/>
<path d="M45.3003 18.0186C45.9945 18.8274 48.3838 23.2153 49.0315 25.845C49.5974 28.1427 50.5051 33.5005 50.571 37.919C50.5726 38.0275 50.7233 38.0533 50.7623 37.952C53.1996 31.623 51.7202 25.1695 50.7878 23.6264C49.9978 22.3189 48.1911 19.5004 45.3003 18.0186Z" fill="#28839F"/>
<path d="M48.303 36.6336C48.6643 37.2866 47.0858 38.7753 46.4772 41.5868C46.3732 42.0671 45.2194 40.2368 45.3411 37.6486C45.4628 35.0604 42.9828 28.9096 42.785 27.2653C42.5872 25.621 42.6633 25.4688 42.6633 25.4688C45.0004 31.3802 46.2134 32.8579 48.303 36.6336Z" fill="#28839F" fill-opacity="0.2"/>
<path d="M52.1982 33.7111C51.8062 35.7843 51.2244 38.8266 51.7113 40.8566C52.1982 42.8866 56.2961 57.6242 56.9047 59.4918C57.5133 61.3594 57.3915 59.4309 57.1887 57.7054C56.9858 55.9799 57.1481 46.5405 56.7424 43.3738C56.3366 40.207 54.9977 36.2891 53.8211 34.8884C52.6445 33.4877 52.3402 32.96 52.1982 33.7111Z" fill="#28839F" fill-opacity="0.2"/>
<path d="M49.1653 37.7908C50.983 39.155 51.3359 41.0895 51.7619 42.5816C52.188 44.0736 55.733 57.0299 56.0525 58.3849C56.3721 59.74 56.4786 61.3538 55.9917 60.7296C55.5048 60.1054 51.0468 47.0881 49.6927 44.2563C48.3386 41.4245 47.6631 40.5127 47.9177 39.3539C48.1205 38.4302 48.4958 37.2884 49.1653 37.7908Z" fill="#28839F" fill-opacity="0.2"/>
<path d="M47.8563 41.5052C48.6519 42.8485 53.07 54.6594 53.8206 57.5826C54.5712 60.5058 54.5915 61.6832 54.1046 61.399C53.6177 61.1148 48.1809 48.7319 47.3289 46.2553C46.4769 43.7788 46.6696 42.7638 46.9536 41.83C47.2376 40.8962 47.5318 40.9571 47.8563 41.5052Z" fill="#28839F" fill-opacity="0.2"/>
<path d="M28.8075 6.89431C30.6238 6.43484 34.4107 6.83797 36.0295 7.05671C38.8088 7.43226 40.897 8.64144 41.6286 9.97988C42.2778 11.1674 42.7437 13.9552 42.2372 14.527C40.6549 16.3134 41.3649 21.429 35.7861 24.0273C33.919 24.897 27.9352 24.342 27.0223 23.2762C26.1094 22.2105 25.7443 17.0036 26.0486 14.0195C26.3529 11.0355 27.002 7.35106 28.8075 6.89431Z" fill="#28839F" fill-opacity="0.2"/>
<path d="M32.4593 0.500114C33.31 1.27567 34.8633 2.25604 36.1515 2.79399C37.4397 3.33193 38.6772 3.60599 38.7482 3.82928C38.8192 4.05258 37.4093 4.50932 36.4355 4.86457C35.4617 5.21982 34.1938 5.48371 33.7577 5.25027C33.3215 5.01682 32.5912 2.7737 32.3782 2.1038C32.1652 1.43391 31.9218 0.642214 31.8305 0.276822C31.7392 -0.0885842 32.0029 0.0839679 32.4593 0.500114Z" fill="#28839F" fill-opacity="0.2"/>
<path d="M31.4957 -0.13946C31.7954 0.670308 32.3781 3.13387 32.7433 4.21484C33.1084 5.2958 33.2302 5.69165 32.7737 5.88958C32.3173 6.0875 31.3283 5.49372 31.1914 5.06743C31.0544 4.64114 31.0544 -0.0633383 31.0696 -0.41352C31.0849 -0.763687 31.3435 -0.55054 31.4957 -0.13946Z" fill="#28839F" fill-opacity="0.2"/>
<path d="M30.7803 0.530127C30.7905 1.30152 30.8716 3.6969 30.613 4.24499C30.3543 4.79309 29.198 5.50865 28.8176 5.73702C28.4372 5.96541 27.95 6.10997 27.9351 5.73702C27.925 5.48328 28.9259 4.06525 29.5631 2.45353C30.1109 1.06807 30.4868 -0.133589 30.4912 -0.139758C30.689 -0.413816 30.7739 0.0387154 30.7803 0.530127Z" fill="#28839F" fill-opacity="0.2"/>
<path d="M30.7627 -1.84003C30.6362 -1.16054 29.7505 1.33428 29.092 2.76041C28.7915 3.41128 27.8291 5.39085 27.4763 5.28521C27.1542 5.18878 28.4465 0.979453 28.8583 -0.485017C29.783 -3.77359 29.996 -5.98118 30.4584 -5.76803C30.826 -5.59856 30.8109 -2.09885 30.7627 -1.84003Z" fill="#28839F" fill-opacity="0.2"/>
<path d="M26.5964 24.3418C26.0401 25.3439 25.577 27.1889 25.5618 28.3307C25.5466 29.4726 26.0943 29.6248 26.8095 29.975C27.5245 30.3252 30.8566 32.0557 31.7695 32.8373C32.6976 33.6318 33.2301 34.1314 33.4127 32.5632C33.5953 30.9951 33.8235 29.2747 33.5344 27.5999C33.2453 25.9252 32.9563 25.2705 32.1955 25.0422C31.4348 24.8138 30.4838 24.8671 29.3047 24.6311C28.1427 24.3985 26.8247 23.9307 26.5964 24.3418Z" fill="#28839F" fill-opacity="0.2"/>
<path d="M26.733 30.5919C30.9703 32.1829 32.8555 34.6776 33.25 35.4156C33.7166 36.2885 33.475 38.3947 33.3413 38.76C33.2094 39.1203 32.2034 39.1591 31.3126 38.9681C30.0346 38.6941 27.7219 38.3997 26.9003 38.2982C26.0787 38.1967 25.5817 37.202 25.5411 36.2682C25.5006 35.3344 25.4701 32.391 25.5411 31.8023C25.6121 31.2136 25.9673 30.3044 26.733 30.5919Z" fill="#28839F" fill-opacity="0.2"/>
<path d="M26.6975 38.9285C27.9075 38.7969 31.7184 39.5984 32.398 39.9232C33.0776 40.248 33.6152 40.8976 33.6355 41.7502C33.6558 42.6028 33.4123 44.2471 33.1892 44.7343C32.966 45.2215 32.2154 45.668 31.1605 45.7087C30.1056 45.7492 27.9147 45.9117 26.9409 45.7696C25.9672 45.6274 25.7339 44.6734 25.6629 43.5975C25.5919 42.5216 25.5411 41.0904 25.6426 40.1262C25.744 39.162 26.2309 38.9793 26.6975 38.9285Z" fill="#28839F" fill-opacity="0.2"/>
<path d="M35.2585 24.5951C36.123 24.4408 38.5123 23.0409 39.3969 22.4027C40.774 21.4092 40.4004 26.0685 37.5711 26.016C36.4757 25.9957 35.6034 25.4299 35.1773 25.2091C34.7513 24.9884 34.8604 24.6661 35.2585 24.5951Z" fill="#28839F" fill-opacity="0.2"/>
<path d="M39.5784 26.2951C39.4909 27.0563 39.2978 27.6085 38.9254 28.2832C38.4968 29.0597 35.8596 27.2124 35.6834 26.7785C35.4997 26.326 36.0927 25.9563 36.6839 26.1276C37.491 26.3614 38.5171 26.219 39.061 25.8041C39.6113 25.3844 39.6218 25.917 39.5784 26.2951Z" fill="#28839F" fill-opacity="0.2"/>
<path d="M35.5429 27.164C35.988 27.5497 36.8615 28.1333 37.7338 28.5393C38.5415 28.9152 38.4895 29.2853 38.2714 29.5695C38.0533 29.8537 36.6891 30.6149 36.192 30.8382C35.695 31.0615 34.8734 30.8788 34.7162 30.4018C34.4503 29.595 34.6217 26.3655 35.5429 27.164Z" fill="#28839F" fill-opacity="0.2"/>
<path d="M39.2954 32.5742C39.1128 33.1324 37.9058 33.9546 37.1754 34.4215C36.4451 34.8884 35.4359 35.4314 35.0961 35.1624C34.7563 34.8934 34.7461 32.3255 34.9946 31.7622C35.2432 31.1989 35.796 31.2953 36.4553 31.0821C37.1517 30.857 37.3311 30.4808 38.0985 30.4173C38.7122 30.3666 39.5492 31.7981 39.2954 32.5742Z" fill="#28839F" fill-opacity="0.2"/>
<path d="M38.2352 34.071C37.7918 34.3853 35.527 35.5935 35.1314 35.8371C34.7358 36.0807 34.538 36.9333 34.4163 37.9229C34.2946 38.9125 34.369 40.0801 34.7814 40.2371C35.8617 40.6482 38.6317 37.643 38.9883 37.2378C39.4372 36.7278 39.5285 35.3727 39.5589 34.7257C39.5992 33.8692 38.9655 33.5534 38.2352 34.071Z" fill="#28839F" fill-opacity="0.2"/>
<path d="M38.2814 38.4556C37.5206 39.2929 35.7177 40.4729 35.284 40.8459C34.8504 41.2189 34.82 42.6805 34.8276 43.358C34.8352 44.0355 35.5123 44.5607 35.9687 44.4389C36.4251 44.3171 38.7454 42.0867 39.0573 41.6985C39.3692 41.3102 39.4453 39.3005 39.316 38.6687C39.1866 38.0369 38.8026 37.8818 38.2814 38.4556Z" fill="#28839F" fill-opacity="0.2"/>
<path d="M27.3468 46.621C28.7668 46.6104 31.6171 46.4586 32.2967 46.3571C32.9763 46.2556 33.5646 46.9864 33.4124 47.9405C33.2603 48.8946 32.6821 52.6906 31.4649 56.5273C30.2477 60.3639 29.3551 62.739 28.1582 63.8149C26.9613 64.8908 26.6773 66.1494 26.0788 66.058C25.4804 65.9667 25.4779 63.5536 25.4703 62.602C25.4637 61.7872 25.3891 48.9808 25.5996 48.5647C25.8194 48.13 26.2538 47.8529 26.5087 47.5979C26.7809 47.3255 26.6672 46.626 27.3468 46.621Z" fill="#28839F" fill-opacity="0.2"/>
<path d="M38.7478 42.4186C38.0825 43.174 36.567 44.4993 35.9482 45.0575C35.3295 45.6158 34.5485 47.8995 34.305 48.9957C34.0616 50.0919 34.1224 51.5129 34.447 52.6497C34.7716 53.7865 34.3659 54.3549 34.5687 55.2886C34.7716 56.2224 35.8671 56.872 36.3134 56.1818C36.7597 55.4916 38.484 53.3399 39.5592 52.7309C40.6344 52.1219 40.3707 50.7618 40.0867 49.7265C39.8027 48.6912 40.4924 47.3514 40.2895 45.3417C40.0867 43.3321 39.8483 42.3907 39.6962 42.0481C39.544 41.7055 39.1991 41.906 38.7478 42.4186Z" fill="#28839F" fill-opacity="0.2"/>
<path d="M42.1906 16.6131C42.0485 19.2316 42.3526 23.8048 42.2779 24.7588C42.1967 25.794 41.3447 29.6104 40.9389 30.9705C40.5332 32.3306 40.5028 33.5841 40.2289 33.5993C39.955 33.6145 39.3363 30.463 39.2754 29.4277C39.2146 28.3924 40.2898 23.825 40.4926 22.201C40.6955 20.577 41.545 17.2783 41.796 16.6084C42.1415 15.6866 42.2723 15.1085 42.1906 16.6131Z" fill="#28839F" fill-opacity="0.2"/>
<path d="M27.4254 -4.03788C27.1451 -3.15455 26.7943 -2.10432 26.6878 -1.02336C26.5812 0.0576096 26.1704 -1.7846 26.1096 -2.53061C26.0487 -3.27664 26.1857 -3.48978 26.566 -3.79427C26.9464 -4.09878 27.6085 -4.61474 27.4254 -4.03788Z" fill="#28839F" fill-opacity="0.2"/>
</g>
<defs>
<clipPath id="clip0_4055_6924">
<rect width="61" height="48" fill="white"/>
</clipPath>
</defs>
</svg>
