<svg width="61" height="48" viewBox="0 0 61 48" fill="none" xmlns="http://www.w3.org/2000/svg">
<g clip-path="url(#clip0_4055_8393)">
<path d="M12.5681 185.803C12.3027 185.803 12.0883 185.648 11.881 185.497C11.709 185.372 11.5466 185.254 11.3908 185.254C11.3638 185.254 11.3376 185.258 11.3106 185.265C11.1331 185.311 11.0354 185.387 10.9223 185.476C10.7624 185.602 10.5811 185.744 10.2135 185.744C10.1892 185.744 10.1638 185.743 10.1376 185.742C9.79475 185.725 9.58046 185.58 9.3914 185.452C9.21723 185.334 9.07967 185.24 8.84982 185.24C8.83608 185.24 8.82196 185.241 8.80746 185.241C8.56615 185.253 8.42696 185.335 8.25079 185.439C8.03023 185.569 7.78028 185.716 7.31344 185.742C7.28105 185.744 7.24916 185.745 7.21757 185.745C6.78175 185.745 6.40701 185.577 6.07646 185.43C5.79856 185.306 5.53612 185.188 5.27454 185.183L5.25302 185.182C4.98598 185.182 4.65763 185.291 4.31018 185.407C3.8781 185.55 3.38847 185.713 2.88031 185.713L2.84169 185.713C1.61672 185.693 0.920685 185.06 0.772736 183.83C0.69426 183.178 0.909821 182.473 1.11826 181.79C1.35938 181.001 1.60866 180.185 1.42229 179.436C1.02863 177.854 0.802307 175.819 0.859383 174.373C0.898476 173.38 0.591179 172.042 0.320099 170.862C0.189545 170.294 0.0663071 169.757 -0.0176544 169.274C-0.192963 168.267 0.54142 166.499 1.18935 164.94C1.54411 164.086 1.87916 163.28 1.9467 162.847C2.09271 161.911 1.92584 156.803 1.83623 154.059L1.82307 153.657C1.74853 153.12 1.6736 152.547 1.59955 151.981C1.39812 150.44 1.20771 148.985 1.0419 148.362L0.917412 147.897C0.475624 146.249 -0.188339 143.772 -0.189598 142.904C-0.342522 142.504 -0.565567 141.911 -0.793915 141.236C-1.34473 140.555 -1.7452 139.058 -1.98441 136.784C-2.36241 133.191 -1.94512 128.145 -1.51218 126.031C-1.29441 124.967 -0.953575 123.679 -0.652908 122.543C-0.365875 121.459 -0.094696 120.434 0.0116348 119.821C0.121132 119.191 0.14566 118.834 0.160355 118.621C0.169853 118.483 0.1763 118.39 0.203392 118.317C0.166801 118.121 0.127411 117.899 0.0851364 117.661C-0.122559 116.492 -0.406792 114.891 -0.776802 114.063C-1.26431 112.973 -1.90435 109.723 -2.17765 108.335L-2.18698 108.288C-2.27401 107.845 -2.35384 107.104 -2.42426 106.085C-2.5575 104.987 -2.5986 103.668 -2.62579 102.795L-2.63049 102.644C-2.64365 102.229 -2.64356 101.4 -2.55625 101.091C-2.56768 100.831 -2.61139 100.59 -2.73462 100.101C-2.86314 99.5907 -2.94931 99.0391 -3.04912 98.4005C-3.09763 98.0899 -3.14941 97.7583 -3.21089 97.4011C-3.27457 97.1741 -3.31589 96.948 -3.33298 96.7285C-3.44854 96.1331 -3.53472 95.8519 -3.61079 95.6035C-3.7007 95.31 -3.7789 95.0545 -3.87496 94.4156C-4.00109 94.2407 -4.07746 93.5851 -4.29725 91.1273C-4.38438 90.1524 -4.47458 89.1443 -4.56478 88.3892C-4.6131 87.9853 -4.64182 87.467 -4.65018 86.8482C-4.73569 86.6713 -4.85018 86.4911 -4.97094 86.3011C-5.10639 86.0881 -5.24624 85.8682 -5.37353 85.6133C-5.88448 85.1331 -6.39552 82.4828 -6.47842 81.7604C-6.66555 80.1318 -7.85285 72.9496 -8.53891 70.6598C-9.3221 68.046 -8.7859 62.7784 -8.72211 62.1864C-8.70049 61.9852 -8.68062 61.786 -8.6611 61.5905C-8.57773 60.754 -8.49876 59.9622 -8.30876 59.3536C-8.50809 58.9798 -9.43364 58.8122 -9.88291 58.8122H-10.1175C-10.5633 58.8122 -11.4781 58.9773 -11.6907 59.3567C-11.5012 59.9652 -11.4224 60.7565 -11.3391 61.5921C-11.3197 61.7872 -11.2998 61.9858 -11.2783 62.1864C-11.2145 62.7784 -10.6782 68.0464 -11.4615 70.6598C-12.1475 72.9496 -13.3349 80.1318 -13.522 81.7604C-13.6049 82.4828 -14.1159 85.1333 -14.6268 85.6133C-14.7541 85.8681 -14.8938 86.0879 -15.0292 86.3008C-15.15 86.4908 -15.2646 86.6711 -15.3501 86.8482C-15.3585 87.4663 -15.3872 87.9845 -15.4356 88.3892C-15.5258 89.1445 -15.616 90.1529 -15.7031 91.128C-15.9228 93.5853 -15.9992 94.2409 -16.1253 94.4157C-16.2214 95.0545 -16.2997 95.31 -16.3896 95.6034C-16.4656 95.8518 -16.5517 96.133 -16.6673 96.7286C-16.6844 96.9478 -16.7258 97.1743 -16.7938 97.4203C-16.8509 97.758 -16.9026 98.0891 -16.9511 98.3995C-17.0509 99.0385 -17.137 99.5904 -17.2657 100.101C-17.3685 100.509 -17.4141 100.736 -17.434 100.945C-17.3851 101.157 -17.379 101.584 -17.373 102.289L-17.3697 102.635C-17.3596 103.567 -17.412 105.091 -17.5933 106.318C-17.6585 107.212 -17.7331 107.88 -17.8134 108.288L-17.8218 108.33C-18.0951 109.719 -18.7355 112.971 -19.2236 114.063C-19.5937 114.891 -19.878 116.493 -20.0856 117.662C-20.1278 117.9 -20.1672 118.121 -20.2037 118.317C-20.1766 118.39 -20.1703 118.483 -20.1606 118.621C-20.146 118.834 -20.1214 119.191 -20.0119 119.821C-19.9056 120.434 -19.6343 121.459 -19.3471 122.545C-19.0465 123.68 -18.7059 124.968 -18.4881 126.031C-18.0552 128.145 -17.638 133.192 -18.016 136.784C-18.19 138.438 -18.5504 140.573 -19.2814 141.415C-19.5112 142.104 -19.7064 142.631 -19.8108 142.904C-19.812 143.772 -20.4766 146.251 -20.9187 147.9L-21.0422 148.362C-21.208 148.985 -21.3982 150.439 -21.5995 151.978C-21.6737 152.545 -21.7487 153.119 -21.8234 153.657L-21.8368 154.066C-21.9263 156.808 -22.0929 161.911 -21.947 162.847C-21.8795 163.28 -21.5444 164.086 -21.1898 164.94C-20.5418 166.499 -19.8074 168.267 -19.9827 169.274C-20.0667 169.757 -20.1899 170.294 -20.3205 170.862C-20.5915 172.042 -20.8988 173.38 -20.8597 174.373C-20.8026 175.819 -21.0288 177.854 -21.4226 179.436C-21.609 180.185 -21.3596 181.001 -21.1185 181.79C-20.9101 182.473 -20.6945 183.178 -20.773 183.83C-20.9209 185.06 -21.6171 185.693 -22.8421 185.713L-22.8807 185.713C-23.3888 185.713 -23.8785 185.55 -24.3105 185.407C-24.6581 185.291 -24.9863 185.182 -25.2534 185.182L-25.2749 185.183C-25.5365 185.188 -25.7989 185.306 -26.0767 185.43C-26.4073 185.577 -26.782 185.745 -27.2179 185.745C-27.2495 185.745 -27.2815 185.744 -27.3138 185.742C-27.7806 185.716 -28.0305 185.569 -28.2511 185.439C-28.4273 185.335 -28.5665 185.253 -28.8078 185.241C-28.8223 185.241 -28.8364 185.24 -28.8502 185.24C-29.08 185.24 -29.2175 185.334 -29.3917 185.452C-29.5807 185.58 -29.795 185.725 -30.1379 185.742C-30.1642 185.743 -30.1895 185.744 -30.2137 185.744C-30.5814 185.744 -30.7627 185.602 -30.9226 185.476C-31.0358 185.387 -31.1335 185.311 -31.311 185.265C-31.338 185.258 -31.3642 185.254 -31.3912 185.254C-31.547 185.254 -31.7093 185.372 -31.8813 185.497C-32.0886 185.648 -32.303 185.803 -32.5684 185.803C-32.5886 185.803 -32.609 185.802 -32.6293 185.8C-32.9645 185.769 -33.1385 185.628 -33.292 185.503C-33.3859 185.427 -33.467 185.361 -33.5868 185.318C-33.6019 185.313 -33.6186 185.31 -33.6376 185.31C-33.745 185.31 -33.9032 185.392 -34.0706 185.48C-34.3203 185.61 -34.6311 185.772 -34.9865 185.772C-35.7497 185.772 -36.1404 185.391 -36.3799 184.414C-36.6206 183.431 -36.409 181.837 -35.6385 180.87C-35.4396 180.62 -35.123 180.239 -34.7563 179.798C-33.8193 178.671 -32.536 177.127 -31.9831 176.289C-31.2118 175.12 -30.8992 173.027 -31.3519 172.064C-31.9305 170.833 -32.0519 169.684 -31.7128 168.648L-31.5984 168.301C-31.2815 167.345 -30.9537 166.355 -30.8121 165.152C-30.6957 164.163 -30.7481 161.764 -30.8462 159.947C-30.9384 159.538 -31.0132 159.108 -31.0685 158.668C-31.3847 156.154 -32.824 145.269 -33.5728 141.895C-34.2771 138.722 -35.3924 132.907 -35.5787 129.89C-35.7431 127.228 -35.5546 125.494 -35.4419 124.457L-35.4166 124.223C-35.3779 123.858 -35.2737 123.152 -35.2022 122.822C-35.0622 122.104 -34.8658 121.438 -34.6926 120.85C-34.5913 120.505 -34.4954 120.18 -34.4221 119.882C-34.3761 119.521 -34.2619 118.698 -34.1415 118.412L-34.1251 118.328C-34.0022 117.702 -33.8632 116.992 -33.792 116.334C-33.7944 115.918 -33.7841 115.527 -33.7607 115.141C-33.8836 113.785 -33.9343 108.663 -33.7751 106.321C-33.6709 104.79 -33.2609 102.527 -32.9315 100.708C-32.7557 99.7369 -32.6039 98.8985 -32.5572 98.4771C-32.5002 97.9615 -32.5299 97.232 -32.6452 96.3083L-32.6468 96.3043C-34.0523 92.8295 -35.4783 89.1908 -36.117 86.2575C-36.4378 84.785 -36.4994 82.2043 -36.5591 79.7086C-36.6144 77.3952 -36.6716 75.0032 -36.939 73.646C-37.4792 70.9051 -37.5555 66.1633 -37.4768 63.8184C-37.5049 63.2914 -37.4228 62.2204 -37.3755 61.7503C-37.4046 61.6593 -37.3952 61.5449 -37.3811 61.432C-37.3442 61.1351 -37.3082 60.4806 -37.2626 59.6521C-37.1458 57.5321 -36.9694 54.3282 -36.5416 52.5294C-35.966 50.1098 -34.8748 43.6725 -34.9193 41.6214C-34.9643 39.5371 -33.9037 35.0778 -33.1207 32.66C-32.959 31.9739 -32.6713 30.9013 -32.4174 29.9549C-32.2798 29.4419 -32.1541 28.9731 -32.0674 28.6366C-32.0148 27.9897 -31.852 27.3354 -31.7157 26.8363C-31.5292 26.1539 -31.6571 25.3331 -31.8051 24.3827C-31.9674 23.3406 -32.1695 22.0434 -32.015 20.506C-31.7586 17.9562 -31.4751 16.6787 -31.2825 16.056C-31.2191 15.8271 -31.1387 15.5919 -31.0535 15.3429C-30.8628 14.785 -30.6655 14.2082 -30.6277 13.5884C-30.7191 12.619 -30.7174 11.5004 -30.6238 10.9114C-30.6168 9.64941 -30.6245 8.23152 -30.7324 7.25979C-30.7703 7.07067 -30.8065 6.84488 -30.8375 6.6052C-31.028 5.72725 -31.409 4.83222 -31.6871 4.17871C-31.7786 3.96413 -31.859 3.7752 -31.9231 3.61079C-32.1627 3.43615 -32.2567 2.93141 -32.4257 2.02384C-32.5472 1.37215 -32.6983 0.561081 -32.9461 -0.273163C-33.4316 -1.90661 -34.4059 -6.16589 -34.7664 -8.39768C-34.8169 -8.41398 -34.865 -8.42268 -34.9072 -8.42268C-34.9493 -8.42268 -34.9686 -8.41389 -34.9735 -8.41119C-34.995 -8.39961 -35.023 -8.37703 -35.0504 -8.31451C-34.9831 -7.90511 -35.1308 -6.51886 -35.2311 -5.68201C-35.3387 -4.7841 -35.8985 -2.99664 -36.5466 -0.926865C-37.655 2.61204 -39.0344 7.01646 -38.925 9.35234C-38.7785 12.4792 -39.8596 14.8215 -40.4255 15.286C-40.5347 15.8462 -40.6248 16.4449 -40.7121 17.0247C-40.8 17.609 -40.891 18.2131 -41.0025 18.7878C-41.1302 19.6792 -41.3948 20.7054 -41.8095 21.9157C-42.2265 23.1326 -43.4551 26.136 -45.0964 29.9508C-45.3141 30.6582 -45.5559 31.4341 -45.8116 32.2546C-47.4606 37.5459 -49.7189 44.7928 -49.7757 47.3656C-49.7919 48.103 -49.3805 49.2313 -48.7009 51.0018C-47.947 52.9664 -48.0774 56.8247 -49.8044 60.1055C-50.5391 61.5013 -51.1897 63.6351 -51.819 65.6987C-52.4301 67.7032 -53.0075 69.5967 -53.5776 70.4482C-53.9171 70.9552 -54.2685 71.2124 -54.622 71.2124C-54.9835 71.2124 -55.2553 70.949 -55.4392 70.6786C-55.7251 72.1469 -56.3876 74.7791 -57.4888 74.9803C-57.5676 74.9947 -57.6452 75.002 -57.7194 75.002C-58.2618 75.002 -58.6568 74.6254 -58.8554 73.9443C-59.1984 75.1184 -59.8266 76.6924 -60.7296 76.6924L-60.7588 76.6919C-62.0298 76.6452 -62.0673 74.9692 -62.0095 73.0807C-62.1101 73.137 -62.2242 73.1662 -62.3486 73.1662C-63.181 73.1662 -64.1815 71.9109 -64.3683 70.6316C-64.8307 67.4656 -64.5243 63.6728 -64.3007 60.9033C-64.1907 59.5425 -64.0774 58.1395 -64.1706 57.7427C-64.342 57.9018 -64.5605 58.1861 -64.8103 58.5108C-65.2794 59.1207 -65.863 59.8797 -66.5477 60.3527C-67.1032 60.7365 -67.7652 60.9393 -68.4624 60.9393C-69.5566 60.9393 -70.5195 60.4432 -70.7521 59.7597C-70.84 59.5014 -70.8903 58.9925 -70.2401 58.4872C-68.5456 57.1699 -65.2979 52.4117 -64.1435 49.5553C-63.3736 47.6505 -61.9556 47.0191 -60.8162 46.5118C-60.136 46.2089 -59.5486 45.9474 -59.2591 45.4882C-58.5899 44.4266 -57.5764 39.2569 -56.2467 30.1227C-56.1932 25.1654 -56.1143 20.1204 -55.7982 17.6435C-55.201 12.9643 -53.2467 7.27878 -51.5307 5.22831C-51.2852 4.93498 -51.0661 4.66829 -50.8703 4.42988C-50.276 3.70651 -49.9085 3.25928 -49.6311 3.06958C-49.3849 2.73853 -49.1746 2.11742 -49.0058 1.2226C-49.3892 -4.52097 -48.1607 -9.43242 -47.1642 -11.0882L-47.1111 -11.1758C-46.9959 -11.5723 -46.8353 -12.0772 -46.6655 -12.6109L-46.6058 -12.7989L-46.5737 -12.9857C-46.3079 -14.5344 -46.5056 -16.714 -46.7345 -19.2378C-46.7847 -19.7908 -46.8361 -20.3574 -46.8839 -20.9334C-47.1843 -24.5535 -46.7308 -27.4507 -45.4567 -30.0508C-45.0939 -30.9355 -44.4102 -32.0774 -43.7574 -32.8861C-40.865 -37.976 -35.0072 -40.0889 -32.5108 -40.0889C-32.3481 -40.0889 -32.201 -40.0791 -32.0732 -40.0597C-32.0125 -40.0628 -31.9485 -40.0641 -31.8813 -40.0641C-31.6177 -40.0641 -31.3037 -40.0422 -30.9714 -40.0189C-30.5673 -39.9906 -30.1095 -39.9585 -29.6418 -39.9584C-29.4257 -40.1403 -28.9479 -40.3077 -28.078 -40.6026C-27.4574 -40.813 -26.6849 -41.0749 -25.9125 -41.3987C-24.113 -42.1529 -21.8921 -43.5375 -20.6317 -44.691C-20.2427 -45.047 -20.0006 -45.2349 -19.8284 -45.3117C-19.7091 -45.4785 -19.5821 -45.6448 -19.4508 -45.8168C-18.9572 -46.4631 -18.3985 -47.1943 -18.2461 -47.9457C-18.2952 -48.3805 -18.3124 -50.7693 -18.1503 -52.3397C-18.1685 -52.5909 -18.1871 -52.7175 -18.1995 -52.7798C-18.2226 -52.8961 -18.2418 -53.0142 -18.2615 -53.136C-18.3519 -53.6933 -18.4543 -54.3249 -19.0497 -55.2161C-19.5579 -55.9769 -19.6987 -57.745 -19.7274 -59.0942C-19.7328 -59.355 -19.9446 -59.5671 -20.1993 -59.5671C-20.2325 -59.5671 -20.2661 -59.5635 -20.2991 -59.5562C-20.4506 -59.523 -20.6092 -59.5055 -20.7579 -59.5055C-21.1582 -59.5055 -21.4889 -59.6275 -21.7143 -59.8583C-21.9468 -60.0964 -22.0606 -60.4385 -22.0523 -60.8753C-22.0233 -62.4017 -22.3324 -63.2873 -22.6052 -64.0686C-22.7427 -64.4626 -22.8726 -64.8347 -22.9508 -65.2536C-23.0897 -65.9978 -23.1742 -66.9985 -22.7883 -67.5394C-22.6365 -67.7521 -22.4284 -67.8788 -22.1693 -67.9159C-22.106 -67.9251 -22.0407 -67.9296 -21.9754 -67.9296C-21.7606 -67.9296 -21.536 -67.8804 -21.3079 -67.7831C-21.2767 -67.7699 -21.2445 -67.7632 -21.2124 -67.7632C-21.1429 -67.7632 -21.0743 -67.7944 -21.024 -67.8488C-20.9724 -67.9046 -20.9471 -67.9772 -20.9528 -68.053C-21.12 -70.286 -21.2726 -75.784 -19.0854 -78.6011C-16.4849 -81.9504 -12.4853 -82.6289 -10.8862 -82.7653C-10.6795 -82.7828 -10.43 -82.8018 -10.0855 -82.8018C-9.82696 -82.8018 -9.54675 -82.7906 -9.25242 -82.7686C-7.62419 -82.6471 -3.55238 -81.9977 -0.91523 -78.6011C1.27188 -75.784 1.11924 -70.286 0.952095 -68.0529C0.946426 -67.9772 0.971695 -67.9046 1.02328 -67.8487C1.07362 -67.7943 1.1422 -67.7632 1.21165 -67.7632C1.24393 -67.7632 1.27609 -67.7699 1.30731 -67.7831C1.53536 -67.8804 1.75996 -67.9296 1.97466 -67.9296C2.03997 -67.9296 2.10531 -67.9251 2.16869 -67.9159C2.42767 -67.8788 2.63583 -67.7521 2.78761 -67.5394C3.17348 -66.9985 3.08894 -65.9978 2.95005 -65.2536C2.87185 -64.8347 2.742 -64.4627 2.60444 -64.0687C2.33183 -63.2874 2.0227 -62.4018 2.0517 -60.8753C2.05996 -60.4385 1.94622 -60.0963 1.71365 -59.8582C1.48819 -59.6274 1.15746 -59.5055 0.757271 -59.5055C0.608566 -59.5055 0.449883 -59.523 0.298393 -59.5562C0.265343 -59.5634 0.231827 -59.5671 0.198593 -59.5671C-0.0560532 -59.5671 -0.267876 -59.355 -0.273346 -59.0941C-0.301971 -57.7449 -0.442787 -55.977 -0.950951 -55.2161C-1.54624 -54.325 -1.64874 -53.6934 -1.73912 -53.1362C-1.75891 -53.0144 -1.77811 -52.8962 -1.80127 -52.7798C-1.81376 -52.7169 -1.83229 -52.5898 -1.85035 -52.3397C-1.6882 -50.769 -1.70541 -48.3803 -1.75449 -47.9457C-1.60223 -47.1943 -1.04353 -46.463 -0.549889 -45.8168C-0.416565 -45.6423 -0.287842 -45.4737 -0.17189 -45.3116C0.000152588 -45.2346 0.242332 -45.0468 0.631073 -44.691C1.8913 -43.5376 4.11211 -42.153 5.91182 -41.3987C6.68415 -41.0749 7.45666 -40.813 8.07741 -40.6026C8.94724 -40.3076 9.42504 -40.1403 9.64117 -39.9584C10.1089 -39.9585 10.5666 -39.9906 10.9706 -40.0189C11.303 -40.0422 11.617 -40.0641 11.8807 -40.0641C11.9478 -40.0641 12.0118 -40.0628 12.0725 -40.0597C12.2003 -40.0791 12.3474 -40.0889 12.5101 -40.0889C15.0064 -40.0889 20.8642 -37.976 23.7567 -32.8862C24.4095 -32.0772 25.0934 -30.9352 25.4614 -30.039C26.7301 -27.4509 27.1836 -24.5537 26.8832 -20.9334C26.8354 -20.3569 26.784 -19.7899 26.7337 -19.2364C26.5049 -16.7132 26.3073 -14.5342 26.5731 -12.9857L26.6157 -12.7381L26.6186 -12.7285C26.7896 -12.177 26.9514 -11.6555 27.0654 -11.2502L27.1635 -11.0881C28.171 -9.41433 29.4047 -4.45734 28.9988 1.32964C29.1623 2.174 29.3706 2.75632 29.6183 3.0618C29.8978 3.24715 30.2697 3.69968 30.8723 4.43318C31.0674 4.67065 31.2856 4.93616 31.53 5.22823C33.2461 7.27872 35.2003 12.9642 35.7975 17.6434C36.1136 20.1203 36.1925 25.1653 36.246 30.1226C37.5757 39.2568 38.5892 44.4266 39.2585 45.4881C39.548 45.9474 40.1354 46.2089 40.8155 46.5117C41.955 47.0191 43.373 47.6504 44.1428 49.5552C45.2973 52.4117 48.5451 57.1699 50.2395 58.4871C50.8897 58.9925 50.8394 59.5014 50.7515 59.7597C50.5189 60.4432 49.556 60.9392 48.4618 60.9392C47.7646 60.9392 47.1025 60.7364 46.547 60.3527C45.8626 59.8797 45.2789 59.1207 44.8099 58.511C44.5602 58.1862 44.3414 57.9019 44.1701 57.7427C44.077 58.1396 44.1902 59.5423 44.3001 60.9027C44.5238 63.6723 44.8301 67.4654 44.3678 70.6315C44.181 71.9107 43.1804 73.1662 42.3479 73.1662C42.2236 73.1662 42.1096 73.1369 42.0089 73.0806C42.0666 74.9691 42.0291 76.6451 40.7581 76.6918L40.7289 76.6923C39.8259 76.6923 39.1977 75.1183 38.8548 73.9442C38.6561 74.6254 38.2612 75.0019 37.7189 75.0019C37.6447 75.0019 37.5671 74.9946 37.4882 74.9802C36.3866 74.779 35.7242 72.1467 35.4385 70.6785C35.2548 70.9489 34.9829 71.2123 34.6215 71.2123C34.2679 71.2123 33.9165 70.9551 33.577 70.4481C33.0069 69.5966 32.4294 67.7032 31.8183 65.6986C31.189 63.635 30.5384 61.5012 29.8037 60.1054C28.0767 56.8246 27.9463 52.9663 28.7003 51.0017C29.3799 49.2311 29.7913 48.1027 29.775 47.3655C29.7182 44.7928 27.46 37.5461 25.8111 32.2548C25.5554 31.4342 25.3135 30.6583 25.0959 29.9507C23.4546 26.1357 22.226 23.1323 21.809 21.9156C21.3941 20.7055 21.1296 19.6792 21.0003 18.7779C20.8904 18.2131 20.7995 17.6093 20.7117 17.0254C20.6244 16.4453 20.5343 15.8463 20.4249 15.2859C19.859 14.8213 18.778 12.4789 18.9244 9.35222C19.0339 7.01633 17.6544 2.61192 16.546 -0.927162C15.8978 -2.99683 15.338 -4.78419 15.2304 -5.6821C15.1302 -6.51895 14.9825 -7.9052 15.0499 -8.31461C15.0226 -8.37713 14.9945 -8.39971 14.9731 -8.41129C14.9681 -8.414 14.9487 -8.42277 14.9065 -8.42277C14.8645 -8.42277 14.8162 -8.4141 14.7659 -8.39777C14.4056 -6.16678 13.4311 -1.9074 12.9456 -0.273262C12.6976 0.561081 12.5465 1.37207 12.4252 2.02384C12.2561 2.93141 12.1621 3.43605 11.9224 3.61069C11.8583 3.77511 11.7779 3.96393 11.6866 4.17851C11.4084 4.83202 11.0273 5.72706 10.8342 6.62151C10.8061 6.84352 10.7699 7.06931 10.7293 7.27609C10.6239 8.23143 10.6162 9.64922 10.6232 10.9112C10.7169 11.5002 10.7186 12.619 10.6271 13.5883C10.6649 14.2081 10.8621 14.7848 11.053 15.3427C11.1381 15.5917 11.2185 15.8268 11.2835 16.0612C11.4746 16.6786 11.758 17.9564 12.0145 20.5059C12.169 22.0433 11.9669 23.3402 11.8046 24.3824C11.6564 25.3329 11.5286 26.1538 11.7151 26.8362C11.8514 27.3351 12.0142 27.9892 12.0668 28.6364C12.1533 28.9723 12.2787 29.4399 12.416 29.9518C12.6702 30.8992 12.9582 31.9731 13.1244 32.6753C13.9031 35.0776 14.9637 39.5368 14.9186 41.6213C14.8743 43.6718 15.9653 50.1094 16.5409 52.5292C16.9687 54.3278 17.1451 57.5312 17.2619 59.651C17.3076 60.4801 17.3436 61.1349 17.3806 61.4319C17.3947 61.5448 17.4041 61.6593 17.3749 61.7503C17.4223 62.2198 17.5043 63.2903 17.476 63.8351C17.5549 66.1626 17.4788 70.904 16.9384 73.6459C16.671 75.0031 16.6138 77.395 16.5586 79.7082C16.4988 82.204 16.4372 84.7848 16.1164 86.2574C15.4778 89.1904 14.0518 92.8291 12.646 96.3049L12.6446 96.3086C12.5292 97.2321 12.4997 97.9615 12.5566 98.477C12.6033 98.8983 12.7551 99.7366 12.9309 100.707C13.2603 102.526 13.6703 104.79 13.7745 106.321C13.9342 108.67 13.8827 113.814 13.7594 115.146C13.7833 115.518 13.7939 115.913 13.7915 116.334C13.8626 116.993 14.0017 117.702 14.1246 118.329L14.1409 118.412C14.2612 118.698 14.3756 119.521 14.4216 119.882C14.4948 120.18 14.5906 120.505 14.6919 120.849C14.9198 121.622 15.1781 122.499 15.3107 123.48C15.3536 123.726 15.3924 124 15.416 124.223L15.4413 124.457C15.554 125.493 15.7425 127.228 15.5781 129.89C15.3919 132.906 14.2766 138.722 13.5722 141.895C12.8224 145.274 11.3839 156.155 11.068 158.668C11.0126 159.108 10.9379 159.538 10.8457 159.947C10.7475 161.764 10.695 164.162 10.8116 165.152C10.9533 166.355 11.2813 167.345 11.5984 168.303L11.7123 168.648C12.0513 169.684 11.9299 170.833 11.3513 172.064C10.8986 173.027 11.2113 175.12 11.9826 176.289C12.5357 177.128 13.8195 178.672 14.757 179.8C15.123 180.24 15.4393 180.62 15.638 180.87C16.4084 181.837 16.62 183.431 16.3793 184.413C16.1398 185.391 15.7492 185.772 14.9859 185.772C14.6305 185.772 14.3198 185.61 14.0701 185.48C13.9027 185.392 13.7445 185.31 13.637 185.31C13.618 185.31 13.6013 185.313 13.5861 185.318C13.4664 185.361 13.3853 185.427 13.2914 185.503C13.1378 185.628 12.9639 185.769 12.6287 185.8C12.6083 185.802 12.5883 185.803 12.5681 185.803Z" fill="white" stroke="#28839F" stroke-width="0.504915"/>
<path d="M15.5688 -23.9551C16.5072 -20.4497 20.47 -18.7559 23.6959 -8.01879C24.6171 -4.9527 25.7562 4.75057 25.7194 8.53611C25.7057 9.95053 24.5904 8.15317 24.5904 8.15317C24.5904 8.15317 16.5989 -3.36457 15.6018 -9.13816C14.6047 -14.9117 15.5688 -23.9551 15.5688 -23.9551Z" fill="#28839F" fill-opacity="0.2"/>
<path d="M19.0625 -19.124C20.066 -17.9503 23.5201 -11.583 24.4564 -7.76707C25.2745 -4.43286 26.5867 3.34191 26.6819 9.75367C26.6843 9.9111 26.9021 9.94843 26.9584 9.80151C30.4819 0.617449 28.3432 -8.7473 26.9953 -10.9865C25.8533 -12.8838 23.2415 -16.9737 19.0625 -19.124Z" fill="#28839F" fill-opacity="0.2"/>
<path d="M23.4031 7.88792C23.9255 8.83547 21.6435 10.9956 20.7637 15.0755C20.6134 15.7724 18.9454 13.1166 19.1214 9.36077C19.2973 5.60499 15.7122 -3.32051 15.4262 -5.70653C15.1403 -8.09255 15.2503 -8.31348 15.2503 -8.31348C18.6288 0.264635 20.3824 2.4089 23.4031 7.88792Z" fill="#28839F" fill-opacity="0.2"/>
<path d="M29.0339 3.64654C28.4673 6.65501 27.6262 11.0697 28.3301 14.0154C29.0339 16.9612 34.9579 38.347 35.8377 41.0571C36.7175 43.7672 36.5415 40.9687 36.2482 38.4649C35.955 35.961 36.1896 22.2635 35.6031 17.6681C35.0165 13.0728 33.081 7.3876 31.38 5.35506C29.6791 3.3225 29.2392 2.55663 29.0339 3.64654Z" fill="#28839F"/>
<path d="M24.6496 9.56691C27.2773 11.5464 27.7875 14.3537 28.4034 16.5188C29.0192 18.6839 34.1441 37.4849 34.6059 39.4511C35.0679 41.4174 35.2218 43.7593 34.518 42.8535C33.8141 41.9477 27.3696 23.0583 25.4121 18.949C23.4545 14.8397 22.4781 13.5167 22.846 11.8351C23.1393 10.4948 23.6818 8.83785 24.6496 9.56691Z" fill="#28839F" fill-opacity="0.2"/>
<path d="M22.7572 14.9571C23.9073 16.9064 30.2941 34.0453 31.3792 38.2871C32.4643 42.5289 32.4936 44.2374 31.7898 43.8251C31.0859 43.4126 23.2264 25.4438 21.9947 21.85C20.763 18.2563 21.0416 16.7834 21.4522 15.4284C21.8628 14.0734 22.288 14.1617 22.7572 14.9571Z" fill="#28839F" fill-opacity="0.2"/>
<path d="M-7.97609 -9.94887C-8.78033 -8.49477 -9.44973 -5.81751 -9.47172 -4.16055C-9.49372 -2.50358 -8.70191 -2.28265 -7.66814 -1.77452C-6.63439 -1.26637 -1.8175 1.24483 -0.4978 2.37894C0.843855 3.5319 1.61371 4.25683 1.87764 1.98126C2.14158 -0.2943 2.4715 -2.79078 2.0536 -5.22101C1.6357 -7.65121 1.2178 -8.60121 0.118052 -8.9326C-0.981702 -9.26399 -2.35637 -9.18667 -4.06098 -9.52911C-5.74078 -9.86656 -7.64615 -10.5454 -7.97609 -9.94887Z" fill="#28839F" fill-opacity="0.2"/>
<path d="M-7.77848 -0.879486C-1.6529 1.42921 1.07239 5.04935 1.64267 6.12025C2.31717 7.38692 1.96789 10.4432 1.77464 10.9733C1.58401 11.4962 0.129668 11.5524 -1.15802 11.2753C-3.0056 10.8776 -6.34882 10.4505 -7.53654 10.3032C-8.72427 10.1559 -9.44278 8.71247 -9.50142 7.35746C-9.56007 6.00244 -9.60406 1.73116 -9.50142 0.876898C-9.39879 0.0226381 -8.88533 -1.29666 -7.77848 -0.879486Z" fill="#28839F" fill-opacity="0.2"/>
<path d="M-7.82993 11.2183C-6.08065 11.0273 -0.57161 12.1903 0.410831 12.6616C1.39327 13.133 2.17042 14.0756 2.19976 15.3128C2.22907 16.55 1.87716 18.936 1.55455 19.643C1.23197 20.3499 0.146895 20.998 -1.37809 21.0569C-2.90306 21.1158 -6.07033 21.3515 -7.47801 21.1453C-8.88569 20.9391 -9.22295 19.5546 -9.32558 17.9934C-9.42822 16.4321 -9.50154 14.3554 -9.35492 12.9562C-9.20827 11.557 -8.50445 11.2919 -7.82993 11.2183Z" fill="#28839F" fill-opacity="0.2"/>
<path d="M10.3817 1.99696C10.1178 2.80701 8.37286 4.00004 7.31711 4.67756C6.26135 5.35508 4.80237 6.14303 4.31115 5.75274C3.81993 5.36242 3.80525 1.63611 4.1645 0.818661C4.52375 0.00123489 5.3229 0.14116 6.27601 -0.168156C7.28281 -0.494861 7.54214 -1.04077 8.65147 -1.13286C9.5386 -1.20651 10.7486 0.870849 10.3817 1.99696Z" fill="#28839F" fill-opacity="0.2"/>
<path d="M8.84928 4.16947C8.20833 4.62549 4.93419 6.37875 4.36231 6.73223C3.79045 7.08571 3.50452 8.32292 3.32856 9.75895C3.1526 11.195 3.26023 12.8893 3.85643 13.1171C5.41807 13.7136 9.42246 9.35285 9.93803 8.76477C10.5869 8.02467 10.7188 6.05841 10.7628 5.11945C10.8211 3.87655 9.90504 3.4183 8.84928 4.16947Z" fill="#28839F" fill-opacity="0.2"/>
<path d="M8.91556 10.5322C7.81581 11.7473 5.20942 13.4595 4.58257 14.0007C3.9557 14.542 3.91171 16.6629 3.92271 17.646C3.93371 18.6292 4.91249 19.3914 5.57233 19.2146C6.23217 19.0379 9.5864 15.8013 10.0373 15.2379C10.4882 14.6746 10.5982 11.7583 10.4112 10.8415C10.2243 9.92461 9.6691 9.69957 8.91556 10.5322Z" fill="#28839F" fill-opacity="0.2"/>
<path d="M-6.89101 22.38C-4.83816 22.3646 -0.71776 22.1444 0.264662 21.9971C1.2471 21.8498 2.09758 22.9103 1.87763 24.2947C1.65768 25.6792 0.821863 31.1877 -0.93773 36.7551C-2.69732 42.3225 -3.98769 45.769 -5.71795 47.3302C-7.44821 48.8914 -7.85878 50.7178 -8.72391 50.5852C-9.58904 50.4527 -9.59271 46.951 -9.6037 45.5701C-9.61313 44.3878 -9.72102 25.8044 -9.41675 25.2005C-9.09893 24.5697 -8.47098 24.1677 -8.10256 23.7976C-7.70903 23.4024 -7.87345 22.3874 -6.89101 22.38Z" fill="#28839F" fill-opacity="0.2"/>
<path d="M9.58973 16.2826C8.62802 17.3788 6.43712 19.3019 5.54266 20.112C4.64821 20.9221 3.51912 24.236 3.16721 25.8267C2.81529 27.4174 2.90328 29.4794 3.3725 31.129C3.84173 32.7786 3.25519 33.6034 3.54845 34.9584C3.84172 36.3134 5.42536 37.256 6.07055 36.2545C6.71573 35.253 9.20848 32.1305 10.7628 31.2468C12.3171 30.3631 11.9358 28.3895 11.5253 26.8871C11.1147 25.3848 12.1118 23.4407 11.8186 20.5244C11.5253 17.6081 11.1807 16.2421 10.9607 15.745C10.7408 15.2479 10.2422 15.5388 9.58973 16.2826Z" fill="#28839F" fill-opacity="0.2"/>
<path d="M14.567 -21.1641C14.3615 -17.3644 14.8011 -10.7282 14.6931 -9.34394C14.5758 -7.84165 13.344 -2.3037 12.7575 -0.330067C12.171 1.64355 12.127 3.46252 11.7311 3.48462C11.3352 3.50671 10.4407 -1.06649 10.3527 -2.56881C10.2647 -4.07112 11.8191 -10.699 12.1123 -13.0555C12.4056 -15.4121 13.6336 -20.1989 13.9966 -21.171C14.4959 -22.5086 14.6851 -23.3475 14.567 -21.1641Z" fill="#28839F" fill-opacity="0.2"/>
<path d="M10.6898 34.9291C9.698 40.363 9.18334 43.7804 8.12372 48.2437C7.21458 52.0732 5.79225 58.3622 4.51654 62.3831C3.24085 66.4041 0.865386 72.811 -0.366315 77.1853C-1.59804 81.5597 -3.4896 93.4457 -3.66556 94.1968C-3.84151 94.948 -4.10545 90.5736 -4.3694 88.3643C-4.63334 86.155 -4.28141 80.5435 -3.4896 76.7877C-2.69779 73.0319 -1.51006 66.3599 0.293519 62.118C3.85742 53.7361 7.70283 38.3042 8.81289 35.7245C9.06093 35.148 10.9317 33.6035 10.6898 34.9291Z" fill="#28839F" fill-opacity="0.2"/>
<path d="M12.9329 32.7213C13.7247 35.1662 14.7658 39.5848 14.7218 41.6174C14.6779 43.6499 15.7556 50.0789 16.3495 52.5754C16.9433 55.0719 17.0533 60.3963 17.1853 61.4567C17.3172 62.5172 16.3055 60.1753 15.7776 57.9219C15.2497 55.6684 13.0722 48.9301 12.3904 46.7871C11.7086 44.6441 10.3889 39.8941 10.6308 38.1267C10.8727 36.3593 11.3126 34.6139 11.2027 33.929C11.0927 33.2442 11.4666 32.6182 11.8332 32.1764C12.1998 31.7345 12.9329 32.7213 12.9329 32.7213Z" fill="#28839F" fill-opacity="0.2"/>
<path d="M7.93735 37.1652C7.68544 38.1774 5.93582 43.7599 5.62789 44.5553C5.31997 45.3506 4.7811 42.751 4.98637 40.9099C5.14962 39.4459 5.26498 38.7596 6.57 37.3751C7.87505 35.9906 8.17198 36.2226 7.93735 37.1652Z" fill="#28839F" fill-opacity="0.2"/>
<path d="M4.69295 41.3959C4.65329 44.025 4.78093 45.9249 4.86891 46.6539C4.95688 47.383 4.51698 49.769 3.9891 50.4539C3.46123 51.1388 2.51544 50.0563 1.92158 47.9353C1.32773 45.8144 1.30573 44.1575 1.74563 43.2517C2.18552 42.3458 3.48323 41.0424 4.03309 40.5121C4.58298 39.9819 4.71495 39.9377 4.69295 41.3959Z" fill="#28839F" fill-opacity="0.2"/>
<path d="M1.17355 45.1806C1.12707 46.4879 1.43749 48.4357 2.14132 49.8643C2.84517 51.293 3.2264 51.7348 3.07978 52.8689C2.93315 54.003 2.46392 55.7263 2.14132 56.2565C1.81874 56.7867 0.41106 53.9736 -0.0581663 52.6922C-0.527392 51.4108 -1.27521 48.907 -1.28989 47.8907C-1.30454 46.8744 -0.263454 45.7845 0.264418 45.1512C0.792309 44.5179 1.21754 43.9434 1.17355 45.1806Z" fill="#28839F" fill-opacity="0.2"/>
<path d="M2.61071 80.4997C2.52273 78.3788 1.42776 72.6196 2.08282 70.9556C5.63133 61.9417 6.80441 56.3222 9.76257 43.6077C10.1923 41.7607 10.5362 42.8903 10.8207 43.6891C11.563 45.7731 12.0358 48.6569 12.5084 50.2472C13.095 52.2208 13.5055 56.4185 13.8868 58.5394C14.268 60.6603 14.7959 66.2424 14.7666 69.8951C14.7372 73.5478 13.8428 79.2625 12.9923 81.619C12.1418 83.9756 10.001 89.4252 9.09188 92.2531C6.9506 98.9136 4.77262 91.6342 4.76805 91.6145C4.08321 89.4346 2.68754 82.3514 2.61071 80.4997Z" fill="#28839F" fill-opacity="0.2"/>
</g>
<defs>
<clipPath id="clip0_4055_8393">
<rect width="61" height="48" fill="white"/>
</clipPath>
</defs>
</svg>
