<svg width="61" height="48" viewBox="0 0 61 48" fill="none" xmlns="http://www.w3.org/2000/svg">
<g clip-path="url(#clip0_4055_7015)">
<path d="M39.808 158.241C39.6244 158.241 39.4761 158.133 39.3327 158.03C39.2137 157.944 39.1014 157.862 38.9936 157.862C38.9749 157.862 38.9568 157.865 38.9381 157.869C38.8153 157.901 38.7477 157.954 38.6695 158.015C38.5589 158.102 38.4335 158.2 38.1792 158.2C38.1624 158.2 38.1449 158.199 38.1267 158.198C37.8895 158.187 37.7413 158.087 37.6105 157.998C37.49 157.917 37.3949 157.853 37.2359 157.853C37.2264 157.853 37.2166 157.853 37.2066 157.853C37.0397 157.861 36.9434 157.918 36.8215 157.989C36.6689 158.079 36.496 158.18 36.1731 158.198C36.1507 158.2 36.1286 158.2 36.1068 158.2C35.8053 158.2 35.5461 158.085 35.3174 157.983C35.1252 157.898 34.9437 157.817 34.7627 157.813L34.7478 157.813C34.5631 157.813 34.336 157.888 34.0956 157.967C33.7967 158.066 33.458 158.178 33.1065 158.178L33.0798 158.178C32.2324 158.165 31.7509 157.728 31.6486 156.881C31.5943 156.432 31.7434 155.945 31.8876 155.475C32.0544 154.931 32.2268 154.369 32.0979 153.853C31.8256 152.763 31.6691 151.36 31.7085 150.363C31.7356 149.679 31.523 148.757 31.3355 147.944C31.2452 147.552 31.1599 147.183 31.1019 146.85C30.9806 146.156 31.4886 144.938 31.9368 143.863C32.1822 143.275 32.414 142.719 32.4607 142.421C32.5617 141.775 32.4463 138.256 32.3843 136.364L32.3752 136.087C32.3236 135.717 32.2718 135.323 32.2206 134.933C32.0812 133.871 31.9495 132.868 31.8348 132.439L31.7487 132.118C31.4431 130.982 30.9838 129.275 30.9829 128.678C30.8771 128.402 30.7228 127.993 30.5649 127.528C30.1839 127.059 29.9068 126.027 29.7414 124.46C29.4799 121.984 29.7685 118.507 30.068 117.05C30.2187 116.317 30.4544 115.429 30.6624 114.646C30.861 113.899 31.0486 113.193 31.1221 112.77C31.1979 112.336 31.2148 112.09 31.225 111.944C31.2316 111.848 31.236 111.784 31.2548 111.734C31.2295 111.599 31.2022 111.446 31.173 111.282C31.0293 110.476 30.8327 109.373 30.5767 108.802C30.2395 108.051 29.7967 105.811 29.6077 104.855L29.6012 104.822C29.541 104.517 29.4858 104.007 29.4371 103.304C29.3449 102.548 29.3165 101.638 29.2977 101.037L29.2944 100.933C29.2853 100.647 29.2854 100.076 29.3458 99.8629C29.3379 99.6833 29.3077 99.5179 29.2224 99.1806C29.1335 98.8289 29.0739 98.4488 29.0049 98.0087C28.9713 97.7947 28.9355 97.5662 28.8929 97.32C28.8489 97.1636 28.8203 97.0078 28.8085 96.8565C28.7286 96.4462 28.6689 96.2524 28.6163 96.0812C28.5541 95.879 28.5 95.7029 28.4336 95.2626C28.3463 95.1421 28.2935 94.6902 28.1415 92.9965C28.0812 92.3247 28.0188 91.63 27.9564 91.1096C27.923 90.8313 27.9031 90.4741 27.8973 90.0477C27.8382 89.9257 27.759 89.8016 27.6754 89.6707C27.5817 89.5238 27.485 89.3723 27.397 89.1966C27.0435 88.8658 26.69 87.0393 26.6326 86.5415C26.5032 85.4192 25.6819 80.4697 25.2073 78.8917C24.6655 77.0905 25.0365 73.4604 25.0806 73.0524C25.0955 72.9138 25.1093 72.7766 25.1228 72.6418C25.1805 72.0654 25.2351 71.5197 25.3665 71.1003C25.2286 70.8427 24.5884 70.7272 24.2776 70.7272H24.1153C23.8069 70.7272 23.1741 70.841 23.0271 71.1024C23.1581 71.5218 23.2127 72.0671 23.2703 72.6429C23.2837 72.7774 23.2975 72.9142 23.3124 73.0525C23.3565 73.4605 23.7275 77.0908 23.1856 78.8917C22.7111 80.4697 21.8897 85.4192 21.7603 86.5415C21.7029 87.0393 21.3494 88.8658 20.9961 89.1966C20.908 89.3723 20.8113 89.5237 20.7177 89.6704C20.6341 89.8014 20.5548 89.9256 20.4957 90.0477C20.4899 90.4736 20.47 90.8307 20.4366 91.1096C20.3742 91.6301 20.3118 92.325 20.2515 92.997C20.0995 94.6904 20.0467 95.1422 19.9594 95.2627C19.893 95.7029 19.8388 95.879 19.7766 96.0812C19.7241 96.2523 19.6645 96.4461 19.5845 96.8565C19.5727 97.0076 19.5441 97.1637 19.497 97.3332C19.4575 97.5659 19.4218 97.7941 19.3882 98.008C19.3192 98.4484 19.2596 98.8287 19.1706 99.1807C19.0995 99.4617 19.068 99.6185 19.0542 99.7623C19.088 99.9083 19.0922 100.203 19.0964 100.689L19.0987 100.927C19.1056 101.569 19.0694 102.619 18.944 103.465C18.8989 104.081 18.8473 104.541 18.7917 104.822L18.7859 104.851C18.5968 105.808 18.1539 108.05 17.8162 108.802C17.5602 109.373 17.3635 110.477 17.2199 111.282C17.1907 111.446 17.1635 111.599 17.1383 111.734C17.157 111.784 17.1614 111.848 17.168 111.943C17.1781 112.09 17.1951 112.336 17.2709 112.77C17.3445 113.193 17.5321 113.899 17.7308 114.647C17.9387 115.43 18.1744 116.317 18.325 117.05C18.6245 118.507 18.9131 121.984 18.6516 124.46C18.5312 125.6 18.2819 127.071 17.7763 127.651C17.6173 128.126 17.4822 128.489 17.4101 128.678C17.4092 129.276 16.9495 130.984 16.6436 132.12L16.5582 132.439C16.4436 132.868 16.312 133.87 16.1727 134.931C16.1214 135.322 16.0695 135.717 16.0178 136.087L16.0086 136.369C15.9466 138.259 15.8314 141.776 15.9323 142.421C15.979 142.719 16.2108 143.275 16.4561 143.863C16.9044 144.937 17.4124 146.156 17.2911 146.85C17.233 147.183 17.1478 147.552 17.0575 147.944C16.87 148.757 16.6574 149.679 16.6844 150.363C16.724 151.36 16.5675 152.763 16.2951 153.853C16.1661 154.369 16.3386 154.931 16.5054 155.475C16.6496 155.945 16.7987 156.432 16.7444 156.881C16.6421 157.728 16.1605 158.165 15.3132 158.178L15.2865 158.178C14.9349 158.178 14.5962 158.066 14.2974 157.967C14.0569 157.888 13.8299 157.813 13.6451 157.813L13.6303 157.813C13.4493 157.817 13.2678 157.898 13.0756 157.983C12.8469 158.085 12.5877 158.2 12.2862 158.2C12.2643 158.2 12.2422 158.2 12.2199 158.198C11.8969 158.18 11.7241 158.079 11.5715 157.989C11.4496 157.918 11.3533 157.861 11.1864 157.853C11.1763 157.853 11.1666 157.853 11.1571 157.853C10.9981 157.853 10.903 157.917 10.7825 157.998C10.6517 158.087 10.5035 158.187 10.2663 158.198C10.2481 158.199 10.2306 158.2 10.2139 158.2C9.95951 158.2 9.83412 158.102 9.72348 158.015C9.6452 157.954 9.57762 157.901 9.45482 157.869C9.43615 157.865 9.41801 157.862 9.39934 157.862C9.29156 157.862 9.17926 157.944 9.06032 158.03C8.91692 158.133 8.7686 158.241 8.585 158.241C8.57105 158.241 8.55695 158.24 8.54287 158.239C8.31103 158.217 8.19068 158.12 8.08449 158.034C8.01951 157.981 7.96343 157.936 7.88056 157.906C7.87012 157.903 7.85857 157.901 7.84541 157.901C7.77112 157.901 7.66168 157.957 7.54585 158.018C7.37316 158.107 7.15812 158.219 6.91232 158.219C6.38438 158.219 6.11413 157.956 5.9484 157.283C5.78195 156.606 5.92828 155.508 6.46127 154.841C6.59888 154.669 6.8179 154.406 7.07154 154.102C7.71969 153.326 8.60745 152.262 8.98988 151.684C9.5234 150.878 9.7397 149.436 9.42652 148.773C9.0263 147.924 8.9423 147.132 9.17686 146.419L9.256 146.18C9.47521 145.52 9.70195 144.838 9.79989 144.009C9.88043 143.327 9.84422 141.675 9.77631 140.422C9.71258 140.141 9.66082 139.844 9.62254 139.541C9.40386 137.809 8.40823 130.308 7.8902 127.982C7.40306 125.796 6.63151 121.788 6.50266 119.709C6.38891 117.874 6.51935 116.679 6.59729 115.965L6.61476 115.804C6.64154 115.552 6.71364 115.065 6.76307 114.839C6.85995 114.344 6.99578 113.884 7.11558 113.479C7.18568 113.242 7.252 113.018 7.3027 112.812C7.33453 112.564 7.41355 111.996 7.49681 111.8L7.50817 111.742C7.59316 111.31 7.68937 110.821 7.73862 110.367C7.73696 110.08 7.74407 109.811 7.76022 109.545C7.67523 108.611 7.64015 105.081 7.75031 103.467C7.82235 102.412 8.10595 100.852 8.33381 99.5987C8.45542 98.9297 8.56046 98.3519 8.59276 98.0615C8.63217 97.7062 8.61163 97.2035 8.53189 96.5669L8.53076 96.5641C7.55854 94.1696 6.57208 91.6621 6.13026 89.6406C5.90838 88.6258 5.86573 86.8474 5.82446 85.1276C5.78619 83.5334 5.74664 81.8849 5.56164 80.9496C5.18799 79.0608 5.13523 75.7931 5.18966 74.1771C5.17018 73.8139 5.227 73.0759 5.25969 72.752C5.23956 72.6892 5.24606 72.6104 5.25583 72.5326C5.28135 72.328 5.30627 71.877 5.33783 71.306C5.41863 69.845 5.54063 67.6371 5.8366 66.3975C6.23476 64.7301 6.98956 60.294 6.95879 58.8805C6.92763 57.4441 7.6613 54.3711 8.20293 52.7049C8.31484 52.2321 8.51385 51.4929 8.68948 50.8408C8.78463 50.4872 8.87162 50.1642 8.93155 49.9323C8.96797 49.4865 9.0806 49.0356 9.17489 48.6916C9.30387 48.2214 9.21543 47.6558 9.11302 47.0008C9.00072 46.2826 8.86092 45.3887 8.96783 44.3292C9.14518 42.5721 9.34127 41.6917 9.4745 41.2626C9.51837 41.1049 9.57398 40.9428 9.63292 40.7712C9.76489 40.3867 9.90132 39.9892 9.9275 39.5621C9.86425 38.8941 9.86543 38.1232 9.93015 37.7173C9.935 36.8476 9.92969 35.8705 9.85506 35.2009C9.82881 35.0705 9.80382 34.9149 9.78236 34.7498C9.65059 34.1448 9.38705 33.528 9.19462 33.0776C9.13137 32.9297 9.07575 32.7995 9.03143 32.6862C8.86563 32.5659 8.80065 32.2181 8.68369 31.5926C8.5997 31.1435 8.49517 30.5846 8.32374 30.0097C7.9879 28.884 7.3139 25.9488 7.06452 24.4108C7.02964 24.3996 6.99634 24.3936 6.96718 24.3936C6.93807 24.3936 6.92465 24.3997 6.92126 24.4015C6.90644 24.4095 6.88703 24.4251 6.8681 24.4681C6.91469 24.7503 6.81249 25.7056 6.74311 26.2823C6.66868 26.9011 6.28141 28.1329 5.83308 29.5592C5.06639 31.998 4.11217 35.0332 4.18785 36.6429C4.28918 38.7977 3.54136 40.4119 3.1499 40.732C3.07435 41.118 3.01202 41.5306 2.95162 41.9302C2.89082 42.3328 2.82789 42.7492 2.75074 43.1452C2.66243 43.7594 2.47942 44.4667 2.19249 45.3007C1.90404 46.1393 1.05415 48.209 -0.0812111 50.8379C-0.231781 51.3254 -0.399035 51.8601 -0.575935 52.4256C-1.7166 56.072 -3.27876 61.066 -3.31804 62.839C-3.32927 63.3472 -3.04466 64.1247 -2.5746 65.3448C-2.05304 66.6987 -2.14328 69.3576 -3.33791 71.6184C-3.84612 72.5803 -4.29618 74.0508 -4.73148 75.4729C-5.15423 76.8543 -5.55366 78.1591 -5.94805 78.7459C-6.18288 79.0953 -6.42595 79.2725 -6.67049 79.2725C-6.92054 79.2725 -7.10859 79.091 -7.23577 78.9047C-7.43353 79.9165 -7.89183 81.7305 -8.65355 81.8691C-8.70811 81.8791 -8.76179 81.8841 -8.8131 81.8841C-9.18827 81.8841 -9.46151 81.6246 -9.59893 81.1552C-9.83616 81.9643 -10.2707 83.049 -10.8954 83.049L-10.9156 83.0487C-11.7948 83.0165 -11.8207 81.8615 -11.7807 80.56C-11.8504 80.5989 -11.9292 80.619 -12.0153 80.619C-12.5911 80.619 -13.2832 79.7539 -13.4125 78.8723C-13.7323 76.6905 -13.5204 74.0768 -13.3657 72.1683C-13.2896 71.2305 -13.2112 70.2636 -13.2757 69.9902C-13.3943 70.0998 -13.5454 70.2957 -13.7182 70.5195C-14.0427 70.9398 -14.4464 71.4629 -14.92 71.7888C-15.3043 72.0533 -15.7623 72.1931 -16.2445 72.1931C-17.0014 72.1931 -17.6675 71.8512 -17.8284 71.3801C-17.8892 71.2021 -17.924 70.8515 -17.4742 70.5032C-16.3021 69.5955 -14.0555 66.3164 -13.2569 64.348C-12.7244 63.0353 -11.7435 62.6003 -10.9553 62.2506C-10.4848 62.0419 -10.0784 61.8617 -9.87815 61.5452C-9.41526 60.8137 -8.71416 57.251 -7.79436 50.9564C-7.75735 47.5402 -7.70279 44.0635 -7.48411 42.3566C-7.071 39.132 -5.71915 35.214 -4.53209 33.8009C-4.36225 33.5988 -4.21067 33.415 -4.07525 33.2507C-3.66413 32.7522 -3.40995 32.444 -3.21806 32.3133C-3.04774 32.0851 -2.90229 31.6571 -2.78547 31.0405C-3.05073 27.0824 -2.20092 23.6978 -1.51157 22.5567L-1.47483 22.4964C-1.39516 22.2231 -1.28404 21.8752 -1.16657 21.5073L-1.12531 21.3778L-1.10312 21.2491C-0.919245 20.1818 -1.056 18.6798 -1.21435 16.9406C-1.24904 16.5595 -1.28459 16.169 -1.31769 15.7721C-1.52548 13.2774 -1.21177 11.2808 -0.330442 9.48898C-0.0794678 8.87936 0.39352 8.09241 0.845049 7.53514C2.84591 4.0275 6.898 2.57143 8.62483 2.57143C8.73739 2.57143 8.83913 2.57821 8.92758 2.59157C8.96957 2.58944 9.01383 2.58851 9.06028 2.58851C9.24268 2.58851 9.45983 2.60366 9.68975 2.61969C9.96924 2.63918 10.2859 2.66132 10.6095 2.66139C10.759 2.53605 11.0895 2.42068 11.6912 2.21747C12.1205 2.07246 12.6549 1.892 13.1892 1.66884C14.434 1.14907 15.9703 0.194895 16.8422 -0.600031C17.1112 -0.845327 17.2788 -0.974846 17.3978 -1.02771C17.4804 -1.14267 17.5682 -1.25731 17.659 -1.37581C18.0005 -1.82118 18.387 -2.32513 18.4924 -2.84291C18.4584 -3.14252 18.4465 -4.78876 18.5587 -5.87093C18.5461 -6.04408 18.5332 -6.13131 18.5247 -6.17421C18.5087 -6.2544 18.4954 -6.33578 18.4818 -6.4197C18.4192 -6.80376 18.3484 -7.23902 17.9365 -7.85316C17.585 -8.37746 17.4875 -9.59588 17.4677 -10.5256C17.464 -10.7054 17.3175 -10.8516 17.1413 -10.8516C17.1183 -10.8516 17.0951 -10.8491 17.0722 -10.8441C16.9674 -10.8212 16.8577 -10.8091 16.7549 -10.8091C16.478 -10.8091 16.2492 -10.8932 16.0933 -11.0523C15.9324 -11.2163 15.8538 -11.4521 15.8595 -11.7531C15.8795 -12.805 15.6657 -13.4152 15.477 -13.9537C15.3819 -14.2252 15.2921 -14.4817 15.238 -14.7703C15.1419 -15.2832 15.0834 -15.9728 15.3503 -16.3455C15.4553 -16.4921 15.5993 -16.5794 15.7785 -16.605C15.8223 -16.6113 15.8675 -16.6144 15.9127 -16.6144C16.0613 -16.6144 16.2166 -16.5805 16.3744 -16.5135C16.396 -16.5044 16.4183 -16.4997 16.4405 -16.4997C16.4885 -16.4997 16.536 -16.5213 16.5708 -16.5588C16.6065 -16.5972 16.624 -16.6472 16.62 -16.6995C16.5044 -18.2383 16.3988 -22.0272 17.9118 -23.9685C19.7107 -26.2766 22.4774 -26.7442 23.5836 -26.8381C23.7266 -26.8502 23.8991 -26.8633 24.1375 -26.8633C24.3163 -26.8633 24.5101 -26.8556 24.7137 -26.8404C25.8401 -26.7567 28.6567 -26.3092 30.481 -23.9685C31.9939 -22.0272 31.8883 -18.2383 31.7727 -16.6994C31.7688 -16.6472 31.7862 -16.5972 31.8219 -16.5587C31.8567 -16.5212 31.9042 -16.4997 31.9522 -16.4997C31.9746 -16.4997 31.9968 -16.5044 32.0184 -16.5135C32.1762 -16.5805 32.3315 -16.6144 32.48 -16.6144C32.5252 -16.6144 32.5704 -16.6113 32.6143 -16.605C32.7934 -16.5794 32.9374 -16.4921 33.0424 -16.3455C33.3093 -15.9728 33.2508 -15.2832 33.1548 -14.7703C33.1007 -14.4817 33.0108 -14.2253 32.9157 -13.9538C32.7271 -13.4153 32.5133 -12.805 32.5333 -11.7531C32.539 -11.4521 32.4604 -11.2162 32.2995 -11.0522C32.1435 -10.8932 31.9147 -10.8091 31.6379 -10.8091C31.535 -10.8091 31.4253 -10.8212 31.3205 -10.8441C31.2976 -10.8491 31.2744 -10.8516 31.2514 -10.8516C31.0753 -10.8516 30.9288 -10.7054 30.925 -10.5256C30.9052 -9.59587 30.8078 -8.37751 30.4563 -7.85315C30.0445 -7.23908 29.9736 -6.80381 29.911 -6.41982C29.8974 -6.33591 29.8841 -6.25445 29.868 -6.17426C29.8594 -6.13091 29.8466 -6.04327 29.8341 -5.87098C29.9463 -4.78854 29.9344 -3.14244 29.9004 -2.84289C30.0057 -2.32512 30.3922 -1.82116 30.7337 -1.37579C30.8259 -1.25558 30.915 -1.13935 30.9952 -1.02764C31.1142 -0.97464 31.2817 -0.84519 31.5506 -0.600031C32.4224 0.194826 33.9586 1.14901 35.2035 1.66884C35.7378 1.892 36.2722 2.07246 36.7016 2.21747C37.3033 2.42075 37.6338 2.53605 37.7833 2.66139C38.1068 2.66132 38.4235 2.63918 38.703 2.61969C38.9329 2.60366 39.1501 2.58851 39.3325 2.58851C39.3789 2.58851 39.4231 2.58943 39.4651 2.59157C39.5536 2.57821 39.6553 2.57143 39.7679 2.57143C41.4947 2.57143 45.5468 4.02749 47.5477 7.53507C47.9993 8.09255 48.4723 8.87955 48.7269 9.49714C49.6045 11.2807 49.9182 13.2772 49.7104 15.7721C49.6773 16.1694 49.6418 16.5601 49.607 16.9416C49.4487 18.6804 49.312 20.182 49.4959 21.2491L49.5253 21.4197L49.5274 21.4263C49.6457 21.8064 49.7576 22.1658 49.8365 22.4451L49.9043 22.5568C50.6012 23.7102 51.4546 27.1262 51.1739 31.1142C51.287 31.6961 51.431 32.0974 51.6024 32.3079C51.7958 32.4356 52.053 32.7475 52.4698 33.253C52.6048 33.4166 52.7558 33.5996 52.9248 33.8009C54.1119 35.2139 55.4637 39.1319 55.8768 42.3565C56.0955 44.0635 56.1501 47.5401 56.1871 50.9563C57.1069 57.251 57.808 60.8137 58.271 61.5452C58.4712 61.8617 58.8776 62.0419 59.348 62.2506C60.1363 62.6002 61.1171 63.0353 61.6497 64.3479C62.4483 66.3164 64.6949 69.5954 65.867 70.5032C66.3168 70.8515 66.282 71.2021 66.2212 71.3801C66.0603 71.8512 65.3942 72.193 64.6373 72.193C64.1551 72.193 63.697 72.0533 63.3128 71.7888C62.8393 71.4629 62.4355 70.9398 62.1111 70.5197C61.9384 70.2958 61.7871 70.0999 61.6685 69.9902C61.6041 70.2637 61.6825 71.2303 61.7585 72.1678C61.9132 74.0764 62.1251 76.6904 61.8053 78.8722C61.6761 79.7538 60.984 80.6189 60.4081 80.6189C60.3221 80.6189 60.2432 80.5988 60.1736 80.56C60.2135 81.8614 60.1875 83.0164 59.3083 83.0486L59.2881 83.0489C58.6635 83.0489 58.2289 81.9642 57.9917 81.1552C57.8543 81.6245 57.5811 81.884 57.206 81.884C57.1546 81.884 57.1009 81.879 57.0464 81.8691C56.2843 81.7304 55.8262 79.9164 55.6285 78.9046C55.5014 79.0909 55.3134 79.2725 55.0633 79.2725C54.8188 79.2725 54.5756 79.0953 54.3408 78.7458C53.9464 78.159 53.547 76.8542 53.1242 75.4728C52.6889 74.0508 52.2389 72.5803 51.7307 71.6184C50.536 69.3575 50.4458 66.6986 50.9674 65.3448C51.4375 64.1246 51.7221 63.347 51.7108 62.839C51.6715 61.066 50.1094 56.0721 48.9688 52.4257C48.7919 51.8602 48.6246 51.3255 48.474 50.8379C47.3387 48.2088 46.4888 46.1391 46.2003 45.3006C45.9133 44.4667 45.7304 43.7594 45.6409 43.1383C45.5649 42.7492 45.502 42.333 45.4413 41.9307C45.3809 41.5309 45.3186 41.1181 45.2429 40.7319C44.8514 40.4117 44.1037 38.7975 44.2049 36.6428C44.2807 35.0331 43.3265 31.9979 42.5597 29.559C42.1113 28.1327 41.7241 26.901 41.6497 26.2822C41.5803 25.7055 41.4782 24.7502 41.5247 24.4681C41.5059 24.425 41.4865 24.4094 41.4717 24.4015C41.4682 24.3996 41.4548 24.3935 41.4256 24.3935C41.3965 24.3935 41.3631 24.3995 41.3283 24.4108C41.0791 25.9482 40.405 28.8835 40.0691 30.0096C39.8976 30.5846 39.7931 31.1435 39.7092 31.5926C39.5922 32.2181 39.5271 32.5658 39.3614 32.6862C39.317 32.7995 39.2614 32.9296 39.1982 33.0775C39.0058 33.5278 38.7422 34.1446 38.6086 34.761C38.5891 34.914 38.5641 35.0696 38.536 35.2121C38.4631 35.8705 38.4578 36.8475 38.4626 37.7172C38.5274 38.123 38.5286 38.8941 38.4653 39.562C38.4915 39.9892 38.6279 40.3866 38.7599 40.7711C38.8188 40.9426 38.8744 41.1047 38.9194 41.2662C39.0516 41.6917 39.2476 42.5722 39.425 44.3292C39.5319 45.3886 39.3921 46.2824 39.2798 47.0006C39.1774 47.6556 39.0889 48.2213 39.218 48.6916C39.3123 49.0353 39.4248 49.4861 39.4612 49.9321C39.5211 50.1636 39.6078 50.4858 39.7028 50.8386C39.8786 51.4915 40.0778 52.2315 40.1928 52.7155C40.7315 54.3709 41.4651 57.4439 41.434 58.8804C41.4033 60.2935 42.158 64.7298 42.5562 66.3974C42.8521 67.6369 42.9742 69.8444 43.055 71.3052C43.0865 71.8766 43.1114 72.3279 43.137 72.5325C43.1468 72.6103 43.1533 72.6892 43.1331 72.752C43.1659 73.0755 43.2226 73.8132 43.203 74.1886C43.2576 75.7926 43.2049 79.06 42.8312 80.9495C42.6461 81.8848 42.6066 83.5331 42.5684 85.1272C42.5271 86.8472 42.4844 88.6257 42.2625 89.6405C41.8208 91.6617 40.8343 94.1693 39.8619 96.5646L39.8609 96.5671C39.7811 97.2035 39.7607 97.7061 39.8001 98.0614C39.8323 98.3518 39.9373 98.9295 40.059 99.5985C40.2868 100.852 40.5705 102.412 40.6425 103.467C40.753 105.086 40.7174 108.631 40.6321 109.548C40.6486 109.805 40.6559 110.077 40.6543 110.367C40.7035 110.821 40.7997 111.31 40.8847 111.742L40.896 111.799C40.9792 111.996 41.0583 112.564 41.0902 112.813C41.1408 113.017 41.2071 113.241 41.2772 113.478C41.4348 114.012 41.6135 114.616 41.7052 115.292C41.7349 115.461 41.7617 115.65 41.778 115.804L41.7955 115.965C41.8735 116.679 42.0039 117.874 41.8901 119.709C41.7614 121.788 40.9898 125.795 40.5026 127.982C39.9839 130.31 38.9888 137.809 38.7703 139.541C38.732 139.844 38.6803 140.141 38.6166 140.422C38.5486 141.674 38.5123 143.327 38.593 144.009C38.691 144.839 38.9179 145.521 39.1372 146.181L39.216 146.418C39.4505 147.132 39.3665 147.924 38.9663 148.772C38.6531 149.436 38.8695 150.878 39.403 151.684C39.7856 152.262 40.6736 153.326 41.3221 154.103C41.5754 154.407 41.7941 154.669 41.9316 154.841C42.4645 155.508 42.6109 156.606 42.4444 157.283C42.2787 157.956 42.0085 158.219 41.4805 158.219C41.2347 158.219 41.0197 158.107 40.847 158.018C40.7312 157.957 40.6217 157.901 40.5474 157.901C40.5342 157.901 40.5227 157.902 40.5122 157.906C40.4294 157.936 40.3733 157.981 40.3083 158.034C40.2021 158.12 40.0818 158.217 39.8499 158.238C39.8358 158.24 39.822 158.241 39.808 158.241Z" fill="white" stroke="#28839F" stroke-width="0.504915"/>
<path d="M2.22533 17.6746C2.19625 17.6914 2.15966 17.6745 2.15387 17.6414C1.74092 15.2756 -1.31511 12.2191 0.704364 8.08696C2.74316 3.91536 7.61193 2.51468 8.92041 2.72782C10.161 2.9299 13.4256 5.07527 14.9541 5.53102C15.0037 5.54583 14.9974 5.61972 14.9458 5.62501C12.7579 5.84891 10.922 5.91489 8.75134 7.44245C6.49514 9.03021 6.94965 11.0406 6.46278 12.5935C5.97979 14.134 4.71346 16.2439 2.22533 17.6746Z" fill="#28839F" fill-opacity="0.2"/>
<path d="M-0.208668 9.54785C-0.528177 11.3748 -0.133179 12.995 0.582512 14.8157C1.19954 16.3853 1.7997 17.3278 1.76927 18.0738C1.13024 18.6523 -0.589035 20.7838 -0.969403 21.271C-0.741182 19.9464 -0.999833 17.952 -1.18241 15.7596C-1.365 13.5672 -1.1672 11.4966 -0.208668 9.54785Z" fill="#28839F" fill-opacity="0.2"/>
<path d="M6.5086 13.6895C5.85943 16.1051 3.11821 17.2724 0.886699 24.6716C0.249477 26.7846 -0.538546 33.4714 -0.51307 36.0801C-0.503557 37.0548 0.267958 35.8162 0.267958 35.8162C0.267958 35.8162 5.79604 27.879 6.48578 23.9002C7.17552 19.9215 6.5086 13.6895 6.5086 13.6895Z" fill="#28839F" fill-opacity="0.2"/>
<path d="M4.09234 17.0186C3.39816 17.8274 1.00879 22.2153 0.361126 24.845C-0.204785 27.1427 -1.11248 32.5005 -1.17835 36.919C-1.17997 37.0275 -1.33065 37.0533 -1.36965 36.952C-3.80697 30.623 -2.32754 24.1695 -1.39517 22.6264C-0.605132 21.3189 1.20151 18.5004 4.09234 17.0186Z" fill="#28839F" fill-opacity="0.2"/>
<path d="M1.09023 35.6336C0.728875 36.2866 2.30742 37.7753 2.91603 40.5868C3.01998 41.0671 4.17379 39.2368 4.05207 36.6486C3.93035 34.0604 6.41038 27.9096 6.60817 26.2653C6.80596 24.621 6.72988 24.4688 6.72988 24.4688C4.39282 30.3802 3.17974 31.8579 1.09023 35.6336Z" fill="#28839F"/>
<path d="M0.227836 36.7908C-1.58986 38.155 -1.94282 40.0895 -2.36883 41.5816C-2.79486 43.0736 -6.33993 56.0299 -6.65944 57.3849C-6.97895 58.74 -7.08545 60.3538 -6.59858 59.7296C-6.11169 59.1054 -1.65374 46.0881 -0.299615 43.2563C1.05451 40.4245 1.72997 39.5127 1.47546 38.3539C1.27259 37.4302 0.897297 36.2884 0.227836 36.7908Z" fill="#28839F" fill-opacity="0.2"/>
<path d="M1.53635 40.5052C0.740812 41.8485 -3.67728 53.6594 -4.42789 56.5826C-5.17849 59.5058 -5.19878 60.6832 -4.71189 60.399C-4.22502 60.1148 1.21176 47.7319 2.0638 45.2553C2.91584 42.7788 2.72311 41.7638 2.4391 40.83C2.15509 39.8962 1.86093 39.9571 1.53635 40.5052Z" fill="#28839F" fill-opacity="0.2"/>
<path d="M20.5857 5.89431C18.7695 5.43484 14.9826 5.83797 13.3637 6.05671C10.5845 6.43226 8.49631 7.64144 7.76466 8.97988C7.11549 10.1674 6.64953 12.9552 7.15605 13.527C8.73841 15.3134 8.02838 20.429 13.6072 23.0273C15.4743 23.897 21.4581 23.342 22.371 22.2762C23.2838 21.2105 23.649 16.0036 23.3447 13.0195C23.0404 10.0355 22.3912 6.35106 20.5857 5.89431Z" fill="#28839F" fill-opacity="0.2"/>
<path d="M16.934 -0.499886C16.0833 0.275673 14.53 1.25604 13.2418 1.79399C11.9536 2.33193 10.7162 2.60599 10.6452 2.82928C10.5742 3.05258 11.9841 3.50932 12.9578 3.86457C13.9316 4.21982 15.1995 4.48371 15.6356 4.25027C16.0718 4.01682 16.8021 1.7737 17.0151 1.1038C17.2281 0.433912 17.4716 -0.357786 17.5628 -0.723178C17.6541 -1.08858 17.3904 -0.916032 16.934 -0.499886Z" fill="#28839F" fill-opacity="0.2"/>
<path d="M17.8978 -1.13946C17.598 -0.329692 17.0153 2.13387 16.6501 3.21484C16.285 4.2958 16.1633 4.69165 16.6197 4.88958C17.0762 5.0875 18.0651 4.49372 18.2021 4.06743C18.339 3.64114 18.339 -1.06334 18.3238 -1.41352C18.3086 -1.76369 18.0499 -1.55054 17.8978 -1.13946Z" fill="#28839F" fill-opacity="0.2"/>
<path d="M18.6127 -0.469873C18.6026 0.301519 18.5215 2.6969 18.7801 3.24499C19.0388 3.79309 20.1951 4.50865 20.5755 4.73702C20.9558 4.96541 21.443 5.10997 21.4579 4.73702C21.4681 4.48328 20.4671 3.06525 19.8299 1.45353C19.2822 0.0680708 18.9063 -1.13359 18.9018 -1.13976C18.704 -1.41382 18.6192 -0.961285 18.6127 -0.469873Z" fill="#28839F" fill-opacity="0.2"/>
<path d="M18.63 -2.84003C18.7565 -2.16054 19.6423 0.334279 20.3007 1.76041C20.6012 2.41128 21.5636 4.39085 21.9164 4.28521C22.2385 4.18878 20.9462 -0.0205469 20.5344 -1.48502C19.6097 -4.77359 19.3967 -6.98118 18.9343 -6.76803C18.5667 -6.59856 18.5819 -3.09885 18.63 -2.84003Z" fill="#28839F" fill-opacity="0.2"/>
<path d="M22.7968 23.3418C23.3531 24.3439 23.8162 26.1889 23.8314 27.3307C23.8466 28.4726 23.2989 28.6248 22.5838 28.975C21.8687 29.3252 18.5366 31.0557 17.6237 31.8373C16.6956 32.6318 16.1631 33.1314 15.9805 31.5632C15.7979 29.9951 15.5697 28.2747 15.8588 26.5999C16.1479 24.9252 16.437 24.2705 17.1977 24.0422C17.9585 23.8138 18.9094 23.8671 20.0885 23.6311C21.2505 23.3985 22.5686 22.9307 22.7968 23.3418Z" fill="#28839F" fill-opacity="0.2"/>
<path d="M22.6598 29.5919C18.4225 31.1829 16.5372 33.6776 16.1428 34.4156C15.6762 35.2885 15.9178 37.3947 16.0515 37.76C16.1833 38.1203 17.1894 38.1591 18.0801 37.9681C19.3582 37.6941 21.6708 37.3997 22.4924 37.2982C23.314 37.1967 23.8111 36.202 23.8516 35.2682C23.8922 34.3344 23.9226 31.391 23.8516 30.8023C23.7806 30.2136 23.4254 29.3044 22.6598 29.5919Z" fill="#28839F" fill-opacity="0.2"/>
<path d="M22.695 37.9285C21.485 37.7969 17.6741 38.5984 16.9945 38.9232C16.3149 39.248 15.7773 39.8976 15.757 40.7502C15.7368 41.6028 15.9802 43.2471 16.2033 43.7343C16.4265 44.2215 17.1771 44.668 18.232 44.7087C19.2869 44.7492 21.4778 44.9117 22.4516 44.7696C23.4253 44.6274 23.6586 43.6734 23.7297 42.5975C23.8007 41.5216 23.8514 40.0904 23.7499 39.1262C23.6485 38.162 23.1616 37.9793 22.695 37.9285Z" fill="#28839F" fill-opacity="0.2"/>
<path d="M14.134 23.5951C13.2695 23.4408 10.8802 22.0409 9.99558 21.4027C8.61854 20.4092 8.99213 25.0685 11.8214 25.016C12.9168 24.9957 13.7892 24.4299 14.2152 24.2091C14.6412 23.9884 14.5322 23.6661 14.134 23.5951Z" fill="#28839F" fill-opacity="0.2"/>
<path d="M9.81457 25.2951C9.90206 26.0563 10.0951 26.6085 10.4675 27.2832C10.8961 28.0597 13.5333 26.2124 13.7095 25.7785C13.8932 25.326 13.3002 24.9563 12.709 25.1276C11.9019 25.3614 10.8758 25.219 10.3319 24.8041C9.7816 24.3844 9.77112 24.917 9.81457 25.2951Z" fill="#28839F" fill-opacity="0.2"/>
<path d="M13.8502 26.164C13.4051 26.5497 12.5315 27.1333 11.6592 27.5393C10.8516 27.9152 10.9036 28.2853 11.1216 28.5695C11.3397 28.8537 12.704 29.6149 13.201 29.8382C13.698 30.0615 14.5196 29.8788 14.6768 29.4018C14.9427 28.595 14.7714 25.3655 13.8502 26.164Z" fill="#28839F" fill-opacity="0.2"/>
<path d="M10.0974 31.5742C10.28 32.1324 11.487 32.9546 12.2173 33.4215C12.9477 33.8884 13.9569 34.4314 14.2967 34.1624C14.6365 33.8934 14.6467 31.3255 14.3981 30.7622C14.1496 30.1989 13.5968 30.2953 12.9375 30.0821C12.2411 29.857 12.0617 29.4808 11.2943 29.4173C10.6806 29.3666 9.84359 30.7981 10.0974 31.5742Z" fill="#28839F" fill-opacity="0.2"/>
<path d="M11.1571 33.071C11.6004 33.3853 13.8653 34.5935 14.2609 34.8371C14.6565 35.0807 14.8543 35.9333 14.976 36.9229C15.0977 37.9125 15.0233 39.0801 14.6108 39.2371C13.5306 39.6482 10.7606 36.643 10.4039 36.2378C9.95508 35.7278 9.86379 34.3727 9.83336 33.7257C9.79308 32.8692 10.4267 32.5534 11.1571 33.071Z" fill="#28839F" fill-opacity="0.2"/>
<path d="M11.1114 37.4556C11.8721 38.2929 13.6751 39.4729 14.1087 39.8459C14.5423 40.2189 14.5727 41.6805 14.5651 42.358C14.5575 43.0355 13.8805 43.5607 13.424 43.4389C12.9676 43.3171 10.6473 41.0867 10.3354 40.6985C10.0235 40.3102 9.94743 38.3005 10.0768 37.6687C10.2061 37.0369 10.5901 36.8818 11.1114 37.4556Z" fill="#28839F" fill-opacity="0.2"/>
<path d="M22.0459 45.621C20.6259 45.6104 17.7756 45.4586 17.096 45.3571C16.4164 45.2556 15.8281 45.9864 15.9803 46.9405C16.1324 47.8946 16.7106 51.6906 17.9278 55.5273C19.145 59.3639 20.0376 61.739 21.2345 62.8149C22.4314 63.8908 22.7154 65.1494 23.3138 65.058C23.9123 64.9667 23.9148 62.5536 23.9224 61.602C23.929 60.7872 24.0036 47.9808 23.7931 47.5647C23.5733 47.13 23.1389 46.8529 22.884 46.5979C22.6118 46.3255 22.7255 45.626 22.0459 45.621Z" fill="#28839F" fill-opacity="0.2"/>
<path d="M10.645 41.4186C11.3103 42.174 12.8258 43.4993 13.4446 44.0575C14.0633 44.6158 14.8443 46.8995 15.0878 47.9957C15.3312 49.0919 15.2704 50.5129 14.9458 51.6497C14.6212 52.7865 15.0269 53.3549 14.824 54.2886C14.6212 55.2224 13.5257 55.872 13.0794 55.1818C12.6331 54.4916 10.9087 52.3399 9.83357 51.7309C8.75837 51.1219 9.0221 49.7618 9.30611 48.7265C9.59012 47.6912 8.90038 46.3514 9.10325 44.3417C9.30611 42.3321 9.54447 41.3907 9.69662 41.0481C9.84878 40.7055 10.1936 40.906 10.645 41.4186Z" fill="#28839F" fill-opacity="0.2"/>
<path d="M7.20225 15.6131C7.34443 18.2316 7.04028 22.8048 7.11505 23.7588C7.1962 24.794 8.04822 28.6104 8.45396 29.9705C8.85969 31.3306 8.89012 32.5841 9.16399 32.5993C9.43785 32.6145 10.0566 29.463 10.1175 28.4277C10.1783 27.3924 9.10313 22.825 8.90026 21.201C8.69739 19.577 7.8479 16.2783 7.59686 15.6084C7.25141 14.6866 7.12056 14.1085 7.20225 15.6131Z" fill="#28839F" fill-opacity="0.2"/>
<path d="M46.1671 17.6746C46.1962 17.6914 46.2328 17.6745 46.2385 17.6414C46.6515 15.2756 49.7075 12.2191 47.688 8.08696C45.6493 3.91536 40.7805 2.51468 39.472 2.72782C38.2314 2.9299 34.9668 5.07527 33.4383 5.53102C33.3887 5.54583 33.395 5.61972 33.4466 5.62501C35.6345 5.84891 37.4704 5.91489 39.6411 7.44245C41.8973 9.03021 41.4428 11.0406 41.9296 12.5935C42.4126 14.134 43.6789 16.2439 46.1671 17.6746Z" fill="#28839F" fill-opacity="0.2"/>
<path d="M48.6016 9.54785C48.9211 11.3748 48.5261 12.995 47.8104 14.8157C47.1934 16.3853 46.5932 17.3278 46.6237 18.0738C47.2627 18.6523 48.982 20.7838 49.3623 21.271C49.1341 19.9464 49.3928 17.952 49.5754 15.7596C49.7579 13.5672 49.5601 11.4966 48.6016 9.54785Z" fill="#28839F" fill-opacity="0.2"/>
<path d="M41.8835 13.6895C42.5327 16.1051 45.2739 17.2724 47.5054 24.6716C48.1426 26.7846 48.9306 33.4714 48.9052 36.0801C48.8957 37.0548 48.1241 35.8162 48.1241 35.8162C48.1241 35.8162 42.5961 27.879 41.9063 23.9002C41.2166 19.9215 41.8835 13.6895 41.8835 13.6895Z" fill="#28839F" fill-opacity="0.2"/>
<path d="M44.3003 17.0186C44.9945 17.8274 47.3838 22.2153 48.0315 24.845C48.5974 27.1427 49.5051 32.5005 49.571 36.919C49.5726 37.0275 49.7233 37.0533 49.7623 36.952C52.1996 30.623 50.7202 24.1695 49.7878 22.6264C48.9978 21.3189 47.1911 18.5004 44.3003 17.0186Z" fill="#28839F" fill-opacity="0.2"/>
<path d="M47.303 35.6336C47.6643 36.2866 46.0858 37.7753 45.4772 40.5868C45.3732 41.0671 44.2194 39.2368 44.3411 36.6486C44.4628 34.0604 41.9828 27.9096 41.785 26.2653C41.5872 24.621 41.6633 24.4688 41.6633 24.4688C44.0004 30.3802 45.2134 31.8579 47.303 35.6336Z" fill="#28839F"/>
<path d="M51.1982 32.7111C50.8062 34.7843 50.2244 37.8266 50.7113 39.8566C51.1982 41.8866 55.2961 56.6242 55.9047 58.4918C56.5133 60.3594 56.3915 58.4309 56.1887 56.7054C55.9858 54.9799 56.1481 45.5405 55.7424 42.3738C55.3366 39.207 53.9977 35.2891 52.8211 33.8884C51.6445 32.4877 51.3402 31.96 51.1982 32.7111Z" fill="#28839F" fill-opacity="0.2"/>
<path d="M48.1653 36.7908C49.983 38.155 50.3359 40.0895 50.7619 41.5816C51.188 43.0736 54.733 56.0299 55.0525 57.3849C55.3721 58.74 55.4786 60.3538 54.9917 59.7296C54.5048 59.1054 50.0468 46.0881 48.6927 43.2563C47.3386 40.4245 46.6631 39.5127 46.9177 38.3539C47.1205 37.4302 47.4958 36.2884 48.1653 36.7908Z" fill="#28839F" fill-opacity="0.2"/>
<path d="M46.8563 40.5052C47.6519 41.8485 52.07 53.6594 52.8206 56.5826C53.5712 59.5058 53.5915 60.6832 53.1046 60.399C52.6177 60.1148 47.1809 47.7319 46.3289 45.2553C45.4769 42.7788 45.6696 41.7638 45.9536 40.83C46.2376 39.8962 46.5318 39.9571 46.8563 40.5052Z" fill="#28839F" fill-opacity="0.2"/>
<path d="M27.8075 5.89431C29.6238 5.43484 33.4107 5.83797 35.0295 6.05671C37.8088 6.43226 39.897 7.64144 40.6286 8.97988C41.2778 10.1674 41.7437 12.9552 41.2372 13.527C39.6549 15.3134 40.3649 20.429 34.7861 23.0273C32.919 23.897 26.9352 23.342 26.0223 22.2762C25.1094 21.2105 24.7443 16.0036 25.0486 13.0195C25.3529 10.0355 26.002 6.35106 27.8075 5.89431Z" fill="#28839F" fill-opacity="0.2"/>
<path d="M31.4593 -0.499886C32.31 0.275673 33.8633 1.25604 35.1515 1.79399C36.4397 2.33193 37.6772 2.60599 37.7482 2.82928C37.8192 3.05258 36.4093 3.50932 35.4355 3.86457C34.4617 4.21982 33.1938 4.48371 32.7577 4.25027C32.3215 4.01682 31.5912 1.7737 31.3782 1.1038C31.1652 0.433912 30.9218 -0.357786 30.8305 -0.723178C30.7392 -1.08858 31.0029 -0.916032 31.4593 -0.499886Z" fill="#28839F" fill-opacity="0.2"/>
<path d="M30.4957 -1.13946C30.7954 -0.329692 31.3781 2.13387 31.7433 3.21484C32.1084 4.2958 32.2302 4.69165 31.7737 4.88958C31.3173 5.0875 30.3283 4.49372 30.1914 4.06743C30.0544 3.64114 30.0544 -1.06334 30.0696 -1.41352C30.0849 -1.76369 30.3435 -1.55054 30.4957 -1.13946Z" fill="#28839F" fill-opacity="0.2"/>
<path d="M29.7803 -0.469873C29.7905 0.301519 29.8716 2.6969 29.613 3.24499C29.3543 3.79309 28.198 4.50865 27.8176 4.73702C27.4372 4.96541 26.95 5.10997 26.9351 4.73702C26.925 4.48328 27.9259 3.06525 28.5631 1.45353C29.1109 0.0680708 29.4868 -1.13359 29.4912 -1.13976C29.689 -1.41382 29.7739 -0.961285 29.7803 -0.469873Z" fill="#28839F" fill-opacity="0.2"/>
<path d="M29.7627 -2.84003C29.6362 -2.16054 28.7505 0.334279 28.092 1.76041C27.7915 2.41128 26.8291 4.39085 26.4763 4.28521C26.1542 4.18878 27.4465 -0.0205469 27.8583 -1.48502C28.783 -4.77359 28.996 -6.98118 29.4584 -6.76803C29.826 -6.59856 29.8109 -3.09885 29.7627 -2.84003Z" fill="#28839F" fill-opacity="0.2"/>
<path d="M25.5964 23.3418C25.0401 24.3439 24.577 26.1889 24.5618 27.3307C24.5466 28.4726 25.0943 28.6248 25.8095 28.975C26.5245 29.3252 29.8566 31.0557 30.7695 31.8373C31.6976 32.6318 32.2301 33.1314 32.4127 31.5632C32.5953 29.9951 32.8235 28.2747 32.5344 26.5999C32.2453 24.9252 31.9563 24.2705 31.1955 24.0422C30.4348 23.8138 29.4838 23.8671 28.3047 23.6311C27.1427 23.3985 25.8247 22.9307 25.5964 23.3418Z" fill="#28839F" fill-opacity="0.2"/>
<path d="M25.733 29.5919C29.9703 31.1829 31.8555 33.6776 32.25 34.4156C32.7166 35.2885 32.475 37.3947 32.3413 37.76C32.2094 38.1203 31.2034 38.1591 30.3126 37.9681C29.0346 37.6941 26.7219 37.3997 25.9003 37.2982C25.0787 37.1967 24.5817 36.202 24.5411 35.2682C24.5006 34.3344 24.4701 31.391 24.5411 30.8023C24.6121 30.2136 24.9673 29.3044 25.733 29.5919Z" fill="#28839F" fill-opacity="0.2"/>
<path d="M25.6975 37.9285C26.9075 37.7969 30.7184 38.5984 31.398 38.9232C32.0776 39.248 32.6152 39.8976 32.6355 40.7502C32.6558 41.6028 32.4123 43.2471 32.1892 43.7343C31.966 44.2215 31.2154 44.668 30.1605 44.7087C29.1056 44.7492 26.9147 44.9117 25.9409 44.7696C24.9672 44.6274 24.7339 43.6734 24.6629 42.5975C24.5919 41.5216 24.5411 40.0904 24.6426 39.1262C24.744 38.162 25.2309 37.9793 25.6975 37.9285Z" fill="#28839F" fill-opacity="0.2"/>
<path d="M34.2585 23.5951C35.123 23.4408 37.5123 22.0409 38.3969 21.4027C39.774 20.4092 39.4004 25.0685 36.5711 25.016C35.4757 24.9957 34.6034 24.4299 34.1773 24.2091C33.7513 23.9884 33.8604 23.6661 34.2585 23.5951Z" fill="#28839F" fill-opacity="0.2"/>
<path d="M38.5784 25.2951C38.4909 26.0563 38.2978 26.6085 37.9254 27.2832C37.4968 28.0597 34.8596 26.2124 34.6834 25.7785C34.4997 25.326 35.0927 24.9563 35.6839 25.1276C36.491 25.3614 37.5171 25.219 38.061 24.8041C38.6113 24.3844 38.6218 24.917 38.5784 25.2951Z" fill="#28839F" fill-opacity="0.2"/>
<path d="M34.5429 26.164C34.988 26.5497 35.8615 27.1333 36.7338 27.5393C37.5415 27.9152 37.4895 28.2853 37.2714 28.5695C37.0533 28.8537 35.6891 29.6149 35.192 29.8382C34.695 30.0615 33.8734 29.8788 33.7162 29.4018C33.4503 28.595 33.6217 25.3655 34.5429 26.164Z" fill="#28839F" fill-opacity="0.2"/>
<path d="M38.2954 31.5742C38.1128 32.1324 36.9058 32.9546 36.1754 33.4215C35.4451 33.8884 34.4359 34.4314 34.0961 34.1624C33.7563 33.8934 33.7461 31.3255 33.9946 30.7622C34.2432 30.1989 34.796 30.2953 35.4553 30.0821C36.1517 29.857 36.3311 29.4808 37.0985 29.4173C37.7122 29.3666 38.5492 30.7981 38.2954 31.5742Z" fill="#28839F" fill-opacity="0.2"/>
<path d="M37.2352 33.071C36.7918 33.3853 34.527 34.5935 34.1314 34.8371C33.7358 35.0807 33.538 35.9333 33.4163 36.9229C33.2946 37.9125 33.369 39.0801 33.7814 39.2371C34.8617 39.6482 37.6317 36.643 37.9883 36.2378C38.4372 35.7278 38.5285 34.3727 38.5589 33.7257C38.5992 32.8692 37.9655 32.5534 37.2352 33.071Z" fill="#28839F" fill-opacity="0.2"/>
<path d="M37.2814 37.4556C36.5206 38.2929 34.7177 39.4729 34.284 39.8459C33.8504 40.2189 33.82 41.6805 33.8276 42.358C33.8352 43.0355 34.5123 43.5607 34.9687 43.4389C35.4251 43.3171 37.7454 41.0867 38.0573 40.6985C38.3692 40.3102 38.4453 38.3005 38.316 37.6687C38.1866 37.0369 37.8026 36.8818 37.2814 37.4556Z" fill="#28839F" fill-opacity="0.2"/>
<path d="M26.3468 45.621C27.7668 45.6104 30.6171 45.4586 31.2967 45.3571C31.9763 45.2556 32.5646 45.9864 32.4124 46.9405C32.2603 47.8946 31.6821 51.6906 30.4649 55.5273C29.2477 59.3639 28.3551 61.739 27.1582 62.8149C25.9613 63.8908 25.6773 65.1494 25.0788 65.058C24.4804 64.9667 24.4779 62.5536 24.4703 61.602C24.4637 60.7872 24.3891 47.9808 24.5996 47.5647C24.8194 47.13 25.2538 46.8529 25.5087 46.5979C25.7809 46.3255 25.6672 45.626 26.3468 45.621Z" fill="#28839F" fill-opacity="0.2"/>
<path d="M37.7478 41.4186C37.0825 42.174 35.567 43.4993 34.9482 44.0575C34.3295 44.6158 33.5485 46.8995 33.305 47.9957C33.0616 49.0919 33.1224 50.5129 33.447 51.6497C33.7716 52.7865 33.3659 53.3549 33.5687 54.2886C33.7716 55.2224 34.8671 55.872 35.3134 55.1818C35.7597 54.4916 37.484 52.3399 38.5592 51.7309C39.6344 51.1219 39.3707 49.7618 39.0867 48.7265C38.8027 47.6912 39.4924 46.3514 39.2895 44.3417C39.0867 42.3321 38.8483 41.3907 38.6962 41.0481C38.544 40.7055 38.1991 40.906 37.7478 41.4186Z" fill="#28839F" fill-opacity="0.2"/>
<path d="M41.1906 15.6131C41.0485 18.2316 41.3526 22.8048 41.2779 23.7588C41.1967 24.794 40.3447 28.6104 39.9389 29.9705C39.5332 31.3306 39.5028 32.5841 39.2289 32.5993C38.955 32.6145 38.3363 29.463 38.2754 28.4277C38.2146 27.3924 39.2898 22.825 39.4926 21.201C39.6955 19.577 40.545 16.2783 40.796 15.6084C41.1415 14.6866 41.2723 14.1085 41.1906 15.6131Z" fill="#28839F" fill-opacity="0.2"/>
</g>
<defs>
<clipPath id="clip0_4055_7015">
<rect width="61" height="48" fill="white"/>
</clipPath>
</defs>
</svg>
