<svg width="61" height="48" viewBox="0 0 61 48" fill="none" xmlns="http://www.w3.org/2000/svg">
<g clip-path="url(#clip0_4071_13061)">
<path d="M41.1208 33.9288L40.4816 31.9861C41.055 29.3863 40.914 26.6821 40.0687 24.1554C39.9311 23.744 39.7894 23.3338 39.6477 22.9426C38.8137 20.6407 32.1418 15.0502 32.1418 15.0502C32.1418 15.0502 31.975 14.3925 31.975 13.8992C31.975 13.406 29.9734 11.9261 29.9734 11.9261C29.9734 11.9261 30.7028 9.37884 30.9742 8.30877C31.141 7.65107 30.8074 6.17124 30.9742 5.67796C31.141 5.18469 32.1418 4.85583 32.1418 4.85583H35.6696C36.0643 4.85583 36.4565 4.73967 36.7636 4.49527C37.2551 4.10393 37.471 3.49507 37.3636 2.91297L37.1457 1.73175C36.7307 1.01582 36.7195 0.139582 37.116 -0.586424L37.4819 -1.25618C37.5848 -1.44464 37.5883 -1.67068 37.4912 -1.86213L37.4793 -1.88563L37.5095 -1.94047C37.605 -2.11389 37.6165 -2.32046 37.5408 -2.50313L36.9789 -3.85874L38.2023 -4.42152C38.866 -4.72684 39.0839 -5.55221 38.6555 -6.13779L35.8116 -10.0247C35.8116 -10.0247 36.6453 -10.929 36.6453 -11.9156C36.6453 -12.9021 34.246 -17.095 32.9758 -18.4926C31.3316 -20.3017 27.0418 -20.959 24.3857 -20.959C18.2597 -20.959 13.2937 -16.0635 13.2937 -10.0247C13.2937 -8.48706 13.6191 -7.02538 14.2002 -5.69794L17.13 0.322489V7.48664C17.13 9.29533 13.9609 14.2281 13.9609 14.2281L12.1835 17.7323C11.5939 18.8948 11.2176 20.1508 11.072 21.4425L10.1191 29.8973C9.79884 32.7383 10.4764 35.6017 12.0387 38.0099L18.4644 48.4286H41.6492V42.3449C42.1963 39.5405 42.0145 36.6452 41.1208 33.9288Z" fill="white" stroke="#28839F" stroke-width="0.7" stroke-miterlimit="10"/>
<path d="M20.7995 14.3926C16.2857 14.3926 12.6265 19.3984 12.6265 25.5735C12.6265 27.6849 13.0519 29.8168 13.9758 31.7281C14.403 32.612 15.0543 33.3605 15.407 34.2691C15.771 35.2067 16.186 36.5231 16.0023 37.5372C15.8058 38.6219 15.6288 39.6625 15.6288 40.7829C15.6288 46.8217 18.7279 51.7172 22.5509 51.7172C24.2094 51.7172 25.8628 51.0389 27.4277 50.5635C27.7197 50.4749 28.0211 50.3811 28.2505 50.1822C28.6511 49.8348 28.7361 49.2616 28.7955 48.7389C29.0415 46.5745 29.2875 44.4102 29.5334 42.2459C29.5841 41.8 29.6858 41.3362 29.6139 40.8889C29.5553 40.5242 29.4696 40.1956 29.4467 39.8202C29.3824 38.7669 29.2349 37.722 28.9733 36.6981C28.6861 35.5741 28.2946 34.4301 28.1376 33.2807C28.1055 33.0459 28.0861 32.8115 28.0772 32.5777C28.0352 31.4711 28.1993 30.3849 28.89 29.5117C29.5808 28.6385 30.5292 28.0054 31.4612 27.3872" fill="white"/>
<path d="M20.7995 14.3926C16.2857 14.3926 12.6265 19.3984 12.6265 25.5735C12.6265 27.6849 13.0519 29.8168 13.9758 31.7281C14.403 32.612 15.0543 33.3605 15.407 34.2691C15.771 35.2067 16.186 36.5231 16.0023 37.5372C15.8058 38.6219 15.6288 39.6625 15.6288 40.7829C15.6288 46.8217 18.7279 51.7172 22.5509 51.7172C24.2094 51.7172 25.8628 51.0389 27.4277 50.5635C27.7197 50.4749 28.0211 50.3811 28.2505 50.1822C28.6511 49.8348 28.7361 49.2616 28.7955 48.7389C29.0415 46.5745 29.2875 44.4102 29.5334 42.2459C29.5841 41.8 29.6858 41.3362 29.6139 40.8889C29.5553 40.5242 29.4696 40.1956 29.4467 39.8202C29.3824 38.7669 29.2349 37.722 28.9733 36.6981C28.6861 35.5741 28.2946 34.4301 28.1376 33.2807C28.1055 33.0459 28.0861 32.8115 28.0772 32.5777C28.0352 31.4711 28.1993 30.3849 28.89 29.5117C29.5808 28.6385 30.5292 28.0054 31.4612 27.3872" fill="none" stroke="#28839F" stroke-width="0.7" stroke-miterlimit="10"/>
<path d="M35.9277 32.0605C37.4033 32.6371 39.1283 32.5583 40.5435 31.8496" stroke="#28839F" stroke-width="0.5" stroke-miterlimit="10"/>
<path d="M20.4472 15.959C19.6971 15.6267 18.7824 16.1236 18.3873 16.8346C17.9922 17.5456 17.9857 18.3973 18.0082 19.2077C18.0444 20.5107 18.1306 21.8205 18.4138 23.0969C18.6763 24.2806 19.3657 25.3843 19.8139 26.524C20.807 29.049 21.6187 31.6434 22.2404 34.2813C22.309 34.5719 22.4885 34.9407 22.7846 34.8787C22.947 34.8447 23.0465 34.6871 23.1241 34.5424C23.7398 33.3936 24.3197 32.0162 24.3268 30.7084C24.3348 29.2246 24.7301 27.6787 24.8543 26.1885C24.9685 24.8179 25.044 23.4358 24.8813 22.0699C24.7186 20.7041 24.3066 19.346 23.5158 18.2131C22.725 17.0801 21.7197 16.5227 20.4472 15.959Z" fill="#28839F" fill-opacity="0.2"/>
<path d="M14.2657 22.9306C13.9133 25.0273 13.8337 27.2156 14.4748 29.2447C14.913 30.6314 15.7873 31.8317 16.8854 32.7874C17.436 33.2665 18.0386 33.6857 18.6694 34.0557C19.1534 34.3395 20.0678 34.9876 20.6578 34.9073C21.6618 34.7708 21.0286 33.2861 20.9013 32.684C20.7424 31.9326 20.7201 31.0312 20.4009 30.3233C19.8793 28.5878 18.8946 27.0302 18.0975 25.3997C17.3003 23.7691 16.6759 21.9625 16.9538 20.1733C17.0173 19.7646 17.1277 19.3574 17.1036 18.9446C17.0731 18.4193 16.805 17.8045 16.2879 18.2639C15.8656 18.6392 15.5385 19.1593 15.2777 19.6516C14.7385 20.6694 14.455 21.8041 14.2657 22.9306Z" fill="#28839F"/>
<path d="M27.3978 17.3371C28.6252 18.7508 29.2177 20.6187 29.3599 22.4742C29.4929 24.2081 29.2435 25.9662 28.6573 27.6051C28.2613 28.7121 27.7178 29.7592 27.1516 30.7893C26.5786 31.8316 26.1236 32.804 25.2229 33.6168C25.0169 33.8027 24.6957 33.9805 24.4834 33.8016C24.2948 33.6427 24.3698 33.3446 24.4604 33.117C24.8287 32.1915 25.2507 31.2733 25.6188 30.3573C25.9721 29.4782 26.0499 28.3789 26.1437 27.4447C26.3437 25.452 26.2418 23.4294 25.8315 21.4679C25.5903 20.3153 25.2418 19.1762 24.6816 18.137C24.3193 17.4647 23.8665 16.8358 23.3188 16.2976C23.1306 16.1128 22.7042 15.8848 22.713 15.5856C22.7243 15.2041 23.1036 15.2472 23.3888 15.2651C24.9343 15.3622 26.4015 16.1897 27.3978 17.3371Z" fill="#28839F" fill-opacity="0.2"/>
<path opacity="0.2" d="M24.5437 7.17466C25.3143 8.10361 26.1572 8.97586 26.8671 9.95072C27.5769 10.9256 28.1575 12.0256 28.3152 13.2155C28.6622 12.7994 28.6714 12.2111 28.6638 11.6725C28.631 9.3418 28.5542 6.86463 27.2412 4.92607C26.5227 3.86528 25.4891 3.05728 24.4729 2.26765C23.8821 1.80855 23.2913 1.34942 22.7005 0.890311C22.278 0.562052 21.1062 -0.0596426 20.8701 0.844945C20.7328 1.37101 21.4375 2.34913 21.6651 2.79633C22.4578 4.35399 23.4246 5.82556 24.5437 7.17466Z" fill="#28839F"/>
<path opacity="0.2" d="M17.5621 35.1973C17.1473 35.9734 17.0389 36.8706 16.9899 37.7465C16.7756 41.5783 17.5824 45.4611 19.3075 48.9013C19.4908 49.267 19.6895 49.6346 19.9882 49.9168C20.3206 50.2309 20.7529 50.4172 21.1756 50.5972C22.1553 51.0147 23.1351 51.4321 24.1149 51.8495C24.3511 51.9501 24.615 52.0523 24.8583 51.9698C25.1446 51.8727 25.2868 51.5609 25.374 51.2751C26.0092 49.1926 25.4132 46.9575 24.7651 44.8789C24.0889 42.7107 23.3549 40.56 22.564 38.4299C22.2766 37.656 21.9629 36.8561 21.355 36.2904C20.3746 35.3781 18.8927 35.2936 17.5621 35.1973Z" fill="#28839F"/>
<path opacity="0.2" d="M25.884 34.515C25.6075 34.8251 25.4698 35.2308 25.37 35.6317C25.0321 36.99 25.0554 38.4089 25.1418 39.8048C25.3082 42.4913 25.7016 45.1641 26.3167 47.7865C26.3972 48.1298 26.5806 48.5518 26.9378 48.5397C27.2143 48.5303 27.3929 48.2535 27.5035 48.0035C28.2196 46.3852 28.1916 44.5552 28.1513 42.7901C28.1134 41.1268 28.0754 39.4635 28.0375 37.8003C28.0185 36.9669 27.5479 32.6491 25.884 34.515Z" fill="#28839F"/>
<path opacity="0.2" d="M38.2028 34.2123C37.7031 34.5373 37.3823 35.084 37.2366 35.6564C37.0909 36.2287 37.105 36.829 37.1622 37.4164C37.2176 37.9841 37.3166 38.5606 37.5938 39.0612C37.871 39.5617 38.3545 39.9796 38.9279 40.0551C39.5281 40.1342 40.136 39.8205 40.51 39.3512C40.8841 38.8819 41.0499 38.279 41.0958 37.6838C41.2065 36.2495 40.3024 32.847 38.2028 34.2123Z" fill="#28839F"/>
<path opacity="0.2" d="M40.1713 41.6592C39.5112 41.7475 39.0193 42.2883 38.6203 42.814C37.4423 44.3661 36.5211 46.1072 35.904 47.9477C35.7838 48.3063 35.6857 48.7348 35.92 49.0336C36.54 49.8246 37.7399 50.0343 38.6808 49.6618C39.6217 49.2892 40.3041 48.4317 40.6468 47.491C40.9896 46.5503 41.0293 45.5287 40.9801 44.5303C40.9287 43.485 40.7244 42.3346 40.1713 41.6592Z" fill="#28839F"/>
</g>
<defs>
<clipPath id="clip0_4071_13061">
<rect width="61" height="48" fill="white"/>
</clipPath>
</defs>
</svg>
