<svg width="61" height="48" viewBox="0 0 61 48" fill="none" xmlns="http://www.w3.org/2000/svg">
<path d="M43.1208 33.9288L42.4816 31.9861C43.055 29.3863 42.914 26.6821 42.0687 24.1554C41.9311 23.744 41.7894 23.3338 41.6477 22.9426C40.8137 20.6407 34.1418 15.0502 34.1418 15.0502C34.1418 15.0502 33.975 14.3925 33.975 13.8992C33.975 13.406 31.9734 11.9261 31.9734 11.9261C31.9734 11.9261 32.7028 9.37884 32.9742 8.30877C33.141 7.65107 32.8074 6.17124 32.9742 5.67796C33.141 5.18469 34.1418 4.85583 34.1418 4.85583H37.6696C38.0643 4.85583 38.4565 4.73967 38.7636 4.49527C39.2551 4.10393 39.471 3.49507 39.3636 2.91297L39.1457 1.73175C38.7307 1.01582 38.7195 0.139582 39.116 -0.586424L39.4819 -1.25618C39.5848 -1.44464 39.5883 -1.67068 39.4912 -1.86213L39.4793 -1.88563L39.5095 -1.94047C39.605 -2.11389 39.6165 -2.32046 39.5408 -2.50313L38.9789 -3.85874L40.2023 -4.42152C40.866 -4.72684 41.0839 -5.55221 40.6555 -6.13779L37.8116 -10.0247C37.8116 -10.0247 38.6453 -10.929 38.6453 -11.9156C38.6453 -12.9021 36.246 -17.095 34.9758 -18.4926C33.3316 -20.3017 29.0418 -20.959 26.3857 -20.959C20.2597 -20.959 15.2937 -16.0635 15.2937 -10.0247C15.2937 -8.48706 15.6191 -7.02538 16.2002 -5.69794L19.13 0.322489V7.48664C19.13 9.29533 15.9609 14.2281 15.9609 14.2281L14.1835 17.7323C13.5939 18.8948 13.2176 20.1508 13.072 21.4425L12.1191 29.8973C11.7988 32.7383 12.4764 35.6017 14.0387 38.0099L20.4644 48.4286H43.6492V42.3449C44.1963 39.5405 44.0145 36.6452 43.1208 33.9288Z" fill="white" stroke="#28839F" stroke-width="0.7" stroke-miterlimit="10"/>
<path d="M22.7995 14.3926C18.2857 14.3926 14.6265 19.3984 14.6265 25.5735C14.6265 27.6849 15.0519 29.8168 15.9758 31.7281C16.403 32.612 17.0543 33.3605 17.407 34.2691C17.771 35.2067 18.186 36.5231 18.0023 37.5372C17.8058 38.6219 17.6288 39.6625 17.6288 40.7829C17.6288 46.8217 20.7279 51.7172 24.5509 51.7172C26.2094 51.7172 27.8628 51.0389 29.4277 50.5635C29.7197 50.4749 30.0211 50.3811 30.2505 50.1822C30.6511 49.8348 30.7361 49.2616 30.7955 48.7389C31.0415 46.5745 31.2875 44.4102 31.5334 42.2459C31.5841 41.8 31.6858 41.3362 31.6139 40.8889C31.5553 40.5242 31.4696 40.1956 31.4467 39.8202C31.3824 38.7669 31.2349 37.722 30.9733 36.6981C30.6861 35.5741 30.2946 34.4301 30.1376 33.2807C30.1055 33.0459 30.0861 32.8115 30.0772 32.5777C30.0352 31.4711 30.1993 30.3849 30.89 29.5117C31.5808 28.6385 32.5292 28.0054 33.4612 27.3872" fill="white"/>
<path d="M22.7995 14.3926C18.2857 14.3926 14.6265 19.3984 14.6265 25.5735C14.6265 27.6849 15.0519 29.8168 15.9758 31.7281C16.403 32.612 17.0543 33.3605 17.407 34.2691C17.771 35.2067 18.186 36.5231 18.0023 37.5372C17.8058 38.6219 17.6288 39.6625 17.6288 40.7829C17.6288 46.8217 20.7279 51.7172 24.5509 51.7172C26.2094 51.7172 27.8628 51.0389 29.4277 50.5635C29.7197 50.4749 30.0211 50.3811 30.2505 50.1822C30.6511 49.8348 30.7361 49.2616 30.7955 48.7389C31.0415 46.5745 31.2875 44.4102 31.5334 42.2459C31.5841 41.8 31.6858 41.3362 31.6139 40.8889C31.5553 40.5242 31.4696 40.1956 31.4467 39.8202C31.3824 38.7669 31.2349 37.722 30.9733 36.6981C30.6861 35.5741 30.2946 34.4301 30.1376 33.2807C30.1055 33.0459 30.0861 32.8115 30.0772 32.5777C30.0352 31.4711 30.1993 30.3849 30.89 29.5117C31.5808 28.6385 32.5292 28.0054 33.4612 27.3872" stroke="#28839F" stroke-width="0.7" stroke-miterlimit="10"/>
<path d="M37.9277 32.0605C39.4033 32.6371 41.1283 32.5583 42.5435 31.8496" stroke="#28839F" stroke-width="0.5" stroke-miterlimit="10"/>
<path d="M22.4472 15.959C21.6971 15.6267 20.7824 16.1236 20.3873 16.8346C19.9922 17.5456 19.9857 18.3973 20.0082 19.2077C20.0444 20.5107 20.1306 21.8205 20.4138 23.0969C20.6763 24.2806 21.3657 25.3843 21.8139 26.524C22.807 29.049 23.6187 31.6434 24.2404 34.2813C24.309 34.5719 24.4885 34.9407 24.7846 34.8787C24.947 34.8447 25.0465 34.6871 25.1241 34.5424C25.7398 33.3936 26.3197 32.0162 26.3268 30.7084C26.3348 29.2246 26.7301 27.6787 26.8543 26.1885C26.9685 24.8179 27.044 23.4358 26.8813 22.0699C26.7186 20.7041 26.3066 19.346 25.5158 18.2131C24.725 17.0801 23.7197 16.5227 22.4472 15.959Z" fill="#28839F" fill-opacity="0.2"/>
<path d="M16.2657 22.9306C15.9133 25.0273 15.8337 27.2156 16.4748 29.2447C16.913 30.6314 17.7873 31.8317 18.8854 32.7874C19.436 33.2665 20.0386 33.6857 20.6694 34.0557C21.1534 34.3395 22.0678 34.9876 22.6578 34.9073C23.6618 34.7708 23.0286 33.2861 22.9013 32.684C22.7424 31.9326 22.7201 31.0312 22.4009 30.3233C21.8793 28.5878 20.8946 27.0302 20.0975 25.3997C19.3003 23.7691 18.6759 21.9625 18.9538 20.1733C19.0173 19.7646 19.1277 19.3574 19.1036 18.9446C19.0731 18.4193 18.805 17.8045 18.2879 18.2639C17.8656 18.6392 17.5385 19.1593 17.2777 19.6516C16.7385 20.6694 16.455 21.8041 16.2657 22.9306Z" fill="#28839F" fill-opacity="0.2"/>
<path d="M29.3978 17.3371C30.6252 18.7508 31.2177 20.6187 31.3599 22.4742C31.4929 24.2081 31.2435 25.9662 30.6573 27.6051C30.2613 28.7121 29.7178 29.7592 29.1516 30.7893C28.5786 31.8316 28.1236 32.804 27.2229 33.6168C27.0169 33.8027 26.6957 33.9805 26.4834 33.8016C26.2948 33.6427 26.3698 33.3446 26.4604 33.117C26.8287 32.1915 27.2507 31.2733 27.6188 30.3573C27.9721 29.4782 28.0499 28.3789 28.1437 27.4447C28.3437 25.452 28.2418 23.4294 27.8315 21.4679C27.5903 20.3153 27.2418 19.1762 26.6816 18.137C26.3193 17.4647 25.8665 16.8358 25.3188 16.2976C25.1306 16.1128 24.7042 15.8848 24.713 15.5856C24.7243 15.2041 25.1036 15.2472 25.3888 15.2651C26.9343 15.3622 28.4015 16.1897 29.3978 17.3371Z" fill="#28839F"/>
<path opacity="0.2" d="M26.5437 7.17466C27.3143 8.10361 28.1572 8.97586 28.8671 9.95072C29.5769 10.9256 30.1575 12.0256 30.3152 13.2155C30.6622 12.7994 30.6714 12.2111 30.6638 11.6725C30.631 9.3418 30.5542 6.86463 29.2412 4.92607C28.5227 3.86528 27.4891 3.05728 26.4729 2.26765C25.8821 1.80855 25.2913 1.34942 24.7005 0.890311C24.278 0.562052 23.1062 -0.0596426 22.8701 0.844945C22.7328 1.37101 23.4375 2.34913 23.6651 2.79633C24.4578 4.35399 25.4246 5.82556 26.5437 7.17466Z" fill="#28839F"/>
<path opacity="0.2" d="M19.5621 35.1973C19.1473 35.9734 19.0389 36.8706 18.9899 37.7465C18.7756 41.5783 19.5824 45.4611 21.3075 48.9013C21.4908 49.267 21.6895 49.6346 21.9882 49.9168C22.3206 50.2309 22.7529 50.4172 23.1756 50.5972C24.1553 51.0147 25.1351 51.4321 26.1149 51.8495C26.3511 51.9501 26.615 52.0523 26.8583 51.9698C27.1446 51.8727 27.2868 51.5609 27.374 51.2751C28.0092 49.1926 27.4132 46.9575 26.7651 44.8789C26.0889 42.7107 25.3549 40.56 24.564 38.4299C24.2766 37.656 23.9629 36.8561 23.355 36.2904C22.3746 35.3781 20.8927 35.2936 19.5621 35.1973Z" fill="#28839F"/>
<path opacity="0.2" d="M27.884 34.515C27.6075 34.8251 27.4698 35.2308 27.37 35.6317C27.0321 36.99 27.0554 38.4089 27.1418 39.8048C27.3082 42.4913 27.7016 45.1641 28.3167 47.7865C28.3972 48.1298 28.5806 48.5518 28.9378 48.5397C29.2143 48.5303 29.3929 48.2535 29.5035 48.0035C30.2196 46.3852 30.1916 44.5552 30.1513 42.7901C30.1134 41.1268 30.0754 39.4635 30.0375 37.8003C30.0185 36.9669 29.5479 32.6491 27.884 34.515Z" fill="#28839F"/>
<path opacity="0.2" d="M40.2028 34.2123C39.7031 34.5373 39.3823 35.084 39.2366 35.6564C39.0909 36.2287 39.105 36.829 39.1622 37.4164C39.2176 37.9841 39.3166 38.5606 39.5938 39.0612C39.871 39.5617 40.3545 39.9796 40.9279 40.0551C41.5281 40.1342 42.136 39.8205 42.51 39.3512C42.8841 38.8819 43.0499 38.279 43.0958 37.6838C43.2065 36.2495 42.3024 32.847 40.2028 34.2123Z" fill="#28839F"/>
<path opacity="0.2" d="M42.1713 41.6592C41.5112 41.7475 41.0193 42.2883 40.6203 42.814C39.4423 44.3661 38.5211 46.1072 37.904 47.9477C37.7838 48.3063 37.6857 48.7348 37.92 49.0336C38.54 49.8246 39.7399 50.0343 40.6808 49.6618C41.6217 49.2892 42.3041 48.4317 42.6468 47.491C42.9896 46.5503 43.0293 45.5287 42.9801 44.5303C42.9287 43.485 42.7244 42.3346 42.1713 41.6592Z" fill="#28839F"/>
</svg>
