<svg width="61" height="48" viewBox="0 0 61 48" fill="none" xmlns="http://www.w3.org/2000/svg">
<g clip-path="url(#clip0_4055_5987)">
<path d="M38.8058 159.233C38.6222 159.233 38.4739 159.126 38.3305 159.022C38.2116 158.936 38.0992 158.855 37.9914 158.855C37.9728 158.855 37.9546 158.857 37.936 158.862C37.8132 158.894 37.7456 158.946 37.6674 159.008C37.5567 159.094 37.4314 159.192 37.1771 159.192C37.1603 159.192 37.1427 159.192 37.1246 159.191C36.8874 159.179 36.7392 159.079 36.6084 158.991C36.4879 158.909 36.3928 158.845 36.2338 158.845C36.2243 158.845 36.2145 158.845 36.2045 158.846C36.0376 158.854 35.9414 158.91 35.8194 158.982C35.6669 159.071 35.494 159.173 35.171 159.191C35.1486 159.192 35.1266 159.193 35.1047 159.193C34.8033 159.193 34.5441 159.077 34.3153 158.976C34.1232 158.89 33.9416 158.809 33.7608 158.805L33.7459 158.805C33.5611 158.805 33.334 158.88 33.0936 158.96C32.7948 159.059 32.4561 159.171 32.1046 159.171L32.0778 159.171C31.2305 159.157 30.749 158.721 30.6467 157.874C30.5924 157.424 30.7415 156.938 30.8857 156.468C31.0525 155.924 31.2249 155.361 31.096 154.845C30.8236 153.755 30.6672 152.353 30.7067 151.356C30.7337 150.672 30.5211 149.75 30.3336 148.937C30.2434 148.545 30.1581 148.176 30.1 147.843C29.9787 147.148 30.4867 145.931 30.9349 144.856C31.1803 144.268 31.412 143.712 31.4588 143.414C31.5085 143.095 31.5116 142.021 31.4677 140.22C31.3824 139.785 31.3225 138.335 31.2902 137.553C31.2819 137.353 31.2755 137.197 31.2709 137.113C31.2667 137.035 31.2487 136.654 31.2887 136.456L31.2187 135.926C31.0793 134.864 30.9476 133.861 30.8329 133.432C30.8329 133.432 30.6511 132.756 30.5987 132.559C30.541 132.468 30.4894 132.356 30.4414 132.217C30.3429 131.932 30.24 131.537 30.1312 131.119C29.9303 130.348 29.7027 129.474 29.4146 128.916C29.1489 128.402 28.9949 127.725 28.944 126.845C28.8628 126.437 28.794 125.97 28.7395 125.454C28.4781 122.978 28.7667 119.501 29.0662 118.044C29.2168 117.311 29.4525 116.424 29.6604 115.641C29.859 114.893 30.0466 114.187 30.1202 113.764C30.196 113.33 30.2129 113.084 30.2231 112.938C30.2297 112.842 30.2341 112.778 30.2528 112.728C30.2276 112.593 30.2004 112.441 30.1714 112.278C30.1231 112.008 30.0688 111.703 30.0087 111.398C29.881 111.247 29.7953 110.945 29.68 110.54C29.5778 110.18 29.4507 109.733 29.2635 109.299C28.8274 108.288 28.2886 104.95 28.2381 103.362C28.1867 101.748 27.9153 99.1601 27.593 97.8802C27.3057 96.739 27.0018 93.9992 27.0309 92.8149C27.0055 92.5582 26.9801 92.3166 26.9546 92.1045C26.9278 91.8805 26.9096 91.5969 26.9005 91.261C26.843 91.1308 26.7546 90.9469 26.6279 90.7683C26.4621 90.5346 26.3089 90.2144 26.1726 89.8168C25.9593 89.2717 25.7103 88.225 25.6309 87.5365C25.5015 86.4142 24.6802 81.4649 24.2056 79.8871C23.6641 78.0865 24.0349 74.456 24.0789 74.048C24.0936 73.9119 24.1072 73.7773 24.1205 73.6452C24.159 73.2614 24.1956 72.8978 24.253 72.5741C24.0991 72.3351 23.9719 72.0836 23.8659 71.8085C23.6216 71.7412 23.3776 71.7228 23.276 71.7228H23.1137C23.0122 71.7228 22.7683 71.7412 22.5239 71.8085C22.4179 72.0836 22.2907 72.3352 22.1367 72.5741C22.1943 72.8983 22.2308 73.2624 22.2694 73.6467C22.2827 73.7784 22.2961 73.9125 22.3108 74.048C22.3549 74.456 22.7259 78.0861 22.1841 79.8871C21.7095 81.4651 20.8882 86.4143 20.7588 87.5366C20.6795 88.2249 20.4306 89.2716 20.2153 89.8221C20.0808 90.2146 19.9276 90.5348 19.7619 90.7683C19.6347 90.9475 19.5465 91.1312 19.4892 91.261C19.4802 91.5964 19.462 91.8801 19.4351 92.1045C19.4097 92.3166 19.3842 92.5583 19.3589 92.8148C19.388 93.9991 19.0841 96.739 18.7968 97.8802C18.4746 99.1598 18.2031 101.748 18.1517 103.362C18.1011 104.95 17.5623 108.288 17.1263 109.299C16.939 109.733 16.8119 110.18 16.7097 110.54C16.5945 110.945 16.5088 111.247 16.381 111.398C16.3209 111.703 16.2665 112.008 16.2184 112.278C16.1892 112.441 16.1621 112.593 16.1369 112.728C16.1556 112.778 16.16 112.842 16.1667 112.938C16.1768 113.084 16.1938 113.33 16.2695 113.764C16.3431 114.187 16.5307 114.893 16.7294 115.641C16.9373 116.424 17.173 117.311 17.3236 118.044C17.6231 119.501 17.9117 122.978 17.6502 125.454C17.5956 125.971 17.5266 126.443 17.4452 126.857C17.3934 127.731 17.2397 128.405 16.9752 128.916C16.687 129.474 16.4594 130.348 16.2586 131.119C16.1497 131.537 16.0469 131.932 15.9483 132.217C15.9004 132.356 15.8488 132.468 15.7911 132.559C15.7388 132.755 15.5569 133.432 15.5569 133.432C15.4421 133.861 15.3104 134.865 15.171 135.926L15.1011 136.456C15.1411 136.654 15.1231 137.035 15.1188 137.113C15.1142 137.197 15.1078 137.354 15.0995 137.553C15.0672 138.336 15.0073 139.785 14.9221 140.22C14.8782 142.021 14.8812 143.096 14.931 143.414C14.9777 143.712 15.2095 144.268 15.4549 144.856C15.9031 145.93 16.4111 147.148 16.2897 147.843C16.2317 148.175 16.1464 148.545 16.0561 148.937C15.8686 149.75 15.656 150.672 15.6831 151.356C15.7226 152.353 15.5661 153.755 15.2938 154.845C15.1648 155.361 15.3373 155.924 15.5041 156.468C15.6483 156.938 15.7974 157.424 15.7431 157.874C15.6407 158.721 15.1592 159.157 14.3119 159.171L14.2852 159.171C13.9337 159.171 13.595 159.059 13.2961 158.96C13.0557 158.88 12.8286 158.805 12.6439 158.805L12.629 158.805C12.4481 158.809 12.2665 158.89 12.0744 158.976C11.8457 159.077 11.5865 159.193 11.285 159.193C11.2631 159.193 11.241 159.192 11.2187 159.191C10.8957 159.173 10.7229 159.071 10.5703 158.982C10.4485 158.91 10.3522 158.854 10.1852 158.846C10.1752 158.845 10.1655 158.845 10.1559 158.845C9.99696 158.845 9.90181 158.909 9.78135 158.991C9.65059 159.079 9.50234 159.179 9.26518 159.191C9.24698 159.192 9.22951 159.192 9.21275 159.192C8.95833 159.192 8.83294 159.094 8.72231 159.008C8.6441 158.946 8.57652 158.894 8.4538 158.862C8.43513 158.857 8.41699 158.855 8.39832 158.855C8.29054 158.855 8.17817 158.936 8.05924 159.022C7.91584 159.126 7.76753 159.233 7.58394 159.233C7.56999 159.233 7.55589 159.232 7.5418 159.231C7.31004 159.209 7.18963 159.112 7.08345 159.026C7.01847 158.974 6.96239 158.929 6.87952 158.899C6.86909 158.895 6.85753 158.893 6.84437 158.893C6.77008 158.893 6.66065 158.95 6.54483 159.01C6.37214 159.1 6.15718 159.211 5.91138 159.211C5.38339 159.211 5.11315 158.949 4.94743 158.275C4.78099 157.599 4.92731 156.5 5.46028 155.834C5.59789 155.661 5.8169 155.399 6.07053 155.095C6.71866 154.318 7.60639 153.254 7.9888 152.677C8.5223 151.871 8.73866 150.429 8.42549 149.765C8.02528 148.917 7.94122 148.125 8.17578 147.411L8.25459 147.174C8.47392 146.514 8.70078 145.832 8.79878 145.002C8.87938 144.321 8.84311 142.668 8.7752 141.415C8.71161 141.134 8.65984 140.838 8.62144 140.534C8.45765 139.236 7.67855 133.331 7.13143 130.227C6.95487 129.779 6.80678 129.216 6.67593 128.719C6.6158 128.49 6.55891 128.275 6.50476 128.09C6.19378 127.032 5.54932 123.385 5.36446 122.042C5.17057 120.632 5.31263 117.955 5.40452 117.076C5.47762 116.377 5.67317 114.983 6.16117 113.496C6.52397 112.39 6.53911 111.552 6.55022 110.94C6.55261 110.807 6.55487 110.683 6.56018 110.568C6.57027 110.352 6.62337 110.13 6.72238 109.892C6.7059 109.471 6.69315 108.915 6.6863 108.321C6.61102 107.524 6.59094 105.342 6.64643 103.926C6.68716 102.887 7.03481 101.414 7.31408 100.231C7.43249 99.7292 7.53489 99.2956 7.59974 98.9583C7.62638 98.6089 7.60319 98.1392 7.53084 97.5616L7.52971 97.5588C6.55752 95.1642 5.57117 92.6566 5.1293 90.6355C4.90742 89.6207 4.86471 87.8425 4.82338 86.1228C4.80577 85.3907 4.78756 84.6337 4.75566 83.9578C4.36675 81.0803 4.01278 77.7508 3.98388 76.699C3.96108 75.8741 4.10348 74.1385 4.32236 72.5723L4.33711 72.298C4.41785 70.8382 4.5399 68.6321 4.83574 67.3932C5.23389 65.7257 5.98853 61.2896 5.95783 59.8765C5.92667 58.4401 6.66031 55.3672 7.20192 53.7011C7.31382 53.2283 7.51276 52.4894 7.68824 51.8376C7.75562 51.5873 7.81889 51.3522 7.87137 51.154C7.63064 50.6931 7.825 45.5946 7.99683 45.0394C8.04214 44.62 8.09112 44.2308 8.14261 43.8801C8.10774 43.831 8.11584 43.7913 8.22548 43.3635C8.30329 42.9113 8.38747 42.5361 8.47346 42.2592C8.51732 42.1015 8.57294 41.9394 8.63188 41.7678C8.7639 41.3834 8.90033 40.9859 8.92645 40.5587C8.86319 39.8908 8.86438 39.1199 8.9291 38.714C8.93182 38.2296 8.93209 37.6067 8.91116 37.0478C8.83441 36.8439 8.75382 36.6428 8.66584 36.4232C8.56624 36.1747 8.45727 35.9027 8.33381 35.577C7.8946 34.4184 7.34255 32.3709 6.80865 30.3908C6.52505 29.339 6.25714 28.3455 6.01793 27.5286C5.94397 27.2763 5.87235 27.012 5.80344 26.7377C5.78604 26.9044 5.76557 27.0851 5.74218 27.2794C5.66775 27.8982 5.28057 29.1301 4.83211 30.5564C4.06544 32.995 3.11133 36.0301 3.18708 37.6397C3.28031 39.6231 2.63244 41.1924 2.2432 41.6389C2.14911 42.0561 2.07282 42.3523 2.01037 42.543C1.99164 42.6635 1.97329 42.7845 1.95489 42.9058C1.89282 43.3152 1.82858 43.7387 1.74996 44.1418C1.66159 44.7563 1.47865 45.4635 1.19173 46.2972C0.903292 47.1358 0.0534325 49.2054 -1.08189 51.8342C-1.2324 52.3215 -1.39958 52.8559 -1.57639 53.4211C-2.71702 57.0677 -4.27926 62.0619 -4.31854 63.8349C-4.32983 64.343 -4.04524 65.1206 -3.57519 66.3406C-3.05365 67.6945 -3.14389 70.3533 -4.33847 72.614C-4.84666 73.5759 -5.29677 75.0464 -5.732 76.4685C-6.1548 77.8498 -6.55408 79.1544 -6.94845 79.7412C-7.18328 80.0906 -7.42641 80.2678 -7.67093 80.2678C-7.92098 80.2678 -8.10902 80.0863 -8.23613 79.9C-8.43381 80.9118 -8.89196 82.7257 -9.65392 82.8643C-9.70848 82.8743 -9.76216 82.8793 -9.81347 82.8793C-10.1886 82.8793 -10.4618 82.6199 -10.5992 82.1506C-10.8364 82.9595 -11.271 84.0442 -11.8956 84.0442L-11.9158 84.0438C-12.7951 84.0117 -12.821 82.8567 -12.781 81.5553C-12.8506 81.5941 -12.9295 81.6143 -13.0156 81.6143C-13.5914 81.6143 -14.2834 80.7492 -14.4127 79.8676C-14.7325 77.6859 -14.5206 75.0722 -14.3659 73.1638C-14.2898 72.226 -14.2115 71.2592 -14.2759 70.9858C-14.3945 71.0954 -14.5456 71.2913 -14.7184 71.5151C-15.0429 71.9354 -15.4466 72.4584 -15.9202 72.7843C-16.3044 73.0489 -16.7624 73.1886 -17.2446 73.1886C-18.0014 73.1886 -18.6675 72.8467 -18.8284 72.3757C-18.8892 72.1977 -18.924 71.847 -18.4743 71.4988C-17.3022 70.5911 -15.0557 67.3122 -14.2571 65.3438C-13.7246 64.0312 -12.7437 63.5961 -11.9556 63.2465C-11.4851 63.0378 -11.0787 62.8576 -10.8785 62.5411C-10.4852 61.9198 -9.91931 59.2541 -9.19637 54.6181C-9.09304 53.4815 -9.00845 52.7415 -8.93118 52.2978C-8.88533 52.0349 -8.83762 51.741 -8.78892 51.4292C-8.75444 48.4004 -8.69942 45.0309 -8.48446 43.3532C-8.07142 40.1287 -6.71961 36.2108 -5.53254 34.7978C-5.36296 34.596 -5.2116 34.4124 -5.07632 34.2483C-4.66495 33.7495 -4.41058 33.4411 -4.21855 33.3102C-4.04838 33.0822 -3.90293 32.6543 -3.78598 32.0374C-3.95144 29.5668 -3.68431 26.9066 -3.07074 24.9142C-2.98382 24.0873 -2.91386 23.4362 -2.87067 23.1935C-2.72901 22.3974 -2.8809 21.6295 -3.0029 21.0123C-3.06071 20.7199 -3.11068 20.4673 -3.11619 20.2676C-3.12981 19.7781 -3.21719 19.1318 -3.34955 18.1536C-3.41167 17.694 -3.48344 17.1637 -3.56145 16.5459C-3.83096 14.4111 -3.43281 11.8499 -2.49636 9.69468C-1.39379 7.15706 -0.156151 5.79547 1.77547 4.99492C2.2713 4.78946 3.18036 4.68201 3.82205 4.68201C3.86337 4.68201 3.90404 4.6824 3.94405 4.68327C5.50323 3.86151 6.89915 3.56942 7.62396 3.56942C7.73658 3.56942 7.83832 3.5762 7.92669 3.58956C7.96841 3.5875 8.01241 3.5865 8.05858 3.5865C8.14935 3.5865 8.24876 3.59035 8.34564 3.59554C8.37607 3.27837 8.78931 3.04326 9.28262 2.79645C9.96829 2.45343 10.6835 2.13971 11.4083 1.86398C12.2461 1.54529 13.0884 1.28212 14.0953 0.985031C14.2184 0.94866 14.3425 0.914223 14.4666 0.879786C15.1926 0.678181 15.8782 0.487759 16.3795 -0.0589905C16.5228 -0.215303 16.6432 -0.388325 16.7706 -0.571505C16.8311 -0.658478 16.8917 -0.745384 16.9545 -0.830219C17.1485 -1.09193 17.3491 -1.36248 17.4575 -1.66707C17.509 -1.81189 17.4963 -1.97605 17.4827 -2.14979C17.477 -2.2244 17.4712 -2.29879 17.4702 -2.37227C17.4668 -2.60686 17.467 -2.8546 17.4708 -3.1298C17.478 -3.64896 17.494 -4.26154 17.5574 -4.87272C17.5449 -5.04499 17.5321 -5.13263 17.5235 -5.17599C17.5074 -5.25618 17.4942 -5.33763 17.4805 -5.42154C17.4179 -5.80552 17.347 -6.24077 16.9353 -6.85481C16.5836 -7.37936 16.4863 -8.5976 16.4666 -9.52728C16.4628 -9.70693 16.3163 -9.85315 16.1401 -9.85315C16.1171 -9.85315 16.0939 -9.85062 16.071 -9.84563C15.9662 -9.82276 15.8565 -9.81066 15.7537 -9.81066C15.4768 -9.81066 15.248 -9.89471 15.0921 -10.0538C14.9313 -10.2178 14.8526 -10.4536 14.8583 -10.7546C14.8784 -11.8064 14.6645 -12.4167 14.4759 -12.9551C14.3807 -13.2266 14.2909 -13.4831 14.2368 -13.7717C14.1407 -14.2846 14.0823 -14.9741 14.3492 -15.3469C14.4542 -15.4934 14.5982 -15.5807 14.7774 -15.6063C14.8212 -15.6127 14.8664 -15.6158 14.9116 -15.6158C15.0601 -15.6158 15.2154 -15.5819 15.3732 -15.5148C15.3948 -15.5057 15.417 -15.5011 15.4394 -15.5011C15.4873 -15.5011 15.5349 -15.5226 15.5697 -15.5601C15.6053 -15.5985 15.6228 -15.6485 15.6188 -15.7007C15.5033 -17.2397 15.3978 -21.0286 16.9106 -22.9696C18.7094 -25.2776 21.4761 -25.7452 22.5822 -25.8391C22.7251 -25.8512 22.8977 -25.8643 23.136 -25.8643C23.3148 -25.8643 23.5086 -25.8566 23.7122 -25.8414C24.8385 -25.7577 27.6551 -25.3102 29.4793 -22.9696C30.9921 -21.0283 30.8865 -17.2396 30.7709 -15.7007C30.767 -15.6485 30.7845 -15.5985 30.8202 -15.5601C30.855 -15.5225 30.9024 -15.5011 30.9505 -15.5011C30.9728 -15.5011 30.995 -15.5057 31.0166 -15.5148C31.1744 -15.5819 31.3297 -15.6158 31.4782 -15.6158C31.5234 -15.6158 31.5686 -15.6127 31.6125 -15.6063C31.7916 -15.5807 31.9356 -15.4934 32.0406 -15.3469C32.3075 -14.9741 32.249 -14.2846 32.1529 -13.7717C32.0989 -13.4831 32.009 -13.2266 31.9139 -12.9551C31.7252 -12.4167 31.5114 -11.8065 31.5315 -10.7546C31.5372 -10.4536 31.4585 -10.2178 31.2977 -10.0537C31.1418 -9.8947 30.913 -9.81065 30.6362 -9.81065C30.5333 -9.81065 30.4235 -9.82276 30.3187 -9.84562C30.2959 -9.8506 30.2727 -9.85314 30.2497 -9.85314C30.0736 -9.85314 29.927 -9.70693 29.9233 -9.52719C29.9035 -8.59739 29.806 -7.37901 29.4545 -6.8548C29.0428 -6.24075 28.9719 -5.8055 28.9093 -5.42152C28.8957 -5.33761 28.8824 -5.25616 28.8664 -5.17598C28.8577 -5.13262 28.8449 -5.04499 28.8324 -4.87271C28.9171 -4.05786 28.925 -3.25611 28.9216 -2.57871C28.9211 -2.48329 28.9159 -2.38642 28.9107 -2.28941C28.9034 -2.15204 28.8965 -2.02218 28.9025 -1.89499C28.9177 -1.5751 29.1492 -1.23993 29.3534 -0.944172C29.3825 -0.902014 29.4109 -0.860859 29.4379 -0.820892C29.7 -0.432785 29.9711 -0.0315113 30.3392 0.256521C30.6396 0.49157 30.9978 0.598354 31.3769 0.711447L31.7073 0.811455C33.5084 1.36027 35.3708 1.9277 37.1072 2.79646L37.2133 2.84872C37.4365 2.95743 37.6895 3.08071 37.8652 3.26455C37.9588 3.36249 38.0183 3.47952 38.0372 3.59694C38.2097 3.58903 38.3691 3.58517 38.521 3.58517C39.1146 3.58517 39.624 3.64502 40.1239 3.77354C40.8959 3.97194 41.6768 4.27794 42.4457 4.68327C42.4857 4.68242 42.5264 4.68201 42.5677 4.68201C43.2094 4.68201 44.1185 4.78946 44.6142 4.99492C46.5459 5.7954 47.7836 7.15706 48.8862 9.69468C49.8226 11.8498 50.2207 14.4109 49.9513 16.5459C49.8732 17.1639 49.8014 17.6945 49.7393 18.1542C49.607 19.1321 49.5196 19.7781 49.506 20.2676C49.5004 20.4673 49.4505 20.7199 49.3927 21.0123C49.2707 21.6294 49.1188 22.3974 49.2604 23.1935C49.3037 23.4361 49.3736 24.0869 49.4604 24.9134C50.0815 26.9285 50.347 29.6164 50.1715 32.1112C50.2846 32.6931 50.4286 33.0944 50.6 33.3049C50.7934 33.4326 51.0506 33.7444 51.4674 34.2499C51.6023 34.4135 51.7533 34.5965 51.9224 34.7978C53.1094 36.2109 54.4612 40.1288 54.8743 43.3531C55.0893 45.031 55.1443 48.4003 55.1788 51.4292C55.2274 51.741 55.2751 52.0349 55.3209 52.2977C55.3973 52.7362 55.4844 53.4981 55.5872 54.6267C56.3091 59.2541 56.8751 61.9198 57.2683 62.5411C57.4686 62.8576 57.8749 63.0378 58.3454 63.2465C59.1335 63.5961 60.1144 64.0311 60.6469 65.3437C61.4454 67.3122 63.692 70.591 64.8641 71.4988C65.3139 71.847 65.279 72.1977 65.2182 72.3757C65.0574 72.8467 64.3913 73.1886 63.6344 73.1886C63.1522 73.1886 62.6942 73.0488 62.3099 72.7843C61.8365 72.4584 61.4327 71.9354 61.1083 71.5153C60.9356 71.2914 60.7843 71.0955 60.6657 70.9858C60.6014 71.2593 60.6797 72.2259 60.7557 73.1633C60.9104 75.0719 61.1223 77.6858 60.8025 79.8675C60.6733 80.7491 59.9812 81.6142 59.4053 81.6142C59.3198 81.6142 59.2412 81.5942 59.1719 81.5558C59.2106 82.857 59.1834 84.0116 58.3056 84.0438L58.2854 84.0441C57.6608 84.0441 57.2262 82.9594 56.989 82.1504C56.8516 82.6197 56.5784 82.8792 56.2033 82.8792C56.152 82.8792 56.0983 82.8742 56.0437 82.8643C55.282 82.7256 54.8237 80.9118 54.626 79.9C54.4988 80.0862 54.3107 80.2677 54.0607 80.2677C53.8162 80.2677 53.5731 80.0905 53.3383 79.7411C52.9439 79.1543 52.5446 77.8497 52.1218 76.4685C51.6865 75.0463 51.2365 73.5758 50.7282 72.6139C49.5337 70.353 49.4434 67.6943 49.965 66.3405C50.4351 65.1204 50.7197 64.3428 50.7084 63.8348C50.6692 62.062 49.1072 57.0685 47.9666 53.4224C47.7897 52.8568 47.6223 52.3219 47.4717 51.8342C46.3364 49.2052 45.4865 47.1355 45.1981 46.2971C44.9111 45.4632 44.7282 44.756 44.6387 44.1349C44.5613 43.7387 44.4971 43.3155 44.435 42.9063C44.4166 42.7849 44.3982 42.6636 44.3795 42.543C44.317 42.3524 44.2407 42.0562 44.1466 41.6388C43.7574 41.1924 43.1095 39.623 43.2028 37.6396C43.2785 36.0299 42.3243 32.9948 41.5576 30.556C41.1092 29.1298 40.722 27.8981 40.6476 27.2794C40.6242 27.0851 40.6038 26.9043 40.5863 26.7377C40.5175 27.0119 40.4459 27.2762 40.3719 27.5286C40.1326 28.3454 39.8648 29.339 39.5811 30.3909C39.0472 32.3709 38.4952 34.4183 38.056 35.5769C37.9326 35.9024 37.8237 36.1743 37.7242 36.4228C37.6361 36.6424 37.5555 36.8437 37.4787 37.0478C37.4577 37.6079 37.4579 38.2302 37.4607 38.7139C37.5254 39.1198 37.5266 39.8907 37.4634 40.5587C37.4896 40.9858 37.626 41.3832 37.7579 41.7677C37.8168 41.9392 37.8724 42.1013 37.9174 42.2628C38.0022 42.5357 38.0865 42.9109 38.1666 43.374C38.2715 43.7824 38.2816 43.8289 38.2498 43.8764C38.3245 44.2579 38.5491 45.1694 38.663 45.6313C38.6979 45.7732 38.724 45.8793 38.7351 45.9261C38.8285 46.3227 38.8155 50.6878 38.5206 51.162C38.5728 51.3594 38.6356 51.5926 38.7024 51.8408C38.8776 52.4915 39.0761 53.229 39.1907 53.7117C39.7294 55.3669 40.4631 58.4398 40.432 59.8764C40.4012 61.2895 41.1559 65.7256 41.5541 67.3932C41.8501 68.6329 41.9722 70.8402 42.0528 72.3009L42.0686 72.5836C42.2827 74.1129 42.4283 75.8869 42.4059 76.6989C42.377 77.7508 42.0231 81.0805 41.6331 83.9697C41.6022 84.6337 41.584 85.3906 41.5664 86.1227C41.5251 87.8424 41.4824 89.6206 41.2604 90.6354C40.8187 92.6566 39.8323 95.1641 38.8599 97.5593L38.8592 97.5591C38.7866 98.1376 38.7634 98.6083 38.79 98.9581C38.8549 99.2953 38.9572 99.7289 39.0756 100.23C39.3549 101.414 39.7027 102.887 39.7433 103.926C39.7989 105.342 39.7788 107.524 39.7028 108.332C39.6967 108.913 39.6839 109.469 39.6674 109.892C39.7664 110.13 39.8195 110.352 39.8296 110.568C39.8349 110.683 39.8372 110.807 39.8396 110.94C39.8507 111.552 39.8659 112.39 40.2286 113.496C40.7167 114.983 40.9122 116.377 40.9853 117.076C41.0772 117.955 41.2192 120.632 41.0253 122.042C40.8406 123.384 40.1961 127.032 39.885 128.09C39.831 128.274 39.7742 128.49 39.7141 128.718C39.5832 129.215 39.435 129.778 39.2584 130.227C38.7113 133.331 37.9322 139.236 37.7684 140.534C37.73 140.837 37.6783 141.134 37.6146 141.415C37.5466 142.667 37.5104 144.32 37.591 145.002C37.689 145.831 37.9158 146.513 38.135 147.173L38.214 147.411C38.4485 148.125 38.3645 148.917 37.9643 149.765C37.6512 150.429 37.8675 151.871 38.401 152.677C38.7836 153.255 39.6716 154.319 40.3201 155.096C40.5733 155.399 40.7921 155.662 40.9295 155.834C41.4625 156.5 41.6088 157.599 41.4423 158.275C41.2767 158.949 41.0064 159.211 40.4784 159.211C40.2326 159.211 40.0177 159.1 39.8449 159.01C39.7291 158.95 39.6197 158.893 39.5454 158.893C39.5322 158.893 39.5207 158.895 39.5102 158.899C39.4274 158.929 39.3713 158.974 39.3063 159.026C39.2001 159.112 39.0798 159.209 38.8479 159.231C38.8338 159.232 38.8198 159.233 38.8058 159.233Z" fill="white" stroke="#28839F" stroke-width="0.7"/>
<path d="M21.151 -7.54055C19.0058 2.24868 16.1143 -0.469137 9.34338 2.91855C8.38994 3.39557 8.17694 3.64932 8.9478 4.21769C9.71866 4.78606 12.0515 6.37954 12.7615 8.61244C13.4715 10.8453 13.7352 14.6616 14.6684 17.0974C15.6015 19.5333 17.6504 22.8218 18.6241 24.5269C19.5978 26.232 21.1193 29.7844 21.383 30.9414C21.6467 32.0985 22.5393 33.4382 22.6001 32.0376C22.661 30.6369 22.1539 25.1765 22.0321 21.9286C21.9104 18.6808 22.1133 12.9361 22.1539 11.0483C22.1944 9.16051 22.0727 6.52164 22.235 5.2225C22.3973 3.92335 22.093 -3.14073 22.0321 -4.56167C21.9713 -5.98259 22.2756 -7.24114 22.1133 -7.93131C21.951 -8.62147 21.3786 -8.5794 21.151 -7.54055Z" fill="#28839F"/>
<path d="M1.82764 5.12147C-0.180642 5.95373 -1.35722 7.41527 -2.37151 9.74966C-3.3858 12.0841 -3.66981 14.6011 -3.42638 16.5295C-3.18294 18.458 -3.00037 19.5338 -2.98009 20.2646C-2.9598 20.9954 -2.47294 20.0819 -1.35722 19.0466C-0.241499 18.0114 2.39566 15.6161 2.98394 14.1749C3.57223 12.7336 3.24765 11.2518 4.36338 10.2774C5.47909 9.30308 6.63538 8.00393 7.77139 7.51676C8.90739 7.02959 8.50167 6.29882 7.52795 6.17702C6.55424 6.05523 5.15451 5.01998 4.52566 4.87788C3.8968 4.73578 2.45767 4.86038 1.82764 5.12147Z" fill="#28839F" fill-opacity="0.2"/>
<path d="M10.1754 7.14058C8.95829 7.35373 6.87899 8.35853 6.2907 9.2314C5.72926 10.0644 4.97211 9.97231 4.8504 10.4392C4.72869 10.9061 5.45898 10.8655 5.90527 11.6977C6.35156 12.53 6.57469 13.89 7.24413 14.702C9.52264 17.4656 10.4949 17.2445 13.2082 18.5182C13.8255 18.808 14.689 19.1272 14.7499 18.7212C14.8107 18.3152 14.5774 17.8179 14.0804 16.9349C13.5834 16.0519 13.2893 13.4841 13.0662 12.3067C12.843 11.1294 12.4677 9.19079 12.0519 8.26718C11.636 7.34358 10.5821 7.06936 10.1754 7.14058Z" fill="#28839F" fill-opacity="0.2"/>
<path d="M4.05895 12.3581C4.32157 12.8498 4.39366 12.792 4.92616 13.1346C5.45867 13.4771 5.8162 13.9262 5.96074 14.0937C6.10527 14.2612 6.36391 13.8349 6.15852 13.2868C5.95313 12.7387 5.61842 12.1754 5.32174 11.871C5.02505 11.5665 4.90334 11.1935 4.62188 11.125C4.34041 11.0564 3.82312 11.9166 4.05895 12.3581Z" fill="#28839F" fill-opacity="0.2"/>
<path d="M8.11622 16.5088C7.59723 16.0127 6.8788 15.1387 6.08765 14.7631C5.2965 14.3876 4.23149 13.0682 3.91707 13.4234C3.60263 13.7786 3.71421 14.824 4.03878 15.6157C4.36336 16.4073 4.71836 17.5035 4.97193 18.3967C5.2255 19.2898 5.94565 20.051 6.71651 20.2845C7.48737 20.5179 9.33337 20.8325 10.5505 20.7108C11.7677 20.589 12.8428 20.0003 13.3094 19.6958C14.4281 18.9657 10.3882 18.6808 8.11622 16.5088Z" fill="#28839F" fill-opacity="0.2"/>
<path d="M14.5267 19.574C13.5924 19.8233 12.9647 20.6296 10.8956 21.0761C9.54891 21.3668 6.73699 21.0355 6.10813 20.8325C5.47926 20.6296 5.05326 21.4009 5.13441 22.0099C5.21554 22.6189 5.45899 25.136 6.1487 27.4906C6.83841 29.8453 7.79185 33.7631 8.46128 35.5291C9.13071 37.2951 9.37415 37.4778 10.003 40.9286C10.6319 44.3795 12.4779 46.3079 12.9647 47.5867C13.4516 48.8656 15.5816 47.7897 15.3585 45.8004C15.1353 43.8111 15.1962 42.3496 16.251 39.7107C17.3059 37.0718 18.4825 34.5547 19.3345 33.1744C20.1865 31.7941 20.4603 30.3528 20.1256 29.1146C19.7909 27.8763 18.9592 26.0291 18.3607 24.9939C17.7623 23.9586 16.3322 21.7968 15.8656 20.9138C15.399 20.0307 15.3077 19.8683 15.1962 19.7161C15.0846 19.5639 14.831 19.4928 14.5267 19.574Z" fill="#28839F" fill-opacity="0.2"/>
<path d="M11.5853 45.8616C12.0088 46.6082 12.4576 47.3637 12.7416 48.2163C13.0256 49.0688 12.4779 49.7793 11.8693 50.0838C11.2607 50.3883 9.91172 50.4086 8.98872 50.6928C8.0657 50.9769 7.70056 51.3829 7.46727 51.322C7.23398 51.2611 7.66488 50.2393 7.93385 49.6981C8.88728 47.7798 10.286 45.462 10.6522 45.2526C10.8652 45.1308 11.1593 45.1105 11.5853 45.8616Z" fill="#28839F" fill-opacity="0.2"/>
<path d="M9.78627 43.0501C8.89571 43.432 7.96246 45.2157 7.78749 45.9579C7.66373 46.4829 7.60535 47.3596 7.60241 48.0741C7.60045 48.5456 7.50651 48.9964 7.62583 49.0104C8.21159 49.0789 8.40177 47.7848 9.5403 46.1508C9.87346 45.6727 10.2566 44.8364 10.4088 44.542C10.5609 44.2477 10.3543 42.8065 9.78627 43.0501Z" fill="#28839F" fill-opacity="0.2"/>
<path d="M9.20182 41.1769C8.74311 41.6971 8.24649 43.8195 8.26157 43.8111C8.48742 43.6852 8.80835 43.3679 9.09532 43.1256C9.35693 42.9047 9.73432 42.6384 9.71911 42.2273C9.70389 41.8163 9.54414 40.7886 9.20182 41.1769Z" fill="#28839F" fill-opacity="0.2"/>
<path d="M2.92299 15.8597C2.21115 16.9875 0.559705 19.9855 -0.018447 21.645C-0.596586 23.3044 -0.728451 25.1567 -0.789307 27.349C-0.850164 29.5413 -1.44859 34.8394 -1.17474 36.0573C-0.900883 37.2752 -0.495163 38.1075 0.387274 37.5594C1.26971 37.0114 2.57814 33.936 3.49099 31.8351C4.40386 29.7341 5.05996 26.0946 4.911 24.6289C4.66758 22.2336 4.68787 21.6856 4.62701 19.412C4.57226 17.3671 3.28815 15.2812 2.92299 15.8597Z" fill="#28839F" fill-opacity="0.2"/>
<path d="M1.86839 37.3556C1.4622 38.3209 0.95552 38.8324 0.316511 39.2434C-0.322485 39.6545 -0.0029863 40.842 0.681665 41.4966C1.3663 42.1513 1.57932 42.6841 1.74667 42.745C1.91403 42.8059 2.34763 40.4081 2.46174 40.0046C2.57585 39.6012 2.81929 38.33 2.67474 37.9493C2.5302 37.5687 2.29438 36.3432 1.86839 37.3556Z" fill="#28839F" fill-opacity="0.2"/>
<path d="M-0.11849 18.9139C-0.856827 19.3105 -2.1358 19.8417 -2.73664 23.2179C-2.83553 23.7736 -3.08704 26.6078 -3.23918 27.5517C-3.39132 28.4956 -3.37514 31.1782 -3.31017 31.9668C-3.23744 32.8498 -3.34014 34.1794 -3.20321 34.8797C-3.06629 35.58 -2.44249 34.4991 -2.29035 32.9614C-2.13821 31.4238 -1.63106 27.9882 -1.30649 25.06C-1.06781 22.9068 -0.940068 21.6549 0.393731 19.6452C1.12058 18.5501 0.880488 18.3773 -0.11849 18.9139Z" fill="#28839F" fill-opacity="0.2"/>
<path d="M-1.72247 43.1208C-1.72247 44.1241 -2.64547 46.328 -3.08162 47.2618C-3.51777 48.1955 -4.36976 52.4685 -4.66391 53.93C-4.95805 55.3916 -5.6782 60.7099 -6.28678 62.6383C-6.89535 64.5667 -6.97649 65.1351 -6.42878 64.6885C-5.88106 64.242 -4.88706 61.2783 -4.50163 59.9385C-4.1162 58.5988 -0.840032 51.1186 -0.520535 49.7027C-0.201037 48.2869 1.1074 46.6579 1.1074 45.851C1.1074 45.0441 1.06175 43.5673 0.164103 42.9888C-0.733534 42.4103 -1.72247 42.0652 -1.72247 43.1208Z" fill="#28839F" fill-opacity="0.2"/>
<path d="M22.0427 52.0318C22.1035 50.9661 22.1339 46.8251 22.0122 45.5767C21.8905 44.3283 22.3926 40.8571 22.1644 39.5478C21.9362 38.2385 22.713 34.7404 22.4382 33.7017C22.2356 32.9357 20.4898 32.9903 19.1722 35.2444C18.5434 36.3203 17.8739 37.7615 17.4277 38.6547C16.9814 39.5478 15.7845 42.9378 16.0888 44.5414C16.3931 46.145 16.0685 47.4239 14.8716 48.4388C13.2472 49.8164 15.2984 50.406 16.5351 50.8443C17.9957 51.3619 19.791 53.6456 20.3082 54.6503C20.8255 55.6552 22.423 56.5229 22.2253 55.1071C22.0275 53.6912 22.0427 52.0318 22.0427 52.0318Z" fill="#28839F"/>
<path d="M25.2389 -7.54055C27.3841 2.24868 30.2755 -0.469137 37.0465 2.91855C37.9999 3.39557 38.2129 3.64932 37.4421 4.21769C36.6712 4.78606 34.3383 6.37954 33.6283 8.61244C32.9183 10.8453 32.6546 14.6616 31.7215 17.0974C30.7883 19.5333 28.7395 22.8218 27.7657 24.5269C26.792 26.232 25.2706 29.7844 25.0069 30.9414C24.7431 32.0985 23.8506 33.4382 23.7897 32.0376C23.7289 30.6369 24.236 25.1765 24.3577 21.9286C24.4794 18.6808 24.2766 12.9361 24.236 11.0483C24.1954 9.16051 24.3171 6.52164 24.1549 5.2225C23.9926 3.92335 24.2969 -3.14073 24.3577 -4.56167C24.4186 -5.98259 24.1143 -7.24114 24.2766 -7.93131C24.4389 -8.62147 25.0112 -8.5794 25.2389 -7.54055Z" fill="#28839F"/>
<path d="M44.5621 5.12147C46.5704 5.95373 47.747 7.41527 48.7613 9.74966C49.7756 12.0841 50.0596 14.6011 49.8162 16.5295C49.5727 18.458 49.3902 19.5338 49.3699 20.2646C49.3496 20.9954 48.8627 20.0819 47.747 19.0466C46.6313 18.0114 43.9941 15.6161 43.4059 14.1749C42.8176 12.7336 43.1421 11.2518 42.0264 10.2774C40.9107 9.30308 39.7544 8.00393 38.6184 7.51676C37.4824 7.02959 37.8881 6.29882 38.8618 6.17702C39.8355 6.05523 41.2353 5.01998 41.8641 4.87788C42.493 4.73578 43.9321 4.86038 44.5621 5.12147Z" fill="#28839F" fill-opacity="0.2"/>
<path d="M36.2148 7.14058C37.4319 7.35373 39.5112 8.35853 40.0995 9.2314C40.661 10.0644 41.4181 9.97231 41.5398 10.4392C41.6615 10.9061 40.9312 10.8655 40.4849 11.6977C40.0387 12.53 39.8155 13.89 39.1461 14.702C36.8676 17.4656 35.8953 17.2445 33.1821 18.5182C32.5647 18.808 31.7012 19.1272 31.6403 18.7212C31.5795 18.3152 31.8128 17.8179 32.3098 16.9349C32.8068 16.0519 33.1009 13.4841 33.3241 12.3067C33.5472 11.1294 33.9225 9.19079 34.3384 8.26718C34.7542 7.34358 35.8081 7.06936 36.2148 7.14058Z" fill="#28839F" fill-opacity="0.2"/>
<path d="M42.3306 12.3581C42.068 12.8498 41.9959 12.792 41.4634 13.1346C40.9309 13.4771 40.5734 13.9262 40.4289 14.0937C40.2843 14.2612 40.0257 13.8349 40.2311 13.2868C40.4365 12.7387 40.7712 12.1754 41.0678 11.871C41.3645 11.5665 41.4863 11.1935 41.7677 11.125C42.0492 11.0564 42.5665 11.9166 42.3306 12.3581Z" fill="#28839F" fill-opacity="0.2"/>
<path d="M38.2738 16.5088C38.7928 16.0127 39.5112 15.1387 40.3023 14.7631C41.0935 14.3876 42.1585 13.0682 42.4729 13.4234C42.7874 13.7786 42.6758 14.824 42.3512 15.6157C42.0266 16.4073 41.6716 17.5035 41.4181 18.3967C41.1645 19.2898 40.4444 20.051 39.6735 20.2845C38.9026 20.5179 37.0566 20.8325 35.8395 20.7108C34.6223 20.589 33.5472 20.0003 33.0806 19.6958C31.9618 18.9657 36.0018 18.6808 38.2738 16.5088Z" fill="#28839F" fill-opacity="0.2"/>
<path d="M31.8636 19.574C32.7979 19.8233 33.4256 20.6296 35.4947 21.0761C36.8414 21.3668 39.6533 21.0355 40.2822 20.8325C40.911 20.6296 41.337 21.4009 41.2559 22.0099C41.1747 22.6189 40.9313 25.136 40.2416 27.4906C39.5519 29.8453 38.5985 33.7631 37.929 35.5291C37.2596 37.2951 37.0162 37.4778 36.3873 40.9286C35.7584 44.3795 33.9124 46.3079 33.4256 47.5867C32.9387 48.8656 30.8087 47.7897 31.0319 45.8004C31.255 43.8111 31.1941 42.3496 30.1393 39.7107C29.0844 37.0718 27.9078 34.5547 27.0558 33.1744C26.2038 31.7941 25.93 30.3528 26.2647 29.1146C26.5994 27.8763 27.4311 26.0291 28.0296 24.9939C28.628 23.9586 30.0581 21.7968 30.5247 20.9138C30.9913 20.0307 31.0826 19.8683 31.1941 19.7161C31.3057 19.5639 31.5593 19.4928 31.8636 19.574Z" fill="#28839F" fill-opacity="0.2"/>
<path d="M34.8047 45.8616C34.3812 46.6082 33.9324 47.3637 33.6484 48.2163C33.3644 49.0688 33.9121 49.7793 34.5207 50.0838C35.1293 50.3883 36.4783 50.4086 37.4013 50.6928C38.3243 50.9769 38.6894 51.3829 38.9227 51.322C39.156 51.2611 38.7251 50.2393 38.4561 49.6981C37.5027 47.7798 36.104 45.462 35.7378 45.2526C35.5248 45.1308 35.2307 45.1105 34.8047 45.8616Z" fill="#28839F" fill-opacity="0.2"/>
<path d="M36.604 43.0501C37.4945 43.432 38.4278 45.2157 38.6028 45.9579C38.7265 46.4829 38.7849 47.3596 38.7878 48.0741C38.7898 48.5456 38.8837 48.9964 38.7644 49.0104C38.1787 49.0789 37.9885 47.7848 36.8499 46.1508C36.5168 45.6727 36.1336 44.8364 35.9815 44.542C35.8293 44.2477 36.036 42.8065 36.604 43.0501Z" fill="#28839F" fill-opacity="0.2"/>
<path d="M37.1881 41.1769C37.6468 41.6971 38.1435 43.8195 38.1284 43.8111C37.9025 43.6852 37.5816 43.3679 37.2946 43.1256C37.033 42.9047 36.6556 42.6384 36.6709 42.2273C36.6861 41.8163 36.8458 40.7886 37.1881 41.1769Z" fill="#28839F" fill-opacity="0.2"/>
<path d="M43.4667 15.8597C44.1785 16.9875 45.8299 19.9855 46.4081 21.645C46.9862 23.3044 47.1181 25.1567 47.179 27.349C47.2398 29.5413 47.8382 34.8394 47.5644 36.0573C47.2905 37.2752 46.8848 38.1075 46.0024 37.5594C45.1199 37.0114 43.8115 33.936 42.8987 31.8351C41.9858 29.7341 41.3297 26.0946 41.4786 24.6289C41.7221 22.2336 41.7018 21.6856 41.7626 19.412C41.8174 17.3671 43.1015 15.2812 43.4667 15.8597Z" fill="#28839F" fill-opacity="0.2"/>
<path d="M44.5218 37.3556C44.928 38.3209 45.4347 38.8324 46.0737 39.2434C46.7127 39.6545 46.3932 40.842 45.7085 41.4966C45.0239 42.1513 44.8109 42.6841 44.6435 42.745C44.4762 42.8059 44.0426 40.4081 43.9285 40.0046C43.8144 39.6012 43.5709 38.33 43.7155 37.9493C43.86 37.5687 44.0958 36.3432 44.5218 37.3556Z" fill="#28839F" fill-opacity="0.2"/>
<path d="M46.5085 18.9139C47.2468 19.3105 48.5258 19.8417 49.1266 23.2179C49.2255 23.7736 49.477 26.6078 49.6292 27.5517C49.7813 28.4956 49.7651 31.1782 49.7002 31.9668C49.6274 32.8498 49.7301 34.1794 49.5932 34.8797C49.4563 35.58 48.8325 34.4991 48.6803 32.9614C48.5282 31.4238 48.0211 27.9882 47.6965 25.06C47.4578 22.9068 47.3301 21.6549 45.9963 19.6452C45.2694 18.5501 45.5095 18.3773 46.5085 18.9139Z" fill="#28839F" fill-opacity="0.2"/>
<path d="M51.419 35.6302C51.2699 36.3571 50.993 37.2745 50.5061 38.33C50.0193 39.3856 49.3295 40.025 49.3092 40.9486C49.289 41.8722 49.7454 42.6131 49.8164 43.3845C49.8874 44.1558 50.2424 44.4299 50.3641 44.0746C50.4858 43.7194 51.1654 42.6435 51.2567 41.3952C51.348 40.1468 51.7638 39.3653 51.9464 38.6548C52.129 37.9443 51.8348 36.8888 51.7638 36.4625C51.6928 36.0362 51.4887 35.2902 51.419 35.6302Z" fill="#28839F" fill-opacity="0.2"/>
<path d="M53.2444 42.4514C53.2444 44.1018 53.2038 48.2569 53.3661 50.7334C53.5284 53.2099 54.5629 62.5881 54.8672 64.009C55.1715 65.43 54.4412 63.806 54.0558 62.1821C53.6704 60.5582 53.1227 58.508 52.2706 55.8488C51.4186 53.1896 50.6275 49.3328 50.6884 47.9322C50.7492 46.5315 50.7492 44.6031 51.1346 43.71C51.5201 42.8168 51.5809 41.7613 51.7432 41.0508C51.9055 40.3403 52.1388 39.4776 52.2706 39.2645C52.4025 39.0513 52.7068 40.0561 52.9198 40.726C53.1328 41.3959 53.2444 42.3296 53.2444 42.4514Z" fill="#28839F" fill-opacity="0.2"/>
<path d="M48.1121 43.1208C48.1121 44.1241 49.0351 46.328 49.4712 47.2618C49.9074 48.1955 50.7594 52.4685 51.0535 53.93C51.3477 55.3916 52.0678 60.7099 52.6764 62.6383C53.285 64.5667 53.3661 65.1351 52.8184 64.6885C52.2707 64.242 51.2767 61.2783 50.8913 59.9385C50.5058 58.5988 47.2297 51.1186 46.9102 49.7027C46.5907 48.2869 45.2822 46.6579 45.2822 45.851C45.2822 45.0441 45.3279 43.5673 46.2255 42.9888C47.1232 42.4103 48.1121 42.0652 48.1121 43.1208Z" fill="#28839F" fill-opacity="0.2"/>
<path d="M55.8714 63.6334C54.867 61.9583 54.6999 56.2801 54.4717 54.5901C54.2435 52.9003 53.9849 47.8001 53.9696 46.7801C53.9544 45.76 54.137 45.8362 54.3348 46.8105C54.5326 47.7849 54.8977 50.6623 55.1868 52.3217C55.4759 53.9812 55.8106 59.6446 56.0084 60.8778C56.2061 62.111 56.054 63.9379 55.8714 63.6334Z" fill="#28839F" fill-opacity="0.2"/>
<path d="M24.3473 52.0318C24.2864 50.9661 24.256 46.8251 24.3777 45.5767C24.4994 44.3283 23.9974 40.8571 24.2256 39.5478C24.4538 38.2385 23.677 34.7404 23.9517 33.7017C24.1543 32.9357 25.9002 32.9903 27.2177 35.2444C27.8466 36.3203 28.516 37.7615 28.9623 38.6547C29.4086 39.5478 30.6055 42.9378 30.3012 44.5414C29.9969 46.145 30.3215 47.4239 31.5183 48.4388C33.1428 49.8164 31.0916 50.406 29.8549 50.8443C28.3943 51.3619 26.599 53.6456 26.0817 54.6503C25.5644 55.6552 23.9669 56.5229 24.1647 55.1071C24.3625 53.6912 24.3473 52.0318 24.3473 52.0318Z" fill="#28839F"/>
</g>
<defs>
<clipPath id="clip0_4055_5987">
<rect width="61" height="48" fill="white"/>
</clipPath>
</defs>
</svg>
