<svg width="61" height="48" viewBox="0 0 61 48" fill="none" xmlns="http://www.w3.org/2000/svg">
<g clip-path="url(#clip0_4055_7433)">
<path d="M42.8058 58.233C42.6222 58.233 42.4739 58.1258 42.3305 58.0221C42.2116 57.9361 42.0992 57.8548 41.9914 57.8548C41.9728 57.8548 41.9546 57.8572 41.936 57.8619C41.8132 57.8936 41.7456 57.9465 41.6674 58.0076C41.5567 58.0941 41.4314 58.1923 41.1771 58.1923C41.1603 58.1923 41.1427 58.1918 41.1246 58.1909C40.8874 58.1793 40.7392 58.0792 40.6084 57.9909C40.4879 57.9094 40.3928 57.8451 40.2338 57.8451C40.2243 57.8451 40.2145 57.8454 40.2045 57.8458C40.0376 57.8538 39.9414 57.9103 39.8194 57.9818C39.6669 58.0714 39.494 58.1729 39.171 58.1909C39.1486 58.1921 39.1266 58.1927 39.1047 58.1927C38.8033 58.1927 38.5441 58.0774 38.3153 57.9757C38.1232 57.8902 37.9416 57.8094 37.7608 57.8054L37.7459 57.8052C37.5611 57.8052 37.334 57.8804 37.0936 57.9599C36.7948 58.0588 36.4561 58.1709 36.1046 58.1709L36.0778 58.1707C35.2305 58.1571 34.749 57.7207 34.6467 56.8736C34.5924 56.4243 34.7415 55.938 34.8857 55.4677C35.0525 54.9238 35.2249 54.3614 35.096 53.8454C34.8236 52.7549 34.6672 51.3527 34.7067 50.3561C34.7337 49.672 34.5211 48.7502 34.3336 47.9369C34.2434 47.5453 34.1581 47.1755 34.1 46.8428C33.9787 46.1485 34.4867 44.9306 34.9349 43.856C35.1803 43.2676 35.412 42.7119 35.4588 42.4136C35.5085 42.0954 35.5116 41.021 35.4677 39.2202C35.3824 38.7848 35.3225 37.3354 35.2902 36.5533C35.2819 36.3534 35.2755 36.1971 35.2709 36.1128C35.2667 36.0352 35.2487 35.6542 35.2887 35.4565L35.2187 34.926C35.0793 33.8643 34.9476 32.8614 34.8329 32.432C34.8329 32.432 34.6511 31.7557 34.5987 31.5585C34.541 31.4679 34.4894 31.356 34.4414 31.2172C34.3429 30.9323 34.24 30.5374 34.1312 30.1193C33.9303 29.3479 33.7027 28.4737 33.4146 27.9163C33.1489 27.4024 32.9949 26.7247 32.944 25.8449C32.8628 25.4374 32.794 24.9695 32.7395 24.4539C32.4781 21.9776 32.7667 18.5005 33.0662 17.0436C33.2168 16.3107 33.4525 15.4235 33.6604 14.6408C33.859 13.8931 34.0466 13.1868 34.1202 12.7645C34.196 12.33 34.2129 12.0843 34.2231 11.9375C34.2297 11.842 34.2341 11.7784 34.2528 11.7278C34.2276 11.5934 34.2004 11.4413 34.1714 11.278C34.1231 11.0079 34.0688 10.7032 34.0087 10.3983C33.881 10.2467 33.7953 9.94502 33.68 9.53969C33.5778 9.1803 33.4507 8.73302 33.2635 8.29875C32.8274 7.2879 32.2886 3.94981 32.2381 2.36247C32.1867 0.748276 31.9153 -1.83989 31.593 -3.11983C31.3057 -4.26102 31.0018 -7.00082 31.0309 -8.1851C31.0055 -8.44176 30.9801 -8.68337 30.9546 -8.89555C30.9278 -9.11948 30.9096 -9.40313 30.9005 -9.73898C30.843 -9.86917 30.7546 -10.0531 30.6279 -10.2317C30.4621 -10.4654 30.3089 -10.7856 30.1726 -11.1832C29.9593 -11.7283 29.7103 -12.775 29.6309 -13.4635C29.5015 -14.5858 28.6802 -19.5351 28.2056 -21.1129C27.6641 -22.9135 28.0349 -26.544 28.0789 -26.952C28.0936 -27.0881 28.1072 -27.2227 28.1205 -27.3548C28.159 -27.7386 28.1956 -28.1022 28.253 -28.4259C28.0991 -28.6649 27.9719 -28.9164 27.8659 -29.1915C27.6216 -29.2588 27.3776 -29.2772 27.276 -29.2772H27.1137C27.0122 -29.2772 26.7683 -29.2588 26.5239 -29.1915C26.4179 -28.9164 26.2907 -28.6648 26.1367 -28.4259C26.1943 -28.1017 26.2308 -27.7376 26.2694 -27.3533C26.2827 -27.2216 26.2961 -27.0875 26.3108 -26.952C26.3549 -26.544 26.7259 -22.9139 26.1841 -21.1129C25.7095 -19.5349 24.8882 -14.5857 24.7588 -13.4634C24.6795 -12.7751 24.4306 -11.7284 24.2153 -11.1779C24.0808 -10.7854 23.9276 -10.4652 23.7619 -10.2317C23.6347 -10.0525 23.5465 -9.86881 23.4892 -9.73896C23.4802 -9.40358 23.462 -9.11993 23.4351 -8.89554C23.4097 -8.68336 23.3842 -8.44174 23.3589 -8.18515C23.388 -7.00088 23.0841 -4.26099 22.7968 -3.11981C22.4746 -1.84019 22.2031 0.74794 22.1517 2.36247C22.1011 3.94994 21.5623 7.28812 21.1263 8.29883C20.939 8.73309 20.8119 9.1803 20.7097 9.53969C20.5945 9.94508 20.5088 10.2467 20.381 10.3983C20.3209 10.7032 20.2665 11.0079 20.2184 11.2781C20.1892 11.4414 20.1621 11.5934 20.1369 11.7277C20.1556 11.7784 20.16 11.842 20.1667 11.9376C20.1768 12.0843 20.1938 12.3299 20.2695 12.7645C20.3431 13.1869 20.5307 13.8934 20.7294 14.6413C20.9373 15.4238 21.173 16.3108 21.3236 17.0435C21.6231 18.5009 21.9117 21.9783 21.6502 24.4539C21.5956 24.9705 21.5266 25.4425 21.4452 25.8568C21.3934 26.7309 21.2397 27.4046 20.9752 27.9163C20.687 28.4737 20.4594 29.348 20.2586 30.1193C20.1497 30.5374 20.0469 30.9323 19.9483 31.2172C19.9004 31.3559 19.8488 31.468 19.7911 31.5586C19.7388 31.7552 19.5569 32.432 19.5569 32.432C19.4421 32.8615 19.3104 33.8645 19.171 34.9264L19.1011 35.4564C19.1411 35.6543 19.1231 36.0352 19.1188 36.1128C19.1142 36.1971 19.1078 36.3535 19.0995 36.5535C19.0672 37.3355 19.0073 38.7848 18.9221 39.2201C18.8782 41.0212 18.8812 42.0957 18.931 42.4136C18.9777 42.7119 19.2095 43.2676 19.4549 43.8559C19.9031 44.9305 20.4111 46.1484 20.2897 46.8427C20.2317 47.1755 20.1464 47.5452 20.0561 47.9367C19.8686 48.75 19.656 49.6719 19.6831 50.3561C19.7226 51.3529 19.5661 52.7552 19.2938 53.8454C19.1648 54.3615 19.3373 54.9238 19.5041 55.4678C19.6483 55.938 19.7974 56.4243 19.7431 56.8735C19.6407 57.7206 19.1592 58.1571 18.3119 58.1707L18.2852 58.1709C17.9337 58.1709 17.595 58.0588 17.2961 57.9599C17.0557 57.8803 16.8286 57.8051 16.6439 57.8051L16.629 57.8053C16.4481 57.8093 16.2665 57.8901 16.0744 57.9756C15.8457 58.0774 15.5865 58.1927 15.285 58.1927C15.2631 58.1927 15.241 58.1921 15.2187 58.1909C14.8957 58.1729 14.7229 58.0714 14.5703 57.9819C14.4485 57.9103 14.3522 57.8538 14.1852 57.8458C14.1752 57.8454 14.1655 57.8451 14.1559 57.8451C13.997 57.8451 13.9018 57.9094 13.7814 57.9908C13.6506 58.0791 13.5023 58.1793 13.2652 58.1909C13.247 58.1918 13.2295 58.1922 13.2128 58.1922C12.9583 58.1922 12.8329 58.0941 12.7223 58.0076C12.6441 57.9464 12.5765 57.8936 12.4538 57.8619C12.4351 57.8571 12.417 57.8548 12.3983 57.8548C12.2905 57.8548 12.1782 57.9361 12.0592 58.0221C11.9158 58.1258 11.7675 58.233 11.5839 58.233C11.57 58.233 11.5559 58.2323 11.5418 58.231C11.31 58.2093 11.1896 58.1121 11.0834 58.0264C11.0185 57.9739 10.9624 57.9286 10.8795 57.8988C10.8691 57.895 10.8575 57.8931 10.8444 57.8931C10.7701 57.8931 10.6607 57.9499 10.5448 58.0101C10.3721 58.0998 10.1572 58.2113 9.91138 58.2113C9.38339 58.2113 9.11315 57.9489 8.94743 57.2754C8.78099 56.5986 8.92731 55.5002 9.46028 54.8336C9.59789 54.6614 9.8169 54.3989 10.0705 54.095C10.7187 53.3182 11.6064 52.2544 11.9888 51.6768C12.5223 50.871 12.7387 49.4289 12.4255 48.7653C12.0253 47.9172 11.9412 47.1252 12.1758 46.4114L12.2546 46.1736C12.4739 45.5138 12.7008 44.8315 12.7988 44.002C12.8794 43.3208 12.8431 41.668 12.7752 40.4154C12.7116 40.1344 12.6598 39.838 12.6214 39.5338C12.4576 38.2363 11.6786 32.3307 11.1314 29.2268C10.9549 28.7787 10.8068 28.2159 10.6759 27.719C10.6158 27.4904 10.5589 27.2747 10.5048 27.0904C10.1938 26.0322 9.54932 22.3847 9.36446 21.0417C9.17057 19.6321 9.31263 16.9551 9.40452 16.0762C9.47762 15.3773 9.67317 13.9827 10.1612 12.4956C10.524 11.3901 10.5391 10.5521 10.5502 9.94016C10.5526 9.8071 10.5549 9.68336 10.5602 9.56821C10.5703 9.35159 10.6234 9.13025 10.7224 8.89233C10.7059 8.47139 10.6931 7.91505 10.6863 7.32083C10.611 6.52448 10.5909 4.34218 10.6464 2.92625C10.6872 1.88701 11.0348 0.414162 11.3141 -0.769241C11.4325 -1.27077 11.5349 -1.70443 11.5997 -2.04166C11.6264 -2.39107 11.6032 -2.86082 11.5308 -3.43843L11.5297 -3.44122C10.5575 -5.83583 9.57117 -8.34338 9.1293 -10.3645C8.90742 -11.3793 8.86471 -13.1575 8.82338 -14.8772C8.80577 -15.6093 8.78756 -16.3663 8.75566 -17.0422C8.36675 -19.9197 8.01278 -23.2492 7.98388 -24.301C7.96108 -25.1259 8.10348 -26.8615 8.32236 -28.4277L8.33711 -28.702C8.41785 -30.1618 8.5399 -32.3679 8.83574 -33.6068C9.23389 -35.2743 9.98853 -39.7104 9.95783 -41.1235C9.92667 -42.5599 10.6603 -45.6328 11.2019 -47.2989C11.3138 -47.7717 11.5128 -48.5106 11.6882 -49.1624C11.7556 -49.4127 11.8189 -49.6478 11.8714 -49.846C11.6306 -50.3069 11.825 -55.4054 11.9968 -55.9606C12.0421 -56.38 12.0911 -56.7692 12.1426 -57.1199C12.1077 -57.169 12.1158 -57.2087 12.2255 -57.6365C12.3033 -58.0887 12.3875 -58.4639 12.4735 -58.7408C12.5173 -58.8985 12.5729 -59.0606 12.6319 -59.2322C12.7639 -59.6166 12.9003 -60.0141 12.9264 -60.4413C12.8632 -61.1092 12.8644 -61.8801 12.9291 -62.286C12.9318 -62.7704 12.9321 -63.3933 12.9112 -63.9522C12.8344 -64.1561 12.7538 -64.3572 12.6658 -64.5768C12.5662 -64.8253 12.4573 -65.0973 12.3338 -65.423C11.8946 -66.5816 11.3425 -68.6291 10.8087 -70.6092C10.5251 -71.661 10.2571 -72.6545 10.0179 -73.4714C9.94397 -73.7237 9.87235 -73.988 9.80344 -74.2623C9.78604 -74.0956 9.76557 -73.9149 9.74218 -73.7206C9.66775 -73.1018 9.28057 -71.8699 8.83211 -70.4436C8.06544 -68.005 7.11133 -64.9699 7.18708 -63.3603C7.28031 -61.3769 6.63244 -59.8076 6.2432 -59.3611C6.14911 -58.9439 6.07282 -58.6477 6.01037 -58.457C5.99164 -58.3365 5.97329 -58.2155 5.95489 -58.0942C5.89282 -57.6848 5.82858 -57.2613 5.74996 -56.8582C5.66159 -56.2437 5.47865 -55.5365 5.19173 -54.7028C4.90329 -53.8642 4.05343 -51.7946 2.91811 -49.1658C2.7676 -48.6785 2.60042 -48.1441 2.42361 -47.5789C1.28298 -43.9323 -0.279262 -38.9381 -0.318536 -37.1651C-0.32983 -36.657 -0.0452366 -35.8794 0.42481 -34.6594C0.946352 -33.3055 0.856114 -30.6467 -0.338471 -28.386C-0.846663 -27.4241 -1.29677 -25.9536 -1.732 -24.5315C-2.1548 -23.1502 -2.55408 -21.8456 -2.94845 -21.2588C-3.18328 -20.9094 -3.42641 -20.7322 -3.67093 -20.7322C-3.92098 -20.7322 -4.10902 -20.9137 -4.23613 -21.1C-4.43381 -20.0882 -4.89196 -18.2743 -5.65392 -18.1357C-5.70848 -18.1257 -5.76216 -18.1207 -5.81347 -18.1207C-6.18862 -18.1207 -6.4618 -18.3801 -6.5992 -18.8494C-6.83643 -18.0405 -7.27105 -16.9558 -7.89559 -16.9558L-7.91579 -16.9562C-8.79508 -16.9883 -8.821 -18.1433 -8.781 -19.4447C-8.85063 -19.4059 -8.9295 -19.3857 -9.01555 -19.3857C-9.59138 -19.3857 -10.2834 -20.2508 -10.4127 -21.1324C-10.7325 -23.3141 -10.5206 -25.9278 -10.3659 -27.8362C-10.2898 -28.774 -10.2115 -29.7408 -10.2759 -30.0142C-10.3945 -29.9046 -10.5456 -29.7087 -10.7184 -29.4849C-11.0429 -29.0646 -11.4466 -28.5416 -11.9202 -28.2157C-12.3044 -27.9511 -12.7624 -27.8114 -13.2446 -27.8114C-14.0014 -27.8114 -14.6675 -28.1533 -14.8284 -28.6243C-14.8892 -28.8023 -14.924 -29.153 -14.4743 -29.5012C-13.3022 -30.4089 -11.0557 -33.6878 -10.2571 -35.6562C-9.7246 -36.9688 -8.74371 -37.4039 -7.95558 -37.7535C-7.48507 -37.9622 -7.07874 -38.1424 -6.87848 -38.4589C-6.48525 -39.0802 -5.91931 -41.7459 -5.19637 -46.3819C-5.09304 -47.5185 -5.00845 -48.2585 -4.93118 -48.7022C-4.88533 -48.9651 -4.83762 -49.259 -4.78892 -49.5708C-4.75444 -52.5996 -4.69942 -55.9691 -4.48446 -57.6468C-4.07142 -60.8713 -2.71961 -64.7892 -1.53254 -66.2022C-1.36296 -66.404 -1.2116 -66.5876 -1.07632 -66.7517C-0.664949 -67.2505 -0.410582 -67.5589 -0.218554 -67.6898C-0.0483809 -67.9178 0.0970659 -68.3457 0.214016 -68.9626C0.0485649 -71.4332 0.315685 -74.0934 0.92926 -76.0858C1.01618 -76.9127 1.08614 -77.5638 1.12933 -77.8065C1.27099 -78.6026 1.1191 -79.3705 0.997098 -79.9877C0.939289 -80.2801 0.88932 -80.5327 0.883808 -80.7324C0.870187 -81.2219 0.782805 -81.8682 0.650451 -82.8464C0.588328 -83.306 0.516558 -83.8363 0.438554 -84.4541C0.16904 -86.5889 0.567194 -89.1501 1.50364 -91.3053C2.60621 -93.8429 3.84385 -95.2045 5.77547 -96.0051C6.2713 -96.2105 7.18036 -96.318 7.82205 -96.318C7.86337 -96.318 7.90404 -96.3176 7.94405 -96.3167C9.50323 -97.1385 10.8991 -97.4306 11.624 -97.4306C11.7366 -97.4306 11.8383 -97.4238 11.9267 -97.4104C11.9684 -97.4125 12.0124 -97.4135 12.0586 -97.4135C12.1493 -97.4135 12.2488 -97.4097 12.3456 -97.4045C12.3761 -97.7216 12.7893 -97.9567 13.2826 -98.2036C13.9683 -98.5466 14.6835 -98.8603 15.4083 -99.136C16.2461 -99.4547 17.0884 -99.7179 18.0953 -100.015C18.2184 -100.051 18.3425 -100.086 18.4666 -100.12C19.1926 -100.322 19.8782 -100.512 20.3795 -101.059C20.5228 -101.215 20.6432 -101.388 20.7706 -101.572C20.8311 -101.658 20.8917 -101.745 20.9545 -101.83C21.1485 -102.092 21.3491 -102.362 21.4575 -102.667C21.509 -102.812 21.4963 -102.976 21.4827 -103.15C21.477 -103.224 21.4712 -103.299 21.4702 -103.372C21.4668 -103.607 21.467 -103.855 21.4708 -104.13C21.478 -104.649 21.494 -105.262 21.5574 -105.873C21.5449 -106.045 21.5321 -106.133 21.5235 -106.176C21.5074 -106.256 21.4942 -106.338 21.4805 -106.422C21.4179 -106.806 21.347 -107.241 20.9353 -107.855C20.5836 -108.379 20.4863 -109.598 20.4666 -110.527C20.4628 -110.707 20.3163 -110.853 20.1401 -110.853C20.1171 -110.853 20.0939 -110.851 20.071 -110.846C19.9662 -110.823 19.8565 -110.811 19.7537 -110.811C19.4768 -110.811 19.248 -110.895 19.0921 -111.054C18.9313 -111.218 18.8526 -111.454 18.8583 -111.755C18.8784 -112.806 18.6645 -113.417 18.4759 -113.955C18.3807 -114.227 18.2909 -114.483 18.2368 -114.772C18.1407 -115.285 18.0823 -115.974 18.3492 -116.347C18.4542 -116.493 18.5982 -116.581 18.7774 -116.606C18.8212 -116.613 18.8664 -116.616 18.9116 -116.616C19.0601 -116.616 19.2154 -116.582 19.3732 -116.515C19.3948 -116.506 19.417 -116.501 19.4394 -116.501C19.4873 -116.501 19.5349 -116.523 19.5697 -116.56C19.6053 -116.599 19.6228 -116.649 19.6188 -116.701C19.5033 -118.24 19.3978 -122.029 20.9106 -123.97C22.7094 -126.278 25.4761 -126.745 26.5822 -126.839C26.7251 -126.851 26.8977 -126.864 27.136 -126.864C27.3148 -126.864 27.5086 -126.857 27.7122 -126.841C28.8385 -126.758 31.6551 -126.31 33.4793 -123.97C34.9921 -122.028 34.8865 -118.24 34.7709 -116.701C34.767 -116.649 34.7845 -116.599 34.8202 -116.56C34.855 -116.523 34.9024 -116.501 34.9505 -116.501C34.9728 -116.501 34.995 -116.506 35.0166 -116.515C35.1744 -116.582 35.3297 -116.616 35.4782 -116.616C35.5234 -116.616 35.5686 -116.613 35.6125 -116.606C35.7916 -116.581 35.9356 -116.493 36.0406 -116.347C36.3075 -115.974 36.249 -115.285 36.1529 -114.772C36.0989 -114.483 36.009 -114.227 35.9139 -113.955C35.7252 -113.417 35.5114 -112.806 35.5315 -111.755C35.5372 -111.454 35.4585 -111.218 35.2977 -111.054C35.1418 -110.895 34.913 -110.811 34.6362 -110.811C34.5333 -110.811 34.4235 -110.823 34.3187 -110.846C34.2959 -110.851 34.2727 -110.853 34.2497 -110.853C34.0736 -110.853 33.927 -110.707 33.9233 -110.527C33.9035 -109.597 33.806 -108.379 33.4545 -107.855C33.0428 -107.241 32.9719 -106.806 32.9093 -106.422C32.8957 -106.338 32.8824 -106.256 32.8664 -106.176C32.8577 -106.133 32.8449 -106.045 32.8324 -105.873C32.9171 -105.058 32.925 -104.256 32.9216 -103.579C32.9211 -103.483 32.9159 -103.386 32.9107 -103.289C32.9034 -103.152 32.8965 -103.022 32.9025 -102.895C32.9177 -102.575 33.1492 -102.24 33.3534 -101.944C33.3825 -101.902 33.4109 -101.861 33.4379 -101.821C33.7 -101.433 33.9711 -101.032 34.3392 -100.743C34.6396 -100.508 34.9978 -100.402 35.3769 -100.289L35.7073 -100.189C37.5084 -99.6397 39.3708 -99.0723 41.1072 -98.2035L41.2133 -98.1513C41.4365 -98.0426 41.6895 -97.9193 41.8652 -97.7354C41.9588 -97.6375 42.0183 -97.5205 42.0372 -97.4031C42.2097 -97.411 42.3691 -97.4148 42.521 -97.4148C43.1146 -97.4148 43.624 -97.355 44.1239 -97.2265C44.8959 -97.0281 45.6768 -96.7221 46.4457 -96.3167C46.4857 -96.3176 46.5264 -96.318 46.5677 -96.318C47.2094 -96.318 48.1185 -96.2105 48.6142 -96.0051C50.5459 -95.2046 51.7836 -93.8429 52.8862 -91.3053C53.8226 -89.1502 54.2207 -86.5891 53.9513 -84.4541C53.8732 -83.8361 53.8014 -83.3055 53.7393 -82.8458C53.607 -81.8679 53.5196 -81.2219 53.506 -80.7324C53.5004 -80.5327 53.4505 -80.2801 53.3927 -79.9877C53.2707 -79.3706 53.1188 -78.6026 53.2604 -77.8065C53.3037 -77.5639 53.3736 -76.9131 53.4604 -76.0866C54.0815 -74.0715 54.347 -71.3836 54.1715 -68.8888C54.2846 -68.3069 54.4286 -67.9056 54.6 -67.6951C54.7934 -67.5674 55.0506 -67.2556 55.4674 -66.7501C55.6023 -66.5865 55.7533 -66.4035 55.9224 -66.2022C57.1094 -64.7891 58.4612 -60.8712 58.8743 -57.6469C59.0893 -55.969 59.1443 -52.5997 59.1788 -49.5708C59.2274 -49.259 59.2751 -48.9651 59.3209 -48.7023C59.3973 -48.2638 59.4844 -47.5019 59.5872 -46.3733C60.3091 -41.7459 60.8751 -39.0802 61.2683 -38.4589C61.4686 -38.1424 61.8749 -37.9622 62.3454 -37.7535C63.1335 -37.4039 64.1144 -36.9689 64.6469 -35.6563C65.4454 -33.6878 67.692 -30.409 68.8641 -29.5012C69.3139 -29.153 69.279 -28.8023 69.2182 -28.6243C69.0574 -28.1533 68.3913 -27.8114 67.6344 -27.8114C67.1522 -27.8114 66.6942 -27.9512 66.3099 -28.2157C65.8365 -28.5416 65.4327 -29.0646 65.1083 -29.4847C64.9356 -29.7086 64.7843 -29.9045 64.6657 -30.0142C64.6014 -29.7407 64.6797 -28.7741 64.7557 -27.8367C64.9104 -25.9281 65.1223 -23.3142 64.8025 -21.1325C64.6733 -20.2509 63.9812 -19.3858 63.4053 -19.3858C63.3198 -19.3858 63.2412 -19.4058 63.1719 -19.4442C63.2106 -18.143 63.1834 -16.9884 62.3056 -16.9562L62.2854 -16.9559C61.6608 -16.9559 61.2262 -18.0406 60.989 -18.8496C60.8516 -18.3803 60.5784 -18.1208 60.2033 -18.1208C60.152 -18.1208 60.0983 -18.1258 60.0437 -18.1357C59.282 -18.2744 58.8237 -20.0882 58.626 -21.1C58.4988 -20.9138 58.3107 -20.7323 58.0607 -20.7323C57.8162 -20.7323 57.5731 -20.9095 57.3383 -21.2589C56.9439 -21.8457 56.5446 -23.1503 56.1218 -24.5315C55.6865 -25.9537 55.2365 -27.4242 54.7282 -28.3861C53.5337 -30.647 53.4434 -33.3057 53.965 -34.6595C54.4351 -35.8796 54.7197 -36.6572 54.7084 -37.1652C54.6692 -38.938 53.1072 -43.9315 51.9666 -47.5776C51.7897 -48.1432 51.6223 -48.6781 51.4717 -49.1658C50.3364 -51.7948 49.4865 -53.8645 49.1981 -54.7029C48.9111 -55.5368 48.7282 -56.244 48.6387 -56.8651C48.5613 -57.2613 48.4971 -57.6845 48.435 -58.0937C48.4166 -58.2151 48.3982 -58.3364 48.3795 -58.457C48.317 -58.6476 48.2407 -58.9438 48.1466 -59.3612C47.7574 -59.8076 47.1095 -61.377 47.2028 -63.3604C47.2785 -64.9701 46.3243 -68.0052 45.5576 -70.444C45.1092 -71.8702 44.722 -73.1019 44.6476 -73.7206C44.6242 -73.9149 44.6038 -74.0957 44.5863 -74.2623C44.5175 -73.9881 44.4459 -73.7238 44.3719 -73.4714C44.1326 -72.6546 43.8648 -71.661 43.5811 -70.6091C43.0472 -68.6291 42.4952 -66.5817 42.056 -65.4231C41.9326 -65.0976 41.8237 -64.8257 41.7242 -64.5772C41.6361 -64.3576 41.5555 -64.1563 41.4787 -63.9522C41.4577 -63.3921 41.4579 -62.7698 41.4607 -62.2861C41.5254 -61.8802 41.5266 -61.1093 41.4634 -60.4413C41.4896 -60.0142 41.626 -59.6168 41.7579 -59.2323C41.8168 -59.0608 41.8724 -58.8987 41.9174 -58.7372C42.0022 -58.4643 42.0865 -58.0891 42.1666 -57.626C42.2715 -57.2176 42.2816 -57.1711 42.2498 -57.1236C42.3245 -56.7421 42.5491 -55.8306 42.663 -55.3687C42.6979 -55.2268 42.724 -55.1207 42.7351 -55.0739C42.8285 -54.6773 42.8155 -50.3122 42.5206 -49.838C42.5728 -49.6406 42.6356 -49.4074 42.7024 -49.1592C42.8776 -48.5085 43.0761 -47.771 43.1907 -47.2883C43.7294 -45.6331 44.4631 -42.5602 44.432 -41.1236C44.4012 -39.7105 45.1559 -35.2744 45.5541 -33.6068C45.8501 -32.3671 45.9722 -30.1598 46.0528 -28.6991L46.0686 -28.4164C46.2827 -26.8871 46.4283 -25.1131 46.4059 -24.3011C46.377 -23.2492 46.0231 -19.9195 45.6331 -17.0303C45.6022 -16.3663 45.584 -15.6094 45.5664 -14.8773C45.5251 -13.1576 45.4824 -11.3794 45.2604 -10.3646C44.8187 -8.34344 43.8323 -5.83595 42.8599 -3.44074L42.8592 -3.44095C42.7866 -2.86235 42.7634 -2.39173 42.79 -2.04186C42.8549 -1.70468 42.9572 -1.27109 43.0756 -0.769691C43.3549 0.41378 43.7027 1.88675 43.7433 2.92619C43.7989 4.34178 43.7788 6.52422 43.7028 7.33221C43.6967 7.91313 43.6839 8.46906 43.6674 8.89221C43.7664 9.13025 43.8195 9.35167 43.8296 9.56816C43.8349 9.6834 43.8372 9.80728 43.8396 9.94038C43.8507 10.5522 43.8659 11.3903 44.2286 12.4956C44.7167 13.983 44.9122 15.3774 44.9853 16.0762C45.0772 16.955 45.2192 19.6319 45.0253 21.0416C44.8406 22.3844 44.1961 26.0318 43.885 27.0903C43.831 27.2744 43.7742 27.4899 43.7141 27.7181C43.5832 28.2153 43.435 28.7783 43.2584 29.2268C42.7113 32.3307 41.9322 38.2363 41.7684 39.5338C41.73 39.8371 41.6783 40.1337 41.6146 40.4153C41.5466 41.6674 41.5104 43.3201 41.591 44.002C41.689 44.8313 41.9158 45.5133 42.135 46.1729L42.214 46.4114C42.4485 47.1253 42.3645 47.9172 41.9643 48.7652C41.6512 49.4288 41.8675 50.8709 42.401 51.6767C42.7836 52.2546 43.6716 53.3189 44.3201 54.0959C44.5733 54.3995 44.7921 54.6616 44.9295 54.8336C45.4625 55.5002 45.6088 56.5986 45.4423 57.2754C45.2767 57.9489 45.0064 58.2113 44.4784 58.2113C44.2326 58.2113 44.0177 58.0997 43.8449 58.0101C43.7291 57.9499 43.6197 57.8931 43.5454 57.8931C43.5322 57.8931 43.5207 57.895 43.5102 57.8987C43.4274 57.9286 43.3713 57.9739 43.3063 58.0263C43.2001 58.112 43.0798 58.2093 42.8479 58.231C42.8338 58.2323 42.8198 58.233 42.8058 58.233Z" fill="white" stroke="#28839F" stroke-width="0.7"/>
<path d="M12.5017 -20.0421C12.2583 -17.7584 11.8931 -13.4347 11.954 -10.2985C12.0148 -7.16229 11.9388 -3.28009 11.7714 -2.22962C11.604 -1.17914 10.8433 1.37854 10.7825 2.93143C10.7216 4.4843 10.7521 7.14856 10.8586 7.57483C10.9651 8.00112 11.5888 6.70706 12.3496 5.41299C13.1103 4.11893 15.362 -0.357025 15.6967 -2.01647C16.0314 -3.67593 16.5487 -11.9275 16.6248 -14.1959C16.7009 -16.4643 16.9443 -20.2704 17.5376 -22.3562C18.909 -27.1766 13.1122 -25.7696 12.5017 -20.0421Z" fill="#28839F" fill-opacity="0.2"/>
<path d="M18.2427 -24.7614C18.068 -23.8848 18.0297 -22.9649 17.8167 -21.9804C17.6037 -20.9959 16.9444 -14.3074 16.8734 -13.0793C16.8024 -11.8512 16.5691 -7.11138 16.5082 -5.90358C16.4474 -4.69579 16.3662 -2.75722 16.0417 -1.72196C15.7171 -0.686718 16.1735 2.04351 16.559 3.50504C16.9444 4.96659 18.6281 8.68132 19.0338 9.35118C19.4395 10.0211 18.4033 4.49085 18.3999 3.29698C18.3975 2.4598 18.8278 0.642832 19.2215 -1.38703C19.6654 -3.67607 20.1074 -6.2316 20.6719 -7.87766C21.7369 -10.9834 21.9956 -16.1749 21.813 -17.606C21.6304 -19.0371 20.7987 -21.0467 20.2916 -21.9094C19.7844 -22.7721 19.4205 -24.377 19.4091 -24.7462C19.3977 -25.1154 18.3314 -25.2067 18.2427 -24.7614Z" fill="#28839F" fill-opacity="0.2"/>
<path d="M21.9144 -12.8352C21.9095 -11.3576 21.5442 -9.23717 20.824 -7.15651C20.1039 -5.07586 19.7134 -2.371 19.4598 -1.08201C19.2062 0.206973 18.6078 2.41957 18.7295 4.0232C18.8512 5.62683 19.2468 7.80898 19.5207 8.77319C19.7945 9.73739 19.9872 10.5189 20.2307 10.3565C20.4741 10.1941 20.5857 9.20961 21.0015 8.24541C21.4174 7.28121 21.9651 3.95215 22.0158 2.35868C22.0665 0.7652 22.3404 -1.86353 22.665 -3.15252C22.9895 -4.44151 23.3344 -7.76042 23.1924 -8.57237C23.0504 -9.38433 22.6751 -9.71928 22.6447 -10.6429C22.6143 -11.5665 22.6396 -12.3404 22.5128 -13.1219C22.4494 -13.5127 22.2859 -14.9012 22.1781 -14.9564C22.0704 -15.0116 21.9169 -13.5989 21.9144 -12.8352Z" fill="#28839F" fill-opacity="0.2"/>
<path d="M13.7593 5.29162C15.0918 6.51385 15.3213 8.60036 15.585 9.71681C15.8488 10.8333 15.585 15.4209 15.4633 17.4305C15.3416 19.4401 15.7879 22.7894 15.4228 24.4945C15.0576 26.1996 14.8243 27.5191 13.739 28.6153C12.6537 29.7114 12.5929 29.8839 11.9539 29.9753C11.3149 30.0666 10.9396 28.0875 10.6353 27.0522C10.331 26.017 9.69203 22.424 9.49931 21.0234C9.3066 19.6228 9.44859 16.9636 9.53987 16.0907C9.63116 15.2179 9.84417 13.8984 10.2905 12.5384C10.7367 11.1783 10.6657 10.2344 10.6962 9.57472C10.7266 8.915 11.1729 8.31617 11.8525 7.32152C12.532 6.32686 12.816 5.60624 13.0899 5.3728C13.3638 5.13936 13.5159 5.06832 13.7593 5.29162Z" fill="#28839F"/>
<path d="M16.0009 10.7418C16.1109 12.2335 16.153 14.1977 16.0009 15.8267C15.8487 17.4557 15.7422 18.7802 15.9096 20.3636C16.0769 21.9469 15.8792 23.0583 15.8183 24.3219C15.7574 25.5855 15.4075 26.6055 15.8639 28.1888C16.3204 29.7722 17.5832 31.0054 18.3895 31.386C19.1959 31.7666 19.5458 31.9645 19.8197 31.1728C20.0935 30.3812 20.3978 28.7369 20.8542 27.8539C21.3107 26.9709 21.402 25.6159 21.2802 23.8651C21.1585 22.1143 20.5753 17.41 20.4536 16.456C20.3319 15.5019 20.1696 13.5938 20.0073 12.5992C19.845 11.6045 19.5002 10.5084 18.9524 9.91968C18.4047 9.33101 17.8773 8.60024 17.2484 7.80857C16.6196 7.01692 16.3964 7.88978 16.1124 8.74234C15.8284 9.59489 15.8893 9.22951 16.0009 10.7418Z" fill="#28839F"/>
<path d="M11.8018 31.1425C12.415 32.117 14.5759 43.464 14.6317 43.9309C14.694 44.4521 14.4643 43.9918 14.2057 43.1696C13.947 42.3475 13.2015 40.206 13.0088 39.597C12.8161 38.9881 12.5524 37.5265 12.4814 37.0596C12.4104 36.5928 12.0351 33.4159 11.9337 32.878C11.8322 32.3401 11.6725 30.9369 11.8018 31.1425Z" fill="#28839F" fill-opacity="0.2"/>
<path d="M18.7549 35.7552C18.2331 37.5236 17.8268 41.784 17.6899 43.9154C17.5529 46.0468 17.9713 43.9458 18.0702 43.2607C18.1691 42.5756 18.6788 39.7135 18.7853 39.2111C18.8918 38.7087 18.9603 36.524 18.9831 36.1053C19.0059 35.6866 18.9907 34.9559 18.7549 35.7552Z" fill="#28839F" fill-opacity="0.2"/>
<path d="M41.8882 -20.0421C42.1316 -17.7584 42.4968 -13.4347 42.4359 -10.2985C42.3751 -7.16229 42.4511 -3.28009 42.6185 -2.22962C42.7859 -1.17914 43.5466 1.37854 43.6074 2.93143C43.6683 4.4843 43.6378 7.14856 43.5313 7.57483C43.4249 8.00112 42.8011 6.70706 42.0403 5.41299C41.2796 4.11893 39.0279 -0.357025 38.6932 -2.01647C38.3585 -3.67593 37.8412 -11.9275 37.7651 -14.1959C37.689 -16.4643 37.4456 -20.2704 36.8523 -22.3562C35.4809 -27.1766 41.2777 -25.7696 41.8882 -20.0421Z" fill="#28839F" fill-opacity="0.2"/>
<path d="M36.1475 -24.7614C36.3222 -23.8848 36.3605 -22.9649 36.5735 -21.9804C36.7865 -20.9959 37.4458 -14.3074 37.5168 -13.0793C37.5878 -11.8512 37.8211 -7.11138 37.882 -5.90358C37.9428 -4.69579 38.024 -2.75722 38.3485 -1.72196C38.6731 -0.686718 38.2167 2.04351 37.8312 3.50504C37.4458 4.96659 35.7621 8.68132 35.3564 9.35118C34.9507 10.0211 35.9869 4.49085 35.9903 3.29698C35.9927 2.4598 35.5624 0.642832 35.1687 -1.38703C34.7248 -3.67607 34.2828 -6.2316 33.7183 -7.87766C32.6533 -10.9834 32.3946 -16.1749 32.5772 -17.606C32.7598 -19.0371 33.5915 -21.0467 34.0986 -21.9094C34.6058 -22.7721 34.9697 -24.377 34.9811 -24.7462C34.9925 -25.1154 36.0588 -25.2067 36.1475 -24.7614Z" fill="#28839F" fill-opacity="0.2"/>
<path d="M32.4754 -12.8352C32.4803 -11.3576 32.8456 -9.23717 33.5658 -7.15651C34.2859 -5.07586 34.6764 -2.371 34.93 -1.08201C35.1836 0.206973 35.782 2.41957 35.6603 4.0232C35.5386 5.62683 35.143 7.80898 34.8691 8.77319C34.5953 9.73739 34.4026 10.5189 34.1591 10.3565C33.9157 10.1941 33.8041 9.20961 33.3883 8.24541C32.9724 7.28121 32.4247 3.95215 32.374 2.35868C32.3233 0.7652 32.0494 -1.86353 31.7248 -3.15252C31.4003 -4.44151 31.0554 -7.76042 31.1974 -8.57237C31.3394 -9.38433 31.7147 -9.71928 31.7451 -10.6429C31.7755 -11.5665 31.7502 -12.3404 31.877 -13.1219C31.9404 -13.5127 32.1039 -14.9012 32.2117 -14.9564C32.3195 -15.0116 32.4729 -13.5989 32.4754 -12.8352Z" fill="#28839F" fill-opacity="0.2"/>
<path d="M40.6303 5.29162C39.2978 6.51385 39.0683 8.60036 38.8045 9.71681C38.5408 10.8333 38.8046 15.4209 38.9263 17.4305C39.048 19.4401 38.6017 22.7894 38.9668 24.4945C39.332 26.1996 39.5653 27.5191 40.6506 28.6153C41.7359 29.7114 41.7967 29.8839 42.4357 29.9753C43.0747 30.0666 43.45 28.0875 43.7543 27.0522C44.0586 26.017 44.6976 22.424 44.8903 21.0234C45.083 19.6228 44.941 16.9636 44.8497 16.0907C44.7584 15.2179 44.5454 13.8984 44.0991 12.5384C43.6529 11.1783 43.7239 10.2344 43.6934 9.57472C43.663 8.915 43.2167 8.31617 42.5371 7.32152C41.8576 6.32686 41.5736 5.60624 41.2997 5.3728C41.0258 5.13936 40.8737 5.06832 40.6303 5.29162Z" fill="#28839F"/>
<path d="M38.389 10.7418C38.2789 12.2335 38.2369 14.1977 38.389 15.8267C38.5411 17.4557 38.6476 18.7802 38.4803 20.3636C38.3129 21.9469 38.5107 23.0583 38.5716 24.3219C38.6324 25.5855 38.9823 26.6055 38.5259 28.1888C38.0695 29.7722 36.8067 31.0054 36.0003 31.386C35.194 31.7666 34.844 31.9645 34.5702 31.1728C34.2963 30.3812 33.992 28.7369 33.5356 27.8539C33.0792 26.9709 32.9879 25.6159 33.1096 23.8651C33.2313 22.1143 33.8145 17.41 33.9363 16.456C34.058 15.5019 34.2203 13.5938 34.3825 12.5992C34.5448 11.6045 34.8897 10.5084 35.4374 9.91968C35.9851 9.33101 36.5126 8.60024 37.1414 7.80857C37.7703 7.01692 37.9934 7.88978 38.2774 8.74234C38.5614 9.59489 38.5006 9.22951 38.389 10.7418Z" fill="#28839F"/>
<path d="M42.5882 31.1425C41.975 32.117 39.8141 43.464 39.7584 43.9309C39.6961 44.4521 39.9257 43.9918 40.1844 43.1696C40.443 42.3475 41.1885 40.206 41.3812 39.597C41.5739 38.9881 41.8376 37.5265 41.9086 37.0596C41.9797 36.5928 42.3549 33.4159 42.4564 32.878C42.5578 32.3401 42.7175 30.9369 42.5882 31.1425Z" fill="#28839F" fill-opacity="0.2"/>
<path d="M35.6353 35.7552C36.1571 37.5236 36.5634 41.784 36.7003 43.9154C36.8372 46.0468 36.4188 43.9458 36.3199 43.2607C36.2211 42.5756 35.7114 39.7135 35.6049 39.2111C35.4984 38.7087 35.4299 36.524 35.4071 36.1053C35.3843 35.6866 35.3995 34.9559 35.6353 35.7552Z" fill="#28839F" fill-opacity="0.2"/>
</g>
<defs>
<clipPath id="clip0_4055_7433">
<rect width="61" height="48" fill="white"/>
</clipPath>
</defs>
</svg>
