<svg width="61" height="48" viewBox="0 0 61 48" fill="none" xmlns="http://www.w3.org/2000/svg">
<g clip-path="url(#clip0_4089_13870)">
<path d="M42.8058 117.233C42.6222 117.233 42.4739 117.126 42.3305 117.022C42.2116 116.936 42.0992 116.855 41.9914 116.855C41.9728 116.855 41.9546 116.857 41.936 116.862C41.8132 116.894 41.7456 116.946 41.6674 117.008C41.5567 117.094 41.4314 117.192 41.1771 117.192C41.1603 117.192 41.1427 117.192 41.1246 117.191C40.8874 117.179 40.7392 117.079 40.6084 116.991C40.4879 116.909 40.3928 116.845 40.2338 116.845C40.2243 116.845 40.2145 116.845 40.2045 116.846C40.0376 116.854 39.9414 116.91 39.8194 116.982C39.6669 117.071 39.494 117.173 39.171 117.191C39.1486 117.192 39.1266 117.193 39.1047 117.193C38.8033 117.193 38.5441 117.077 38.3153 116.976C38.1232 116.89 37.9416 116.809 37.7608 116.805L37.7459 116.805C37.5611 116.805 37.334 116.88 37.0936 116.96C36.7948 117.059 36.4561 117.171 36.1046 117.171L36.0778 117.171C35.2305 117.157 34.749 116.721 34.6467 115.874C34.5924 115.424 34.7415 114.938 34.8857 114.468C35.0525 113.924 35.2249 113.361 35.096 112.845C34.8236 111.755 34.6672 110.353 34.7067 109.356C34.7337 108.672 34.5211 107.75 34.3336 106.937C34.2434 106.545 34.1581 106.176 34.1 105.843C33.9787 105.148 34.4867 103.931 34.9349 102.856C35.1803 102.268 35.412 101.712 35.4588 101.414C35.5085 101.095 35.5116 100.021 35.4677 98.2202C35.3824 97.7848 35.3225 96.3354 35.2902 95.5533C35.2819 95.3534 35.2755 95.1971 35.2709 95.1128C35.2667 95.0352 35.2487 94.6542 35.2887 94.4565L35.2187 93.926C35.0793 92.8643 34.9476 91.8614 34.8329 91.432C34.8329 91.432 34.6511 90.7557 34.5987 90.5585C34.541 90.4679 34.4894 90.356 34.4414 90.2172C34.3429 89.9323 34.24 89.5374 34.1312 89.1193C33.9303 88.3479 33.7027 87.4737 33.4146 86.9163C33.1489 86.4024 32.9949 85.7247 32.944 84.8449C32.8628 84.4374 32.794 83.9695 32.7395 83.4539C32.4781 80.9776 32.7667 77.5005 33.0662 76.0436C33.2168 75.3107 33.4525 74.4235 33.6604 73.6408C33.859 72.8931 34.0466 72.1868 34.1202 71.7645C34.196 71.33 34.2129 71.0843 34.2231 70.9375C34.2297 70.842 34.2341 70.7784 34.2528 70.7278C34.2276 70.5934 34.2004 70.4413 34.1714 70.278C34.1231 70.0079 34.0688 69.7032 34.0087 69.3983C33.881 69.2467 33.7953 68.945 33.68 68.5397C33.5778 68.1803 33.4507 67.733 33.2635 67.2988C32.8274 66.2879 32.2886 62.9498 32.2381 61.3625C32.1867 59.7483 31.9153 57.1601 31.593 55.8802C31.3057 54.739 31.0018 51.9992 31.0309 50.8149C31.0055 50.5582 30.9801 50.3166 30.9546 50.1045C30.9278 49.8805 30.9096 49.5969 30.9005 49.261C30.843 49.1308 30.7546 48.9469 30.6279 48.7683C30.4621 48.5346 30.3089 48.2144 30.1726 47.8168C29.9593 47.2717 29.7103 46.225 29.6309 45.5365C29.5015 44.4142 28.6802 39.4649 28.2056 37.8871C27.6641 36.0865 28.0349 32.456 28.0789 32.048C28.0936 31.9119 28.1072 31.7773 28.1205 31.6452C28.159 31.2614 28.1956 30.8978 28.253 30.5741C28.0991 30.3351 27.9719 30.0836 27.8659 29.8085C27.6216 29.7412 27.3776 29.7228 27.276 29.7228H27.1137C27.0122 29.7228 26.7683 29.7412 26.5239 29.8085C26.4179 30.0836 26.2907 30.3352 26.1367 30.5741C26.1943 30.8983 26.2308 31.2624 26.2694 31.6467C26.2827 31.7784 26.2961 31.9125 26.3108 32.048C26.3549 32.456 26.7259 36.0861 26.1841 37.8871C25.7095 39.4651 24.8882 44.4143 24.7588 45.5366C24.6795 46.2249 24.4306 47.2716 24.2153 47.8221C24.0808 48.2146 23.9276 48.5348 23.7619 48.7683C23.6347 48.9475 23.5465 49.1312 23.4892 49.261C23.4802 49.5964 23.462 49.8801 23.4351 50.1045C23.4097 50.3166 23.3842 50.5583 23.3589 50.8148C23.388 51.9991 23.0841 54.739 22.7968 55.8802C22.4746 57.1598 22.2031 59.7479 22.1517 61.3625C22.1011 62.9499 21.5623 66.2881 21.1263 67.2988C20.939 67.7331 20.8119 68.1803 20.7097 68.5397C20.5945 68.9451 20.5088 69.2467 20.381 69.3983C20.3209 69.7032 20.2665 70.0079 20.2184 70.2781C20.1892 70.4414 20.1621 70.5934 20.1369 70.7277C20.1556 70.7784 20.16 70.842 20.1667 70.9376C20.1768 71.0843 20.1938 71.3299 20.2695 71.7645C20.3431 72.1869 20.5307 72.8934 20.7294 73.6413C20.9373 74.4238 21.173 75.3108 21.3236 76.0435C21.6231 77.5009 21.9117 80.9783 21.6502 83.4539C21.5956 83.9705 21.5266 84.4425 21.4452 84.8568C21.3934 85.7309 21.2397 86.4046 20.9752 86.9163C20.687 87.4737 20.4594 88.348 20.2586 89.1193C20.1497 89.5374 20.0469 89.9323 19.9483 90.2172C19.9004 90.3559 19.8488 90.468 19.7911 90.5586C19.7388 90.7552 19.5569 91.432 19.5569 91.432C19.4421 91.8615 19.3104 92.8645 19.171 93.9264L19.1011 94.4564C19.1411 94.6543 19.1231 95.0352 19.1188 95.1128C19.1142 95.1971 19.1078 95.3535 19.0995 95.5535C19.0672 96.3355 19.0073 97.7848 18.9221 98.2201C18.8782 100.021 18.8812 101.096 18.931 101.414C18.9777 101.712 19.2095 102.268 19.4549 102.856C19.9031 103.93 20.4111 105.148 20.2897 105.843C20.2317 106.175 20.1464 106.545 20.0561 106.937C19.8686 107.75 19.656 108.672 19.6831 109.356C19.7226 110.353 19.5661 111.755 19.2938 112.845C19.1648 113.361 19.3373 113.924 19.5041 114.468C19.6483 114.938 19.7974 115.424 19.7431 115.874C19.6407 116.721 19.1592 117.157 18.3119 117.171L18.2852 117.171C17.9337 117.171 17.595 117.059 17.2961 116.96C17.0557 116.88 16.8286 116.805 16.6439 116.805L16.629 116.805C16.4481 116.809 16.2665 116.89 16.0744 116.976C15.8457 117.077 15.5865 117.193 15.285 117.193C15.2631 117.193 15.241 117.192 15.2187 117.191C14.8957 117.173 14.7229 117.071 14.5703 116.982C14.4485 116.91 14.3522 116.854 14.1852 116.846C14.1752 116.845 14.1655 116.845 14.1559 116.845C13.997 116.845 13.9018 116.909 13.7814 116.991C13.6506 117.079 13.5023 117.179 13.2652 117.191C13.247 117.192 13.2295 117.192 13.2128 117.192C12.9583 117.192 12.8329 117.094 12.7223 117.008C12.6441 116.946 12.5765 116.894 12.4538 116.862C12.4351 116.857 12.417 116.855 12.3983 116.855C12.2905 116.855 12.1782 116.936 12.0592 117.022C11.9158 117.126 11.7675 117.233 11.5839 117.233C11.57 117.233 11.5559 117.232 11.5418 117.231C11.31 117.209 11.1896 117.112 11.0834 117.026C11.0185 116.974 10.9624 116.929 10.8795 116.899C10.8691 116.895 10.8575 116.893 10.8444 116.893C10.7701 116.893 10.6607 116.95 10.5448 117.01C10.3721 117.1 10.1572 117.211 9.91138 117.211C9.38339 117.211 9.11315 116.949 8.94743 116.275C8.78099 115.599 8.92731 114.5 9.46028 113.834C9.59789 113.661 9.8169 113.399 10.0705 113.095C10.7187 112.318 11.6064 111.254 11.9888 110.677C12.5223 109.871 12.7387 108.429 12.4255 107.765C12.0253 106.917 11.9412 106.125 12.1758 105.411L12.2546 105.174C12.4739 104.514 12.7008 103.832 12.7988 103.002C12.8794 102.321 12.8431 100.668 12.7752 99.4154C12.7116 99.1344 12.6598 98.838 12.6214 98.5338C12.4576 97.2363 11.6786 91.3307 11.1314 88.2268C10.9549 87.7787 10.8068 87.2159 10.6759 86.719C10.6158 86.4904 10.5589 86.2747 10.5048 86.0904C10.1938 85.0322 9.54932 81.3847 9.36446 80.0417C9.17057 78.6321 9.31263 75.9551 9.40452 75.0762C9.47762 74.3773 9.67317 72.9827 10.1612 71.4956C10.524 70.3901 10.5391 69.5521 10.5502 68.9402C10.5526 68.8071 10.5549 68.6834 10.5602 68.5682C10.5703 68.3516 10.6234 68.1302 10.7224 67.8923C10.7059 67.4714 10.6931 66.9151 10.6863 66.3208C10.611 65.5245 10.5909 63.3422 10.6464 61.9263C10.6872 60.887 11.0348 59.4142 11.3141 58.2308C11.4325 57.7292 11.5349 57.2956 11.5997 56.9583C11.6264 56.6089 11.6032 56.1392 11.5308 55.5616L11.5297 55.5588C10.5575 53.1642 9.57117 50.6566 9.1293 48.6355C8.90742 47.6207 8.86471 45.8425 8.82338 44.1228C8.80577 43.3907 8.78756 42.6337 8.75566 41.9578C8.36675 39.0803 8.01278 35.7508 7.98388 34.699C7.96108 33.8741 8.10348 32.1385 8.32236 30.5723L8.33711 30.298C8.41785 28.8382 8.5399 26.6321 8.83574 25.3932C9.23389 23.7257 9.98853 19.2896 9.95783 17.8765C9.92667 16.4401 10.6603 13.3672 11.2019 11.7011C11.3138 11.2283 11.5128 10.4894 11.6882 9.83756C11.7556 9.58729 11.8189 9.35223 11.8714 9.15404C11.6306 8.69312 11.825 3.59455 11.9968 3.03943C12.0421 2.62 12.0911 2.23076 12.1426 1.88009C12.1077 1.83101 12.1158 1.79132 12.2255 1.36346C12.3033 0.911255 12.3875 0.536118 12.4735 0.259178C12.5173 0.101463 12.5729 -0.0606308 12.6319 -0.232246C12.7639 -0.616638 12.9003 -1.01412 12.9264 -1.44125C12.8632 -2.10915 12.8644 -2.88011 12.9291 -3.28598C12.9318 -3.77042 12.9321 -4.39331 12.9112 -4.95223C12.8344 -5.15609 12.7538 -5.35722 12.6658 -5.57677C12.5662 -5.82531 12.4573 -6.09733 12.3338 -6.423C11.8946 -7.5816 11.3425 -9.62905 10.8087 -11.6092C10.5251 -12.661 10.2571 -13.6545 10.0179 -14.4714C9.94397 -14.7237 9.87235 -14.988 9.80344 -15.2623C9.78604 -15.0956 9.76557 -14.9149 9.74218 -14.7206C9.66775 -14.1018 9.28057 -12.8699 8.83211 -11.4436C8.06544 -9.00496 7.11133 -5.96993 7.18708 -4.36032C7.28031 -2.37691 6.63244 -0.807602 6.2432 -0.361099C6.14911 0.0560684 6.07282 0.35228 6.01037 0.542976C5.99164 0.663467 5.97329 0.784538 5.95489 0.905762C5.89282 1.3152 5.82858 1.73869 5.74996 2.14176C5.66159 2.75626 5.47865 3.46352 5.19173 4.29718C4.90329 5.13577 4.05343 7.20541 2.91811 9.8342C2.7676 10.3215 2.60042 10.8559 2.42361 11.4211C1.28298 15.0677 -0.279262 20.0619 -0.318536 21.8349C-0.32983 22.343 -0.0452366 23.1206 0.42481 24.3406C0.946352 25.6945 0.856114 28.3533 -0.338471 30.614C-0.846663 31.5759 -1.29677 33.0464 -1.732 34.4685C-2.1548 35.8498 -2.55408 37.1544 -2.94845 37.7412C-3.18328 38.0906 -3.42641 38.2678 -3.67093 38.2678C-3.92098 38.2678 -4.10902 38.0863 -4.23613 37.9C-4.43381 38.9118 -4.89196 40.7257 -5.65392 40.8643C-5.70848 40.8743 -5.76216 40.8793 -5.81347 40.8793C-6.18862 40.8793 -6.4618 40.6199 -6.5992 40.1506C-6.83643 40.9595 -7.27105 42.0442 -7.89559 42.0442L-7.91579 42.0438C-8.79508 42.0117 -8.821 40.8567 -8.781 39.5553C-8.85063 39.5941 -8.9295 39.6143 -9.01555 39.6143C-9.59138 39.6143 -10.2834 38.7492 -10.4127 37.8676C-10.7325 35.6859 -10.5206 33.0722 -10.3659 31.1638C-10.2898 30.226 -10.2115 29.2592 -10.2759 28.9858C-10.3945 29.0954 -10.5456 29.2913 -10.7184 29.5151C-11.0429 29.9354 -11.4466 30.4584 -11.9202 30.7843C-12.3044 31.0489 -12.7624 31.1886 -13.2446 31.1886C-14.0014 31.1886 -14.6675 30.8467 -14.8284 30.3757C-14.8892 30.1977 -14.924 29.847 -14.4743 29.4988C-13.3022 28.5911 -11.0557 25.3122 -10.2571 23.3438C-9.7246 22.0312 -8.74371 21.5961 -7.95558 21.2465C-7.48507 21.0378 -7.07874 20.8576 -6.87848 20.5411C-6.48525 19.9198 -5.91931 17.2541 -5.19637 12.6181C-5.09304 11.4815 -5.00845 10.7415 -4.93118 10.2978C-4.88533 10.0349 -4.83762 9.74096 -4.78892 9.42919C-4.75444 6.40041 -4.69942 3.03093 -4.48446 1.35317C-4.07142 -1.87129 -2.71961 -5.7892 -1.53254 -7.20219C-1.36296 -7.40405 -1.2116 -7.58757 -1.07632 -7.75167C-0.664949 -8.25055 -0.410582 -8.55893 -0.218554 -8.68979C-0.0483809 -8.91779 0.0970659 -9.34573 0.214016 -9.96263C0.0485649 -12.4332 0.315685 -15.0934 0.92926 -17.0858C1.01618 -17.9127 1.08614 -18.5638 1.12933 -18.8065C1.27099 -19.6026 1.1191 -20.3705 0.997098 -20.9877C0.939289 -21.2801 0.88932 -21.5327 0.883808 -21.7324C0.870187 -22.2219 0.782805 -22.8682 0.650451 -23.8464C0.588328 -24.306 0.516558 -24.8363 0.438554 -25.4541C0.16904 -27.5889 0.567194 -30.1501 1.50364 -32.3053C2.60621 -34.8429 3.84385 -36.2045 5.77547 -37.0051C6.2713 -37.2105 7.18036 -37.318 7.82205 -37.318C7.86337 -37.318 7.90404 -37.3176 7.94405 -37.3167C9.50323 -38.1385 10.8991 -38.4306 11.624 -38.4306C11.7366 -38.4306 11.8383 -38.4238 11.9267 -38.4104C11.9684 -38.4125 12.0124 -38.4135 12.0586 -38.4135C12.1493 -38.4135 12.2488 -38.4097 12.3456 -38.4045C12.3761 -38.7216 12.7893 -38.9567 13.2826 -39.2036C13.9683 -39.5466 14.6835 -39.8603 15.4083 -40.136C16.2461 -40.4547 17.0884 -40.7179 18.0953 -41.015C18.2184 -41.0513 18.3425 -41.0858 18.4666 -41.1202C19.1926 -41.3218 19.8782 -41.5122 20.3795 -42.059C20.5228 -42.2153 20.6432 -42.3883 20.7706 -42.5715C20.8311 -42.6585 20.8917 -42.7454 20.9545 -42.8302C21.1485 -43.0919 21.3491 -43.3625 21.4575 -43.6671C21.509 -43.8119 21.4963 -43.976 21.4827 -44.1498C21.477 -44.2244 21.4712 -44.2988 21.4702 -44.3723C21.4668 -44.6069 21.467 -44.8546 21.4708 -45.1298C21.478 -45.649 21.494 -46.2615 21.5574 -46.8727C21.5449 -47.045 21.5321 -47.1326 21.5235 -47.176C21.5074 -47.2562 21.4942 -47.3376 21.4805 -47.4215C21.4179 -47.8055 21.347 -48.2408 20.9353 -48.8548C20.5836 -49.3794 20.4863 -50.5976 20.4666 -51.5273C20.4628 -51.7069 20.3163 -51.8531 20.1401 -51.8531C20.1171 -51.8531 20.0939 -51.8506 20.071 -51.8456C19.9662 -51.8228 19.8565 -51.8107 19.7537 -51.8107C19.4768 -51.8107 19.248 -51.8947 19.0921 -52.0538C18.9313 -52.2178 18.8526 -52.4536 18.8583 -52.7546C18.8784 -53.8064 18.6645 -54.4167 18.4759 -54.9551C18.3807 -55.2266 18.2909 -55.4831 18.2368 -55.7717C18.1407 -56.2846 18.0823 -56.9741 18.3492 -57.3469C18.4542 -57.4934 18.5982 -57.5807 18.7774 -57.6063C18.8212 -57.6127 18.8664 -57.6158 18.9116 -57.6158C19.0601 -57.6158 19.2154 -57.5819 19.3732 -57.5148C19.3948 -57.5057 19.417 -57.5011 19.4394 -57.5011C19.4873 -57.5011 19.5349 -57.5226 19.5697 -57.5601C19.6053 -57.5985 19.6228 -57.6485 19.6188 -57.7007C19.5033 -59.2397 19.3978 -63.0286 20.9106 -64.9696C22.7094 -67.2776 25.4761 -67.7452 26.5822 -67.8391C26.7251 -67.8512 26.8977 -67.8643 27.136 -67.8643C27.3148 -67.8643 27.5086 -67.8566 27.7122 -67.8414C28.8385 -67.7577 31.6551 -67.3102 33.4793 -64.9696C34.9921 -63.0283 34.8865 -59.2396 34.7709 -57.7007C34.767 -57.6485 34.7845 -57.5985 34.8202 -57.5601C34.855 -57.5225 34.9024 -57.5011 34.9505 -57.5011C34.9728 -57.5011 34.995 -57.5057 35.0166 -57.5148C35.1744 -57.5819 35.3297 -57.6158 35.4782 -57.6158C35.5234 -57.6158 35.5686 -57.6127 35.6125 -57.6063C35.7916 -57.5807 35.9356 -57.4934 36.0406 -57.3469C36.3075 -56.9741 36.249 -56.2846 36.1529 -55.7717C36.0989 -55.4831 36.009 -55.2266 35.9139 -54.9551C35.7252 -54.4167 35.5114 -53.8065 35.5315 -52.7546C35.5372 -52.4536 35.4585 -52.2178 35.2977 -52.0537C35.1418 -51.8947 34.913 -51.8106 34.6362 -51.8106C34.5333 -51.8106 34.4235 -51.8228 34.3187 -51.8456C34.2959 -51.8506 34.2727 -51.8531 34.2497 -51.8531C34.0736 -51.8531 33.927 -51.7069 33.9233 -51.5272C33.9035 -50.5974 33.806 -49.379 33.4545 -48.8548C33.0428 -48.2408 32.9719 -47.8055 32.9093 -47.4215C32.8957 -47.3376 32.8824 -47.2562 32.8664 -47.176C32.8577 -47.1326 32.8449 -47.045 32.8324 -46.8727C32.9171 -46.0579 32.925 -45.2561 32.9216 -44.5787C32.9211 -44.4833 32.9159 -44.3864 32.9107 -44.2894C32.9034 -44.152 32.8965 -44.0222 32.9025 -43.895C32.9177 -43.5751 33.1492 -43.2399 33.3534 -42.9442C33.3825 -42.902 33.4109 -42.8609 33.4379 -42.8209C33.7 -42.4328 33.9711 -42.0315 34.3392 -41.7435C34.6396 -41.5084 34.9978 -41.4016 35.3769 -41.2886L35.7073 -41.1885C37.5084 -40.6397 39.3708 -40.0723 41.1072 -39.2035L41.2133 -39.1513C41.4365 -39.0426 41.6895 -38.9193 41.8652 -38.7354C41.9588 -38.6375 42.0183 -38.5205 42.0372 -38.4031C42.2097 -38.411 42.3691 -38.4148 42.521 -38.4148C43.1146 -38.4148 43.624 -38.355 44.1239 -38.2265C44.8959 -38.0281 45.6768 -37.7221 46.4457 -37.3167C46.4857 -37.3176 46.5264 -37.318 46.5677 -37.318C47.2094 -37.318 48.1185 -37.2105 48.6142 -37.0051C50.5459 -36.2046 51.7836 -34.8429 52.8862 -32.3053C53.8226 -30.1502 54.2207 -27.5891 53.9513 -25.4541C53.8732 -24.8361 53.8014 -24.3055 53.7393 -23.8458C53.607 -22.8679 53.5196 -22.2219 53.506 -21.7324C53.5004 -21.5327 53.4505 -21.2801 53.3927 -20.9877C53.2707 -20.3706 53.1188 -19.6026 53.2604 -18.8065C53.3037 -18.5639 53.3736 -17.9131 53.4604 -17.0866C54.0815 -15.0715 54.347 -12.3836 54.1715 -9.88877C54.2846 -9.30692 54.4286 -8.90564 54.6 -8.69513C54.7934 -8.5674 55.0506 -8.25557 55.4674 -7.7501C55.6023 -7.58646 55.7533 -7.40349 55.9224 -7.20222C57.1094 -5.7891 58.4612 -1.8712 58.8743 1.35313C59.0893 3.03102 59.1443 6.40031 59.1788 9.42921C59.2274 9.741 59.2751 10.0349 59.3209 10.2977C59.3973 10.7362 59.4844 11.4981 59.5872 12.6267C60.3091 17.2541 60.8751 19.9198 61.2683 20.5411C61.4686 20.8576 61.8749 21.0378 62.3454 21.2465C63.1335 21.5961 64.1144 22.0311 64.6469 23.3437C65.4454 25.3122 67.692 28.591 68.8641 29.4988C69.3139 29.847 69.279 30.1977 69.2182 30.3757C69.0574 30.8467 68.3913 31.1886 67.6344 31.1886C67.1522 31.1886 66.6942 31.0488 66.3099 30.7843C65.8365 30.4584 65.4327 29.9354 65.1083 29.5153C64.9356 29.2914 64.7843 29.0955 64.6657 28.9858C64.6014 29.2593 64.6797 30.2259 64.7557 31.1633C64.9104 33.0719 65.1223 35.6858 64.8025 37.8675C64.6733 38.7491 63.9812 39.6142 63.4053 39.6142C63.3198 39.6142 63.2412 39.5942 63.1719 39.5558C63.2106 40.857 63.1834 42.0116 62.3056 42.0438L62.2854 42.0441C61.6608 42.0441 61.2262 40.9594 60.989 40.1504C60.8516 40.6197 60.5784 40.8792 60.2033 40.8792C60.152 40.8792 60.0983 40.8742 60.0437 40.8643C59.282 40.7256 58.8237 38.9118 58.626 37.9C58.4988 38.0862 58.3107 38.2677 58.0607 38.2677C57.8162 38.2677 57.5731 38.0905 57.3383 37.7411C56.9439 37.1543 56.5446 35.8497 56.1218 34.4685C55.6865 33.0463 55.2365 31.5758 54.7282 30.6139C53.5337 28.353 53.4434 25.6943 53.965 24.3405C54.4351 23.1204 54.7197 22.3428 54.7084 21.8348C54.6692 20.062 53.1072 15.0685 51.9666 11.4224C51.7897 10.8568 51.6223 10.3219 51.4717 9.83418C50.3364 7.20519 49.4865 5.13554 49.1981 4.2971C48.9111 3.46324 48.7282 2.75597 48.6387 2.13488C48.5613 1.73866 48.4971 1.31551 48.435 0.906258C48.4166 0.78492 48.3982 0.663643 48.3795 0.542953C48.317 0.352386 48.2407 0.0561752 48.1466 -0.361183C47.7574 -0.807602 47.1095 -2.37698 47.2028 -4.3604C47.2785 -5.97008 46.3243 -9.00518 45.5576 -11.444C45.1092 -12.8702 44.722 -14.1019 44.6476 -14.7206C44.6242 -14.9149 44.6038 -15.0957 44.5863 -15.2623C44.5175 -14.9881 44.4459 -14.7238 44.3719 -14.4714C44.1326 -13.6546 43.8648 -12.661 43.5811 -11.6091C43.0472 -9.62906 42.4952 -7.58167 42.056 -6.42307C41.9326 -6.09761 41.8237 -5.82573 41.7242 -5.57725C41.6361 -5.35756 41.5555 -5.1563 41.4787 -4.95224C41.4577 -4.39205 41.4579 -3.76984 41.4607 -3.28611C41.5254 -2.88025 41.5266 -2.10929 41.4634 -1.44131C41.4896 -1.01418 41.626 -0.616768 41.7579 -0.232323C41.8168 -0.0607681 41.8724 0.101265 41.9174 0.262764C42.0022 0.535706 42.0865 0.910851 42.1666 1.37396C42.2715 1.78241 42.2816 1.82889 42.2498 1.87637C42.3245 2.25795 42.5491 3.16942 42.663 3.63133C42.6979 3.77316 42.724 3.87927 42.7351 3.92609C42.8285 4.32271 42.8155 8.68783 42.5206 9.16196C42.5728 9.35938 42.6356 9.59263 42.7024 9.84084C42.8776 10.4915 43.0761 11.229 43.1907 11.7117C43.7294 13.3669 44.4631 16.4398 44.432 17.8764C44.4012 19.2895 45.1559 23.7256 45.5541 25.3932C45.8501 26.6329 45.9722 28.8402 46.0528 30.3009L46.0686 30.5836C46.2827 32.1129 46.4283 33.8869 46.4059 34.6989C46.377 35.7508 46.0231 39.0805 45.6331 41.9697C45.6022 42.6337 45.584 43.3906 45.5664 44.1227C45.5251 45.8424 45.4824 47.6206 45.2604 48.6354C44.8187 50.6566 43.8323 53.1641 42.8599 55.5593L42.8592 55.5591C42.7866 56.1376 42.7634 56.6083 42.79 56.9581C42.8549 57.2953 42.9572 57.7289 43.0756 58.2303C43.3549 59.4138 43.7027 60.8867 43.7433 61.9262C43.7989 63.3418 43.7788 65.5242 43.7028 66.3322C43.6967 66.9131 43.6839 67.4691 43.6674 67.8922C43.7664 68.1302 43.8195 68.3517 43.8296 68.5682C43.8349 68.6834 43.8372 68.8073 43.8396 68.9404C43.8507 69.5522 43.8659 70.3903 44.2286 71.4956C44.7167 72.983 44.9122 74.3774 44.9853 75.0762C45.0772 75.955 45.2192 78.6319 45.0253 80.0416C44.8406 81.3844 44.1961 85.0318 43.885 86.0903C43.831 86.2744 43.7742 86.4899 43.7141 86.7181C43.5832 87.2153 43.435 87.7783 43.2584 88.2268C42.7113 91.3307 41.9322 97.2363 41.7684 98.5338C41.73 98.8371 41.6783 99.1337 41.6146 99.4153C41.5466 100.667 41.5104 102.32 41.591 103.002C41.689 103.831 41.9158 104.513 42.135 105.173L42.214 105.411C42.4485 106.125 42.3645 106.917 41.9643 107.765C41.6512 108.429 41.8675 109.871 42.401 110.677C42.7836 111.255 43.6716 112.319 44.3201 113.096C44.5733 113.399 44.7921 113.662 44.9295 113.834C45.4625 114.5 45.6088 115.599 45.4423 116.275C45.2767 116.949 45.0064 117.211 44.4784 117.211C44.2326 117.211 44.0177 117.1 43.8449 117.01C43.7291 116.95 43.6197 116.893 43.5454 116.893C43.5322 116.893 43.5207 116.895 43.5102 116.899C43.4274 116.929 43.3713 116.974 43.3063 117.026C43.2001 117.112 43.0798 117.209 42.8479 117.231C42.8338 117.232 42.8198 117.233 42.8058 117.233Z" fill="white" stroke="#28839F" stroke-width="0.7"/>
<path d="M18.5267 -22.426C17.5924 -22.1767 16.9647 -21.3704 14.8956 -20.9239C13.5489 -20.6332 10.737 -20.9645 10.1081 -21.1675C9.47926 -21.3704 9.05326 -20.5991 9.13441 -19.9901C9.21554 -19.3811 9.45899 -16.864 10.1487 -14.5094C10.8384 -12.1547 11.7918 -8.23694 12.4613 -6.47091C13.1307 -4.7049 13.3741 -4.52221 14.003 -1.07136C14.6319 2.37949 16.4779 4.3079 16.9647 5.58674C17.4516 6.86558 19.5816 5.78973 19.3585 3.80042C19.1353 1.81111 19.1962 0.349566 20.251 -2.2893C21.3059 -4.92818 22.4825 -7.44527 23.3345 -8.8256C24.1865 -10.2059 24.4603 -11.6472 24.1256 -12.8854C23.7909 -14.1237 22.9592 -15.9709 22.3607 -17.0061C21.7623 -18.0414 20.3322 -20.2032 19.8656 -21.0862C19.399 -21.9693 19.3077 -22.1317 19.1962 -22.2839C19.0846 -22.4361 18.831 -22.5072 18.5267 -22.426Z" fill="#28839F" fill-opacity="0.2"/>
<path d="M15.5853 3.86158C16.0088 4.60816 16.4576 5.36371 16.7416 6.21628C17.0256 7.06884 16.4779 7.77929 15.8693 8.08379C15.2607 8.38827 13.9117 8.40858 12.9887 8.69275C12.0657 8.97695 11.7006 9.38292 11.4673 9.32202C11.234 9.26113 11.6649 8.23925 11.9338 7.6981C12.8873 5.77984 14.286 3.46197 14.6522 3.2526C14.8652 3.13081 15.1593 3.11051 15.5853 3.86158Z" fill="#28839F" fill-opacity="0.2"/>
<path d="M13.7863 1.05005C12.8957 1.43198 11.9625 3.21571 11.7875 3.95789C11.6637 4.48285 11.6054 5.35955 11.6024 6.07413C11.6005 6.54565 11.5065 6.99642 11.6258 7.01037C12.2116 7.07888 12.4018 5.78482 13.5403 4.15085C13.8735 3.67273 14.2566 2.83637 14.4088 2.54203C14.5609 2.24769 14.3543 0.806469 13.7863 1.05005Z" fill="#28839F" fill-opacity="0.2"/>
<path d="M13.2018 -0.823136C12.7431 -0.302929 12.2465 1.81952 12.2616 1.81112C12.4874 1.6852 12.8084 1.36793 13.0953 1.12558C13.3569 0.904655 13.7343 0.638407 13.7191 0.227342C13.7039 -0.18371 13.5441 -1.21135 13.2018 -0.823136Z" fill="#28839F" fill-opacity="0.2"/>
<path d="M26.0427 10.0318C26.1035 8.96606 26.1339 4.82506 26.0122 3.57666C25.8905 2.32827 26.3926 -1.14287 26.1644 -2.45216C25.9362 -3.76145 26.713 -7.2596 26.4382 -8.2983C26.2356 -9.06426 24.4898 -9.00971 23.1722 -6.75557C22.5434 -5.67972 21.8739 -4.23848 21.4277 -3.34532C20.9814 -2.45216 19.7845 0.937778 20.0888 2.5414C20.3931 4.14503 20.0685 5.42388 18.8716 6.43883C17.2472 7.81639 19.2984 8.40599 20.5351 8.84427C21.9957 9.3619 23.791 11.6456 24.3082 12.6503C24.8255 13.6552 26.423 14.5229 26.2253 13.1071C26.0275 11.6912 26.0427 10.0318 26.0427 10.0318Z" fill="#28839F" fill-opacity="0.2"/>
<path d="M20.6565 11.1587C20.2043 11.3771 19.7893 12.1331 19.0742 12.6202C18.3591 13.1074 16.4878 13.7468 15.301 14.4776C14.1143 15.2084 11.8322 16.6293 11.4467 18.6186C11.0613 20.6079 11.2642 26.1699 12.2987 28.4028C13.3333 30.6357 15.9502 32.8483 17.8165 33.031C19.6828 33.2137 22.5431 32.9498 24.3079 32.016C26.0728 31.0823 26.4785 29.7425 26.6611 28.8088C26.8437 27.875 26.7017 24.4851 26.5799 22.6378C26.4582 20.7906 26.2171 19.5448 26.3771 17.8879C26.6357 15.2084 21.9034 10.5563 20.6565 11.1587Z" fill="#28839F"/>
<path d="M13.4955 10.8444C13.2198 11.6866 12.9377 12.2653 12.5421 13.0976C12.1465 13.9298 11.8118 15.2899 11.7509 15.9394C11.6901 16.589 12.0755 16.1729 12.6435 15.7568C13.2115 15.3406 14.5504 14.2445 15.4835 13.808C16.4167 13.3716 17.7961 12.6814 18.4047 12.4277C19.0133 12.174 19.632 11.6462 19.8653 11.1895C20.0985 10.7327 19.3682 10.2151 18.6075 10.2354C17.8468 10.2557 16.1428 10.0527 15.2807 10.0324C14.4185 10.0121 13.6882 10.2557 13.4955 10.8444Z" fill="#28839F" fill-opacity="0.2"/>
<path d="M12.5017 38.9579C12.2583 41.2416 11.8931 45.5653 11.954 48.7015C12.0148 51.8377 11.9388 55.7199 11.7714 56.7704C11.604 57.8209 10.8433 60.3785 10.7825 61.9314C10.7216 63.4843 10.7521 66.1486 10.8586 66.5748C10.9651 67.0011 11.5888 65.7071 12.3496 64.413C13.1103 63.1189 15.362 58.643 15.6967 56.9835C16.0314 55.3241 16.5487 47.0725 16.6248 44.8041C16.7009 42.5357 16.9443 38.7296 17.5376 36.6438C18.909 31.8234 13.1122 33.2304 12.5017 38.9579Z" fill="#28839F" fill-opacity="0.2"/>
<path d="M19.8959 34.2391C19.6074 35.6246 21.3717 38.0604 22.0259 40.2679C22.6801 42.4755 22.9235 45.8705 22.9742 47.3117C23.0079 48.2672 23.0047 48.9661 23.101 49.2706C23.1205 49.3322 23.1654 49.5111 23.1876 49.5472C23.2352 49.6246 23.3331 49.138 23.651 48.69C24.1144 48.037 24.4542 46.7182 24.6377 44.9672C24.9069 42.3976 25.084 40.0548 25.4035 39.1413C25.723 38.2279 26.3467 36.0356 26.1642 34.909C25.9816 33.7824 25.6773 32.6253 24.6427 32.7471C23.6082 32.8689 23.5777 33.0313 22.5584 33.3815C21.539 33.7316 20.048 33.5083 19.8959 34.2391Z" fill="#28839F" fill-opacity="0.2"/>
<path d="M9.90515 28.0779C10.0237 30.2919 10.676 34.33 11.244 36.1976C11.812 38.0651 11.8323 40.3589 11.6497 43.0181C11.4671 45.6772 11.3454 49.4326 11.4469 51.6655C11.5483 53.8984 11.6092 54.7712 11.4063 54.3449C11.2034 53.9186 9.86457 46.9764 9.45887 45.4133C9.05314 43.8503 8.16693 36.4006 8.12 34.6954C8.08161 33.3008 8.52571 29.3568 8.89086 28.4433C9.256 27.5299 9.84429 26.9412 9.90515 28.0779Z" fill="#28839F" fill-opacity="0.2"/>
<path d="M18.2427 34.2386C18.068 35.1152 18.0297 36.0351 17.8167 37.0196C17.6037 38.0041 16.9444 44.6926 16.8734 45.9207C16.8024 47.1488 16.5691 51.8886 16.5082 53.0964C16.4474 54.3042 16.3662 56.2428 16.0417 57.278C15.7171 58.3133 16.1735 61.0435 16.559 62.505C16.9444 63.9666 18.6281 67.6813 19.0338 68.3512C19.4395 69.0211 18.4033 63.4909 18.3999 62.297C18.3975 61.4598 18.8278 59.6428 19.2215 57.613C19.6654 55.3239 20.1074 52.7684 20.6719 51.1223C21.7369 48.0166 21.9956 42.8251 21.813 41.394C21.6304 39.9629 20.7987 37.9533 20.2916 37.0906C19.7844 36.2279 19.4205 34.623 19.4091 34.2538C19.3977 33.8846 18.3314 33.7933 18.2427 34.2386Z" fill="#28839F" fill-opacity="0.2"/>
<path d="M21.9144 46.1648C21.9095 47.6424 21.5442 49.7628 20.824 51.8435C20.1039 53.9241 19.7134 56.629 19.4598 57.918C19.2062 59.207 18.6078 61.4196 18.7295 63.0232C18.8512 64.6268 19.2468 66.809 19.5207 67.7732C19.7945 68.7374 19.9872 69.5189 20.2307 69.3565C20.4741 69.1941 20.5857 68.2096 21.0015 67.2454C21.4174 66.2812 21.9651 62.9522 22.0158 61.3587C22.0665 59.7652 22.3404 57.1365 22.665 55.8475C22.9895 54.5585 23.3344 51.2396 23.1924 50.4276C23.0504 49.6157 22.6751 49.2807 22.6447 48.3571C22.6143 47.4335 22.6396 46.6596 22.5128 45.8781C22.4494 45.4873 22.2859 44.0988 22.1781 44.0436C22.0704 43.9884 21.9169 45.4011 21.9144 46.1648Z" fill="#28839F" fill-opacity="0.2"/>
<path d="M35.8636 -22.426C36.7979 -22.1767 37.4256 -21.3704 39.4947 -20.9239C40.8414 -20.6332 43.6533 -20.9645 44.2822 -21.1675C44.911 -21.3704 45.337 -20.5991 45.2559 -19.9901C45.1747 -19.3811 44.9313 -16.864 44.2416 -14.5094C43.5519 -12.1547 42.5985 -8.23694 41.929 -6.47091C41.2596 -4.7049 41.0162 -4.52221 40.3873 -1.07136C39.7584 2.37949 37.9124 4.3079 37.4256 5.58674C36.9387 6.86558 34.8087 5.78973 35.0319 3.80042C35.255 1.81111 35.1941 0.349566 34.1393 -2.2893C33.0844 -4.92818 31.9078 -7.44527 31.0558 -8.8256C30.2038 -10.2059 29.93 -11.6472 30.2647 -12.8854C30.5994 -14.1237 31.4311 -15.9709 32.0296 -17.0061C32.628 -18.0414 34.0581 -20.2032 34.5247 -21.0862C34.9913 -21.9693 35.0826 -22.1317 35.1941 -22.2839C35.3057 -22.4361 35.5593 -22.5072 35.8636 -22.426Z" fill="#28839F" fill-opacity="0.2"/>
<path d="M38.8047 3.86158C38.3812 4.60816 37.9324 5.36371 37.6484 6.21628C37.3644 7.06884 37.9121 7.77929 38.5207 8.08379C39.1293 8.38827 40.4783 8.40858 41.4013 8.69275C42.3243 8.97695 42.6894 9.38292 42.9227 9.32202C43.156 9.26113 42.7251 8.23925 42.4561 7.6981C41.5027 5.77984 40.104 3.46197 39.7378 3.2526C39.5248 3.13081 39.2307 3.11051 38.8047 3.86158Z" fill="#28839F" fill-opacity="0.2"/>
<path d="M40.604 1.05005C41.4945 1.43198 42.4278 3.21571 42.6028 3.95789C42.7265 4.48285 42.7849 5.35955 42.7878 6.07413C42.7898 6.54565 42.8837 6.99642 42.7644 7.01037C42.1787 7.07888 41.9885 5.78482 40.8499 4.15085C40.5168 3.67273 40.1336 2.83637 39.9815 2.54203C39.8293 2.24769 40.036 0.806469 40.604 1.05005Z" fill="#28839F" fill-opacity="0.2"/>
<path d="M41.1881 -0.823136C41.6468 -0.302929 42.1435 1.81952 42.1284 1.81112C41.9025 1.6852 41.5816 1.36793 41.2946 1.12558C41.033 0.904655 40.6556 0.638407 40.6709 0.227342C40.6861 -0.18371 40.8458 -1.21135 41.1881 -0.823136Z" fill="#28839F" fill-opacity="0.2"/>
<path d="M48.5218 -4.6444C48.928 -3.67909 49.4347 -3.16764 50.0737 -2.75658C50.7127 -2.34553 50.3932 -1.15804 49.7085 -0.503384C49.0239 0.151254 48.8109 0.684112 48.6435 0.745008C48.4762 0.805905 48.0426 -1.59192 47.9285 -1.99538C47.8144 -2.39882 47.5709 -3.67005 47.7155 -4.05065C47.86 -4.43125 48.0958 -5.65681 48.5218 -4.6444Z" fill="#28839F" fill-opacity="0.2"/>
<path d="M28.3473 10.0318C28.2864 8.96606 28.256 4.82506 28.3777 3.57666C28.4994 2.32827 27.9974 -1.14287 28.2256 -2.45216C28.4538 -3.76145 27.677 -7.2596 27.9517 -8.2983C28.1543 -9.06426 29.9002 -9.00971 31.2177 -6.75557C31.8466 -5.67972 32.516 -4.23848 32.9623 -3.34532C33.4086 -2.45216 34.6055 0.937778 34.3012 2.5414C33.9969 4.14503 34.3215 5.42388 35.5183 6.43883C37.1428 7.81639 35.0916 8.40599 33.8549 8.84427C32.3943 9.3619 30.599 11.6456 30.0817 12.6503C29.5644 13.6552 27.9669 14.5229 28.1647 13.1071C28.3625 11.6912 28.3473 10.0318 28.3473 10.0318Z" fill="#28839F" fill-opacity="0.2"/>
<path d="M33.7334 11.1587C34.1856 11.3771 34.6006 12.1331 35.3157 12.6202C36.0308 13.1074 37.9022 13.7468 39.0889 14.4776C40.2756 15.2084 42.5577 16.6293 42.9432 18.6186C43.3286 20.6079 43.1257 26.1699 42.0912 28.4028C41.0566 30.6357 38.4397 32.8483 36.5734 33.031C34.7071 33.2137 31.8468 32.9498 30.082 32.016C28.3171 31.0823 27.9114 29.7425 27.7288 28.8088C27.5463 27.875 27.6883 24.4851 27.81 22.6378C27.9317 20.7906 28.1728 19.5448 28.0128 17.8879C27.7542 15.2084 32.4865 10.5563 33.7334 11.1587Z" fill="#28839F"/>
<path d="M40.8944 10.8444C41.1701 11.6866 41.4522 12.2653 41.8478 13.0976C42.2434 13.9298 42.5781 15.2899 42.639 15.9394C42.6998 16.589 42.3144 16.1729 41.7464 15.7568C41.1784 15.3406 39.8395 14.2445 38.9064 13.808C37.9732 13.3716 36.5938 12.6814 35.9852 12.4277C35.3766 12.174 34.7579 11.6462 34.5246 11.1895C34.2914 10.7327 35.0217 10.2151 35.7824 10.2354C36.5431 10.2557 38.2471 10.0527 39.1092 10.0324C39.9714 10.0121 40.7017 10.2557 40.8944 10.8444Z" fill="#28839F" fill-opacity="0.2"/>
<path d="M41.8882 38.9579C42.1316 41.2416 42.4968 45.5653 42.4359 48.7015C42.3751 51.8377 42.4511 55.7199 42.6185 56.7704C42.7859 57.8209 43.5466 60.3785 43.6074 61.9314C43.6683 63.4843 43.6378 66.1486 43.5313 66.5748C43.4249 67.0011 42.8011 65.7071 42.0403 64.413C41.2796 63.1189 39.0279 58.643 38.6932 56.9835C38.3585 55.3241 37.8412 47.0725 37.7651 44.8041C37.689 42.5357 37.4456 38.7296 36.8523 36.6438C35.4809 31.8234 41.2777 33.2304 41.8882 38.9579Z" fill="#28839F" fill-opacity="0.2"/>
<path d="M34.494 34.2391C34.7825 35.6246 33.0182 38.0604 32.364 40.2679C31.7098 42.4755 31.4664 45.8705 31.4157 47.3117C31.382 48.2672 31.3852 48.9661 31.2889 49.2706C31.2694 49.3322 31.2245 49.5111 31.2023 49.5472C31.1547 49.6246 31.0568 49.138 30.7389 48.69C30.2755 48.037 29.9357 46.7182 29.7522 44.9672C29.483 42.3976 29.3059 40.0548 28.9864 39.1413C28.6669 38.2279 28.0431 36.0356 28.2257 34.909C28.4083 33.7824 28.7126 32.6253 29.7471 32.7471C30.7817 32.8689 30.8121 33.0313 31.8315 33.3815C32.8509 33.7316 34.3419 33.5083 34.494 34.2391Z" fill="#28839F" fill-opacity="0.2"/>
<path d="M44.4846 28.0779C44.3661 30.2919 43.7138 34.33 43.1458 36.1976C42.5778 38.0651 42.5575 40.3589 42.7401 43.0181C42.9226 45.6772 43.0444 49.4326 42.9429 51.6655C42.8415 53.8984 42.7806 54.7712 42.9835 54.3449C43.1864 53.9186 44.5252 46.9764 44.9309 45.4133C45.3367 43.8503 46.2229 36.4006 46.2698 34.6954C46.3082 33.3008 45.8641 29.3568 45.4989 28.4433C45.1338 27.5299 44.5455 26.9412 44.4846 28.0779Z" fill="#28839F" fill-opacity="0.2"/>
<path d="M36.1475 34.2386C36.3222 35.1152 36.3605 36.0351 36.5735 37.0196C36.7865 38.0041 37.4458 44.6926 37.5168 45.9207C37.5878 47.1488 37.8211 51.8886 37.882 53.0964C37.9428 54.3042 38.024 56.2428 38.3485 57.278C38.6731 58.3133 38.2167 61.0435 37.8312 62.505C37.4458 63.9666 35.7621 67.6813 35.3564 68.3512C34.9507 69.0211 35.9869 63.4909 35.9903 62.297C35.9927 61.4598 35.5624 59.6428 35.1687 57.613C34.7248 55.3239 34.2828 52.7684 33.7183 51.1223C32.6533 48.0166 32.3946 42.8251 32.5772 41.394C32.7598 39.9629 33.5915 37.9533 34.0986 37.0906C34.6058 36.2279 34.9697 34.623 34.9811 34.2538C34.9925 33.8846 36.0588 33.7933 36.1475 34.2386Z" fill="#28839F" fill-opacity="0.2"/>
<path d="M32.4754 46.1648C32.4803 47.6424 32.8456 49.7628 33.5658 51.8435C34.2859 53.9241 34.6764 56.629 34.93 57.918C35.1836 59.207 35.782 61.4196 35.6603 63.0232C35.5386 64.6268 35.143 66.809 34.8691 67.7732C34.5953 68.7374 34.4026 69.5189 34.1591 69.3565C33.9157 69.1941 33.8041 68.2096 33.3883 67.2454C32.9724 66.2812 32.4247 62.9522 32.374 61.3587C32.3233 59.7652 32.0494 57.1365 31.7248 55.8475C31.4003 54.5585 31.0554 51.2396 31.1974 50.4276C31.3394 49.6157 31.7147 49.2807 31.7451 48.3571C31.7755 47.4335 31.7502 46.6596 31.877 45.8781C31.9404 45.4873 32.1039 44.0988 32.2117 44.0436C32.3195 43.9884 32.4729 45.4011 32.4754 46.1648Z" fill="#28839F" fill-opacity="0.2"/>
</g>
<defs>
<clipPath id="clip0_4089_13870">
<rect width="40" height="48" fill="white" transform="translate(8)"/>
</clipPath>
</defs>
</svg>
