<svg width="61" height="48" viewBox="0 0 61 48" fill="none" xmlns="http://www.w3.org/2000/svg">
<g clip-path="url(#clip0_4089_13876)">
<g clip-path="url(#clip1_4089_13876)">
<path d="M45.8058 93.233C45.6222 93.233 45.4739 93.1258 45.3305 93.0221C45.2116 92.9361 45.0992 92.8548 44.9914 92.8548C44.9728 92.8548 44.9546 92.8572 44.936 92.8619C44.8132 92.8936 44.7456 92.9465 44.6674 93.0076C44.5567 93.0941 44.4314 93.1923 44.1771 93.1923C44.1603 93.1923 44.1427 93.1918 44.1246 93.1909C43.8874 93.1793 43.7392 93.0792 43.6084 92.9909C43.4879 92.9094 43.3928 92.8451 43.2338 92.8451C43.2243 92.8451 43.2145 92.8454 43.2045 92.8458C43.0376 92.8538 42.9414 92.9103 42.8194 92.9818C42.6669 93.0714 42.494 93.1729 42.171 93.1909C42.1486 93.1921 42.1266 93.1927 42.1047 93.1927C41.8033 93.1927 41.5441 93.0774 41.3153 92.9757C41.1232 92.8902 40.9416 92.8094 40.7608 92.8054L40.7459 92.8052C40.5611 92.8052 40.334 92.8804 40.0936 92.9599C39.7948 93.0588 39.4561 93.1709 39.1046 93.1709L39.0778 93.1707C38.2305 93.1571 37.749 92.7207 37.6467 91.8736C37.5924 91.4243 37.7415 90.938 37.8857 90.4677C38.0525 89.9238 38.2249 89.3614 38.096 88.8454C37.8236 87.7549 37.6672 86.3527 37.7067 85.3561C37.7337 84.672 37.5211 83.7502 37.3336 82.9369C37.2434 82.5453 37.1581 82.1755 37.1 81.8428C36.9787 81.1485 37.4867 79.9306 37.9349 78.856C38.1803 78.2676 38.412 77.7119 38.4588 77.4136C38.5085 77.0954 38.5116 76.021 38.4677 74.2202C38.3824 73.7848 38.3225 72.3354 38.2902 71.5533C38.2819 71.3534 38.2755 71.1971 38.2709 71.1128C38.2667 71.0352 38.2487 70.6542 38.2887 70.4565L38.2187 69.926C38.0793 68.8643 37.9476 67.8614 37.8329 67.432C37.8329 67.432 37.6511 66.7557 37.5987 66.5585C37.541 66.4679 37.4894 66.356 37.4414 66.2172C37.3429 65.9323 37.24 65.5374 37.1312 65.1193C36.9303 64.3479 36.7027 63.4737 36.4146 62.9163C36.1489 62.4024 35.9949 61.7247 35.944 60.8449C35.8628 60.4374 35.794 59.9695 35.7395 59.4539C35.4781 56.9776 35.7667 53.5005 36.0662 52.0436C36.2168 51.3107 36.4525 50.4235 36.6604 49.6408C36.859 48.8931 37.0466 48.1868 37.1202 47.7645C37.196 47.33 37.2129 47.0843 37.2231 46.9375C37.2297 46.842 37.2341 46.7784 37.2528 46.7278C37.2276 46.5934 37.2004 46.4413 37.1714 46.278C37.1231 46.0079 37.0688 45.7032 37.0087 45.3983C36.881 45.2467 36.7953 44.945 36.68 44.5397C36.5778 44.1803 36.4507 43.733 36.2635 43.2988C35.8274 42.2879 35.2886 38.9498 35.2381 37.3625C35.1867 35.7483 34.9153 33.1601 34.593 31.8802C34.3057 30.739 34.0018 27.9992 34.0309 26.8149C34.0055 26.5582 33.9801 26.3166 33.9546 26.1045C33.9278 25.8805 33.9096 25.5969 33.9005 25.261C33.843 25.1308 33.7546 24.9469 33.6279 24.7683C33.4621 24.5346 33.3089 24.2144 33.1726 23.8168C32.9593 23.2717 32.7103 22.225 32.6309 21.5365C32.5015 20.4142 31.6802 15.4649 31.2056 13.8871C30.6641 12.0865 31.0349 8.45602 31.0789 8.04797C31.0936 7.91193 31.1072 7.77734 31.1205 7.64516C31.159 7.26144 31.1956 6.89782 31.253 6.57408C31.0991 6.33511 30.9719 6.08356 30.8659 5.80849C30.6216 5.7412 30.3776 5.72279 30.276 5.72279H30.1137C30.0122 5.72279 29.7683 5.7412 29.5239 5.80849C29.4179 6.08363 29.2907 6.33518 29.1367 6.57408C29.1943 6.89829 29.2308 7.2624 29.2694 7.64671C29.2827 7.77843 29.2961 7.91248 29.3108 8.04798C29.3549 8.45596 29.7259 12.0861 29.1841 13.8871C28.7095 15.4651 27.8882 20.4143 27.7588 21.5366C27.6795 22.2249 27.4306 23.2716 27.2153 23.8221C27.0808 24.2146 26.9276 24.5348 26.7619 24.7683C26.6347 24.9475 26.5465 25.1312 26.4892 25.261C26.4802 25.5964 26.462 25.8801 26.4351 26.1045C26.4097 26.3166 26.3842 26.5583 26.3589 26.8148C26.388 27.9991 26.0841 30.739 25.7968 31.8802C25.4746 33.1598 25.2031 35.7479 25.1517 37.3625C25.1011 38.9499 24.5623 42.2881 24.1263 43.2988C23.939 43.7331 23.8119 44.1803 23.7097 44.5397C23.5945 44.9451 23.5088 45.2467 23.381 45.3983C23.3209 45.7032 23.2665 46.0079 23.2184 46.2781C23.1892 46.4414 23.1621 46.5934 23.1369 46.7277C23.1556 46.7784 23.16 46.842 23.1667 46.9376C23.1768 47.0843 23.1938 47.3299 23.2695 47.7645C23.3431 48.1869 23.5307 48.8934 23.7294 49.6413C23.9373 50.4238 24.173 51.3108 24.3236 52.0435C24.6231 53.5009 24.9117 56.9783 24.6502 59.4539C24.5956 59.9705 24.5266 60.4425 24.4452 60.8568C24.3934 61.7309 24.2397 62.4046 23.9752 62.9163C23.687 63.4737 23.4594 64.348 23.2586 65.1193C23.1497 65.5374 23.0469 65.9323 22.9483 66.2172C22.9004 66.3559 22.8488 66.468 22.7911 66.5586C22.7388 66.7552 22.5569 67.432 22.5569 67.432C22.4421 67.8615 22.3104 68.8645 22.171 69.9264L22.1011 70.4564C22.1411 70.6543 22.1231 71.0352 22.1188 71.1128C22.1142 71.1971 22.1078 71.3535 22.0995 71.5535C22.0672 72.3355 22.0073 73.7848 21.9221 74.2201C21.8782 76.0212 21.8812 77.0957 21.931 77.4136C21.9777 77.7119 22.2095 78.2676 22.4549 78.8559C22.9031 79.9305 23.4111 81.1484 23.2897 81.8427C23.2317 82.1755 23.1464 82.5452 23.0561 82.9367C22.8686 83.75 22.656 84.6719 22.6831 85.3561C22.7226 86.3529 22.5661 87.7552 22.2938 88.8454C22.1648 89.3615 22.3373 89.9238 22.5041 90.4678C22.6483 90.938 22.7974 91.4243 22.7431 91.8735C22.6407 92.7206 22.1592 93.1571 21.3119 93.1707L21.2852 93.1709C20.9337 93.1709 20.595 93.0588 20.2961 92.9599C20.0557 92.8803 19.8286 92.8051 19.6439 92.8051L19.629 92.8053C19.4481 92.8093 19.2665 92.8901 19.0744 92.9756C18.8457 93.0774 18.5865 93.1927 18.285 93.1927C18.2631 93.1927 18.241 93.1921 18.2187 93.1909C17.8957 93.1729 17.7229 93.0714 17.5703 92.9819C17.4485 92.9103 17.3522 92.8538 17.1852 92.8458C17.1752 92.8454 17.1655 92.8451 17.1559 92.8451C16.997 92.8451 16.9018 92.9094 16.7814 92.9908C16.6506 93.0791 16.5023 93.1793 16.2652 93.1909C16.247 93.1918 16.2295 93.1922 16.2128 93.1922C15.9583 93.1922 15.8329 93.0941 15.7223 93.0076C15.6441 92.9464 15.5765 92.8936 15.4538 92.8619C15.4351 92.8571 15.417 92.8548 15.3983 92.8548C15.2905 92.8548 15.1782 92.9361 15.0592 93.0221C14.9158 93.1258 14.7675 93.233 14.5839 93.233C14.57 93.233 14.5559 93.2323 14.5418 93.231C14.31 93.2093 14.1896 93.1121 14.0834 93.0264C14.0185 92.9739 13.9624 92.9286 13.8795 92.8988C13.8691 92.895 13.8575 92.8931 13.8444 92.8931C13.7701 92.8931 13.6607 92.9499 13.5448 93.0101C13.3721 93.0998 13.1572 93.2113 12.9114 93.2113C12.3834 93.2113 12.1132 92.9489 11.9474 92.2754C11.781 91.5986 11.9273 90.5002 12.4603 89.8336C12.5979 89.6614 12.8169 89.3989 13.0705 89.095C13.7187 88.3182 14.6064 87.2544 14.9888 86.6768C15.5223 85.871 15.7387 84.4289 15.4255 83.7653C15.0253 82.9172 14.9412 82.1252 15.1758 81.4114L15.2546 81.1736C15.4739 80.5138 15.7008 79.8315 15.7988 79.002C15.8794 78.3208 15.8431 76.668 15.7752 75.4154C15.7116 75.1344 15.6598 74.838 15.6214 74.5338C15.4576 73.2363 14.6786 67.3307 14.1314 64.2268C13.9549 63.7787 13.8068 63.2159 13.6759 62.719C13.6158 62.4904 13.5589 62.2747 13.5048 62.0904C13.1938 61.0322 12.5493 57.3847 12.3645 56.0417C12.1706 54.6321 12.3126 51.9551 12.4045 51.0762C12.4776 50.3773 12.6732 48.9827 13.1612 47.4956C13.524 46.3901 13.5391 45.5521 13.5502 44.9402C13.5526 44.8071 13.5549 44.6834 13.5602 44.5682C13.5703 44.3516 13.6234 44.1302 13.7224 43.8923C13.7059 43.4714 13.6931 42.9151 13.6863 42.3208C13.611 41.5245 13.5909 39.3422 13.6464 37.9263C13.6872 36.887 14.0348 35.4142 14.3141 34.2308C14.4325 33.7292 14.5349 33.2956 14.5997 32.9583C14.6264 32.6089 14.6032 32.1392 14.5308 31.5616L14.5297 31.5588C13.5575 29.1642 12.5712 26.6566 12.1293 24.6355C11.9074 23.6207 11.8647 21.8425 11.8234 20.1228C11.8058 19.3907 11.7876 18.6337 11.7557 17.9578C11.3667 15.0803 11.0128 11.7508 10.9839 10.699C10.9611 9.87408 11.1035 8.13855 11.3224 6.57229L11.3371 6.29801C11.4178 4.83821 11.5399 2.6321 11.8357 1.39319C12.2339 -0.274261 12.9885 -4.7104 12.9578 -6.12351C12.9267 -7.55985 13.6603 -10.6328 14.2019 -12.2989C14.3138 -12.7717 14.5128 -13.5106 14.6882 -14.1624C14.7556 -14.4127 14.8189 -14.6478 14.8714 -14.846C14.6306 -15.3069 14.825 -20.4054 14.9968 -20.9606C15.0421 -21.38 15.0911 -21.7692 15.1426 -22.1199C15.1077 -22.169 15.1158 -22.2087 15.2255 -22.6365C15.3033 -23.0887 15.3875 -23.4639 15.4735 -23.7408C15.5173 -23.8985 15.5729 -24.0606 15.6319 -24.2322C15.7639 -24.6166 15.9003 -25.0141 15.9264 -25.4413C15.8632 -26.1092 15.8644 -26.8801 15.9291 -27.286C15.9318 -27.7704 15.9321 -28.3933 15.9112 -28.9522C15.8344 -29.1561 15.7538 -29.3572 15.6658 -29.5768C15.5662 -29.8253 15.4573 -30.0973 15.3338 -30.423C14.8946 -31.5816 14.3425 -33.6291 13.8087 -35.6092C13.5251 -36.661 13.2571 -37.6545 13.0179 -38.4714C12.944 -38.7237 12.8724 -38.988 12.8034 -39.2623C12.786 -39.0956 12.7656 -38.9149 12.7422 -38.7206C12.6678 -38.1018 12.2806 -36.8699 11.8321 -35.4436C11.0654 -33.005 10.1113 -29.9699 10.1871 -28.3603C10.2803 -26.3769 9.63244 -24.8076 9.2432 -24.3611C9.14911 -23.9439 9.07282 -23.6477 9.01037 -23.457C8.99164 -23.3365 8.97329 -23.2155 8.95489 -23.0942C8.89282 -22.6848 8.82858 -22.2613 8.74996 -21.8582C8.66159 -21.2437 8.47865 -20.5365 8.19173 -19.7028C7.90329 -18.8642 7.05343 -16.7946 5.91811 -14.1658C5.7676 -13.6785 5.60042 -13.1441 5.42361 -12.5789C4.28298 -8.93232 2.72074 -3.93814 2.68146 -2.1651C2.67017 -1.65698 2.95476 -0.87944 3.42481 0.340607C3.94635 1.69449 3.85611 4.35326 2.66153 6.614C2.15334 7.57586 1.70323 9.04643 1.268 10.4685C0.845203 11.8498 0.445919 13.1544 0.0515471 13.7412C-0.183279 14.0906 -0.426406 14.2678 -0.670935 14.2678C-0.920976 14.2678 -1.10902 14.0863 -1.23613 13.9C-1.43381 14.9118 -1.89196 16.7257 -2.65392 16.8643C-2.70848 16.8743 -2.76216 16.8793 -2.81347 16.8793C-3.18862 16.8793 -3.4618 16.6199 -3.5992 16.1506C-3.83643 16.9595 -4.27105 18.0442 -4.89559 18.0442L-4.91579 18.0438C-5.79508 18.0117 -5.821 16.8567 -5.781 15.5553C-5.85063 15.5941 -5.9295 15.6143 -6.01555 15.6143C-6.59138 15.6143 -7.28343 14.7492 -7.41267 13.8676C-7.73248 11.6859 -7.52058 9.07224 -7.36588 7.16382C-7.2898 6.22604 -7.21146 5.25919 -7.27592 4.98578C-7.39446 5.09542 -7.54562 5.29131 -7.7184 5.51511C-8.04286 5.9354 -8.44659 6.4584 -8.92017 6.78435C-9.30443 7.04885 -9.76239 7.18863 -10.2446 7.18863C-11.0014 7.18863 -11.6675 6.84673 -11.8284 6.37571C-11.8892 6.19772 -11.924 5.84704 -11.4743 5.49882C-10.3022 4.59109 -8.05568 1.31217 -7.25711 -0.656219C-6.7246 -1.96882 -5.74371 -2.40386 -4.95558 -2.75347C-4.48507 -2.96218 -4.07874 -3.14239 -3.87848 -3.45889C-3.48525 -4.08017 -2.91931 -6.74592 -2.19637 -11.3819C-2.09304 -12.5185 -2.00845 -13.2585 -1.93118 -13.7022C-1.88533 -13.9651 -1.83762 -14.259 -1.78892 -14.5708C-1.75444 -17.5996 -1.69942 -20.9691 -1.48446 -22.6468C-1.07142 -25.8713 0.280387 -29.7892 1.46746 -31.2022C1.63704 -31.404 1.7884 -31.5876 1.92368 -31.7517C2.33505 -32.2505 2.58942 -32.5589 2.78145 -32.6898C2.95162 -32.9178 3.09707 -33.3457 3.21402 -33.9626C3.04856 -36.4332 3.31569 -39.0934 3.92926 -41.0858C4.01618 -41.9127 4.08614 -42.5638 4.12933 -42.8065C4.27099 -43.6026 4.1191 -44.3705 3.9971 -44.9877C3.93929 -45.2801 3.88932 -45.5327 3.88381 -45.7324C3.87019 -46.2219 3.78281 -46.8682 3.65045 -47.8464C3.58833 -48.306 3.51656 -48.8363 3.43855 -49.4541C3.16904 -51.5889 3.56719 -54.1501 4.50364 -56.3053C5.60621 -58.8429 6.84385 -60.2045 8.77547 -61.0051C9.2713 -61.2105 10.1804 -61.318 10.822 -61.318C10.8634 -61.318 10.904 -61.3176 10.944 -61.3167C12.5032 -62.1385 13.8991 -62.4306 14.624 -62.4306C14.7366 -62.4306 14.8383 -62.4238 14.9267 -62.4104C14.9684 -62.4125 15.0124 -62.4135 15.0586 -62.4135C15.1493 -62.4135 15.2488 -62.4097 15.3456 -62.4045C15.3761 -62.7216 15.7893 -62.9567 16.2826 -63.2036C16.9683 -63.5466 17.6835 -63.8603 18.4083 -64.136C19.2461 -64.4547 20.0884 -64.7179 21.0953 -65.015C21.2184 -65.0513 21.3425 -65.0858 21.4666 -65.1202C22.1926 -65.3218 22.8782 -65.5122 23.3795 -66.059C23.5228 -66.2153 23.6432 -66.3883 23.7706 -66.5715C23.8311 -66.6585 23.8917 -66.7454 23.9545 -66.8302C24.1485 -67.0919 24.3491 -67.3625 24.4575 -67.6671C24.509 -67.8119 24.4963 -67.976 24.4827 -68.1498C24.477 -68.2244 24.4712 -68.2988 24.4702 -68.3723C24.4668 -68.6069 24.467 -68.8546 24.4708 -69.1298C24.478 -69.649 24.494 -70.2615 24.5574 -70.8727C24.5449 -71.045 24.5321 -71.1326 24.5235 -71.176C24.5074 -71.2562 24.4942 -71.3376 24.4805 -71.4215C24.4179 -71.8055 24.347 -72.2408 23.9353 -72.8548C23.5836 -73.3794 23.4863 -74.5976 23.4666 -75.5273C23.4628 -75.7069 23.3163 -75.8531 23.1401 -75.8531C23.1171 -75.8531 23.0939 -75.8506 23.071 -75.8456C22.9662 -75.8228 22.8565 -75.8107 22.7537 -75.8107C22.4768 -75.8107 22.248 -75.8947 22.0921 -76.0538C21.9313 -76.2178 21.8526 -76.4536 21.8583 -76.7546C21.8784 -77.8064 21.6645 -78.4167 21.4759 -78.9551C21.3807 -79.2266 21.2909 -79.4831 21.2368 -79.7717C21.1407 -80.2846 21.0823 -80.9741 21.3492 -81.3469C21.4542 -81.4934 21.5982 -81.5807 21.7774 -81.6063C21.8212 -81.6127 21.8664 -81.6158 21.9116 -81.6158C22.0601 -81.6158 22.2154 -81.5819 22.3732 -81.5148C22.3948 -81.5057 22.417 -81.5011 22.4394 -81.5011C22.4873 -81.5011 22.5349 -81.5226 22.5697 -81.5601C22.6053 -81.5985 22.6228 -81.6485 22.6188 -81.7007C22.5033 -83.2397 22.3978 -87.0286 23.9106 -88.9696C25.7094 -91.2776 28.4761 -91.7452 29.5822 -91.8391C29.7251 -91.8512 29.8977 -91.8643 30.136 -91.8643C30.3148 -91.8643 30.5086 -91.8566 30.7122 -91.8414C31.8385 -91.7577 34.6551 -91.3102 36.4793 -88.9696C37.9921 -87.0283 37.8865 -83.2396 37.7709 -81.7007C37.767 -81.6485 37.7845 -81.5985 37.8202 -81.5601C37.855 -81.5225 37.9024 -81.5011 37.9505 -81.5011C37.9728 -81.5011 37.995 -81.5057 38.0166 -81.5148C38.1744 -81.5819 38.3297 -81.6158 38.4782 -81.6158C38.5234 -81.6158 38.5686 -81.6127 38.6125 -81.6063C38.7916 -81.5807 38.9356 -81.4934 39.0406 -81.3469C39.3075 -80.9741 39.249 -80.2846 39.1529 -79.7717C39.0989 -79.4831 39.009 -79.2266 38.9139 -78.9551C38.7252 -78.4167 38.5114 -77.8065 38.5315 -76.7546C38.5372 -76.4536 38.4585 -76.2178 38.2977 -76.0537C38.1418 -75.8947 37.913 -75.8106 37.6362 -75.8106C37.5333 -75.8106 37.4235 -75.8228 37.3187 -75.8456C37.2959 -75.8506 37.2727 -75.8531 37.2497 -75.8531C37.0736 -75.8531 36.927 -75.7069 36.9233 -75.5272C36.9035 -74.5974 36.806 -73.379 36.4545 -72.8548C36.0428 -72.2408 35.9719 -71.8055 35.9093 -71.4215C35.8957 -71.3376 35.8824 -71.2562 35.8664 -71.176C35.8577 -71.1326 35.8449 -71.045 35.8324 -70.8727C35.9171 -70.0579 35.925 -69.2561 35.9216 -68.5787C35.9211 -68.4833 35.9159 -68.3864 35.9107 -68.2894C35.9034 -68.152 35.8965 -68.0222 35.9025 -67.895C35.9177 -67.5751 36.1492 -67.2399 36.3534 -66.9442C36.3825 -66.902 36.4109 -66.8609 36.4379 -66.8209C36.7 -66.4328 36.9711 -66.0315 37.3392 -65.7435C37.6396 -65.5084 37.9978 -65.4016 38.3769 -65.2886L38.7073 -65.1885C40.5084 -64.6397 42.3708 -64.0723 44.1072 -63.2035L44.2133 -63.1513C44.4365 -63.0426 44.6895 -62.9193 44.8652 -62.7354C44.9588 -62.6375 45.0183 -62.5205 45.0372 -62.4031C45.2097 -62.411 45.3691 -62.4148 45.521 -62.4148C46.1146 -62.4148 46.624 -62.355 47.1239 -62.2265C47.8959 -62.0281 48.6768 -61.7221 49.4457 -61.3167C49.4857 -61.3176 49.5264 -61.318 49.5677 -61.318C50.2094 -61.318 51.1185 -61.2105 51.6142 -61.0051C53.5459 -60.2046 54.7836 -58.8429 55.8862 -56.3053C56.8226 -54.1502 57.2207 -51.5891 56.9513 -49.4541C56.8732 -48.8361 56.8014 -48.3055 56.7393 -47.8458C56.607 -46.8679 56.5196 -46.2219 56.506 -45.7324C56.5004 -45.5327 56.4505 -45.2801 56.3927 -44.9877C56.2707 -44.3706 56.1188 -43.6026 56.2604 -42.8065C56.3037 -42.5639 56.3736 -41.9131 56.4604 -41.0866C57.0815 -39.0715 57.347 -36.3836 57.1715 -33.8888C57.2846 -33.3069 57.4286 -32.9056 57.6 -32.6951C57.7934 -32.5674 58.0506 -32.2556 58.4674 -31.7501C58.6023 -31.5865 58.7533 -31.4035 58.9224 -31.2022C60.1094 -29.7891 61.4612 -25.8712 61.8743 -22.6469C62.0893 -20.969 62.1443 -17.5997 62.1788 -14.5708C62.2274 -14.259 62.2751 -13.9651 62.3209 -13.7023C62.3973 -13.2638 62.4844 -12.5019 62.5872 -11.3733C63.3091 -6.7459 63.8751 -4.08022 64.2683 -3.45893C64.4686 -3.14244 64.8749 -2.96224 65.3454 -2.75353C66.1335 -2.40392 67.1144 -1.96887 67.6469 -0.656273C68.4454 1.31219 70.692 4.59104 71.8641 5.49877C72.3139 5.84705 72.279 6.19772 72.2182 6.37571C72.0574 6.84673 71.3913 7.18856 70.6344 7.18856C70.1522 7.18856 69.6942 7.04878 69.3099 6.78435C68.8365 6.4584 68.4327 5.93539 68.1083 5.51525C67.9356 5.29138 67.7843 5.09549 67.6657 4.98578C67.6014 5.25925 67.6797 6.22589 67.7557 7.16335C67.9104 9.07189 68.1223 11.6858 67.8025 13.8675C67.6733 14.7491 66.9812 15.6142 66.4053 15.6142C66.3198 15.6142 66.2412 15.5942 66.1719 15.5558C66.2106 16.857 66.1834 18.0116 65.3056 18.0438L65.2854 18.0441C64.6608 18.0441 64.2262 16.9594 63.989 16.1504C63.8516 16.6197 63.5784 16.8792 63.2033 16.8792C63.152 16.8792 63.0983 16.8742 63.0437 16.8643C62.282 16.7256 61.8237 14.9118 61.626 13.9C61.4988 14.0862 61.3107 14.2677 61.0607 14.2677C60.8162 14.2677 60.5731 14.0905 60.3383 13.7411C59.9439 13.1543 59.5446 11.8497 59.1218 10.4685C58.6865 9.04635 58.2365 7.57578 57.7282 6.61392C56.5337 4.35304 56.4434 1.69427 56.965 0.340523C57.4351 -0.879646 57.7197 -1.65719 57.7084 -2.16518C57.6692 -3.93802 56.1072 -8.93148 54.9666 -12.5776C54.7897 -13.1432 54.6223 -13.6781 54.4717 -14.1658C53.3364 -16.7948 52.4865 -18.8645 52.1981 -19.7029C51.9111 -20.5368 51.7282 -21.244 51.6387 -21.8651C51.5613 -22.2613 51.4971 -22.6845 51.435 -23.0937C51.4166 -23.2151 51.3982 -23.3364 51.3795 -23.457C51.317 -23.6476 51.2407 -23.9438 51.1466 -24.3612C50.7574 -24.8076 50.1095 -26.377 50.2028 -28.3604C50.2785 -29.9701 49.3243 -33.0052 48.5576 -35.444C48.1092 -36.8702 47.722 -38.1019 47.6476 -38.7206C47.6242 -38.9149 47.6038 -39.0957 47.5863 -39.2623C47.5175 -38.9881 47.4459 -38.7238 47.3719 -38.4714C47.1326 -37.6546 46.8648 -36.661 46.5811 -35.6091C46.0472 -33.6291 45.4952 -31.5817 45.056 -30.4231C44.9326 -30.0976 44.8237 -29.8257 44.7242 -29.5772C44.6361 -29.3576 44.5555 -29.1563 44.4787 -28.9522C44.4577 -28.3921 44.4579 -27.7698 44.4607 -27.2861C44.5254 -26.8802 44.5266 -26.1093 44.4634 -25.4413C44.4896 -25.0142 44.626 -24.6168 44.7579 -24.2323C44.8168 -24.0608 44.8724 -23.8987 44.9174 -23.7372C45.0022 -23.4643 45.0865 -23.0891 45.1666 -22.626C45.2715 -22.2176 45.2816 -22.1711 45.2498 -22.1236C45.3245 -21.7421 45.5491 -20.8306 45.663 -20.3687C45.6979 -20.2268 45.724 -20.1207 45.7351 -20.0739C45.8285 -19.6773 45.8155 -15.3122 45.5206 -14.838C45.5728 -14.6406 45.6356 -14.4074 45.7024 -14.1592C45.8776 -13.5085 46.0761 -12.771 46.1907 -12.2883C46.7294 -10.6331 47.4631 -7.56022 47.432 -6.12355C47.4012 -4.71049 48.1559 -0.274361 48.5541 1.39316C48.8501 2.63287 48.9722 4.84025 49.0528 6.3009L49.0686 6.58361C49.2827 8.1129 49.4283 9.88694 49.4059 10.6989C49.377 11.7508 49.0231 15.0805 48.6331 17.9697C48.6022 18.6337 48.584 19.3906 48.5664 20.1227C48.5251 21.8424 48.4824 23.6206 48.2604 24.6354C47.8187 26.6566 46.8323 29.1641 45.8599 31.5593L45.8592 31.5591C45.7866 32.1376 45.7634 32.6083 45.79 32.9581C45.8549 33.2953 45.9572 33.7289 46.0756 34.2303C46.3549 35.4138 46.7027 36.8867 46.7433 37.9262C46.7989 39.3418 46.7788 41.5242 46.7028 42.3322C46.6967 42.9131 46.6839 43.4691 46.6674 43.8922C46.7664 44.1302 46.8195 44.3517 46.8296 44.5682C46.8349 44.6834 46.8372 44.8073 46.8396 44.9404C46.8507 45.5522 46.8659 46.3903 47.2286 47.4956C47.7167 48.983 47.9122 50.3774 47.9853 51.0762C48.0772 51.955 48.2192 54.6319 48.0253 56.0416C47.8406 57.3844 47.1961 61.0318 46.885 62.0903C46.831 62.2744 46.7742 62.4899 46.7141 62.7181C46.5832 63.2153 46.435 63.7783 46.2584 64.2268C45.7113 67.3307 44.9322 73.2363 44.7684 74.5338C44.73 74.8371 44.6783 75.1337 44.6146 75.4153C44.5466 76.6674 44.5104 78.3201 44.591 79.002C44.689 79.8313 44.9158 80.5133 45.135 81.1729L45.214 81.4114C45.4485 82.1253 45.3645 82.9172 44.9643 83.7652C44.6512 84.4288 44.8675 85.8709 45.401 86.6767C45.7836 87.2546 46.6716 88.3189 47.3201 89.0959C47.5733 89.3995 47.7921 89.6616 47.9295 89.8336C48.4625 90.5002 48.6088 91.5986 48.4423 92.2754C48.2767 92.9489 48.0064 93.2113 47.4784 93.2113C47.2326 93.2113 47.0177 93.0997 46.8449 93.0101C46.7291 92.9499 46.6197 92.8931 46.5454 92.8931C46.5322 92.8931 46.5207 92.895 46.5102 92.8987C46.4274 92.9286 46.3713 92.9739 46.3063 93.0263C46.2001 93.112 46.0798 93.2093 45.8479 93.231C45.8338 93.2323 45.8198 93.233 45.8058 93.233Z" fill="white" stroke="#28839F" stroke-width="0.7"/>
<path d="M23.6565 -12.8413C23.2043 -12.6229 22.7893 -11.8669 22.0742 -11.3798C21.3591 -10.8926 19.4878 -10.2532 18.301 -9.52239C17.1143 -8.79162 14.8322 -7.37069 14.4467 -5.38138C14.0613 -3.39207 14.2642 2.16987 15.2987 4.40278C16.3333 6.63568 18.9502 8.84827 20.8165 9.03096C22.6828 9.21367 25.5431 8.94977 27.3079 8.01601C29.0728 7.08225 29.4785 5.74252 29.6611 4.80875C29.8437 3.875 29.7017 0.485054 29.5799 -1.36216C29.4582 -3.20939 29.2171 -4.4552 29.3771 -6.11214C29.6357 -8.79162 24.9034 -13.4437 23.6565 -12.8413Z" fill="#28839F" fill-opacity="0.2"/>
<path d="M15.5017 14.9579C15.2583 17.2416 14.8931 21.5653 14.954 24.7015C15.0148 27.8377 14.9388 31.7199 14.7714 32.7704C14.604 33.8209 13.8433 36.3785 13.7825 37.9314C13.7216 39.4843 13.7521 42.1486 13.8586 42.5748C13.9651 43.0011 14.5888 41.7071 15.3496 40.413C16.1103 39.1189 18.362 34.643 18.6967 32.9835C19.0314 31.3241 19.5487 23.0725 19.6248 20.8041C19.7009 18.5357 19.9443 14.7296 20.5376 12.6438C21.909 7.82342 16.1122 9.23045 15.5017 14.9579Z" fill="#28839F"/>
<path d="M22.8959 10.2391C22.6074 11.6246 24.3717 14.0604 25.0259 16.2679C25.6801 18.4755 25.9235 21.8705 25.9742 23.3117C26.0079 24.2672 26.0047 24.9661 26.101 25.2706C26.1205 25.3322 26.1654 25.5111 26.1876 25.5472C26.2352 25.6246 26.3331 25.138 26.651 24.69C27.1144 24.037 27.4542 22.7182 27.6377 20.9672C27.9069 18.3976 28.084 16.0548 28.4035 15.1413C28.723 14.2279 29.3467 12.0356 29.1642 10.909C28.9816 9.78238 28.6773 8.62533 27.6427 8.74713C26.6082 8.86892 26.5777 9.0313 25.5584 9.38147C24.539 9.73163 23.048 9.50833 22.8959 10.2391Z" fill="#28839F" fill-opacity="0.2"/>
<path d="M12.9052 4.07793C13.0237 6.29192 13.676 10.33 14.244 12.1976C14.812 14.0651 14.8323 16.3589 14.6497 19.0181C14.4671 21.6772 14.3454 25.4326 14.4469 27.6655C14.5483 29.8984 14.6092 30.7712 14.4063 30.3449C14.2034 29.9186 12.8646 22.9764 12.4589 21.4133C12.0531 19.8503 11.1669 12.4006 11.12 10.6954C11.0816 9.30078 11.5257 5.35678 11.8909 4.44332C12.256 3.52986 12.8443 2.94118 12.9052 4.07793Z" fill="#28839F" fill-opacity="0.2"/>
<path d="M21.2427 10.2386C21.068 11.1152 21.0297 12.0351 20.8167 13.0196C20.6037 14.0041 19.9444 20.6926 19.8734 21.9207C19.8024 23.1488 19.5691 27.8886 19.5082 29.0964C19.4474 30.3042 19.3662 32.2428 19.0417 33.278C18.7171 34.3133 19.1735 37.0435 19.559 38.505C19.9444 39.9666 21.6281 43.6813 22.0338 44.3512C22.4395 45.0211 21.4033 39.4909 21.3999 38.297C21.3975 37.4598 21.8278 35.6428 22.2215 33.613C22.6654 31.3239 23.1074 28.7684 23.6719 27.1223C24.7369 24.0166 24.9956 18.8251 24.813 17.394C24.6304 15.9629 23.7987 13.9533 23.2916 13.0906C22.7844 12.2279 22.4205 10.623 22.4091 10.2538C22.3977 9.88461 21.3314 9.79326 21.2427 10.2386Z" fill="#28839F"/>
<path d="M24.9144 22.1648C24.9095 23.6424 24.5442 25.7628 23.824 27.8435C23.1039 29.9241 22.7134 32.629 22.4598 33.918C22.2062 35.207 21.6078 37.4196 21.7295 39.0232C21.8512 40.6268 22.2468 42.809 22.5207 43.7732C22.7945 44.7374 22.9872 45.5189 23.2307 45.3565C23.4741 45.1941 23.5857 44.2096 24.0015 43.2454C24.4174 42.2812 24.9651 38.9522 25.0158 37.3587C25.0665 35.7652 25.3404 33.1365 25.665 31.8475C25.9895 30.5585 26.3344 27.2396 26.1924 26.4276C26.0504 25.6157 25.6751 25.2807 25.6447 24.3571C25.6143 23.4335 25.6396 22.6596 25.5128 21.8781C25.4494 21.4873 25.2859 20.0988 25.1781 20.0436C25.0704 19.9884 24.9169 21.4011 24.9144 22.1648Z" fill="#28839F" fill-opacity="0.2"/>
<path d="M16.7593 40.2916C18.0918 41.5139 18.3213 43.6004 18.585 44.7168C18.8488 45.8333 18.585 50.4209 18.4633 52.4305C18.3416 54.4401 18.7879 57.7894 18.4228 59.4945C18.0576 61.1996 17.8243 62.5191 16.739 63.6153C15.6537 64.7114 15.5929 64.8839 14.9539 64.9753C14.3149 65.0666 13.9396 63.0875 13.6353 62.0522C13.331 61.017 12.692 57.424 12.4993 56.0234C12.3066 54.6228 12.4486 51.9636 12.5399 51.0907C12.6312 50.2179 12.8442 48.8984 13.2905 47.5384C13.7367 46.1783 13.6657 45.2344 13.6962 44.5747C13.7266 43.915 14.1729 43.3162 14.8525 42.3215C15.532 41.3269 15.816 40.6062 16.0899 40.3728C16.3638 40.1394 16.5159 40.0683 16.7593 40.2916Z" fill="#28839F" fill-opacity="0.2"/>
<path d="M19.0009 45.7418C19.1109 47.2335 19.153 49.1977 19.0009 50.8267C18.8487 52.4557 18.7422 53.7802 18.9096 55.3636C19.0769 56.9469 18.8792 58.0583 18.8183 59.3219C18.7574 60.5855 18.4075 61.6055 18.8639 63.1888C19.3204 64.7722 20.5832 66.0054 21.3895 66.386C22.1959 66.7666 22.5458 66.9645 22.8197 66.1728C23.0935 65.3812 23.3978 63.7369 23.8542 62.8539C24.3107 61.9709 24.402 60.6159 24.2802 58.8651C24.1585 57.1143 23.5753 52.41 23.4536 51.456C23.3319 50.5019 23.1696 48.5938 23.0073 47.5992C22.845 46.6045 22.5002 45.5084 21.9524 44.9197C21.4047 44.331 20.8773 43.6002 20.2484 42.8086C19.6196 42.0169 19.3964 42.8898 19.1124 43.7423C18.8284 44.5949 18.8893 44.2295 19.0009 45.7418Z" fill="#28839F" fill-opacity="0.2"/>
<path d="M36.7334 -12.8413C37.1856 -12.6229 37.6006 -11.8669 38.3157 -11.3798C39.0308 -10.8926 40.9022 -10.2532 42.0889 -9.52239C43.2756 -8.79162 45.5577 -7.37069 45.9432 -5.38138C46.3286 -3.39207 46.1257 2.16987 45.0912 4.40278C44.0566 6.63568 41.4397 8.84827 39.5734 9.03096C37.7071 9.21367 34.8468 8.94977 33.082 8.01601C31.3171 7.08225 30.9114 5.74252 30.7288 4.80875C30.5463 3.875 30.6883 0.485054 30.81 -1.36216C30.9317 -3.20939 31.1728 -4.4552 31.0128 -6.11214C30.7542 -8.79162 35.4865 -13.4437 36.7334 -12.8413Z" fill="#28839F" fill-opacity="0.2"/>
<path d="M44.8882 14.9579C45.1316 17.2416 45.4968 21.5653 45.4359 24.7015C45.3751 27.8377 45.4511 31.7199 45.6185 32.7704C45.7859 33.8209 46.5466 36.3785 46.6074 37.9314C46.6683 39.4843 46.6378 42.1486 46.5313 42.5748C46.4249 43.0011 45.8011 41.7071 45.0403 40.413C44.2796 39.1189 42.0279 34.643 41.6932 32.9835C41.3585 31.3241 40.8412 23.0725 40.7651 20.8041C40.689 18.5357 40.4456 14.7296 39.8523 12.6438C38.4809 7.82342 44.2777 9.23045 44.8882 14.9579Z" fill="#28839F"/>
<path d="M37.494 10.2391C37.7825 11.6246 36.0182 14.0604 35.364 16.2679C34.7098 18.4755 34.4664 21.8705 34.4157 23.3117C34.382 24.2672 34.3852 24.9661 34.2889 25.2706C34.2694 25.3322 34.2245 25.5111 34.2023 25.5472C34.1547 25.6246 34.0568 25.138 33.7389 24.69C33.2755 24.037 32.9357 22.7182 32.7522 20.9672C32.483 18.3976 32.3059 16.0548 31.9864 15.1413C31.6669 14.2279 31.0431 12.0356 31.2257 10.909C31.4083 9.78238 31.7126 8.62533 32.7471 8.74713C33.7817 8.86892 33.8121 9.0313 34.8315 9.38147C35.8509 9.73163 37.3419 9.50833 37.494 10.2391Z" fill="#28839F" fill-opacity="0.2"/>
<path d="M47.4846 4.07793C47.3661 6.29192 46.7138 10.33 46.1458 12.1976C45.5778 14.0651 45.5575 16.3589 45.7401 19.0181C45.9226 21.6772 46.0444 25.4326 45.9429 27.6655C45.8415 29.8984 45.7806 30.7712 45.9835 30.3449C46.1864 29.9186 47.5252 22.9764 47.9309 21.4133C48.3367 19.8503 49.2229 12.4006 49.2698 10.6954C49.3082 9.30078 48.8641 5.35678 48.4989 4.44332C48.1338 3.52986 47.5455 2.94118 47.4846 4.07793Z" fill="#28839F" fill-opacity="0.2"/>
<path d="M39.1475 10.2386C39.3222 11.1152 39.3605 12.0351 39.5735 13.0196C39.7865 14.0041 40.4458 20.6926 40.5168 21.9207C40.5878 23.1488 40.8211 27.8886 40.882 29.0964C40.9428 30.3042 41.024 32.2428 41.3485 33.278C41.6731 34.3133 41.2167 37.0435 40.8312 38.505C40.4458 39.9666 38.7621 43.6813 38.3564 44.3512C37.9507 45.0211 38.9869 39.4909 38.9903 38.297C38.9927 37.4598 38.5624 35.6428 38.1687 33.613C37.7248 31.3239 37.2828 28.7684 36.7183 27.1223C35.6533 24.0166 35.3946 18.8251 35.5772 17.394C35.7598 15.9629 36.5915 13.9533 37.0986 13.0906C37.6058 12.2279 37.9697 10.623 37.9811 10.2538C37.9925 9.88461 39.0588 9.79326 39.1475 10.2386Z" fill="#28839F"/>
<path d="M35.4754 22.1648C35.4803 23.6424 35.8456 25.7628 36.5658 27.8435C37.2859 29.9241 37.6764 32.629 37.93 33.918C38.1836 35.207 38.782 37.4196 38.6603 39.0232C38.5386 40.6268 38.143 42.809 37.8691 43.7732C37.5953 44.7374 37.4026 45.5189 37.1591 45.3565C36.9157 45.1941 36.8041 44.2096 36.3883 43.2454C35.9724 42.2812 35.4247 38.9522 35.374 37.3587C35.3233 35.7652 35.0494 33.1365 34.7248 31.8475C34.4003 30.5585 34.0554 27.2396 34.1974 26.4276C34.3394 25.6157 34.7147 25.2807 34.7451 24.3571C34.7755 23.4335 34.7502 22.6596 34.877 21.8781C34.9404 21.4873 35.1039 20.0988 35.2117 20.0436C35.3195 19.9884 35.4729 21.4011 35.4754 22.1648Z" fill="#28839F" fill-opacity="0.2"/>
<path d="M43.6303 40.2916C42.2978 41.5139 42.0683 43.6004 41.8045 44.7168C41.5408 45.8333 41.8046 50.4209 41.9263 52.4305C42.048 54.4401 41.6017 57.7894 41.9668 59.4945C42.332 61.1996 42.5653 62.5191 43.6506 63.6153C44.7359 64.7114 44.7967 64.8839 45.4357 64.9753C46.0747 65.0666 46.45 63.0875 46.7543 62.0522C47.0586 61.017 47.6976 57.424 47.8903 56.0234C48.083 54.6228 47.941 51.9636 47.8497 51.0907C47.7584 50.2179 47.5454 48.8984 47.0991 47.5384C46.6529 46.1783 46.7239 45.2344 46.6934 44.5747C46.663 43.915 46.2167 43.3162 45.5371 42.3215C44.8576 41.3269 44.5736 40.6062 44.2997 40.3728C44.0258 40.1394 43.8737 40.0683 43.6303 40.2916Z" fill="#28839F" fill-opacity="0.2"/>
<path d="M41.389 45.7418C41.2789 47.2335 41.2369 49.1977 41.389 50.8267C41.5411 52.4557 41.6476 53.7802 41.4803 55.3636C41.3129 56.9469 41.5107 58.0583 41.5716 59.3219C41.6324 60.5855 41.9823 61.6055 41.5259 63.1888C41.0695 64.7722 39.8067 66.0054 39.0003 66.386C38.194 66.7666 37.844 66.9645 37.5702 66.1728C37.2963 65.3812 36.992 63.7369 36.5356 62.8539C36.0792 61.9709 35.9879 60.6159 36.1096 58.8651C36.2313 57.1143 36.8145 52.41 36.9363 51.456C37.058 50.5019 37.2203 48.5938 37.3825 47.5992C37.5448 46.6045 37.8897 45.5084 38.4374 44.9197C38.9851 44.331 39.5126 43.6002 40.1414 42.8086C40.7703 42.0169 40.9934 42.8898 41.2774 43.7423C41.5614 44.5949 41.5006 44.2295 41.389 45.7418Z" fill="#28839F" fill-opacity="0.2"/>
</g>
</g>
<defs>
<clipPath id="clip0_4089_13876">
<rect width="61" height="48" fill="white"/>
</clipPath>
<clipPath id="clip1_4089_13876">
<rect width="49" height="55" fill="white" transform="translate(7 -2)"/>
</clipPath>
</defs>
</svg>
