<svg width="61" height="48" viewBox="0 0 61 48" fill="none" xmlns="http://www.w3.org/2000/svg">
<g clip-path="url(#clip0_4051_5848)">
<path d="M37.8134 133.401C37.6377 133.401 37.4957 133.298 37.3585 133.199C37.2447 133.117 37.1371 133.039 37.034 133.039C37.0161 133.039 36.9988 133.041 36.9809 133.046C36.8634 133.076 36.7987 133.127 36.7239 133.185C36.618 133.268 36.498 133.362 36.2546 133.362C36.2385 133.362 36.2217 133.362 36.2044 133.361C35.9774 133.35 35.8355 133.254 35.7104 133.169C35.5951 133.091 35.504 133.03 35.3518 133.03C35.3427 133.03 35.3334 133.03 35.3238 133.031C35.164 133.038 35.0719 133.092 34.9553 133.161C34.8093 133.246 34.6438 133.344 34.3347 133.361C34.3133 133.362 34.2922 133.363 34.2713 133.363C33.9827 133.363 33.7347 133.252 33.5158 133.155C33.3319 133.073 33.1581 132.996 32.985 132.992L32.9707 132.992C32.7939 132.992 32.5766 133.064 32.3465 133.14C32.0605 133.234 31.7364 133.342 31.4 133.342L31.3744 133.342C30.5634 133.328 30.1027 132.911 30.0047 132.1C29.9528 131.67 30.0955 131.205 30.2335 130.755C30.3931 130.234 30.5581 129.696 30.4347 129.202C30.1741 128.159 30.0243 126.817 30.0621 125.863C30.088 125.208 29.8845 124.325 29.7051 123.547C29.6186 123.172 29.5371 122.819 29.4815 122.5C29.3654 121.836 29.8516 120.67 30.2805 119.642C30.5154 119.079 30.7372 118.547 30.7819 118.261C30.8786 117.644 30.7681 114.275 30.7088 112.465L30.7001 112.2C30.6507 111.846 30.6011 111.469 30.5521 111.095C30.4187 110.079 30.2927 109.119 30.1829 108.708L30.1005 108.401C29.808 107.315 29.3685 105.681 29.3676 105.109C29.2664 104.845 29.1187 104.454 28.9676 104.009C28.6029 103.56 28.3378 102.572 28.1795 101.073C27.9292 98.7032 28.2055 95.3752 28.4921 93.9807C28.6362 93.2792 28.8619 92.43 29.0609 91.6807C29.2509 90.9653 29.4305 90.2896 29.5009 89.8855C29.5733 89.4698 29.5896 89.2346 29.5993 89.0942C29.6056 89.0027 29.6099 88.9418 29.6278 88.8933C29.6036 88.7641 29.5775 88.6179 29.5495 88.4608C29.412 87.6898 29.2239 86.6339 28.9789 86.088C28.6562 85.3687 28.2325 83.2253 28.0515 82.31L28.0454 82.2789C27.9877 81.9873 27.9349 81.4984 27.8883 80.826C27.8001 80.1024 27.7729 79.2321 27.7549 78.6563L27.7517 78.5568C27.743 78.2834 27.7431 77.7366 27.8009 77.5329C27.7933 77.361 27.7644 77.2027 27.6828 76.8799C27.5977 76.5433 27.5407 76.1795 27.4746 75.7583C27.4425 75.5535 27.4082 75.3348 27.3675 75.0992C27.3254 74.9495 27.298 74.8004 27.2867 74.6557C27.2102 74.263 27.1531 74.0775 27.1028 73.9137C27.0433 73.7202 26.9915 73.5516 26.9279 73.1303C26.8444 73.0149 26.7938 72.5825 26.6483 70.9616C26.5906 70.3186 26.5309 69.6538 26.4712 69.1558C26.4392 68.8894 26.4202 68.5476 26.4147 68.1395C26.3581 68.0228 26.2823 67.904 26.2023 67.7787C26.1127 67.6382 26.0201 67.4932 25.9358 67.325C25.5976 67.0084 25.2593 65.2605 25.2044 64.784C25.0805 63.7099 24.2945 58.9732 23.8403 57.4631C23.3218 55.7393 23.6768 52.2653 23.719 51.8748C23.7333 51.7421 23.7465 51.6108 23.7594 51.4818C23.8146 50.9302 23.8669 50.408 23.9927 50.0065C23.8607 49.76 23.248 49.6495 22.9506 49.6495H22.7953C22.5001 49.6495 21.8945 49.7584 21.7538 50.0086C21.8792 50.41 21.9314 50.9318 21.9865 51.4829C21.9994 51.6116 22.0126 51.7425 22.0268 51.8748C22.069 52.2653 22.4241 55.7396 21.9055 57.4631C21.4513 58.9732 20.6653 63.7099 20.5414 64.784C20.4866 65.2605 20.1483 67.0085 19.8101 67.3251C19.7258 67.4931 19.6333 67.6381 19.5437 67.7785C19.4637 67.9038 19.3878 68.0227 19.3312 68.1395C19.3257 68.5472 19.3067 68.8889 19.2746 69.1558C19.2149 69.6539 19.1552 70.319 19.0975 70.9621C18.9521 72.5827 18.9015 73.015 18.818 73.1303C18.7544 73.5516 18.7026 73.7201 18.6431 73.9136C18.5928 74.0774 18.5357 74.2629 18.4592 74.6557C18.4479 74.8003 18.4205 74.9496 18.3755 75.1119C18.3377 75.3346 18.3035 75.553 18.2714 75.7576C18.2053 76.1791 18.1482 76.5431 18.0631 76.8799C17.995 77.1489 17.9648 77.299 17.9517 77.4365C17.984 77.5763 17.988 77.8578 17.9921 78.323L17.9942 78.5513C18.0009 79.1658 17.9662 80.1706 17.8462 80.9802C17.803 81.5698 17.7537 82.01 17.7005 82.2789L17.6949 82.3068C17.514 83.2228 17.09 85.3679 16.7669 86.088C16.5219 86.6341 16.3337 87.6902 16.1962 88.4613C16.1683 88.6183 16.1422 88.7643 16.1181 88.8933C16.136 88.9417 16.1402 89.0026 16.1466 89.0941C16.1562 89.2346 16.1725 89.4697 16.245 89.8855C16.3154 90.2898 16.495 90.9659 16.6852 91.6817C16.8841 92.4307 17.1096 93.2795 17.2538 93.9808C17.5404 95.3754 17.8166 98.7034 17.5664 101.073C17.4511 102.164 17.2126 103.571 16.7287 104.127C16.5765 104.581 16.4473 104.928 16.3782 105.109C16.3774 105.681 15.9374 107.316 15.6447 108.404L15.5629 108.708C15.4532 109.119 15.3273 110.078 15.194 111.093C15.1449 111.467 15.0953 111.845 15.0458 112.2L15.037 112.47C14.9777 114.278 14.8674 117.644 14.964 118.261C15.0087 118.547 15.2305 119.078 15.4653 119.641C15.8943 120.67 16.3804 121.836 16.2644 122.5C16.2088 122.819 16.1272 123.172 16.0408 123.547C15.8613 124.326 15.6579 125.208 15.6838 125.863C15.7216 126.817 15.5718 128.159 15.3112 129.202C15.1877 129.696 15.3528 130.234 15.5125 130.755C15.6505 131.205 15.7932 131.67 15.7412 132.1C15.6432 132.911 15.1824 133.328 14.3715 133.342L14.3459 133.342C14.0095 133.342 13.6853 133.234 13.3993 133.14C13.1692 133.064 12.9519 132.992 12.7751 132.992L12.7609 132.992C12.5877 132.996 12.414 133.073 12.2301 133.155C12.0112 133.252 11.7632 133.363 11.4746 133.363C11.4537 133.363 11.4325 133.362 11.4111 133.361C11.102 133.344 10.9366 133.246 10.7906 133.161C10.6739 133.092 10.5818 133.038 10.422 133.031C10.4124 133.03 10.4032 133.03 10.394 133.03C10.2419 133.03 10.1508 133.091 10.0355 133.169C9.91038 133.254 9.7685 133.35 9.54153 133.361C9.5241 133.362 9.50738 133.362 9.49134 133.362C9.24792 133.362 9.12791 133.268 9.02203 133.185C8.94711 133.127 8.88244 133.076 8.76493 133.046C8.74706 133.041 8.72969 133.039 8.71183 133.039C8.60868 133.039 8.5012 133.117 8.38737 133.199C8.25014 133.299 8.10819 133.401 7.93249 133.401C7.91914 133.401 7.90565 133.401 7.89217 133.399C7.67029 133.378 7.55512 133.285 7.4535 133.203C7.39131 133.153 7.33763 133.11 7.25833 133.081C7.24834 133.078 7.23729 133.076 7.22469 133.076C7.15359 133.076 7.04886 133.13 6.93801 133.188C6.77274 133.274 6.56695 133.38 6.33171 133.38C5.82646 133.38 5.56783 133.129 5.40922 132.485C5.24993 131.837 5.38996 130.786 5.90004 130.148C6.03174 129.983 6.24135 129.732 6.48409 129.441C7.10438 128.697 7.95398 127.679 8.31996 127.127C8.83055 126.355 9.03755 124.975 8.73783 124.34C8.35482 123.528 8.27443 122.771 8.49891 122.087L8.57464 121.859C8.78443 121.228 9.00142 120.575 9.09516 119.781C9.17223 119.129 9.13758 117.547 9.07259 116.349C9.0116 116.079 8.96207 115.796 8.92543 115.505C8.71615 113.847 7.76332 106.669 7.26755 104.444C6.80135 102.351 6.06297 98.5156 5.93966 96.5261C5.8308 94.7702 5.95563 93.6264 6.03022 92.9431L6.04694 92.7888C6.07257 92.5478 6.14157 92.0819 6.18887 91.8648C6.28159 91.3911 6.41158 90.9516 6.52623 90.5638C6.59332 90.3367 6.65678 90.1221 6.70531 89.9258C6.73577 89.6875 6.81139 89.1447 6.89107 88.9564L6.90195 88.9009C6.98328 88.4878 7.07536 88.0199 7.12249 87.5853C7.1209 87.3111 7.1277 87.0536 7.14316 86.7991C7.06183 85.9046 7.02825 82.5264 7.13368 80.982C7.20262 79.9722 7.47403 78.4795 7.69209 77.28C7.80848 76.6397 7.90901 76.0868 7.93991 75.8089C7.97763 75.4688 7.95798 74.9877 7.88166 74.3785L7.88058 74.3759C6.95015 72.0842 6.0061 69.6845 5.58326 67.7499C5.37092 66.7788 5.3301 65.0768 5.2906 63.4309C5.25398 61.9052 5.21613 60.3276 5.03909 59.4325C4.6815 57.6249 4.63101 54.4977 4.68309 52.9511C4.66445 52.6036 4.71883 51.8973 4.75011 51.5872C4.73085 51.5272 4.73707 51.4518 4.74643 51.3773C4.77085 51.1815 4.79469 50.7499 4.82489 50.2034C4.90223 48.8053 5.01898 46.6923 5.30222 45.5059C5.68328 43.9102 6.40563 39.6647 6.37618 38.3121C6.34636 36.9374 7.04849 33.9965 7.56684 32.4019C7.67394 31.9495 7.8644 31.242 8.03247 30.6179C8.12354 30.2795 8.20679 29.9704 8.26414 29.7485C8.29899 29.3218 8.40678 28.8903 8.49702 28.5611C8.62046 28.1111 8.53582 27.5698 8.43782 26.943C8.33034 26.2557 8.19655 25.4002 8.29886 24.3863C8.46859 22.7046 8.65625 21.8621 8.78376 21.4514C8.82573 21.3005 8.87896 21.1453 8.93537 20.9812C9.06166 20.6132 9.19222 20.2328 9.21728 19.824C9.15675 19.1847 9.15788 18.447 9.21982 18.0585C9.22446 17.2262 9.21938 16.2911 9.14796 15.6503C9.12284 15.5255 9.09892 15.3766 9.07838 15.2186C8.95227 14.6395 8.70006 14.0493 8.51591 13.6183C8.45537 13.4767 8.40215 13.3521 8.35973 13.2437C8.20106 13.1285 8.13886 12.7957 8.02694 12.1971C7.94655 11.7673 7.84652 11.2324 7.68246 10.6822C7.36105 9.60494 6.71603 6.79591 6.47737 5.32403C6.44399 5.31328 6.41212 5.30754 6.38421 5.30754C6.35635 5.30754 6.34351 5.31333 6.34027 5.31512C6.32608 5.32275 6.30751 5.33765 6.28939 5.37888C6.33397 5.64889 6.23617 6.56313 6.16977 7.11504C6.09854 7.70722 5.72792 8.88607 5.29886 10.2511C4.56512 12.585 3.65192 15.4898 3.72435 17.0303C3.82133 19.0925 3.10565 20.6373 2.73102 20.9436C2.65871 21.3131 2.59906 21.7079 2.54126 22.0903C2.48307 22.4757 2.42284 22.8741 2.34901 23.2531C2.2645 23.841 2.08935 24.5178 1.81476 25.316C1.5387 26.1185 0.725348 28.0993 -0.36121 30.6152C-0.505306 31.0817 -0.665371 31.5934 -0.834669 32.1346C-1.92631 35.6242 -3.42132 40.4036 -3.4589 42.1004C-3.46965 42.5867 -3.19728 43.3309 -2.74742 44.4985C-2.24828 45.7942 -2.33464 48.3387 -3.47792 50.5024C-3.96429 51.423 -4.395 52.8303 -4.81159 54.1912C-5.21617 55.5132 -5.59843 56.762 -5.97587 57.3235C-6.20061 57.6579 -6.43323 57.8275 -6.66725 57.8275C-6.90655 57.8275 -7.08652 57.6538 -7.20824 57.4755C-7.39749 58.4438 -7.83609 60.1799 -8.56507 60.3125C-8.61728 60.322 -8.66866 60.3269 -8.71776 60.3269C-9.0768 60.3269 -9.3383 60.0785 -9.46981 59.6293C-9.69685 60.4036 -10.1127 61.4417 -10.7105 61.4417L-10.7298 61.4414C-11.5713 61.4106 -11.5961 60.3052 -11.5578 59.0597C-11.6245 59.0969 -11.7 59.1161 -11.7823 59.1161C-12.3334 59.1161 -12.9957 58.2882 -13.1194 57.4445C-13.4255 55.3565 -13.2227 52.8551 -13.0746 51.0286C-13.0018 50.1311 -12.9269 49.2058 -12.9885 48.9442C-13.102 49.0491 -13.2467 49.2366 -13.412 49.4508C-13.7225 49.853 -14.1089 50.3535 -14.5622 50.6655C-14.9299 50.9186 -15.3682 51.0524 -15.8298 51.0524C-16.5541 51.0524 -17.1916 50.7252 -17.3455 50.2744C-17.4037 50.104 -17.437 49.7684 -17.0066 49.4352C-15.8849 48.5664 -13.7348 45.4283 -12.9706 43.5445C-12.4609 42.2883 -11.5222 41.8719 -10.7679 41.5373C-10.3176 41.3376 -9.9287 41.1651 -9.73704 40.8622C-9.29404 40.1621 -8.62308 36.7526 -7.74282 30.7285C-7.70739 27.4592 -7.65518 24.132 -7.4459 22.4984C-7.05055 19.4124 -5.7568 15.6628 -4.62077 14.3105C-4.45823 14.117 -4.31317 13.9412 -4.18357 13.7839C-3.79012 13.3068 -3.54687 13.0119 -3.36322 12.8868C-3.20022 12.6685 -3.06102 12.2588 -2.94923 11.6687C-3.20309 7.88075 -2.3898 4.64161 -1.73009 3.54964L-1.69492 3.49185C-1.61868 3.23032 -1.51234 2.89738 -1.39992 2.54535L-1.36043 2.42139L-1.33919 2.29818C-1.16322 1.27678 -1.2941 -0.160667 -1.44564 -1.8251C-1.47884 -2.18986 -1.51286 -2.56352 -1.54454 -2.94336C-1.7434 -5.33088 -1.44317 -7.24159 -0.59973 -8.95642C-0.359543 -9.53983 0.0931168 -10.2929 0.525236 -10.8263C2.44009 -14.1831 6.31801 -15.5766 7.97061 -15.5766C8.07833 -15.5766 8.1757 -15.5701 8.26034 -15.5573C8.30053 -15.5594 8.34289 -15.5603 8.38734 -15.5603C8.5619 -15.5603 8.76972 -15.5458 8.98976 -15.5304C9.25723 -15.5118 9.56032 -15.4906 9.86995 -15.4905C10.013 -15.6105 10.3293 -15.7209 10.9052 -15.9154C11.3161 -16.0541 11.8275 -16.2268 12.3388 -16.4404C13.5301 -16.9378 15.0003 -17.851 15.8347 -18.6118C16.0922 -18.8465 16.2525 -18.9705 16.3665 -19.021C16.4455 -19.1311 16.5296 -19.2408 16.6165 -19.3542C16.9433 -19.7804 17.3131 -20.2627 17.414 -20.7582C17.3815 -21.045 17.3701 -22.6204 17.4775 -23.6561C17.4654 -23.8218 17.4531 -23.9053 17.4449 -23.9463C17.4296 -24.0231 17.4169 -24.101 17.4038 -24.1813C17.344 -24.5488 17.2762 -24.9654 16.8821 -25.5531C16.5456 -26.0549 16.4524 -27.2209 16.4334 -28.1107C16.4298 -28.2827 16.2896 -28.4227 16.121 -28.4227C16.099 -28.4227 16.0768 -28.4202 16.0549 -28.4155C15.9546 -28.3936 15.8496 -28.382 15.7512 -28.382C15.4862 -28.382 15.2673 -28.4624 15.1181 -28.6147C14.9641 -28.7717 14.8888 -28.9973 14.8943 -29.2854C14.9135 -30.2921 14.7088 -30.8761 14.5283 -31.3914C14.4372 -31.6513 14.3512 -31.8967 14.2995 -32.1729C14.2075 -32.6637 14.1516 -33.3237 14.407 -33.6804C14.5075 -33.8207 14.6453 -33.9043 14.8168 -33.9288C14.8587 -33.9348 14.902 -33.9378 14.9452 -33.9378C15.0874 -33.9378 15.2361 -33.9053 15.3871 -33.8412C15.4077 -33.8325 15.429 -33.828 15.4503 -33.828C15.4963 -33.828 15.5417 -33.8486 15.575 -33.8845C15.6092 -33.9213 15.6259 -33.9692 15.6222 -34.0192C15.5115 -35.4919 15.4104 -39.1178 16.8584 -40.9757C18.5799 -43.1846 21.2278 -43.6321 22.2864 -43.722C22.4232 -43.7336 22.5883 -43.7461 22.8165 -43.7461C22.9876 -43.7461 23.1731 -43.7387 23.3679 -43.7242C24.4459 -43.6441 27.1414 -43.2158 28.8873 -40.9757C30.3352 -39.1178 30.2341 -35.4919 30.1235 -34.0191C30.1197 -33.9692 30.1364 -33.9213 30.1706 -33.8845C30.2039 -33.8486 30.2493 -33.828 30.2953 -33.828C30.3167 -33.828 30.3379 -33.8325 30.3586 -33.8412C30.5096 -33.9053 30.6583 -33.9378 30.8004 -33.9378C30.8436 -33.9378 30.8869 -33.9348 30.9289 -33.9288C31.1003 -33.9043 31.2381 -33.8207 31.3386 -33.6804C31.594 -33.3237 31.5381 -32.6637 31.4461 -32.1729C31.3944 -31.8967 31.3084 -31.6513 31.2173 -31.3915C31.0369 -30.8762 30.8322 -30.2921 30.8514 -29.2854C30.8569 -28.9974 30.7816 -28.7716 30.6276 -28.6146C30.4784 -28.4624 30.2594 -28.382 29.9945 -28.382C29.896 -28.382 29.791 -28.3936 29.6907 -28.4155C29.6688 -28.4202 29.6466 -28.4227 29.6246 -28.4227C29.456 -28.4227 29.3158 -28.2827 29.3122 -28.1107C29.2933 -27.2209 29.2 -26.0549 28.8636 -25.5531C28.4695 -24.9654 28.4017 -24.5489 28.3418 -24.1814C28.3287 -24.1011 28.316 -24.0231 28.3007 -23.9464C28.2924 -23.9049 28.2802 -23.821 28.2682 -23.6561C28.3755 -22.6202 28.3642 -21.0449 28.3317 -20.7582C28.4325 -20.2627 28.8023 -19.7804 29.1291 -19.3542C29.2174 -19.2391 29.3026 -19.1279 29.3794 -19.021C29.4933 -18.9703 29.6536 -18.8464 29.9109 -18.6118C30.7452 -17.8511 32.2154 -16.9379 33.4068 -16.4404C33.9181 -16.2268 34.4296 -16.0541 34.8405 -15.9154C35.4163 -15.7208 35.7326 -15.6105 35.8757 -15.4905C36.1854 -15.4906 36.4884 -15.5118 36.7559 -15.5304C36.9759 -15.5458 37.1838 -15.5603 37.3583 -15.5603C37.4027 -15.5603 37.4451 -15.5594 37.4853 -15.5573C37.5699 -15.5701 37.6673 -15.5766 37.775 -15.5766C39.4276 -15.5766 43.3055 -14.1831 45.2204 -10.8263C45.6526 -10.2928 46.1053 -9.53965 46.3489 -8.9486C47.1888 -7.24172 47.489 -5.33102 47.2901 -2.94338C47.2585 -2.56316 47.2245 -2.18924 47.1912 -1.82417C47.0397 -0.160107 46.9089 1.27695 47.0849 2.29816L47.113 2.46151L47.115 2.4678C47.2282 2.83154 47.3353 3.17549 47.4108 3.44276L47.4757 3.54967C48.1427 4.65354 48.9594 7.92272 48.6907 11.7393C48.799 12.2961 48.9368 12.6802 49.1008 12.8817C49.2859 13.0039 49.532 13.3023 49.931 13.7861C50.0601 13.9427 50.2046 14.1178 50.3664 14.3104C51.5024 15.6627 52.7962 19.4124 53.1915 22.4983C53.4008 24.1319 53.453 27.4591 53.4884 30.7285C54.3687 36.7526 55.0397 40.1621 55.4827 40.8622C55.6744 41.1651 56.0633 41.3375 56.5135 41.5373C57.2679 41.8719 58.2066 42.2882 58.7162 43.5444C59.4805 45.4284 61.6306 48.5664 62.7523 49.4351C63.1827 49.7684 63.1494 50.104 63.0912 50.2744C62.9373 50.7252 62.2998 51.0523 61.5754 51.0523C61.1139 51.0523 60.6756 50.9186 60.3078 50.6655C59.8547 50.3535 59.4683 49.853 59.1578 49.4509C58.9925 49.2366 58.8477 49.0492 58.7342 48.9442C58.6726 49.2059 58.7476 50.131 58.8204 51.0282C58.9684 52.8548 59.1712 55.3564 58.8651 57.4445C58.7415 58.2881 58.0791 59.1161 57.5279 59.1161C57.4457 59.1161 57.3702 59.0968 57.3035 59.0596C57.3418 60.3052 57.3169 61.4105 56.4755 61.4413L56.4562 61.4416C55.8584 61.4416 55.4425 60.4035 55.2155 59.6292C55.0839 60.0784 54.8225 60.3268 54.4635 60.3268C54.4144 60.3268 54.363 60.322 54.3108 60.3125C53.5815 60.1798 53.143 58.4438 52.9539 57.4754C52.8322 57.6537 52.6523 57.8275 52.413 57.8275C52.1789 57.8275 51.9462 57.6579 51.7215 57.3235C51.3441 56.7619 50.9618 55.5132 50.5572 54.1912C50.1406 52.8302 49.7099 51.4229 49.2235 50.5024C48.0803 48.3387 47.9939 45.7941 48.4931 44.4984C48.943 43.3307 49.2153 42.5865 49.2045 42.1003C49.167 40.4036 47.672 35.6244 46.5804 32.1347C46.4111 31.5935 46.251 31.0818 46.1069 30.6151C45.0204 28.0991 44.207 26.1183 43.931 25.3159C43.6563 24.5178 43.4812 23.841 43.3956 23.2465C43.3228 22.8741 43.2627 22.4759 43.2045 22.0908C43.1467 21.7082 43.0871 21.3131 43.0146 20.9435C42.64 20.6371 41.9244 19.0923 42.0213 17.0302C42.0938 15.4897 41.1806 12.585 40.4468 10.2509C40.0177 8.88594 39.6471 7.70716 39.5759 7.11497C39.5095 6.56306 39.4118 5.64882 39.4563 5.37882C39.4383 5.33759 39.4197 5.32269 39.4055 5.31505C39.4022 5.31326 39.3894 5.30748 39.3615 5.30748C39.3336 5.30748 39.3017 5.3132 39.2684 5.32397C39.0298 6.79533 38.3847 9.60442 38.0633 10.6822C37.8991 11.2324 37.7991 11.7673 37.7188 12.1971C37.6069 12.7957 37.5446 13.1285 37.3859 13.2437C37.3435 13.3521 37.2903 13.4766 37.2298 13.6181C37.0456 14.0491 36.7934 14.6394 36.6655 15.2293C36.6469 15.3757 36.6229 15.5246 36.596 15.661C36.5263 16.2911 36.5212 17.2261 36.5258 18.0584C36.5878 18.4468 36.589 19.1847 36.5284 19.824C36.5534 20.2327 36.684 20.6131 36.8104 20.981C36.8667 21.1452 36.9199 21.3003 36.963 21.4548C37.0895 21.862 37.2771 22.7048 37.4469 24.3862C37.5492 25.4001 37.4154 26.2555 37.3079 26.9428C37.2099 27.5697 37.1252 28.111 37.2487 28.5611C37.3389 28.8901 37.4467 29.3215 37.4815 29.7483C37.5388 29.9698 37.6218 30.2782 37.7127 30.6159C37.881 31.2407 38.0716 31.9489 38.1817 32.412C38.6972 33.9963 39.3993 36.9372 39.3695 38.312C39.3401 39.6643 40.0624 43.9099 40.4434 45.5058C40.7266 46.692 40.8434 48.8047 40.9208 50.2027C40.951 50.7495 40.9748 51.1814 40.9993 51.3773C41.0086 51.4517 41.0149 51.5272 40.9956 51.5872C41.0269 51.8969 41.0812 52.6029 41.0625 52.9621C41.1147 54.4972 41.0643 57.6242 40.7066 59.4325C40.5295 60.3276 40.4917 61.905 40.4551 63.4306C40.4156 65.0766 40.3748 66.7787 40.1624 67.7499C39.7396 69.6842 38.7956 72.084 37.865 74.3763L37.864 74.3787C37.7877 74.9878 37.7681 75.4688 37.8058 75.8088C37.8367 76.0867 37.9372 76.6395 38.0536 77.2798C38.2717 78.4793 38.5431 79.9721 38.612 80.9819C38.7178 82.5312 38.6837 85.924 38.602 86.8019C38.6179 87.0477 38.6248 87.3081 38.6233 87.5854C38.6704 88.0199 38.7625 88.488 38.8438 88.9012L38.8546 88.9563C38.9342 89.1444 39.01 89.6875 39.0404 89.9259C39.0889 90.1219 39.1523 90.3363 39.2194 90.5631C39.3702 91.0733 39.5412 91.6516 39.629 92.2986C39.6574 92.4609 39.6831 92.6413 39.6987 92.7888L39.7155 92.943C39.7901 93.6264 39.9149 94.7701 39.806 96.5261C39.6828 98.515 38.9444 102.351 38.4781 104.444C37.9817 106.671 37.0294 113.848 36.8203 115.505C36.7836 115.795 36.7342 116.079 36.6732 116.349C36.6081 117.547 36.5734 119.129 36.6506 119.781C36.7444 120.575 36.9615 121.228 37.1714 121.86L37.2468 122.087C37.4713 122.771 37.3909 123.528 37.0079 124.34C36.7081 124.975 36.9152 126.355 37.4258 127.126C37.792 127.68 38.6418 128.698 39.2624 129.442C39.5048 129.732 39.7141 129.983 39.8457 130.148C40.3557 130.786 40.4958 131.837 40.3365 132.485C40.1779 133.129 39.9193 133.38 39.414 133.38C39.1787 133.38 38.973 133.274 38.8077 133.188C38.6969 133.13 38.5922 133.076 38.521 133.076C38.5084 133.076 38.4973 133.078 38.4873 133.081C38.4081 133.11 38.3544 133.153 38.2922 133.203C38.1906 133.285 38.0754 133.378 37.8535 133.399C37.84 133.4 37.8268 133.401 37.8134 133.401Z" fill="white" stroke="#28839F" stroke-width="0.483212"/>
<path d="M36.6587 83.9882C36.4625 84.0952 36.2419 84.1479 36.0159 84.1605C35.8247 84.1712 35.6299 84.1533 35.4424 84.1156C35.3945 84.1059 35.3471 84.0948 35.3004 84.0827C35.0209 84.01 34.7492 83.8933 34.4775 83.7809C34.0872 83.6197 33.6965 83.4674 33.2816 83.4674C32.8454 83.4674 32.4455 83.6605 32.0441 83.8587C31.743 84.0073 31.4412 84.1588 31.1226 84.2339C30.8184 84.3054 30.4997 84.3325 30.1912 84.273C29.9541 84.2273 29.7233 84.1306 29.5093 83.9639C29.3633 83.849 29.2474 83.7082 29.1587 83.5502C28.9984 83.2647 28.9274 82.923 28.9272 82.5745C28.9272 82.1844 29.0161 81.7858 29.1686 81.4486C29.7523 80.1586 31.1121 79.5537 31.7596 78.3827C33.2694 75.6525 31.1842 57.6665 32.0421 51.9129C32.278 50.3304 32.3556 48.7066 32.1909 47.1149C32.1806 47.0148 32.1639 46.9154 32.1497 46.8158C32.1448 46.7798 32.1401 46.7439 32.1355 46.7079C32.1224 46.5951 32.1117 46.5342 32.0911 46.3951C32.0882 46.3702 32.0851 46.3475 32.0804 46.3234C32.0785 46.314 32.0766 46.3045 32.0742 46.2946C32.0686 46.2699 32.061 46.2425 32.0505 46.2092C31.884 45.6436 31.5971 44.7688 31.0864 44.4855C30.8639 44.362 30.2287 44.1008 29.7635 43.9458C29.7487 43.9421 29.7337 43.9384 29.719 43.9347C29.6808 43.9423 29.6429 43.95 29.605 43.9576C29.5531 43.9497 29.5037 43.9286 29.458 43.8999C29.4017 43.8645 29.3514 43.8178 29.3088 43.7694C29.2382 43.6892 29.1765 43.591 29.16 43.4856C29.1421 43.4088 29.133 43.3287 29.1386 43.2499C29.1487 43.1118 29.1931 42.9774 29.237 42.8459C29.2767 42.7267 29.3136 42.6065 29.3591 42.4896C29.4183 42.3376 29.4976 42.1903 29.6013 42.0647C29.7098 41.933 29.8292 41.8099 29.9548 41.6944C30.0398 41.6166 30.1274 41.5415 30.2153 41.467C30.2555 41.433 30.2977 41.4019 30.3417 41.3729C30.5134 41.2597 30.7097 41.1808 30.8989 41.0989C31.1531 40.989 31.4265 40.8593 31.7023 40.8865C31.8986 40.9227 32.075 41.0496 32.2204 41.1862C32.2801 41.2422 32.3237 41.3128 32.3587 41.3886C32.3873 41.4505 32.4101 41.5155 32.4311 41.5789C32.4604 41.6672 32.3949 41.7617 32.3817 41.8541C32.3856 41.8836 32.3894 41.9134 32.3931 41.9431C32.4653 42.0863 32.5248 42.1522 32.7533 42.2617C33.4041 42.5731 34.2149 42.0719 34.9475 42.1026C35.0115 42.1053 35.0759 42.1127 35.1393 42.1257C35.165 42.131 35.1905 42.137 35.2156 42.1442C35.2813 42.1625 35.3449 42.187 35.4044 42.2185C36.5529 42.8232 37.0237 44.4614 37.0237 45.7594C37.0237 45.8916 36.9772 46.0077 36.9049 46.1153C36.695 46.4274 36.2679 46.668 36.1332 47.0278C35.5435 48.601 35.1228 50.2487 34.8921 51.913C34.0988 57.6342 36.175 75.3365 36.1641 78.3366C36.1601 79.453 37.0716 80.3854 37.2867 81.4918C37.3577 81.8565 37.3931 82.2748 37.3542 82.6708C37.3194 83.0246 37.2252 83.3606 37.044 83.6248C36.9438 83.771 36.8168 83.8953 36.6587 83.9882Z" fill="white" stroke="#28839F" stroke-width="0.191403"/>
<path d="M9.03046 83.7285C9.2267 83.8354 9.44725 83.8881 9.67325 83.9008C9.86424 83.9115 10.0593 83.8936 10.2468 83.8558C10.2946 83.8461 10.3419 83.835 10.3888 83.823C10.6683 83.7502 10.9398 83.6335 11.2116 83.5213C11.602 83.3599 11.9927 83.2076 12.4074 83.2076C12.8438 83.2076 13.2437 83.4007 13.6451 83.5989C13.9459 83.7475 14.2478 83.899 14.5666 83.9741C14.8707 84.0459 15.1893 84.0727 15.4978 84.0132C15.7348 83.9675 15.9659 83.8708 16.1796 83.7041C16.3259 83.5892 16.4418 83.4484 16.5305 83.2905C16.6905 83.005 16.7617 82.6632 16.7619 82.3147C16.7619 81.9246 16.673 81.5261 16.5204 81.1888C15.9367 79.8988 14.577 79.2939 13.9296 78.1229C12.4196 75.3927 13.984 57.4067 13.1261 51.6532C12.89 50.0706 12.8126 48.4469 12.9771 46.8552C12.9876 46.755 13.0044 46.6556 13.0186 46.556C13.0232 46.5201 13.0281 46.4841 13.0328 46.4481C13.0456 46.3355 13.0565 46.2744 13.0769 46.1354C13.08 46.1105 13.0831 46.0877 13.0878 46.0636C13.0895 46.0543 13.0917 46.0447 13.094 46.0348C13.0997 46.0101 13.1073 45.9827 13.1176 45.9494C13.2842 45.3841 13.5711 44.5091 14.0818 44.2257C14.3043 44.1022 14.9395 43.8412 15.4046 43.686C15.4195 43.6823 15.4343 43.6786 15.4493 43.6749C15.4872 43.6825 15.5253 43.6903 15.5632 43.6979C15.6152 43.6899 15.6646 43.6689 15.7103 43.6401C15.7663 43.6049 15.8169 43.558 15.8594 43.5096C15.93 43.4295 15.9917 43.3313 16.0082 43.2259C16.0261 43.149 16.0353 43.0689 16.0294 42.9901C16.0193 42.852 15.9752 42.7177 15.9312 42.5862C15.8916 42.467 15.8546 42.3468 15.8091 42.2299C15.75 42.0778 15.6706 41.9306 15.567 41.8049C15.4584 41.6733 15.339 41.5502 15.2134 41.4346C15.1284 41.3568 15.0407 41.2817 14.9528 41.2073C14.9127 41.1732 14.8703 41.1421 14.8265 41.1131C14.6546 40.9999 14.4586 40.921 14.2693 40.8391C14.0151 40.7292 13.7415 40.5995 13.4659 40.6267C13.2697 40.6629 13.0933 40.7899 12.9478 40.9264C12.8881 40.9824 12.8443 41.053 12.8095 41.1289C12.7809 41.1907 12.7582 41.2559 12.7372 41.3191C12.7078 41.4076 12.7733 41.5019 12.7866 41.5943C12.7827 41.6239 12.7788 41.6536 12.7749 41.6834C12.7029 41.8265 12.6434 41.8924 12.4149 42.0019C11.7641 42.3133 10.9533 41.8121 10.2207 41.8428C10.1567 41.8456 10.0923 41.853 10.0289 41.866C10.0033 41.8712 9.97779 41.8773 9.9525 41.8845C9.88696 41.9027 9.82336 41.9272 9.76384 41.9588C8.61539 42.5634 8.14453 44.2018 8.14453 45.4996C8.14453 45.6318 8.19102 45.748 8.26336 45.8555C8.4732 46.1677 8.90011 46.4082 9.0351 46.7681C9.62478 48.3413 10.0454 49.989 10.2761 51.6532C11.0692 57.3744 9.51417 75.0767 9.52506 78.0769C9.52915 79.1932 8.61758 80.1256 8.40228 81.232C8.3315 81.5967 8.29609 82.015 8.33499 82.4112C8.3698 82.7648 8.46393 83.1009 8.64519 83.365C8.74535 83.5112 8.87235 83.6355 9.03046 83.7285Z" fill="white" stroke="#28839F" stroke-width="0.191403"/>
<path d="M27.4753 32.0623C27.4138 31.9466 27.352 31.8584 27.2946 31.8164C27.2398 31.8164 27.1874 31.8184 27.1371 31.8224C26.2503 31.8895 26.0359 32.5183 25.0682 32.5183C24.9742 32.5183 24.8803 32.5956 24.7861 32.6728C24.692 32.7504 24.5979 32.8278 24.5037 32.8278H21.2733C21.162 32.8278 21.0508 32.7203 20.9396 32.616C20.8353 32.5186 20.731 32.4241 20.6268 32.4241C19.5748 32.4241 19.4399 31.8746 18.4779 31.8206C18.4284 31.8178 18.3764 31.8164 18.3221 31.8164C18.2548 31.8458 18.1908 31.9238 18.1315 32.0321C17.9361 32.3893 17.4512 34.4224 17.5629 34.7668C17.6238 34.9543 17.7198 35.1845 17.9297 35.4651C18.001 35.5604 18.0446 35.6603 18.086 35.7412C18.122 35.8116 18.1475 35.8746 18.2064 35.8941C18.2552 35.9083 18.3128 35.891 18.363 35.8849C18.3692 35.8842 18.374 35.8811 18.3802 35.8803C18.3815 35.8856 18.3805 35.8915 18.3818 35.8968C18.487 36.3156 18.6746 36.7041 18.819 37.1087C18.8674 37.2434 18.9205 37.3929 19.0404 37.4551C19.0639 37.4656 19.0964 37.4547 19.1266 37.4516C19.2994 37.7266 19.6078 37.8951 19.7935 38.1679C19.839 38.2347 19.8654 38.3188 19.9023 38.39C19.9298 38.4427 19.9629 38.4884 20.0136 38.5149C20.0455 38.5294 20.079 38.5205 20.1062 38.5183C20.2072 38.5106 20.3066 38.4799 20.4064 38.4547C20.3689 38.7039 20.396 38.989 20.4656 39.2205C20.5542 39.5146 20.7894 39.6457 20.916 39.9056C20.9538 39.9836 20.9631 40.117 21.0099 40.1764C21.0223 40.1921 21.0369 40.2024 21.0557 40.2054C21.281 40.2273 21.4752 40.0453 21.6893 40.0453C21.7752 40.0453 21.873 40.1299 21.91 40.2484C21.9501 40.3751 22.0402 40.4991 22.1323 40.4991H23.5313C23.6071 40.4991 23.6811 40.3876 23.7078 40.2791C23.7399 40.1487 23.8433 40.0453 23.9342 40.0453C24.1593 40.0453 24.3562 40.3275 24.5769 40.37C24.595 40.3735 24.6039 40.3778 24.6335 40.3702C24.6453 40.3664 24.6565 40.3551 24.6667 40.3385C24.706 40.2747 24.7337 40.133 24.7542 40.0356C24.8208 39.7228 25.0602 39.5373 25.1184 39.2204C25.1642 38.9703 25.2052 38.6852 25.1654 38.4384C25.3689 38.5316 25.5677 38.6578 25.7777 38.7047C25.8277 38.7157 25.8782 38.7221 25.9295 38.7221C25.9783 38.7167 26.0145 38.6698 26.0433 38.6064C26.0822 38.5207 26.1077 38.4047 26.1326 38.3212C26.232 37.988 26.5534 37.772 26.6876 37.459C26.703 37.46 26.7162 37.4623 26.7337 37.4623C26.8627 37.455 26.8934 37.2067 26.9367 37.0614C27.0463 36.6942 27.1832 36.3355 27.2682 35.9605C27.2737 35.9358 27.2729 35.9098 27.2781 35.8849C27.3228 35.8935 27.371 35.9081 27.4106 35.8941C27.4584 35.8736 27.4982 35.7889 27.5365 35.7142C27.5803 35.6286 27.6193 35.5248 27.6537 35.4078C27.8116 34.8719 28.134 34.0509 28.134 33.4297C28.134 33.1165 27.6776 32.4437 27.4753 32.0623ZM21.0707 36.377C21.1903 36.377 21.255 36.5503 21.3169 36.6621C21.3415 36.707 21.3678 36.7616 21.3933 36.8145C21.3598 36.8265 21.3249 36.8295 21.2918 36.8415C21.2205 36.8674 21.1459 36.89 21.0707 36.89C20.8391 36.89 20.6258 36.7857 20.4159 36.6608C20.6196 36.5055 20.8293 36.377 21.0707 36.377ZM20.6268 34.5776C20.7178 34.5776 20.8087 34.7257 20.8997 34.8898C20.6937 34.8465 20.4977 34.7518 20.3081 34.6232C20.4069 34.5971 20.5102 34.5776 20.6268 34.5776ZM20.9685 38.3505C21.0028 38.3473 21.0361 38.3328 21.0707 38.3328C21.2126 38.3328 21.3741 38.4326 21.4356 38.5725C21.4771 38.6668 21.6186 38.7447 21.7614 38.8005C21.7374 38.809 21.7138 38.8227 21.6894 38.8227C21.4294 38.8227 21.2027 38.5571 20.9685 38.3505ZM24.5432 38.4281C24.5504 38.4223 24.5546 38.4156 24.5622 38.4103C24.5559 38.4163 24.5495 38.422 24.5432 38.4281ZM24.7783 36.89C24.6868 36.89 24.5975 36.8541 24.5102 36.8238C24.5064 36.8225 24.5025 36.8226 24.4987 36.8213C24.5232 36.7603 24.5471 36.6961 24.5717 36.6454C24.6219 36.5421 24.6714 36.377 24.7783 36.377C25.014 36.377 25.218 36.5045 25.4158 36.6587C25.2122 36.7848 25.0048 36.89 24.7783 36.89ZM24.8122 34.9251C24.8976 34.7461 24.9828 34.5776 25.0682 34.5776C25.216 34.5776 25.3451 34.6116 25.4671 34.6586C25.2591 34.799 25.0464 34.9145 24.8122 34.9251Z" fill="white" stroke="#28839F" stroke-width="0.191403"/>
<path d="M22.4407 43.866C22.4449 43.867 22.4521 43.8701 22.455 43.8701C22.4536 43.8187 22.4431 43.741 22.4413 43.6899C22.4404 43.674 22.4367 43.6539 22.4355 43.6383C22.4346 43.6277 22.4318 43.6225 22.4306 43.6119C22.4258 43.5827 22.4246 43.553 22.4207 43.5235C22.4184 43.3696 22.4113 43.2301 22.3862 43.1414C22.3861 43.1406 22.3862 43.1402 22.3861 43.1393C22.3859 43.1366 22.388 43.0934 22.3879 43.0905C22.3855 43.0689 22.3859 43.0509 22.3853 43.0291C22.3688 43.0294 22.291 43.0278 22.2747 43.0281C21.464 43.0409 20.7946 42.8914 19.8648 42.6119C19.3856 42.4678 18.9402 42.2869 18.6302 42.0697C18.4001 41.9086 18.1382 41.6334 17.8803 41.3364C17.8838 41.3027 17.8823 41.268 17.8861 41.2346C17.9249 40.8929 17.9785 40.5672 18.0272 40.2897C18.0885 39.9405 18.204 39.5841 18.2493 39.3531C18.2558 39.3208 18.2606 39.291 18.2639 39.2642C18.2669 39.2405 18.2685 39.2188 18.2685 39.1999C18.274 39.1423 18.2258 39.0598 18.1463 38.9654C17.9115 38.6868 17.4039 38.3052 17.2117 38.1586C17.0472 38.0331 16.4494 37.3261 16.153 36.9276C16.1194 36.8826 16.1038 36.8564 16.0792 36.8205C16.0929 36.6142 16.0782 36.3939 16.1207 36.2041C16.2335 35.6989 16.4366 35.3086 16.8156 35.0991C16.929 35.0363 17.3475 34.8892 17.58 34.8849C17.5976 34.8846 17.6159 34.8843 17.6348 34.8842C17.7613 34.8828 18.0041 34.8843 18.1753 34.8843C18.1753 34.7986 18.0912 34.6373 18.1103 34.4273C18.1128 34.4006 18.1153 34.3734 18.118 34.3453C18.2122 33.3498 18.447 31.7031 18.447 31.318V29.5754C18.2974 29.4369 18.0156 29.1639 17.6484 28.8494C17.5941 28.8029 17.5382 28.7556 17.4801 28.7076C16.7272 28.0833 15.424 27.2279 14.4208 27.0658C11.4979 26.5927 8.92274 27.6523 8.49469 29.4459C8.02924 31.3961 8.29194 33.0661 9.72364 34.9821C9.87819 35.1891 10.0915 35.3925 10.326 35.5987C10.7053 35.932 11.1398 36.2723 11.4697 36.6457C12.1683 37.4362 11.6871 39.4305 12.4284 40.2686C12.8933 40.7947 13.8742 40.7592 14.6849 41.2567C15.0629 41.4885 15.3469 41.7931 15.6071 42.0997C15.6044 42.6383 15.6676 43.1533 15.9025 43.5884C16.6505 44.9743 18.341 45.8263 18.9689 45.8945C19.2084 45.9204 19.822 45.904 20.1633 45.8943C20.6055 45.8817 21.0536 45.2599 21.3003 44.9699C21.5057 44.7284 21.9386 44.5531 22.0809 44.4169C22.325 44.1836 22.2439 44.3049 22.5178 44.038C22.4851 44.038 22.4639 44.0056 22.4498 43.9523C22.4443 43.931 22.4443 43.8933 22.4407 43.866ZM19.8928 44.5285C19.6769 44.5558 19.2084 44.5434 19.0608 44.4916C18.6969 44.3642 18.312 44.0001 18.0664 43.4115C18.4629 43.4345 18.8546 43.4488 19.1645 43.5061C19.6014 43.5871 19.9521 43.6469 20.2686 43.696C20.2735 43.7 20.2661 43.7082 20.2721 43.7117C20.5004 43.844 20.5147 43.9497 20.4873 44.1221C20.4506 44.3539 20.1725 44.4932 19.8928 44.5285Z" fill="white" stroke="#28839F" stroke-width="0.191403"/>
<path d="M36.9626 29.4459C36.5346 27.6523 33.9594 26.5927 31.0364 27.0658C30.0331 27.2279 28.7301 28.0833 27.9771 28.7076C27.9191 28.7557 27.8631 28.8029 27.8089 28.8494C27.4415 29.1639 27.1599 29.4369 27.0103 29.5754V31.318C27.0103 31.7031 27.245 33.3498 27.3391 34.3453C27.3419 34.3734 27.3444 34.4006 27.347 34.4273C27.366 34.6373 27.3777 34.7986 27.3777 34.8843C27.5488 34.8843 27.6959 34.8828 27.8225 34.8842C27.8413 34.8843 27.8597 34.8845 27.8774 34.8849C28.1097 34.8892 28.5282 35.0363 28.6417 35.0991C29.0207 35.3086 29.2237 35.6989 29.3366 36.2041C29.379 36.3939 29.3643 36.6143 29.378 36.8206C29.3534 36.8565 29.3378 36.8826 29.3043 36.9276C29.0077 37.3261 28.41 38.0331 28.2455 38.1586C28.0533 38.3052 27.5457 38.6868 27.311 38.9654C27.2314 39.0598 27.183 39.1423 27.1889 39.1998C27.1889 39.2188 27.1904 39.2404 27.1933 39.2642C27.1966 39.291 27.2015 39.3208 27.2079 39.3531C27.2532 39.5841 27.3687 39.9405 27.43 40.2897C27.4789 40.5672 27.5323 40.8928 27.5712 41.2346C27.575 41.2679 27.5735 41.3027 27.5771 41.3364C27.3191 41.6334 27.0571 41.9086 26.8271 42.0697C26.5171 42.2869 26.0717 42.4678 25.5925 42.6119C24.9277 42.8118 24.3961 42.9437 23.8509 42.9989C23.8353 43.0003 23.82 43.0019 23.8046 43.0033C23.6051 43.0217 23.4041 43.0313 23.1929 43.0281C23.1731 43.0279 23.1091 43.0273 23.089 43.0269C23.0884 43.0488 23.0957 43.0662 23.0935 43.0878C23.0933 43.0901 23.0941 43.101 23.0944 43.1069C23.0145 43.2432 23.0622 43.7441 23.0074 43.9523C22.9933 44.0056 22.9722 44.038 22.9395 44.038C23.2133 44.3049 23.1322 44.1836 23.3763 44.417C23.5186 44.5531 23.9515 44.7284 24.157 44.9699C24.4036 45.2599 24.8517 45.8817 25.294 45.8942C25.6353 45.904 26.2488 45.9204 26.4883 45.8945C27.1163 45.8263 28.8068 44.9743 29.5548 43.5884C29.7896 43.1533 29.8528 42.6383 29.8501 42.0998C30.1104 41.7933 30.3943 41.4886 30.7723 41.2567C31.5831 40.7592 32.5639 40.7947 33.029 40.2686C33.7701 39.4305 33.2889 37.4362 33.9875 36.6457C34.3174 36.2723 34.7519 35.932 35.1314 35.5987C35.3657 35.3925 35.579 35.1891 35.7337 34.9821C37.1653 33.0661 37.4281 31.3961 36.9626 29.4459ZM26.3965 44.4916C26.2488 44.5434 25.7803 44.5559 25.5645 44.5286C25.2848 44.4932 25.0067 44.3539 24.9699 44.1221C24.9425 43.9497 24.9568 43.844 25.1852 43.7117C25.1914 43.7082 25.1837 43.6999 25.1888 43.696C25.5061 43.6467 25.8544 43.5873 26.2929 43.5061C26.6027 43.4488 26.9944 43.4346 27.3909 43.4115C27.1453 44.0001 26.7605 44.3643 26.3965 44.4916Z" fill="white" stroke="#28839F" stroke-width="0.191403"/>
<path d="M8.54187 14.5225C8.5405 14.5838 8.54828 14.6804 8.56306 14.7944C8.59728 15.0607 8.66906 15.4208 8.7488 15.6408C8.96759 16.2445 9.16772 16.6718 9.64636 17.2844C10.4088 18.2604 11.1439 18.5064 12.064 18.6299C12.0817 18.6322 12.0992 18.6343 12.1166 18.6365C12.1204 18.6371 12.1296 18.6277 12.1428 18.6276C12.1514 18.6274 12.1615 18.6361 12.1735 18.6357C12.3344 18.6289 13.7306 17.6676 14.316 16.4263C14.5636 15.9014 14.9043 15.4109 15.0438 14.8438C15.0467 14.8323 15.0494 14.8209 15.0523 14.8092C15.0831 14.6837 15.1138 14.5581 15.1445 14.4325L15.0804 14.398C15.0506 14.3656 15.021 14.3331 14.9913 14.3006C14.958 14.2777 14.9248 14.2549 14.8913 14.2319C14.7991 14.2006 14.7445 14.0942 14.6951 14.0067C14.6532 13.9326 14.5416 13.9319 14.4889 13.8657C14.471 13.8467 14.4531 13.8274 14.4354 13.8082C14.4142 13.7926 14.393 13.7771 14.372 13.7615C14.3193 13.8696 14.3168 14.0297 14.2143 14.0859C14.2088 14.0933 14.2036 14.1009 14.1982 14.1083C13.9362 14.6343 13.8107 15.2275 13.5464 15.7522C13.0468 16.7445 12.0572 17.3653 11.9003 17.3702C11.8886 17.3706 11.8789 17.3801 11.8707 17.3803C11.8581 17.3807 11.8482 17.3696 11.8451 17.3694C11.8309 17.3686 11.8169 17.3675 11.8027 17.3665C11.0587 17.308 10.5146 17.0433 9.84941 16.2935C9.27995 15.6517 9.11444 14.8915 9.04676 14.2022C9.03509 14.0822 8.99075 13.5411 9.12378 13.1168C9.18077 12.9351 9.25955 12.7711 9.36748 12.6648C9.37214 12.6511 9.34707 12.6194 9.34336 12.6014C9.34005 12.584 9.31632 12.5271 9.31029 12.5088C9.06894 12.5907 8.85306 12.8548 8.76009 13.015C8.68735 13.1403 8.61364 13.5123 8.59245 13.7041C8.58758 13.7485 8.56501 13.8871 8.56172 13.9826C8.55997 14.0359 8.53955 14.194 8.53955 14.2751C8.53955 14.301 8.54244 14.4626 8.54187 14.5225Z" fill="white" stroke="#28839F" stroke-width="0.191403"/>
<path d="M31.7078 15.4785C31.6881 15.3722 31.6683 15.2661 31.6485 15.1599C31.6068 14.9747 31.5556 14.7908 31.4831 14.6169C31.4522 14.5426 31.4106 14.4737 31.3742 14.4021C31.3374 14.3556 31.3005 14.3092 31.2637 14.2627C31.228 14.23 31.1919 14.1971 31.1562 14.1645C31.0282 14.0511 30.8952 13.9442 30.7604 13.8401C30.556 13.6822 30.3707 13.4967 30.1651 13.3404C29.7538 13.0282 29.3429 12.7105 28.9002 12.4528C28.0961 11.9851 27.2592 11.5722 26.3939 11.2534C25.9076 11.0743 25.3968 10.9866 24.8837 10.9193C24.922 10.7484 24.9608 10.5777 24.9608 10.4067C24.9608 10.3613 24.9474 10.3076 24.9262 10.2576C24.9038 10.2053 24.8728 10.1572 24.8513 10.1227C24.9319 10.0347 24.939 9.87992 24.939 9.77606C24.939 9.67599 24.8984 9.55087 24.8298 9.45531C24.9127 9.40843 24.9474 9.27678 24.9474 9.18752C24.9474 8.87188 24.719 8.55648 24.719 8.24084C24.719 7.88366 24.8802 7.52647 24.8802 7.16917C24.8802 7.12561 24.8674 7.07408 24.847 7.02625C24.8256 6.97603 24.7961 6.92998 24.7641 6.90137H21.2319C21.193 6.93792 21.1621 6.98861 21.1412 7.04157C21.1214 7.09214 21.1105 7.14424 21.1105 7.1878C21.1105 7.5451 21.2371 7.88366 21.2371 8.24084C21.2371 8.55648 21.0434 8.87188 21.0434 9.18752C21.0434 9.27678 21.1162 9.43324 21.2039 9.45531C21.1399 9.47372 21.0588 9.63836 21.0588 9.77452C21.0588 9.87589 21.1044 10.0366 21.1567 10.1275C21.1159 10.1657 21.0839 10.2185 21.0621 10.2738C21.0413 10.3263 21.0302 10.3809 21.0302 10.4262C21.0302 10.5918 21.0599 10.7529 21.0889 10.9142C20.5505 10.9816 20.0144 11.0696 19.5043 11.2533C18.6197 11.5722 17.7644 11.9851 16.9425 12.4528C16.4897 12.7105 16.07 13.0282 15.6496 13.3404C15.4393 13.4966 15.2499 13.6822 15.0408 13.8401C14.9031 13.9442 14.7671 14.0511 14.6363 14.1645C14.5997 14.1971 14.5632 14.23 14.5266 14.2627C14.4888 14.3092 14.4511 14.3556 14.4133 14.4021C14.3762 14.4737 14.3338 14.5426 14.3021 14.6169C14.228 14.7908 14.1757 14.9747 14.1331 15.1598C14.1129 15.2661 14.0926 15.3722 14.0724 15.4784C14.0382 15.6714 14.0319 15.9086 14.1494 16.0612C14.169 16.0799 14.1887 16.0988 14.2378 16.107C14.2851 16.0341 14.3357 15.9632 14.3798 15.8882C14.48 15.7173 14.5873 15.5497 14.7127 15.3981C15.1034 14.9259 15.5825 14.5359 16.0727 14.1804C17.0638 13.4616 18.1641 12.9102 19.2754 12.4215C19.8495 12.1688 20.4617 11.9939 21.081 11.9209C21.023 12.1177 20.9602 12.3144 20.9602 12.5111C20.9602 12.594 21.0203 12.6495 21.0332 12.7223C21.0507 12.8211 21.0297 12.8278 21.0296 12.9314C21.0294 13.1277 20.9684 13.2687 21.0952 13.4522C20.802 13.8732 21.1594 14.4439 21.1121 14.9547C21.0919 15.1729 20.9965 15.3763 20.9435 15.589C20.8663 15.8986 20.9904 16.1711 20.9205 16.4891C20.8812 16.6681 20.8903 16.8996 21.0555 16.979C20.8815 17.0564 20.8385 17.2833 20.8467 17.4736C20.858 17.7364 20.9472 17.9939 20.9433 18.2516C20.9378 18.6083 20.8268 18.9867 20.7911 19.3443C20.718 20.077 20.7017 20.8154 20.7429 21.5506C20.7579 21.8194 20.7799 22.0951 20.7021 22.3529C20.6352 22.575 20.4945 20.1889 20.5434 20.4156C20.561 20.497 20.6024 23.1766 20.6173 23.2584C20.6601 23.4937 20.4875 23.7741 20.6434 23.9554C20.5794 23.881 20.4138 24.6075 20.4162 24.671C20.4269 24.9469 20.5142 25.219 20.5142 25.4961C20.5142 25.8419 20.3765 26.1877 20.3765 26.5333C20.3765 26.6305 20.4746 26.798 20.5527 26.8233C20.4731 26.9338 20.4051 27.0609 20.4051 27.1797C20.4051 27.2986 20.459 27.434 20.5333 27.5362C20.6264 27.6131 20.7522 27.6476 20.8588 27.6631C21.5359 27.7616 22.1409 27.8155 22.8502 27.8155C23.5534 27.8155 24.2348 27.7778 24.9572 27.6644C25.0793 27.6454 25.2387 27.6104 25.3278 27.5362C25.433 27.4359 25.4814 27.3037 25.4814 27.1848C25.4814 27.066 25.4229 26.9112 25.3272 26.7998C25.4412 26.7484 25.4814 26.6313 25.4814 26.5333C25.4814 26.1823 25.299 25.866 25.2916 25.516C25.2833 25.1207 25.4219 24.7302 25.3449 24.3349C25.3256 24.236 25.2928 24.1395 25.2826 24.0393C25.2726 23.9413 25.2844 23.8425 25.2963 23.7447C25.3619 23.2006 25.3919 22.8156 25.2723 22.287C25.1913 21.9291 25.2036 21.5574 25.2162 21.1906C25.2294 20.8093 25.2426 20.4279 25.2558 20.0465C25.2637 19.8173 25.2715 19.5865 25.236 19.3599C25.1931 19.0861 25.088 18.8251 25.0442 18.5515C24.9977 18.2606 25.314 17.081 24.9242 17.006C25.225 17.0639 25.0663 16.3142 24.9652 16.208C25.0545 16.1576 25.0916 16.0162 25.0916 15.9203C25.0916 15.5815 24.8464 15.2426 24.8464 14.9037C24.8464 14.5202 25.0196 14.1365 25.0196 13.7529C25.0196 13.706 25.0057 13.6506 24.984 13.5993C24.9609 13.5454 24.9291 13.4958 24.9131 13.4513C24.9964 13.3605 25.0038 13.2003 25.0038 13.093C25.0038 12.9986 24.96 12.8852 24.9081 12.7906C24.9946 12.7416 25.0308 12.6043 25.0308 12.5112C25.0308 12.3168 24.9582 12.1225 24.8902 11.9282C25.4825 12.0043 26.0684 12.1743 26.6178 12.4215C27.705 12.9102 28.7814 13.4616 29.7511 14.1804C30.2306 14.5359 30.6992 14.9259 31.0815 15.3981C31.204 15.5497 31.3091 15.7173 31.4071 15.8882C31.4502 15.9632 31.4998 16.0341 31.5747 16.1177C31.594 16.0988 31.6132 16.0799 31.6324 16.0612C31.7475 15.9086 31.7414 15.6713 31.7078 15.4785Z" fill="white" stroke="#28839F" stroke-width="0.191403"/>
<path d="M7.9566 10.886C7.94513 10.9661 7.94027 11.0949 7.94163 11.2476C7.94475 11.6039 7.98227 12.0903 8.05248 12.3937C8.24541 13.2261 8.44126 13.8232 8.97474 14.7125C9.82426 16.1292 10.7529 16.5808 11.9444 16.9031C11.9671 16.9093 11.9899 16.9151 12.0124 16.921C12.0175 16.9223 12.0309 16.9118 12.0484 16.9136C12.0597 16.9149 12.0716 16.9284 12.0875 16.9297C12.3005 16.9486 14.2893 15.926 15.2555 14.3942C15.4809 14.0367 15.7421 13.6979 15.9767 13.3449C16.1673 13.058 16.3404 12.7616 16.4627 12.438C16.4683 12.4232 16.4738 12.4085 16.4794 12.3939C16.5397 12.234 16.5998 12.0739 16.6601 11.9141C16.6338 11.8952 16.6074 11.8763 16.5811 11.8575C16.5471 11.8096 16.5133 11.7618 16.4794 11.7139L16.3587 11.606C16.2422 11.549 16.1869 11.3995 16.1358 11.2756C16.0926 11.1707 15.9456 11.1503 15.8866 11.0544C15.8662 11.026 15.8458 10.9976 15.8254 10.9692C15.7999 10.9451 15.7746 10.921 15.7491 10.8969C15.663 11.0301 15.6344 11.2402 15.4906 11.2964C15.4823 11.3053 15.4741 11.3141 15.4657 11.323C15.274 11.6128 15.1163 11.9254 14.9618 12.24C14.7716 12.6273 14.5865 13.0178 14.349 13.3735C13.5349 14.5925 12.1348 15.2375 11.9274 15.2169C11.9119 15.2153 11.8977 15.2262 11.887 15.225C11.8703 15.2233 11.8588 15.2071 11.8547 15.2061C11.8364 15.2026 11.8179 15.1988 11.7995 15.1949C10.8298 14.9889 10.1553 14.5459 9.39813 13.4437C8.74971 12.5 8.56106 11.4681 8.58071 10.5493C8.5842 10.3895 8.6653 9.66655 8.90725 9.13113C9.01092 8.90183 9.1772 8.70579 9.3361 8.58424C9.34426 8.56732 9.31626 8.52122 9.31431 8.49672C9.31257 8.47338 9.29039 8.39442 9.28514 8.36914C8.9549 8.43508 8.66919 8.75151 8.52157 8.94638C8.40604 9.09847 8.21019 9.56914 8.15224 9.81769C8.13883 9.87506 8.08728 10.0536 8.06784 10.1787C8.05695 10.2487 8.00521 10.4531 7.99257 10.5599C7.98848 10.5941 7.96672 10.8072 7.9566 10.886Z" fill="white" stroke="#28839F" stroke-width="0.191403"/>
<path d="M7.68083 8.8323C7.66916 8.91651 7.66761 9.04799 7.6746 9.20183C7.69093 9.56104 7.75512 10.0426 7.85373 10.3301C8.12426 11.1193 8.20186 11.7848 8.76043 12.6357C9.64983 13.9911 11.2168 14.8865 12.6632 15.0633C12.6908 15.0668 12.7184 15.0699 12.7459 15.073C12.7519 15.0736 12.77 15.061 12.7916 15.0606C12.8054 15.0604 12.8186 15.0726 12.8384 15.072C13.1014 15.0637 17.6314 11.4653 18.1849 10.7815C18.2787 10.6655 18.7073 10.0694 18.8277 9.92707C18.7995 9.90392 18.5828 10.1031 18.521 10.1396C18.4636 10.1735 18.2536 10.3279 18.2127 10.2707C18.1777 10.2217 18.1519 10.1595 18.1059 10.1033C18.0093 9.98851 17.9861 9.97782 17.8941 9.85062C17.8304 9.76018 17.7693 9.65691 17.6754 9.58087C17.6499 9.55986 17.6186 9.53536 17.5882 9.51026C17.5561 9.48401 17.5207 9.46028 17.4894 9.44336C17.3788 9.59351 17.2732 9.73023 17.1773 9.84361C16.6103 10.5128 13.0995 13.3135 12.8437 13.3193C12.8244 13.3197 12.8054 13.3329 12.7922 13.3331C12.7713 13.3333 12.7593 13.3181 12.7542 13.3177C12.7319 13.3164 12.7093 13.315 12.6867 13.3133C11.5027 13.2275 10.2516 12.3078 9.43959 11.2659C8.74449 10.374 8.57179 9.23505 8.56421 8.30112C8.56285 8.13834 8.64045 7.25595 8.85575 6.79675C8.90456 6.69232 8.95961 6.5836 9.04557 6.51027C9.03564 6.48265 9.02554 6.45505 9.01542 6.42762C9.00181 6.38717 8.98799 6.34691 8.97438 6.30664C8.72077 6.40291 8.43643 6.50094 8.26936 6.72304C8.06184 6.99921 7.95216 7.43253 7.88816 7.69937C7.87338 7.76122 7.81523 7.95551 7.7952 8.08718C7.78412 8.16089 7.72655 8.38145 7.7143 8.49289C7.7104 8.52868 7.69056 8.74984 7.68083 8.8323Z" fill="white" stroke="#28839F" stroke-width="0.191403"/>
<path d="M7.79348 5.19801C7.78045 5.2937 7.77849 5.44326 7.78648 5.61811C7.80517 6.02673 7.87088 6.54271 7.93604 6.88344C8.07704 7.62132 8.38627 8.55546 9.02109 9.52284C10.0326 11.0641 11.8145 12.0823 13.4593 12.2834C13.4906 12.2873 13.5219 12.291 13.5532 12.2945C13.5602 12.2951 13.5807 12.2809 13.6052 12.2803C13.6209 12.2801 13.6359 12.2935 13.6584 12.2935C14.9004 12.2935 17.5875 10.9877 19.1628 9.66869C20.2625 8.74779 21.9728 6.6022 22.2239 6.23656C22.232 6.2247 22.24 6.21323 22.2478 6.20176C22.4081 5.96779 22.4915 5.84235 22.5074 5.82269C22.4715 5.82463 22.444 5.82172 22.4219 5.81588C22.3767 5.80382 22.353 5.7797 22.3194 5.76124C22.2906 5.74528 22.2544 5.73342 22.1908 5.73692C22.0521 5.74431 22.1891 5.73303 22.1317 5.65737C22.0881 5.59981 21.9998 5.68966 21.9358 5.6457C21.9178 5.63325 21.8969 5.62217 21.8738 5.61362C21.8495 5.60447 21.8226 5.59805 21.7933 5.59553C21.7779 5.61089 21.5838 5.84233 21.4004 5.9388C21.3884 5.94522 21.3796 5.95436 21.3687 5.96544C21.0346 6.30989 19.4787 7.74383 18.4452 8.56944C17.1038 9.64088 14.8149 10.3002 13.6643 10.3002C13.6425 10.3002 13.6209 10.3158 13.6057 10.316C13.5822 10.3163 13.5684 10.299 13.5628 10.2986C13.5371 10.2971 13.5116 10.2953 13.4859 10.2936C12.1395 10.196 10.717 9.15 9.7936 7.96538C9.00301 6.95113 8.80679 5.65603 8.79822 4.59393C8.79667 4.40917 8.81262 3.57676 9.12964 2.88341C9.15238 2.83381 9.17007 2.79064 9.16365 2.74824L9.12923 2.6543L9.08256 2.5166C8.87076 2.59713 8.66538 2.53041 8.46291 2.79977C8.3046 3.01021 8.10214 3.60632 8.0294 3.9099C8.01249 3.98011 7.94635 4.20125 7.9236 4.35101C7.91096 4.43463 7.84562 4.68553 7.8316 4.81234C7.82732 4.85279 7.80475 5.10427 7.79348 5.19801Z" fill="white" stroke="#28839F" stroke-width="0.191403"/>
<path d="M8.02639 1.71957C8.01335 1.81525 8.01141 1.96481 8.01938 2.13966C8.03806 2.54829 8.11099 3.09577 8.2232 3.4227C8.53088 4.32026 8.88425 5.09256 9.66824 5.931C10.9172 7.26654 12.76 7.94491 14.3735 8.33545C14.4042 8.34283 14.4349 8.35003 14.4657 8.35723C14.4725 8.35878 14.4942 8.34674 14.5188 8.34927C14.5345 8.35082 14.5479 8.36657 14.5703 8.36832C14.8686 8.3936 17.3528 7.5682 18.6604 6.98512C19.4827 6.61851 20.2659 5.96951 21.1257 5.40102C21.1358 5.39421 21.1461 5.38741 21.1564 5.3806C21.2677 5.30689 21.3789 5.23317 21.4902 5.15946C21.4773 5.13262 21.4645 5.10558 21.4518 5.07875C21.4448 5.02838 21.4381 4.97801 21.431 4.92764C21.4143 4.88175 21.3978 4.83584 21.3811 4.78995C21.3301 4.71273 21.3171 4.61121 21.3126 4.51728C21.3079 4.41868 21.1934 4.35644 21.173 4.25997C21.1646 4.23099 21.156 4.20221 21.1477 4.17324C21.1339 4.14581 21.1202 4.11839 21.1064 4.09097C20.9958 4.16215 20.904 4.3123 20.7743 4.30471C20.7647 4.30841 20.7552 4.31229 20.7457 4.31618C19.8699 4.86638 19.0529 5.24389 18.1284 5.63053C17.0471 6.08291 15.0797 6.59966 14.7897 6.57263C14.7679 6.5705 14.7449 6.58275 14.73 6.58138C14.7064 6.57886 14.6946 6.56018 14.6889 6.55922C14.6637 6.55475 14.6384 6.55008 14.6131 6.54522C13.2853 6.29219 11.3591 5.46853 10.1755 4.26447C9.4086 3.48418 9.04082 2.42014 9.03109 1.11551C9.02681 0.530685 9.22344 -0.0529635 9.46928 -0.577691C9.54609 -0.741838 9.63498 -0.911037 9.77014 -1.02637C9.75866 -1.05768 9.74719 -1.089 9.73573 -1.12031C9.72016 -1.1662 9.7048 -1.21211 9.68923 -1.25781C9.35919 -1.13257 9.00502 -0.930885 8.80256 -0.661508C8.64444 -0.45088 8.335 0.127921 8.26227 0.43151C8.24535 0.50172 8.17922 0.722662 8.15666 0.872419C8.14382 0.956237 8.07848 1.20694 8.06447 1.33375C8.06018 1.3742 8.03767 1.62582 8.02639 1.71957Z" fill="white" stroke="#28839F" stroke-width="0.191403"/>
<path d="M8.79995 -0.68588C8.80968 -0.58961 8.84254 -0.444126 8.89096 -0.276489C9.00395 0.114827 9.20195 0.627299 9.38671 0.915521C9.89374 1.70709 10.3761 2.10733 11.2546 2.8355C12.6537 3.99542 14.484 4.42621 16.1315 4.60048C16.1628 4.60378 16.1942 4.6069 16.2255 4.60981C16.2325 4.61059 16.2527 4.59581 16.2774 4.59503C16.2932 4.59445 16.3083 4.60825 16.3307 4.60729C16.6296 4.5929 17.5212 4.53086 18.4913 4.46143C19.3548 4.39977 20.3006 4.30953 20.9255 4.2648C20.9459 4.26343 20.9657 4.26188 20.9852 4.26051C21.3849 4.23153 21.5984 4.21266 21.6326 4.21364C21.6194 4.16716 21.6161 4.12768 21.6184 4.0919C21.6237 4.01897 21.6532 3.96217 21.6715 3.89799C21.6873 3.84276 21.6947 3.78208 21.6713 3.70078C21.62 3.52322 21.6173 3.33806 21.6863 3.16632C21.7386 3.03583 21.5891 2.9061 21.6132 2.76782C21.62 2.72853 21.6235 2.68788 21.6229 2.64762C21.6221 2.60504 21.6165 2.56263 21.6048 2.52238C21.5766 2.52316 21.1845 2.66532 20.9638 2.56147C20.949 2.55447 20.9327 2.55331 20.9127 2.55642C20.3138 2.65191 19.3451 2.65678 18.4823 2.69782C17.5134 2.7441 16.6238 2.78534 16.333 2.79661C16.3111 2.79759 16.2897 2.81275 16.2747 2.81333C16.2512 2.81392 16.237 2.79701 16.2313 2.79661C16.2057 2.79564 16.1802 2.79428 16.1543 2.79291C14.8069 2.71726 12.7704 1.95487 11.5555 1.10827C10.5153 0.38341 9.88909 -0.501116 9.63391 -1.52878C9.58937 -1.70771 9.51217 -2.53117 9.66522 -3.28307C9.73096 -3.60514 9.8387 -3.91399 10.0095 -4.1534C10.0149 -4.17771 9.96434 -4.21019 9.95423 -4.23586C9.9447 -4.26037 9.8916 -4.33291 9.87702 -4.35742C9.46471 -4.0655 9.13311 -3.50673 8.99929 -3.19361C8.89485 -2.94894 8.72934 -2.3085 8.72934 -1.99537C8.72934 -1.92303 8.7165 -1.69179 8.72934 -1.54066C8.73654 -1.45606 8.73128 -1.19622 8.74723 -1.06981C8.75248 -1.02936 8.78905 -0.779622 8.79995 -0.68588Z" fill="white" stroke="#28839F" stroke-width="0.191403"/>
<path d="M37.2191 14.5225C37.2202 14.5838 37.2127 14.6804 37.1983 14.7944C37.1648 15.0607 37.0946 15.4208 37.0166 15.6408C36.8025 16.2445 36.6068 16.6718 36.1385 17.2844C35.3926 18.2604 34.6734 18.5064 33.7733 18.6299C33.756 18.6322 33.7389 18.6343 33.722 18.6365C33.7181 18.6371 33.7092 18.6277 33.6963 18.6276C33.688 18.6274 33.678 18.6361 33.6662 18.6357C33.5088 18.6289 32.143 17.6676 31.5702 16.4263C31.3281 15.9014 30.9945 15.4109 30.8582 14.8438C30.8554 14.8323 30.8527 14.8209 30.85 14.8092C30.8199 14.6837 30.7897 14.5581 30.7598 14.4325C30.7806 14.421 30.8016 14.4095 30.8226 14.398L30.9095 14.3006C30.9422 14.2777 30.9749 14.2549 31.0074 14.2319C31.0976 14.2006 31.1511 14.0942 31.1993 14.0067C31.2402 13.9326 31.3497 13.9319 31.4012 13.8657C31.4185 13.8467 31.436 13.8274 31.4535 13.8082C31.4741 13.7926 31.4948 13.7771 31.5156 13.7615C31.5669 13.8696 31.5694 14.0297 31.6696 14.0859C31.675 14.0933 31.6803 14.1009 31.6855 14.1083C31.9419 14.6343 32.0646 15.2275 32.3231 15.7522C32.812 16.7445 33.78 17.3653 33.9334 17.3702C33.9451 17.3706 33.9544 17.3801 33.9624 17.3803C33.9749 17.3807 33.9846 17.3696 33.9877 17.3694C34.0015 17.3686 34.0153 17.3675 34.0291 17.3665C34.7569 17.308 35.2892 17.0433 35.94 16.2935C36.4972 15.6517 36.659 14.8915 36.7251 14.2022C36.7366 14.0822 36.7799 13.5411 36.6498 13.1168C36.594 12.9351 36.5168 12.7711 36.4114 12.6648C36.4067 12.6511 36.4312 12.6194 36.4349 12.6014C36.4382 12.584 36.4614 12.5271 36.4674 12.5088C36.7033 12.5907 36.9147 12.8548 37.0057 13.015C37.0767 13.1403 37.1489 13.5123 37.1695 13.7041C37.1744 13.7485 37.1963 13.8871 37.1996 13.9826C37.2014 14.0359 37.2214 14.194 37.2212 14.2751C37.2212 14.301 37.2185 14.4626 37.2191 14.5225Z" fill="white" stroke="#28839F" stroke-width="0.191403"/>
<path d="M37.7918 10.886C37.8031 10.9661 37.8079 11.0949 37.8066 11.2476C37.8035 11.6039 37.7667 12.0903 37.6981 12.3937C37.5094 13.2261 37.3176 13.8232 36.796 14.7125C35.9648 16.1292 35.0563 16.5808 33.8906 16.9031C33.8684 16.9093 33.8462 16.9151 33.8241 16.921C33.8192 16.9223 33.806 16.9118 33.7889 16.9136C33.7778 16.9149 33.7663 16.9284 33.7506 16.9297C33.5425 16.9486 31.5966 15.926 30.6514 14.3942C30.4308 14.0367 30.1755 13.6979 29.9458 13.3449C29.7595 13.058 29.5901 12.7616 29.4703 12.438C29.465 12.4232 29.4596 12.4085 29.4541 12.3939C29.3952 12.234 29.3363 12.0739 29.2773 11.9141C29.303 11.8952 29.3289 11.8763 29.3546 11.8575C29.3878 11.8096 29.4209 11.7618 29.4541 11.7139C29.4934 11.678 29.5329 11.642 29.5722 11.606C29.6862 11.549 29.7402 11.3995 29.7902 11.2756C29.8324 11.1707 29.9764 11.1503 30.0339 11.0544C30.054 11.026 30.074 10.9976 30.094 10.9692C30.1187 10.9451 30.1436 10.921 30.1685 10.8969C30.2527 11.0301 30.2807 11.2402 30.4213 11.2964C30.4295 11.3053 30.4377 11.3141 30.4458 11.323C30.6333 11.6128 30.7876 11.9254 30.9387 12.24C31.1248 12.6273 31.3059 13.0178 31.5383 13.3735C32.3347 14.5925 33.7045 15.2375 33.9071 15.2169C33.9225 15.2153 33.9363 15.2262 33.9468 15.225C33.9633 15.2233 33.9742 15.2071 33.9783 15.2061C33.9964 15.2026 34.0143 15.1988 34.0324 15.1949C34.9813 14.9889 35.641 14.5459 36.3818 13.4437C37.016 12.5 37.2006 11.4681 37.1813 10.5493C37.178 10.3895 37.0987 9.66655 36.8618 9.13113C36.7605 8.90183 36.5977 8.70579 36.4425 8.58424C36.4343 8.56732 36.4617 8.52122 36.4637 8.49672C36.4654 8.47338 36.487 8.39442 36.4921 8.36914C36.8153 8.43508 37.0948 8.75151 37.2393 8.94638C37.3521 9.09847 37.5439 9.56914 37.6006 9.81769C37.6137 9.87506 37.664 10.0536 37.6831 10.1787C37.6938 10.2487 37.7444 10.4531 37.7568 10.5599C37.7607 10.5941 37.7821 10.8072 37.7918 10.886Z" fill="white" stroke="#28839F" stroke-width="0.191403"/>
<path d="M38.0613 8.8323C38.0726 8.91651 38.0744 9.04799 38.0674 9.20183C38.0514 9.56104 37.9886 10.0426 37.8921 10.3301C37.6274 11.1193 37.5516 11.7848 37.0053 12.6357C36.1349 13.9911 34.602 14.8865 33.1869 15.0633C33.1601 15.0668 33.133 15.0699 33.1062 15.073C33.1002 15.0736 33.0827 15.061 33.0615 15.0606C33.0479 15.0604 33.035 15.0726 33.0156 15.072C32.7583 15.0637 28.3267 11.4653 27.7852 10.7815C27.6934 10.6655 27.2741 10.0694 27.1562 9.92707C27.1841 9.90392 27.396 10.1031 27.4563 10.1396C27.5126 10.1735 27.7179 10.3279 27.758 10.2707C27.7922 10.2217 27.8175 10.1595 27.8624 10.1033C27.957 9.98851 27.9795 9.97782 28.0698 9.85062C28.1322 9.76018 28.1917 9.65691 28.2837 9.58087C28.3086 9.55986 28.3393 9.53536 28.3691 9.51026C28.4004 9.48401 28.435 9.46028 28.4655 9.44336C28.5737 9.59351 28.6771 9.73023 28.7711 9.84361C29.3256 10.5128 32.7602 13.3135 33.0105 13.3193C33.0294 13.3197 33.0481 13.3329 33.0609 13.3331C33.0813 13.3333 33.0932 13.3181 33.098 13.3177C33.12 13.3164 33.142 13.315 33.1642 13.3133C34.3223 13.2275 35.5462 12.3078 36.3407 11.2659C37.0208 10.374 37.1897 9.23505 37.197 8.30112C37.1984 8.13834 37.1224 7.25595 36.9119 6.79675C36.8641 6.69232 36.8104 6.5836 36.7262 6.51027C36.7359 6.48265 36.7458 6.45505 36.7557 6.42762C36.7692 6.38717 36.7824 6.34691 36.7958 6.30664C37.044 6.40291 37.3221 6.50094 37.4855 6.72304C37.6885 6.99921 37.7959 7.43253 37.8585 7.69937C37.8729 7.76122 37.9299 7.95551 37.9495 8.08718C37.9604 8.16089 38.0166 8.38145 38.0287 8.49289C38.0324 8.52868 38.0518 8.74984 38.0613 8.8323Z" fill="white" stroke="#28839F" stroke-width="0.191403"/>
<path d="M37.9522 5.19801C37.9651 5.2937 37.9668 5.44326 37.959 5.61811C37.9408 6.02673 37.8766 6.54271 37.8128 6.88344C37.6749 7.62132 37.3725 8.55546 36.7513 9.52284C35.7617 11.0641 34.0185 12.0823 32.4095 12.2834C32.3788 12.2873 32.3481 12.291 32.3175 12.2945C32.3107 12.2951 32.2909 12.2809 32.2668 12.2803C32.2512 12.2801 32.2366 12.2935 32.2146 12.2935C30.9995 12.2935 28.3708 10.9877 26.8297 9.66869C25.754 8.74779 24.0806 6.6022 23.8351 6.23656C23.8272 6.2247 23.8192 6.21323 23.8116 6.20176C23.6549 5.96779 23.5732 5.84235 23.5576 5.82269C23.593 5.82463 23.6197 5.82172 23.6412 5.81588C23.6856 5.80382 23.7087 5.7797 23.7416 5.76124C23.7698 5.74528 23.8052 5.73342 23.8674 5.73692C24.003 5.74431 23.8692 5.73303 23.9252 5.65737C23.968 5.59981 24.0543 5.68966 24.1168 5.6457C24.1347 5.63325 24.1549 5.62217 24.1774 5.61362C24.2012 5.60447 24.2276 5.59805 24.2562 5.59553C24.2714 5.61089 24.4612 5.84233 24.6405 5.9388C24.6526 5.94522 24.6609 5.95436 24.6716 5.96544C24.9986 6.30989 26.5206 7.74383 27.5318 8.56944C28.844 9.64088 31.0833 10.3002 32.2088 10.3002C32.2302 10.3002 32.2514 10.3158 32.2662 10.316C32.2891 10.3163 32.3027 10.299 32.3082 10.2986C32.3333 10.2971 32.3584 10.2953 32.3834 10.2936C33.7005 10.196 35.0923 9.15 35.9957 7.96538C36.769 6.95113 36.9609 5.65603 36.9695 4.59393C36.9708 4.40917 36.9553 3.57676 36.6453 2.88341C36.6229 2.83381 36.6056 2.79064 36.6118 2.74824L36.6456 2.6543L36.6911 2.5166C36.8983 2.59713 37.0994 2.53041 37.2974 2.79977C37.4522 3.01021 37.6504 3.60632 37.7215 3.9099C37.7379 3.98011 37.8026 4.20125 37.8248 4.35101C37.8373 4.43463 37.9012 4.68553 37.9149 4.81234C37.9193 4.85279 37.9411 5.10427 37.9522 5.19801Z" fill="white" stroke="#28839F" stroke-width="0.191403"/>
<path d="M37.724 1.71957C37.7368 1.81525 37.7385 1.96481 37.7308 2.13966C37.7125 2.54829 37.6413 3.09577 37.5316 3.4227C37.2306 4.32026 36.885 5.09256 36.1179 5.931C34.8959 7.26654 33.0932 7.94491 31.5146 8.33545C31.4846 8.34283 31.4545 8.35003 31.4245 8.35723C31.4177 8.35878 31.3965 8.34674 31.3724 8.34927C31.357 8.35082 31.344 8.36657 31.322 8.36832C31.0303 8.3936 28.6 7.5682 27.3208 6.98512C26.5164 6.61851 25.7817 6.00588 24.9405 5.43739C24.9306 5.43058 24.9205 5.42378 24.9105 5.41697C24.8016 5.34326 24.6929 5.26955 24.584 5.19584C24.5964 5.16899 24.6091 5.14196 24.6215 5.11513C24.6281 5.06476 24.6349 5.01438 24.6417 4.96402C24.6581 4.91812 24.6744 4.87221 24.6906 4.82632C24.7405 4.7491 24.7532 4.64759 24.7577 4.55365C24.7621 4.45505 24.8741 4.39281 24.8944 4.29635C24.9026 4.26737 24.9107 4.23859 24.9189 4.20961C24.9323 4.18218 24.9459 4.15477 24.9593 4.12734C25.0677 4.19853 25.1575 4.34867 25.2843 4.34108C25.2937 4.34478 25.303 4.34866 25.3121 4.35256C26.1691 4.90276 26.9369 5.24389 27.8411 5.63053C28.8991 6.08291 30.8239 6.59966 31.1075 6.57263C31.1287 6.5705 31.1512 6.58275 31.166 6.58138C31.189 6.57886 31.2006 6.56018 31.2061 6.55922C31.2308 6.55475 31.2555 6.55008 31.2804 6.54522C32.5792 6.29219 34.4636 5.46853 35.6215 4.26447C36.3719 3.48418 36.7317 2.42014 36.7412 1.11551C36.7453 0.530685 36.5529 -0.0529635 36.3123 -0.577691C36.2371 -0.741838 36.1503 -0.911037 36.0181 -1.02637C36.0292 -1.05768 36.0404 -1.089 36.0517 -1.12031C36.0669 -1.1662 36.0821 -1.21211 36.0973 -1.25781C36.4201 -1.13257 36.7665 -0.930885 36.9647 -0.661508C37.1193 -0.45088 37.4221 0.127921 37.4933 0.43151C37.5096 0.50172 37.5744 0.722662 37.5965 0.872419C37.609 0.956237 37.673 1.20694 37.6866 1.33375C37.6911 1.3742 37.7129 1.62582 37.724 1.71957Z" fill="white" stroke="#28839F" stroke-width="0.191403"/>
<path d="M36.9661 -0.68588C36.9567 -0.58961 36.9246 -0.444126 36.8772 -0.276489C36.7667 0.114827 36.573 0.627299 36.3923 0.915521C35.8962 1.70709 35.4242 2.10733 34.5649 2.8355C33.1959 3.99542 31.4055 4.42621 29.7938 4.60048C29.763 4.60378 29.7323 4.6069 29.7018 4.60981C29.6949 4.61059 29.6751 4.59581 29.6512 4.59503C29.6356 4.59445 29.6208 4.60825 29.5989 4.60729C29.3064 4.5929 28.4343 4.53086 27.4854 4.46143C26.6405 4.39977 25.7151 4.30953 25.1037 4.2648C25.0838 4.26343 25.0644 4.26188 25.0455 4.26051C24.6544 4.23153 24.4455 4.21266 24.4119 4.21364C24.4249 4.16716 24.4282 4.12768 24.4259 4.0919C24.4208 4.01897 24.3919 3.96217 24.374 3.89799C24.3586 3.84276 24.3512 3.78208 24.3742 3.70078C24.4243 3.52322 24.4271 3.33806 24.3596 3.16632C24.3084 3.03583 24.4547 2.9061 24.4312 2.76782C24.4243 2.72853 24.4208 2.68788 24.4216 2.64762C24.4224 2.60504 24.4278 2.56263 24.4393 2.52238C24.4667 2.52316 24.8505 2.66532 25.0663 2.56147C25.0807 2.55447 25.0969 2.55331 25.1163 2.55642C25.7021 2.65191 26.6499 2.65678 27.4939 2.69782C28.4419 2.7441 29.3122 2.78534 29.5967 2.79661C29.6179 2.79759 29.6389 2.81275 29.6537 2.81333C29.6769 2.81392 29.6905 2.79701 29.6961 2.79661C29.7212 2.79564 29.7463 2.79428 29.7714 2.79291C31.0896 2.71726 33.082 1.95487 34.2705 1.10827C35.2882 0.38341 35.9007 -0.501116 36.1504 -1.52878C36.1938 -1.70771 36.2694 -2.53117 36.1197 -3.28307C36.0555 -3.60514 35.9501 -3.91399 35.783 -4.1534C35.7776 -4.17771 35.8271 -4.21019 35.8371 -4.23586C35.8464 -4.26037 35.8982 -4.33291 35.9125 -4.35742C36.3159 -4.0655 36.6403 -3.50673 36.7712 -3.19361C36.8733 -2.94894 37.0353 -2.3085 37.0353 -1.99537C37.0353 -1.92303 37.0478 -1.69179 37.0353 -1.54066C37.0283 -1.45606 37.0334 -1.19622 37.0176 -1.06981C37.0127 -1.02936 36.9768 -0.779622 36.9661 -0.68588Z" fill="white" stroke="#28839F" stroke-width="0.191403"/>
<path d="M20.4381 30.3341C20.5944 30.3856 20.6922 30.403 20.8177 30.422C21.5054 30.5264 22.2859 30.6219 22.9631 30.6219C23.5833 30.6219 24.3552 30.5037 24.9661 30.422C25.1233 30.401 25.2703 30.3856 25.4409 30.3341C25.5546 30.2828 25.6021 30.1385 25.6021 30.0406C25.6021 29.6948 25.289 29.349 25.289 29.0032C25.289 28.6117 25.3497 28.2072 25.4 27.8151C25.4055 27.7729 25.4063 27.7268 25.395 27.6862C25.3806 27.6333 25.3559 27.5825 25.3077 27.5479C25.1484 27.5938 24.9453 27.6313 24.7876 27.6506C24.1913 27.7233 23.5808 27.7935 22.9606 27.7935C22.2834 27.7935 21.6176 27.7624 20.9527 27.6397C20.8276 27.6167 20.6854 27.5858 20.5532 27.5479C20.4943 27.592 20.4632 27.6447 20.4472 27.6997C20.4349 27.7423 20.4316 27.7863 20.4316 27.8289C20.4316 28.2204 20.5139 28.6117 20.5139 29.0032C20.5139 29.349 20.248 29.6948 20.248 30.0406C20.248 30.1384 20.3478 30.3096 20.4381 30.3341Z" fill="white" stroke="#28839F" stroke-width="0.191403"/>
<path d="M17.5624 34.5172C17.6559 34.5172 17.7464 34.5071 17.8345 34.4884C18.9119 34.2601 19.6134 32.7468 20.7578 32.7468C20.8243 32.7468 20.8907 32.787 20.9572 32.8452C21.1318 32.998 21.3065 33.2758 21.4811 33.2758H24.315C24.4488 33.2758 24.5828 33.0618 24.7166 32.906C24.7932 32.8168 24.8699 32.7467 24.9465 32.7467C26.0199 32.7467 26.6372 34.3044 27.654 34.4977C27.7212 34.5104 27.7903 34.5172 27.8613 34.5172C27.9834 34.5261 28.0614 34.1576 28.1334 33.8633C28.31 33.1423 28.6709 32.0384 28.6709 31.2031C28.6709 31.0911 28.6349 30.9452 28.5778 30.7814C28.4196 30.3287 28.1001 29.7407 27.9338 29.364C27.8652 29.2082 27.7957 29.0898 27.7318 29.0332C27.6608 29.0332 27.5923 29.0385 27.526 29.0482C26.5232 29.1968 26.0199 30.3934 24.9465 30.3934H20.9572C20.8907 30.3934 20.8243 30.316 20.7578 30.316C19.6134 30.316 19.0226 29.2308 17.9619 29.0554C17.8753 29.041 17.7855 29.0332 17.6921 29.0332C17.6167 29.0727 17.5451 29.1777 17.4788 29.3234C17.3181 29.6762 16.9437 30.1747 16.7347 30.6076C16.6592 30.764 16.6053 30.9118 16.5909 31.0411C16.4989 31.8714 17.0441 33.2293 17.253 33.9401C17.3381 34.2303 17.4428 34.4413 17.5624 34.5172Z" fill="white" stroke="#28839F" stroke-width="0.191403"/>
<path d="M9.80199 -6.22739C9.77651 -6.11693 9.75978 -5.95919 9.74053 -5.78474C9.69579 -5.37866 9.8156 -4.54022 9.93949 -4.21989C10.2911 -3.31183 10.6764 -2.86393 11.4656 -2.05408C12.7228 -0.763654 14.5788 0.333061 16.1292 0.746543C16.159 0.754513 16.1884 0.762106 16.2179 0.769686C16.2245 0.771235 16.2456 0.759763 16.2691 0.762485C16.2843 0.76423 16.2971 0.780181 16.3187 0.782316C16.6055 0.81188 17.4881 0.841251 18.4244 0.843582C19.3854 0.845914 20.1476 0.863611 20.7505 0.887731C20.7699 0.888512 20.7892 0.889278 20.8078 0.890059C21.1935 0.905037 21.3999 0.909699 21.4327 0.914375C21.424 0.866918 21.4242 0.827249 21.4296 0.792047C21.4409 0.719896 21.4744 0.666607 21.4975 0.604758C21.5173 0.551662 21.5298 0.492144 21.5144 0.408715C21.4808 0.226479 21.4944 0.0423012 21.5753 -0.121065C21.6369 -0.245152 21.5049 -0.390625 21.5401 -0.525405C21.5502 -0.56372 21.557 -0.603778 21.5599 -0.643851C21.5629 -0.686255 21.5611 -0.729037 21.5535 -0.770465C21.5265 -0.772796 21.1383 -0.674393 20.9356 -0.80197C20.9222 -0.810526 20.9066 -0.811307 20.8872 -0.812467C20.2884 -0.848841 19.4108 -0.85078 18.5808 -0.910103C17.6482 -0.976809 16.8197 -0.979335 16.541 -1.01046C16.52 -1.01299 16.4976 -1.00093 16.4832 -1.00269C16.4607 -1.00541 16.4494 -1.02428 16.444 -1.02544C16.4196 -1.0303 16.3953 -1.03536 16.371 -1.04042C15.0946 -1.3125 12.9325 -2.51385 11.9583 -3.61485C11.1241 -4.55733 10.8783 -5.47259 10.9401 -6.53236C10.9508 -6.71693 11.1718 -7.57151 11.6158 -8.17928C11.8058 -8.4395 12.0269 -8.669 12.2735 -8.80787C12.2885 -8.82712 12.2582 -8.87905 12.2601 -8.90686C12.2621 -8.93311 12.2465 -9.02219 12.244 -9.05078C11.7333 -8.90666 11.2741 -8.61318 11.029 -8.39166C10.8373 -8.21837 10.4318 -7.70823 10.2742 -7.44101C10.2379 -7.37955 10.1338 -7.17106 10.0749 -7.03219C10.042 -6.95458 9.94437 -6.72101 9.90567 -6.59984C9.89341 -6.56133 9.82377 -6.31724 9.80199 -6.22739Z" fill="white" stroke="#28839F" stroke-width="0.191403"/>
<path d="M35.9874 -6.22739C36.0123 -6.11693 36.0286 -5.95919 36.0474 -5.78474C36.0912 -5.37866 35.9739 -4.54022 35.8526 -4.21989C35.5087 -3.31183 35.1318 -2.86393 34.3597 -2.05408C33.1297 -0.763654 31.3142 0.333061 29.7972 0.746543C29.7682 0.754513 29.7394 0.762106 29.7104 0.769686C29.704 0.771235 29.6834 0.759763 29.6605 0.762485C29.6457 0.76423 29.633 0.780181 29.612 0.782316C29.3314 0.81188 28.4679 0.841251 27.5518 0.843582C26.6117 0.845914 25.8662 0.863611 25.2763 0.887731C25.2573 0.888512 25.2386 0.889278 25.2201 0.890059C24.8428 0.905037 24.6411 0.909699 24.609 0.914375C24.6176 0.866918 24.6172 0.827249 24.612 0.792047C24.6009 0.719896 24.5682 0.666607 24.5456 0.604758C24.5262 0.551662 24.5139 0.492144 24.5291 0.408715C24.5618 0.226479 24.5486 0.0423012 24.4694 -0.121065C24.4091 -0.245152 24.5383 -0.390625 24.5038 -0.525405C24.4941 -0.56372 24.4873 -0.603778 24.4846 -0.643851C24.4817 -0.686255 24.4832 -0.729037 24.4908 -0.770465C24.5171 -0.772796 24.8971 -0.674393 25.0951 -0.80197C25.1083 -0.810526 25.1235 -0.811307 25.1425 -0.812467C25.7283 -0.848841 26.587 -0.85078 27.3992 -0.910103C28.3113 -0.976809 29.1217 -0.979335 29.3946 -1.01046C29.415 -1.01299 29.4368 -1.00093 29.451 -1.00269C29.473 -1.00541 29.4841 -1.02428 29.4895 -1.02544C29.5133 -1.0303 29.537 -1.03536 29.5607 -1.04042C30.8095 -1.3125 32.9248 -2.51385 33.8777 -3.61485C34.6938 -4.55733 34.9342 -5.47259 34.8737 -6.53236C34.8632 -6.71693 34.6471 -7.57151 34.2128 -8.17928C34.0269 -8.4395 33.8104 -8.669 33.5693 -8.80787C33.5547 -8.82712 33.5845 -8.87905 33.5825 -8.90686C33.5806 -8.93311 33.5959 -9.02219 33.5983 -9.05078C34.0979 -8.90666 34.547 -8.61318 34.787 -8.39166C34.9745 -8.21837 35.3712 -7.70823 35.5255 -7.44101C35.5608 -7.37955 35.6627 -7.17106 35.7203 -7.03219C35.7524 -6.95458 35.8479 -6.72101 35.8858 -6.59984C35.8979 -6.56133 35.966 -6.31724 35.9874 -6.22739Z" fill="white" stroke="#28839F" stroke-width="0.191403"/>
<path d="M25.1788 -11.4102C25.0185 -11.5122 25.0447 -11.9495 25.0447 -12.0161C25.0447 -12.1862 24.9314 -12.3562 24.8688 -12.5264C24.8448 -12.5915 24.8283 -12.6565 24.8283 -12.7214C24.8283 -12.9877 24.91 -13.2539 24.91 -13.5199C24.91 -13.5525 24.8978 -13.5909 24.8784 -13.6265C24.8582 -13.6641 24.8301 -13.6984 24.8 -13.7197H21.572C21.5351 -13.6925 21.5059 -13.6546 21.4861 -13.6151C21.4672 -13.5775 21.4571 -13.5387 21.4571 -13.5062C21.4571 -13.2399 21.5306 -12.9877 21.5306 -12.7214C21.5306 -12.6565 21.5163 -12.5915 21.4961 -12.5264C21.4431 -12.3561 21.3533 -11.8672 21.3189 -11.8672C21.2786 -11.8672 21.0733 -11.5257 20.8921 -11.4102C20.4073 -11.1013 19.5171 -10.9809 19.5171 -10.4471V-8.93684C19.5171 -8.25037 20.6806 -8.10863 20.987 -7.49421C21.1791 -7.10913 21.4285 -6.71823 21.4806 -6.29445C21.4857 -6.25374 21.489 -6.21255 21.49 -6.17112C21.4902 -6.16258 21.5011 -6.15604 21.5028 -6.14761C21.4789 -6.13123 21.4521 -6.12245 21.4306 -6.09384C21.3904 -6.04053 21.3454 -5.97002 21.2622 -5.8975C21.1311 -5.78331 20.8252 -5.6316 20.8252 -5.53984C20.8252 -5.3321 20.8472 -5.15522 20.8472 -4.94737V-4.16344C20.8472 -4.13494 20.9882 -4.06065 21.0123 -3.99132C21.0813 -3.79345 21.0897 -3.4829 21.0897 -3.2849C21.0897 -3.10696 21.0592 -2.81127 20.9871 -2.63321C20.9502 -2.54133 20.8472 -2.4853 20.8472 -2.44293V-1.69982C20.8472 -1.40032 20.8252 -1.13834 20.8252 -0.815465C20.8252 -0.787452 20.9545 -0.735343 20.9703 -0.667088C21.0214 -0.443801 21.0334 -0.0428085 21.0334 0.180231C21.0334 0.4034 21.0266 0.536344 20.9907 0.697079C20.9623 0.823498 20.8472 0.858518 20.8472 0.893655V1.86727C20.8472 2.13744 20.8252 2.25699 20.8252 2.54936C20.8252 2.5667 20.9343 2.58081 20.9804 2.70202C21.0784 2.95878 21.1366 3.23145 21.1366 3.50104C21.1366 3.69571 21.0963 3.91484 20.9722 4.10003C20.9429 4.14394 20.8252 4.21802 20.8252 4.25482C20.8252 4.30052 20.981 4.65795 21.0033 4.79529C21.035 4.98902 20.981 5.3017 20.981 5.49779C20.981 5.59988 21.2296 5.92608 21.3657 5.94507C21.65 5.98496 22.0016 6.17346 22.0913 6.32884C22.1053 6.35318 22.1128 6.37644 22.1128 6.3984C22.1247 6.41525 22.1406 6.41419 22.1571 6.42048C22.1749 6.60886 22.3299 6.77161 22.3299 6.96047V7.16725C22.3253 7.28144 22.3801 7.39291 22.4334 7.49381C22.5831 7.7774 22.7415 8.22195 23.0621 8.22195C23.3996 8.22195 23.5583 7.74036 23.6958 7.43208C23.7512 7.30744 23.7944 7.17129 23.7944 7.03478V6.84034C23.7944 6.69682 23.9141 6.57539 23.9354 6.43342C23.935 6.43259 23.9344 6.43188 23.9339 6.43105C23.955 6.42666 23.9803 6.42334 23.9975 6.3984C23.9975 6.37644 24.0049 6.35317 24.0183 6.32884C24.1052 6.17346 24.4461 5.98494 24.7217 5.94507C24.8534 5.92608 25.0946 5.59987 25.0946 5.49779C25.0946 5.30168 25.042 4.98902 25.0728 4.79529C25.0946 4.65795 25.2455 4.30053 25.2455 4.25482C25.2455 4.21802 25.1315 4.14395 25.1029 4.10003C24.9828 3.91484 24.9436 3.69571 24.9436 3.50104C24.9436 3.23145 25.0002 2.95879 25.095 2.70202C25.1397 2.58083 25.2455 2.5667 25.2455 2.54936C25.2455 2.25699 25.2241 2.13746 25.2241 1.86727V0.893655C25.2241 0.858518 25.1124 0.823498 25.0851 0.697079C25.0502 0.536357 25.0436 0.4034 25.0436 0.180231C25.0436 -0.0428209 25.0553 -0.443801 25.1049 -0.667088C25.12 -0.735343 25.2455 -0.787452 25.2455 -0.815465C25.2455 -1.13834 25.2241 -1.40033 25.2241 -1.69982V-2.44293C25.2241 -2.4853 25.1243 -2.54133 25.0883 -2.63321C25.0189 -2.81127 24.9892 -3.10696 24.9892 -3.2849C24.9892 -3.4829 24.9974 -3.79345 25.0641 -3.99132C25.0876 -4.06065 25.2241 -4.13496 25.2241 -4.16344V-4.94737C25.2241 -5.15522 25.2455 -5.3321 25.2455 -5.53984C25.2455 -5.6316 24.9489 -5.78329 24.8219 -5.8975C24.7412 -5.97002 24.6976 -6.04053 24.6587 -6.09384C24.6335 -6.12851 24.6041 -6.14299 24.5741 -6.15889C24.5745 -6.16328 24.5806 -6.16673 24.5807 -6.17112C24.5819 -6.21255 24.585 -6.25374 24.5901 -6.29445C24.6422 -6.71823 24.8915 -7.10913 25.0837 -7.49421C25.3899 -8.10863 26.5538 -8.25037 26.5538 -8.93684V-10.4471C26.5538 -10.9809 25.6634 -11.1013 25.1788 -11.4102Z" fill="white" stroke="#28839F" stroke-width="0.191403" stroke-linecap="round"/>
<path d="M21.4694 7.66797L20.1378 27.9946C19.9634 29.162 19.5761 34.1294 17.5466 37.4141C15.0099 41.52 13.8019 48.3241 13.3187 50.3368C13.2128 50.7776 13.0665 50.6198 12.9214 50.041C12.6765 49.0641 12.4354 46.8879 12.3995 44.3665C12.0744 40.4466 11.7769 36.6176 11.5 36C10.9765 34.8326 9.50003 33.0029 9.5 31.5C9.49997 30.021 9.46445 29.3874 10.5002 28.5C11.5242 27.6226 14.2396 27.5803 15.5676 27.9119C17.5742 20.725 20.1891 11.3352 21.4694 7.66797Z" fill="#28839F"/>
<path d="M24.7953 7.66797L25.387 27.9978C25.5615 29.1654 25.8008 34.1335 27.8299 37.4187C30.3663 41.5252 31.5741 48.3305 32.0572 50.3435C32.163 50.7843 32.3094 50.6265 32.4544 50.0476C32.6896 49.1091 32.9213 47.0636 32.9711 44.6686C33.3463 40.4581 33.7133 36.1395 34 35.5C34.5234 34.3325 36 33.0032 36 31.5C36 30.0208 35.5355 29.3875 34.5 28.5C33.5301 27.6688 31.3336 27.5894 30.0152 27.8656C28.2736 20.684 26.0725 11.3274 24.7953 7.66797Z" fill="#28839F"/>
</g>
<defs>
<clipPath id="clip0_4051_5848">
<rect width="61" height="48" fill="white"/>
</clipPath>
</defs>
</svg>
