<svg width="61" height="48" viewBox="0 0 61 48" fill="none" xmlns="http://www.w3.org/2000/svg">
<g clip-path="url(#clip0_4071_13075)">
<path d="M39.8058 161.233C39.6222 161.233 39.4739 161.126 39.3305 161.022C39.2116 160.936 39.0992 160.855 38.9914 160.855C38.9728 160.855 38.9546 160.857 38.936 160.862C38.8132 160.894 38.7456 160.946 38.6674 161.008C38.5567 161.094 38.4314 161.192 38.1771 161.192C38.1603 161.192 38.1427 161.192 38.1246 161.191C37.8874 161.179 37.7392 161.079 37.6084 160.991C37.4879 160.909 37.3928 160.845 37.2338 160.845C37.2243 160.845 37.2145 160.845 37.2045 160.846C37.0376 160.854 36.9414 160.91 36.8194 160.982C36.6669 161.071 36.494 161.173 36.171 161.191C36.1486 161.192 36.1266 161.193 36.1047 161.193C35.8033 161.193 35.5441 161.077 35.3153 160.976C35.1232 160.89 34.9416 160.809 34.7608 160.805L34.7459 160.805C34.5611 160.805 34.334 160.88 34.0936 160.96C33.7948 161.059 33.4561 161.171 33.1046 161.171L33.0778 161.171C32.2305 161.157 31.749 160.721 31.6467 159.874C31.5924 159.424 31.7415 158.938 31.8857 158.468C32.0525 157.924 32.2249 157.361 32.096 156.845C31.8236 155.755 31.6672 154.353 31.7067 153.356C31.7337 152.672 31.5211 151.75 31.3336 150.937C31.2434 150.545 31.1581 150.176 31.1 149.843C30.9787 149.148 31.4867 147.931 31.9349 146.856C32.1803 146.268 32.412 145.712 32.4588 145.414C32.5085 145.095 32.5116 144.021 32.4677 142.22C32.3824 141.785 32.3225 140.335 32.2902 139.553C32.2819 139.353 32.2755 139.197 32.2709 139.113C32.2667 139.035 32.2487 138.654 32.2887 138.456L32.2187 137.926C32.0793 136.864 31.9476 135.861 31.8329 135.432C31.8329 135.432 31.6511 134.756 31.5987 134.559C31.541 134.468 31.4894 134.356 31.4414 134.217C31.3429 133.932 31.24 133.537 31.1312 133.119C30.9303 132.348 30.7027 131.474 30.4146 130.916C30.1489 130.402 29.9949 129.725 29.944 128.845C29.8628 128.437 29.794 127.97 29.7395 127.454C29.4781 124.978 29.7667 121.501 30.0662 120.044C30.2168 119.311 30.4525 118.424 30.6604 117.641C30.859 116.893 31.0466 116.187 31.1202 115.764C31.196 115.33 31.2129 115.084 31.2231 114.938C31.2297 114.842 31.2341 114.778 31.2528 114.728C31.2276 114.593 31.2004 114.441 31.1714 114.278C31.1231 114.008 31.0688 113.703 31.0087 113.398C30.881 113.247 30.7953 112.945 30.68 112.54C30.5778 112.18 30.4507 111.733 30.2635 111.299C29.8274 110.288 29.2886 106.95 29.2381 105.362C29.1867 103.748 28.9153 101.16 28.593 99.8802C28.3057 98.739 28.0018 95.9992 28.0309 94.8149C28.0055 94.5582 27.9801 94.3166 27.9546 94.1045C27.9278 93.8805 27.9096 93.5969 27.9005 93.261C27.843 93.1308 27.7546 92.9469 27.6279 92.7683C27.4621 92.5346 27.3089 92.2144 27.1726 91.8168C26.9593 91.2717 26.7103 90.225 26.6309 89.5365C26.5015 88.4142 25.6802 83.4649 25.2056 81.8871C24.6641 80.0865 25.0349 76.456 25.0789 76.048C25.0936 75.9119 25.1072 75.7773 25.1205 75.6452C25.159 75.2614 25.1956 74.8978 25.253 74.5741C25.0991 74.3351 24.9719 74.0836 24.8659 73.8085C24.6216 73.7412 24.3776 73.7228 24.276 73.7228H24.1137C24.0122 73.7228 23.7683 73.7412 23.5239 73.8085C23.4179 74.0836 23.2907 74.3352 23.1367 74.5741C23.1943 74.8983 23.2308 75.2624 23.2694 75.6467C23.2827 75.7784 23.2961 75.9125 23.3108 76.048C23.3549 76.456 23.7259 80.0861 23.1841 81.8871C22.7095 83.4651 21.8882 88.4143 21.7588 89.5366C21.6795 90.2249 21.4306 91.2716 21.2153 91.8221C21.0808 92.2146 20.9276 92.5348 20.7619 92.7683C20.6347 92.9475 20.5465 93.1312 20.4892 93.261C20.4802 93.5964 20.462 93.8801 20.4351 94.1045C20.4097 94.3166 20.3842 94.5583 20.3589 94.8148C20.388 95.9991 20.0841 98.739 19.7968 99.8802C19.4746 101.16 19.2031 103.748 19.1517 105.362C19.1011 106.95 18.5623 110.288 18.1263 111.299C17.939 111.733 17.8119 112.18 17.7097 112.54C17.5945 112.945 17.5088 113.247 17.381 113.398C17.3209 113.703 17.2665 114.008 17.2184 114.278C17.1892 114.441 17.1621 114.593 17.1369 114.728C17.1556 114.778 17.16 114.842 17.1667 114.938C17.1768 115.084 17.1938 115.33 17.2695 115.764C17.3431 116.187 17.5307 116.893 17.7294 117.641C17.9373 118.424 18.173 119.311 18.3236 120.044C18.6231 121.501 18.9117 124.978 18.6502 127.454C18.5956 127.971 18.5266 128.443 18.4452 128.857C18.3934 129.731 18.2397 130.405 17.9752 130.916C17.687 131.474 17.4594 132.348 17.2586 133.119C17.1497 133.537 17.0469 133.932 16.9483 134.217C16.9004 134.356 16.8488 134.468 16.7911 134.559C16.7388 134.755 16.5569 135.432 16.5569 135.432C16.4421 135.861 16.3104 136.865 16.171 137.926L16.1011 138.456C16.1411 138.654 16.1231 139.035 16.1188 139.113C16.1142 139.197 16.1078 139.354 16.0995 139.553C16.0672 140.336 16.0073 141.785 15.9221 142.22C15.8782 144.021 15.8812 145.096 15.931 145.414C15.9777 145.712 16.2095 146.268 16.4549 146.856C16.9031 147.93 17.4111 149.148 17.2897 149.843C17.2317 150.175 17.1464 150.545 17.0561 150.937C16.8686 151.75 16.656 152.672 16.6831 153.356C16.7226 154.353 16.5661 155.755 16.2938 156.845C16.1648 157.361 16.3373 157.924 16.5041 158.468C16.6483 158.938 16.7974 159.424 16.7431 159.874C16.6407 160.721 16.1592 161.157 15.3119 161.171L15.2852 161.171C14.9337 161.171 14.595 161.059 14.2961 160.96C14.0557 160.88 13.8286 160.805 13.6439 160.805L13.629 160.805C13.4481 160.809 13.2665 160.89 13.0744 160.976C12.8457 161.077 12.5865 161.193 12.285 161.193C12.2631 161.193 12.241 161.192 12.2187 161.191C11.8957 161.173 11.7229 161.071 11.5703 160.982C11.4485 160.91 11.3522 160.854 11.1852 160.846C11.1752 160.845 11.1655 160.845 11.1559 160.845C10.997 160.845 10.9018 160.909 10.7814 160.991C10.6506 161.079 10.5023 161.179 10.2652 161.191C10.247 161.192 10.2295 161.192 10.2128 161.192C9.95833 161.192 9.83294 161.094 9.72231 161.008C9.6441 160.946 9.57652 160.894 9.4538 160.862C9.43513 160.857 9.41699 160.855 9.39832 160.855C9.29054 160.855 9.17817 160.936 9.05924 161.022C8.91584 161.126 8.76753 161.233 8.58394 161.233C8.56999 161.233 8.55589 161.232 8.5418 161.231C8.31004 161.209 8.18963 161.112 8.08345 161.026C8.01847 160.974 7.96239 160.929 7.87952 160.899C7.86909 160.895 7.85753 160.893 7.84437 160.893C7.77008 160.893 7.66065 160.95 7.54483 161.01C7.37214 161.1 7.15718 161.211 6.91138 161.211C6.38339 161.211 6.11315 160.949 5.94743 160.275C5.78099 159.599 5.92731 158.5 6.46028 157.834C6.59789 157.661 6.8169 157.399 7.07053 157.095C7.71866 156.318 8.60639 155.254 8.9888 154.677C9.5223 153.871 9.73866 152.429 9.42549 151.765C9.02528 150.917 8.94122 150.125 9.17578 149.411L9.25459 149.174C9.47392 148.514 9.70078 147.832 9.79878 147.002C9.87938 146.321 9.84311 144.668 9.7752 143.415C9.71161 143.134 9.65984 142.838 9.62144 142.534C9.45765 141.236 8.67855 135.331 8.13143 132.227C7.95487 131.779 7.80678 131.216 7.67593 130.719C7.6158 130.49 7.55891 130.275 7.50476 130.09C7.19378 129.032 6.54932 125.385 6.36446 124.042C6.17057 122.632 6.31263 119.955 6.40452 119.076C6.47762 118.377 6.67317 116.983 7.16117 115.496C7.52397 114.39 7.53911 113.552 7.55022 112.94C7.55261 112.807 7.55487 112.683 7.56018 112.568C7.57027 112.352 7.62337 112.13 7.72238 111.892C7.7059 111.471 7.69315 110.915 7.6863 110.321C7.61102 109.524 7.59094 107.342 7.64643 105.926C7.68716 104.887 8.03481 103.414 8.31408 102.231C8.43249 101.729 8.53489 101.296 8.59974 100.958C8.62638 100.609 8.60319 100.139 8.53084 99.5616L8.52971 99.5588C7.55752 97.1642 6.57117 94.6566 6.1293 92.6355C5.90742 91.6207 5.86471 89.8425 5.82338 88.1228C5.80577 87.3907 5.78756 86.6337 5.75566 85.9578C5.36675 83.0803 5.01278 79.7508 4.98388 78.699C4.96108 77.8741 5.10348 76.1385 5.32236 74.5723L5.33711 74.298C5.41785 72.8382 5.5399 70.6321 5.83574 69.3932C6.23389 67.7257 6.98853 63.2896 6.95783 61.8765C6.92667 60.4401 7.66031 57.3672 8.20192 55.7011C8.31382 55.2283 8.51276 54.4894 8.68824 53.8376C8.75562 53.5873 8.81889 53.3522 8.87137 53.154C8.63064 52.6931 8.825 47.5946 8.99683 47.0394C9.04214 46.62 9.09112 46.2308 9.14261 45.8801C9.10774 45.831 9.11584 45.7913 9.22548 45.3635C9.30329 44.9113 9.38747 44.5361 9.47346 44.2592C9.51732 44.1015 9.57294 43.9394 9.63188 43.7678C9.7639 43.3834 9.90033 42.9859 9.92645 42.5587C9.86319 41.8908 9.86438 41.1199 9.9291 40.714C9.93182 40.2296 9.93209 39.6067 9.91116 39.0478C9.83441 38.8439 9.75382 38.6428 9.66584 38.4232C9.56624 38.1747 9.45727 37.9027 9.33381 37.577C8.8946 36.4184 8.34255 34.3709 7.80865 32.3908C7.52505 31.339 7.25714 30.3455 7.01793 29.5286C6.94397 29.2763 6.87235 29.012 6.80344 28.7377C6.78604 28.9044 6.76557 29.0851 6.74218 29.2794C6.66775 29.8982 6.28057 31.1301 5.83211 32.5564C5.06544 34.995 4.11133 38.0301 4.18708 39.6397C4.28031 41.6231 3.63244 43.1924 3.2432 43.6389C3.14911 44.0561 3.07282 44.3523 3.01037 44.543C2.99164 44.6635 2.97329 44.7845 2.95489 44.9058C2.89282 45.3152 2.82858 45.7387 2.74996 46.1418C2.66159 46.7563 2.47865 47.4635 2.19173 48.2972C1.90329 49.1358 1.05343 51.2054 -0.0818882 53.8342C-0.232397 54.3215 -0.399576 54.8559 -0.576389 55.4211C-1.71702 59.0677 -3.27926 64.0619 -3.31854 65.8349C-3.32983 66.343 -3.04524 67.1206 -2.57519 68.3406C-2.05365 69.6945 -2.14389 72.3533 -3.33847 74.614C-3.84666 75.5759 -4.29677 77.0464 -4.732 78.4685C-5.1548 79.8498 -5.55408 81.1544 -5.94845 81.7412C-6.18328 82.0906 -6.42641 82.2678 -6.67093 82.2678C-6.92098 82.2678 -7.10902 82.0863 -7.23613 81.9C-7.43381 82.9118 -7.89196 84.7257 -8.65392 84.8643C-8.70848 84.8743 -8.76216 84.8793 -8.81347 84.8793C-9.18862 84.8793 -9.4618 84.6199 -9.5992 84.1506C-9.83643 84.9595 -10.271 86.0442 -10.8956 86.0442L-10.9158 86.0438C-11.7951 86.0117 -11.821 84.8567 -11.781 83.5553C-11.8506 83.5941 -11.9295 83.6143 -12.0156 83.6143C-12.5914 83.6143 -13.2834 82.7492 -13.4127 81.8676C-13.7325 79.6859 -13.5206 77.0722 -13.3659 75.1638C-13.2898 74.226 -13.2115 73.2592 -13.2759 72.9858C-13.3945 73.0954 -13.5456 73.2913 -13.7184 73.5151C-14.0429 73.9354 -14.4466 74.4584 -14.9202 74.7843C-15.3044 75.0489 -15.7624 75.1886 -16.2446 75.1886C-17.0014 75.1886 -17.6675 74.8467 -17.8284 74.3757C-17.8892 74.1977 -17.924 73.847 -17.4743 73.4988C-16.3022 72.5911 -14.0557 69.3122 -13.2571 67.3438C-12.7246 66.0312 -11.7437 65.5961 -10.9556 65.2465C-10.4851 65.0378 -10.0787 64.8576 -9.87848 64.5411C-9.48525 63.9198 -8.91931 61.2541 -8.19637 56.6181C-8.09304 55.4815 -8.00845 54.7415 -7.93118 54.2978C-7.88533 54.0349 -7.83762 53.741 -7.78892 53.4292C-7.75444 50.4004 -7.69942 47.0309 -7.48446 45.3532C-7.07142 42.1287 -5.71961 38.2108 -4.53254 36.7978C-4.36296 36.596 -4.2116 36.4124 -4.07632 36.2483C-3.66495 35.7495 -3.41058 35.4411 -3.21855 35.3102C-3.04838 35.0822 -2.90293 34.6543 -2.78598 34.0374C-2.95144 31.5668 -2.68431 28.9066 -2.07074 26.9142C-1.98382 26.0873 -1.91386 25.4362 -1.87067 25.1935C-1.72901 24.3974 -1.8809 23.6295 -2.0029 23.0123C-2.06071 22.7199 -2.11068 22.4673 -2.11619 22.2676C-2.12981 21.7781 -2.21719 21.1318 -2.34955 20.1536C-2.41167 19.694 -2.48344 19.1637 -2.56145 18.5459C-2.83096 16.4111 -2.43281 13.8499 -1.49636 11.6947C-0.393791 9.15706 0.843849 7.79547 2.77547 6.99492C3.2713 6.78946 4.18036 6.68201 4.82205 6.68201C4.86337 6.68201 4.90404 6.6824 4.94405 6.68327C6.50323 5.86151 7.89915 5.56942 8.62396 5.56942C8.73658 5.56942 8.83832 5.5762 8.92669 5.58956C8.96841 5.5875 9.01241 5.5865 9.05858 5.5865C9.14935 5.5865 9.24876 5.59035 9.34564 5.59554C9.37607 5.27837 9.78931 5.04326 10.2826 4.79645C10.9683 4.45343 11.6835 4.13971 12.4083 3.86398C13.2461 3.54529 14.0884 3.28212 15.0953 2.98503C15.2184 2.94866 15.3425 2.91422 15.4666 2.87979C16.1926 2.67818 16.8782 2.48776 17.3795 1.94101C17.5228 1.7847 17.6432 1.61168 17.7706 1.4285C17.8311 1.34152 17.8917 1.25462 17.9545 1.16978C18.1485 0.90807 18.3491 0.63752 18.4575 0.332928C18.509 0.188108 18.4963 0.0239525 18.4827 -0.14979C18.477 -0.2244 18.4712 -0.298792 18.4702 -0.372272C18.4668 -0.606857 18.467 -0.854597 18.4708 -1.1298C18.478 -1.64896 18.494 -2.26154 18.5574 -2.87272C18.5449 -3.04499 18.5321 -3.13263 18.5235 -3.17599C18.5074 -3.25618 18.4942 -3.33763 18.4805 -3.42154C18.4179 -3.80552 18.347 -4.24077 17.9353 -4.85481C17.5836 -5.37936 17.4863 -6.5976 17.4666 -7.52728C17.4628 -7.70693 17.3163 -7.85315 17.1401 -7.85315C17.1171 -7.85315 17.0939 -7.85062 17.071 -7.84563C16.9662 -7.82276 16.8565 -7.81066 16.7537 -7.81066C16.4768 -7.81066 16.248 -7.89471 16.0921 -8.05381C15.9313 -8.21785 15.8526 -8.45362 15.8583 -8.75463C15.8784 -9.80644 15.6645 -10.4167 15.4759 -10.9551C15.3807 -11.2266 15.2909 -11.4831 15.2368 -11.7717C15.1407 -12.2846 15.0823 -12.9741 15.3492 -13.3469C15.4542 -13.4934 15.5982 -13.5807 15.7774 -13.6063C15.8212 -13.6127 15.8664 -13.6158 15.9116 -13.6158C16.0601 -13.6158 16.2154 -13.5819 16.3732 -13.5148C16.3948 -13.5057 16.417 -13.5011 16.4394 -13.5011C16.4873 -13.5011 16.5349 -13.5226 16.5697 -13.5601C16.6053 -13.5985 16.6228 -13.6485 16.6188 -13.7007C16.5033 -15.2397 16.3978 -19.0286 17.9106 -20.9696C19.7094 -23.2776 22.4761 -23.7452 23.5822 -23.8391C23.7251 -23.8512 23.8977 -23.8643 24.136 -23.8643C24.3148 -23.8643 24.5086 -23.8566 24.7122 -23.8414C25.8385 -23.7577 28.6551 -23.3102 30.4793 -20.9696C31.9921 -19.0283 31.8865 -15.2396 31.7709 -13.7007C31.767 -13.6485 31.7845 -13.5985 31.8202 -13.5601C31.855 -13.5225 31.9024 -13.5011 31.9505 -13.5011C31.9728 -13.5011 31.995 -13.5057 32.0166 -13.5148C32.1744 -13.5819 32.3297 -13.6158 32.4782 -13.6158C32.5234 -13.6158 32.5686 -13.6127 32.6125 -13.6063C32.7916 -13.5807 32.9356 -13.4934 33.0406 -13.3469C33.3075 -12.9741 33.249 -12.2846 33.1529 -11.7717C33.0989 -11.4831 33.009 -11.2266 32.9139 -10.9551C32.7252 -10.4167 32.5114 -9.80645 32.5315 -8.75463C32.5372 -8.45363 32.4585 -8.21785 32.2977 -8.05375C32.1418 -7.8947 31.913 -7.81065 31.6362 -7.81065C31.5333 -7.81065 31.4235 -7.82276 31.3187 -7.84562C31.2959 -7.8506 31.2727 -7.85314 31.2497 -7.85314C31.0736 -7.85314 30.927 -7.70693 30.9233 -7.52719C30.9035 -6.59739 30.806 -5.37901 30.4545 -4.8548C30.0428 -4.24075 29.9719 -3.8055 29.9093 -3.42152C29.8957 -3.33761 29.8824 -3.25616 29.8664 -3.17598C29.8577 -3.13262 29.8449 -3.04499 29.8324 -2.87271C29.9171 -2.05786 29.925 -1.25611 29.9216 -0.578709C29.9211 -0.483294 29.9159 -0.386417 29.9107 -0.289408C29.9034 -0.152037 29.8965 -0.0221844 29.9025 0.105015C29.9177 0.4249 30.1492 0.760075 30.3534 1.05583C30.3825 1.09799 30.4109 1.13914 30.4379 1.17911C30.7 1.56721 30.9711 1.96849 31.3392 2.25652C31.6396 2.49157 31.9978 2.59835 32.3769 2.71145L32.7073 2.81145C34.5084 3.36027 36.3708 3.9277 38.1072 4.79646L38.2133 4.84872C38.4365 4.95743 38.6895 5.08071 38.8652 5.26455C38.9588 5.36249 39.0183 5.47952 39.0372 5.59694C39.2097 5.58903 39.3691 5.58517 39.521 5.58517C40.1146 5.58517 40.624 5.64502 41.1239 5.77354C41.8959 5.97194 42.6768 6.27794 43.4457 6.68327C43.4857 6.68242 43.5264 6.68201 43.5677 6.68201C44.2094 6.68201 45.1185 6.78946 45.6142 6.99492C47.5459 7.7954 48.7836 9.15706 49.8862 11.6947C50.8226 13.8498 51.2207 16.4109 50.9513 18.5459C50.8732 19.1639 50.8014 19.6945 50.7393 20.1542C50.607 21.1321 50.5196 21.7781 50.506 22.2676C50.5004 22.4673 50.4505 22.7199 50.3927 23.0123C50.2707 23.6294 50.1188 24.3974 50.2604 25.1935C50.3037 25.4361 50.3736 26.0869 50.4604 26.9134C51.0815 28.9285 51.347 31.6164 51.1715 34.1112C51.2846 34.6931 51.4286 35.0944 51.6 35.3049C51.7934 35.4326 52.0506 35.7444 52.4674 36.2499C52.6023 36.4135 52.7533 36.5965 52.9224 36.7978C54.1094 38.2109 55.4612 42.1288 55.8743 45.3531C56.0893 47.031 56.1443 50.4003 56.1788 53.4292C56.2274 53.741 56.2751 54.0349 56.3209 54.2977C56.3973 54.7362 56.4844 55.4981 56.5872 56.6267C57.3091 61.2541 57.8751 63.9198 58.2683 64.5411C58.4686 64.8576 58.8749 65.0378 59.3454 65.2465C60.1335 65.5961 61.1144 66.0311 61.6469 67.3437C62.4454 69.3122 64.692 72.591 65.8641 73.4988C66.3139 73.847 66.279 74.1977 66.2182 74.3757C66.0574 74.8467 65.3913 75.1886 64.6344 75.1886C64.1522 75.1886 63.6942 75.0488 63.3099 74.7843C62.8365 74.4584 62.4327 73.9354 62.1083 73.5153C61.9356 73.2914 61.7843 73.0955 61.6657 72.9858C61.6014 73.2593 61.6797 74.2259 61.7557 75.1633C61.9104 77.0719 62.1223 79.6858 61.8025 81.8675C61.6733 82.7491 60.9812 83.6142 60.4053 83.6142C60.3198 83.6142 60.2412 83.5942 60.1719 83.5558C60.2106 84.857 60.1834 86.0116 59.3056 86.0438L59.2854 86.0441C58.6608 86.0441 58.2262 84.9594 57.989 84.1504C57.8516 84.6197 57.5784 84.8792 57.2033 84.8792C57.152 84.8792 57.0983 84.8742 57.0437 84.8643C56.282 84.7256 55.8237 82.9118 55.626 81.9C55.4988 82.0862 55.3107 82.2677 55.0607 82.2677C54.8162 82.2677 54.5731 82.0905 54.3383 81.7411C53.9439 81.1543 53.5446 79.8497 53.1218 78.4685C52.6865 77.0463 52.2365 75.5758 51.7282 74.6139C50.5337 72.353 50.4434 69.6943 50.965 68.3405C51.4351 67.1204 51.7197 66.3428 51.7084 65.8348C51.6692 64.062 50.1072 59.0685 48.9666 55.4224C48.7897 54.8568 48.6223 54.3219 48.4717 53.8342C47.3364 51.2052 46.4865 49.1355 46.1981 48.2971C45.9111 47.4632 45.7282 46.756 45.6387 46.1349C45.5613 45.7387 45.4971 45.3155 45.435 44.9063C45.4166 44.7849 45.3982 44.6636 45.3795 44.543C45.317 44.3524 45.2407 44.0562 45.1466 43.6388C44.7574 43.1924 44.1095 41.623 44.2028 39.6396C44.2785 38.0299 43.3243 34.9948 42.5576 32.556C42.1092 31.1298 41.722 29.8981 41.6476 29.2794C41.6242 29.0851 41.6038 28.9043 41.5863 28.7377C41.5175 29.0119 41.4459 29.2762 41.3719 29.5286C41.1326 30.3454 40.8648 31.339 40.5811 32.3909C40.0472 34.3709 39.4952 36.4183 39.056 37.5769C38.9326 37.9024 38.8237 38.1743 38.7242 38.4228C38.6361 38.6424 38.5555 38.8437 38.4787 39.0478C38.4577 39.6079 38.4579 40.2302 38.4607 40.7139C38.5254 41.1198 38.5266 41.8907 38.4634 42.5587C38.4896 42.9858 38.626 43.3832 38.7579 43.7677C38.8168 43.9392 38.8724 44.1013 38.9174 44.2628C39.0022 44.5357 39.0865 44.9109 39.1666 45.374C39.2715 45.7824 39.2816 45.8289 39.2498 45.8764C39.3245 46.2579 39.5491 47.1694 39.663 47.6313C39.6979 47.7732 39.724 47.8793 39.7351 47.9261C39.8285 48.3227 39.8155 52.6878 39.5206 53.162C39.5728 53.3594 39.6356 53.5926 39.7024 53.8408C39.8776 54.4915 40.0761 55.229 40.1907 55.7117C40.7294 57.3669 41.4631 60.4398 41.432 61.8764C41.4012 63.2895 42.1559 67.7256 42.5541 69.3932C42.8501 70.6329 42.9722 72.8402 43.0528 74.3009L43.0686 74.5836C43.2827 76.1129 43.4283 77.8869 43.4059 78.6989C43.377 79.7508 43.0231 83.0805 42.6331 85.9697C42.6022 86.6337 42.584 87.3906 42.5664 88.1227C42.5251 89.8424 42.4824 91.6206 42.2604 92.6354C41.8187 94.6566 40.8323 97.1641 39.8599 99.5593L39.8592 99.5591C39.7866 100.138 39.7634 100.608 39.79 100.958C39.8549 101.295 39.9572 101.729 40.0756 102.23C40.3549 103.414 40.7027 104.887 40.7433 105.926C40.7989 107.342 40.7788 109.524 40.7028 110.332C40.6967 110.913 40.6839 111.469 40.6674 111.892C40.7664 112.13 40.8195 112.352 40.8296 112.568C40.8349 112.683 40.8372 112.807 40.8396 112.94C40.8507 113.552 40.8659 114.39 41.2286 115.496C41.7167 116.983 41.9122 118.377 41.9853 119.076C42.0772 119.955 42.2192 122.632 42.0253 124.042C41.8406 125.384 41.1961 129.032 40.885 130.09C40.831 130.274 40.7742 130.49 40.7141 130.718C40.5832 131.215 40.435 131.778 40.2584 132.227C39.7113 135.331 38.9322 141.236 38.7684 142.534C38.73 142.837 38.6783 143.134 38.6146 143.415C38.5466 144.667 38.5104 146.32 38.591 147.002C38.689 147.831 38.9158 148.513 39.135 149.173L39.214 149.411C39.4485 150.125 39.3645 150.917 38.9643 151.765C38.6512 152.429 38.8675 153.871 39.401 154.677C39.7836 155.255 40.6716 156.319 41.3201 157.096C41.5733 157.399 41.7921 157.662 41.9295 157.834C42.4625 158.5 42.6088 159.599 42.4423 160.275C42.2767 160.949 42.0064 161.211 41.4784 161.211C41.2326 161.211 41.0177 161.1 40.8449 161.01C40.7291 160.95 40.6197 160.893 40.5454 160.893C40.5322 160.893 40.5207 160.895 40.5102 160.899C40.4274 160.929 40.3713 160.974 40.3063 161.026C40.2001 161.112 40.0798 161.209 39.8479 161.231C39.8338 161.232 39.8198 161.233 39.8058 161.233Z" fill="white" stroke="#28839F" stroke-width="0.7"/>
<path d="M22.151 -5.54055C20.0058 4.24868 17.1143 1.53086 10.3434 4.91855C9.38994 5.39557 9.17694 5.64932 9.9478 6.21769C10.7187 6.78606 13.0515 8.37954 13.7615 10.6124C14.4715 12.8453 14.7352 16.6616 15.6684 19.0974C16.6015 21.5333 18.6504 24.8218 19.6241 26.5269C20.5978 28.232 22.1193 31.7844 22.383 32.9414C22.6467 34.0985 23.5393 35.4382 23.6001 34.0376C23.661 32.6369 23.1539 27.1765 23.0321 23.9286C22.9104 20.6808 23.1133 14.9361 23.1539 13.0483C23.1944 11.1605 23.0727 8.52164 23.235 7.2225C23.3973 5.92335 23.093 -1.14073 23.0321 -2.56167C22.9713 -3.98259 23.2756 -5.24114 23.1133 -5.93131C22.951 -6.62147 22.3786 -6.5794 22.151 -5.54055Z" fill="#28839F" fill-opacity="0.2"/>
<path d="M19.8473 -3.88084C19.5415 -2.79137 18.9104 0.234803 18.2815 0.945271C18.1655 1.07631 17.5593 1.55778 17.6831 1.5644C18.9871 1.63401 20.2261 -1.1471 20.2328 -1.16075C20.9428 -2.61214 20.9529 -3.47485 20.8616 -4.61161C20.7703 -5.74835 20.3545 -5.68746 19.8473 -3.88084Z" fill="#28839F" fill-opacity="0.2"/>
<path d="M2.82764 7.12147C0.819358 7.95373 -0.357224 9.41527 -1.37151 11.7497C-2.3858 14.0841 -2.66981 16.6011 -2.42638 18.5295C-2.18294 20.458 -2.00037 21.5338 -1.98009 22.2646C-1.9598 22.9954 -1.47294 22.0819 -0.357224 21.0466C0.758501 20.0114 3.39566 17.6161 3.98394 16.1749C4.57223 14.7336 4.24765 13.2518 5.36338 12.2774C6.47909 11.3031 7.63538 10.0039 8.77139 9.51676C9.90739 9.02959 9.50167 8.29882 8.52795 8.17702C7.55424 8.05523 6.15451 7.01998 5.52566 6.87788C4.8968 6.73578 3.45767 6.86038 2.82764 7.12147Z" fill="#28839F" fill-opacity="0.2"/>
<path d="M11.1754 9.14058C9.95829 9.35373 7.87899 10.3585 7.2907 11.2314C6.72926 12.0644 5.97211 11.9723 5.8504 12.4392C5.72869 12.9061 6.45898 12.8655 6.90527 13.6977C7.35156 14.53 7.57469 15.89 8.24413 16.702C10.5226 19.4656 11.4949 19.2445 14.2082 20.5182C14.8255 20.808 15.689 21.1272 15.7499 20.7212C15.8107 20.3152 15.5774 19.8179 15.0804 18.9349C14.5834 18.0519 14.2893 15.4841 14.0662 14.3067C13.843 13.1294 13.4677 11.1908 13.0519 10.2672C12.636 9.34358 11.5821 9.06936 11.1754 9.14058Z" fill="#28839F"/>
<path d="M5.05895 14.3581C5.32157 14.8498 5.39366 14.792 5.92616 15.1346C6.45867 15.4771 6.8162 15.9262 6.96074 16.0937C7.10527 16.2612 7.36391 15.8349 7.15852 15.2868C6.95313 14.7387 6.61842 14.1754 6.32174 13.871C6.02505 13.5665 5.90334 13.1935 5.62188 13.125C5.34041 13.0564 4.82312 13.9166 5.05895 14.3581Z" fill="#28839F" fill-opacity="0.2"/>
<path d="M9.11622 18.5088C8.59723 18.0127 7.8788 17.1387 7.08765 16.7631C6.2965 16.3876 5.23149 15.0682 4.91707 15.4234C4.60263 15.7786 4.71421 16.824 5.03878 17.6157C5.36336 18.4073 5.71836 19.5035 5.97193 20.3967C6.2255 21.2898 6.94565 22.051 7.71651 22.2845C8.48737 22.5179 10.3334 22.8325 11.5505 22.7108C12.7677 22.589 13.8428 22.0003 14.3094 21.6958C15.4281 20.9657 11.3882 20.6808 9.11622 18.5088Z" fill="#28839F" fill-opacity="0.2"/>
<path d="M15.5267 21.574C14.5924 21.8233 13.9647 22.6296 11.8956 23.0761C10.5489 23.3668 7.73699 23.0355 7.10813 22.8325C6.47926 22.6296 6.05326 23.4009 6.13441 24.0099C6.21554 24.6189 6.45899 27.136 7.1487 29.4906C7.83841 31.8453 8.79185 35.7631 9.46128 37.5291C10.1307 39.2951 10.3741 39.4778 11.003 42.9286C11.6319 46.3795 13.4779 48.3079 13.9647 49.5867C14.4516 50.8656 16.5816 49.7897 16.3585 47.8004C16.1353 45.8111 16.1962 44.3496 17.251 41.7107C18.3059 39.0718 19.4825 36.5547 20.3345 35.1744C21.1865 33.7941 21.4603 32.3528 21.1256 31.1146C20.7909 29.8763 19.9592 28.0291 19.3607 26.9939C18.7623 25.9586 17.3322 23.7968 16.8656 22.9138C16.399 22.0307 16.3077 21.8683 16.1962 21.7161C16.0846 21.5639 15.831 21.4928 15.5267 21.574Z" fill="#28839F" fill-opacity="0.2"/>
<path d="M12.5853 47.8616C13.0088 48.6082 13.4576 49.3637 13.7416 50.2163C14.0256 51.0688 13.4779 51.7793 12.8693 52.0838C12.2607 52.3883 10.9117 52.4086 9.98872 52.6928C9.0657 52.9769 8.70056 53.3829 8.46727 53.322C8.23398 53.2611 8.66488 52.2393 8.93385 51.6981C9.88728 49.7798 11.286 47.462 11.6522 47.2526C11.8652 47.1308 12.1593 47.1105 12.5853 47.8616Z" fill="#28839F" fill-opacity="0.2"/>
<path d="M10.7863 45.0501C9.89571 45.432 8.96246 47.2157 8.78749 47.9579C8.66373 48.4829 8.60535 49.3596 8.60241 50.0741C8.60045 50.5456 8.50651 50.9964 8.62583 51.0104C9.21159 51.0789 9.40177 49.7848 10.5403 48.1508C10.8735 47.6727 11.2566 46.8364 11.4088 46.542C11.5609 46.2477 11.3543 44.8065 10.7863 45.0501Z" fill="#28839F" fill-opacity="0.2"/>
<path d="M10.2018 43.1769C9.74311 43.6971 9.24649 45.8195 9.26157 45.8111C9.48742 45.6852 9.80835 45.3679 10.0953 45.1256C10.3569 44.9047 10.7343 44.6384 10.7191 44.2273C10.7039 43.8163 10.5441 42.7886 10.2018 43.1769Z" fill="#28839F" fill-opacity="0.2"/>
<path d="M3.92299 17.8597C3.21115 18.9875 1.55971 21.9855 0.981553 23.645C0.403414 25.3044 0.271549 27.1567 0.210693 29.349C0.149836 31.5413 -0.448594 36.8394 -0.174739 38.0573C0.0991165 39.2752 0.504837 40.1075 1.38727 39.5594C2.26971 39.0114 3.57814 35.936 4.49099 33.8351C5.40386 31.7341 6.05996 28.0946 5.911 26.6289C5.66758 24.2336 5.68787 23.6856 5.62701 21.412C5.57226 19.3671 4.28815 17.2812 3.92299 17.8597Z" fill="#28839F" fill-opacity="0.2"/>
<path d="M2.86839 39.3556C2.4622 40.3209 1.95552 40.8324 1.31651 41.2434C0.677515 41.6545 0.997014 42.842 1.68167 43.4966C2.3663 44.1513 2.57932 44.6841 2.74667 44.745C2.91403 44.8059 3.34763 42.4081 3.46174 42.0046C3.57585 41.6012 3.81929 40.33 3.67474 39.9493C3.5302 39.5687 3.29438 38.3432 2.86839 39.3556Z" fill="#28839F" fill-opacity="0.2"/>
<path d="M0.88151 20.9139C0.143173 21.3105 -1.1358 21.8417 -1.73664 25.2179C-1.83553 25.7736 -2.08704 28.6078 -2.23918 29.5517C-2.39132 30.4956 -2.37514 33.1782 -2.31017 33.9668C-2.23744 34.8498 -2.34014 36.1794 -2.20321 36.8797C-2.06629 37.58 -1.44249 36.4991 -1.29035 34.9614C-1.13821 33.4238 -0.631063 29.9882 -0.30649 27.06C-0.067812 24.9068 0.0599315 23.6549 1.39373 21.6452C2.12058 20.5501 1.88049 20.3773 0.88151 20.9139Z" fill="#28839F" fill-opacity="0.2"/>
<path d="M-0.722469 45.1208C-0.722469 46.1241 -1.64547 48.328 -2.08162 49.2618C-2.51777 50.1955 -3.36976 54.4685 -3.66391 55.93C-3.95805 57.3916 -4.6782 62.7099 -5.28678 64.6383C-5.89535 66.5667 -5.97649 67.1351 -5.42878 66.6885C-4.88106 66.242 -3.88706 63.2783 -3.50163 61.9385C-3.1162 60.5988 0.159968 53.1186 0.479465 51.7027C0.798963 50.2869 2.1074 48.6579 2.1074 47.851C2.1074 47.0441 2.06175 45.5673 1.1641 44.9888C0.266466 44.4103 -0.722469 44.0652 -0.722469 45.1208Z" fill="#28839F" fill-opacity="0.2"/>
<path d="M23.0427 54.0318C23.1035 52.9661 23.1339 48.8251 23.0122 47.5767C22.8905 46.3283 23.3926 42.8571 23.1644 41.5478C22.9362 40.2385 23.713 36.7404 23.4382 35.7017C23.2356 34.9357 21.4898 34.9903 20.1722 37.2444C19.5434 38.3203 18.8739 39.7615 18.4277 40.6547C17.9814 41.5478 16.7845 44.9378 17.0888 46.5414C17.3931 48.145 17.0685 49.4239 15.8716 50.4388C14.2472 51.8164 16.2984 52.406 17.5351 52.8443C18.9957 53.3619 20.791 55.6456 21.3082 56.6503C21.8255 57.6552 23.423 58.5229 23.2253 57.1071C23.0275 55.6912 23.0427 54.0318 23.0427 54.0318Z" fill="#28839F" fill-opacity="0.2"/>
<path d="M26.2389 -5.54055C28.3841 4.24868 31.2755 1.53086 38.0465 4.91855C38.9999 5.39557 39.2129 5.64932 38.4421 6.21769C37.6712 6.78606 35.3383 8.37954 34.6283 10.6124C33.9183 12.8453 33.6546 16.6616 32.7215 19.0974C31.7883 21.5333 29.7395 24.8218 28.7657 26.5269C27.792 28.232 26.2706 31.7844 26.0069 32.9414C25.7431 34.0985 24.8506 35.4382 24.7897 34.0376C24.7289 32.6369 25.236 27.1765 25.3577 23.9286C25.4794 20.6808 25.2766 14.9361 25.236 13.0483C25.1954 11.1605 25.3171 8.52164 25.1549 7.2225C24.9926 5.92335 25.2969 -1.14073 25.3577 -2.56167C25.4186 -3.98259 25.1143 -5.24114 25.2766 -5.93131C25.4389 -6.62147 26.0112 -6.5794 26.2389 -5.54055Z" fill="#28839F" fill-opacity="0.2"/>
<path d="M28.5427 -3.88084C28.8485 -2.79137 29.4796 0.234803 30.1085 0.945271C30.2245 1.07631 30.8308 1.55778 30.7069 1.5644C29.403 1.63401 28.1639 -1.1471 28.1573 -1.16075C27.4473 -2.61214 27.4371 -3.47485 27.5284 -4.61161C27.6197 -5.74835 28.0356 -5.68746 28.5427 -3.88084Z" fill="#28839F" fill-opacity="0.2"/>
<path d="M45.5621 7.12147C47.5704 7.95373 48.747 9.41527 49.7613 11.7497C50.7756 14.0841 51.0596 16.6011 50.8162 18.5295C50.5727 20.458 50.3902 21.5338 50.3699 22.2646C50.3496 22.9954 49.8627 22.0819 48.747 21.0466C47.6313 20.0114 44.9941 17.6161 44.4059 16.1749C43.8176 14.7336 44.1421 13.2518 43.0264 12.2774C41.9107 11.3031 40.7544 10.0039 39.6184 9.51676C38.4824 9.02959 38.8881 8.29882 39.8618 8.17702C40.8355 8.05523 42.2353 7.01998 42.8641 6.87788C43.493 6.73578 44.9321 6.86038 45.5621 7.12147Z" fill="#28839F" fill-opacity="0.2"/>
<path d="M37.2148 9.14058C38.4319 9.35373 40.5112 10.3585 41.0995 11.2314C41.661 12.0644 42.4181 11.9723 42.5398 12.4392C42.6615 12.9061 41.9312 12.8655 41.4849 13.6977C41.0387 14.53 40.8155 15.89 40.1461 16.702C37.8676 19.4656 36.8953 19.2445 34.1821 20.5182C33.5647 20.808 32.7012 21.1272 32.6403 20.7212C32.5795 20.3152 32.8128 19.8179 33.3098 18.9349C33.8068 18.0519 34.1009 15.4841 34.3241 14.3067C34.5472 13.1294 34.9225 11.1908 35.3384 10.2672C35.7542 9.34358 36.8081 9.06936 37.2148 9.14058Z" fill="#28839F"/>
<path d="M43.3306 14.3581C43.068 14.8498 42.9959 14.792 42.4634 15.1346C41.9309 15.4771 41.5734 15.9262 41.4289 16.0937C41.2843 16.2612 41.0257 15.8349 41.2311 15.2868C41.4365 14.7387 41.7712 14.1754 42.0678 13.871C42.3645 13.5665 42.4863 13.1935 42.7677 13.125C43.0492 13.0564 43.5665 13.9166 43.3306 14.3581Z" fill="#28839F" fill-opacity="0.2"/>
<path d="M39.2738 18.5088C39.7928 18.0127 40.5112 17.1387 41.3023 16.7631C42.0935 16.3876 43.1585 15.0682 43.4729 15.4234C43.7874 15.7786 43.6758 16.824 43.3512 17.6157C43.0266 18.4073 42.6716 19.5035 42.4181 20.3967C42.1645 21.2898 41.4444 22.051 40.6735 22.2845C39.9026 22.5179 38.0566 22.8325 36.8395 22.7108C35.6223 22.589 34.5472 22.0003 34.0806 21.6958C32.9618 20.9657 37.0018 20.6808 39.2738 18.5088Z" fill="#28839F" fill-opacity="0.2"/>
<path d="M32.8636 21.574C33.7979 21.8233 34.4256 22.6296 36.4947 23.0761C37.8414 23.3668 40.6533 23.0355 41.2822 22.8325C41.911 22.6296 42.337 23.4009 42.2559 24.0099C42.1747 24.6189 41.9313 27.136 41.2416 29.4906C40.5519 31.8453 39.5985 35.7631 38.929 37.5291C38.2596 39.2951 38.0162 39.4778 37.3873 42.9286C36.7584 46.3795 34.9124 48.3079 34.4256 49.5867C33.9387 50.8656 31.8087 49.7897 32.0319 47.8004C32.255 45.8111 32.1941 44.3496 31.1393 41.7107C30.0844 39.0718 28.9078 36.5547 28.0558 35.1744C27.2038 33.7941 26.93 32.3528 27.2647 31.1146C27.5994 29.8763 28.4311 28.0291 29.0296 26.9939C29.628 25.9586 31.0581 23.7968 31.5247 22.9138C31.9913 22.0307 32.0826 21.8683 32.1941 21.7161C32.3057 21.5639 32.5593 21.4928 32.8636 21.574Z" fill="#28839F" fill-opacity="0.2"/>
<path d="M35.8047 47.8616C35.3812 48.6082 34.9324 49.3637 34.6484 50.2163C34.3644 51.0688 34.9121 51.7793 35.5207 52.0838C36.1293 52.3883 37.4783 52.4086 38.4013 52.6928C39.3243 52.9769 39.6894 53.3829 39.9227 53.322C40.156 53.2611 39.7251 52.2393 39.4561 51.6981C38.5027 49.7798 37.104 47.462 36.7378 47.2526C36.5248 47.1308 36.2307 47.1105 35.8047 47.8616Z" fill="#28839F" fill-opacity="0.2"/>
<path d="M37.604 45.0501C38.4945 45.432 39.4278 47.2157 39.6028 47.9579C39.7265 48.4829 39.7849 49.3596 39.7878 50.0741C39.7898 50.5456 39.8837 50.9964 39.7644 51.0104C39.1787 51.0789 38.9885 49.7848 37.8499 48.1508C37.5168 47.6727 37.1336 46.8364 36.9815 46.542C36.8293 46.2477 37.036 44.8065 37.604 45.0501Z" fill="#28839F" fill-opacity="0.2"/>
<path d="M38.1881 43.1769C38.6468 43.6971 39.1435 45.8195 39.1284 45.8111C38.9025 45.6852 38.5816 45.3679 38.2946 45.1256C38.033 44.9047 37.6556 44.6384 37.6709 44.2273C37.6861 43.8163 37.8458 42.7886 38.1881 43.1769Z" fill="#28839F" fill-opacity="0.2"/>
<path d="M44.4667 17.8597C45.1785 18.9875 46.8299 21.9855 47.4081 23.645C47.9862 25.3044 48.1181 27.1567 48.179 29.349C48.2398 31.5413 48.8382 36.8394 48.5644 38.0573C48.2905 39.2752 47.8848 40.1075 47.0024 39.5594C46.1199 39.0114 44.8115 35.936 43.8987 33.8351C42.9858 31.7341 42.3297 28.0946 42.4786 26.6289C42.7221 24.2336 42.7018 23.6856 42.7626 21.412C42.8174 19.3671 44.1015 17.2812 44.4667 17.8597Z" fill="#28839F" fill-opacity="0.2"/>
<path d="M45.5218 39.3556C45.928 40.3209 46.4347 40.8324 47.0737 41.2434C47.7127 41.6545 47.3932 42.842 46.7085 43.4966C46.0239 44.1513 45.8109 44.6841 45.6435 44.745C45.4762 44.8059 45.0426 42.4081 44.9285 42.0046C44.8144 41.6012 44.5709 40.33 44.7155 39.9493C44.86 39.5687 45.0958 38.3432 45.5218 39.3556Z" fill="#28839F" fill-opacity="0.2"/>
<path d="M47.5085 20.9139C48.2468 21.3105 49.5258 21.8417 50.1266 25.2179C50.2255 25.7736 50.477 28.6078 50.6292 29.5517C50.7813 30.4956 50.7651 33.1782 50.7002 33.9668C50.6274 34.8498 50.7301 36.1794 50.5932 36.8797C50.4563 37.58 49.8325 36.4991 49.6803 34.9614C49.5282 33.4238 49.0211 29.9882 48.6965 27.06C48.4578 24.9068 48.3301 23.6549 46.9963 21.6452C46.2694 20.5501 46.5095 20.3773 47.5085 20.9139Z" fill="#28839F" fill-opacity="0.2"/>
<path d="M52.419 37.6302C52.2699 38.3571 51.993 39.2745 51.5061 40.33C51.0193 41.3856 50.3295 42.025 50.3092 42.9486C50.289 43.8722 50.7454 44.6131 50.8164 45.3845C50.8874 46.1558 51.2424 46.4299 51.3641 46.0746C51.4858 45.7194 52.1654 44.6435 52.2567 43.3952C52.348 42.1468 52.7638 41.3653 52.9464 40.6548C53.129 39.9443 52.8348 38.8888 52.7638 38.4625C52.6928 38.0362 52.4887 37.2902 52.419 37.6302Z" fill="#28839F" fill-opacity="0.2"/>
<path d="M54.2444 44.4514C54.2444 46.1018 54.2038 50.2569 54.3661 52.7334C54.5284 55.2099 55.5629 64.5881 55.8672 66.009C56.1715 67.43 55.4412 65.806 55.0558 64.1821C54.6704 62.5582 54.1227 60.508 53.2706 57.8488C52.4186 55.1896 51.6275 51.3328 51.6884 49.9322C51.7492 48.5315 51.7492 46.6031 52.1346 45.71C52.5201 44.8168 52.5809 43.7613 52.7432 43.0508C52.9055 42.3403 53.1388 41.4776 53.2706 41.2645C53.4025 41.0513 53.7068 42.0561 53.9198 42.726C54.1328 43.3959 54.2444 44.3296 54.2444 44.4514Z" fill="#28839F" fill-opacity="0.2"/>
<path d="M49.1121 45.1208C49.1121 46.1241 50.0351 48.328 50.4712 49.2618C50.9074 50.1955 51.7594 54.4685 52.0535 55.93C52.3477 57.3916 53.0678 62.7099 53.6764 64.6383C54.285 66.5667 54.3661 67.1351 53.8184 66.6885C53.2707 66.242 52.2767 63.2783 51.8913 61.9385C51.5058 60.5988 48.2297 53.1186 47.9102 51.7027C47.5907 50.2869 46.2822 48.6579 46.2822 47.851C46.2822 47.0441 46.3279 45.5673 47.2255 44.9888C48.1232 44.4103 49.1121 44.0652 49.1121 45.1208Z" fill="#28839F" fill-opacity="0.2"/>
<path d="M56.8714 65.6334C55.867 63.9583 55.6999 58.2801 55.4717 56.5901C55.2435 54.9003 54.9849 49.8001 54.9696 48.7801C54.9544 47.76 55.137 47.8362 55.3348 48.8105C55.5326 49.7849 55.8977 52.6623 56.1868 54.3217C56.4759 55.9812 56.8106 61.6446 57.0084 62.8778C57.2061 64.111 57.054 65.9379 56.8714 65.6334Z" fill="#28839F" fill-opacity="0.2"/>
<path d="M25.3473 54.0318C25.2864 52.9661 25.256 48.8251 25.3777 47.5767C25.4994 46.3283 24.9974 42.8571 25.2256 41.5478C25.4538 40.2385 24.677 36.7404 24.9517 35.7017C25.1543 34.9357 26.9002 34.9903 28.2177 37.2444C28.8466 38.3203 29.516 39.7615 29.9623 40.6547C30.4086 41.5478 31.6055 44.9378 31.3012 46.5414C30.9969 48.145 31.3215 49.4239 32.5183 50.4388C34.1428 51.8164 32.0916 52.406 30.8549 52.8443C29.3943 53.3619 27.599 55.6456 27.0817 56.6503C26.5644 57.6552 24.9669 58.5229 25.1647 57.1071C25.3625 55.6912 25.3473 54.0318 25.3473 54.0318Z" fill="#28839F" fill-opacity="0.2"/>
</g>
<defs>
<clipPath id="clip0_4071_13075">
<rect width="61" height="48" fill="white"/>
</clipPath>
</defs>
</svg>
