<svg width="61" height="48" viewBox="0 0 61 48" fill="none" xmlns="http://www.w3.org/2000/svg">
<g clip-path="url(#clip0_4055_6054)">
<path d="M40.8058 156.233C40.6222 156.233 40.4739 156.126 40.3305 156.022C40.2116 155.936 40.0992 155.855 39.9914 155.855C39.9728 155.855 39.9546 155.857 39.936 155.862C39.8132 155.894 39.7456 155.946 39.6674 156.008C39.5567 156.094 39.4314 156.192 39.1771 156.192C39.1603 156.192 39.1427 156.192 39.1246 156.191C38.8874 156.179 38.7392 156.079 38.6084 155.991C38.4879 155.909 38.3928 155.845 38.2338 155.845C38.2243 155.845 38.2145 155.845 38.2045 155.846C38.0376 155.854 37.9414 155.91 37.8194 155.982C37.6669 156.071 37.494 156.173 37.171 156.191C37.1486 156.192 37.1266 156.193 37.1047 156.193C36.8033 156.193 36.5441 156.077 36.3153 155.976C36.1232 155.89 35.9416 155.809 35.7608 155.805L35.7459 155.805C35.5611 155.805 35.334 155.88 35.0936 155.96C34.7948 156.059 34.4561 156.171 34.1046 156.171L34.0778 156.171C33.2305 156.157 32.749 155.721 32.6467 154.874C32.5924 154.424 32.7415 153.938 32.8857 153.468C33.0525 152.924 33.2249 152.361 33.096 151.845C32.8236 150.755 32.6672 149.353 32.7067 148.356C32.7337 147.672 32.5211 146.75 32.3336 145.937C32.2434 145.545 32.1581 145.176 32.1 144.843C31.9787 144.148 32.4867 142.931 32.9349 141.856C33.1803 141.268 33.412 140.712 33.4588 140.414C33.5085 140.095 33.5116 139.021 33.4677 137.22C33.3824 136.785 33.3225 135.335 33.2902 134.553C33.2819 134.353 33.2755 134.197 33.2709 134.113C33.2667 134.035 33.2487 133.654 33.2887 133.456L33.2187 132.926C33.0793 131.864 32.9476 130.861 32.8329 130.432C32.8329 130.432 32.6511 129.756 32.5987 129.559C32.541 129.468 32.4894 129.356 32.4414 129.217C32.3429 128.932 32.24 128.537 32.1312 128.119C31.9303 127.348 31.7027 126.474 31.4146 125.916C31.1489 125.402 30.9949 124.725 30.944 123.845C30.8628 123.437 30.794 122.97 30.7395 122.454C30.4781 119.978 30.7667 116.501 31.0662 115.044C31.2168 114.311 31.4525 113.424 31.6604 112.641C31.859 111.893 32.0466 111.187 32.1202 110.764C32.196 110.33 32.2129 110.084 32.2231 109.938C32.2297 109.842 32.2341 109.778 32.2528 109.728C32.2276 109.593 32.2004 109.441 32.1714 109.278C32.1231 109.008 32.0688 108.703 32.0087 108.398C31.881 108.247 31.7953 107.945 31.68 107.54C31.5778 107.18 31.4507 106.733 31.2635 106.299C30.8274 105.288 30.2886 101.95 30.2381 100.362C30.1867 98.7483 29.9153 96.1601 29.593 94.8802C29.3057 93.739 29.0018 90.9992 29.0309 89.8149C29.0055 89.5582 28.9801 89.3166 28.9546 89.1045C28.9278 88.8805 28.9096 88.5969 28.9005 88.261C28.843 88.1308 28.7546 87.9469 28.6279 87.7683C28.4621 87.5346 28.3089 87.2144 28.1726 86.8168C27.9593 86.2717 27.7103 85.225 27.6309 84.5365C27.5015 83.4142 26.6802 78.4649 26.2056 76.8871C25.6641 75.0865 26.0349 71.456 26.0789 71.048C26.0936 70.9119 26.1072 70.7773 26.1205 70.6452C26.159 70.2614 26.1956 69.8978 26.253 69.5741C26.0991 69.3351 25.9719 69.0836 25.8659 68.8085C25.6216 68.7412 25.3776 68.7228 25.276 68.7228H25.1137C25.0122 68.7228 24.7683 68.7412 24.5239 68.8085C24.4179 69.0836 24.2907 69.3352 24.1367 69.5741C24.1943 69.8983 24.2308 70.2624 24.2694 70.6467C24.2827 70.7784 24.2961 70.9125 24.3108 71.048C24.3549 71.456 24.7259 75.0861 24.1841 76.8871C23.7095 78.4651 22.8882 83.4143 22.7588 84.5366C22.6795 85.2249 22.4306 86.2716 22.2153 86.8221C22.0808 87.2146 21.9276 87.5348 21.7619 87.7683C21.6347 87.9475 21.5465 88.1312 21.4892 88.261C21.4802 88.5964 21.462 88.8801 21.4351 89.1045C21.4097 89.3166 21.3842 89.5583 21.3589 89.8148C21.388 90.9991 21.0841 93.739 20.7968 94.8802C20.4746 96.1598 20.2031 98.7479 20.1517 100.362C20.1011 101.95 19.5623 105.288 19.1263 106.299C18.939 106.733 18.8119 107.18 18.7097 107.54C18.5945 107.945 18.5088 108.247 18.381 108.398C18.3209 108.703 18.2665 109.008 18.2184 109.278C18.1892 109.441 18.1621 109.593 18.1369 109.728C18.1556 109.778 18.16 109.842 18.1667 109.938C18.1768 110.084 18.1938 110.33 18.2695 110.764C18.3431 111.187 18.5307 111.893 18.7294 112.641C18.9373 113.424 19.173 114.311 19.3236 115.044C19.6231 116.501 19.9117 119.978 19.6502 122.454C19.5956 122.971 19.5266 123.443 19.4452 123.857C19.3934 124.731 19.2397 125.405 18.9752 125.916C18.687 126.474 18.4594 127.348 18.2586 128.119C18.1497 128.537 18.0469 128.932 17.9483 129.217C17.9004 129.356 17.8488 129.468 17.7911 129.559C17.7388 129.755 17.5569 130.432 17.5569 130.432C17.4421 130.861 17.3104 131.865 17.171 132.926L17.1011 133.456C17.1411 133.654 17.1231 134.035 17.1188 134.113C17.1142 134.197 17.1078 134.354 17.0995 134.553C17.0672 135.336 17.0073 136.785 16.9221 137.22C16.8782 139.021 16.8812 140.096 16.931 140.414C16.9777 140.712 17.2095 141.268 17.4549 141.856C17.9031 142.93 18.4111 144.148 18.2897 144.843C18.2317 145.175 18.1464 145.545 18.0561 145.937C17.8686 146.75 17.656 147.672 17.6831 148.356C17.7226 149.353 17.5661 150.755 17.2938 151.845C17.1648 152.361 17.3373 152.924 17.5041 153.468C17.6483 153.938 17.7974 154.424 17.7431 154.874C17.6407 155.721 17.1592 156.157 16.3119 156.171L16.2852 156.171C15.9337 156.171 15.595 156.059 15.2961 155.96C15.0557 155.88 14.8286 155.805 14.6439 155.805L14.629 155.805C14.4481 155.809 14.2665 155.89 14.0744 155.976C13.8457 156.077 13.5865 156.193 13.285 156.193C13.2631 156.193 13.241 156.192 13.2187 156.191C12.8957 156.173 12.7229 156.071 12.5703 155.982C12.4485 155.91 12.3522 155.854 12.1852 155.846C12.1752 155.845 12.1655 155.845 12.1559 155.845C11.997 155.845 11.9018 155.909 11.7814 155.991C11.6506 156.079 11.5023 156.179 11.2652 156.191C11.247 156.192 11.2295 156.192 11.2128 156.192C10.9583 156.192 10.8329 156.094 10.7223 156.008C10.6441 155.946 10.5765 155.894 10.4538 155.862C10.4351 155.857 10.417 155.855 10.3983 155.855C10.2905 155.855 10.1782 155.936 10.0592 156.022C9.91584 156.126 9.76753 156.233 9.58394 156.233C9.56999 156.233 9.55589 156.232 9.5418 156.231C9.31004 156.209 9.18963 156.112 9.08345 156.026C9.01847 155.974 8.96239 155.929 8.87952 155.899C8.86909 155.895 8.85753 155.893 8.84437 155.893C8.77008 155.893 8.66065 155.95 8.54483 156.01C8.37214 156.1 8.15718 156.211 7.91138 156.211C7.38339 156.211 7.11315 155.949 6.94743 155.275C6.78099 154.599 6.92731 153.5 7.46028 152.834C7.59789 152.661 7.8169 152.399 8.07053 152.095C8.71866 151.318 9.60639 150.254 9.9888 149.677C10.5223 148.871 10.7387 147.429 10.4255 146.765C10.0253 145.917 9.94122 145.125 10.1758 144.411L10.2546 144.174C10.4739 143.514 10.7008 142.832 10.7988 142.002C10.8794 141.321 10.8431 139.668 10.7752 138.415C10.7116 138.134 10.6598 137.838 10.6214 137.534C10.4576 136.236 9.67855 130.331 9.13143 127.227C8.95487 126.779 8.80678 126.216 8.67593 125.719C8.6158 125.49 8.55891 125.275 8.50476 125.09C8.19378 124.032 7.54932 120.385 7.36446 119.042C7.17057 117.632 7.31263 114.955 7.40452 114.076C7.47762 113.377 7.67317 111.983 8.16117 110.496C8.52397 109.39 8.53911 108.552 8.55022 107.94C8.55261 107.807 8.55487 107.683 8.56018 107.568C8.57027 107.352 8.62337 107.13 8.72238 106.892C8.7059 106.471 8.69315 105.915 8.6863 105.321C8.61102 104.524 8.59094 102.342 8.64643 100.926C8.68716 99.887 9.03481 98.4142 9.31408 97.2308C9.43249 96.7292 9.53489 96.2956 9.59974 95.9583C9.62638 95.6089 9.60319 95.1392 9.53084 94.5616L9.52971 94.5588C8.55752 92.1642 7.57117 89.6566 7.1293 87.6355C6.90742 86.6207 6.86471 84.8425 6.82338 83.1228C6.80577 82.3907 6.78756 81.6337 6.75566 80.9578C6.36675 78.0803 6.01278 74.7508 5.98388 73.699C5.96108 72.8741 6.10348 71.1385 6.32236 69.5723L6.33711 69.298C6.41785 67.8382 6.5399 65.6321 6.83574 64.3932C7.23389 62.7257 7.98853 58.2896 7.95783 56.8765C7.92667 55.4401 8.66031 52.3672 9.20192 50.7011C9.31382 50.2283 9.51276 49.4894 9.68824 48.8376C9.75562 48.5873 9.81889 48.3522 9.87137 48.154C9.63064 47.6931 9.825 42.5946 9.99683 42.0394C10.0421 41.62 10.0911 41.2308 10.1426 40.8801C10.1077 40.831 10.1158 40.7913 10.2255 40.3635C10.3033 39.9113 10.3875 39.5361 10.4735 39.2592C10.5173 39.1015 10.5729 38.9394 10.6319 38.7678C10.7639 38.3834 10.9003 37.9859 10.9264 37.5587C10.8632 36.8908 10.8644 36.1199 10.9291 35.714C10.9318 35.2296 10.9321 34.6067 10.9112 34.0478C10.8344 33.8439 10.7538 33.6428 10.6658 33.4232C10.5662 33.1747 10.4573 32.9027 10.3338 32.577C9.8946 31.4184 9.34255 29.3709 8.80865 27.3908C8.52505 26.339 8.25714 25.3455 8.01793 24.5286C7.94397 24.2763 7.87235 24.012 7.80344 23.7377C7.78604 23.9044 7.76557 24.0851 7.74218 24.2794C7.66775 24.8982 7.28057 26.1301 6.83211 27.5564C6.06544 29.995 5.11133 33.0301 5.18708 34.6397C5.28031 36.6231 4.63244 38.1924 4.2432 38.6389C4.14911 39.0561 4.07282 39.3523 4.01037 39.543C3.99164 39.6635 3.97329 39.7845 3.95489 39.9058C3.89282 40.3152 3.82858 40.7387 3.74996 41.1418C3.66159 41.7563 3.47865 42.4635 3.19173 43.2972C2.90329 44.1358 2.05343 46.2054 0.918112 48.8342C0.767603 49.3215 0.600424 49.8559 0.423611 50.4211C-0.717018 54.0677 -2.27926 59.0619 -2.31854 60.8349C-2.32983 61.343 -2.04524 62.1206 -1.57519 63.3406C-1.05365 64.6945 -1.14389 67.3533 -2.33847 69.614C-2.84666 70.5759 -3.29677 72.0464 -3.732 73.4685C-4.1548 74.8498 -4.55408 76.1544 -4.94845 76.7412C-5.18328 77.0906 -5.42641 77.2678 -5.67093 77.2678C-5.92098 77.2678 -6.10902 77.0863 -6.23613 76.9C-6.43381 77.9118 -6.89196 79.7257 -7.65392 79.8643C-7.70848 79.8743 -7.76216 79.8793 -7.81347 79.8793C-8.18862 79.8793 -8.4618 79.6199 -8.5992 79.1506C-8.83643 79.9595 -9.27105 81.0442 -9.89559 81.0442L-9.91579 81.0438C-10.7951 81.0117 -10.821 79.8567 -10.781 78.5553C-10.8506 78.5941 -10.9295 78.6143 -11.0156 78.6143C-11.5914 78.6143 -12.2834 77.7492 -12.4127 76.8676C-12.7325 74.6859 -12.5206 72.0722 -12.3659 70.1638C-12.2898 69.226 -12.2115 68.2592 -12.2759 67.9858C-12.3945 68.0954 -12.5456 68.2913 -12.7184 68.5151C-13.0429 68.9354 -13.4466 69.4584 -13.9202 69.7843C-14.3044 70.0489 -14.7624 70.1886 -15.2446 70.1886C-16.0014 70.1886 -16.6675 69.8467 -16.8284 69.3757C-16.8892 69.1977 -16.924 68.847 -16.4743 68.4988C-15.3022 67.5911 -13.0557 64.3122 -12.2571 62.3438C-11.7246 61.0312 -10.7437 60.5961 -9.95558 60.2465C-9.48507 60.0378 -9.07874 59.8576 -8.87848 59.5411C-8.48525 58.9198 -7.91931 56.2541 -7.19637 51.6181C-7.09304 50.4815 -7.00845 49.7415 -6.93118 49.2978C-6.88533 49.0349 -6.83762 48.741 -6.78892 48.4292C-6.75444 45.4004 -6.69942 42.0309 -6.48446 40.3532C-6.07142 37.1287 -4.71961 33.2108 -3.53254 31.7978C-3.36296 31.596 -3.2116 31.4124 -3.07632 31.2483C-2.66495 30.7495 -2.41058 30.4411 -2.21855 30.3102C-2.04838 30.0822 -1.90293 29.6543 -1.78598 29.0374C-1.95144 26.5668 -1.68431 23.9066 -1.07074 21.9142C-0.983823 21.0873 -0.913862 20.4362 -0.870669 20.1935C-0.729006 19.3974 -0.880903 18.6295 -1.0029 18.0123C-1.06071 17.7199 -1.11068 17.4673 -1.11619 17.2676C-1.12981 16.7781 -1.21719 16.1318 -1.34955 15.1536C-1.41167 14.694 -1.48344 14.1637 -1.56145 13.5459C-1.83096 11.4111 -1.43281 8.84991 -0.496357 6.69468C0.606209 4.15706 1.84385 2.79547 3.77547 1.99492C4.2713 1.78946 5.18036 1.68201 5.82205 1.68201C5.86337 1.68201 5.90404 1.6824 5.94405 1.68327C7.50323 0.861509 8.89915 0.56942 9.62396 0.56942C9.73658 0.56942 9.83832 0.5762 9.92669 0.58956C9.96841 0.587503 10.0124 0.586496 10.0586 0.586496C10.1493 0.586496 10.2488 0.590347 10.3456 0.595535C10.3761 0.278374 10.7893 0.0432606 11.2826 -0.203554C11.9683 -0.546574 12.6835 -0.860289 13.4083 -1.13602C14.2461 -1.45471 15.0884 -1.71788 16.0953 -2.01497C16.2184 -2.05134 16.3425 -2.08578 16.4666 -2.12021C17.1926 -2.32182 17.8782 -2.51224 18.3795 -3.05899C18.5228 -3.2153 18.6432 -3.38832 18.7706 -3.5715C18.8311 -3.65848 18.8917 -3.74538 18.9545 -3.83022C19.1485 -4.09193 19.3491 -4.36248 19.4575 -4.66707C19.509 -4.81189 19.4963 -4.97605 19.4827 -5.14979C19.477 -5.2244 19.4712 -5.29879 19.4702 -5.37227C19.4668 -5.60686 19.467 -5.8546 19.4708 -6.1298C19.478 -6.64896 19.494 -7.26154 19.5574 -7.87272C19.5449 -8.04499 19.5321 -8.13263 19.5235 -8.17599C19.5074 -8.25618 19.4942 -8.33763 19.4805 -8.42154C19.4179 -8.80552 19.347 -9.24077 18.9353 -9.85481C18.5836 -10.3794 18.4863 -11.5976 18.4666 -12.5273C18.4628 -12.7069 18.3163 -12.8531 18.1401 -12.8531C18.1171 -12.8531 18.0939 -12.8506 18.071 -12.8456C17.9662 -12.8228 17.8565 -12.8107 17.7537 -12.8107C17.4768 -12.8107 17.248 -12.8947 17.0921 -13.0538C16.9313 -13.2178 16.8526 -13.4536 16.8583 -13.7546C16.8784 -14.8064 16.6645 -15.4167 16.4759 -15.9551C16.3807 -16.2266 16.2909 -16.4831 16.2368 -16.7717C16.1407 -17.2846 16.0823 -17.9741 16.3492 -18.3469C16.4542 -18.4934 16.5982 -18.5807 16.7774 -18.6063C16.8212 -18.6127 16.8664 -18.6158 16.9116 -18.6158C17.0601 -18.6158 17.2154 -18.5819 17.3732 -18.5148C17.3948 -18.5057 17.417 -18.5011 17.4394 -18.5011C17.4873 -18.5011 17.5349 -18.5226 17.5697 -18.5601C17.6053 -18.5985 17.6228 -18.6485 17.6188 -18.7007C17.5033 -20.2397 17.3978 -24.0286 18.9106 -25.9696C20.7094 -28.2776 23.4761 -28.7452 24.5822 -28.8391C24.7251 -28.8512 24.8977 -28.8643 25.136 -28.8643C25.3148 -28.8643 25.5086 -28.8566 25.7122 -28.8414C26.8385 -28.7577 29.6551 -28.3102 31.4793 -25.9696C32.9921 -24.0283 32.8865 -20.2396 32.7709 -18.7007C32.767 -18.6485 32.7845 -18.5985 32.8202 -18.5601C32.855 -18.5225 32.9024 -18.5011 32.9505 -18.5011C32.9728 -18.5011 32.995 -18.5057 33.0166 -18.5148C33.1744 -18.5819 33.3297 -18.6158 33.4782 -18.6158C33.5234 -18.6158 33.5686 -18.6127 33.6125 -18.6063C33.7916 -18.5807 33.9356 -18.4934 34.0406 -18.3469C34.3075 -17.9741 34.249 -17.2846 34.1529 -16.7717C34.0989 -16.4831 34.009 -16.2266 33.9139 -15.9551C33.7252 -15.4167 33.5114 -14.8065 33.5315 -13.7546C33.5372 -13.4536 33.4585 -13.2178 33.2977 -13.0537C33.1418 -12.8947 32.913 -12.8106 32.6362 -12.8106C32.5333 -12.8106 32.4235 -12.8228 32.3187 -12.8456C32.2959 -12.8506 32.2727 -12.8531 32.2497 -12.8531C32.0736 -12.8531 31.927 -12.7069 31.9233 -12.5272C31.9035 -11.5974 31.806 -10.379 31.4545 -9.8548C31.0428 -9.24075 30.9719 -8.8055 30.9093 -8.42152C30.8957 -8.33761 30.8824 -8.25616 30.8664 -8.17598C30.8577 -8.13262 30.8449 -8.04499 30.8324 -7.87271C30.9171 -7.05786 30.925 -6.25611 30.9216 -5.57871C30.9211 -5.48329 30.9159 -5.38642 30.9107 -5.28941C30.9034 -5.15204 30.8965 -5.02218 30.9025 -4.89499C30.9177 -4.5751 31.1492 -4.23993 31.3534 -3.94417C31.3825 -3.90201 31.4109 -3.86086 31.4379 -3.82089C31.7 -3.43279 31.9711 -3.03151 32.3392 -2.74348C32.6396 -2.50843 32.9978 -2.40165 33.3769 -2.28855L33.7073 -2.18855C35.5084 -1.63973 37.3708 -1.0723 39.1072 -0.203539L39.2133 -0.151278C39.4365 -0.042572 39.6895 0.0807076 39.8652 0.264555C39.9588 0.36249 40.0183 0.479517 40.0372 0.596939C40.2097 0.589027 40.3691 0.585173 40.521 0.585173C41.1146 0.585173 41.624 0.645021 42.1239 0.773542C42.8959 0.971945 43.6768 1.27794 44.4457 1.68327C44.4857 1.68242 44.5264 1.68201 44.5677 1.68201C45.2094 1.68201 46.1185 1.78946 46.6142 1.99492C48.5459 2.7954 49.7836 4.15706 50.8862 6.69468C51.8226 8.84978 52.2207 11.4109 51.9513 13.5459C51.8732 14.1639 51.8014 14.6945 51.7393 15.1542C51.607 16.1321 51.5196 16.7781 51.506 17.2676C51.5004 17.4673 51.4505 17.7199 51.3927 18.0123C51.2707 18.6294 51.1188 19.3974 51.2604 20.1935C51.3037 20.4361 51.3736 21.0869 51.4604 21.9134C52.0815 23.9285 52.347 26.6164 52.1715 29.1112C52.2846 29.6931 52.4286 30.0944 52.6 30.3049C52.7934 30.4326 53.0506 30.7444 53.4674 31.2499C53.6023 31.4135 53.7533 31.5965 53.9224 31.7978C55.1094 33.2109 56.4612 37.1288 56.8743 40.3531C57.0893 42.031 57.1443 45.4003 57.1788 48.4292C57.2274 48.741 57.2751 49.0349 57.3209 49.2977C57.3973 49.7362 57.4844 50.4981 57.5872 51.6267C58.3091 56.2541 58.8751 58.9198 59.2683 59.5411C59.4686 59.8576 59.8749 60.0378 60.3454 60.2465C61.1335 60.5961 62.1144 61.0311 62.6469 62.3437C63.4454 64.3122 65.692 67.591 66.8641 68.4988C67.3139 68.847 67.279 69.1977 67.2182 69.3757C67.0574 69.8467 66.3913 70.1886 65.6344 70.1886C65.1522 70.1886 64.6942 70.0488 64.3099 69.7843C63.8365 69.4584 63.4327 68.9354 63.1083 68.5153C62.9356 68.2914 62.7843 68.0955 62.6657 67.9858C62.6014 68.2593 62.6797 69.2259 62.7557 70.1633C62.9104 72.0719 63.1223 74.6858 62.8025 76.8675C62.6733 77.7491 61.9812 78.6142 61.4053 78.6142C61.3198 78.6142 61.2412 78.5942 61.1719 78.5558C61.2106 79.857 61.1834 81.0116 60.3056 81.0438L60.2854 81.0441C59.6608 81.0441 59.2262 79.9594 58.989 79.1504C58.8516 79.6197 58.5784 79.8792 58.2033 79.8792C58.152 79.8792 58.0983 79.8742 58.0437 79.8643C57.282 79.7256 56.8237 77.9118 56.626 76.9C56.4988 77.0862 56.3107 77.2677 56.0607 77.2677C55.8162 77.2677 55.5731 77.0905 55.3383 76.7411C54.9439 76.1543 54.5446 74.8497 54.1218 73.4685C53.6865 72.0463 53.2365 70.5758 52.7282 69.6139C51.5337 67.353 51.4434 64.6943 51.965 63.3405C52.4351 62.1204 52.7197 61.3428 52.7084 60.8348C52.6692 59.062 51.1072 54.0685 49.9666 50.4224C49.7897 49.8568 49.6223 49.3219 49.4717 48.8342C48.3364 46.2052 47.4865 44.1355 47.1981 43.2971C46.9111 42.4632 46.7282 41.756 46.6387 41.1349C46.5613 40.7387 46.4971 40.3155 46.435 39.9063C46.4166 39.7849 46.3982 39.6636 46.3795 39.543C46.317 39.3524 46.2407 39.0562 46.1466 38.6388C45.7574 38.1924 45.1095 36.623 45.2028 34.6396C45.2785 33.0299 44.3243 29.9948 43.5576 27.556C43.1092 26.1298 42.722 24.8981 42.6476 24.2794C42.6242 24.0851 42.6038 23.9043 42.5863 23.7377C42.5175 24.0119 42.4459 24.2762 42.3719 24.5286C42.1326 25.3454 41.8648 26.339 41.5811 27.3909C41.0472 29.3709 40.4952 31.4183 40.056 32.5769C39.9326 32.9024 39.8237 33.1743 39.7242 33.4228C39.6361 33.6424 39.5555 33.8437 39.4787 34.0478C39.4577 34.6079 39.4579 35.2302 39.4607 35.7139C39.5254 36.1198 39.5266 36.8907 39.4634 37.5587C39.4896 37.9858 39.626 38.3832 39.7579 38.7677C39.8168 38.9392 39.8724 39.1013 39.9174 39.2628C40.0022 39.5357 40.0865 39.9109 40.1666 40.374C40.2715 40.7824 40.2816 40.8289 40.2498 40.8764C40.3245 41.2579 40.5491 42.1694 40.663 42.6313C40.6979 42.7732 40.724 42.8793 40.7351 42.9261C40.8285 43.3227 40.8155 47.6878 40.5206 48.162C40.5728 48.3594 40.6356 48.5926 40.7024 48.8408C40.8776 49.4915 41.0761 50.229 41.1907 50.7117C41.7294 52.3669 42.4631 55.4398 42.432 56.8764C42.4012 58.2895 43.1559 62.7256 43.5541 64.3932C43.8501 65.6329 43.9722 67.8402 44.0528 69.3009L44.0686 69.5836C44.2827 71.1129 44.4283 72.8869 44.4059 73.6989C44.377 74.7508 44.0231 78.0805 43.6331 80.9697C43.6022 81.6337 43.584 82.3906 43.5664 83.1227C43.5251 84.8424 43.4824 86.6206 43.2604 87.6354C42.8187 89.6566 41.8323 92.1641 40.8599 94.5593L40.8592 94.5591C40.7866 95.1376 40.7634 95.6083 40.79 95.9581C40.8549 96.2953 40.9572 96.7289 41.0756 97.2303C41.3549 98.4138 41.7027 99.8867 41.7433 100.926C41.7989 102.342 41.7788 104.524 41.7028 105.332C41.6967 105.913 41.6839 106.469 41.6674 106.892C41.7664 107.13 41.8195 107.352 41.8296 107.568C41.8349 107.683 41.8372 107.807 41.8396 107.94C41.8507 108.552 41.8659 109.39 42.2286 110.496C42.7167 111.983 42.9122 113.377 42.9853 114.076C43.0772 114.955 43.2192 117.632 43.0253 119.042C42.8406 120.384 42.1961 124.032 41.885 125.09C41.831 125.274 41.7742 125.49 41.7141 125.718C41.5832 126.215 41.435 126.778 41.2584 127.227C40.7113 130.331 39.9322 136.236 39.7684 137.534C39.73 137.837 39.6783 138.134 39.6146 138.415C39.5466 139.667 39.5104 141.32 39.591 142.002C39.689 142.831 39.9158 143.513 40.135 144.173L40.214 144.411C40.4485 145.125 40.3645 145.917 39.9643 146.765C39.6512 147.429 39.8675 148.871 40.401 149.677C40.7836 150.255 41.6716 151.319 42.3201 152.096C42.5733 152.399 42.7921 152.662 42.9295 152.834C43.4625 153.5 43.6088 154.599 43.4423 155.275C43.2767 155.949 43.0064 156.211 42.4784 156.211C42.2326 156.211 42.0177 156.1 41.8449 156.01C41.7291 155.95 41.6197 155.893 41.5454 155.893C41.5322 155.893 41.5207 155.895 41.5102 155.899C41.4274 155.929 41.3713 155.974 41.3063 156.026C41.2001 156.112 41.0798 156.209 40.8479 156.231C40.8338 156.232 40.8198 156.233 40.8058 156.233Z" fill="white" stroke="#28839F" stroke-width="0.7"/>
<path d="M23.151 -10.5405C21.0058 -0.751316 18.1143 -3.46914 11.3434 -0.0814533C10.3899 0.395574 10.1769 0.649318 10.9478 1.21769C11.7187 1.78606 14.0515 3.37954 14.7615 5.61244C15.4715 7.84534 15.7352 11.6616 16.6684 14.0974C17.6015 16.5333 19.6504 19.8218 20.6241 21.5269C21.5978 23.232 23.1193 26.7844 23.383 27.9414C23.6467 29.0985 24.5393 30.4382 24.6001 29.0376C24.661 27.6369 24.1539 22.1765 24.0321 18.9286C23.9104 15.6808 24.1133 9.93614 24.1539 8.04833C24.1944 6.16051 24.0727 3.52164 24.235 2.2225C24.3973 0.923353 24.093 -6.14073 24.0321 -7.56167C23.9713 -8.98259 24.2756 -10.2411 24.1133 -10.9313C23.951 -11.6215 23.3786 -11.5794 23.151 -10.5405Z" fill="#28839F" fill-opacity="0.2"/>
<path d="M3.82764 2.12147C1.81936 2.95373 0.642776 4.41527 -0.371512 6.74966C-1.3858 9.08406 -1.66981 11.6011 -1.42638 13.5295C-1.18294 15.458 -1.00037 16.5338 -0.980093 17.2646C-0.959803 17.9954 -0.472935 17.0819 0.642776 16.0466C1.7585 15.0114 4.39566 12.6161 4.98394 11.1749C5.57223 9.73363 5.24765 8.2518 6.36338 7.27744C7.47909 6.30308 8.63538 5.00393 9.77139 4.51676C10.9074 4.02959 10.5017 3.29882 9.52795 3.17702C8.55424 3.05523 7.15451 2.01998 6.52566 1.87788C5.8968 1.73578 4.45767 1.86038 3.82764 2.12147Z" fill="#28839F" fill-opacity="0.2"/>
<path d="M12.1754 4.14058C10.9583 4.35373 8.87899 5.35853 8.2907 6.2314C7.72926 7.06441 6.97211 6.97231 6.8504 7.43918C6.72869 7.90606 7.45898 7.86547 7.90527 8.69773C8.35156 9.53 8.57469 10.89 9.24413 11.702C11.5226 14.4656 12.4949 14.2445 15.2082 15.5182C15.8255 15.808 16.689 16.1272 16.7499 15.7212C16.8107 15.3152 16.5774 14.8179 16.0804 13.9349C15.5834 13.0519 15.2893 10.4841 15.0662 9.3067C14.843 8.12936 14.4677 6.19079 14.0519 5.26718C13.636 4.34358 12.5821 4.06936 12.1754 4.14058Z" fill="#28839F" fill-opacity="0.2"/>
<path d="M6.05895 9.35812C6.32157 9.8498 6.39366 9.79201 6.92616 10.1346C7.45867 10.4771 7.8162 10.9262 7.96074 11.0937C8.10527 11.2612 8.36391 10.8349 8.15852 10.2868C7.95313 9.73873 7.61842 9.17543 7.32174 8.87095C7.02505 8.56645 6.90334 8.19346 6.62188 8.12495C6.34041 8.05645 5.82312 8.91662 6.05895 9.35812Z" fill="#28839F" fill-opacity="0.2"/>
<path d="M10.1162 13.5088C9.59723 13.0127 8.8788 12.1387 8.08765 11.7631C7.2965 11.3876 6.23149 10.0682 5.91707 10.4234C5.60263 10.7786 5.71421 11.824 6.03878 12.6157C6.36336 13.4073 6.71836 14.5035 6.97193 15.3967C7.2255 16.2898 7.94565 17.051 8.71651 17.2845C9.48737 17.5179 11.3334 17.8325 12.5505 17.7108C13.7677 17.589 14.8428 17.0003 15.3094 16.6958C16.4281 15.9657 12.3882 15.6808 10.1162 13.5088Z" fill="#28839F" fill-opacity="0.2"/>
<path d="M16.5267 16.574C15.5924 16.8233 14.9647 17.6296 12.8956 18.0761C11.5489 18.3668 8.73699 18.0355 8.10813 17.8325C7.47926 17.6296 7.05326 18.4009 7.13441 19.0099C7.21554 19.6189 7.45899 22.136 8.1487 24.4906C8.83841 26.8453 9.79185 30.7631 10.4613 32.5291C11.1307 34.2951 11.3741 34.4778 12.003 37.9286C12.6319 41.3795 14.4779 43.3079 14.9647 44.5867C15.4516 45.8656 17.5816 44.7897 17.3585 42.8004C17.1353 40.8111 17.1962 39.3496 18.251 36.7107C19.3059 34.0718 20.4825 31.5547 21.3345 30.1744C22.1865 28.7941 22.4603 27.3528 22.1256 26.1146C21.7909 24.8763 20.9592 23.0291 20.3607 21.9939C19.7623 20.9586 18.3322 18.7968 17.8656 17.9138C17.399 17.0307 17.3077 16.8683 17.1962 16.7161C17.0846 16.5639 16.831 16.4928 16.5267 16.574Z" fill="#28839F"/>
<path d="M13.5853 42.8616C14.0088 43.6082 14.4576 44.3637 14.7416 45.2163C15.0256 46.0688 14.4779 46.7793 13.8693 47.0838C13.2607 47.3883 11.9117 47.4086 10.9887 47.6928C10.0657 47.9769 9.70056 48.3829 9.46727 48.322C9.23398 48.2611 9.66488 47.2393 9.93385 46.6981C10.8873 44.7798 12.286 42.462 12.6522 42.2526C12.8652 42.1308 13.1593 42.1105 13.5853 42.8616Z" fill="#28839F" fill-opacity="0.2"/>
<path d="M11.7863 40.0501C10.8957 40.432 9.96246 42.2157 9.78749 42.9579C9.66373 43.4829 9.60535 44.3596 9.60241 45.0741C9.60045 45.5456 9.50651 45.9964 9.62583 46.0104C10.2116 46.0789 10.4018 44.7848 11.5403 43.1508C11.8735 42.6727 12.2566 41.8364 12.4088 41.542C12.5609 41.2477 12.3543 39.8065 11.7863 40.0501Z" fill="#28839F" fill-opacity="0.2"/>
<path d="M11.2018 38.1769C10.7431 38.6971 10.2465 40.8195 10.2616 40.8111C10.4874 40.6852 10.8084 40.3679 11.0953 40.1256C11.3569 39.9047 11.7343 39.6384 11.7191 39.2273C11.7039 38.8163 11.5441 37.7886 11.2018 38.1769Z" fill="#28839F" fill-opacity="0.2"/>
<path d="M4.92299 12.8597C4.21115 13.9875 2.55971 16.9855 1.98155 18.645C1.40341 20.3044 1.27155 22.1567 1.21069 24.349C1.14984 26.5413 0.551406 31.8394 0.825261 33.0573C1.09912 34.2752 1.50484 35.1075 2.38727 34.5594C3.26971 34.0114 4.57814 30.936 5.49099 28.8351C6.40386 26.7341 7.05996 23.0946 6.911 21.6289C6.66758 19.2336 6.68787 18.6856 6.62701 16.412C6.57226 14.3671 5.28815 12.2812 4.92299 12.8597Z" fill="#28839F" fill-opacity="0.2"/>
<path d="M3.86839 34.3556C3.4622 35.3209 2.95552 35.8324 2.31651 36.2434C1.67752 36.6545 1.99701 37.842 2.68167 38.4966C3.3663 39.1513 3.57932 39.6841 3.74667 39.745C3.91403 39.8059 4.34763 37.4081 4.46174 37.0046C4.57585 36.6012 4.81929 35.33 4.67474 34.9493C4.5302 34.5687 4.29438 33.3432 3.86839 34.3556Z" fill="#28839F" fill-opacity="0.2"/>
<path d="M1.88151 15.9139C1.14317 16.3105 -0.135798 16.8417 -0.736635 20.2179C-0.835527 20.7736 -1.08704 23.6078 -1.23918 24.5517C-1.39132 25.4956 -1.37514 28.1782 -1.31017 28.9668C-1.23744 29.8498 -1.34014 31.1794 -1.20321 31.8797C-1.06629 32.58 -0.442491 31.4991 -0.290349 29.9614C-0.138207 28.4238 0.368937 24.9882 0.69351 22.06C0.932188 19.9068 1.05993 18.6549 2.39373 16.6452C3.12058 15.5501 2.88049 15.3773 1.88151 15.9139Z" fill="#28839F" fill-opacity="0.2"/>
<path d="M0.277531 40.1208C0.277531 41.1241 -0.645473 43.328 -1.08162 44.2618C-1.51777 45.1955 -2.36976 49.4685 -2.66391 50.93C-2.95805 52.3916 -3.6782 57.7099 -4.28678 59.6383C-4.89535 61.5667 -4.97649 62.1351 -4.42878 61.6885C-3.88106 61.242 -2.88706 58.2783 -2.50163 56.9385C-2.1162 55.5988 1.15997 48.1186 1.47947 46.7027C1.79896 45.2869 3.1074 43.6579 3.1074 42.851C3.1074 42.0441 3.06175 40.5673 2.1641 39.9888C1.26647 39.4103 0.277531 39.0652 0.277531 40.1208Z" fill="#28839F" fill-opacity="0.2"/>
<path d="M24.0427 49.0318C24.1035 47.9661 24.1339 43.8251 24.0122 42.5767C23.8905 41.3283 24.3926 37.8571 24.1644 36.5478C23.9362 35.2385 24.713 31.7404 24.4382 30.7017C24.2356 29.9357 22.4898 29.9903 21.1722 32.2444C20.5434 33.3203 19.8739 34.7615 19.4277 35.6547C18.9814 36.5478 17.7845 39.9378 18.0888 41.5414C18.3931 43.145 18.0685 44.4239 16.8716 45.4388C15.2472 46.8164 17.2984 47.406 18.5351 47.8443C19.9957 48.3619 21.791 50.6456 22.3082 51.6503C22.8255 52.6552 24.423 53.5229 24.2253 52.1071C24.0275 50.6912 24.0427 49.0318 24.0427 49.0318Z" fill="#28839F" fill-opacity="0.2"/>
<path d="M27.2389 -10.5405C29.3841 -0.751316 32.2755 -3.46914 39.0465 -0.0814533C39.9999 0.395574 40.2129 0.649318 39.4421 1.21769C38.6712 1.78606 36.3383 3.37954 35.6283 5.61244C34.9183 7.84534 34.6546 11.6616 33.7215 14.0974C32.7883 16.5333 30.7395 19.8218 29.7657 21.5269C28.792 23.232 27.2706 26.7844 27.0069 27.9414C26.7431 29.0985 25.8506 30.4382 25.7897 29.0376C25.7289 27.6369 26.236 22.1765 26.3577 18.9286C26.4794 15.6808 26.2766 9.93614 26.236 8.04833C26.1954 6.16051 26.3171 3.52164 26.1549 2.2225C25.9926 0.923353 26.2969 -6.14073 26.3577 -7.56167C26.4186 -8.98259 26.1143 -10.2411 26.2766 -10.9313C26.4389 -11.6215 27.0112 -11.5794 27.2389 -10.5405Z" fill="#28839F" fill-opacity="0.2"/>
<path d="M46.5621 2.12147C48.5704 2.95373 49.747 4.41527 50.7613 6.74966C51.7756 9.08406 52.0596 11.6011 51.8162 13.5295C51.5727 15.458 51.3902 16.5338 51.3699 17.2646C51.3496 17.9954 50.8627 17.0819 49.747 16.0466C48.6313 15.0114 45.9941 12.6161 45.4059 11.1749C44.8176 9.73363 45.1421 8.2518 44.0264 7.27744C42.9107 6.30308 41.7544 5.00393 40.6184 4.51676C39.4824 4.02959 39.8881 3.29882 40.8618 3.17702C41.8355 3.05523 43.2353 2.01998 43.8641 1.87788C44.493 1.73578 45.9321 1.86038 46.5621 2.12147Z" fill="#28839F" fill-opacity="0.2"/>
<path d="M38.2148 4.14058C39.4319 4.35373 41.5112 5.35853 42.0995 6.2314C42.661 7.06441 43.4181 6.97231 43.5398 7.43918C43.6615 7.90606 42.9312 7.86547 42.4849 8.69773C42.0387 9.53 41.8155 10.89 41.1461 11.702C38.8676 14.4656 37.8953 14.2445 35.1821 15.5182C34.5647 15.808 33.7012 16.1272 33.6403 15.7212C33.5795 15.3152 33.8128 14.8179 34.3098 13.9349C34.8068 13.0519 35.1009 10.4841 35.3241 9.3067C35.5472 8.12936 35.9225 6.19079 36.3384 5.26718C36.7542 4.34358 37.8081 4.06936 38.2148 4.14058Z" fill="#28839F" fill-opacity="0.2"/>
<path d="M44.3306 9.35812C44.068 9.8498 43.9959 9.79201 43.4634 10.1346C42.9309 10.4771 42.5734 10.9262 42.4289 11.0937C42.2843 11.2612 42.0257 10.8349 42.2311 10.2868C42.4365 9.73873 42.7712 9.17543 43.0678 8.87095C43.3645 8.56645 43.4863 8.19346 43.7677 8.12495C44.0492 8.05645 44.5665 8.91662 44.3306 9.35812Z" fill="#28839F" fill-opacity="0.2"/>
<path d="M40.2738 13.5088C40.7928 13.0127 41.5112 12.1387 42.3023 11.7631C43.0935 11.3876 44.1585 10.0682 44.4729 10.4234C44.7874 10.7786 44.6758 11.824 44.3512 12.6157C44.0266 13.4073 43.6716 14.5035 43.4181 15.3967C43.1645 16.2898 42.4444 17.051 41.6735 17.2845C40.9026 17.5179 39.0566 17.8325 37.8395 17.7108C36.6223 17.589 35.5472 17.0003 35.0806 16.6958C33.9618 15.9657 38.0018 15.6808 40.2738 13.5088Z" fill="#28839F" fill-opacity="0.2"/>
<path d="M33.8636 16.574C34.7979 16.8233 35.4256 17.6296 37.4947 18.0761C38.8414 18.3668 41.6533 18.0355 42.2822 17.8325C42.911 17.6296 43.337 18.4009 43.2559 19.0099C43.1747 19.6189 42.9313 22.136 42.2416 24.4906C41.5519 26.8453 40.5985 30.7631 39.929 32.5291C39.2596 34.2951 39.0162 34.4778 38.3873 37.9286C37.7584 41.3795 35.9124 43.3079 35.4256 44.5867C34.9387 45.8656 32.8087 44.7897 33.0319 42.8004C33.255 40.8111 33.1941 39.3496 32.1393 36.7107C31.0844 34.0718 29.9078 31.5547 29.0558 30.1744C28.2038 28.7941 27.93 27.3528 28.2647 26.1146C28.5994 24.8763 29.4311 23.0291 30.0296 21.9939C30.628 20.9586 32.0581 18.7968 32.5247 17.9138C32.9913 17.0307 33.0826 16.8683 33.1941 16.7161C33.3057 16.5639 33.5593 16.4928 33.8636 16.574Z" fill="#28839F"/>
<path d="M36.8047 42.8616C36.3812 43.6082 35.9324 44.3637 35.6484 45.2163C35.3644 46.0688 35.9121 46.7793 36.5207 47.0838C37.1293 47.3883 38.4783 47.4086 39.4013 47.6928C40.3243 47.9769 40.6894 48.3829 40.9227 48.322C41.156 48.2611 40.7251 47.2393 40.4561 46.6981C39.5027 44.7798 38.104 42.462 37.7378 42.2526C37.5248 42.1308 37.2307 42.1105 36.8047 42.8616Z" fill="#28839F" fill-opacity="0.2"/>
<path d="M38.604 40.0501C39.4945 40.432 40.4278 42.2157 40.6028 42.9579C40.7265 43.4829 40.7849 44.3596 40.7878 45.0741C40.7898 45.5456 40.8837 45.9964 40.7644 46.0104C40.1787 46.0789 39.9885 44.7848 38.8499 43.1508C38.5168 42.6727 38.1336 41.8364 37.9815 41.542C37.8293 41.2477 38.036 39.8065 38.604 40.0501Z" fill="#28839F" fill-opacity="0.2"/>
<path d="M39.1881 38.1769C39.6468 38.6971 40.1435 40.8195 40.1284 40.8111C39.9025 40.6852 39.5816 40.3679 39.2946 40.1256C39.033 39.9047 38.6556 39.6384 38.6709 39.2273C38.6861 38.8163 38.8458 37.7886 39.1881 38.1769Z" fill="#28839F" fill-opacity="0.2"/>
<path d="M45.4667 12.8597C46.1785 13.9875 47.8299 16.9855 48.4081 18.645C48.9862 20.3044 49.1181 22.1567 49.179 24.349C49.2398 26.5413 49.8382 31.8394 49.5644 33.0573C49.2905 34.2752 48.8848 35.1075 48.0024 34.5594C47.1199 34.0114 45.8115 30.936 44.8987 28.8351C43.9858 26.7341 43.3297 23.0946 43.4786 21.6289C43.7221 19.2336 43.7018 18.6856 43.7626 16.412C43.8174 14.3671 45.1015 12.2812 45.4667 12.8597Z" fill="#28839F" fill-opacity="0.2"/>
<path d="M46.5218 34.3556C46.928 35.3209 47.4347 35.8324 48.0737 36.2434C48.7127 36.6545 48.3932 37.842 47.7085 38.4966C47.0239 39.1513 46.8109 39.6841 46.6435 39.745C46.4762 39.8059 46.0426 37.4081 45.9285 37.0046C45.8144 36.6012 45.5709 35.33 45.7155 34.9493C45.86 34.5687 46.0958 33.3432 46.5218 34.3556Z" fill="#28839F" fill-opacity="0.2"/>
<path d="M48.5085 15.9139C49.2468 16.3105 50.5258 16.8417 51.1266 20.2179C51.2255 20.7736 51.477 23.6078 51.6292 24.5517C51.7813 25.4956 51.7651 28.1782 51.7002 28.9668C51.6274 29.8498 51.7301 31.1794 51.5932 31.8797C51.4563 32.58 50.8325 31.4991 50.6803 29.9614C50.5282 28.4238 50.0211 24.9882 49.6965 22.06C49.4578 19.9068 49.3301 18.6549 47.9963 16.6452C47.2694 15.5501 47.5095 15.3773 48.5085 15.9139Z" fill="#28839F" fill-opacity="0.2"/>
<path d="M53.419 32.6302C53.2699 33.3571 52.993 34.2745 52.5061 35.33C52.0193 36.3856 51.3295 37.025 51.3092 37.9486C51.289 38.8722 51.7454 39.6131 51.8164 40.3845C51.8874 41.1558 52.2424 41.4299 52.3641 41.0746C52.4858 40.7194 53.1654 39.6435 53.2567 38.3952C53.348 37.1468 53.7638 36.3653 53.9464 35.6548C54.129 34.9443 53.8348 33.8888 53.7638 33.4625C53.6928 33.0362 53.4887 32.2902 53.419 32.6302Z" fill="#28839F" fill-opacity="0.2"/>
<path d="M55.2444 39.4514C55.2444 41.1018 55.2038 45.2569 55.3661 47.7334C55.5284 50.2099 56.5629 59.5881 56.8672 61.009C57.1715 62.43 56.4412 60.806 56.0558 59.1821C55.6704 57.5582 55.1227 55.508 54.2706 52.8488C53.4186 50.1896 52.6275 46.3328 52.6884 44.9322C52.7492 43.5315 52.7492 41.6031 53.1346 40.71C53.5201 39.8168 53.5809 38.7613 53.7432 38.0508C53.9055 37.3403 54.1388 36.4776 54.2706 36.2645C54.4025 36.0513 54.7068 37.0561 54.9198 37.726C55.1328 38.3959 55.2444 39.3296 55.2444 39.4514Z" fill="#28839F" fill-opacity="0.2"/>
<path d="M50.1121 40.1208C50.1121 41.1241 51.0351 43.328 51.4712 44.2618C51.9074 45.1955 52.7594 49.4685 53.0535 50.93C53.3477 52.3916 54.0678 57.7099 54.6764 59.6383C55.285 61.5667 55.3661 62.1351 54.8184 61.6885C54.2707 61.242 53.2767 58.2783 52.8913 56.9385C52.5058 55.5988 49.2297 48.1186 48.9102 46.7027C48.5907 45.2869 47.2822 43.6579 47.2822 42.851C47.2822 42.0441 47.3279 40.5673 48.2255 39.9888C49.1232 39.4103 50.1121 39.0652 50.1121 40.1208Z" fill="#28839F" fill-opacity="0.2"/>
<path d="M57.8714 60.6334C56.867 58.9583 56.6999 53.2801 56.4717 51.5901C56.2435 49.9003 55.9849 44.8001 55.9696 43.7801C55.9544 42.76 56.137 42.8362 56.3348 43.8105C56.5326 44.7849 56.8977 47.6623 57.1868 49.3217C57.4759 50.9812 57.8106 56.6446 58.0084 57.8778C58.2061 59.111 58.054 60.9379 57.8714 60.6334Z" fill="#28839F" fill-opacity="0.2"/>
<path d="M26.3473 49.0318C26.2864 47.9661 26.256 43.8251 26.3777 42.5767C26.4994 41.3283 25.9974 37.8571 26.2256 36.5478C26.4538 35.2385 25.677 31.7404 25.9517 30.7017C26.1543 29.9357 27.9002 29.9903 29.2177 32.2444C29.8466 33.3203 30.516 34.7615 30.9623 35.6547C31.4086 36.5478 32.6055 39.9378 32.3012 41.5414C31.9969 43.145 32.3215 44.4239 33.5183 45.4388C35.1428 46.8164 33.0916 47.406 31.8549 47.8443C30.3943 48.3619 28.599 50.6456 28.0817 51.6503C27.5644 52.6552 25.9669 53.5229 26.1647 52.1071C26.3625 50.6912 26.3473 49.0318 26.3473 49.0318Z" fill="#28839F" fill-opacity="0.2"/>
</g>
<defs>
<clipPath id="clip0_4055_6054">
<rect width="61" height="48" fill="white"/>
</clipPath>
</defs>
</svg>
