<svg width="61" height="48" viewBox="0 0 61 48" fill="none" xmlns="http://www.w3.org/2000/svg">
<g clip-path="url(#clip0_4050_4005)">
<path d="M35.808 141.241C35.6244 141.241 35.4761 141.133 35.3327 141.03C35.2137 140.944 35.1014 140.862 34.9936 140.862C34.9749 140.862 34.9568 140.865 34.9381 140.869C34.8153 140.901 34.7477 140.954 34.6695 141.015C34.5589 141.102 34.4335 141.2 34.1792 141.2C34.1624 141.2 34.1449 141.199 34.1267 141.198C33.8895 141.187 33.7413 141.087 33.6105 140.998C33.49 140.917 33.3949 140.853 33.2359 140.853C33.2264 140.853 33.2166 140.853 33.2066 140.853C33.0397 140.861 32.9434 140.918 32.8215 140.989C32.6689 141.079 32.496 141.18 32.1731 141.198C32.1507 141.2 32.1286 141.2 32.1068 141.2C31.8053 141.2 31.5461 141.085 31.3174 140.983C31.1252 140.898 30.9437 140.817 30.7627 140.813L30.7478 140.813C30.5631 140.813 30.336 140.888 30.0956 140.967C29.7967 141.066 29.458 141.178 29.1065 141.178L29.0798 141.178C28.2324 141.165 27.7509 140.728 27.6486 139.881C27.5943 139.432 27.7434 138.945 27.8876 138.475C28.0544 137.931 28.2268 137.369 28.0979 136.853C27.8256 135.763 27.6691 134.36 27.7085 133.363C27.7356 132.679 27.523 131.757 27.3355 130.944C27.2452 130.552 27.1599 130.183 27.1019 129.85C26.9806 129.156 27.4886 127.938 27.9368 126.863C28.1822 126.275 28.414 125.719 28.4607 125.421C28.5617 124.775 28.4463 121.256 28.3843 119.364L28.3752 119.087C28.3236 118.717 28.2718 118.323 28.2206 117.933C28.0812 116.871 27.9495 115.868 27.8348 115.439L27.7487 115.118C27.4431 113.982 26.9838 112.275 26.9829 111.678C26.8771 111.402 26.7228 110.993 26.5649 110.528C26.1839 110.059 25.9068 109.027 25.7414 107.46C25.4799 104.984 25.7685 101.507 26.068 100.05C26.2187 99.3166 26.4544 98.4292 26.6624 97.6463C26.861 96.8987 27.0486 96.1927 27.1221 95.7704C27.1979 95.336 27.2148 95.0903 27.225 94.9435C27.2316 94.8479 27.236 94.7843 27.2548 94.7336C27.2295 94.5986 27.2022 94.4458 27.173 94.2816C27.0293 93.4761 26.8327 92.3728 26.5767 91.8023C26.2395 91.0508 25.7967 88.8111 25.6077 87.8546L25.6012 87.8222C25.541 87.5174 25.4858 87.0066 25.4371 86.304C25.3449 85.5479 25.3165 84.6385 25.2977 84.0368L25.2944 83.9329C25.2853 83.6472 25.2854 83.0758 25.3458 82.8629C25.3379 82.6833 25.3077 82.5179 25.2224 82.1806C25.1335 81.8289 25.0739 81.4488 25.0049 81.0087C24.9713 80.7947 24.9355 80.5662 24.8929 80.32C24.8489 80.1636 24.8203 80.0078 24.8085 79.8565C24.7286 79.4462 24.6689 79.2524 24.6163 79.0812C24.5541 78.879 24.5 78.7029 24.4336 78.2626C24.3463 78.1421 24.2935 77.6902 24.1415 75.9965C24.0812 75.3247 24.0188 74.63 23.9564 74.1096C23.923 73.8313 23.9031 73.4741 23.8973 73.0477C23.8382 72.9257 23.759 72.8016 23.6754 72.6707C23.5817 72.5238 23.485 72.3723 23.397 72.1966C23.0435 71.8658 22.69 70.0393 22.6326 69.5415C22.5032 68.4192 21.6819 63.4697 21.2073 61.8917C20.6655 60.0905 21.0365 56.4604 21.0806 56.0524C21.0955 55.9138 21.1093 55.7766 21.1228 55.6418C21.1805 55.0654 21.2351 54.5197 21.3665 54.1003C21.2286 53.8427 20.5884 53.7272 20.2776 53.7272H20.1153C19.8069 53.7272 19.1741 53.841 19.0271 54.1024C19.1581 54.5218 19.2127 55.0671 19.2703 55.6429C19.2837 55.7774 19.2975 55.9142 19.3124 56.0525C19.3565 56.4605 19.7275 60.0908 19.1856 61.8917C18.7111 63.4697 17.8897 68.4192 17.7603 69.5415C17.7029 70.0393 17.3494 71.8658 16.9961 72.1966C16.908 72.3723 16.8113 72.5237 16.7177 72.6704C16.6341 72.8014 16.5548 72.9256 16.4957 73.0477C16.4899 73.4736 16.47 73.8307 16.4366 74.1096C16.3742 74.6301 16.3118 75.325 16.2515 75.997C16.0995 77.6904 16.0467 78.1422 15.9594 78.2627C15.893 78.7029 15.8388 78.879 15.7766 79.0812C15.7241 79.2523 15.6645 79.4461 15.5845 79.8565C15.5727 80.0076 15.5441 80.1637 15.497 80.3332C15.4575 80.5659 15.4218 80.7941 15.3882 81.008C15.3192 81.4484 15.2596 81.8287 15.1706 82.1807C15.0995 82.4617 15.068 82.6185 15.0542 82.7623C15.088 82.9083 15.0922 83.2025 15.0964 83.6885L15.0987 83.9271C15.1056 84.5692 15.0694 85.6191 14.944 86.4651C14.8989 87.0812 14.8473 87.5412 14.7917 87.8221L14.7859 87.8513C14.5968 88.8084 14.1539 91.0499 13.8162 91.8024C13.5602 92.3729 13.3635 93.4765 13.2199 94.2823C13.1907 94.4462 13.1635 94.5989 13.1383 94.7336C13.157 94.7842 13.1614 94.8479 13.168 94.9435C13.1781 95.0902 13.1951 95.3359 13.2709 95.7704C13.3445 96.1928 13.5321 96.8993 13.7308 97.6472C13.9387 98.4299 14.1744 99.3169 14.325 100.05C14.6245 101.507 14.9131 104.984 14.6516 107.46C14.5312 108.6 14.2819 110.071 13.7763 110.651C13.6173 111.126 13.4822 111.489 13.4101 111.678C13.4092 112.276 12.9495 113.984 12.6436 115.12L12.5582 115.439C12.4436 115.868 12.312 116.87 12.1727 117.931C12.1214 118.322 12.0695 118.717 12.0178 119.087L12.0086 119.369C11.9466 121.259 11.8314 124.776 11.9323 125.421C11.979 125.719 12.2108 126.275 12.4561 126.863C12.9044 127.937 13.4124 129.156 13.2911 129.85C13.233 130.183 13.1478 130.552 13.0575 130.944C12.87 131.757 12.6574 132.679 12.6844 133.363C12.724 134.36 12.5675 135.763 12.2951 136.853C12.1661 137.369 12.3386 137.931 12.5054 138.475C12.6496 138.945 12.7987 139.432 12.7444 139.881C12.6421 140.728 12.1605 141.165 11.3132 141.178L11.2865 141.178C10.9349 141.178 10.5962 141.066 10.2974 140.967C10.0569 140.888 9.82987 140.813 9.64515 140.813L9.63026 140.813C9.44931 140.817 9.26777 140.898 9.0756 140.983C8.84694 141.085 8.58772 141.2 8.28618 141.2C8.26432 141.2 8.24219 141.2 8.21986 141.198C7.89692 141.18 7.72408 141.079 7.57151 140.989C7.44957 140.918 7.35329 140.861 7.18636 140.853C7.17633 140.853 7.16663 140.853 7.15706 140.853C6.99811 140.853 6.90296 140.917 6.78249 140.998C6.65173 141.087 6.50347 141.187 6.26631 141.198C6.2481 141.199 6.23063 141.2 6.21387 141.2C5.95951 141.2 5.83412 141.102 5.72348 141.015C5.6452 140.954 5.57762 140.901 5.45482 140.869C5.43615 140.865 5.41801 140.862 5.39934 140.862C5.29156 140.862 5.17926 140.944 5.06032 141.03C4.91692 141.133 4.7686 141.241 4.585 141.241C4.57105 141.241 4.55695 141.24 4.54287 141.239C4.31103 141.217 4.19068 141.12 4.08449 141.034C4.01951 140.981 3.96343 140.936 3.88056 140.906C3.87012 140.903 3.85857 140.901 3.84541 140.901C3.77112 140.901 3.66168 140.957 3.54585 141.018C3.37316 141.107 3.15812 141.219 2.91232 141.219C2.38438 141.219 2.11413 140.956 1.9484 140.283C1.78195 139.606 1.92828 138.508 2.46127 137.841C2.59888 137.669 2.8179 137.406 3.07154 137.102C3.71969 136.326 4.60745 135.262 4.98988 134.684C5.5234 133.878 5.7397 132.436 5.42652 131.773C5.0263 130.924 4.9423 130.132 5.17686 129.419L5.256 129.18C5.47521 128.52 5.70195 127.838 5.79989 127.009C5.88043 126.327 5.84422 124.675 5.77631 123.422C5.71258 123.141 5.66082 122.844 5.62254 122.541C5.40386 120.809 4.40823 113.308 3.8902 110.982C3.40306 108.796 2.63151 104.788 2.50266 102.709C2.38891 100.874 2.51935 99.6794 2.59729 98.9653L2.61476 98.8041C2.64154 98.5523 2.71364 98.0655 2.76307 97.8386C2.85995 97.3436 2.99578 96.8844 3.11558 96.4792C3.18568 96.2419 3.252 96.0176 3.3027 95.8125C3.33453 95.5636 3.41355 94.9963 3.49681 94.7995L3.50817 94.7416C3.59316 94.3099 3.68937 93.821 3.73862 93.3669C3.73696 93.0803 3.74407 92.8113 3.76022 92.5454C3.67523 91.6107 3.64015 88.0807 3.75031 86.467C3.82235 85.4118 4.10595 83.8521 4.33381 82.5987C4.45542 81.9297 4.56046 81.3519 4.59276 81.0615C4.63217 80.7062 4.61163 80.2035 4.53189 79.5669L4.53076 79.5641C3.55854 77.1696 2.57208 74.6621 2.13026 72.6406C1.90838 71.6258 1.86573 69.8474 1.82446 68.1276C1.78619 66.5334 1.74664 64.8849 1.56164 63.9496C1.18799 62.0608 1.13523 58.7931 1.18966 57.1771C1.17018 56.8139 1.227 56.0759 1.25969 55.752C1.23956 55.6892 1.24606 55.6104 1.25583 55.5326C1.28135 55.328 1.30627 54.877 1.33783 54.306C1.41863 52.845 1.54063 50.6371 1.8366 49.3975C2.23476 47.7301 2.98956 43.294 2.95879 41.8805C2.92763 40.4441 3.6613 37.3711 4.20293 35.7049C4.31484 35.2321 4.51385 34.4929 4.68948 33.8408C4.78463 33.4872 4.87162 33.1642 4.93155 32.9323C4.96797 32.4865 5.0806 32.0356 5.17489 31.6916C5.30387 31.2214 5.21543 30.6558 5.11302 30.0008C5.00072 29.2826 4.86092 28.3887 4.96783 27.3292C5.14518 25.5721 5.34127 24.6917 5.4745 24.2626C5.51837 24.1049 5.57398 23.9428 5.63292 23.7712C5.76489 23.3867 5.90132 22.9892 5.9275 22.5621C5.86425 21.8941 5.86543 21.1232 5.93015 20.7173C5.935 19.8476 5.92969 18.8705 5.85506 18.2009C5.82881 18.0705 5.80382 17.9149 5.78236 17.7498C5.65059 17.1448 5.38705 16.528 5.19462 16.0776C5.13137 15.9297 5.07575 15.7995 5.03143 15.6862C4.86563 15.5659 4.80065 15.2181 4.68369 14.5926C4.5997 14.1435 4.49517 13.5846 4.32374 13.0097C3.9879 11.884 3.3139 8.94883 3.06452 7.41083C3.02964 7.3996 2.99634 7.39361 2.96718 7.39361C2.93807 7.39361 2.92465 7.39965 2.92126 7.40152C2.90644 7.4095 2.88703 7.42506 2.8681 7.46815C2.91469 7.75028 2.81249 8.70559 2.74311 9.28229C2.66868 9.90107 2.28141 11.1329 1.83308 12.5592C1.06639 14.998 0.112173 18.0332 0.187851 19.6429C0.289183 21.7977 -0.458639 23.4119 -0.850098 23.732C-0.925653 24.118 -0.987982 24.5306 -1.04838 24.9302C-1.10918 25.3328 -1.17211 25.7492 -1.24926 26.1452C-1.33757 26.7594 -1.52058 27.4667 -1.80751 28.3007C-2.09596 29.1393 -2.94585 31.209 -4.08121 33.8379C-4.23178 34.3254 -4.39903 34.8601 -4.57594 35.4256C-5.7166 39.072 -7.27876 44.066 -7.31804 45.839C-7.32927 46.3472 -7.04466 47.1247 -6.5746 48.3448C-6.05304 49.6987 -6.14328 52.3576 -7.33791 54.6184C-7.84612 55.5803 -8.29618 57.0508 -8.73148 58.4729C-9.15423 59.8543 -9.55366 61.1591 -9.94805 61.7459C-10.1829 62.0953 -10.426 62.2725 -10.6705 62.2725C-10.9205 62.2725 -11.1086 62.091 -11.2358 61.9047C-11.4335 62.9165 -11.8918 64.7305 -12.6535 64.8691C-12.7081 64.8791 -12.7618 64.8841 -12.8131 64.8841C-13.1883 64.8841 -13.4615 64.6246 -13.5989 64.1552C-13.8362 64.9643 -14.2707 66.049 -14.8954 66.049L-14.9156 66.0487C-15.7948 66.0165 -15.8207 64.8615 -15.7807 63.56C-15.8504 63.5989 -15.9292 63.619 -16.0153 63.619C-16.5911 63.619 -17.2832 62.7539 -17.4125 61.8723C-17.7323 59.6905 -17.5204 57.0768 -17.3657 55.1683C-17.2896 54.2305 -17.2112 53.2636 -17.2757 52.9902C-17.3943 53.0998 -17.5454 53.2957 -17.7182 53.5195C-18.0427 53.9398 -18.4464 54.4629 -18.92 54.7888C-19.3043 55.0533 -19.7623 55.1931 -20.2445 55.1931C-21.0014 55.1931 -21.6675 54.8512 -21.8284 54.3801C-21.8892 54.2021 -21.924 53.8515 -21.4742 53.5032C-20.3021 52.5955 -18.0555 49.3164 -17.2569 47.348C-16.7244 46.0353 -15.7435 45.6003 -14.9553 45.2506C-14.4848 45.0419 -14.0784 44.8617 -13.8782 44.5452C-13.4153 43.8137 -12.7142 40.251 -11.7944 33.9564C-11.7573 30.5402 -11.7028 27.0635 -11.4841 25.3566C-11.071 22.132 -9.71915 18.214 -8.53209 16.8009C-8.36225 16.5988 -8.21067 16.415 -8.07525 16.2507C-7.66413 15.7522 -7.40995 15.444 -7.21806 15.3133C-7.04774 15.0851 -6.90229 14.6571 -6.78547 14.0405C-7.05073 10.0824 -6.20092 6.69776 -5.51157 5.55674L-5.47483 5.49636C-5.39516 5.22308 -5.28404 4.87519 -5.16657 4.50735L-5.12531 4.37782L-5.10312 4.24908C-4.91924 3.1818 -5.056 1.67979 -5.21435 -0.0594063C-5.24904 -0.44054 -5.28459 -0.83099 -5.31769 -1.22789C-5.52548 -3.72264 -5.21177 -5.71917 -4.33044 -7.51102C-4.07947 -8.12064 -3.60648 -8.90759 -3.15495 -9.46486C-1.15409 -12.9725 2.898 -14.4286 4.62483 -14.4286C4.73739 -14.4286 4.83913 -14.4218 4.92758 -14.4084C4.96957 -14.4106 5.01383 -14.4115 5.06028 -14.4115C5.24268 -14.4115 5.45983 -14.3963 5.68975 -14.3803C5.96924 -14.3608 6.28595 -14.3387 6.60948 -14.3386C6.75899 -14.4639 7.08951 -14.5793 7.69121 -14.7825C8.12054 -14.9275 8.65492 -15.108 9.18918 -15.3312C10.434 -15.8509 11.9703 -16.8051 12.8422 -17.6C13.1112 -17.8453 13.2788 -17.9748 13.3978 -18.0277C13.4804 -18.1427 13.5682 -18.2573 13.659 -18.3758C14.0005 -18.8212 14.387 -19.3251 14.4924 -19.8429C14.4584 -20.1425 14.4465 -21.7888 14.5587 -22.8709C14.5461 -23.0441 14.5332 -23.1313 14.5247 -23.1742C14.5087 -23.2544 14.4954 -23.3358 14.4818 -23.4197C14.4192 -23.8038 14.3484 -24.239 13.9365 -24.8532C13.585 -25.3775 13.4875 -26.5959 13.4677 -27.5256C13.464 -27.7054 13.3175 -27.8516 13.1413 -27.8516C13.1183 -27.8516 13.0951 -27.8491 13.0722 -27.8441C12.9674 -27.8212 12.8577 -27.8091 12.7549 -27.8091C12.478 -27.8091 12.2492 -27.8932 12.0933 -28.0523C11.9324 -28.2163 11.8538 -28.4521 11.8595 -28.7531C11.8795 -29.805 11.6657 -30.4152 11.477 -30.9537C11.3819 -31.2252 11.2921 -31.4817 11.238 -31.7703C11.1419 -32.2832 11.0834 -32.9728 11.3503 -33.3455C11.4553 -33.4921 11.5993 -33.5794 11.7785 -33.605C11.8223 -33.6113 11.8675 -33.6144 11.9127 -33.6144C12.0613 -33.6144 12.2166 -33.5805 12.3744 -33.5135C12.396 -33.5044 12.4183 -33.4997 12.4405 -33.4997C12.4885 -33.4997 12.536 -33.5213 12.5708 -33.5588C12.6065 -33.5972 12.624 -33.6472 12.62 -33.6995C12.5044 -35.2383 12.3988 -39.0272 13.9118 -40.9685C15.7107 -43.2766 18.4774 -43.7442 19.5836 -43.8381C19.7266 -43.8502 19.8991 -43.8633 20.1375 -43.8633C20.3163 -43.8633 20.5101 -43.8556 20.7137 -43.8404C21.8401 -43.7567 24.6567 -43.3092 26.481 -40.9685C27.9939 -39.0272 27.8883 -35.2383 27.7727 -33.6994C27.7688 -33.6472 27.7862 -33.5972 27.8219 -33.5587C27.8567 -33.5212 27.9042 -33.4997 27.9522 -33.4997C27.9746 -33.4997 27.9968 -33.5044 28.0184 -33.5135C28.1762 -33.5805 28.3315 -33.6144 28.48 -33.6144C28.5252 -33.6144 28.5704 -33.6113 28.6143 -33.605C28.7934 -33.5794 28.9374 -33.4921 29.0424 -33.3455C29.3093 -32.9728 29.2508 -32.2832 29.1548 -31.7703C29.1007 -31.4817 29.0108 -31.2253 28.9157 -30.9538C28.7271 -30.4153 28.5133 -29.805 28.5333 -28.7531C28.539 -28.4521 28.4604 -28.2162 28.2995 -28.0522C28.1435 -27.8932 27.9147 -27.8091 27.6379 -27.8091C27.535 -27.8091 27.4253 -27.8212 27.3205 -27.8441C27.2976 -27.8491 27.2744 -27.8516 27.2514 -27.8516C27.0753 -27.8516 26.9288 -27.7054 26.925 -27.5256C26.9052 -26.5959 26.8078 -25.3775 26.4563 -24.8531C26.0445 -24.2391 25.9736 -23.8038 25.911 -23.4198C25.8974 -23.3359 25.8841 -23.2544 25.868 -23.1743C25.8594 -23.1309 25.8466 -23.0433 25.8341 -22.871C25.9463 -21.7885 25.9344 -20.1424 25.9004 -19.8429C26.0057 -19.3251 26.3922 -18.8212 26.7337 -18.3758C26.8259 -18.2556 26.915 -18.1393 26.9952 -18.0276C27.1142 -17.9746 27.2817 -17.8452 27.5506 -17.6C28.4224 -16.8052 29.9586 -15.851 31.2035 -15.3312C31.7378 -15.108 32.2722 -14.9275 32.7016 -14.7825C33.3033 -14.5793 33.6338 -14.4639 33.7833 -14.3386C34.1068 -14.3387 34.4235 -14.3608 34.703 -14.3803C34.9329 -14.3963 35.1501 -14.4115 35.3325 -14.4115C35.3789 -14.4115 35.4231 -14.4106 35.4651 -14.4084C35.5536 -14.4218 35.6553 -14.4286 35.7679 -14.4286C37.4947 -14.4286 41.5468 -12.9725 43.5477 -9.46493C43.9993 -8.90745 44.4723 -8.12045 44.7269 -7.50286C45.6045 -5.71931 45.9182 -3.72279 45.7104 -1.22791C45.6773 -0.830608 45.6418 -0.439899 45.607 -0.0584259C45.4487 1.68037 45.312 3.18198 45.4959 4.24906L45.5253 4.41974L45.5274 4.42632C45.6457 4.80639 45.7576 5.16579 45.8365 5.44507L45.9043 5.55677C46.6012 6.71023 47.4546 10.1262 47.1739 14.1142C47.287 14.6961 47.431 15.0974 47.6024 15.3079C47.7958 15.4356 48.053 15.7475 48.4698 16.253C48.6048 16.4166 48.7558 16.5996 48.9248 16.8009C50.1119 18.2139 51.4637 22.1319 51.8768 25.3565C52.0955 27.0635 52.1501 30.5401 52.1871 33.9563C53.1069 40.251 53.808 43.8137 54.271 44.5452C54.4712 44.8617 54.8776 45.0419 55.348 45.2506C56.1363 45.6002 57.1171 46.0353 57.6497 47.3479C58.4483 49.3164 60.6949 52.5954 61.867 53.5032C62.3168 53.8515 62.282 54.2021 62.2212 54.3801C62.0603 54.8512 61.3942 55.193 60.6373 55.193C60.1551 55.193 59.697 55.0533 59.3128 54.7888C58.8393 54.4629 58.4355 53.9398 58.1111 53.5197C57.9384 53.2958 57.7871 53.0999 57.6685 52.9902C57.6041 53.2637 57.6825 54.2303 57.7585 55.1678C57.9132 57.0764 58.1251 59.6904 57.8053 61.8722C57.6761 62.7538 56.984 63.6189 56.4081 63.6189C56.3221 63.6189 56.2432 63.5988 56.1736 63.56C56.2135 64.8614 56.1875 66.0164 55.3083 66.0486L55.2881 66.0489C54.6635 66.0489 54.2289 64.9642 53.9917 64.1552C53.8543 64.6245 53.5811 64.884 53.206 64.884C53.1546 64.884 53.1009 64.879 53.0464 64.8691C52.2843 64.7304 51.8262 62.9164 51.6285 61.9046C51.5014 62.0909 51.3134 62.2725 51.0633 62.2725C50.8188 62.2725 50.5756 62.0953 50.3408 61.7458C49.9464 61.159 49.547 59.8542 49.1242 58.4728C48.6889 57.0508 48.2389 55.5803 47.7307 54.6184C46.536 52.3575 46.4458 49.6986 46.9674 48.3448C47.4375 47.1246 47.7221 46.347 47.7108 45.839C47.6715 44.066 46.1094 39.0721 44.9688 35.4257C44.7919 34.8602 44.6246 34.3255 44.474 33.8379C43.3387 31.2088 42.4888 29.1391 42.2003 28.3006C41.9133 27.4667 41.7304 26.7594 41.6409 26.1383C41.5649 25.7492 41.502 25.333 41.4413 24.9307C41.3809 24.5309 41.3186 24.1181 41.2429 23.7319C40.8514 23.4117 40.1037 21.7975 40.2049 19.6428C40.2807 18.0331 39.3265 14.9979 38.5597 12.559C38.1113 11.1327 37.7241 9.901 37.6497 9.28222C37.5803 8.70552 37.4782 7.75021 37.5247 7.46808C37.5059 7.425 37.4865 7.40943 37.4717 7.40145C37.4682 7.39959 37.4548 7.39354 37.4256 7.39354C37.3965 7.39354 37.3631 7.39952 37.3283 7.41077C37.0791 8.94822 36.405 11.8835 36.0691 13.0096C35.8976 13.5846 35.7931 14.1435 35.7092 14.5926C35.5922 15.2181 35.5271 15.5658 35.3614 15.6862C35.317 15.7995 35.2614 15.9296 35.1982 16.0775C35.0058 16.5278 34.7422 17.1446 34.6086 17.761C34.5891 17.914 34.5641 18.0696 34.536 18.2121C34.4631 18.8705 34.4578 19.8475 34.4626 20.7172C34.5274 21.123 34.5286 21.8941 34.4653 22.562C34.4915 22.9892 34.6279 23.3866 34.7599 23.7711C34.8188 23.9426 34.8744 24.1047 34.9194 24.2662C35.0516 24.6917 35.2476 25.5722 35.425 27.3292C35.5319 28.3886 35.3921 29.2824 35.2798 30.0006C35.1774 30.6556 35.0889 31.2213 35.218 31.6916C35.3123 32.0353 35.4248 32.4861 35.4612 32.9321C35.5211 33.1636 35.6078 33.4858 35.7028 33.8386C35.8786 34.4915 36.0778 35.2315 36.1928 35.7155C36.7315 37.3709 37.4651 40.4439 37.434 41.8804C37.4033 43.2935 38.158 47.7298 38.5562 49.3974C38.8521 50.6369 38.9742 52.8444 39.055 54.3052C39.0865 54.8766 39.1114 55.3279 39.137 55.5325C39.1468 55.6103 39.1533 55.6892 39.1331 55.752C39.1659 56.0755 39.2226 56.8132 39.203 57.1886C39.2576 58.7926 39.2049 62.06 38.8312 63.9495C38.6461 64.8848 38.6066 66.5331 38.5684 68.1272C38.5271 69.8472 38.4844 71.6257 38.2625 72.6405C37.8208 74.6617 36.8343 77.1693 35.8619 79.5646L35.8609 79.5671C35.7811 80.2035 35.7607 80.7061 35.8001 81.0614C35.8323 81.3518 35.9373 81.9295 36.059 82.5985C36.2868 83.8519 36.5705 85.4117 36.6425 86.4669C36.753 88.0858 36.7174 91.631 36.6321 92.5483C36.6486 92.8051 36.6559 93.0772 36.6543 93.3669C36.7035 93.821 36.7997 94.3102 36.8847 94.7419L36.896 94.7994C36.9792 94.996 37.0583 95.5635 37.0902 95.8126C37.1408 96.0174 37.2071 96.2414 37.2772 96.4784C37.4348 97.0116 37.6135 97.6158 37.7052 98.2919C37.7349 98.4614 37.7617 98.65 37.778 98.8041L37.7955 98.9652C37.8735 99.6793 38.0039 100.874 37.8901 102.709C37.7614 104.788 36.9898 108.795 36.5026 110.982C35.9839 113.31 34.9888 120.809 34.7703 122.541C34.732 122.844 34.6803 123.141 34.6166 123.422C34.5486 124.674 34.5123 126.327 34.593 127.009C34.691 127.839 34.9179 128.521 35.1372 129.181L35.216 129.418C35.4505 130.132 35.3665 130.924 34.9663 131.772C34.6531 132.436 34.8695 133.878 35.403 134.684C35.7856 135.262 36.6736 136.326 37.3221 137.103C37.5754 137.407 37.7941 137.669 37.9316 137.841C38.4645 138.508 38.6109 139.606 38.4444 140.283C38.2787 140.956 38.0085 141.219 37.4805 141.219C37.2347 141.219 37.0197 141.107 36.847 141.018C36.7312 140.957 36.6217 140.901 36.5474 140.901C36.5342 140.901 36.5227 140.902 36.5122 140.906C36.4294 140.936 36.3733 140.981 36.3083 141.034C36.2021 141.12 36.0818 141.217 35.8499 141.238C35.8358 141.24 35.822 141.241 35.808 141.241Z" fill="white" stroke="#28839F" stroke-width="0.504915"/>
<path d="M-1.77467 0.67463C-1.80375 0.691353 -1.84034 0.674452 -1.84613 0.641388C-2.25908 -1.72437 -5.31511 -4.78094 -3.29564 -8.91304C-1.25684 -13.0846 3.61193 -14.4853 4.92041 -14.2722C6.16095 -14.0701 9.42557 -11.9247 10.9541 -11.469C11.0037 -11.4542 10.9974 -11.3803 10.9458 -11.375C8.75793 -11.1511 6.92201 -11.0851 4.75134 -9.55755C2.49514 -7.96979 2.94965 -5.95941 2.46278 -4.40648C1.97979 -2.86595 0.713456 -0.756095 -1.77467 0.67463Z" fill="#28839F" fill-opacity="0.2"/>
<path d="M2.5086 -3.31055C1.85943 -0.894876 -0.881787 0.27236 -3.1133 7.67163C-3.75052 9.78457 -4.53855 16.4714 -4.51307 19.0801C-4.50356 20.0548 -3.73204 18.8162 -3.73204 18.8162C-3.73204 18.8162 1.79604 10.879 2.48578 6.90024C3.17552 2.92149 2.5086 -3.31055 2.5086 -3.31055Z" fill="#28839F" fill-opacity="0.2"/>
<path d="M0.0923386 0.0185547C-0.601837 0.827369 -2.99121 5.2153 -3.63887 7.84498C-4.20479 10.1427 -5.11248 15.5005 -5.17835 19.919C-5.17997 20.0275 -5.33065 20.0533 -5.36965 19.952C-7.80697 13.623 -6.32754 7.16947 -5.39517 5.62637C-4.60513 4.31887 -2.79849 1.50044 0.0923386 0.0185547Z" fill="#28839F" fill-opacity="0.2"/>
<path d="M-2.90977 18.6336C-3.27112 19.2866 -1.69258 20.7753 -1.08397 23.5868C-0.980017 24.0671 0.173785 22.2368 0.0520678 19.6486C-0.0696499 17.0604 2.41038 10.9096 2.60817 9.26528C2.80596 7.621 2.72988 7.46875 2.72988 7.46875C0.392818 13.3802 -0.820262 14.8579 -2.90977 18.6336Z" fill="#28839F" fill-opacity="0.2"/>
<path d="M16.5857 -11.1057C14.7695 -11.5652 10.9826 -11.162 9.36373 -10.9433C6.58448 -10.5677 4.49631 -9.35856 3.76466 -8.02012C3.11549 -6.83259 2.64953 -4.04481 3.15605 -3.47297C4.73841 -1.68659 4.02838 3.42897 9.60718 6.02734C11.4743 6.89697 17.4581 6.34199 18.371 5.27625C19.2838 4.21051 19.649 -0.996389 19.3447 -3.98047C19.0404 -6.96453 18.3912 -10.6489 16.5857 -11.1057Z" fill="#28839F" fill-opacity="0.2"/>
<path d="M18.7968 6.34182C19.3531 7.34388 19.8162 9.18886 19.8314 10.3307C19.8466 11.4726 19.2989 11.6248 18.5838 11.975C17.8687 12.3252 14.5366 14.0557 13.6237 14.8373C12.6956 15.6318 12.1631 16.1314 11.9805 14.5632C11.7979 12.9951 11.5697 11.2747 11.8588 9.59993C12.1479 7.9252 12.437 7.27052 13.1977 7.04215C13.9585 6.81378 14.9094 6.86707 16.0885 6.63108C17.2505 6.39853 18.5686 5.93074 18.7968 6.34182Z" fill="#28839F" fill-opacity="0.2"/>
<path d="M18.6598 12.5919C14.4225 14.1829 12.5372 16.6776 12.1428 17.4156C11.6762 18.2885 11.9178 20.3947 12.0515 20.76C12.1833 21.1203 13.1894 21.1591 14.0801 20.9681C15.3582 20.6941 17.6708 20.3997 18.4924 20.2982C19.314 20.1967 19.8111 19.202 19.8516 18.2682C19.8922 17.3344 19.9226 14.391 19.8516 13.8023C19.7806 13.2136 19.4254 12.3044 18.6598 12.5919Z" fill="#28839F" fill-opacity="0.2"/>
<path d="M18.695 20.9285C17.485 20.7969 13.6741 21.5984 12.9945 21.9232C12.3149 22.248 11.7773 22.8976 11.757 23.7502C11.7368 24.6028 11.9802 26.2471 12.2033 26.7343C12.4265 27.2215 13.1771 27.668 14.232 27.7087C15.2869 27.7492 17.4778 27.9117 18.4516 27.7696C19.4253 27.6274 19.6586 26.6734 19.7297 25.5975C19.8007 24.5216 19.8514 23.0904 19.7499 22.1262C19.6485 21.162 19.1616 20.9793 18.695 20.9285Z" fill="#28839F" fill-opacity="0.2"/>
<path d="M10.134 6.59506C9.26948 6.44077 6.8802 5.04092 5.99558 4.40268C4.61854 3.40919 4.99213 8.06848 7.82138 8.01605C8.91684 7.99575 9.78917 7.4299 10.2152 7.20913C10.6412 6.98837 10.5322 6.66612 10.134 6.59506Z" fill="#28839F" fill-opacity="0.2"/>
<path d="M5.81457 8.2951C5.90206 9.05634 6.09514 9.60849 6.46754 10.2832C6.89609 11.0597 9.53334 9.2124 9.70951 8.77849C9.8932 8.32602 9.3002 7.95635 8.70899 8.12763C7.90191 8.36143 6.8758 8.21898 6.33187 7.8041C5.7816 7.38437 5.77112 7.91696 5.81457 8.2951Z" fill="#28839F"/>
<path d="M9.85018 9.16396C9.40507 9.54974 8.53155 10.1333 7.65923 10.5393C6.85156 10.9152 6.90356 11.2853 7.12164 11.5695C7.33972 11.8537 8.70398 12.6149 9.20101 12.8382C9.69803 13.0615 10.5196 12.8788 10.6768 12.4018C10.9427 11.595 10.7714 8.36554 9.85018 9.16396Z" fill="#28839F"/>
<path d="M6.09739 14.5742C6.27998 15.1324 7.48702 15.9546 8.21734 16.4215C8.94765 16.8884 9.95691 17.4314 10.2967 17.1624C10.6365 16.8934 10.6467 14.3255 10.3981 13.7622C10.1496 13.1989 9.59682 13.2953 8.93751 13.0821C8.24108 12.857 8.06167 12.4808 7.29431 12.4173C6.68064 12.3666 5.84359 13.7981 6.09739 14.5742Z" fill="#28839F"/>
<path d="M7.15706 16.071C7.60042 16.3853 9.8653 17.5935 10.2609 17.8371C10.6565 18.0807 10.8543 18.9333 10.976 19.9229C11.0977 20.9125 11.0233 22.0801 10.6108 22.2371C9.53058 22.6482 6.76056 19.643 6.40391 19.2378C5.95508 18.7278 5.86379 17.3727 5.83336 16.7257C5.79308 15.8692 6.42674 15.5534 7.15706 16.071Z" fill="#28839F"/>
<path d="M7.11137 20.4556C7.8721 21.2929 9.67508 22.4729 10.1087 22.8459C10.5423 23.2189 10.5727 24.6805 10.5651 25.358C10.5575 26.0355 9.88047 26.5607 9.42402 26.4389C8.96758 26.3171 6.6473 24.0867 6.3354 23.6985C6.0235 23.3102 5.94743 21.3005 6.07675 20.6687C6.20608 20.0369 6.59009 19.8818 7.11137 20.4556Z" fill="#28839F"/>
<path d="M18.0459 28.621C16.6259 28.6104 13.7756 28.4586 13.096 28.3571C12.4164 28.2556 11.8281 28.9864 11.9803 29.9405C12.1324 30.8946 12.7106 34.6906 13.9278 38.5273C15.145 42.3639 16.0376 44.739 17.2345 45.8149C18.4314 46.8908 18.7154 48.1494 19.3138 48.058C19.9123 47.9667 19.9148 45.5536 19.9224 44.602C19.929 43.7872 20.0036 30.9808 19.7931 30.5647C19.5733 30.13 19.1389 29.8529 18.884 29.5979C18.6118 29.3255 18.7255 28.626 18.0459 28.621Z" fill="#28839F" fill-opacity="0.2"/>
<path d="M6.64502 24.4186C7.31026 25.174 8.82582 26.4993 9.44456 27.0575C10.0633 27.6158 10.8443 29.8995 11.0878 30.9957C11.3312 32.0919 11.2704 33.5129 10.9458 34.6497C10.6212 35.7865 11.0269 36.3549 10.824 37.2886C10.6212 38.2224 9.52571 38.872 9.0794 38.1818C8.6331 37.4916 6.90875 35.3399 5.83357 34.7309C4.75837 34.1219 5.0221 32.7618 5.30611 31.7265C5.59012 30.6912 4.90038 29.3514 5.10325 27.3417C5.30611 25.3321 5.54447 24.3907 5.69662 24.0481C5.84878 23.7055 6.19364 23.906 6.64502 24.4186Z" fill="#28839F"/>
<path d="M3.20225 -1.38687C3.34443 1.23164 3.04028 5.80481 3.11505 6.75875C3.1962 7.79403 4.04822 11.6104 4.45396 12.9705C4.85969 14.3306 4.89012 15.5841 5.16399 15.5993C5.43785 15.6145 6.05659 12.463 6.11745 11.4277C6.17831 10.3924 5.10313 5.82495 4.90026 4.20098C4.69739 2.57699 3.8479 -0.721723 3.59686 -1.39162C3.25141 -2.3134 3.12056 -2.89153 3.20225 -1.38687Z" fill="#28839F" fill-opacity="0.2"/>
<path d="M5.88404 37.2685C6.57012 41.0132 6.92613 43.3682 7.65911 46.444C8.28799 49.083 9.27189 53.417 10.1544 56.1879C11.0368 58.9589 12.68 63.3741 13.5321 66.3886C14.3841 69.4031 15.6926 77.5941 15.8143 78.1117C15.936 78.6294 16.1186 75.6148 16.3012 74.0923C16.4837 72.5699 16.2403 68.7028 15.6926 66.1145C15.1448 63.5263 14.3232 58.9284 13.0756 56.0052C10.6103 50.229 7.95026 39.5944 7.18238 37.8166C7.0108 37.4194 5.71668 36.355 5.88404 37.2685Z" fill="#28839F" fill-opacity="0.2"/>
<path d="M4.33249 35.747C3.78476 37.4319 3.06458 40.4768 3.09501 41.8775C3.12544 43.2782 2.37992 47.7086 1.9691 49.429C1.55831 51.1494 1.48223 54.8186 1.39094 55.5494C1.29965 56.2802 1.99953 54.6664 2.3647 53.1135C2.72985 51.5605 4.23612 46.9169 4.70779 45.4401C5.17945 43.9633 6.09235 40.69 5.92498 39.472C5.75762 38.254 5.45332 37.0512 5.52939 36.5793C5.60546 36.1073 5.34681 35.6759 5.09324 35.3714C4.83965 35.0669 4.33249 35.747 4.33249 35.747Z" fill="#28839F" fill-opacity="0.2"/>
<path d="M7.76068 38.7461C7.93496 39.4437 9.18074 43.4506 9.39375 43.9987C9.60677 44.5468 9.97192 42.6589 9.82991 41.3902C9.717 40.3813 9.6372 39.9083 8.73444 38.9542C7.83169 38.0001 7.59839 38.0965 7.76068 38.7461Z" fill="#28839F" fill-opacity="0.2"/>
<path d="M10.0333 41.725C10.0608 43.5368 9.97246 44.846 9.9116 45.3484C9.85074 45.8509 10.155 47.4952 10.5202 47.9671C10.8854 48.4391 11.5396 47.6931 11.9504 46.2315C12.3612 44.7699 12.3764 43.628 12.0721 43.0038C11.7678 42.3796 10.8701 41.4813 10.4898 41.1159C10.1094 40.7506 10.0181 40.7201 10.0333 41.725Z" fill="#28839F" fill-opacity="0.2"/>
<path d="M12.4671 44.3334C12.4993 45.2343 12.2845 46.5766 11.7976 47.5611C11.3108 48.5457 11.047 48.8501 11.1485 49.6317C11.2499 50.4132 11.5745 51.6008 11.7976 51.9662C12.0208 52.3316 12.9946 50.3929 13.3191 49.5099C13.6437 48.6269 14.161 46.9014 14.1712 46.201C14.1813 45.5007 13.4611 44.7496 13.096 44.3132C12.7308 43.8767 12.4367 43.4809 12.4671 44.3334Z" fill="#28839F" fill-opacity="0.2"/>
<path d="M11.4734 68.6733C11.5343 67.2117 12.2258 63.2073 11.7726 62.0606C9.31796 55.8489 8.37465 52.0173 6.52613 43.2499C6.25648 41.971 5.99097 42.7555 5.79416 43.306C5.28071 44.7421 4.90291 46.6584 4.57599 47.7543C4.17025 49.1144 3.91668 52.1696 3.65295 53.6311C3.38923 55.0927 2.99364 58.9192 3.01393 61.4364C3.03421 63.9536 3.68338 67.8816 4.27169 69.5056C4.86001 71.1296 6.3612 74.8241 6.99008 76.7729C8.43699 81.2565 9.97791 76.3464 9.98106 76.3328C10.4548 74.8306 11.4203 69.9494 11.4734 68.6733Z" fill="#28839F" fill-opacity="0.2"/>
<path d="M42.1671 0.67463C42.1962 0.691353 42.2328 0.674452 42.2385 0.641388C42.6515 -1.72437 45.7075 -4.78094 43.688 -8.91304C41.6493 -13.0846 36.7805 -14.4853 35.472 -14.2722C34.2314 -14.0701 30.9668 -11.9247 29.4383 -11.469C29.3887 -11.4542 29.395 -11.3803 29.4466 -11.375C31.6345 -11.1511 33.4704 -11.0851 35.6411 -9.55755C37.8973 -7.96979 37.4428 -5.95941 37.9296 -4.40648C38.4126 -2.86595 39.6789 -0.756095 42.1671 0.67463Z" fill="#28839F" fill-opacity="0.2"/>
<path d="M44.6016 -7.45215C44.9211 -5.62516 44.5261 -4.005 43.8104 -2.18434C43.1934 -0.614686 42.5932 0.327758 42.6237 1.07377C43.2627 1.65232 44.982 3.7838 45.3623 4.27099C45.1341 2.94643 45.3928 0.951969 45.5754 -1.24041C45.7579 -3.43278 45.5601 -5.50336 44.6016 -7.45215Z" fill="#28839F" fill-opacity="0.2"/>
<path d="M37.8835 -3.31055C38.5327 -0.894876 41.2739 0.27236 43.5054 7.67163C44.1426 9.78457 44.9306 16.4714 44.9052 19.0801C44.8957 20.0548 44.1241 18.8162 44.1241 18.8162C44.1241 18.8162 38.5961 10.879 37.9063 6.90024C37.2166 2.92149 37.8835 -3.31055 37.8835 -3.31055Z" fill="#28839F" fill-opacity="0.2"/>
<path d="M40.3003 0.0185547C40.9945 0.827369 43.3838 5.2153 44.0315 7.84498C44.5974 10.1427 45.5051 15.5005 45.571 19.919C45.5726 20.0275 45.7233 20.0533 45.7623 19.952C48.1996 13.623 46.7202 7.16947 45.7878 5.62637C44.9978 4.31887 43.1911 1.50044 40.3003 0.0185547Z" fill="#28839F" fill-opacity="0.2"/>
<path d="M43.303 18.6336C43.6643 19.2866 42.0858 20.7753 41.4772 23.5868C41.3732 24.0671 40.2194 22.2368 40.3411 19.6486C40.4628 17.0604 37.9828 10.9096 37.785 9.26528C37.5872 7.621 37.6633 7.46875 37.6633 7.46875C40.0004 13.3802 41.2134 14.8579 43.303 18.6336Z" fill="#28839F" fill-opacity="0.2"/>
<path d="M47.1982 15.7111C46.8062 17.7843 46.2244 20.8266 46.7113 22.8566C47.1982 24.8866 51.2961 39.6242 51.9047 41.4918C52.5133 43.3594 52.3915 41.4309 52.1887 39.7054C51.9858 37.9799 52.1481 28.5405 51.7424 25.3738C51.3366 22.207 49.9977 18.2891 48.8211 16.8884C47.6445 15.4877 47.3402 14.96 47.1982 15.7111Z" fill="#28839F" fill-opacity="0.2"/>
<path d="M44.1653 19.7908C45.983 21.155 46.3359 23.0895 46.7619 24.5816C47.188 26.0736 50.733 39.0299 51.0525 40.3849C51.3721 41.74 51.4786 43.3538 50.9917 42.7296C50.5048 42.1054 46.0468 29.0881 44.6927 26.2563C43.3386 23.4245 42.6631 22.5127 42.9177 21.3539C43.1205 20.4302 43.4958 19.2884 44.1653 19.7908Z" fill="#28839F" fill-opacity="0.2"/>
<path d="M42.8563 23.5052C43.6519 24.8485 48.07 36.6594 48.8206 39.5826C49.5712 42.5058 49.5915 43.6832 49.1046 43.399C48.6177 43.1148 43.1809 30.7319 42.3289 28.2553C41.4769 25.7788 41.6696 24.7638 41.9536 23.83C42.2376 22.8962 42.5318 22.9571 42.8563 23.5052Z" fill="#28839F" fill-opacity="0.2"/>
<path d="M23.8075 -11.1057C25.6238 -11.5652 29.4107 -11.162 31.0295 -10.9433C33.8088 -10.5677 35.897 -9.35856 36.6286 -8.02012C37.2778 -6.83259 37.7437 -4.04481 37.2372 -3.47297C35.6549 -1.68659 36.3649 3.42897 30.7861 6.02734C28.919 6.89697 22.9352 6.34199 22.0223 5.27625C21.1094 4.21051 20.7443 -0.996389 21.0486 -3.98047C21.3529 -6.96453 22.002 -10.6489 23.8075 -11.1057Z" fill="#28839F" fill-opacity="0.2"/>
<path d="M21.5964 6.34182C21.0401 7.34388 20.577 9.18886 20.5618 10.3307C20.5466 11.4726 21.0943 11.6248 21.8095 11.975C22.5245 12.3252 25.8566 14.0557 26.7695 14.8373C27.6976 15.6318 28.2301 16.1314 28.4127 14.5632C28.5953 12.9951 28.8235 11.2747 28.5344 9.59993C28.2453 7.9252 27.9563 7.27052 27.1955 7.04215C26.4348 6.81378 25.4838 6.86707 24.3047 6.63108C23.1427 6.39853 21.8247 5.93074 21.5964 6.34182Z" fill="#28839F" fill-opacity="0.2"/>
<path d="M21.733 12.5919C25.9703 14.1829 27.8555 16.6776 28.25 17.4156C28.7166 18.2885 28.475 20.3947 28.3413 20.76C28.2094 21.1203 27.2034 21.1591 26.3126 20.9681C25.0346 20.6941 22.7219 20.3997 21.9003 20.2982C21.0787 20.1967 20.5817 19.202 20.5411 18.2682C20.5006 17.3344 20.4701 14.391 20.5411 13.8023C20.6121 13.2136 20.9673 12.3044 21.733 12.5919Z" fill="#28839F" fill-opacity="0.2"/>
<path d="M21.6975 20.9285C22.9075 20.7969 26.7184 21.5984 27.398 21.9232C28.0776 22.248 28.6152 22.8976 28.6355 23.7502C28.6558 24.6028 28.4123 26.2471 28.1892 26.7343C27.966 27.2215 27.2154 27.668 26.1605 27.7087C25.1056 27.7492 22.9147 27.9117 21.9409 27.7696C20.9672 27.6274 20.7339 26.6734 20.6629 25.5975C20.5919 24.5216 20.5411 23.0904 20.6426 22.1262C20.744 21.162 21.2309 20.9793 21.6975 20.9285Z" fill="#28839F" fill-opacity="0.2"/>
<path d="M30.2585 6.59506C31.123 6.44077 33.5123 5.04092 34.3969 4.40268C35.774 3.40919 35.4004 8.06848 32.5711 8.01605C31.4757 7.99575 30.6034 7.4299 30.1773 7.20913C29.7513 6.98837 29.8604 6.66612 30.2585 6.59506Z" fill="#28839F" fill-opacity="0.2"/>
<path d="M34.5784 8.2951C34.4909 9.05634 34.2978 9.60849 33.9254 10.2832C33.4968 11.0597 30.8596 9.2124 30.6834 8.77849C30.4997 8.32602 31.0927 7.95635 31.6839 8.12763C32.491 8.36143 33.5171 8.21898 34.061 7.8041C34.6113 7.38437 34.6218 7.91696 34.5784 8.2951Z" fill="#28839F"/>
<path d="M30.5429 9.16396C30.988 9.54974 31.8615 10.1333 32.7338 10.5393C33.5415 10.9152 33.4895 11.2853 33.2714 11.5695C33.0533 11.8537 31.6891 12.6149 31.192 12.8382C30.695 13.0615 29.8734 12.8788 29.7162 12.4018C29.4503 11.595 29.6217 8.36554 30.5429 9.16396Z" fill="#28839F"/>
<path d="M34.2954 14.5742C34.1128 15.1324 32.9058 15.9546 32.1754 16.4215C31.4451 16.8884 30.4359 17.4314 30.0961 17.1624C29.7563 16.8934 29.7461 14.3255 29.9946 13.7622C30.2432 13.1989 30.796 13.2953 31.4553 13.0821C32.1517 12.857 32.3311 12.4808 33.0985 12.4173C33.7122 12.3666 34.5492 13.7981 34.2954 14.5742Z" fill="#28839F"/>
<path d="M33.2352 16.071C32.7918 16.3853 30.527 17.5935 30.1314 17.8371C29.7358 18.0807 29.538 18.9333 29.4163 19.9229C29.2946 20.9125 29.369 22.0801 29.7814 22.2371C30.8617 22.6482 33.6317 19.643 33.9883 19.2378C34.4372 18.7278 34.5285 17.3727 34.5589 16.7257C34.5992 15.8692 33.9655 15.5534 33.2352 16.071Z" fill="#28839F"/>
<path d="M33.2814 20.4556C32.5206 21.2929 30.7177 22.4729 30.284 22.8459C29.8504 23.2189 29.82 24.6805 29.8276 25.358C29.8352 26.0355 30.5123 26.5607 30.9687 26.4389C31.4251 26.3171 33.7454 24.0867 34.0573 23.6985C34.3692 23.3102 34.4453 21.3005 34.316 20.6687C34.1866 20.0369 33.8026 19.8818 33.2814 20.4556Z" fill="#28839F"/>
<path d="M22.3468 28.621C23.7668 28.6104 26.6171 28.4586 27.2967 28.3571C27.9763 28.2556 28.5646 28.9864 28.4124 29.9405C28.2603 30.8946 27.6821 34.6906 26.4649 38.5273C25.2477 42.3639 24.3551 44.739 23.1582 45.8149C21.9613 46.8908 21.6773 48.1494 21.0788 48.058C20.4804 47.9667 20.4779 45.5536 20.4703 44.602C20.4637 43.7872 20.3891 30.9808 20.5996 30.5647C20.8194 30.13 21.2538 29.8529 21.5087 29.5979C21.7809 29.3255 21.6672 28.626 22.3468 28.621Z" fill="#28839F" fill-opacity="0.2"/>
<path d="M33.7478 24.4186C33.0825 25.174 31.567 26.4993 30.9482 27.0575C30.3295 27.6158 29.5485 29.8995 29.305 30.9957C29.0616 32.0919 29.1224 33.5129 29.447 34.6497C29.7716 35.7865 29.3659 36.3549 29.5687 37.2886C29.7716 38.2224 30.8671 38.872 31.3134 38.1818C31.7597 37.4916 33.484 35.3399 34.5592 34.7309C35.6344 34.1219 35.3707 32.7618 35.0867 31.7265C34.8027 30.6912 35.4924 29.3514 35.2895 27.3417C35.0867 25.3321 34.8483 24.3907 34.6962 24.0481C34.544 23.7055 34.1991 23.906 33.7478 24.4186Z" fill="#28839F"/>
<path d="M37.1906 -1.38687C37.0485 1.23164 37.3526 5.80481 37.2779 6.75875C37.1967 7.79403 36.3447 11.6104 35.9389 12.9705C35.5332 14.3306 35.5028 15.5841 35.2289 15.5993C34.955 15.6145 34.3363 12.463 34.2754 11.4277C34.2146 10.3924 35.2898 5.82495 35.4926 4.20098C35.6955 2.57699 36.545 -0.721723 36.796 -1.39162C37.1415 -2.3134 37.2723 -2.89153 37.1906 -1.38687Z" fill="#28839F" fill-opacity="0.2"/>
<path d="M34.5083 37.2685C33.8223 41.0132 33.4662 43.3682 32.7333 46.444C32.1044 49.083 31.1205 53.417 30.238 56.1879C29.3556 58.9589 27.7123 63.3741 26.8603 66.3886C26.0083 69.4031 24.6998 77.5941 24.5781 78.1117C24.4564 78.6294 24.2738 75.6148 24.0912 74.0923C23.9086 72.5699 24.1521 68.7028 24.6998 66.1145C25.2475 63.5263 26.0691 58.9284 27.3167 56.0052C29.7821 50.229 32.4421 39.5944 33.21 37.8166C33.3816 37.4194 34.6757 36.355 34.5083 37.2685Z" fill="#28839F" fill-opacity="0.2"/>
<path d="M36.0605 35.747C36.6082 37.4319 37.3284 40.4768 37.2979 41.8775C37.2675 43.2782 38.013 47.7086 38.4238 49.429C38.8347 51.1494 38.9107 54.8186 39.002 55.5494C39.0933 56.2802 38.3934 54.6664 38.0283 53.1135C37.6631 51.5605 36.1568 46.9169 35.6852 45.4401C35.2135 43.9633 34.3006 40.69 34.468 39.472C34.6353 38.254 34.9396 37.0512 34.8636 36.5793C34.7875 36.1073 35.0461 35.6759 35.2997 35.3714C35.5533 35.0669 36.0605 35.747 36.0605 35.747Z" fill="#28839F" fill-opacity="0.2"/>
<path d="M32.6045 38.8094C32.4302 39.5069 31.22 43.354 31.007 43.9021C30.7939 44.4502 30.4212 42.6587 30.5632 41.39C30.6761 40.3811 30.7559 39.9081 31.6587 38.954C32.5614 37.9999 32.7668 38.1598 32.6045 38.8094Z" fill="#28839F" fill-opacity="0.2"/>
<path d="M30.3604 41.725C30.3329 43.5368 30.4212 44.846 30.4821 45.3484C30.543 45.8509 30.2387 47.4952 29.8735 47.9671C29.5083 48.4391 28.8541 47.6931 28.4433 46.2315C28.0325 44.7699 28.0173 43.628 28.3216 43.0038C28.6259 42.3796 29.5236 41.4813 29.9039 41.1159C30.2843 40.7506 30.3756 40.7201 30.3604 41.725Z" fill="#28839F" fill-opacity="0.2"/>
<path d="M27.9254 44.3334C27.8932 45.2343 28.108 46.5766 28.5948 47.5611C29.0817 48.5457 29.3454 48.8501 29.244 49.6317C29.1426 50.4132 28.818 51.6008 28.5948 51.9662C28.3717 52.3316 27.3979 50.3929 27.0733 49.5099C26.7487 48.6269 26.2314 46.9014 26.2213 46.201C26.2112 45.5007 26.9313 44.7496 27.2965 44.3132C27.6616 43.8767 27.9558 43.4809 27.9254 44.3334Z" fill="#28839F" fill-opacity="0.2"/>
<path d="M28.9196 68.6726C28.8587 67.211 28.1013 63.2422 28.5544 62.0954C31.0091 55.8837 31.8205 52.0112 33.8668 43.2492C34.1641 41.9764 34.402 42.7548 34.5988 43.3053C35.1123 44.7414 35.4393 46.7288 35.7663 47.8247C36.172 49.1848 36.456 52.0775 36.7197 53.5391C36.9835 55.0007 37.3486 58.8475 37.3283 61.3647C37.3081 63.8818 36.6893 67.82 36.101 69.444C35.5127 71.068 34.0318 74.8234 33.4029 76.7722C31.9217 81.3622 30.4151 76.3457 30.4119 76.3321C29.9382 74.8299 28.9727 69.9487 28.9196 68.6726Z" fill="#28839F" fill-opacity="0.2"/>
</g>
<defs>
<clipPath id="clip0_4050_4005">
<rect width="61" height="48" fill="white"/>
</clipPath>
</defs>
</svg>
