<svg width="61" height="48" viewBox="0 0 61 48" fill="none" xmlns="http://www.w3.org/2000/svg">
<g clip-path="url(#clip0_4089_13877)">
<g clip-path="url(#clip1_4089_13877)">
<path d="M45.808 106.241C45.6244 106.241 45.4761 106.133 45.3327 106.03C45.2137 105.944 45.1014 105.862 44.9936 105.862C44.9749 105.862 44.9568 105.865 44.9381 105.869C44.8153 105.901 44.7477 105.954 44.6695 106.015C44.5589 106.102 44.4335 106.2 44.1792 106.2C44.1624 106.2 44.1449 106.199 44.1267 106.198C43.8895 106.187 43.7413 106.087 43.6105 105.998C43.49 105.917 43.3949 105.853 43.2359 105.853C43.2264 105.853 43.2166 105.853 43.2066 105.853C43.0397 105.861 42.9434 105.918 42.8215 105.989C42.6689 106.079 42.496 106.18 42.1731 106.198C42.1507 106.2 42.1286 106.2 42.1068 106.2C41.8053 106.2 41.5461 106.085 41.3174 105.983C41.1252 105.898 40.9437 105.817 40.7627 105.813L40.7478 105.813C40.5631 105.813 40.336 105.888 40.0956 105.967C39.7967 106.066 39.458 106.178 39.1065 106.178L39.0798 106.178C38.2324 106.165 37.7509 105.728 37.6486 104.881C37.5943 104.432 37.7434 103.945 37.8876 103.475C38.0544 102.931 38.2268 102.369 38.0979 101.853C37.8256 100.763 37.6691 99.3603 37.7085 98.3634C37.7356 97.6792 37.523 96.7572 37.3355 95.9439C37.2452 95.5524 37.1599 95.1826 37.1019 94.8499C36.9806 94.1556 37.4886 92.9376 37.9368 91.863C38.1822 91.2746 38.414 90.7189 38.4607 90.4206C38.5617 89.7755 38.4463 86.2555 38.3843 84.3644L38.3752 84.0874C38.3236 83.7173 38.2718 83.3229 38.2206 82.9326C38.0812 81.8708 37.9495 80.868 37.8348 80.4386L37.7487 80.1179C37.4431 78.9823 36.9838 77.2753 36.9829 76.6776C36.8771 76.4019 36.7228 75.9928 36.5649 75.5282C36.1839 75.0586 35.9068 74.0268 35.7414 72.4602C35.4799 69.9841 35.7685 66.5067 36.068 65.0496C36.2187 64.3166 36.4544 63.4292 36.6624 62.6463C36.861 61.8987 37.0486 61.1927 37.1221 60.7704C37.1979 60.336 37.2148 60.0903 37.225 59.9435C37.2316 59.8479 37.236 59.7843 37.2548 59.7336C37.2295 59.5986 37.2022 59.4458 37.173 59.2816C37.0293 58.4761 36.8327 57.3728 36.5767 56.8023C36.2395 56.0508 35.7967 53.8111 35.6077 52.8546L35.6012 52.8222C35.541 52.5174 35.4858 52.0066 35.4371 51.304C35.3449 50.5479 35.3165 49.6385 35.2977 49.0368L35.2944 48.9329C35.2853 48.6472 35.2854 48.0758 35.3458 47.8629C35.3379 47.6833 35.3077 47.5179 35.2224 47.1806C35.1335 46.8289 35.0739 46.4488 35.0049 46.0087C34.9713 45.7947 34.9355 45.5662 34.8929 45.32C34.8489 45.1636 34.8203 45.0078 34.8085 44.8565C34.7286 44.4462 34.6689 44.2524 34.6163 44.0812C34.5541 43.879 34.5 43.7029 34.4336 43.2626C34.3463 43.1421 34.2935 42.6902 34.1415 40.9965C34.0812 40.3247 34.0188 39.63 33.9564 39.1096C33.923 38.8313 33.9031 38.4741 33.8973 38.0477C33.8382 37.9257 33.759 37.8016 33.6754 37.6707C33.5817 37.5238 33.485 37.3723 33.397 37.1966C33.0435 36.8658 32.69 35.0393 32.6326 34.5415C32.5032 33.4192 31.6819 28.4697 31.2073 26.8917C30.6655 25.0905 31.0365 21.4604 31.0806 21.0524C31.0955 20.9138 31.1093 20.7766 31.1228 20.6418C31.1805 20.0654 31.2351 19.5197 31.3665 19.1003C31.2286 18.8427 30.5884 18.7272 30.2776 18.7272H30.1153C29.8069 18.7272 29.1741 18.841 29.0271 19.1024C29.1581 19.5218 29.2127 20.0671 29.2703 20.6429C29.2837 20.7774 29.2975 20.9142 29.3124 21.0525C29.3565 21.4605 29.7275 25.0908 29.1856 26.8917C28.7111 28.4697 27.8897 33.4192 27.7603 34.5415C27.7029 35.0393 27.3494 36.8658 26.9961 37.1966C26.908 37.3723 26.8113 37.5237 26.7177 37.6704C26.6341 37.8014 26.5548 37.9256 26.4957 38.0477C26.4899 38.4736 26.47 38.8307 26.4366 39.1096C26.3742 39.6301 26.3118 40.325 26.2515 40.997C26.0995 42.6904 26.0467 43.1422 25.9594 43.2627C25.893 43.7029 25.8388 43.879 25.7766 44.0812C25.7241 44.2523 25.6645 44.4461 25.5845 44.8565C25.5727 45.0076 25.5441 45.1637 25.497 45.3332C25.4575 45.5659 25.4218 45.7941 25.3882 46.008C25.3192 46.4484 25.2596 46.8287 25.1706 47.1807C25.0995 47.4617 25.068 47.6185 25.0542 47.7623C25.088 47.9083 25.0922 48.2025 25.0964 48.6885L25.0987 48.9271C25.1056 49.5692 25.0694 50.6191 24.944 51.4651C24.8989 52.0812 24.8473 52.5412 24.7917 52.8221L24.7859 52.8513C24.5968 53.8084 24.1539 56.0499 23.8162 56.8024C23.5602 57.3729 23.3635 58.4765 23.2199 59.2823C23.1907 59.4462 23.1635 59.5989 23.1383 59.7336C23.157 59.7842 23.1614 59.8479 23.168 59.9435C23.1781 60.0902 23.1951 60.3359 23.2709 60.7704C23.3445 61.1928 23.5321 61.8993 23.7308 62.6472C23.9387 63.4299 24.1744 64.3169 24.325 65.0496C24.6245 66.5069 24.9131 69.9843 24.6516 72.4602C24.5312 73.5999 24.2819 75.0709 23.7763 75.651C23.6173 76.126 23.4822 76.489 23.4101 76.6776C23.4092 77.2757 22.9495 78.984 22.6436 80.1203L22.5582 80.4386C22.4436 80.8677 22.312 81.8698 22.1727 82.9307C22.1214 83.3216 22.0695 83.7166 22.0178 84.0873L22.0086 84.3693C21.9466 86.2589 21.8314 89.776 21.9323 90.4206C21.979 90.7189 22.2108 91.2746 22.4561 91.8628C22.9044 92.9375 23.4124 94.1556 23.2911 94.8499C23.233 95.1826 23.1478 95.5524 23.0575 95.9439C22.87 96.7573 22.6574 97.6792 22.6844 98.3634C22.724 99.3602 22.5675 100.763 22.2951 101.853C22.1661 102.369 22.3386 102.931 22.5054 103.475C22.6496 103.945 22.7987 104.432 22.7444 104.881C22.6421 105.728 22.1605 106.165 21.3132 106.178L21.2865 106.178C20.9349 106.178 20.5962 106.066 20.2974 105.967C20.0569 105.888 19.8299 105.813 19.6451 105.813L19.6303 105.813C19.4493 105.817 19.2678 105.898 19.0756 105.983C18.8469 106.085 18.5877 106.2 18.2862 106.2C18.2643 106.2 18.2422 106.2 18.2199 106.198C17.8969 106.18 17.7241 106.079 17.5715 105.989C17.4496 105.918 17.3533 105.861 17.1864 105.853C17.1763 105.853 17.1666 105.853 17.1571 105.853C16.9981 105.853 16.903 105.917 16.7825 105.998C16.6517 106.087 16.5035 106.187 16.2663 106.198C16.2481 106.199 16.2306 106.2 16.2139 106.2C15.9595 106.2 15.8341 106.102 15.7235 106.015C15.6452 105.954 15.5776 105.901 15.4548 105.869C15.4362 105.865 15.418 105.862 15.3993 105.862C15.2916 105.862 15.1793 105.944 15.0603 106.03C14.9169 106.133 14.7686 106.241 14.585 106.241C14.5711 106.241 14.557 106.24 14.5429 106.239C14.311 106.217 14.1907 106.12 14.0845 106.034C14.0195 105.981 13.9634 105.936 13.8806 105.906C13.8701 105.903 13.8586 105.901 13.8454 105.901C13.7711 105.901 13.6617 105.957 13.5459 106.018C13.3732 106.107 13.1581 106.219 12.9123 106.219C12.3844 106.219 12.1141 105.956 11.9484 105.283C11.782 104.606 11.9283 103.508 12.4613 102.841C12.5989 102.669 12.8179 102.406 13.0715 102.102C13.7197 101.326 14.6075 100.262 14.9899 99.6841C15.5234 98.8783 15.7397 97.4361 15.4265 96.7725C15.0263 95.9245 14.9423 95.1324 15.1769 94.4185L15.256 94.1796C15.4752 93.5201 15.7019 92.8382 15.7999 92.0091C15.8804 91.3275 15.8442 89.6747 15.7763 88.4223C15.7126 88.1407 15.6608 87.8442 15.6225 87.5407C15.4039 85.8086 14.4082 78.3075 13.8902 75.9824C13.4031 73.7957 12.6315 69.7881 12.5027 67.7093C12.3889 65.8745 12.5194 64.6794 12.5973 63.9653L12.6148 63.8041C12.6415 63.5523 12.7136 63.0655 12.7631 62.8386C12.86 62.3436 12.9958 61.8844 13.1156 61.4792C13.1857 61.2419 13.252 61.0176 13.3027 60.8125C13.3345 60.5636 13.4135 59.9963 13.4968 59.7995L13.5082 59.7416C13.5932 59.3099 13.6894 58.821 13.7386 58.3669C13.737 58.0803 13.7441 57.8113 13.7602 57.5454C13.6752 56.6107 13.6402 53.0807 13.7503 51.467C13.8223 50.4118 14.106 48.8521 14.3338 47.5987C14.4554 46.9297 14.5605 46.3519 14.5928 46.0615C14.6322 45.7062 14.6116 45.2035 14.5319 44.5669L14.5308 44.5641C13.5585 42.1696 12.5721 39.6621 12.1303 37.6406C11.9084 36.6258 11.8657 34.8474 11.8245 33.1276C11.7862 31.5334 11.7466 29.8849 11.5616 28.9496C11.188 27.0608 11.1352 23.7931 11.1897 22.1771C11.1702 21.8139 11.227 21.0759 11.2597 20.752C11.2396 20.6892 11.2461 20.6104 11.2558 20.5326C11.2814 20.328 11.3063 19.877 11.3378 19.306C11.4186 17.845 11.5406 15.6371 11.8366 14.3975C12.2348 12.7301 12.9896 8.29398 12.9588 6.88053C12.9276 5.44414 13.6613 2.37109 14.2029 0.704918C14.3148 0.232147 14.5139 -0.507057 14.6895 -1.15923C14.7846 -1.51277 14.8716 -1.83579 14.9315 -2.06772C14.968 -2.51348 15.0806 -2.96445 15.1749 -3.30836C15.3039 -3.77859 15.2154 -4.34424 15.113 -4.9992C15.0007 -5.71738 14.8609 -6.61126 14.9678 -7.67076C15.1452 -9.42791 15.3413 -10.3083 15.4745 -10.7374C15.5184 -10.8951 15.574 -11.0572 15.6329 -11.2288C15.7649 -11.6133 15.9013 -12.0108 15.9275 -12.4379C15.8642 -13.1059 15.8654 -13.8768 15.9302 -14.2827C15.935 -15.1524 15.9297 -16.1295 15.8551 -16.7991C15.8288 -16.9295 15.8038 -17.0851 15.7824 -17.2502C15.6506 -17.8552 15.3871 -18.472 15.1946 -18.9224C15.1314 -19.0703 15.0758 -19.2005 15.0314 -19.3138C14.8656 -19.4341 14.8006 -19.7819 14.6837 -20.4074C14.5997 -20.8565 14.4952 -21.4154 14.3237 -21.9903C13.9879 -23.116 13.3139 -26.0512 13.0645 -27.5892C13.0296 -27.6004 12.9963 -27.6064 12.9672 -27.6064C12.9381 -27.6064 12.9247 -27.6003 12.9213 -27.5985C12.9064 -27.5905 12.887 -27.5749 12.8681 -27.5319C12.9147 -27.2497 12.8125 -26.2944 12.7431 -25.7177C12.6687 -25.0989 12.2814 -23.8671 11.8331 -22.4408C11.0664 -20.002 10.1122 -16.9668 10.1879 -15.3571C10.2892 -13.2023 9.54136 -11.5881 9.1499 -11.268C9.07435 -10.882 9.01202 -10.4694 8.95162 -10.0698C8.89082 -9.66717 8.82789 -9.25084 8.75074 -8.85481C8.66243 -8.24055 8.47942 -7.53333 8.19249 -6.6993C7.90404 -5.86069 7.05415 -3.79096 5.91879 -1.16209C5.76822 -0.674561 5.60097 -0.139908 5.42406 0.42556C4.2834 4.07198 2.72124 9.06599 2.68196 10.839C2.67073 11.3472 2.95534 12.1247 3.4254 13.3448C3.94696 14.6987 3.85672 17.3576 2.66209 19.6184C2.15388 20.5803 1.70382 22.0508 1.26852 23.4729C0.845771 24.8543 0.446336 26.1591 0.0519505 26.7459C-0.182884 27.0953 -0.425952 27.2725 -0.670489 27.2725C-0.920539 27.2725 -1.10859 27.091 -1.23577 26.9047C-1.43353 27.9165 -1.89183 29.7305 -2.65355 29.8691C-2.70811 29.8791 -2.76179 29.8841 -2.8131 29.8841C-3.18827 29.8841 -3.46151 29.6246 -3.59893 29.1552C-3.83616 29.9643 -4.27073 31.049 -4.89536 31.049L-4.91556 31.0487C-5.79481 31.0165 -5.82074 29.8615 -5.78073 28.56C-5.85037 28.5989 -5.92924 28.619 -6.01529 28.619C-6.59114 28.619 -7.28322 27.7539 -7.41246 26.8723C-7.73228 24.6905 -7.52038 22.0768 -7.36567 20.1683C-7.28959 19.2305 -7.21124 18.2636 -7.2757 17.9902C-7.39425 18.0998 -7.54542 18.2957 -7.7182 18.5195C-8.04267 18.9398 -8.44642 19.4629 -8.92001 19.7888C-9.30428 20.0533 -9.76226 20.1931 -10.2445 20.1931C-11.0014 20.1931 -11.6675 19.8512 -11.8284 19.3801C-11.8892 19.2021 -11.924 18.8515 -11.4742 18.5032C-10.3021 17.5955 -8.05551 14.3164 -7.25691 12.348C-6.72438 11.0353 -5.74345 10.6003 -4.9553 10.2506C-4.48477 10.0419 -4.07842 9.86172 -3.87815 9.54521C-3.41526 8.81365 -2.71416 5.25102 -1.79436 -1.04361C-1.75735 -4.45982 -1.70279 -7.93648 -1.48411 -9.64342C-1.071 -12.868 0.28085 -16.786 1.46791 -18.1991C1.63775 -18.4012 1.78933 -18.585 1.92475 -18.7493C2.33587 -19.2478 2.59005 -19.556 2.78194 -19.6867C2.95226 -19.9149 3.09771 -20.3429 3.21453 -20.9595C2.94927 -24.9176 3.79908 -28.3022 4.48843 -29.4433L4.52517 -29.5036C4.60484 -29.7769 4.71596 -30.1248 4.83343 -30.4927L4.87469 -30.6222L4.89688 -30.7509C5.08076 -31.8182 4.944 -33.3202 4.78565 -35.0594C4.75096 -35.4405 4.71541 -35.831 4.68231 -36.2279C4.47452 -38.7226 4.78823 -40.7192 5.66956 -42.511C5.92053 -43.1206 6.39352 -43.9076 6.84505 -44.4649C8.84591 -47.9725 12.898 -49.4286 14.6248 -49.4286C14.7374 -49.4286 14.8391 -49.4218 14.9276 -49.4084C14.9696 -49.4106 15.0138 -49.4115 15.0603 -49.4115C15.2427 -49.4115 15.4598 -49.3963 15.6898 -49.3803C15.9692 -49.3608 16.2859 -49.3387 16.6095 -49.3386C16.759 -49.4639 17.0895 -49.5793 17.6912 -49.7825C18.1205 -49.9275 18.6549 -50.108 19.1892 -50.3312C20.434 -50.8509 21.9703 -51.8051 22.8422 -52.6C23.1112 -52.8453 23.2788 -52.9748 23.3978 -53.0277C23.4804 -53.1427 23.5682 -53.2573 23.659 -53.3758C24.0005 -53.8212 24.387 -54.3251 24.4924 -54.8429C24.4584 -55.1425 24.4465 -56.7888 24.5587 -57.8709C24.5461 -58.0441 24.5332 -58.1313 24.5247 -58.1742C24.5087 -58.2544 24.4954 -58.3358 24.4818 -58.4197C24.4192 -58.8038 24.3484 -59.239 23.9365 -59.8532C23.585 -60.3775 23.4875 -61.5959 23.4677 -62.5256C23.464 -62.7054 23.3175 -62.8516 23.1413 -62.8516C23.1183 -62.8516 23.0951 -62.8491 23.0722 -62.8441C22.9674 -62.8212 22.8577 -62.8091 22.7549 -62.8091C22.478 -62.8091 22.2492 -62.8932 22.0933 -63.0523C21.9324 -63.2163 21.8538 -63.4521 21.8595 -63.7531C21.8795 -64.805 21.6657 -65.4152 21.477 -65.9537C21.3819 -66.2252 21.2921 -66.4817 21.238 -66.7703C21.1419 -67.2832 21.0834 -67.9728 21.3503 -68.3455C21.4553 -68.4921 21.5993 -68.5794 21.7785 -68.605C21.8223 -68.6113 21.8675 -68.6144 21.9127 -68.6144C22.0613 -68.6144 22.2166 -68.5805 22.3744 -68.5135C22.396 -68.5044 22.4183 -68.4997 22.4405 -68.4997C22.4885 -68.4997 22.536 -68.5213 22.5708 -68.5588C22.6065 -68.5972 22.624 -68.6472 22.62 -68.6995C22.5044 -70.2383 22.3988 -74.0272 23.9118 -75.9685C25.7107 -78.2766 28.4774 -78.7442 29.5836 -78.8381C29.7266 -78.8502 29.8991 -78.8633 30.1375 -78.8633C30.3163 -78.8633 30.5101 -78.8556 30.7137 -78.8404C31.8401 -78.7567 34.6567 -78.3092 36.481 -75.9685C37.9939 -74.0272 37.8883 -70.2383 37.7727 -68.6994C37.7688 -68.6472 37.7862 -68.5972 37.8219 -68.5587C37.8567 -68.5212 37.9042 -68.4997 37.9522 -68.4997C37.9746 -68.4997 37.9968 -68.5044 38.0184 -68.5135C38.1762 -68.5805 38.3315 -68.6144 38.48 -68.6144C38.5252 -68.6144 38.5704 -68.6113 38.6143 -68.605C38.7934 -68.5794 38.9374 -68.4921 39.0424 -68.3455C39.3093 -67.9728 39.2508 -67.2832 39.1548 -66.7703C39.1007 -66.4817 39.0108 -66.2253 38.9157 -65.9538C38.7271 -65.4153 38.5133 -64.805 38.5333 -63.7531C38.539 -63.4521 38.4604 -63.2162 38.2995 -63.0522C38.1435 -62.8932 37.9147 -62.8091 37.6379 -62.8091C37.535 -62.8091 37.4253 -62.8212 37.3205 -62.8441C37.2976 -62.8491 37.2744 -62.8516 37.2514 -62.8516C37.0753 -62.8516 36.9288 -62.7054 36.925 -62.5256C36.9052 -61.5959 36.8078 -60.3775 36.4563 -59.8531C36.0445 -59.2391 35.9736 -58.8038 35.911 -58.4198C35.8974 -58.3359 35.8841 -58.2544 35.868 -58.1743C35.8594 -58.1309 35.8466 -58.0433 35.8341 -57.871C35.9463 -56.7885 35.9344 -55.1424 35.9004 -54.8429C36.0057 -54.3251 36.3922 -53.8212 36.7337 -53.3758C36.8259 -53.2556 36.915 -53.1393 36.9952 -53.0276C37.1142 -52.9746 37.2817 -52.8452 37.5506 -52.6C38.4224 -51.8052 39.9586 -50.851 41.2035 -50.3312C41.7378 -50.108 42.2722 -49.9275 42.7016 -49.7825C43.3033 -49.5793 43.6338 -49.4639 43.7833 -49.3386C44.1068 -49.3387 44.4235 -49.3608 44.703 -49.3803C44.9329 -49.3963 45.1501 -49.4115 45.3325 -49.4115C45.3789 -49.4115 45.4231 -49.4106 45.4651 -49.4084C45.5536 -49.4218 45.6553 -49.4286 45.7679 -49.4286C47.4947 -49.4286 51.5468 -47.9725 53.5477 -44.4649C53.9993 -43.9074 54.4723 -43.1204 54.7269 -42.5029C55.6045 -40.7193 55.9182 -38.7228 55.7104 -36.2279C55.6773 -35.8306 55.6418 -35.4399 55.607 -35.0584C55.4487 -33.3196 55.312 -31.818 55.4959 -30.7509L55.5253 -30.5803L55.5274 -30.5737C55.6457 -30.1936 55.7576 -29.8342 55.8365 -29.5549L55.9043 -29.4432C56.6012 -28.2898 57.4546 -24.8738 57.1739 -20.8858C57.287 -20.3039 57.431 -19.9026 57.6024 -19.6921C57.7958 -19.5644 58.053 -19.2525 58.4698 -18.747C58.6048 -18.5834 58.7558 -18.4004 58.9248 -18.1991C60.1119 -16.7861 61.4637 -12.8681 61.8768 -9.64348C62.0955 -7.93653 62.1501 -4.45988 62.1871 -1.04366C63.1069 5.25097 63.808 8.81367 64.271 9.54516C64.4712 9.86166 64.8776 10.0419 65.348 10.2506C66.1363 10.6002 67.1171 11.0353 67.6497 12.3479C68.4483 14.3164 70.6949 17.5954 71.867 18.5032C72.3168 18.8515 72.282 19.2021 72.2212 19.3801C72.0603 19.8512 71.3942 20.193 70.6373 20.193C70.1551 20.193 69.697 20.0533 69.3128 19.7888C68.8393 19.4629 68.4355 18.9398 68.1111 18.5197C67.9384 18.2958 67.7871 18.0999 67.6685 17.9902C67.6041 18.2637 67.6825 19.2303 67.7585 20.1678C67.9132 22.0764 68.1251 24.6904 67.8053 26.8722C67.6761 27.7538 66.984 28.6189 66.4081 28.6189C66.3221 28.6189 66.2432 28.5988 66.1736 28.56C66.2135 29.8614 66.1875 31.0164 65.3083 31.0486L65.2881 31.0489C64.6635 31.0489 64.2289 29.9642 63.9917 29.1552C63.8543 29.6245 63.5811 29.884 63.206 29.884C63.1546 29.884 63.1009 29.879 63.0464 29.8691C62.2843 29.7304 61.8262 27.9164 61.6285 26.9046C61.5014 27.0909 61.3134 27.2725 61.0633 27.2725C60.8188 27.2725 60.5756 27.0953 60.3408 26.7458C59.9464 26.159 59.547 24.8542 59.1242 23.4728C58.6889 22.0508 58.2389 20.5803 57.7307 19.6184C56.536 17.3575 56.4458 14.6986 56.9674 13.3448C57.4375 12.1246 57.7221 11.347 57.7108 10.839C57.6715 9.066 56.1094 4.07211 54.9688 0.42569C54.7919 -0.139832 54.6246 -0.674507 54.474 -1.16211C53.3387 -3.79118 52.4888 -5.86091 52.2003 -6.69939C51.9133 -7.53327 51.7304 -8.24056 51.6409 -8.86166C51.5649 -9.25085 51.502 -9.66697 51.4413 -10.0693C51.3809 -10.4691 51.3186 -10.8819 51.2429 -11.2681C50.8514 -11.5883 50.1037 -13.2025 50.2049 -15.3572C50.2807 -16.9669 49.3265 -20.0021 48.5597 -22.441C48.1113 -23.8673 47.7241 -25.099 47.6497 -25.7178C47.5803 -26.2945 47.4782 -27.2498 47.5247 -27.5319C47.5059 -27.575 47.4865 -27.5906 47.4717 -27.5985C47.4682 -27.6004 47.4548 -27.6065 47.4256 -27.6065C47.3965 -27.6065 47.3631 -27.6005 47.3283 -27.5892C47.0791 -26.0518 46.405 -23.1165 46.0691 -21.9904C45.8976 -21.4154 45.7931 -20.8565 45.7092 -20.4074C45.5922 -19.7819 45.5271 -19.4342 45.3614 -19.3138C45.317 -19.2005 45.2614 -19.0704 45.1982 -18.9225C45.0058 -18.4722 44.7422 -17.8554 44.6086 -17.239C44.5891 -17.086 44.5641 -16.9304 44.536 -16.7879C44.4631 -16.1295 44.4578 -15.1525 44.4626 -14.2828C44.5274 -13.877 44.5286 -13.1059 44.4653 -12.438C44.4915 -12.0108 44.6279 -11.6134 44.7599 -11.2289C44.8188 -11.0574 44.8744 -10.8953 44.9194 -10.7338C45.0516 -10.3083 45.2476 -9.42778 45.425 -7.67083C45.5319 -6.6114 45.3921 -5.7176 45.2798 -4.9994C45.1774 -4.34438 45.0889 -3.77872 45.218 -3.30842C45.3123 -2.96465 45.4248 -2.51389 45.4612 -2.06786C45.5211 -1.83639 45.6078 -1.51417 45.7028 -1.16136C45.8786 -0.508469 46.0778 0.231537 46.1928 0.715469C46.7315 2.37094 47.4651 5.44393 47.434 6.88044C47.4033 8.29349 48.158 12.7298 48.5562 14.3974C48.8521 15.6369 48.9742 17.8444 49.055 19.3052C49.0865 19.8766 49.1114 20.3279 49.137 20.5325C49.1468 20.6103 49.1533 20.6892 49.1331 20.752C49.1659 21.0755 49.2226 21.8132 49.203 22.1886C49.2576 23.7926 49.2049 27.06 48.8312 28.9495C48.6461 29.8848 48.6066 31.5331 48.5684 33.1272C48.5271 34.8472 48.4844 36.6257 48.2625 37.6405C47.8208 39.6617 46.8343 42.1693 45.8619 44.5646L45.8609 44.5671C45.7811 45.2035 45.7607 45.7061 45.8001 46.0614C45.8323 46.3518 45.9373 46.9295 46.059 47.5985C46.2868 48.8519 46.5705 50.4117 46.6425 51.4669C46.753 53.0858 46.7174 56.631 46.6321 57.5483C46.6486 57.8051 46.6559 58.0772 46.6543 58.3669C46.7035 58.821 46.7997 59.3102 46.8847 59.7419L46.896 59.7994C46.9792 59.996 47.0583 60.5635 47.0902 60.8126C47.1408 61.0174 47.2071 61.2414 47.2772 61.4784C47.4348 62.0116 47.6135 62.6158 47.7052 63.2919C47.7349 63.4614 47.7617 63.65 47.778 63.8041L47.7955 63.9652C47.8735 64.6793 48.0039 65.8744 47.8901 67.7092C47.7614 69.7875 46.9898 73.7954 46.5026 75.9823C45.9839 78.3103 44.9888 85.8092 44.7703 87.5407C44.732 87.844 44.6803 88.1405 44.6166 88.4221C44.5486 89.6743 44.5123 91.3271 44.593 92.009C44.691 92.8386 44.9179 93.5208 45.1372 94.1805L45.216 94.4184C45.4505 95.1324 45.3665 95.9244 44.9663 96.7724C44.6531 97.436 44.8695 98.8783 45.403 99.684C45.7856 100.262 46.6736 101.326 47.3221 102.103C47.5754 102.407 47.7941 102.669 47.9316 102.841C48.4645 103.508 48.6109 104.606 48.4444 105.283C48.2787 105.956 48.0085 106.219 47.4805 106.219C47.2347 106.219 47.0197 106.107 46.847 106.018C46.7312 105.957 46.6217 105.901 46.5474 105.901C46.5342 105.901 46.5227 105.902 46.5122 105.906C46.4294 105.936 46.3733 105.981 46.3083 106.034C46.2021 106.12 46.0818 106.217 45.8499 106.238C45.8358 106.24 45.822 106.241 45.808 106.241Z" fill="white" stroke="#28839F" stroke-width="0.504915"/>
<path d="M28.0459 -6.37903C26.6259 -6.38962 23.7756 -6.54142 23.096 -6.64292C22.4164 -6.74442 21.8281 -6.01362 21.9803 -5.05953C22.1324 -4.10544 22.7106 -0.309378 23.9278 3.52728C25.145 7.36394 26.0376 9.73902 27.2345 10.8149C28.4314 11.8908 28.7154 13.1494 29.3138 13.058C29.9123 12.9667 29.9148 10.5536 29.9224 9.602C29.929 8.78718 30.0036 -4.01918 29.7931 -4.43532C29.5733 -4.87001 29.1389 -5.14708 28.884 -5.40209C28.6118 -5.6745 28.7255 -6.37395 28.0459 -6.37903Z" fill="#28839F" fill-opacity="0.2"/>
<path d="M16.645 -10.5814C17.3103 -9.82599 18.8258 -8.5007 19.4446 -7.94246C20.0633 -7.38421 20.8443 -5.10048 21.0878 -4.00431C21.3312 -2.90812 21.2704 -1.48712 20.9458 -0.350337C20.6212 0.786461 21.0269 1.35485 20.824 2.28864C20.6212 3.22244 19.5257 3.87203 19.0794 3.18182C18.6331 2.49163 16.9087 0.33986 15.8336 -0.269141C14.7584 -0.878128 15.0221 -2.23821 15.3061 -3.27351C15.5901 -4.3088 14.9004 -5.64858 15.1032 -7.65827C15.3061 -9.66794 15.5445 -10.6093 15.6966 -10.9519C15.8488 -11.2945 16.1936 -11.094 16.645 -10.5814Z" fill="#28839F" fill-opacity="0.2"/>
<path d="M15.884 2.26852C16.5701 6.01317 16.9261 8.36819 17.6591 11.444C18.288 14.083 19.2719 18.417 20.1544 21.1879C21.0368 23.9589 22.68 28.3741 23.5321 31.3886C24.3841 34.4031 25.6926 42.5941 25.8143 43.1117C25.936 43.6294 26.1186 40.6148 26.3012 39.0923C26.4837 37.5699 26.2403 33.7028 25.6926 31.1145C25.1448 28.5263 24.3232 23.9284 23.0756 21.0052C20.6103 15.229 17.9503 4.59443 17.1824 2.81662C17.0108 2.41936 15.7167 1.35503 15.884 2.26852Z" fill="#28839F" fill-opacity="0.2"/>
<path d="M14.3325 0.746966C13.7848 2.43185 13.0646 5.47681 13.095 6.87751C13.1254 8.27819 12.3799 12.7086 11.9691 14.429C11.5583 16.1494 11.4822 19.8186 11.3909 20.5494C11.2997 21.2802 11.9995 19.6664 12.3647 18.1135C12.7299 16.5605 14.2361 11.9169 14.7078 10.4401C15.1795 8.9633 16.0923 5.68998 15.925 4.47199C15.7576 3.254 15.4533 2.05124 15.5294 1.57926C15.6055 1.10729 15.3468 0.675923 15.0932 0.37143C14.8396 0.0669226 14.3325 0.746966 14.3325 0.746966Z" fill="#28839F" fill-opacity="0.2"/>
<path d="M22.1937 30.0193C22.0197 32.1859 21.7169 34.8507 21.3924 37.1243C21.0678 39.3978 20.2766 41.306 20.2157 43.2548C20.1549 45.2036 20.4186 48.4312 21.4735 48.6545C22.5284 48.8778 25.3077 46.7464 25.4496 44.8382C25.5917 42.93 24.4962 38.2814 24.273 36.7995C24.0499 35.3176 22.8628 30.1518 22.5893 29.3088C22.4295 28.8166 22.285 28.8825 22.1937 30.0193Z" fill="#28839F" fill-opacity="0.2"/>
<path d="M11.33 22.0611C11.2704 23.5825 11.3098 26.9736 11.6952 28.9224C12.0806 30.8712 11.8372 35.6619 12.2632 37.6107C12.6892 39.5595 13.6021 41.9143 14.657 44.5127C15.7119 47.111 15.9959 47.8012 16.3611 46.9892C16.7263 46.1772 16.6451 42.2391 15.9148 40.2091C15.1845 38.1791 14.0687 35.8041 13.521 33.429C12.9733 31.0539 12.5878 27.136 12.6487 25.8166C12.7095 24.4971 12.669 22.7107 12.8921 21.1273C13.1153 19.5439 13.715 16.4076 13.6326 16.2858C13.3744 15.9042 12.811 17.5139 12.5675 18.5898C12.3241 19.6657 11.8879 20.5894 11.6952 20.9649C11.5025 21.3404 11.3503 21.5434 11.33 22.0611Z" fill="#28839F" fill-opacity="0.2"/>
<path d="M17.7607 3.74613C17.935 4.44366 19.1807 8.45061 19.3937 8.9987C19.6068 9.54679 19.9719 7.65891 19.8299 6.39017C19.717 5.38128 19.6372 4.90828 18.7344 3.95419C17.8317 3.0001 17.5984 3.09653 17.7607 3.74613Z" fill="#28839F" fill-opacity="0.2"/>
<path d="M20.0333 6.72495C20.0608 8.53676 19.9725 9.84604 19.9116 10.3484C19.8507 10.8509 20.155 12.4952 20.5202 12.9671C20.8854 13.4391 21.5396 12.6931 21.9504 11.2315C22.3612 9.76991 22.3764 8.62805 22.0721 8.00384C21.7678 7.37961 20.8701 6.48134 20.4898 6.11595C20.1094 5.75056 20.0181 5.72011 20.0333 6.72495Z" fill="#28839F"/>
<path d="M22.4671 9.33344C22.4993 10.2343 22.2845 11.5766 21.7976 12.5611C21.3108 13.5457 21.047 13.8501 21.1485 14.6317C21.2499 15.4132 21.5745 16.6008 21.7976 16.9662C22.0208 17.3316 22.9946 15.3929 23.3191 14.5099C23.6437 13.6269 24.161 11.9014 24.1712 11.201C24.1813 10.5007 23.4611 9.74959 23.096 9.31315C22.7308 8.8767 22.4367 8.48086 22.4671 9.33344Z" fill="#28839F" fill-opacity="0.2"/>
<path d="M26.5754 17.96C26.8427 19.1186 27.0775 22.8319 27.1536 24.2631C27.2297 25.6942 27.2906 27.4146 26.8493 28.7696C26.4081 30.1246 26.2407 30.5509 26.2407 31.9668C26.2407 33.3827 26.7276 36.0166 26.8037 36.8997C26.8798 37.7827 27.4883 35.7121 27.6253 34.5246C27.7622 33.3371 28.5838 28.4194 29.0555 26.8513C29.5271 25.2831 29.2989 22.1925 29.1772 21.0658C29.0555 19.9392 29.0174 18.9039 28.523 18.5233C28.0285 18.1427 27.4427 18.0894 26.971 17.4423C26.4994 16.7953 26.3701 17.0693 26.5754 17.96Z" fill="#28839F" fill-opacity="0.2"/>
<path d="M24.4453 48.5022C23.5144 50.6313 22.9542 51.7908 22.7412 52.4911C22.5282 53.1915 22.7868 53.1001 23.0759 53.2828C23.365 53.4655 23.0759 54.1506 22.8629 54.8053C22.6499 55.46 22.513 55.7949 22.8021 55.871C23.0911 55.9472 24.2475 53.1458 24.567 52.4302C24.8865 51.7147 24.973 49.8881 24.9626 48.9285C24.955 48.232 24.9626 47.6877 24.8732 47.7277C24.7903 47.7647 24.5878 48.1761 24.4453 48.5022Z" fill="#28839F" fill-opacity="0.2"/>
<path d="M21.4734 33.6733C21.5343 32.2117 22.2258 28.2073 21.7726 27.0606C19.318 20.8489 18.3746 17.0173 16.5261 8.24991C16.2565 6.97095 15.991 7.75552 15.7942 8.30601C15.2807 9.74211 14.9029 11.6584 14.576 12.7543C14.1703 14.1144 13.9167 17.1696 13.653 18.6311C13.3892 20.0927 12.9936 23.9192 13.0139 26.4364C13.0342 28.9536 13.6834 32.8816 14.2717 34.5056C14.86 36.1296 16.3612 39.8241 16.9901 41.7729C18.437 46.2565 19.9779 41.3464 19.9811 41.3328C20.4548 39.8306 21.4203 34.9494 21.4734 33.6733Z" fill="#28839F" fill-opacity="0.2"/>
<path d="M32.3468 -6.37903C33.7668 -6.38962 36.6171 -6.54142 37.2967 -6.64292C37.9763 -6.74442 38.5646 -6.01362 38.4124 -5.05953C38.2603 -4.10544 37.6821 -0.309378 36.4649 3.52728C35.2477 7.36394 34.3551 9.73902 33.1582 10.8149C31.9613 11.8908 31.6773 13.1494 31.0788 13.058C30.4804 12.9667 30.4779 10.5536 30.4703 9.602C30.4637 8.78718 30.3891 -4.01918 30.5996 -4.43532C30.8194 -4.87001 31.2538 -5.14708 31.5087 -5.40209C31.7809 -5.6745 31.6672 -6.37395 32.3468 -6.37903Z" fill="#28839F" fill-opacity="0.2"/>
<path d="M43.7478 -10.5814C43.0825 -9.82599 41.567 -8.5007 40.9482 -7.94246C40.3295 -7.38421 39.5485 -5.10048 39.305 -4.00431C39.0616 -2.90812 39.1224 -1.48712 39.447 -0.350337C39.7716 0.786461 39.3659 1.35485 39.5687 2.28864C39.7716 3.22244 40.8671 3.87203 41.3134 3.18182C41.7597 2.49163 43.484 0.33986 44.5592 -0.269141C45.6344 -0.878128 45.3707 -2.23821 45.0867 -3.27351C44.8027 -4.3088 45.4924 -5.64858 45.2895 -7.65827C45.0867 -9.66794 44.8483 -10.6093 44.6962 -10.9519C44.544 -11.2945 44.1991 -11.094 43.7478 -10.5814Z" fill="#28839F" fill-opacity="0.2"/>
<path d="M44.5083 2.26852C43.8223 6.01317 43.4662 8.36819 42.7333 11.444C42.1044 14.083 41.1205 18.417 40.238 21.1879C39.3556 23.9589 37.7123 28.3741 36.8603 31.3886C36.0083 34.4031 34.6998 42.5941 34.5781 43.1117C34.4564 43.6294 34.2738 40.6148 34.0912 39.0923C33.9086 37.5699 34.1521 33.7028 34.6998 31.1145C35.2475 28.5263 36.0691 23.9284 37.3167 21.0052C39.7821 15.229 42.4421 4.59443 43.21 2.81662C43.3816 2.41936 44.6757 1.35503 44.5083 2.26852Z" fill="#28839F" fill-opacity="0.2"/>
<path d="M46.0605 0.746966C46.6082 2.43185 47.3284 5.47681 47.2979 6.87751C47.2675 8.27819 48.013 12.7086 48.4238 14.429C48.8347 16.1494 48.9107 19.8186 49.002 20.5494C49.0933 21.2802 48.3934 19.6664 48.0283 18.1135C47.6631 16.5605 46.1568 11.9169 45.6852 10.4401C45.2135 8.9633 44.3006 5.68998 44.468 4.47199C44.6353 3.254 44.9396 2.05124 44.8636 1.57926C44.7875 1.10729 45.0461 0.675923 45.2997 0.37143C45.5533 0.0669226 46.0605 0.746966 46.0605 0.746966Z" fill="#28839F" fill-opacity="0.2"/>
<path d="M38.2297 29.9983C38.4037 32.1649 38.676 34.8499 39.0006 37.1235C39.3252 39.3971 40.1164 41.3053 40.1772 43.2541C40.2381 45.2028 39.9744 48.4305 38.9195 48.6538C37.8646 48.8771 35.0853 46.7456 34.9433 44.8374C34.8013 42.9293 35.8968 38.2806 36.1199 36.7987C36.3431 35.3168 37.4501 30.1207 37.8037 29.3081C38.0776 28.6788 38.1384 28.8615 38.2297 29.9983Z" fill="#28839F" fill-opacity="0.2"/>
<path d="M49.0627 22.0611C49.1223 23.5825 49.083 26.9736 48.6975 28.9224C48.3121 30.8712 48.5555 35.6619 48.1295 37.6107C47.7035 39.5595 46.7906 41.9143 45.7357 44.5127C44.6808 47.111 44.3968 47.8012 44.0316 46.9892C43.6665 46.1772 43.7476 42.2391 44.4779 40.2091C45.2083 38.1791 46.324 35.8041 46.8718 33.429C47.4195 31.0539 47.8049 27.136 47.7441 25.8166C47.6832 24.4971 47.7238 22.7107 47.5006 21.1273C47.2775 19.5439 46.6778 16.4076 46.7602 16.2858C47.0184 15.9042 47.5818 17.5139 47.8252 18.5898C48.0687 19.6657 48.5048 20.5894 48.6975 20.9649C48.8903 21.3404 49.0424 21.5434 49.0627 22.0611Z" fill="#28839F" fill-opacity="0.2"/>
<path d="M42.6045 3.80935C42.4302 4.50688 41.22 8.35397 41.007 8.90206C40.7939 9.45016 40.4212 7.6587 40.5632 6.38996C40.6761 5.38107 40.7559 4.90807 41.6587 3.95398C42.5614 2.9999 42.7668 3.15976 42.6045 3.80935Z" fill="#28839F" fill-opacity="0.2"/>
<path d="M40.3604 6.72495C40.3329 8.53676 40.4212 9.84604 40.4821 10.3484C40.543 10.8509 40.2387 12.4952 39.8735 12.9671C39.5083 13.4391 38.8541 12.6931 38.4433 11.2315C38.0325 9.76991 38.0173 8.62805 38.3216 8.00384C38.6259 7.37961 39.5236 6.48134 39.9039 6.11595C40.2843 5.75056 40.3756 5.72011 40.3604 6.72495Z" fill="#28839F"/>
<path d="M37.9254 9.33344C37.8932 10.2343 38.108 11.5766 38.5948 12.5611C39.0817 13.5457 39.3454 13.8501 39.244 14.6317C39.1426 15.4132 38.818 16.6008 38.5948 16.9662C38.3717 17.3316 37.3979 15.3929 37.0733 14.5099C36.7487 13.6269 36.2314 11.9014 36.2213 11.201C36.2112 10.5007 36.9313 9.74959 37.2965 9.31315C37.6616 8.8767 37.9558 8.48086 37.9254 9.33344Z" fill="#28839F" fill-opacity="0.2"/>
<path d="M33.8174 17.96C33.5502 19.1186 33.3153 22.8319 33.2392 24.2631C33.1631 25.6942 33.1023 27.4146 33.5435 28.7696C33.9847 30.1246 34.1521 30.5509 34.1521 31.9668C34.1521 33.3827 33.6652 36.0166 33.5891 36.8997C33.5131 37.7827 32.9045 35.7121 32.7675 34.5246C32.6306 33.3371 31.809 28.4194 31.3373 26.8513C30.8657 25.2831 31.0939 22.1925 31.2156 21.0658C31.3373 19.9392 31.3754 18.9039 31.8699 18.5233C32.3644 18.1427 32.9501 18.0894 33.4218 17.4423C33.8934 16.7953 34.0228 17.0693 33.8174 17.96Z" fill="#28839F" fill-opacity="0.2"/>
<path d="M35.9476 48.5015C36.8784 50.6306 37.4386 51.79 37.6516 52.4904C37.8646 53.1907 37.606 53.0994 37.3169 53.2821C37.0278 53.4648 37.3169 54.1499 37.5299 54.8046C37.7429 55.4592 37.8798 55.7942 37.5908 55.8703C37.3017 55.9464 36.1453 53.1451 35.8258 52.4295C35.5063 51.7139 35.4607 49.8869 35.4303 48.9278C35.4131 48.3882 35.4455 47.7688 35.5215 47.8595C35.6661 48.032 35.7612 48.0752 35.9476 48.5015Z" fill="#28839F" fill-opacity="0.2"/>
<path d="M38.9196 33.6726C38.8587 32.211 38.1013 28.2422 38.5544 27.0954C41.0091 20.8837 41.8205 17.0112 43.8668 8.2492C44.1641 6.97639 44.402 7.75482 44.5988 8.30531C45.1123 9.74141 45.4393 11.7288 45.7663 12.8247C46.172 14.1848 46.456 17.0775 46.7197 18.5391C46.9835 20.0007 47.3486 23.8475 47.3283 26.3647C47.3081 28.8818 46.6893 32.82 46.101 34.444C45.5127 36.068 44.0318 39.8234 43.4029 41.7722C41.9217 46.3622 40.4151 41.3457 40.4119 41.3321C39.9382 39.8299 38.9727 34.9487 38.9196 33.6726Z" fill="#28839F" fill-opacity="0.2"/>
</g>
</g>
<defs>
<clipPath id="clip0_4089_13877">
<rect width="61" height="48" fill="white"/>
</clipPath>
<clipPath id="clip1_4089_13877">
<rect width="42" height="69" fill="white" transform="translate(9 -10)"/>
</clipPath>
</defs>
</svg>
