<svg width="61" height="48" viewBox="0 0 61 48" fill="none" xmlns="http://www.w3.org/2000/svg">
<g clip-path="url(#clip0_4055_7842)">
<path d="M38.808 165.241C38.6244 165.241 38.4761 165.133 38.3327 165.03C38.2137 164.944 38.1014 164.862 37.9936 164.862C37.9749 164.862 37.9568 164.865 37.9381 164.869C37.8153 164.901 37.7477 164.954 37.6695 165.015C37.5589 165.102 37.4335 165.2 37.1792 165.2C37.1624 165.2 37.1449 165.199 37.1267 165.198C36.8895 165.187 36.7413 165.087 36.6105 164.998C36.49 164.917 36.3949 164.853 36.2359 164.853C36.2264 164.853 36.2166 164.853 36.2066 164.853C36.0397 164.861 35.9434 164.918 35.8215 164.989C35.6689 165.079 35.496 165.18 35.1731 165.198C35.1507 165.2 35.1286 165.2 35.1068 165.2C34.8053 165.2 34.5461 165.085 34.3174 164.983C34.1252 164.898 33.9437 164.817 33.7627 164.813L33.7478 164.813C33.5631 164.813 33.336 164.888 33.0956 164.967C32.7967 165.066 32.458 165.178 32.1065 165.178L32.0798 165.178C31.2324 165.165 30.7509 164.728 30.6486 163.881C30.5943 163.432 30.7434 162.945 30.8876 162.475C31.0544 161.931 31.2268 161.369 31.0979 160.853C30.8256 159.763 30.6691 158.36 30.7085 157.363C30.7356 156.679 30.523 155.757 30.3355 154.944C30.2452 154.552 30.1599 154.183 30.1019 153.85C29.9806 153.156 30.4886 151.938 30.9368 150.863C31.1822 150.275 31.414 149.719 31.4607 149.421C31.5617 148.775 31.4463 145.256 31.3843 143.364L31.3752 143.087C31.3236 142.717 31.2718 142.323 31.2206 141.933C31.0812 140.871 30.9495 139.868 30.8348 139.439L30.7487 139.118C30.4431 137.982 29.9838 136.275 29.9829 135.678C29.8771 135.402 29.7228 134.993 29.5649 134.528C29.1839 134.059 28.9068 133.027 28.7414 131.46C28.4799 128.984 28.7685 125.507 29.068 124.05C29.2187 123.317 29.4544 122.429 29.6624 121.646C29.861 120.899 30.0486 120.193 30.1221 119.77C30.1979 119.336 30.2148 119.09 30.225 118.944C30.2316 118.848 30.236 118.784 30.2548 118.734C30.2295 118.599 30.2022 118.446 30.173 118.282C30.0293 117.476 29.8327 116.373 29.5767 115.802C29.2395 115.051 28.7967 112.811 28.6077 111.855L28.6012 111.822C28.541 111.517 28.4858 111.007 28.4371 110.304C28.3449 109.548 28.3165 108.638 28.2977 108.037L28.2944 107.933C28.2853 107.647 28.2854 107.076 28.3458 106.863C28.3379 106.683 28.3077 106.518 28.2224 106.181C28.1335 105.829 28.0739 105.449 28.0049 105.009C27.9713 104.795 27.9355 104.566 27.8929 104.32C27.8489 104.164 27.8203 104.008 27.8085 103.857C27.7286 103.446 27.6689 103.252 27.6163 103.081C27.5541 102.879 27.5 102.703 27.4336 102.263C27.3463 102.142 27.2935 101.69 27.1415 99.9965C27.0812 99.3247 27.0188 98.63 26.9564 98.1096C26.923 97.8313 26.9031 97.4741 26.8973 97.0477C26.8382 96.9257 26.759 96.8016 26.6754 96.6707C26.5817 96.5238 26.485 96.3723 26.397 96.1966C26.0435 95.8658 25.69 94.0393 25.6326 93.5415C25.5032 92.4192 24.6819 87.4697 24.2073 85.8917C23.6655 84.0905 24.0365 80.4604 24.0806 80.0524C24.0955 79.9138 24.1093 79.7766 24.1228 79.6418C24.1805 79.0654 24.2351 78.5197 24.3665 78.1003C24.2286 77.8427 23.5884 77.7272 23.2776 77.7272H23.1153C22.8069 77.7272 22.1741 77.841 22.0271 78.1024C22.1581 78.5218 22.2127 79.0671 22.2703 79.6429C22.2837 79.7774 22.2975 79.9142 22.3124 80.0525C22.3565 80.4605 22.7275 84.0908 22.1856 85.8917C21.7111 87.4697 20.8897 92.4192 20.7603 93.5415C20.7029 94.0393 20.3494 95.8658 19.9961 96.1966C19.908 96.3723 19.8113 96.5237 19.7177 96.6704C19.6341 96.8014 19.5548 96.9256 19.4957 97.0477C19.4899 97.4736 19.47 97.8307 19.4366 98.1096C19.3742 98.6301 19.3118 99.325 19.2515 99.997C19.0995 101.69 19.0467 102.142 18.9594 102.263C18.893 102.703 18.8388 102.879 18.7766 103.081C18.7241 103.252 18.6645 103.446 18.5845 103.857C18.5727 104.008 18.5441 104.164 18.497 104.333C18.4575 104.566 18.4218 104.794 18.3882 105.008C18.3192 105.448 18.2596 105.829 18.1706 106.181C18.0995 106.462 18.068 106.619 18.0542 106.762C18.088 106.908 18.0922 107.203 18.0964 107.689L18.0987 107.927C18.1056 108.569 18.0694 109.619 17.944 110.465C17.8989 111.081 17.8473 111.541 17.7917 111.822L17.7859 111.851C17.5968 112.808 17.1539 115.05 16.8162 115.802C16.5602 116.373 16.3635 117.477 16.2199 118.282C16.1907 118.446 16.1635 118.599 16.1383 118.734C16.157 118.784 16.1614 118.848 16.168 118.943C16.1781 119.09 16.1951 119.336 16.2709 119.77C16.3445 120.193 16.5321 120.899 16.7308 121.647C16.9387 122.43 17.1744 123.317 17.325 124.05C17.6245 125.507 17.9131 128.984 17.6516 131.46C17.5312 132.6 17.2819 134.071 16.7763 134.651C16.6173 135.126 16.4822 135.489 16.4101 135.678C16.4092 136.276 15.9495 137.984 15.6436 139.12L15.5582 139.439C15.4436 139.868 15.312 140.87 15.1727 141.931C15.1214 142.322 15.0695 142.717 15.0178 143.087L15.0086 143.369C14.9466 145.259 14.8314 148.776 14.9323 149.421C14.979 149.719 15.2108 150.275 15.4561 150.863C15.9044 151.937 16.4124 153.156 16.2911 153.85C16.233 154.183 16.1478 154.552 16.0575 154.944C15.87 155.757 15.6574 156.679 15.6844 157.363C15.724 158.36 15.5675 159.763 15.2951 160.853C15.1661 161.369 15.3386 161.931 15.5054 162.475C15.6496 162.945 15.7987 163.432 15.7444 163.881C15.6421 164.728 15.1605 165.165 14.3132 165.178L14.2865 165.178C13.9349 165.178 13.5962 165.066 13.2974 164.967C13.0569 164.888 12.8299 164.813 12.6451 164.813L12.6303 164.813C12.4493 164.817 12.2678 164.898 12.0756 164.983C11.8469 165.085 11.5877 165.2 11.2862 165.2C11.2643 165.2 11.2422 165.2 11.2199 165.198C10.8969 165.18 10.7241 165.079 10.5715 164.989C10.4496 164.918 10.3533 164.861 10.1864 164.853C10.1763 164.853 10.1666 164.853 10.1571 164.853C9.99811 164.853 9.90296 164.917 9.78249 164.998C9.65173 165.087 9.50347 165.187 9.26631 165.198C9.2481 165.199 9.23063 165.2 9.21387 165.2C8.95951 165.2 8.83412 165.102 8.72348 165.015C8.6452 164.954 8.57762 164.901 8.45482 164.869C8.43615 164.865 8.41801 164.862 8.39934 164.862C8.29156 164.862 8.17926 164.944 8.06032 165.03C7.91692 165.133 7.7686 165.241 7.585 165.241C7.57105 165.241 7.55695 165.24 7.54287 165.239C7.31103 165.217 7.19068 165.12 7.08449 165.034C7.01951 164.981 6.96343 164.936 6.88056 164.906C6.87012 164.903 6.85857 164.901 6.84541 164.901C6.77112 164.901 6.66168 164.957 6.54585 165.018C6.37316 165.107 6.15812 165.219 5.91232 165.219C5.38438 165.219 5.11413 164.956 4.9484 164.283C4.78195 163.606 4.92828 162.508 5.46127 161.841C5.59888 161.669 5.8179 161.406 6.07154 161.102C6.71969 160.326 7.60745 159.262 7.98988 158.684C8.5234 157.878 8.7397 156.436 8.42652 155.773C8.0263 154.924 7.9423 154.132 8.17686 153.419L8.256 153.18C8.47521 152.52 8.70195 151.838 8.79989 151.009C8.88043 150.327 8.84422 148.675 8.77631 147.422C8.71258 147.141 8.66082 146.844 8.62254 146.541C8.40386 144.809 7.40823 137.308 6.8902 134.982C6.40306 132.796 5.63151 128.788 5.50266 126.709C5.38891 124.874 5.51935 123.679 5.59729 122.965L5.61476 122.804C5.64154 122.552 5.71364 122.065 5.76307 121.839C5.85995 121.344 5.99578 120.884 6.11558 120.479C6.18568 120.242 6.252 120.018 6.3027 119.812C6.33453 119.564 6.41355 118.996 6.49681 118.8L6.50817 118.742C6.59316 118.31 6.68937 117.821 6.73862 117.367C6.73696 117.08 6.74407 116.811 6.76022 116.545C6.67523 115.611 6.64015 112.081 6.75031 110.467C6.82235 109.412 7.10595 107.852 7.33381 106.599C7.45542 105.93 7.56046 105.352 7.59276 105.061C7.63217 104.706 7.61163 104.203 7.53189 103.567L7.53076 103.564C6.55854 101.17 5.57208 98.6621 5.13026 96.6406C4.90838 95.6258 4.86573 93.8474 4.82446 92.1276C4.78619 90.5334 4.74664 88.8849 4.56164 87.9496C4.18799 86.0608 4.13523 82.7931 4.18966 81.1771C4.17018 80.8139 4.227 80.0759 4.25969 79.752C4.23956 79.6892 4.24606 79.6104 4.25583 79.5326C4.28135 79.328 4.30627 78.877 4.33783 78.306C4.41863 76.845 4.54063 74.6371 4.8366 73.3975C5.23476 71.7301 5.98956 67.294 5.95879 65.8805C5.92763 64.4441 6.6613 61.3711 7.20293 59.7049C7.31484 59.2321 7.51385 58.4929 7.68948 57.8408C7.78463 57.4872 7.87162 57.1642 7.93155 56.9323C7.96797 56.4865 8.0806 56.0356 8.17489 55.6916C8.30387 55.2214 8.21543 54.6558 8.11302 54.0008C8.00072 53.2826 7.86092 52.3887 7.96783 51.3292C8.14518 49.5721 8.34127 48.6917 8.4745 48.2626C8.51837 48.1049 8.57398 47.9428 8.63292 47.7712C8.76489 47.3867 8.90132 46.9892 8.9275 46.5621C8.86425 45.8941 8.86543 45.1232 8.93015 44.7173C8.935 43.8476 8.92969 42.8705 8.85506 42.2009C8.82881 42.0705 8.80382 41.9149 8.78236 41.7498C8.65059 41.1448 8.38705 40.528 8.19462 40.0776C8.13137 39.9297 8.07575 39.7995 8.03143 39.6862C7.86563 39.5659 7.80065 39.2181 7.68369 38.5926C7.5997 38.1435 7.49517 37.5846 7.32374 37.0097C6.9879 35.884 6.3139 32.9488 6.06452 31.4108C6.02964 31.3996 5.99634 31.3936 5.96718 31.3936C5.93807 31.3936 5.92465 31.3997 5.92126 31.4015C5.90644 31.4095 5.88703 31.4251 5.8681 31.4681C5.91469 31.7503 5.81249 32.7056 5.74311 33.2823C5.66868 33.9011 5.28141 35.1329 4.83308 36.5592C4.06639 38.998 3.11217 42.0332 3.18785 43.6429C3.28918 45.7977 2.54136 47.4119 2.1499 47.732C2.07435 48.118 2.01202 48.5306 1.95162 48.9302C1.89082 49.3328 1.82789 49.7492 1.75074 50.1452C1.66243 50.7594 1.47942 51.4667 1.19249 52.3007C0.904037 53.1393 0.0541496 55.209 -1.08121 57.8379C-1.23178 58.3254 -1.39903 58.8601 -1.57594 59.4256C-2.7166 63.072 -4.27876 68.066 -4.31804 69.839C-4.32927 70.3472 -4.04466 71.1247 -3.5746 72.3448C-3.05304 73.6987 -3.14328 76.3576 -4.33791 78.6184C-4.84612 79.5803 -5.29618 81.0508 -5.73148 82.4729C-6.15423 83.8543 -6.55366 85.1591 -6.94805 85.7459C-7.18288 86.0953 -7.42595 86.2725 -7.67049 86.2725C-7.92054 86.2725 -8.10859 86.091 -8.23577 85.9047C-8.43353 86.9165 -8.89183 88.7305 -9.65355 88.8691C-9.70811 88.8791 -9.76179 88.8841 -9.8131 88.8841C-10.1883 88.8841 -10.4615 88.6246 -10.5989 88.1552C-10.8362 88.9643 -11.2707 90.049 -11.8954 90.049L-11.9156 90.0487C-12.7948 90.0165 -12.8207 88.8615 -12.7807 87.56C-12.8504 87.5989 -12.9292 87.619 -13.0153 87.619C-13.5911 87.619 -14.2832 86.7539 -14.4125 85.8723C-14.7323 83.6905 -14.5204 81.0768 -14.3657 79.1683C-14.2896 78.2305 -14.2112 77.2636 -14.2757 76.9902C-14.3943 77.0998 -14.5454 77.2957 -14.7182 77.5195C-15.0427 77.9398 -15.4464 78.4629 -15.92 78.7888C-16.3043 79.0533 -16.7623 79.1931 -17.2445 79.1931C-18.0014 79.1931 -18.6675 78.8512 -18.8284 78.3801C-18.8892 78.2021 -18.924 77.8515 -18.4742 77.5032C-17.3021 76.5955 -15.0555 73.3164 -14.2569 71.348C-13.7244 70.0353 -12.7435 69.6003 -11.9553 69.2506C-11.4848 69.0419 -11.0784 68.8617 -10.8782 68.5452C-10.4153 67.8137 -9.71416 64.251 -8.79436 57.9564C-8.75735 54.5402 -8.70279 51.0635 -8.48411 49.3566C-8.071 46.132 -6.71915 42.214 -5.53209 40.8009C-5.36225 40.5988 -5.21067 40.415 -5.07525 40.2507C-4.66413 39.7522 -4.40995 39.444 -4.21806 39.3133C-4.04774 39.0851 -3.90229 38.6571 -3.78547 38.0405C-4.05073 34.0824 -3.20092 30.6978 -2.51157 29.5567L-2.47483 29.4964C-2.39516 29.2231 -2.28404 28.8752 -2.16657 28.5073L-2.12531 28.3778L-2.10312 28.2491C-1.91924 27.1818 -2.056 25.6798 -2.21435 23.9406C-2.24904 23.5595 -2.28459 23.169 -2.31769 22.7721C-2.52548 20.2774 -2.21177 18.2808 -1.33044 16.489C-1.07947 15.8794 -0.60648 15.0924 -0.154951 14.5351C1.84591 11.0275 5.898 9.57143 7.62483 9.57143C7.73739 9.57143 7.83913 9.57821 7.92758 9.59157C7.96957 9.58944 8.01383 9.58851 8.06028 9.58851C8.24268 9.58851 8.45983 9.60366 8.68975 9.61969C8.96924 9.63918 9.28595 9.66132 9.60948 9.66139C9.75899 9.53605 10.0895 9.42068 10.6912 9.21747C11.1205 9.07246 11.6549 8.892 12.1892 8.66884C13.434 8.14907 14.9703 7.19489 15.8422 6.39997C16.1112 6.15467 16.2788 6.02515 16.3978 5.97229C16.4804 5.85733 16.5682 5.74269 16.659 5.62419C17.0005 5.17882 17.387 4.67487 17.4924 4.15709C17.4584 3.85748 17.4465 2.21124 17.5587 1.12907C17.5461 0.955923 17.5332 0.868689 17.5247 0.825792C17.5087 0.745598 17.4954 0.664217 17.4818 0.580303C17.4192 0.196241 17.3484 -0.239023 16.9365 -0.853159C16.585 -1.37746 16.4875 -2.59588 16.4677 -3.52565C16.464 -3.70538 16.3175 -3.8516 16.1413 -3.8516C16.1183 -3.8516 16.0951 -3.84907 16.0722 -3.84409C15.9674 -3.82121 15.8577 -3.80912 15.7549 -3.80912C15.478 -3.80912 15.2492 -3.89317 15.0933 -4.05228C14.9324 -4.21632 14.8538 -4.45209 14.8595 -4.75311C14.8795 -5.80497 14.6657 -6.41525 14.477 -6.95371C14.3819 -7.22521 14.2921 -7.48167 14.238 -7.77031C14.1419 -8.28317 14.0834 -8.97277 14.3503 -9.34553C14.4553 -9.49209 14.5993 -9.57939 14.7785 -9.60499C14.8223 -9.61131 14.8675 -9.61443 14.9127 -9.61443C15.0613 -9.61443 15.2166 -9.58052 15.3744 -9.5135C15.396 -9.50438 15.4183 -9.49973 15.4405 -9.49973C15.4885 -9.49973 15.536 -9.52127 15.5708 -9.55877C15.6065 -9.5972 15.624 -9.64721 15.62 -9.69947C15.5044 -11.2383 15.3988 -15.0272 16.9118 -16.9685C18.7107 -19.2766 21.4774 -19.7442 22.5836 -19.8381C22.7266 -19.8502 22.8991 -19.8633 23.1375 -19.8633C23.3163 -19.8633 23.5101 -19.8556 23.7137 -19.8404C24.8401 -19.7567 27.6567 -19.3092 29.481 -16.9685C30.9939 -15.0272 30.8883 -11.2383 30.7727 -9.6994C30.7688 -9.64721 30.7862 -9.5972 30.8219 -9.55871C30.8567 -9.5212 30.9042 -9.49973 30.9522 -9.49973C30.9746 -9.49973 30.9968 -9.50438 31.0184 -9.5135C31.1762 -9.58052 31.3315 -9.61443 31.48 -9.61443C31.5252 -9.61443 31.5704 -9.61131 31.6143 -9.60499C31.7934 -9.57939 31.9374 -9.49209 32.0424 -9.34553C32.3093 -8.97277 32.2508 -8.28317 32.1548 -7.77031C32.1007 -7.48167 32.0108 -7.22527 31.9157 -6.95377C31.7271 -6.41531 31.5133 -5.80505 31.5333 -4.75311C31.539 -4.45211 31.4604 -4.21625 31.2995 -4.05221C31.1435 -3.89315 30.9147 -3.8091 30.6379 -3.8091C30.535 -3.8091 30.4253 -3.82121 30.3205 -3.84407C30.2976 -3.84906 30.2744 -3.85159 30.2514 -3.85159C30.0753 -3.85159 29.9288 -3.70538 29.925 -3.52563C29.9052 -2.59587 29.8078 -1.37751 29.4563 -0.853146C29.0445 -0.239079 28.9736 0.196188 28.911 0.580181C28.8974 0.664095 28.8841 0.745554 28.868 0.825735C28.8594 0.869095 28.8466 0.956728 28.8341 1.12902C28.9463 2.21146 28.9344 3.85756 28.9004 4.15711C29.0057 4.67488 29.3922 5.17884 29.7337 5.62421C29.8259 5.74442 29.915 5.86065 29.9952 5.97236C30.1142 6.02536 30.2817 6.15481 30.5506 6.39997C31.4224 7.19483 32.9586 8.14901 34.2035 8.66884C34.7378 8.892 35.2722 9.07246 35.7016 9.21747C36.3033 9.42075 36.6338 9.53605 36.7833 9.66139C37.1068 9.66132 37.4235 9.63918 37.703 9.61969C37.9329 9.60366 38.1501 9.58851 38.3325 9.58851C38.3789 9.58851 38.4231 9.58943 38.4651 9.59157C38.5536 9.57821 38.6553 9.57143 38.7679 9.57143C40.4947 9.57143 44.5468 11.0275 46.5477 14.5351C46.9993 15.0926 47.4723 15.8796 47.7269 16.4971C48.6045 18.2807 48.9182 20.2772 48.7104 22.7721C48.6773 23.1694 48.6418 23.5601 48.607 23.9416C48.4487 25.6804 48.312 27.182 48.4959 28.2491L48.5253 28.4197L48.5274 28.4263C48.6457 28.8064 48.7576 29.1658 48.8365 29.4451L48.9043 29.5568C49.6012 30.7102 50.4546 34.1262 50.1739 38.1142C50.287 38.6961 50.431 39.0974 50.6024 39.3079C50.7958 39.4356 51.053 39.7475 51.4698 40.253C51.6048 40.4166 51.7558 40.5996 51.9248 40.8009C53.1119 42.2139 54.4637 46.1319 54.8768 49.3565C55.0955 51.0635 55.1501 54.5401 55.1871 57.9563C56.1069 64.251 56.808 67.8137 57.271 68.5452C57.4712 68.8617 57.8776 69.0419 58.348 69.2506C59.1363 69.6002 60.1171 70.0353 60.6497 71.3479C61.4483 73.3164 63.6949 76.5954 64.867 77.5032C65.3168 77.8515 65.282 78.2021 65.2212 78.3801C65.0603 78.8512 64.3942 79.193 63.6373 79.193C63.1551 79.193 62.697 79.0533 62.3128 78.7888C61.8393 78.4629 61.4355 77.9398 61.1111 77.5197C60.9384 77.2958 60.7871 77.0999 60.6685 76.9902C60.6041 77.2637 60.6825 78.2303 60.7585 79.1678C60.9132 81.0764 61.1251 83.6904 60.8053 85.8722C60.6761 86.7538 59.984 87.6189 59.4081 87.6189C59.3221 87.6189 59.2432 87.5988 59.1736 87.56C59.2135 88.8614 59.1875 90.0164 58.3083 90.0486L58.2881 90.0489C57.6635 90.0489 57.2289 88.9642 56.9917 88.1552C56.8543 88.6245 56.5811 88.884 56.206 88.884C56.1546 88.884 56.1009 88.879 56.0464 88.8691C55.2843 88.7304 54.8262 86.9164 54.6285 85.9046C54.5014 86.0909 54.3134 86.2725 54.0633 86.2725C53.8188 86.2725 53.5756 86.0953 53.3408 85.7458C52.9464 85.159 52.547 83.8542 52.1242 82.4728C51.6889 81.0508 51.2389 79.5803 50.7307 78.6184C49.536 76.3575 49.4458 73.6986 49.9674 72.3448C50.4375 71.1246 50.7221 70.347 50.7108 69.839C50.6715 68.066 49.1094 63.0721 47.9688 59.4257C47.7919 58.8602 47.6246 58.3255 47.474 57.8379C46.3387 55.2088 45.4888 53.1391 45.2003 52.3006C44.9133 51.4667 44.7304 50.7594 44.6409 50.1383C44.5649 49.7492 44.502 49.333 44.4413 48.9307C44.3809 48.5309 44.3186 48.1181 44.2429 47.7319C43.8514 47.4117 43.1037 45.7975 43.2049 43.6428C43.2807 42.0331 42.3265 38.9979 41.5597 36.559C41.1113 35.1327 40.7241 33.901 40.6497 33.2822C40.5803 32.7055 40.4782 31.7502 40.5247 31.4681C40.5059 31.425 40.4865 31.4094 40.4717 31.4015C40.4682 31.3996 40.4548 31.3935 40.4256 31.3935C40.3965 31.3935 40.3631 31.3995 40.3283 31.4108C40.0791 32.9482 39.405 35.8835 39.0691 37.0096C38.8976 37.5846 38.7931 38.1435 38.7092 38.5926C38.5922 39.2181 38.5271 39.5658 38.3614 39.6862C38.317 39.7995 38.2614 39.9296 38.1982 40.0775C38.0058 40.5278 37.7422 41.1446 37.6086 41.761C37.5891 41.914 37.5641 42.0696 37.536 42.2121C37.4631 42.8705 37.4578 43.8475 37.4626 44.7172C37.5274 45.123 37.5286 45.8941 37.4653 46.562C37.4915 46.9892 37.6279 47.3866 37.7599 47.7711C37.8188 47.9426 37.8744 48.1047 37.9194 48.2662C38.0516 48.6917 38.2476 49.5722 38.425 51.3292C38.5319 52.3886 38.3921 53.2824 38.2798 54.0006C38.1774 54.6556 38.0889 55.2213 38.218 55.6916C38.3123 56.0353 38.4248 56.4861 38.4612 56.9321C38.5211 57.1636 38.6078 57.4858 38.7028 57.8386C38.8786 58.4915 39.0778 59.2315 39.1928 59.7155C39.7315 61.3709 40.4651 64.4439 40.434 65.8804C40.4033 67.2935 41.158 71.7298 41.5562 73.3974C41.8521 74.6369 41.9742 76.8444 42.055 78.3052C42.0865 78.8766 42.1114 79.3279 42.137 79.5325C42.1468 79.6103 42.1533 79.6892 42.1331 79.752C42.1659 80.0755 42.2226 80.8132 42.203 81.1886C42.2576 82.7926 42.2049 86.06 41.8312 87.9495C41.6461 88.8848 41.6066 90.5331 41.5684 92.1272C41.5271 93.8472 41.4844 95.6257 41.2625 96.6405C40.8208 98.6617 39.8343 101.169 38.8619 103.565L38.8609 103.567C38.7811 104.204 38.7607 104.706 38.8001 105.061C38.8323 105.352 38.9373 105.929 39.059 106.598C39.2868 107.852 39.5705 109.412 39.6425 110.467C39.753 112.086 39.7174 115.631 39.6321 116.548C39.6486 116.805 39.6559 117.077 39.6543 117.367C39.7035 117.821 39.7997 118.31 39.8847 118.742L39.896 118.799C39.9792 118.996 40.0583 119.564 40.0902 119.813C40.1408 120.017 40.2071 120.241 40.2772 120.478C40.4348 121.012 40.6135 121.616 40.7052 122.292C40.7349 122.461 40.7617 122.65 40.778 122.804L40.7955 122.965C40.8735 123.679 41.0039 124.874 40.8901 126.709C40.7614 128.788 39.9898 132.795 39.5026 134.982C38.9839 137.31 37.9888 144.809 37.7703 146.541C37.732 146.844 37.6803 147.141 37.6166 147.422C37.5486 148.674 37.5123 150.327 37.593 151.009C37.691 151.839 37.9179 152.521 38.1372 153.181L38.216 153.418C38.4505 154.132 38.3665 154.924 37.9663 155.772C37.6531 156.436 37.8695 157.878 38.403 158.684C38.7856 159.262 39.6736 160.326 40.3221 161.103C40.5754 161.407 40.7941 161.669 40.9316 161.841C41.4645 162.508 41.6109 163.606 41.4444 164.283C41.2787 164.956 41.0085 165.219 40.4805 165.219C40.2347 165.219 40.0197 165.107 39.847 165.018C39.7312 164.957 39.6217 164.901 39.5474 164.901C39.5342 164.901 39.5227 164.902 39.5122 164.906C39.4294 164.936 39.3733 164.981 39.3083 165.034C39.2021 165.12 39.0818 165.217 38.8499 165.238C38.8358 165.24 38.822 165.241 38.808 165.241Z" fill="white" stroke="#28839F" stroke-width="0.504915"/>
<path d="M1.22533 24.6746C1.19625 24.6914 1.15966 24.6745 1.15387 24.6414C0.740925 22.2756 -2.31511 19.2191 -0.295636 15.087C1.74316 10.9154 6.61193 9.51468 7.92041 9.72782C9.16095 9.9299 12.4256 12.0753 13.9541 12.531C14.0037 12.5458 13.9974 12.6197 13.9458 12.625C11.7579 12.8489 9.92201 12.9149 7.75134 14.4424C5.49514 16.0302 5.94965 18.0406 5.46278 19.5935C4.97979 21.134 3.71346 23.2439 1.22533 24.6746Z" fill="#28839F" fill-opacity="0.2"/>
<path d="M-1.20867 16.5479C-1.52818 18.3748 -1.13318 19.995 -0.417488 21.8157C0.199538 23.3853 0.799704 24.3278 0.769274 25.0738C0.130242 25.6523 -1.58904 27.7838 -1.9694 28.271C-1.74118 26.9464 -1.99983 24.952 -2.18241 22.7596C-2.365 20.5672 -2.1672 18.4966 -1.20867 16.5479Z" fill="#28839F" fill-opacity="0.2"/>
<path d="M5.5086 20.6895C4.85943 23.1051 2.11821 24.2724 -0.113301 31.6716C-0.750523 33.7846 -1.53855 40.4714 -1.51307 43.0801C-1.50356 44.0548 -0.732042 42.8162 -0.732042 42.8162C-0.732042 42.8162 4.79604 34.879 5.48578 30.9002C6.17552 26.9215 5.5086 20.6895 5.5086 20.6895Z" fill="#28839F" fill-opacity="0.2"/>
<path d="M3.09234 24.0186C2.39816 24.8274 0.00878596 29.2153 -0.638874 31.845C-1.20479 34.1427 -2.11248 39.5005 -2.17835 43.919C-2.17997 44.0275 -2.33065 44.0533 -2.36965 43.952C-4.80697 37.623 -3.32754 31.1695 -2.39517 29.6264C-1.60513 28.3189 0.201514 25.5004 3.09234 24.0186Z" fill="#28839F" fill-opacity="0.2"/>
<path d="M0.0902318 42.6336C-0.271125 43.2866 1.30742 44.7753 1.91603 47.5868C2.01998 48.0671 3.17379 46.2368 3.05207 43.6486C2.93035 41.0604 5.41038 34.9096 5.60817 33.2653C5.80596 31.621 5.72988 31.4688 5.72988 31.4688C3.39282 37.3802 2.17974 38.8579 0.0902318 42.6336Z" fill="#28839F" fill-opacity="0.2"/>
<path d="M-0.772164 43.7908C-2.58986 45.155 -2.94282 47.0895 -3.36883 48.5816C-3.79486 50.0736 -7.33993 63.0299 -7.65944 64.3849C-7.97895 65.74 -8.08545 67.3538 -7.59858 66.7296C-7.11169 66.1054 -2.65374 53.0881 -1.29962 50.2563C0.0545077 47.4245 0.729971 46.5127 0.475458 45.3539C0.272591 44.4302 -0.102703 43.2884 -0.772164 43.7908Z" fill="#28839F" fill-opacity="0.2"/>
<path d="M0.536345 47.5052C-0.259188 48.8485 -4.67728 60.6594 -5.42789 63.5826C-6.17849 66.5058 -6.19878 67.6832 -5.71189 67.399C-5.22502 67.1148 0.211761 54.7319 1.0638 52.2553C1.91584 49.7788 1.72311 48.7638 1.4391 47.83C1.15509 46.8962 0.860931 46.9571 0.536345 47.5052Z" fill="#28839F" fill-opacity="0.2"/>
<path d="M19.5857 12.8943C17.7695 12.4348 13.9826 12.838 12.3637 13.0567C9.58448 13.4323 7.49631 14.6414 6.76466 15.9799C6.11549 17.1674 5.64953 19.9552 6.15605 20.527C7.73841 22.3134 7.02838 27.429 12.6072 30.0273C14.4743 30.897 20.4581 30.342 21.371 29.2762C22.2838 28.2105 22.649 23.0036 22.3447 20.0195C22.0404 17.0355 21.3912 13.3511 19.5857 12.8943Z" fill="#28839F" fill-opacity="0.2"/>
<path d="M15.934 6.50011C15.0833 7.27567 13.53 8.25604 12.2418 8.79399C10.9536 9.33193 9.71616 9.60599 9.64516 9.82928C9.57416 10.0526 10.9841 10.5093 11.9578 10.8646C12.9316 11.2198 14.1995 11.4837 14.6356 11.2503C15.0718 11.0168 15.8021 8.7737 16.0151 8.1038C16.2281 7.43391 16.4716 6.64221 16.5628 6.27682C16.6541 5.91142 16.3904 6.08397 15.934 6.50011Z" fill="#28839F" fill-opacity="0.2"/>
<path d="M16.8978 5.86054C16.598 6.67031 16.0153 9.13387 15.6501 10.2148C15.285 11.2958 15.1633 11.6916 15.6197 11.8896C16.0762 12.0875 17.0651 11.4937 17.2021 11.0674C17.339 10.6411 17.339 5.93666 17.3238 5.58648C17.3086 5.23631 17.0499 5.44946 16.8978 5.86054Z" fill="#28839F" fill-opacity="0.2"/>
<path d="M17.6127 6.53013C17.6026 7.30152 17.5215 9.6969 17.7801 10.245C18.0388 10.7931 19.1951 11.5087 19.5755 11.737C19.9558 11.9654 20.443 12.11 20.4579 11.737C20.4681 11.4833 19.4671 10.0652 18.8299 8.45353C18.2822 7.06807 17.9063 5.86641 17.9018 5.86024C17.704 5.58618 17.6192 6.03872 17.6127 6.53013Z" fill="#28839F" fill-opacity="0.2"/>
<path d="M17.63 4.15997C17.7565 4.83946 18.6423 7.33428 19.3007 8.76041C19.6012 9.41128 20.5636 11.3909 20.9164 11.2852C21.2385 11.1888 19.9462 6.97945 19.5344 5.51498C18.6097 2.22641 18.3967 0.01882 17.9343 0.231965C17.5667 0.401439 17.5819 3.90115 17.63 4.15997Z" fill="#28839F" fill-opacity="0.2"/>
<path d="M21.7968 30.3418C22.3531 31.3439 22.8162 33.1889 22.8314 34.3307C22.8466 35.4726 22.2989 35.6248 21.5838 35.975C20.8687 36.3252 17.5366 38.0557 16.6237 38.8373C15.6956 39.6318 15.1631 40.1314 14.9805 38.5632C14.7979 36.9951 14.5697 35.2747 14.8588 33.5999C15.1479 31.9252 15.437 31.2705 16.1977 31.0422C16.9585 30.8138 17.9094 30.8671 19.0885 30.6311C20.2505 30.3985 21.5686 29.9307 21.7968 30.3418Z" fill="#28839F" fill-opacity="0.2"/>
<path d="M21.6598 36.5919C17.4225 38.1829 15.5372 40.6776 15.1428 41.4156C14.6762 42.2885 14.9178 44.3947 15.0515 44.76C15.1833 45.1203 16.1894 45.1591 17.0801 44.9681C18.3582 44.6941 20.6708 44.3997 21.4924 44.2982C22.314 44.1967 22.8111 43.202 22.8516 42.2682C22.8922 41.3344 22.9226 38.391 22.8516 37.8023C22.7806 37.2136 22.4254 36.3044 21.6598 36.5919Z" fill="#28839F" fill-opacity="0.2"/>
<path d="M21.695 44.9285C20.485 44.7969 16.6741 45.5984 15.9945 45.9232C15.3149 46.248 14.7773 46.8976 14.757 47.7502C14.7368 48.6028 14.9802 50.2471 15.2033 50.7343C15.4265 51.2215 16.1771 51.668 17.232 51.7087C18.2869 51.7492 20.4778 51.9117 21.4516 51.7696C22.4253 51.6274 22.6586 50.6734 22.7297 49.5975C22.8007 48.5216 22.8514 47.0904 22.7499 46.1262C22.6485 45.162 22.1616 44.9793 21.695 44.9285Z" fill="#28839F" fill-opacity="0.2"/>
<path d="M13.134 30.5951C12.2695 30.4408 9.8802 29.0409 8.99558 28.4027C7.61854 27.4092 7.99213 32.0685 10.8214 32.016C11.9168 31.9957 12.7892 31.4299 13.2152 31.2091C13.6412 30.9884 13.5322 30.6661 13.134 30.5951Z" fill="#28839F" fill-opacity="0.2"/>
<path d="M8.81457 32.2951C8.90206 33.0563 9.09514 33.6085 9.46754 34.2832C9.89609 35.0597 12.5333 33.2124 12.7095 32.7785C12.8932 32.326 12.3002 31.9563 11.709 32.1276C10.9019 32.3614 9.8758 32.219 9.33187 31.8041C8.7816 31.3844 8.77112 31.917 8.81457 32.2951Z" fill="#28839F" fill-opacity="0.2"/>
<path d="M12.8502 33.164C12.4051 33.5497 11.5315 34.1333 10.6592 34.5393C9.85156 34.9152 9.90356 35.2853 10.1216 35.5695C10.3397 35.8537 11.704 36.6149 12.201 36.8382C12.698 37.0615 13.5196 36.8788 13.6768 36.4018C13.9427 35.595 13.7714 32.3655 12.8502 33.164Z" fill="#28839F" fill-opacity="0.2"/>
<path d="M9.09739 38.5742C9.27998 39.1324 10.487 39.9546 11.2173 40.4215C11.9477 40.8884 12.9569 41.4314 13.2967 41.1624C13.6365 40.8934 13.6467 38.3255 13.3981 37.7622C13.1496 37.1989 12.5968 37.2953 11.9375 37.0821C11.2411 36.857 11.0617 36.4808 10.2943 36.4173C9.68064 36.3666 8.84359 37.7981 9.09739 38.5742Z" fill="#28839F" fill-opacity="0.2"/>
<path d="M10.1571 40.071C10.6004 40.3853 12.8653 41.5935 13.2609 41.8371C13.6565 42.0807 13.8543 42.9333 13.976 43.9229C14.0977 44.9125 14.0233 46.0801 13.6108 46.2371C12.5306 46.6482 9.76056 43.643 9.40391 43.2378C8.95508 42.7278 8.86379 41.3727 8.83336 40.7257C8.79308 39.8692 9.42674 39.5534 10.1571 40.071Z" fill="#28839F" fill-opacity="0.2"/>
<path d="M10.1114 44.4556C10.8721 45.2929 12.6751 46.4729 13.1087 46.8459C13.5423 47.2189 13.5727 48.6805 13.5651 49.358C13.5575 50.0355 12.8805 50.5607 12.424 50.4389C11.9676 50.3171 9.6473 48.0867 9.3354 47.6985C9.0235 47.3102 8.94743 45.3005 9.07675 44.6687C9.20608 44.0369 9.59009 43.8818 10.1114 44.4556Z" fill="#28839F" fill-opacity="0.2"/>
<path d="M9.64502 48.4186C10.3103 49.174 11.8258 50.4993 12.4446 51.0575C13.0633 51.6158 13.8443 53.8995 14.0878 54.9957C14.3312 56.0919 14.2704 57.5129 13.9458 58.6497C13.6212 59.7865 14.0269 60.3549 13.824 61.2886C13.6212 62.2224 12.5257 62.872 12.0794 62.1818C11.6331 61.4916 9.90875 59.3399 8.83357 58.7309C7.75837 58.1219 8.0221 56.7618 8.30611 55.7265C8.59012 54.6912 7.90038 53.3514 8.10325 51.3417C8.30611 49.3321 8.54447 48.3907 8.69662 48.0481C8.84878 47.7055 9.19364 47.906 9.64502 48.4186Z" fill="#28839F" fill-opacity="0.2"/>
<path d="M6.20225 22.6131C6.34443 25.2316 6.04028 29.8048 6.11505 30.7588C6.1962 31.794 7.04822 35.6104 7.45396 36.9705C7.85969 38.3306 7.89012 39.5841 8.16399 39.5993C8.43785 39.6145 9.05659 36.463 9.11745 35.4277C9.17831 34.3924 8.10313 29.825 7.90026 28.201C7.69739 26.577 6.8479 23.2783 6.59686 22.6084C6.25141 21.6866 6.12056 21.1085 6.20225 22.6131Z" fill="#28839F" fill-opacity="0.2"/>
<path d="M20.9679 1.96212C21.2482 2.84545 21.599 3.89568 21.7055 4.97664C21.812 6.05761 22.2228 4.2154 22.2837 3.46939C22.3446 2.72336 22.2076 2.51022 21.8272 2.20573C21.4469 1.90122 20.7848 1.38526 20.9679 1.96212Z" fill="#28839F" fill-opacity="0.2"/>
<path d="M45.1671 24.6746C45.1962 24.6914 45.2328 24.6745 45.2385 24.6414C45.6515 22.2756 48.7075 19.2191 46.688 15.087C44.6493 10.9154 39.7805 9.51468 38.472 9.72782C37.2314 9.9299 33.9668 12.0753 32.4383 12.531C32.3887 12.5458 32.395 12.6197 32.4466 12.625C34.6345 12.8489 36.4704 12.9149 38.6411 14.4424C40.8973 16.0302 40.4428 18.0406 40.9296 19.5935C41.4126 21.134 42.6789 23.2439 45.1671 24.6746Z" fill="#28839F" fill-opacity="0.2"/>
<path d="M47.6016 16.5479C47.9211 18.3748 47.5261 19.995 46.8104 21.8157C46.1934 23.3853 45.5932 24.3278 45.6237 25.0738C46.2627 25.6523 47.982 27.7838 48.3623 28.271C48.1341 26.9464 48.3928 24.952 48.5754 22.7596C48.7579 20.5672 48.5601 18.4966 47.6016 16.5479Z" fill="#28839F" fill-opacity="0.2"/>
<path d="M40.8835 20.6895C41.5327 23.1051 44.2739 24.2724 46.5054 31.6716C47.1426 33.7846 47.9306 40.4714 47.9052 43.0801C47.8957 44.0548 47.1241 42.8162 47.1241 42.8162C47.1241 42.8162 41.5961 34.879 40.9063 30.9002C40.2166 26.9215 40.8835 20.6895 40.8835 20.6895Z" fill="#28839F" fill-opacity="0.2"/>
<path d="M43.3003 24.0186C43.9945 24.8274 46.3838 29.2153 47.0315 31.845C47.5974 34.1427 48.5051 39.5005 48.571 43.919C48.5726 44.0275 48.7233 44.0533 48.7623 43.952C51.1996 37.623 49.7202 31.1695 48.7878 29.6264C47.9978 28.3189 46.1911 25.5004 43.3003 24.0186Z" fill="#28839F" fill-opacity="0.2"/>
<path d="M46.303 42.6336C46.6643 43.2866 45.0858 44.7753 44.4772 47.5868C44.3732 48.0671 43.2194 46.2368 43.3411 43.6486C43.4628 41.0604 40.9828 34.9096 40.785 33.2653C40.5872 31.621 40.6633 31.4688 40.6633 31.4688C43.0004 37.3802 44.2134 38.8579 46.303 42.6336Z" fill="#28839F" fill-opacity="0.2"/>
<path d="M50.1982 39.7111C49.8062 41.7843 49.2244 44.8266 49.7113 46.8566C50.1982 48.8866 54.2961 63.6242 54.9047 65.4918C55.5133 67.3594 55.3915 65.4309 55.1887 63.7054C54.9858 61.9799 55.1481 52.5405 54.7424 49.3738C54.3366 46.207 52.9977 42.2891 51.8211 40.8884C50.6445 39.4877 50.3402 38.96 50.1982 39.7111Z" fill="#28839F" fill-opacity="0.2"/>
<path d="M47.1653 43.7908C48.983 45.155 49.3359 47.0895 49.7619 48.5816C50.188 50.0736 53.733 63.0299 54.0525 64.3849C54.3721 65.74 54.4786 67.3538 53.9917 66.7296C53.5048 66.1054 49.0468 53.0881 47.6927 50.2563C46.3386 47.4245 45.6631 46.5127 45.9177 45.3539C46.1205 44.4302 46.4958 43.2884 47.1653 43.7908Z" fill="#28839F" fill-opacity="0.2"/>
<path d="M45.8563 47.5052C46.6519 48.8485 51.07 60.6594 51.8206 63.5826C52.5712 66.5058 52.5915 67.6832 52.1046 67.399C51.6177 67.1148 46.1809 54.7319 45.3289 52.2553C44.4769 49.7788 44.6696 48.7638 44.9536 47.83C45.2376 46.8962 45.5318 46.9571 45.8563 47.5052Z" fill="#28839F" fill-opacity="0.2"/>
<path d="M26.8642 12.8943C28.6804 12.4348 32.4673 12.838 34.0862 13.0567C36.8654 13.4323 38.9536 14.6414 39.6853 15.9799C40.3344 17.1674 40.8004 19.9552 40.2938 20.527C38.7115 22.3134 39.4215 27.429 33.8427 30.0273C31.9756 30.897 25.9919 30.342 25.079 29.2763C24.1661 28.2105 23.8009 23.0036 24.1052 20.0195C24.4095 17.0355 25.0587 13.3511 26.8642 12.8943Z" fill="#28839F" fill-opacity="0.2"/>
<path d="M30.4593 6.50011C31.31 7.27567 32.8633 8.25604 34.1515 8.79399C35.4397 9.33193 36.6772 9.60599 36.7482 9.82928C36.8192 10.0526 35.4093 10.5093 34.4355 10.8646C33.4617 11.2198 32.1938 11.4837 31.7577 11.2503C31.3215 11.0168 30.5912 8.7737 30.3782 8.1038C30.1652 7.43391 29.9218 6.64221 29.8305 6.27682C29.7392 5.91142 30.0029 6.08397 30.4593 6.50011Z" fill="#28839F" fill-opacity="0.2"/>
<path d="M29.4957 5.86054C29.7954 6.67031 30.3781 9.13387 30.7433 10.2148C31.1084 11.2958 31.2302 11.6916 30.7737 11.8896C30.3173 12.0875 29.3283 11.4937 29.1914 11.0674C29.0544 10.6411 29.0544 5.93666 29.0696 5.58648C29.0849 5.23631 29.3435 5.44946 29.4957 5.86054Z" fill="#28839F" fill-opacity="0.2"/>
<path d="M28.7803 6.53013C28.7905 7.30152 28.8716 9.6969 28.613 10.245C28.3543 10.7931 27.198 11.5087 26.8176 11.737C26.4372 11.9654 25.95 12.11 25.9351 11.737C25.925 11.4833 26.9259 10.0652 27.5631 8.45353C28.1109 7.06807 28.4868 5.86641 28.4912 5.86024C28.689 5.58618 28.7739 6.03872 28.7803 6.53013Z" fill="#28839F" fill-opacity="0.2"/>
<path d="M28.7627 4.15997C28.6362 4.83946 27.7505 7.33428 27.092 8.76041C26.7915 9.41128 25.8291 11.3909 25.4763 11.2852C25.1542 11.1888 26.4465 6.97945 26.8583 5.51498C27.783 2.22641 27.996 0.01882 28.4584 0.231965C28.826 0.401439 28.8109 3.90115 28.7627 4.15997Z" fill="#28839F" fill-opacity="0.2"/>
<path d="M24.5964 30.3418C24.0401 31.3439 23.577 33.1889 23.5618 34.3307C23.5466 35.4726 24.0943 35.6248 24.8095 35.975C25.5245 36.3252 28.8566 38.0557 29.7695 38.8373C30.6976 39.6318 31.2301 40.1314 31.4127 38.5632C31.5953 36.9951 31.8235 35.2747 31.5344 33.5999C31.2453 31.9252 30.9563 31.2705 30.1955 31.0422C29.4348 30.8138 28.4838 30.8671 27.3047 30.6311C26.1427 30.3985 24.8247 29.9307 24.5964 30.3418Z" fill="#28839F" fill-opacity="0.2"/>
<path d="M24.733 36.5919C28.9703 38.1829 30.8555 40.6776 31.25 41.4156C31.7166 42.2885 31.475 44.3947 31.3413 44.76C31.2094 45.1203 30.2034 45.1591 29.3126 44.9681C28.0346 44.6941 25.7219 44.3997 24.9003 44.2982C24.0787 44.1967 23.5817 43.202 23.5411 42.2682C23.5006 41.3344 23.4701 38.391 23.5411 37.8023C23.6121 37.2136 23.9673 36.3044 24.733 36.5919Z" fill="#28839F" fill-opacity="0.2"/>
<path d="M24.6975 44.9285C25.9075 44.7969 29.7184 45.5984 30.398 45.9232C31.0776 46.248 31.6152 46.8976 31.6355 47.7502C31.6558 48.6028 31.4123 50.2471 31.1892 50.7343C30.966 51.2215 30.2154 51.668 29.1605 51.7087C28.1056 51.7492 25.9147 51.9117 24.9409 51.7696C23.9672 51.6274 23.7339 50.6734 23.6629 49.5975C23.5919 48.5216 23.5411 47.0904 23.6426 46.1262C23.744 45.162 24.2309 44.9793 24.6975 44.9285Z" fill="#28839F" fill-opacity="0.2"/>
<path d="M33.2585 30.5951C34.123 30.4408 36.5123 29.0409 37.3969 28.4027C38.774 27.4092 38.4004 32.0685 35.5711 32.016C34.4757 31.9957 33.6034 31.4299 33.1773 31.2091C32.7513 30.9884 32.8604 30.6661 33.2585 30.5951Z" fill="#28839F" fill-opacity="0.2"/>
<path d="M37.5784 32.2951C37.4909 33.0563 37.2978 33.6085 36.9254 34.2832C36.4968 35.0597 33.8596 33.2124 33.6834 32.7785C33.4997 32.326 34.0927 31.9563 34.6839 32.1276C35.491 32.3614 36.5171 32.219 37.061 31.8041C37.6113 31.3844 37.6218 31.917 37.5784 32.2951Z" fill="#28839F" fill-opacity="0.2"/>
<path d="M33.5429 33.164C33.988 33.5497 34.8615 34.1333 35.7338 34.5393C36.5415 34.9152 36.4895 35.2853 36.2714 35.5695C36.0533 35.8537 34.6891 36.6149 34.192 36.8382C33.695 37.0615 32.8734 36.8788 32.7162 36.4018C32.4503 35.595 32.6217 32.3655 33.5429 33.164Z" fill="#28839F" fill-opacity="0.2"/>
<path d="M37.2954 38.5742C37.1128 39.1324 35.9058 39.9546 35.1754 40.4215C34.4451 40.8884 33.4359 41.4314 33.0961 41.1624C32.7563 40.8934 32.7461 38.3255 32.9946 37.7622C33.2432 37.1989 33.796 37.2953 34.4553 37.0821C35.1517 36.857 35.3311 36.4808 36.0985 36.4173C36.7122 36.3666 37.5492 37.7981 37.2954 38.5742Z" fill="#28839F" fill-opacity="0.2"/>
<path d="M36.2352 40.071C35.7918 40.3853 33.527 41.5935 33.1314 41.8371C32.7358 42.0807 32.538 42.9333 32.4163 43.9229C32.2946 44.9125 32.369 46.0801 32.7814 46.2371C33.8617 46.6482 36.6317 43.643 36.9883 43.2378C37.4372 42.7278 37.5285 41.3727 37.5589 40.7257C37.5992 39.8692 36.9655 39.5534 36.2352 40.071Z" fill="#28839F" fill-opacity="0.2"/>
<path d="M36.2814 44.4556C35.5206 45.2929 33.7177 46.4729 33.284 46.8459C32.8504 47.2189 32.82 48.6805 32.8276 49.358C32.8352 50.0355 33.5123 50.5607 33.9687 50.4389C34.4251 50.3171 36.7454 48.0867 37.0573 47.6985C37.3692 47.3102 37.4453 45.3005 37.316 44.6687C37.1866 44.0369 36.8026 43.8818 36.2814 44.4556Z" fill="#28839F" fill-opacity="0.2"/>
<path d="M36.7478 48.4186C36.0825 49.174 34.567 50.4993 33.9482 51.0575C33.3295 51.6158 32.5485 53.8995 32.305 54.9957C32.0616 56.0919 32.1224 57.5129 32.447 58.6497C32.7716 59.7865 32.3659 60.3549 32.5687 61.2886C32.7716 62.2224 33.8671 62.872 34.3134 62.1818C34.7597 61.4916 36.484 59.3399 37.5592 58.7309C38.6344 58.1219 38.3707 56.7618 38.0867 55.7265C37.8027 54.6912 38.4924 53.3514 38.2895 51.3417C38.0867 49.3321 37.8483 48.3907 37.6962 48.0481C37.544 47.7055 37.1991 47.906 36.7478 48.4186Z" fill="#28839F" fill-opacity="0.2"/>
<path d="M40.1906 22.6131C40.0485 25.2316 40.3526 29.8048 40.2779 30.7588C40.1967 31.794 39.3447 35.6104 38.9389 36.9705C38.5332 38.3306 38.5028 39.5841 38.2289 39.5993C37.955 39.6145 37.3363 36.463 37.2754 35.4277C37.2146 34.3924 38.2898 29.825 38.4926 28.201C38.6955 26.577 39.545 23.2783 39.796 22.6084C40.1415 21.6866 40.2723 21.1085 40.1906 22.6131Z" fill="#28839F" fill-opacity="0.2"/>
<path d="M25.4254 1.96212C25.1451 2.84545 24.7943 3.89568 24.6878 4.97664C24.5812 6.05761 24.1704 4.2154 24.1096 3.46939C24.0487 2.72336 24.1857 2.51022 24.566 2.20573C24.9464 1.90122 25.6085 1.38526 25.4254 1.96212Z" fill="#28839F" fill-opacity="0.2"/>
<path d="M34.1316 13.0564C32.5128 12.8377 28.7262 12.435 26.9099 12.8943C26.148 13.0871 25.5925 13.8549 25.1814 14.9021C27.7626 15.1963 31.213 16.0217 32.8796 16.4539C36.4812 17.3879 39.0483 18.9658 39.8113 20.3826C39.8984 20.5444 39.9774 20.7309 40.0476 20.9334C40.1363 20.784 40.2326 20.6479 40.3396 20.5271C40.846 19.9553 40.3802 17.1681 39.7312 15.9803C38.9995 14.6418 36.9108 13.432 34.1316 13.0564Z" fill="#28839F"/>
<path d="M12.3636 13.0565C13.9827 12.8377 17.7692 12.4349 19.5853 12.8944C20.3386 13.085 20.8895 13.8379 21.2992 14.867C18.7085 15.1406 15.2002 15.9637 13.514 16.3924C9.90763 17.3094 7.33235 18.8746 6.56283 20.2879C6.48378 20.4331 6.41164 20.5983 6.34604 20.7772C6.28574 20.6884 6.22372 20.6041 6.15561 20.5272C5.64909 19.9553 6.11484 17.1669 6.76401 15.9793C7.49579 14.641 9.58455 13.432 12.3636 13.0565Z" fill="#28839F"/>
</g>
<defs>
<clipPath id="clip0_4055_7842">
<rect width="61" height="48" fill="white"/>
</clipPath>
</defs>
</svg>
