<svg width="61" height="48" viewBox="0 0 61 48" fill="none" xmlns="http://www.w3.org/2000/svg">
<g clip-path="url(#clip0_4089_13879)">
<path d="M45.808 100.241C45.6244 100.241 45.4761 100.133 45.3327 100.03C45.2137 99.9436 45.1014 99.8623 44.9936 99.8623C44.9749 99.8623 44.9568 99.8647 44.9381 99.8694C44.8153 99.9011 44.7477 99.9539 44.6695 100.015C44.5589 100.102 44.4335 100.2 44.1792 100.2C44.1624 100.2 44.1449 100.199 44.1267 100.198C43.8895 100.187 43.7413 100.087 43.6105 99.9984C43.49 99.9169 43.3949 99.8526 43.2359 99.8526C43.2264 99.8526 43.2166 99.8529 43.2066 99.8533C43.0397 99.8613 42.9434 99.9178 42.8215 99.9893C42.6689 100.079 42.496 100.18 42.1731 100.198C42.1507 100.2 42.1286 100.2 42.1068 100.2C41.8053 100.2 41.5461 100.085 41.3174 99.9832C41.1252 99.8977 40.9437 99.8169 40.7627 99.8129L40.7478 99.8127C40.5631 99.8127 40.336 99.8878 40.0956 99.9674C39.7967 100.066 39.458 100.178 39.1065 100.178L39.0798 100.178C38.2324 100.165 37.7509 99.7281 37.6486 98.881C37.5943 98.4317 37.7434 97.9454 37.8876 97.4751C38.0544 96.9312 38.2268 96.3688 38.0979 95.8528C37.8256 94.7626 37.6691 93.3603 37.7085 92.3634C37.7356 91.6792 37.523 90.7572 37.3355 89.9439C37.2452 89.5524 37.1599 89.1826 37.1019 88.8499C36.9806 88.1556 37.4886 86.9376 37.9368 85.863C38.1822 85.2746 38.414 84.7189 38.4607 84.4206C38.5617 83.7755 38.4463 80.2555 38.3843 78.3644L38.3752 78.0874C38.3236 77.7173 38.2718 77.3229 38.2206 76.9326C38.0812 75.8708 37.9495 74.868 37.8348 74.4386L37.7487 74.1179C37.4431 72.9823 36.9838 71.2753 36.9829 70.6776C36.8771 70.4019 36.7228 69.9928 36.5649 69.5282C36.1839 69.0586 35.9068 68.0268 35.7414 66.4602C35.4799 63.9841 35.7685 60.5067 36.068 59.0496C36.2187 58.3166 36.4544 57.4292 36.6624 56.6463C36.861 55.8987 37.0486 55.1927 37.1221 54.7704C37.1979 54.336 37.2148 54.0903 37.225 53.9435C37.2316 53.8479 37.236 53.7843 37.2548 53.7336C37.2295 53.5986 37.2022 53.4458 37.173 53.2816C37.0293 52.4761 36.8327 51.3728 36.5767 50.8023C36.2395 50.0508 35.7967 47.8111 35.6077 46.8546L35.6012 46.8222C35.541 46.5174 35.4858 46.0066 35.4371 45.304C35.3449 44.5479 35.3165 43.6385 35.2977 43.0368L35.2944 42.9329C35.2853 42.6472 35.2854 42.0758 35.3458 41.8629C35.3379 41.6833 35.3077 41.5179 35.2224 41.1806C35.1335 40.8289 35.0739 40.4488 35.0049 40.0087C34.9713 39.7947 34.9355 39.5662 34.8929 39.32C34.8489 39.1636 34.8203 39.0078 34.8085 38.8565C34.7286 38.4462 34.6689 38.2524 34.6163 38.0812C34.5541 37.879 34.5 37.7029 34.4336 37.2626C34.3463 37.1421 34.2935 36.6902 34.1415 34.9965C34.0812 34.3247 34.0188 33.63 33.9564 33.1096C33.923 32.8313 33.9031 32.4741 33.8973 32.0477C33.8382 31.9257 33.759 31.8016 33.6754 31.6707C33.5817 31.5238 33.485 31.3723 33.397 31.1966C33.0435 30.8658 32.69 29.0393 32.6326 28.5415C32.5032 27.4192 31.6819 22.4697 31.2073 20.8917C30.6655 19.0905 31.0365 15.4604 31.0806 15.0524C31.0955 14.9138 31.1093 14.7766 31.1228 14.6418C31.1805 14.0654 31.2351 13.5197 31.3665 13.1003C31.2286 12.8427 30.5884 12.7272 30.2776 12.7272H30.1153C29.8069 12.7272 29.1741 12.841 29.0271 13.1024C29.1581 13.5218 29.2127 14.0671 29.2703 14.6429C29.2837 14.7774 29.2975 14.9142 29.3124 15.0525C29.3565 15.4605 29.7275 19.0908 29.1856 20.8917C28.7111 22.4697 27.8897 27.4192 27.7603 28.5415C27.7029 29.0393 27.3494 30.8658 26.9961 31.1966C26.908 31.3723 26.8113 31.5237 26.7177 31.6704C26.6341 31.8014 26.5548 31.9256 26.4957 32.0477C26.4899 32.4736 26.47 32.8307 26.4366 33.1096C26.3742 33.6301 26.3118 34.325 26.2515 34.997C26.0995 36.6904 26.0467 37.1422 25.9594 37.2627C25.893 37.7029 25.8388 37.879 25.7766 38.0812C25.7241 38.2523 25.6645 38.4461 25.5845 38.8565C25.5727 39.0076 25.5441 39.1637 25.497 39.3332C25.4575 39.5659 25.4218 39.7941 25.3882 40.008C25.3192 40.4484 25.2596 40.8287 25.1706 41.1807C25.0995 41.4617 25.068 41.6185 25.0542 41.7623C25.088 41.9083 25.0922 42.2025 25.0964 42.6885L25.0987 42.9271C25.1056 43.5692 25.0694 44.6191 24.944 45.4651C24.8989 46.0812 24.8473 46.5412 24.7917 46.8221L24.7859 46.8513C24.5968 47.8084 24.1539 50.0499 23.8162 50.8024C23.5602 51.3729 23.3635 52.4765 23.2199 53.2823C23.1907 53.4462 23.1635 53.5989 23.1383 53.7336C23.157 53.7842 23.1614 53.8479 23.168 53.9435C23.1781 54.0902 23.1951 54.3359 23.2709 54.7704C23.3445 55.1928 23.5321 55.8993 23.7308 56.6472C23.9387 57.4299 24.1744 58.3169 24.325 59.0496C24.6245 60.5069 24.9131 63.9843 24.6516 66.4602C24.5312 67.5999 24.2819 69.0709 23.7763 69.651C23.6173 70.126 23.4822 70.489 23.4101 70.6776C23.4092 71.2757 22.9495 72.984 22.6436 74.1203L22.5582 74.4386C22.4436 74.8677 22.312 75.8698 22.1727 76.9307C22.1214 77.3216 22.0695 77.7166 22.0178 78.0873L22.0086 78.3693C21.9466 80.2589 21.8314 83.776 21.9323 84.4206C21.979 84.7189 22.2108 85.2746 22.4561 85.8628C22.9044 86.9375 23.4124 88.1556 23.2911 88.8499C23.233 89.1826 23.1478 89.5524 23.0575 89.9439C22.87 90.7573 22.6574 91.6792 22.6844 92.3634C22.724 93.3602 22.5675 94.7625 22.2951 95.8528C22.1661 96.3689 22.3386 96.9313 22.5054 97.4753C22.6496 97.9455 22.7987 98.4318 22.7444 98.8811C22.6421 99.7282 22.1605 100.165 21.3132 100.178L21.2865 100.178C20.9349 100.178 20.5962 100.066 20.2974 99.9674C20.0569 99.8879 19.8299 99.8127 19.6451 99.8127L19.6303 99.8129C19.4493 99.8169 19.2678 99.8977 19.0756 99.9832C18.8469 100.085 18.5877 100.2 18.2862 100.2C18.2643 100.2 18.2422 100.2 18.2199 100.198C17.8969 100.18 17.7241 100.079 17.5715 99.9894C17.4496 99.9178 17.3533 99.8613 17.1864 99.8534C17.1763 99.8529 17.1666 99.8526 17.1571 99.8526C16.9981 99.8526 16.903 99.9169 16.7825 99.9983C16.6517 100.087 16.5035 100.187 16.2663 100.198C16.2481 100.199 16.2306 100.2 16.2139 100.2C15.9595 100.2 15.8341 100.102 15.7235 100.015C15.6452 99.954 15.5776 99.9011 15.4548 99.8695C15.4362 99.8647 15.418 99.8624 15.3993 99.8624C15.2916 99.8624 15.1793 99.9436 15.0603 100.03C14.9169 100.133 14.7686 100.241 14.585 100.241C14.5711 100.241 14.557 100.24 14.5429 100.239C14.311 100.217 14.1907 100.12 14.0845 100.034C14.0195 99.9814 13.9634 99.9362 13.8806 99.9063C13.8701 99.9025 13.8586 99.9007 13.8454 99.9007C13.7711 99.9007 13.6617 99.9574 13.5459 100.018C13.3732 100.107 13.1581 100.219 12.9123 100.219C12.3844 100.219 12.1141 99.9565 11.9484 99.2829C11.782 98.6061 11.9283 97.5077 12.4613 96.8411C12.5989 96.6689 12.8179 96.4063 13.0715 96.1024C13.7197 95.3256 14.6075 94.2617 14.9899 93.6841C15.5234 92.8783 15.7397 91.4361 15.4265 90.7725C15.0263 89.9245 14.9423 89.1324 15.1769 88.4185L15.256 88.1796C15.4752 87.5201 15.7019 86.8382 15.7999 86.0091C15.8804 85.3275 15.8442 83.6747 15.7763 82.4223C15.7126 82.1407 15.6608 81.8442 15.6225 81.5407C15.4039 79.8086 14.4082 72.3075 13.8902 69.9824C13.4031 67.7957 12.6315 63.7881 12.5027 61.7093C12.3889 59.8745 12.5194 58.6794 12.5973 57.9653L12.6148 57.8041C12.6415 57.5523 12.7136 57.0655 12.7631 56.8386C12.86 56.3436 12.9958 55.8844 13.1156 55.4792C13.1857 55.2419 13.252 55.0176 13.3027 54.8125C13.3345 54.5636 13.4135 53.9963 13.4968 53.7995L13.5082 53.7416C13.5932 53.3099 13.6894 52.821 13.7386 52.3669C13.737 52.0803 13.7441 51.8113 13.7602 51.5454C13.6752 50.6107 13.6402 47.0807 13.7503 45.467C13.8223 44.4118 14.106 42.8521 14.3338 41.5987C14.4554 40.9297 14.5605 40.3519 14.5928 40.0615C14.6322 39.7062 14.6116 39.2035 14.5319 38.5669L14.5308 38.5641C13.5585 36.1696 12.5721 33.6621 12.1303 31.6406C11.9084 30.6258 11.8657 28.8474 11.8245 27.1276C11.7862 25.5334 11.7466 23.8849 11.5616 22.9496C11.188 21.0608 11.1352 17.7931 11.1897 16.1771C11.1702 15.8139 11.227 15.0759 11.2597 14.752C11.2396 14.6892 11.2461 14.6104 11.2558 14.5326C11.2814 14.328 11.3063 13.877 11.3378 13.306C11.4186 11.845 11.5406 9.63713 11.8366 8.39751C12.2348 6.73013 12.9896 2.29398 12.9588 0.880531C12.9276 -0.555862 13.6613 -3.62891 14.2029 -5.29508C14.3148 -5.76785 14.5139 -6.50706 14.6895 -7.15923C14.7846 -7.51277 14.8716 -7.83579 14.9315 -8.06772C14.968 -8.51348 15.0806 -8.96445 15.1749 -9.30836C15.3039 -9.77859 15.2154 -10.3442 15.113 -10.9992C15.0007 -11.7174 14.8609 -12.6113 14.9678 -13.6708C15.1452 -15.4279 15.3413 -16.3083 15.4745 -16.7374C15.5184 -16.8951 15.574 -17.0572 15.6329 -17.2288C15.7649 -17.6133 15.9013 -18.0108 15.9275 -18.4379C15.8642 -19.1059 15.8654 -19.8768 15.9302 -20.2827C15.935 -21.1524 15.9297 -22.1295 15.8551 -22.7991C15.8288 -22.9295 15.8038 -23.0851 15.7824 -23.2502C15.6506 -23.8552 15.3871 -24.472 15.1946 -24.9224C15.1314 -25.0703 15.0758 -25.2005 15.0314 -25.3138C14.8656 -25.4341 14.8006 -25.7819 14.6837 -26.4074C14.5997 -26.8565 14.4952 -27.4154 14.3237 -27.9903C13.9879 -29.116 13.3139 -32.0512 13.0645 -33.5892C13.0296 -33.6004 12.9963 -33.6064 12.9672 -33.6064C12.9381 -33.6064 12.9247 -33.6003 12.9213 -33.5985C12.9064 -33.5905 12.887 -33.5749 12.8681 -33.5319C12.9147 -33.2497 12.8125 -32.2944 12.7431 -31.7177C12.6687 -31.0989 12.2814 -29.8671 11.8331 -28.4408C11.0664 -26.002 10.1122 -22.9668 10.1879 -21.3571C10.2892 -19.2023 9.54136 -17.5881 9.1499 -17.268C9.07435 -16.882 9.01202 -16.4694 8.95162 -16.0698C8.89082 -15.6672 8.82789 -15.2508 8.75074 -14.8548C8.66243 -14.2406 8.47942 -13.5333 8.19249 -12.6993C7.90404 -11.8607 7.05415 -9.79096 5.91879 -7.16209C5.76822 -6.67456 5.60097 -6.13991 5.42406 -5.57444C4.2834 -1.92802 2.72124 3.06599 2.68196 4.83904C2.67073 5.34717 2.95534 6.12475 3.4254 7.34483C3.94696 8.6987 3.85672 11.3576 2.66209 13.6184C2.15388 14.5803 1.70382 16.0508 1.26852 17.4729C0.845771 18.8543 0.446336 20.1591 0.0519505 20.7459C-0.182884 21.0953 -0.425952 21.2725 -0.670489 21.2725C-0.920539 21.2725 -1.10859 21.091 -1.23577 20.9047C-1.43353 21.9165 -1.89183 23.7305 -2.65355 23.8691C-2.70811 23.8791 -2.76179 23.8841 -2.8131 23.8841C-3.18827 23.8841 -3.46151 23.6246 -3.59893 23.1552C-3.83616 23.9643 -4.27073 25.049 -4.89536 25.049L-4.91556 25.0487C-5.79481 25.0165 -5.82074 23.8615 -5.78073 22.56C-5.85037 22.5989 -5.92924 22.619 -6.01529 22.619C-6.59114 22.619 -7.28322 21.7539 -7.41246 20.8723C-7.73228 18.6905 -7.52038 16.0768 -7.36567 14.1683C-7.28959 13.2305 -7.21124 12.2636 -7.2757 11.9902C-7.39425 12.0998 -7.54542 12.2957 -7.7182 12.5195C-8.04267 12.9398 -8.44642 13.4629 -8.92001 13.7888C-9.30428 14.0533 -9.76226 14.1931 -10.2445 14.1931C-11.0014 14.1931 -11.6675 13.8512 -11.8284 13.3801C-11.8892 13.2021 -11.924 12.8515 -11.4742 12.5032C-10.3021 11.5955 -8.05551 8.31644 -7.25691 6.34797C-6.72438 5.03532 -5.74345 4.60026 -4.9553 4.25063C-4.48477 4.04192 -4.07842 3.86172 -3.87815 3.54521C-3.41526 2.81365 -2.71416 -0.748978 -1.79436 -7.04361C-1.75735 -10.4598 -1.70279 -13.9365 -1.48411 -15.6434C-1.071 -18.868 0.28085 -22.786 1.46791 -24.1991C1.63775 -24.4012 1.78933 -24.585 1.92475 -24.7493C2.33587 -25.2478 2.59005 -25.556 2.78194 -25.6867C2.95226 -25.9149 3.09771 -26.3429 3.21453 -26.9595C2.94927 -30.9176 3.79908 -34.3022 4.48843 -35.4433L4.52517 -35.5036C4.60484 -35.7769 4.71596 -36.1248 4.83343 -36.4927L4.87469 -36.6222L4.89688 -36.7509C5.08076 -37.8182 4.944 -39.3202 4.78565 -41.0594C4.75096 -41.4405 4.71541 -41.831 4.68231 -42.2279C4.47452 -44.7226 4.78823 -46.7192 5.66956 -48.511C5.92053 -49.1206 6.39352 -49.9076 6.84505 -50.4649C8.84591 -53.9725 12.898 -55.4286 14.6248 -55.4286C14.7374 -55.4286 14.8391 -55.4218 14.9276 -55.4084C14.9696 -55.4106 15.0138 -55.4115 15.0603 -55.4115C15.2427 -55.4115 15.4598 -55.3963 15.6898 -55.3803C15.9692 -55.3608 16.2859 -55.3387 16.6095 -55.3386C16.759 -55.4639 17.0895 -55.5793 17.6912 -55.7825C18.1205 -55.9275 18.6549 -56.108 19.1892 -56.3312C20.434 -56.8509 21.9703 -57.8051 22.8422 -58.6C23.1112 -58.8453 23.2788 -58.9748 23.3978 -59.0277C23.4804 -59.1427 23.5682 -59.2573 23.659 -59.3758C24.0005 -59.8212 24.387 -60.3251 24.4924 -60.8429C24.4584 -61.1425 24.4465 -62.7888 24.5587 -63.8709C24.5461 -64.0441 24.5332 -64.1313 24.5247 -64.1742C24.5087 -64.2544 24.4954 -64.3358 24.4818 -64.4197C24.4192 -64.8038 24.3484 -65.239 23.9365 -65.8532C23.585 -66.3775 23.4875 -67.5959 23.4677 -68.5256C23.464 -68.7054 23.3175 -68.8516 23.1413 -68.8516C23.1183 -68.8516 23.0951 -68.8491 23.0722 -68.8441C22.9674 -68.8212 22.8577 -68.8091 22.7549 -68.8091C22.478 -68.8091 22.2492 -68.8932 22.0933 -69.0523C21.9324 -69.2163 21.8538 -69.4521 21.8595 -69.7531C21.8795 -70.805 21.6657 -71.4152 21.477 -71.9537C21.3819 -72.2252 21.2921 -72.4817 21.238 -72.7703C21.1419 -73.2832 21.0834 -73.9728 21.3503 -74.3455C21.4553 -74.4921 21.5993 -74.5794 21.7785 -74.605C21.8223 -74.6113 21.8675 -74.6144 21.9127 -74.6144C22.0613 -74.6144 22.2166 -74.5805 22.3744 -74.5135C22.396 -74.5044 22.4183 -74.4997 22.4405 -74.4997C22.4885 -74.4997 22.536 -74.5213 22.5708 -74.5588C22.6065 -74.5972 22.624 -74.6472 22.62 -74.6995C22.5044 -76.2383 22.3988 -80.0272 23.9118 -81.9685C25.7107 -84.2766 28.4774 -84.7442 29.5836 -84.8381C29.7266 -84.8502 29.8991 -84.8633 30.1375 -84.8633C30.3163 -84.8633 30.5101 -84.8556 30.7137 -84.8404C31.8401 -84.7567 34.6567 -84.3092 36.481 -81.9685C37.9939 -80.0272 37.8883 -76.2383 37.7727 -74.6994C37.7688 -74.6472 37.7862 -74.5972 37.8219 -74.5587C37.8567 -74.5212 37.9042 -74.4997 37.9522 -74.4997C37.9746 -74.4997 37.9968 -74.5044 38.0184 -74.5135C38.1762 -74.5805 38.3315 -74.6144 38.48 -74.6144C38.5252 -74.6144 38.5704 -74.6113 38.6143 -74.605C38.7934 -74.5794 38.9374 -74.4921 39.0424 -74.3455C39.3093 -73.9728 39.2508 -73.2832 39.1548 -72.7703C39.1007 -72.4817 39.0108 -72.2253 38.9157 -71.9538C38.7271 -71.4153 38.5133 -70.805 38.5333 -69.7531C38.539 -69.4521 38.4604 -69.2162 38.2995 -69.0522C38.1435 -68.8932 37.9147 -68.8091 37.6379 -68.8091C37.535 -68.8091 37.4253 -68.8212 37.3205 -68.8441C37.2976 -68.8491 37.2744 -68.8516 37.2514 -68.8516C37.0753 -68.8516 36.9288 -68.7054 36.925 -68.5256C36.9052 -67.5959 36.8078 -66.3775 36.4563 -65.8531C36.0445 -65.2391 35.9736 -64.8038 35.911 -64.4198C35.8974 -64.3359 35.8841 -64.2544 35.868 -64.1743C35.8594 -64.1309 35.8466 -64.0433 35.8341 -63.871C35.9463 -62.7885 35.9344 -61.1424 35.9004 -60.8429C36.0057 -60.3251 36.3922 -59.8212 36.7337 -59.3758C36.8259 -59.2556 36.915 -59.1393 36.9952 -59.0276C37.1142 -58.9746 37.2817 -58.8452 37.5506 -58.6C38.4224 -57.8052 39.9586 -56.851 41.2035 -56.3312C41.7378 -56.108 42.2722 -55.9275 42.7016 -55.7825C43.3033 -55.5793 43.6338 -55.4639 43.7833 -55.3386C44.1068 -55.3387 44.4235 -55.3608 44.703 -55.3803C44.9329 -55.3963 45.1501 -55.4115 45.3325 -55.4115C45.3789 -55.4115 45.4231 -55.4106 45.4651 -55.4084C45.5536 -55.4218 45.6553 -55.4286 45.7679 -55.4286C47.4947 -55.4286 51.5468 -53.9725 53.5477 -50.4649C53.9993 -49.9074 54.4723 -49.1204 54.7269 -48.5029C55.6045 -46.7193 55.9182 -44.7228 55.7104 -42.2279C55.6773 -41.8306 55.6418 -41.4399 55.607 -41.0584C55.4487 -39.3196 55.312 -37.818 55.4959 -36.7509L55.5253 -36.5803L55.5274 -36.5737C55.6457 -36.1936 55.7576 -35.8342 55.8365 -35.5549L55.9043 -35.4432C56.6012 -34.2898 57.4546 -30.8738 57.1739 -26.8858C57.287 -26.3039 57.431 -25.9026 57.6024 -25.6921C57.7958 -25.5644 58.053 -25.2525 58.4698 -24.747C58.6048 -24.5834 58.7558 -24.4004 58.9248 -24.1991C60.1119 -22.7861 61.4637 -18.8681 61.8768 -15.6435C62.0955 -13.9365 62.1501 -10.4599 62.1871 -7.04366C63.1069 -0.749031 63.808 2.81367 64.271 3.54516C64.4712 3.86166 64.8776 4.04187 65.348 4.25059C66.1363 4.60021 67.1171 5.03526 67.6497 6.34791C68.4483 8.31644 70.6949 11.5954 71.867 12.5032C72.3168 12.8515 72.282 13.2021 72.2212 13.3801C72.0603 13.8512 71.3942 14.193 70.6373 14.193C70.1551 14.193 69.697 14.0533 69.3128 13.7888C68.8393 13.4629 68.4355 12.9398 68.1111 12.5197C67.9384 12.2958 67.7871 12.0999 67.6685 11.9902C67.6041 12.2637 67.6825 13.2303 67.7585 14.1678C67.9132 16.0764 68.1251 18.6904 67.8053 20.8722C67.6761 21.7538 66.984 22.6189 66.4081 22.6189C66.3221 22.6189 66.2432 22.5988 66.1736 22.56C66.2135 23.8614 66.1875 25.0164 65.3083 25.0486L65.2881 25.0489C64.6635 25.0489 64.2289 23.9642 63.9917 23.1552C63.8543 23.6245 63.5811 23.884 63.206 23.884C63.1546 23.884 63.1009 23.879 63.0464 23.8691C62.2843 23.7304 61.8262 21.9164 61.6285 20.9046C61.5014 21.0909 61.3134 21.2725 61.0633 21.2725C60.8188 21.2725 60.5756 21.0953 60.3408 20.7458C59.9464 20.159 59.547 18.8542 59.1242 17.4728C58.6889 16.0508 58.2389 14.5803 57.7307 13.6184C56.536 11.3575 56.4458 8.69863 56.9674 7.34476C57.4375 6.12456 57.7221 5.34698 57.7108 4.83897C57.6715 3.066 56.1094 -1.92789 54.9688 -5.57431C54.7919 -6.13983 54.6246 -6.67451 54.474 -7.16211C53.3387 -9.79118 52.4888 -11.8609 52.2003 -12.6994C51.9133 -13.5333 51.7304 -14.2406 51.6409 -14.8617C51.5649 -15.2508 51.502 -15.667 51.4413 -16.0693C51.3809 -16.4691 51.3186 -16.8819 51.2429 -17.2681C50.8514 -17.5883 50.1037 -19.2025 50.2049 -21.3572C50.2807 -22.9669 49.3265 -26.0021 48.5597 -28.441C48.1113 -29.8673 47.7241 -31.099 47.6497 -31.7178C47.5803 -32.2945 47.4782 -33.2498 47.5247 -33.5319C47.5059 -33.575 47.4865 -33.5906 47.4717 -33.5985C47.4682 -33.6004 47.4548 -33.6065 47.4256 -33.6065C47.3965 -33.6065 47.3631 -33.6005 47.3283 -33.5892C47.0791 -32.0518 46.405 -29.1165 46.0691 -27.9904C45.8976 -27.4154 45.7931 -26.8565 45.7092 -26.4074C45.5922 -25.7819 45.5271 -25.4342 45.3614 -25.3138C45.317 -25.2005 45.2614 -25.0704 45.1982 -24.9225C45.0058 -24.4722 44.7422 -23.8554 44.6086 -23.239C44.5891 -23.086 44.5641 -22.9304 44.536 -22.7879C44.4631 -22.1295 44.4578 -21.1525 44.4626 -20.2828C44.5274 -19.877 44.5286 -19.1059 44.4653 -18.438C44.4915 -18.0108 44.6279 -17.6134 44.7599 -17.2289C44.8188 -17.0574 44.8744 -16.8953 44.9194 -16.7338C45.0516 -16.3083 45.2476 -15.4278 45.425 -13.6708C45.5319 -12.6114 45.3921 -11.7176 45.2798 -10.9994C45.1774 -10.3444 45.0889 -9.77872 45.218 -9.30842C45.3123 -8.96465 45.4248 -8.51389 45.4612 -8.06786C45.5211 -7.83639 45.6078 -7.51417 45.7028 -7.16136C45.8786 -6.50847 46.0778 -5.76846 46.1928 -5.28453C46.7315 -3.62906 47.4651 -0.556068 47.434 0.88044C47.4033 2.29349 48.158 6.72984 48.5562 8.39742C48.8521 9.63686 48.9742 11.8444 49.055 13.3052C49.0865 13.8766 49.1114 14.3279 49.137 14.5325C49.1468 14.6103 49.1533 14.6892 49.1331 14.752C49.1659 15.0755 49.2226 15.8132 49.203 16.1886C49.2576 17.7926 49.2049 21.06 48.8312 22.9495C48.6461 23.8848 48.6066 25.5331 48.5684 27.1272C48.5271 28.8472 48.4844 30.6257 48.2625 31.6405C47.8208 33.6617 46.8343 36.1693 45.8619 38.5646L45.8609 38.5671C45.7811 39.2035 45.7607 39.7061 45.8001 40.0614C45.8323 40.3518 45.9373 40.9295 46.059 41.5985C46.2868 42.8519 46.5705 44.4117 46.6425 45.4669C46.753 47.0858 46.7174 50.631 46.6321 51.5483C46.6486 51.8051 46.6559 52.0772 46.6543 52.3669C46.7035 52.821 46.7997 53.3102 46.8847 53.7419L46.896 53.7994C46.9792 53.996 47.0583 54.5635 47.0902 54.8126C47.1408 55.0174 47.2071 55.2414 47.2772 55.4784C47.4348 56.0116 47.6135 56.6158 47.7052 57.2919C47.7349 57.4614 47.7617 57.65 47.778 57.8041L47.7955 57.9652C47.8735 58.6793 48.0039 59.8744 47.8901 61.7092C47.7614 63.7875 46.9898 67.7954 46.5026 69.9823C45.9839 72.3103 44.9888 79.8092 44.7703 81.5407C44.732 81.844 44.6803 82.1405 44.6166 82.4221C44.5486 83.6743 44.5123 85.3271 44.593 86.009C44.691 86.8386 44.9179 87.5208 45.1372 88.1805L45.216 88.4184C45.4505 89.1324 45.3665 89.9244 44.9663 90.7724C44.6531 91.436 44.8695 92.8783 45.403 93.684C45.7856 94.2619 46.6736 95.3262 47.3221 96.1033C47.5754 96.4068 47.7941 96.669 47.9316 96.841C48.4645 97.5076 48.6109 98.606 48.4444 99.2829C48.2787 99.9564 48.0085 100.219 47.4805 100.219C47.2347 100.219 47.0197 100.107 46.847 100.018C46.7312 99.9574 46.6217 99.9006 46.5474 99.9006C46.5342 99.9006 46.5227 99.9024 46.5122 99.9062C46.4294 99.9361 46.3733 99.9814 46.3083 100.034C46.2021 100.12 46.0818 100.217 45.8499 100.238C45.8358 100.24 45.822 100.241 45.808 100.241Z" fill="white" stroke="#28839F" stroke-width="0.504915"/>
<path d="M6.22784 -21.2092C4.41014 -19.845 4.05718 -17.9105 3.63117 -16.4184C3.20514 -14.9264 -0.339927 -1.97008 -0.659436 -0.615067C-0.978945 0.739958 -1.08545 2.35379 -0.598578 1.72956C-0.111693 1.10535 4.34626 -11.9119 5.70038 -14.7437C7.05451 -17.5755 7.72997 -18.4873 7.47546 -19.6461C7.27259 -20.5698 6.8973 -21.7116 6.22784 -21.2092Z" fill="#28839F" fill-opacity="0.2"/>
<path d="M7.53635 -17.4948C6.74081 -16.1515 2.32272 -4.34055 1.57211 -1.41739C0.821512 1.50579 0.801221 2.68317 1.28811 2.39898C1.77498 2.11478 7.21176 -10.2681 8.0638 -12.7447C8.91584 -15.2212 8.72311 -16.2362 8.4391 -17.17C8.15509 -18.1038 7.86093 -18.0429 7.53635 -17.4948Z" fill="#28839F" fill-opacity="0.2"/>
<path d="M28.0459 -12.379C26.6259 -12.3896 23.7756 -12.5414 23.096 -12.6429C22.4164 -12.7444 21.8281 -12.0136 21.9803 -11.0595C22.1324 -10.1054 22.7106 -6.30938 23.9278 -2.47272C25.145 1.36394 26.0376 3.73902 27.2345 4.81491C28.4314 5.89079 28.7154 7.14938 29.3138 7.05803C29.9123 6.96668 29.9148 4.55355 29.9224 3.602C29.929 2.78718 30.0036 -10.0192 29.7931 -10.4353C29.5733 -10.87 29.1389 -11.1471 28.884 -11.4021C28.6118 -11.6745 28.7255 -12.374 28.0459 -12.379Z" fill="#28839F" fill-opacity="0.2"/>
<path d="M15.884 -3.73148C16.5701 0.013166 16.9261 2.36819 17.6591 5.44402C18.288 8.083 19.2719 12.417 20.1544 15.1879C21.0368 17.9589 22.68 22.3741 23.5321 25.3886C24.3841 28.4031 25.6926 36.5941 25.8143 37.1117C25.936 37.6294 26.1186 34.6148 26.3012 33.0923C26.4837 31.5699 26.2403 27.7028 25.6926 25.1145C25.1448 22.5263 24.3232 17.9284 23.0756 15.0052C20.6103 9.22902 17.9503 -1.40557 17.1824 -3.18338C17.0108 -3.58064 15.7167 -4.64497 15.884 -3.73148Z" fill="#28839F" fill-opacity="0.2"/>
<path d="M14.3325 -5.25303C13.7848 -3.56815 13.0646 -0.523187 13.095 0.877511C13.1254 2.27819 12.3799 6.70862 11.9691 8.42904C11.5583 10.1494 11.4822 13.8186 11.3909 14.5494C11.2997 15.2802 11.9995 13.6664 12.3647 12.1135C12.7299 10.5605 14.2361 5.91693 14.7078 4.44013C15.1795 2.9633 16.0923 -0.310021 15.925 -1.52801C15.7576 -2.746 15.4533 -3.94876 15.5294 -4.42074C15.6055 -4.89271 15.3468 -5.32408 15.0932 -5.62857C14.8396 -5.93308 14.3325 -5.25303 14.3325 -5.25303Z" fill="#28839F" fill-opacity="0.2"/>
<path d="M22.1937 24.0193C22.0197 26.1859 21.7169 28.8507 21.3924 31.1243C21.0678 33.3978 20.2766 35.306 20.2157 37.2548C20.1549 39.2036 20.4186 42.4312 21.4735 42.6545C22.5284 42.8778 25.3077 40.7464 25.4496 38.8382C25.5917 36.93 24.4962 32.2814 24.273 30.7995C24.0499 29.3176 22.8628 24.1518 22.5893 23.3088C22.4295 22.8166 22.285 22.8825 22.1937 24.0193Z" fill="#28839F"/>
<path d="M11.33 16.0611C11.2704 17.5825 11.3098 20.9736 11.6952 22.9224C12.0806 24.8712 11.8372 29.6619 12.2632 31.6107C12.6892 33.5595 13.6021 35.9143 14.657 38.5127C15.7119 41.111 15.9959 41.8012 16.3611 40.9892C16.7263 40.1772 16.6451 36.2391 15.9148 34.2091C15.1845 32.1791 14.0687 29.8041 13.521 27.429C12.9733 25.0539 12.5878 21.136 12.6487 19.8166C12.7095 18.4971 12.669 16.7107 12.8921 15.1273C13.1153 13.5439 13.715 10.4076 13.6326 10.2858C13.3744 9.90424 12.811 11.5139 12.5675 12.5898C12.3241 13.6657 11.8879 14.5894 11.6952 14.9649C11.5025 15.3404 11.3503 15.5434 11.33 16.0611Z" fill="#28839F"/>
<path d="M17.7607 -2.25387C17.935 -1.55634 19.1807 2.45061 19.3937 2.9987C19.6068 3.54679 19.9719 1.65891 19.8299 0.390166C19.717 -0.618721 19.6372 -1.09172 18.7344 -2.04581C17.8317 -2.9999 17.5984 -2.90347 17.7607 -2.25387Z" fill="#28839F" fill-opacity="0.2"/>
<path d="M20.0333 0.724951C20.0608 2.53676 19.9725 3.84604 19.9116 4.34845C19.8507 4.85088 20.155 6.49516 20.5202 6.96714C20.8854 7.4391 21.5396 6.69309 21.9504 5.23149C22.3612 3.76991 22.3764 2.62805 22.0721 2.00384C21.7678 1.37961 20.8701 0.481342 20.4898 0.11595C20.1094 -0.249443 20.0181 -0.279891 20.0333 0.724951Z" fill="#28839F" fill-opacity="0.2"/>
<path d="M22.4671 3.33344C22.4993 4.23433 22.2845 5.57658 21.7976 6.56112C21.3108 7.54565 21.047 7.85014 21.1485 8.63169C21.2499 9.41323 21.5745 10.6008 21.7976 10.9662C22.0208 11.3316 22.9946 9.39293 23.3191 8.5099C23.6437 7.62686 24.161 5.90137 24.1712 5.20103C24.1813 4.50069 23.4611 3.74959 23.096 3.31315C22.7308 2.8767 22.4367 2.48086 22.4671 3.33344Z" fill="#28839F" fill-opacity="0.2"/>
<path d="M26.5754 11.96C26.8427 13.1186 27.0775 16.8319 27.1536 18.2631C27.2297 19.6942 27.2906 21.4146 26.8493 22.7696C26.4081 24.1246 26.2407 24.5509 26.2407 25.9668C26.2407 27.3827 26.7276 30.0166 26.8037 30.8997C26.8798 31.7827 27.4883 29.7121 27.6253 28.5246C27.7622 27.3371 28.5838 22.4194 29.0555 20.8513C29.5271 19.2831 29.2989 16.1925 29.1772 15.0658C29.0555 13.9392 29.0174 12.9039 28.523 12.5233C28.0285 12.1427 27.4427 12.0894 26.971 11.4423C26.4994 10.7953 26.3701 11.0693 26.5754 11.96Z" fill="#28839F" fill-opacity="0.2"/>
<path d="M24.4453 42.5022C23.5144 44.6313 22.9542 45.7908 22.7412 46.4911C22.5282 47.1915 22.7868 47.1001 23.0759 47.2828C23.365 47.4655 23.0759 48.1506 22.8629 48.8053C22.6499 49.46 22.513 49.7949 22.8021 49.871C23.0911 49.9472 24.2475 47.1458 24.567 46.4302C24.8865 45.7147 24.973 43.8881 24.9626 42.9285C24.955 42.232 24.9626 41.6877 24.8732 41.7277C24.7903 41.7647 24.5878 42.1761 24.4453 42.5022Z" fill="#28839F" fill-opacity="0.2"/>
<path d="M15.3772 47.4349C15.2212 49.1785 16.0011 54.1795 16.3814 56.2653C16.7618 58.3511 18.5419 69.5109 18.755 70.942C18.968 72.3731 20.1344 80.4728 20.0127 81.7923C19.891 83.1117 19.3027 81.1021 18.8361 79.5593C18.3695 78.0165 16.3409 71.3988 15.6714 68.435C15.002 65.4712 14.2513 58.7926 14.1296 56.3566C13.9665 53.0921 13.299 50.8198 15.1034 47.3892C15.2555 47.0999 15.4229 46.9248 15.3772 47.4349Z" fill="#28839F" fill-opacity="0.2"/>
<path d="M21.4734 27.6733C21.5343 26.2117 22.2258 22.2073 21.7726 21.0606C19.318 14.8489 18.3746 11.0173 16.5261 2.24991C16.2565 0.970951 15.991 1.75552 15.7942 2.30601C15.2807 3.74211 14.9029 5.65843 14.576 6.75434C14.1703 8.11444 13.9167 11.1696 13.653 12.6311C13.3892 14.0927 12.9936 17.9192 13.0139 20.4364C13.0342 22.9536 13.6834 26.8816 14.2717 28.5056C14.86 30.1296 16.3612 33.8241 16.9901 35.7729C18.437 40.2565 19.9779 35.3464 19.9811 35.3328C20.4548 33.8306 21.4203 28.9494 21.4734 27.6733Z" fill="#28839F"/>
<path d="M54.1653 -21.2092C55.983 -19.845 56.3359 -17.9105 56.7619 -16.4184C57.188 -14.9264 60.733 -1.97008 61.0525 -0.615067C61.3721 0.739958 61.4786 2.35379 60.9917 1.72956C60.5048 1.10535 56.0468 -11.9119 54.6927 -14.7437C53.3386 -17.5755 52.6631 -18.4873 52.9177 -19.6461C53.1205 -20.5698 53.4958 -21.7116 54.1653 -21.2092Z" fill="#28839F" fill-opacity="0.2"/>
<path d="M52.8563 -17.4948C53.6519 -16.1515 58.07 -4.34055 58.8206 -1.41739C59.5712 1.50579 59.5915 2.68317 59.1046 2.39898C58.6177 2.11478 53.1809 -10.2681 52.3289 -12.7447C51.4769 -15.2212 51.6696 -16.2362 51.9536 -17.17C52.2376 -18.1038 52.5318 -18.0429 52.8563 -17.4948Z" fill="#28839F" fill-opacity="0.2"/>
<path d="M32.3468 -12.379C33.7668 -12.3896 36.6171 -12.5414 37.2967 -12.6429C37.9763 -12.7444 38.5646 -12.0136 38.4124 -11.0595C38.2603 -10.1054 37.6821 -6.30938 36.4649 -2.47272C35.2477 1.36394 34.3551 3.73902 33.1582 4.81491C31.9613 5.89079 31.6773 7.14938 31.0788 7.05803C30.4804 6.96668 30.4779 4.55355 30.4703 3.602C30.4637 2.78718 30.3891 -10.0192 30.5996 -10.4353C30.8194 -10.87 31.2538 -11.1471 31.5087 -11.4021C31.7809 -11.6745 31.6672 -12.374 32.3468 -12.379Z" fill="#28839F" fill-opacity="0.2"/>
<path d="M44.5083 -3.73148C43.8223 0.013166 43.4662 2.36819 42.7333 5.44402C42.1044 8.083 41.1205 12.417 40.238 15.1879C39.3556 17.9589 37.7123 22.3741 36.8603 25.3886C36.0083 28.4031 34.6998 36.5941 34.5781 37.1117C34.4564 37.6294 34.2738 34.6148 34.0912 33.0923C33.9086 31.5699 34.1521 27.7028 34.6998 25.1145C35.2475 22.5263 36.0691 17.9284 37.3167 15.0052C39.7821 9.22902 42.4421 -1.40557 43.21 -3.18338C43.3816 -3.58064 44.6757 -4.64497 44.5083 -3.73148Z" fill="#28839F" fill-opacity="0.2"/>
<path d="M46.0605 -5.25303C46.6082 -3.56815 47.3284 -0.523187 47.2979 0.877511C47.2675 2.27819 48.013 6.70862 48.4238 8.42904C48.8347 10.1494 48.9107 13.8186 49.002 14.5494C49.0933 15.2802 48.3934 13.6664 48.0283 12.1135C47.6631 10.5605 46.1568 5.91693 45.6852 4.44013C45.2135 2.9633 44.3006 -0.310021 44.468 -1.52801C44.6353 -2.746 44.9396 -3.94876 44.8636 -4.42074C44.7875 -4.89271 45.0461 -5.32408 45.2997 -5.62857C45.5533 -5.93308 46.0605 -5.25303 46.0605 -5.25303Z" fill="#28839F" fill-opacity="0.2"/>
<path d="M38.2297 23.9983C38.4037 26.1649 38.676 28.8499 39.0006 31.1235C39.3252 33.3971 40.1164 35.3053 40.1772 37.2541C40.2381 39.2028 39.9744 42.4305 38.9195 42.6538C37.8646 42.8771 35.0853 40.7456 34.9433 38.8374C34.8013 36.9293 35.8968 32.2806 36.1199 30.7987C36.3431 29.3168 37.4501 24.1207 37.8037 23.3081C38.0776 22.6788 38.1384 22.8615 38.2297 23.9983Z" fill="#28839F"/>
<path d="M49.0627 16.0611C49.1223 17.5825 49.083 20.9736 48.6975 22.9224C48.3121 24.8712 48.5555 29.6619 48.1295 31.6107C47.7035 33.5595 46.7906 35.9143 45.7357 38.5127C44.6808 41.111 44.3968 41.8012 44.0316 40.9892C43.6665 40.1772 43.7476 36.2391 44.4779 34.2091C45.2083 32.1791 46.324 29.8041 46.8718 27.429C47.4195 25.0539 47.8049 21.136 47.7441 19.8166C47.6832 18.4971 47.7238 16.7107 47.5006 15.1273C47.2775 13.5439 46.6778 10.4076 46.7602 10.2858C47.0184 9.90424 47.5818 11.5139 47.8252 12.5898C48.0687 13.6657 48.5048 14.5894 48.6975 14.9649C48.8903 15.3404 49.0424 15.5434 49.0627 16.0611Z" fill="#28839F"/>
<path d="M42.6045 -2.19065C42.4302 -1.49312 41.22 2.35397 41.007 2.90206C40.7939 3.45016 40.4212 1.6587 40.5632 0.389958C40.6761 -0.618929 40.7559 -1.09193 41.6587 -2.04602C42.5614 -3.0001 42.7668 -2.84024 42.6045 -2.19065Z" fill="#28839F" fill-opacity="0.2"/>
<path d="M40.3604 0.724951C40.3329 2.53676 40.4212 3.84604 40.4821 4.34845C40.543 4.85088 40.2387 6.49516 39.8735 6.96714C39.5083 7.43912 38.8541 6.69309 38.4433 5.23149C38.0325 3.76991 38.0173 2.62805 38.3216 2.00384C38.6259 1.37961 39.5236 0.481342 39.9039 0.11595C40.2843 -0.249443 40.3756 -0.279891 40.3604 0.724951Z" fill="#28839F" fill-opacity="0.2"/>
<path d="M37.9254 3.33344C37.8932 4.23433 38.108 5.57658 38.5948 6.56112C39.0817 7.54565 39.3454 7.85014 39.244 8.63169C39.1426 9.41323 38.818 10.6008 38.5948 10.9662C38.3717 11.3316 37.3979 9.39293 37.0733 8.5099C36.7487 7.62686 36.2314 5.90137 36.2213 5.20103C36.2112 4.50069 36.9313 3.74959 37.2965 3.31315C37.6616 2.8767 37.9558 2.48086 37.9254 3.33344Z" fill="#28839F" fill-opacity="0.2"/>
<path d="M33.8174 11.96C33.5502 13.1186 33.3153 16.8319 33.2392 18.2631C33.1631 19.6942 33.1023 21.4146 33.5435 22.7696C33.9847 24.1246 34.1521 24.5509 34.1521 25.9668C34.1521 27.3827 33.6652 30.0166 33.5891 30.8997C33.5131 31.7827 32.9045 29.7121 32.7675 28.5246C32.6306 27.3371 31.809 22.4194 31.3373 20.8513C30.8657 19.2831 31.0939 16.1925 31.2156 15.0658C31.3373 13.9392 31.3754 12.9039 31.8699 12.5233C32.3644 12.1427 32.9501 12.0894 33.4218 11.4423C33.8934 10.7953 34.0228 11.0693 33.8174 11.96Z" fill="#28839F" fill-opacity="0.2"/>
<path d="M35.9476 42.5015C36.8784 44.6306 37.4386 45.79 37.6516 46.4904C37.8646 47.1907 37.606 47.0994 37.3169 47.2821C37.0278 47.4648 37.3169 48.1499 37.5299 48.8046C37.7429 49.4592 37.8798 49.7942 37.5908 49.8703C37.3017 49.9464 36.1453 47.1451 35.8258 46.4295C35.5063 45.7139 35.4607 43.8869 35.4303 42.9278C35.4131 42.3882 35.4455 41.7688 35.5215 41.8595C35.6661 42.032 35.7612 42.0752 35.9476 42.5015Z" fill="#28839F" fill-opacity="0.2"/>
<path d="M45.0164 47.4349C45.1725 49.1785 44.3926 54.1795 44.0122 56.2653C43.6319 58.3511 41.8517 69.5109 41.6387 70.942C41.4257 72.3731 40.2592 80.4728 40.3809 81.7923C40.5027 83.1117 41.091 81.1021 41.5576 79.5593C42.0242 78.0165 44.0528 71.3988 44.7223 68.435C45.3917 65.4712 46.1423 58.7926 46.264 56.3566C46.4272 53.0921 47.0947 50.8198 45.2903 47.3892C45.1381 47.0999 44.9708 46.9248 45.0164 47.4349Z" fill="#28839F" fill-opacity="0.2"/>
<path d="M38.9196 27.6726C38.8587 26.211 38.1013 22.2422 38.5544 21.0954C41.0091 14.8837 41.8205 11.0112 43.8668 2.2492C44.1641 0.976388 44.402 1.75482 44.5988 2.30531C45.1123 3.74141 45.4393 5.72877 45.7663 6.82469C46.172 8.18478 46.456 11.0775 46.7197 12.5391C46.9835 14.0007 47.3486 17.8475 47.3283 20.3647C47.3081 22.8818 46.6893 26.82 46.101 28.444C45.5127 30.068 44.0318 33.8234 43.4029 35.7722C41.9217 40.3622 40.4151 35.3457 40.4119 35.3321C39.9382 33.8299 38.9727 28.9487 38.9196 27.6726Z" fill="#28839F"/>
</g>
<defs>
<clipPath id="clip0_4089_13879">
<rect width="49" height="48" fill="white" transform="translate(6)"/>
</clipPath>
</defs>
</svg>
