<svg width="61" height="48" viewBox="0 0 61 48" fill="none" xmlns="http://www.w3.org/2000/svg">
<g clip-path="url(#clip0_4050_5131)">
<path d="M34.808 142.241C34.6244 142.241 34.4761 142.133 34.3327 142.03C34.2137 141.944 34.1014 141.862 33.9936 141.862C33.9749 141.862 33.9568 141.865 33.9381 141.869C33.8153 141.901 33.7477 141.954 33.6695 142.015C33.5589 142.102 33.4335 142.2 33.1792 142.2C33.1624 142.2 33.1449 142.199 33.1267 142.198C32.8895 142.187 32.7413 142.087 32.6105 141.998C32.49 141.917 32.3949 141.853 32.2359 141.853C32.2264 141.853 32.2166 141.853 32.2066 141.853C32.0397 141.861 31.9434 141.918 31.8215 141.989C31.6689 142.079 31.496 142.18 31.1731 142.198C31.1507 142.2 31.1286 142.2 31.1068 142.2C30.8053 142.2 30.5461 142.085 30.3174 141.983C30.1252 141.898 29.9437 141.817 29.7627 141.813L29.7478 141.813C29.5631 141.813 29.336 141.888 29.0956 141.967C28.7967 142.066 28.458 142.178 28.1065 142.178L28.0798 142.178C27.2324 142.165 26.7509 141.728 26.6486 140.881C26.5943 140.432 26.7434 139.945 26.8876 139.475C27.0544 138.931 27.2268 138.369 27.0979 137.853C26.8256 136.763 26.6691 135.36 26.7085 134.363C26.7356 133.679 26.523 132.757 26.3355 131.944C26.2452 131.552 26.1599 131.183 26.1019 130.85C25.9806 130.156 26.4886 128.938 26.9368 127.863C27.1822 127.275 27.414 126.719 27.4607 126.421C27.5617 125.775 27.4463 122.256 27.3843 120.364L27.3752 120.087C27.3236 119.717 27.2718 119.323 27.2206 118.933C27.0812 117.871 26.9495 116.868 26.8348 116.439L26.7487 116.118C26.4431 114.982 25.9838 113.275 25.9829 112.678C25.8771 112.402 25.7228 111.993 25.5649 111.528C25.1839 111.059 24.9068 110.027 24.7414 108.46C24.4799 105.984 24.7685 102.507 25.068 101.05C25.2187 100.317 25.4544 99.4292 25.6624 98.6463C25.861 97.8987 26.0486 97.1927 26.1221 96.7704C26.1979 96.336 26.2148 96.0903 26.225 95.9435C26.2316 95.8479 26.236 95.7843 26.2548 95.7336C26.2295 95.5986 26.2022 95.4458 26.173 95.2816C26.0293 94.4761 25.8327 93.3728 25.5767 92.8023C25.2395 92.0508 24.7967 89.8111 24.6077 88.8546L24.6012 88.8222C24.541 88.5174 24.4858 88.0066 24.4371 87.304C24.3449 86.5479 24.3165 85.6385 24.2977 85.0368L24.2944 84.9329C24.2853 84.6472 24.2854 84.0758 24.3458 83.8629C24.3379 83.6833 24.3077 83.5179 24.2224 83.1806C24.1335 82.8289 24.0739 82.4488 24.0049 82.0087C23.9713 81.7947 23.9355 81.5662 23.8929 81.32C23.8489 81.1636 23.8203 81.0078 23.8085 80.8565C23.7286 80.4462 23.6689 80.2524 23.6163 80.0812C23.5541 79.879 23.5 79.7029 23.4336 79.2626C23.3463 79.1421 23.2935 78.6902 23.1415 76.9965C23.0812 76.3247 23.0188 75.63 22.9564 75.1096C22.923 74.8313 22.9031 74.4741 22.8973 74.0477C22.8382 73.9257 22.759 73.8016 22.6754 73.6707C22.5817 73.5238 22.485 73.3723 22.397 73.1966C22.0435 72.8658 21.69 71.0393 21.6326 70.5415C21.5032 69.4192 20.6819 64.4697 20.2073 62.8917C19.6655 61.0905 20.0365 57.4604 20.0806 57.0524C20.0955 56.9138 20.1093 56.7766 20.1228 56.6418C20.1805 56.0654 20.2351 55.5197 20.3665 55.1003C20.2286 54.8427 19.5884 54.7272 19.2776 54.7272H19.1153C18.8069 54.7272 18.1741 54.841 18.0271 55.1024C18.1581 55.5218 18.2127 56.0671 18.2703 56.6429C18.2837 56.7774 18.2975 56.9142 18.3124 57.0525C18.3565 57.4605 18.7275 61.0908 18.1856 62.8917C17.7111 64.4697 16.8897 69.4192 16.7603 70.5415C16.7029 71.0393 16.3494 72.8658 15.9961 73.1966C15.908 73.3723 15.8113 73.5237 15.7177 73.6704C15.6341 73.8014 15.5548 73.9256 15.4957 74.0477C15.4899 74.4736 15.47 74.8307 15.4366 75.1096C15.3742 75.6301 15.3118 76.325 15.2515 76.997C15.0995 78.6904 15.0467 79.1422 14.9594 79.2627C14.893 79.7029 14.8388 79.879 14.7766 80.0812C14.7241 80.2523 14.6645 80.4461 14.5845 80.8565C14.5727 81.0076 14.5441 81.1637 14.497 81.3332C14.4575 81.5659 14.4218 81.7941 14.3882 82.008C14.3192 82.4484 14.2596 82.8287 14.1706 83.1807C14.0995 83.4617 14.068 83.6185 14.0542 83.7623C14.088 83.9083 14.0922 84.2025 14.0964 84.6885L14.0987 84.9271C14.1056 85.5692 14.0694 86.6191 13.944 87.4651C13.8989 88.0812 13.8473 88.5412 13.7917 88.8221L13.7859 88.8513C13.5968 89.8084 13.1539 92.0499 12.8162 92.8024C12.5602 93.3729 12.3635 94.4765 12.2199 95.2823C12.1907 95.4462 12.1635 95.5989 12.1383 95.7336C12.157 95.7842 12.1614 95.8479 12.168 95.9435C12.1781 96.0902 12.1951 96.3359 12.2709 96.7704C12.3445 97.1928 12.5321 97.8993 12.7308 98.6472C12.9387 99.4299 13.1744 100.317 13.325 101.05C13.6245 102.507 13.9131 105.984 13.6516 108.46C13.5312 109.6 13.2819 111.071 12.7763 111.651C12.6173 112.126 12.4822 112.489 12.4101 112.678C12.4092 113.276 11.9495 114.984 11.6436 116.12L11.5582 116.439C11.4436 116.868 11.312 117.87 11.1727 118.931C11.1214 119.322 11.0695 119.717 11.0178 120.087L11.0086 120.369C10.9466 122.259 10.8314 125.776 10.9323 126.421C10.979 126.719 11.2108 127.275 11.4561 127.863C11.9044 128.937 12.4124 130.156 12.2911 130.85C12.233 131.183 12.1478 131.552 12.0575 131.944C11.87 132.757 11.6574 133.679 11.6844 134.363C11.724 135.36 11.5675 136.763 11.2951 137.853C11.1661 138.369 11.3386 138.931 11.5054 139.475C11.6496 139.945 11.7987 140.432 11.7444 140.881C11.6421 141.728 11.1605 142.165 10.3132 142.178L10.2865 142.178C9.93494 142.178 9.59624 142.066 9.29735 141.967C9.05694 141.888 8.82987 141.813 8.64515 141.813L8.63026 141.813C8.44931 141.817 8.26777 141.898 8.0756 141.983C7.84694 142.085 7.58772 142.2 7.28618 142.2C7.26432 142.2 7.24219 142.2 7.21986 142.198C6.89692 142.18 6.72408 142.079 6.57151 141.989C6.44957 141.918 6.35329 141.861 6.18636 141.853C6.17633 141.853 6.16663 141.853 6.15706 141.853C5.99811 141.853 5.90296 141.917 5.78249 141.998C5.65173 142.087 5.50347 142.187 5.26631 142.198C5.2481 142.199 5.23063 142.2 5.21387 142.2C4.95951 142.2 4.83412 142.102 4.72348 142.015C4.6452 141.954 4.57762 141.901 4.45482 141.869C4.43615 141.865 4.41801 141.862 4.39934 141.862C4.29156 141.862 4.17926 141.944 4.06032 142.03C3.91692 142.133 3.7686 142.241 3.585 142.241C3.57105 142.241 3.55695 142.24 3.54287 142.239C3.31103 142.217 3.19068 142.12 3.08449 142.034C3.01951 141.981 2.96343 141.936 2.88056 141.906C2.87012 141.903 2.85857 141.901 2.84541 141.901C2.77112 141.901 2.66168 141.957 2.54585 142.018C2.37316 142.107 2.15812 142.219 1.91232 142.219C1.38438 142.219 1.11413 141.956 0.948402 141.283C0.781952 140.606 0.928276 139.508 1.46127 138.841C1.59888 138.669 1.8179 138.406 2.07154 138.102C2.71969 137.326 3.60745 136.262 3.98988 135.684C4.5234 134.878 4.7397 133.436 4.42652 132.773C4.0263 131.924 3.9423 131.132 4.17686 130.419L4.256 130.18C4.47521 129.52 4.70195 128.838 4.79989 128.009C4.88043 127.327 4.84422 125.675 4.77631 124.422C4.71258 124.141 4.66082 123.844 4.62254 123.541C4.40386 121.809 3.40823 114.308 2.8902 111.982C2.40306 109.796 1.63151 105.788 1.50266 103.709C1.38891 101.874 1.51935 100.679 1.59729 99.9653L1.61476 99.8041C1.64154 99.5523 1.71364 99.0655 1.76307 98.8386C1.85995 98.3436 1.99578 97.8844 2.11558 97.4792C2.18568 97.2419 2.252 97.0176 2.3027 96.8125C2.33453 96.5636 2.41355 95.9963 2.49681 95.7995L2.50817 95.7416C2.59316 95.3099 2.68937 94.821 2.73862 94.3669C2.73696 94.0803 2.74407 93.8113 2.76022 93.5454C2.67523 92.6107 2.64015 89.0807 2.75031 87.467C2.82235 86.4118 3.10595 84.8521 3.33381 83.5987C3.45542 82.9297 3.56046 82.3519 3.59276 82.0615C3.63217 81.7062 3.61163 81.2035 3.53189 80.5669L3.53076 80.5641C2.55854 78.1696 1.57208 75.6621 1.13026 73.6406C0.908381 72.6258 0.86573 70.8474 0.824455 69.1276C0.786186 67.5334 0.746637 65.8849 0.561638 64.9496C0.187994 63.0608 0.135233 59.7931 0.189655 58.1771C0.170181 57.8139 0.226997 57.0759 0.259687 56.752C0.239559 56.6892 0.246063 56.6104 0.255835 56.5326C0.281351 56.328 0.306267 55.877 0.337826 55.306C0.418634 53.845 0.540628 51.6371 0.836596 50.3975C1.23476 48.7301 1.98956 44.294 1.95879 42.8805C1.92763 41.4441 2.6613 38.3711 3.20293 36.7049C3.31484 36.2321 3.51385 35.4929 3.68948 34.8408C3.78463 34.4872 3.87162 34.1642 3.93155 33.9323C3.96797 33.4865 4.0806 33.0356 4.17489 32.6916C4.30387 32.2214 4.21543 31.6558 4.11302 31.0008C4.00072 30.2826 3.86092 29.3887 3.96783 28.3292C4.14518 26.5721 4.34127 25.6917 4.4745 25.2626C4.51837 25.1049 4.57398 24.9428 4.63292 24.7712C4.76489 24.3867 4.90132 23.9892 4.9275 23.5621C4.86425 22.8941 4.86543 22.1232 4.93015 21.7173C4.935 20.8476 4.92969 19.8705 4.85506 19.2009C4.82881 19.0705 4.80382 18.9149 4.78236 18.7498C4.65059 18.1448 4.38705 17.528 4.19462 17.0776C4.13137 16.9297 4.07575 16.7995 4.03143 16.6862C3.86563 16.5659 3.80065 16.2181 3.68369 15.5926C3.5997 15.1435 3.49517 14.5846 3.32374 14.0097C2.9879 12.884 2.3139 9.94883 2.06452 8.41083C2.02964 8.3996 1.99634 8.39361 1.96718 8.39361C1.93807 8.39361 1.92465 8.39965 1.92126 8.40152C1.90644 8.4095 1.88703 8.42506 1.8681 8.46815C1.91469 8.75028 1.81249 9.70559 1.74311 10.2823C1.66868 10.9011 1.28141 12.1329 0.83308 13.5592C0.0663853 15.998 -0.887827 19.0332 -0.812149 20.6429C-0.710817 22.7977 -1.45864 24.4119 -1.8501 24.732C-1.92565 25.118 -1.98798 25.5306 -2.04838 25.9302C-2.10918 26.3328 -2.17211 26.7492 -2.24926 27.1452C-2.33757 27.7594 -2.52058 28.4667 -2.80751 29.3007C-3.09596 30.1393 -3.94585 32.209 -5.08121 34.8379C-5.23178 35.3254 -5.39903 35.8601 -5.57594 36.4256C-6.7166 40.072 -8.27876 45.066 -8.31804 46.839C-8.32927 47.3472 -8.04466 48.1247 -7.5746 49.3448C-7.05304 50.6987 -7.14328 53.3576 -8.33791 55.6184C-8.84612 56.5803 -9.29618 58.0508 -9.73148 59.4729C-10.1542 60.8543 -10.5537 62.1591 -10.948 62.7459C-11.1829 63.0953 -11.426 63.2725 -11.6705 63.2725C-11.9205 63.2725 -12.1086 63.091 -12.2358 62.9047C-12.4335 63.9165 -12.8918 65.7305 -13.6535 65.8691C-13.7081 65.8791 -13.7618 65.8841 -13.8131 65.8841C-14.1883 65.8841 -14.4615 65.6246 -14.5989 65.1552C-14.8362 65.9643 -15.2707 67.049 -15.8954 67.049L-15.9156 67.0487C-16.7948 67.0165 -16.8207 65.8615 -16.7807 64.56C-16.8504 64.5989 -16.9292 64.619 -17.0153 64.619C-17.5911 64.619 -18.2832 63.7539 -18.4125 62.8723C-18.7323 60.6905 -18.5204 58.0768 -18.3657 56.1683C-18.2896 55.2305 -18.2112 54.2636 -18.2757 53.9902C-18.3943 54.0998 -18.5454 54.2957 -18.7182 54.5195C-19.0427 54.9398 -19.4464 55.4629 -19.92 55.7888C-20.3043 56.0533 -20.7623 56.1931 -21.2445 56.1931C-22.0014 56.1931 -22.6675 55.8512 -22.8284 55.3801C-22.8892 55.2021 -22.924 54.8515 -22.4742 54.5032C-21.3021 53.5955 -19.0555 50.3164 -18.2569 48.348C-17.7244 47.0353 -16.7435 46.6003 -15.9553 46.2506C-15.4848 46.0419 -15.0784 45.8617 -14.8782 45.5452C-14.4153 44.8137 -13.7142 41.251 -12.7944 34.9564C-12.7573 31.5402 -12.7028 28.0635 -12.4841 26.3566C-12.071 23.132 -10.7191 19.214 -9.53209 17.8009C-9.36225 17.5988 -9.21067 17.415 -9.07525 17.2507C-8.66413 16.7522 -8.40995 16.444 -8.21806 16.3133C-8.04774 16.0851 -7.90229 15.6571 -7.78547 15.0405C-8.05073 11.0824 -7.20092 7.69776 -6.51157 6.55674L-6.47483 6.49636C-6.39516 6.22308 -6.28404 5.87519 -6.16657 5.50735L-6.12531 5.37782L-6.10312 5.24908C-5.91924 4.1818 -6.056 2.67979 -6.21435 0.940594C-6.24904 0.55946 -6.28459 0.16901 -6.31769 -0.227894C-6.52548 -2.72264 -6.21177 -4.71917 -5.33044 -6.51102C-5.07947 -7.12064 -4.60648 -7.90759 -4.15495 -8.46486C-2.15409 -11.9725 1.898 -13.4286 3.62483 -13.4286C3.73739 -13.4286 3.83913 -13.4218 3.92758 -13.4084C3.96957 -13.4106 4.01383 -13.4115 4.06028 -13.4115C4.24268 -13.4115 4.45983 -13.3963 4.68975 -13.3803C4.96924 -13.3608 5.28595 -13.3387 5.60948 -13.3386C5.75899 -13.4639 6.08951 -13.5793 6.69121 -13.7825C7.12054 -13.9275 7.65492 -14.108 8.18918 -14.3312C9.43398 -14.8509 10.9703 -15.8051 11.8422 -16.6C12.1112 -16.8453 12.2788 -16.9748 12.3978 -17.0277C12.4804 -17.1427 12.5682 -17.2573 12.659 -17.3758C13.0005 -17.8212 13.387 -18.3251 13.4924 -18.8429C13.4584 -19.1425 13.4465 -20.7888 13.5587 -21.8709C13.5461 -22.0441 13.5332 -22.1313 13.5247 -22.1742C13.5087 -22.2544 13.4954 -22.3358 13.4818 -22.4197C13.4192 -22.8038 13.3484 -23.239 12.9365 -23.8532C12.585 -24.3775 12.4875 -25.5959 12.4677 -26.5256C12.464 -26.7054 12.3175 -26.8516 12.1413 -26.8516C12.1183 -26.8516 12.0951 -26.8491 12.0722 -26.8441C11.9674 -26.8212 11.8577 -26.8091 11.7549 -26.8091C11.478 -26.8091 11.2492 -26.8932 11.0933 -27.0523C10.9324 -27.2163 10.8538 -27.4521 10.8595 -27.7531C10.8795 -28.805 10.6657 -29.4152 10.477 -29.9537C10.3819 -30.2252 10.2921 -30.4817 10.238 -30.7703C10.1419 -31.2832 10.0834 -31.9728 10.3503 -32.3455C10.4553 -32.4921 10.5993 -32.5794 10.7785 -32.605C10.8223 -32.6113 10.8675 -32.6144 10.9127 -32.6144C11.0613 -32.6144 11.2166 -32.5805 11.3744 -32.5135C11.396 -32.5044 11.4183 -32.4997 11.4405 -32.4997C11.4885 -32.4997 11.536 -32.5213 11.5708 -32.5588C11.6065 -32.5972 11.624 -32.6472 11.62 -32.6995C11.5044 -34.2383 11.3988 -38.0272 12.9118 -39.9685C14.7107 -42.2766 17.4774 -42.7442 18.5836 -42.8381C18.7266 -42.8502 18.8991 -42.8633 19.1375 -42.8633C19.3163 -42.8633 19.5101 -42.8556 19.7137 -42.8404C20.8401 -42.7567 23.6567 -42.3092 25.481 -39.9685C26.9939 -38.0272 26.8883 -34.2383 26.7727 -32.6994C26.7688 -32.6472 26.7862 -32.5972 26.8219 -32.5587C26.8567 -32.5212 26.9042 -32.4997 26.9522 -32.4997C26.9746 -32.4997 26.9968 -32.5044 27.0184 -32.5135C27.1762 -32.5805 27.3315 -32.6144 27.48 -32.6144C27.5252 -32.6144 27.5704 -32.6113 27.6143 -32.605C27.7934 -32.5794 27.9374 -32.4921 28.0424 -32.3455C28.3093 -31.9728 28.2508 -31.2832 28.1548 -30.7703C28.1007 -30.4817 28.0108 -30.2253 27.9157 -29.9538C27.7271 -29.4153 27.5133 -28.805 27.5333 -27.7531C27.539 -27.4521 27.4604 -27.2162 27.2995 -27.0522C27.1435 -26.8932 26.9147 -26.8091 26.6379 -26.8091C26.535 -26.8091 26.4253 -26.8212 26.3205 -26.8441C26.2976 -26.8491 26.2744 -26.8516 26.2514 -26.8516C26.0753 -26.8516 25.9288 -26.7054 25.925 -26.5256C25.9052 -25.5959 25.8078 -24.3775 25.4563 -23.8531C25.0445 -23.2391 24.9736 -22.8038 24.911 -22.4198C24.8974 -22.3359 24.8841 -22.2544 24.868 -22.1743C24.8594 -22.1309 24.8466 -22.0433 24.8341 -21.871C24.9463 -20.7885 24.9344 -19.1424 24.9004 -18.8429C25.0057 -18.3251 25.3922 -17.8212 25.7337 -17.3758C25.8259 -17.2556 25.915 -17.1393 25.9952 -17.0276C26.1142 -16.9746 26.2817 -16.8452 26.5506 -16.6C27.4224 -15.8052 28.9586 -14.851 30.2035 -14.3312C30.7378 -14.108 31.2722 -13.9275 31.7016 -13.7825C32.3033 -13.5793 32.6338 -13.4639 32.7833 -13.3386C33.1068 -13.3387 33.4235 -13.3608 33.703 -13.3803C33.9329 -13.3963 34.1501 -13.4115 34.3325 -13.4115C34.3789 -13.4115 34.4231 -13.4106 34.4651 -13.4084C34.5536 -13.4218 34.6553 -13.4286 34.7679 -13.4286C36.4947 -13.4286 40.5468 -11.9725 42.5477 -8.46493C42.9993 -7.90745 43.4723 -7.12045 43.7269 -6.50286C44.6045 -4.71931 44.9182 -2.72279 44.7104 -0.227905C44.6773 0.169392 44.6418 0.560101 44.607 0.941574C44.4487 2.68037 44.312 4.18198 44.4959 5.24906L44.5253 5.41974L44.5274 5.42632C44.6457 5.80639 44.7576 6.16579 44.8365 6.44507L44.9043 6.55677C45.6012 7.71023 46.4546 11.1262 46.1739 15.1142C46.287 15.6961 46.431 16.0974 46.6024 16.3079C46.7958 16.4356 47.053 16.7475 47.4698 17.253C47.6048 17.4166 47.7558 17.5996 47.9248 17.8009C49.1119 19.2139 50.4637 23.1319 50.8768 26.3565C51.0955 28.0635 51.1501 31.5401 51.1871 34.9563C52.1069 41.251 52.808 44.8137 53.271 45.5452C53.4712 45.8617 53.8776 46.0419 54.348 46.2506C55.1363 46.6002 56.1171 47.0353 56.6497 48.3479C57.4483 50.3164 59.6949 53.5954 60.867 54.5032C61.3168 54.8515 61.282 55.2021 61.2212 55.3801C61.0603 55.8512 60.3942 56.193 59.6373 56.193C59.1551 56.193 58.697 56.0533 58.3128 55.7888C57.8393 55.4629 57.4355 54.9398 57.1111 54.5197C56.9384 54.2958 56.7871 54.0999 56.6685 53.9902C56.6041 54.2637 56.6825 55.2303 56.7585 56.1678C56.9132 58.0764 57.1251 60.6904 56.8053 62.8722C56.6761 63.7538 55.984 64.6189 55.4081 64.6189C55.3221 64.6189 55.2432 64.5988 55.1736 64.56C55.2135 65.8614 55.1875 67.0164 54.3083 67.0486L54.2881 67.0489C53.6635 67.0489 53.2289 65.9642 52.9917 65.1552C52.8543 65.6245 52.5811 65.884 52.206 65.884C52.1546 65.884 52.1009 65.879 52.0464 65.8691C51.2843 65.7304 50.8262 63.9164 50.6285 62.9046C50.5014 63.0909 50.3134 63.2725 50.0633 63.2725C49.8188 63.2725 49.5756 63.0953 49.3408 62.7458C48.9464 62.159 48.547 60.8542 48.1242 59.4728C47.6889 58.0508 47.2389 56.5803 46.7307 55.6184C45.536 53.3575 45.4458 50.6986 45.9674 49.3448C46.4375 48.1246 46.7221 47.347 46.7108 46.839C46.6715 45.066 45.1094 40.0721 43.9688 36.4257C43.7919 35.8602 43.6246 35.3255 43.474 34.8379C42.3387 32.2088 41.4888 30.1391 41.2003 29.3006C40.9133 28.4667 40.7304 27.7594 40.6409 27.1383C40.5649 26.7492 40.502 26.333 40.4413 25.9307C40.3809 25.5309 40.3186 25.1181 40.2429 24.7319C39.8514 24.4117 39.1037 22.7975 39.2049 20.6428C39.2807 19.0331 38.3265 15.9979 37.5597 13.559C37.1113 12.1327 36.7241 10.901 36.6497 10.2822C36.5803 9.70552 36.4782 8.75021 36.5247 8.46808C36.5059 8.425 36.4865 8.40943 36.4717 8.40145C36.4682 8.39959 36.4548 8.39354 36.4256 8.39354C36.3965 8.39354 36.3631 8.39952 36.3283 8.41077C36.0791 9.94822 35.405 12.8835 35.0691 14.0096C34.8976 14.5846 34.7931 15.1435 34.7092 15.5926C34.5922 16.2181 34.5271 16.5658 34.3614 16.6862C34.317 16.7995 34.2614 16.9296 34.1982 17.0775C34.0058 17.5278 33.7422 18.1446 33.6086 18.761C33.5891 18.914 33.5641 19.0696 33.536 19.2121C33.4631 19.8705 33.4578 20.8475 33.4626 21.7172C33.5274 22.123 33.5286 22.8941 33.4653 23.562C33.4915 23.9892 33.6279 24.3866 33.7599 24.7711C33.8188 24.9426 33.8744 25.1047 33.9194 25.2662C34.0516 25.6917 34.2476 26.5722 34.425 28.3292C34.5319 29.3886 34.3921 30.2824 34.2798 31.0006C34.1774 31.6556 34.0889 32.2213 34.218 32.6916C34.3123 33.0353 34.4248 33.4861 34.4612 33.9321C34.5211 34.1636 34.6078 34.4858 34.7028 34.8386C34.8786 35.4915 35.0778 36.2315 35.1928 36.7155C35.7315 38.3709 36.4651 41.4439 36.434 42.8804C36.4033 44.2935 37.158 48.7298 37.5562 50.3974C37.8521 51.6369 37.9742 53.8444 38.055 55.3052C38.0865 55.8766 38.1114 56.3279 38.137 56.5325C38.1468 56.6103 38.1533 56.6892 38.1331 56.752C38.1659 57.0755 38.2226 57.8132 38.203 58.1886C38.2576 59.7926 38.2049 63.06 37.8312 64.9495C37.6461 65.8848 37.6066 67.5331 37.5684 69.1272C37.5271 70.8472 37.4844 72.6257 37.2625 73.6405C36.8208 75.6617 35.8343 78.1693 34.8619 80.5646L34.8609 80.5671C34.7811 81.2035 34.7607 81.7061 34.8001 82.0614C34.8323 82.3518 34.9373 82.9295 35.059 83.5985C35.2868 84.8519 35.5705 86.4117 35.6425 87.4669C35.753 89.0858 35.7174 92.631 35.6321 93.5483C35.6486 93.8051 35.6559 94.0772 35.6543 94.3669C35.7035 94.821 35.7997 95.3102 35.8847 95.7419L35.896 95.7994C35.9792 95.996 36.0583 96.5635 36.0902 96.8126C36.1408 97.0174 36.2071 97.2414 36.2772 97.4784C36.4348 98.0116 36.6135 98.6158 36.7052 99.2919C36.7349 99.4614 36.7617 99.65 36.778 99.8041L36.7955 99.9652C36.8735 100.679 37.0039 101.874 36.8901 103.709C36.7614 105.788 35.9898 109.795 35.5026 111.982C34.9839 114.31 33.9888 121.809 33.7703 123.541C33.732 123.844 33.6803 124.141 33.6166 124.422C33.5486 125.674 33.5123 127.327 33.593 128.009C33.691 128.839 33.9179 129.521 34.1372 130.181L34.216 130.418C34.4505 131.132 34.3665 131.924 33.9663 132.772C33.6531 133.436 33.8695 134.878 34.403 135.684C34.7856 136.262 35.6736 137.326 36.3221 138.103C36.5754 138.407 36.7941 138.669 36.9316 138.841C37.4645 139.508 37.6109 140.606 37.4444 141.283C37.2787 141.956 37.0085 142.219 36.4805 142.219C36.2347 142.219 36.0197 142.107 35.847 142.018C35.7312 141.957 35.6217 141.901 35.5474 141.901C35.5342 141.901 35.5227 141.902 35.5122 141.906C35.4294 141.936 35.3733 141.981 35.3083 142.034C35.2021 142.12 35.0818 142.217 34.8499 142.238C34.8358 142.24 34.822 142.241 34.808 142.241Z" fill="white" stroke="#28839F" stroke-width="0.504915"/>
<path d="M-2.77467 1.67463C-2.80375 1.69135 -2.84034 1.67445 -2.84613 1.64139C-3.25908 -0.724375 -6.31511 -3.78094 -4.29564 -7.91304C-2.25684 -12.0846 2.61193 -13.4853 3.92041 -13.2722C5.16095 -13.0701 8.42557 -10.9247 9.95408 -10.469C10.0037 -10.4542 9.9974 -10.3803 9.94583 -10.375C7.75793 -10.1511 5.92201 -10.0851 3.75134 -8.55755C1.49514 -6.96979 1.94965 -4.95941 1.46278 -3.40648C0.97979 -1.86595 -0.286544 0.243905 -2.77467 1.67463Z" fill="#28839F" fill-opacity="0.2"/>
<path d="M1.5086 -2.31055C0.859434 0.105124 -1.88179 1.27236 -4.1133 8.67163C-4.75052 10.7846 -5.53855 17.4714 -5.51307 20.0801C-5.50356 21.0548 -4.73204 19.8162 -4.73204 19.8162C-4.73204 19.8162 0.796044 11.879 1.48578 7.90024C2.17552 3.92149 1.5086 -2.31055 1.5086 -2.31055Z" fill="#28839F" fill-opacity="0.2"/>
<path d="M-3.90977 19.6336C-4.27112 20.2866 -2.69258 21.7753 -2.08397 24.5868C-1.98002 25.0671 -0.826215 23.2368 -0.947932 20.6486C-1.06965 18.0604 1.41038 11.9096 1.60817 10.2653C1.80596 8.621 1.72988 8.46875 1.72988 8.46875C-0.607182 14.3802 -1.82026 15.8579 -3.90977 19.6336Z" fill="#28839F" fill-opacity="0.2"/>
<path d="M15.5857 -10.1057C13.7695 -10.5652 9.98257 -10.162 8.36373 -9.94329C5.58448 -9.56774 3.49631 -8.35856 2.76466 -7.02012C2.11549 -5.83259 1.64953 -3.04481 2.15605 -2.47297C3.73841 -0.68659 3.02838 4.42897 8.60718 7.02734C10.4743 7.89697 16.4581 7.34199 17.371 6.27625C18.2838 5.21051 18.649 0.00361061 18.3447 -2.98047C18.0404 -5.96453 17.3912 -9.64894 15.5857 -10.1057Z" fill="#28839F" fill-opacity="0.2"/>
<path d="M17.7968 7.34182C18.3531 8.34388 18.8162 10.1889 18.8314 11.3307C18.8466 12.4726 18.2989 12.6248 17.5838 12.975C16.8687 13.3252 13.5366 15.0557 12.6237 15.8373C11.6956 16.6318 11.1631 17.1314 10.9805 15.5632C10.7979 13.9951 10.5697 12.2747 10.8588 10.5999C11.1479 8.9252 11.437 8.27052 12.1977 8.04215C12.9585 7.81378 13.9094 7.86707 15.0885 7.63108C16.2505 7.39853 17.5686 6.93074 17.7968 7.34182Z" fill="#28839F"/>
<path d="M17.6598 13.5919C13.4225 15.1829 11.5372 17.6776 11.1428 18.4156C10.6762 19.2885 10.9178 21.3947 11.0515 21.76C11.1833 22.1203 12.1894 22.1591 13.0801 21.9681C14.3582 21.6941 16.6708 21.3997 17.4924 21.2982C18.314 21.1967 18.8111 20.202 18.8516 19.2682C18.8922 18.3344 18.9226 15.391 18.8516 14.8023C18.7806 14.2136 18.4254 13.3044 17.6598 13.5919Z" fill="#28839F"/>
<path d="M17.695 21.9285C16.485 21.7969 12.6741 22.5984 11.9945 22.9232C11.3149 23.248 10.7773 23.8976 10.757 24.7502C10.7368 25.6028 10.9802 27.2471 11.2033 27.7343C11.4265 28.2215 12.1771 28.668 13.232 28.7087C14.2869 28.7492 16.4778 28.9117 17.4516 28.7696C18.4253 28.6274 18.6586 27.6734 18.7297 26.5975C18.8007 25.5216 18.8514 24.0904 18.7499 23.1262C18.6485 22.162 18.1616 21.9793 17.695 21.9285Z" fill="#28839F"/>
<path d="M9.13403 7.59506C8.26948 7.44077 5.8802 6.04092 4.99558 5.40268C3.61854 4.40919 3.99213 9.06848 6.82138 9.01605C7.91684 8.99575 8.78917 8.4299 9.21518 8.20913C9.64119 7.98837 9.53216 7.66612 9.13403 7.59506Z" fill="#28839F" fill-opacity="0.2"/>
<path d="M4.81457 9.2951C4.90206 10.0563 5.09514 10.6085 5.46754 11.2832C5.89609 12.0597 8.53334 10.2124 8.70951 9.77849C8.8932 9.32602 8.3002 8.95635 7.70899 9.12763C6.90191 9.36143 5.8758 9.21898 5.33187 8.8041C4.7816 8.38437 4.77112 8.91696 4.81457 9.2951Z" fill="#28839F" fill-opacity="0.2"/>
<path d="M8.85018 10.164C8.40507 10.5497 7.53155 11.1333 6.65923 11.5393C5.85156 11.9152 5.90356 12.2853 6.12164 12.5695C6.33972 12.8537 7.70398 13.6149 8.20101 13.8382C8.69803 14.0615 9.51962 13.8788 9.67685 13.4018C9.94272 12.595 9.77138 9.36554 8.85018 10.164Z" fill="#28839F" fill-opacity="0.2"/>
<path d="M5.09739 15.5742C5.27998 16.1324 6.48702 16.9546 7.21734 17.4215C7.94765 17.8884 8.95691 18.4314 9.29671 18.1624C9.63651 17.8934 9.64665 15.3255 9.39814 14.7622C9.14963 14.1989 8.59682 14.2953 7.93751 14.0821C7.24108 13.857 7.06167 13.4808 6.29431 13.4173C5.68064 13.3666 4.84359 14.7981 5.09739 15.5742Z" fill="#28839F" fill-opacity="0.2"/>
<path d="M6.15706 17.071C6.60042 17.3853 8.8653 18.5935 9.26089 18.8371C9.65648 19.0807 9.85428 19.9333 9.97599 20.9229C10.0977 21.9125 10.0233 23.0801 9.61083 23.2371C8.53058 23.6482 5.76056 20.643 5.40391 20.2378C4.95508 19.7278 4.86379 18.3727 4.83336 17.7257C4.79308 16.8692 5.42674 16.5534 6.15706 17.071Z" fill="#28839F" fill-opacity="0.2"/>
<path d="M6.11137 21.4556C6.8721 22.2929 8.67508 23.4729 9.10869 23.8459C9.54231 24.2189 9.57274 25.6805 9.56514 26.358C9.55753 27.0355 8.88047 27.5607 8.42402 27.4389C7.96758 27.3171 5.6473 25.0867 5.3354 24.6985C5.0235 24.3102 4.94743 22.3005 5.07675 21.6687C5.20608 21.0369 5.59009 20.8818 6.11137 21.4556Z" fill="#28839F" fill-opacity="0.2"/>
<path d="M17.0459 29.621C15.6259 29.6104 12.7756 29.4586 12.096 29.3571C11.4164 29.2556 10.8281 29.9864 10.9803 30.9405C11.1324 31.8946 11.7106 35.6906 12.9278 39.5273C14.145 43.3639 15.0376 45.739 16.2345 46.8149C17.4314 47.8908 17.7154 49.1494 18.3138 49.058C18.9123 48.9667 18.9148 46.5536 18.9224 45.602C18.929 44.7872 19.0036 31.9808 18.7931 31.5647C18.5733 31.13 18.1389 30.8529 17.884 30.5979C17.6118 30.3255 17.7255 29.626 17.0459 29.621Z" fill="#28839F"/>
<path d="M5.64502 25.4186C6.31026 26.174 7.82582 27.4993 8.44456 28.0575C9.0633 28.6158 9.84432 30.8995 10.0878 31.9957C10.3312 33.0919 10.2704 34.5129 9.94577 35.6497C9.62118 36.7865 10.0269 37.3549 9.82405 38.2886C9.62118 39.2224 8.52571 39.872 8.0794 39.1818C7.6331 38.4916 5.90875 36.3399 4.83357 35.7309C3.75837 35.1219 4.0221 33.7618 4.30611 32.7265C4.59012 31.6912 3.90038 30.3514 4.10325 28.3417C4.30611 26.3321 4.54447 25.3907 4.69662 25.0481C4.84878 24.7055 5.19364 24.906 5.64502 25.4186Z" fill="#28839F" fill-opacity="0.2"/>
<path d="M2.20225 -0.386872C2.34443 2.23164 2.04028 6.80481 2.11505 7.75875C2.1962 8.79403 3.04822 12.6104 3.45396 13.9705C3.85969 15.3306 3.89012 16.5841 4.16399 16.5993C4.43785 16.6145 5.05659 13.463 5.11745 12.4277C5.17831 11.3924 4.10313 6.82495 3.90026 5.20098C3.69739 3.57699 2.8479 0.278277 2.59686 -0.391622C2.25141 -1.3134 2.12056 -1.89153 2.20225 -0.386872Z" fill="#28839F" fill-opacity="0.2"/>
<path d="M4.88404 38.2685C5.57012 42.0132 5.92613 44.3682 6.65911 47.444C7.28799 50.083 8.27189 54.417 9.15436 57.1879C10.0368 59.9589 11.68 64.3741 12.5321 67.3886C13.3841 70.4031 14.6926 78.5941 14.8143 79.1117C14.936 79.6294 15.1186 76.6148 15.3012 75.0923C15.4837 73.5699 15.2403 69.7028 14.6926 67.1145C14.1448 64.5263 13.3232 59.9284 12.0756 57.0052C9.61031 51.229 6.95026 40.5944 6.18238 38.8166C6.0108 38.4194 4.71668 37.355 4.88404 38.2685Z" fill="#28839F" fill-opacity="0.2"/>
<path d="M3.33249 36.747C2.78476 38.4319 2.06458 41.4768 2.09501 42.8775C2.12544 44.2782 1.37992 48.7086 0.969104 50.429C0.558307 52.1494 0.482231 55.8186 0.390943 56.5494C0.299655 57.2802 0.999533 55.6664 1.3647 54.1135C1.72985 52.5605 3.23612 47.9169 3.70779 46.4401C4.17945 44.9633 5.09235 41.69 4.92498 40.472C4.75762 39.254 4.45332 38.0512 4.52939 37.5793C4.60546 37.1073 4.34681 36.6759 4.09324 36.3714C3.83965 36.0669 3.33249 36.747 3.33249 36.747Z" fill="#28839F" fill-opacity="0.2"/>
<path d="M6.76068 39.7461C6.93496 40.4437 8.18074 44.4506 8.39375 44.9987C8.60677 45.5468 8.97192 43.6589 8.82991 42.3902C8.717 41.3813 8.6372 40.9083 7.73444 39.9542C6.83169 39.0001 6.59839 39.0965 6.76068 39.7461Z" fill="#28839F" fill-opacity="0.2"/>
<path d="M9.03332 42.725C9.06076 44.5368 8.97246 45.846 8.9116 46.3484C8.85074 46.8509 9.15504 48.4952 9.52019 48.9671C9.88536 49.4391 10.5396 48.6931 10.9504 47.2315C11.3612 45.7699 11.3764 44.628 11.0721 44.0038C10.7678 43.3796 9.87014 42.4813 9.48976 42.1159C9.10939 41.7506 9.01811 41.7201 9.03332 42.725Z" fill="#28839F" fill-opacity="0.2"/>
<path d="M11.4671 45.3334C11.4993 46.2343 11.2845 47.5766 10.7976 48.5611C10.3108 49.5457 10.047 49.8501 10.1485 50.6317C10.2499 51.4132 10.5745 52.6008 10.7976 52.9662C11.0208 53.3316 11.9946 51.3929 12.3191 50.5099C12.6437 49.6269 13.161 47.9014 13.1712 47.201C13.1813 46.5007 12.4611 45.7496 12.096 45.3132C11.7308 44.8767 11.4367 44.4809 11.4671 45.3334Z" fill="#28839F" fill-opacity="0.2"/>
<path d="M10.4734 69.6733C10.5343 68.2117 11.2258 64.2073 10.7726 63.0606C8.31796 56.8489 7.37465 53.0173 5.52613 44.2499C5.25648 42.971 4.99097 43.7555 4.79416 44.306C4.28071 45.7421 3.90291 47.6584 3.57599 48.7543C3.17025 50.1144 2.91668 53.1696 2.65295 54.6311C2.38923 56.0927 1.99364 59.9192 2.01393 62.4364C2.03421 64.9536 2.68338 68.8816 3.27169 70.5056C3.86001 72.1296 5.3612 75.8241 5.99008 77.7729C7.43699 82.2565 8.97791 77.3464 8.98106 77.3328C9.45482 75.8306 10.4203 70.9494 10.4734 69.6733Z" fill="#28839F" fill-opacity="0.2"/>
<path d="M41.1671 1.67463C41.1962 1.69135 41.2328 1.67445 41.2385 1.64139C41.6515 -0.724375 44.7075 -3.78094 42.688 -7.91304C40.6493 -12.0846 35.7805 -13.4853 34.472 -13.2722C33.2314 -13.0701 29.9668 -10.9247 28.4383 -10.469C28.3887 -10.4542 28.395 -10.3803 28.4466 -10.375C30.6345 -10.1511 32.4704 -10.0851 34.6411 -8.55755C36.8973 -6.96979 36.4428 -4.95941 36.9296 -3.40648C37.4126 -1.86595 38.6789 0.243905 41.1671 1.67463Z" fill="#28839F" fill-opacity="0.2"/>
<path d="M43.6016 -6.45215C43.9211 -4.62516 43.5261 -3.005 42.8104 -1.18434C42.1934 0.385314 41.5932 1.32776 41.6237 2.07377C42.2627 2.65232 43.982 4.7838 44.3623 5.27099C44.1341 3.94643 44.3928 1.95197 44.5754 -0.240412C44.7579 -2.43278 44.5601 -4.50336 43.6016 -6.45215Z" fill="#28839F" fill-opacity="0.2"/>
<path d="M36.8835 -2.31055C37.5327 0.105124 40.2739 1.27236 42.5054 8.67163C43.1426 10.7846 43.9306 17.4714 43.9052 20.0801C43.8957 21.0548 43.1241 19.8162 43.1241 19.8162C43.1241 19.8162 37.5961 11.879 36.9063 7.90024C36.2166 3.92149 36.8835 -2.31055 36.8835 -2.31055Z" fill="#28839F" fill-opacity="0.2"/>
<path d="M39.3003 1.01855C39.9945 1.82737 42.3838 6.2153 43.0315 8.84498C43.5974 11.1427 44.5051 16.5005 44.571 20.919C44.5726 21.0275 44.7233 21.0533 44.7623 20.952C47.1996 14.623 45.7202 8.16947 44.7878 6.62637C43.9978 5.31887 42.1911 2.50044 39.3003 1.01855Z" fill="#28839F" fill-opacity="0.2"/>
<path d="M42.303 19.6336C42.6643 20.2866 41.0858 21.7753 40.4772 24.5868C40.3732 25.0671 39.2194 23.2368 39.3411 20.6486C39.4628 18.0604 36.9828 11.9096 36.785 10.2653C36.5872 8.621 36.6633 8.46875 36.6633 8.46875C39.0004 14.3802 40.2134 15.8579 42.303 19.6336Z" fill="#28839F" fill-opacity="0.2"/>
<path d="M46.1982 16.7111C45.8062 18.7843 45.2244 21.8266 45.7113 23.8566C46.1982 25.8866 50.2961 40.6242 50.9047 42.4918C51.5133 44.3594 51.3915 42.4309 51.1887 40.7054C50.9858 38.9799 51.1481 29.5405 50.7424 26.3738C50.3366 23.207 48.9977 19.2891 47.8211 17.8884C46.6445 16.4877 46.3402 15.96 46.1982 16.7111Z" fill="#28839F" fill-opacity="0.2"/>
<path d="M43.1653 20.7908C44.983 22.155 45.3359 24.0895 45.7619 25.5816C46.188 27.0736 49.733 40.0299 50.0525 41.3849C50.3721 42.74 50.4786 44.3538 49.9917 43.7296C49.5048 43.1054 45.0468 30.0881 43.6927 27.2563C42.3386 24.4245 41.6631 23.5127 41.9177 22.3539C42.1205 21.4302 42.4958 20.2884 43.1653 20.7908Z" fill="#28839F" fill-opacity="0.2"/>
<path d="M41.8563 24.5052C42.6519 25.8485 47.07 37.6594 47.8206 40.5826C48.5712 43.5058 48.5915 44.6832 48.1046 44.399C47.6177 44.1148 42.1809 31.7319 41.3289 29.2553C40.4769 26.7788 40.6696 25.7638 40.9536 24.83C41.2376 23.8962 41.5318 23.9571 41.8563 24.5052Z" fill="#28839F" fill-opacity="0.2"/>
<path d="M22.8075 -10.1057C24.6238 -10.5652 28.4107 -10.162 30.0295 -9.94329C32.8088 -9.56774 34.897 -8.35856 35.6286 -7.02012C36.2778 -5.83259 36.7437 -3.04481 36.2372 -2.47297C34.6549 -0.68659 35.3649 4.42897 29.7861 7.02734C27.919 7.89697 21.9352 7.34199 21.0223 6.27625C20.1094 5.21051 19.7443 0.00361061 20.0486 -2.98047C20.3529 -5.96453 21.002 -9.64894 22.8075 -10.1057Z" fill="#28839F" fill-opacity="0.2"/>
<path d="M20.5964 7.34182C20.0401 8.34388 19.577 10.1889 19.5618 11.3307C19.5466 12.4726 20.0943 12.6248 20.8095 12.975C21.5245 13.3252 24.8566 15.0557 25.7695 15.8373C26.6976 16.6318 27.2301 17.1314 27.4127 15.5632C27.5953 13.9951 27.8235 12.2747 27.5344 10.5999C27.2453 8.9252 26.9563 8.27052 26.1955 8.04215C25.4348 7.81378 24.4838 7.86707 23.3047 7.63108C22.1427 7.39853 20.8247 6.93074 20.5964 7.34182Z" fill="#28839F"/>
<path d="M20.733 13.5919C24.9703 15.1829 26.8555 17.6776 27.25 18.4156C27.7166 19.2885 27.475 21.3947 27.3413 21.76C27.2094 22.1203 26.2034 22.1591 25.3126 21.9681C24.0346 21.6941 21.7219 21.3997 20.9003 21.2982C20.0787 21.1967 19.5817 20.202 19.5411 19.2682C19.5006 18.3344 19.4701 15.391 19.5411 14.8023C19.6121 14.2136 19.9673 13.3044 20.733 13.5919Z" fill="#28839F"/>
<path d="M20.6975 21.9285C21.9075 21.7969 25.7184 22.5984 26.398 22.9232C27.0776 23.248 27.6152 23.8976 27.6355 24.7502C27.6558 25.6028 27.4123 27.2471 27.1892 27.7343C26.966 28.2215 26.2154 28.668 25.1605 28.7087C24.1056 28.7492 21.9147 28.9117 20.9409 28.7696C19.9672 28.6274 19.7339 27.6734 19.6629 26.5975C19.5919 25.5216 19.5411 24.0904 19.6426 23.1262C19.744 22.162 20.2309 21.9793 20.6975 21.9285Z" fill="#28839F"/>
<path d="M29.2585 7.59506C30.123 7.44077 32.5123 6.04092 33.3969 5.40268C34.774 4.40919 34.4004 9.06848 31.5711 9.01605C30.4757 8.99575 29.6034 8.4299 29.1773 8.20913C28.7513 7.98837 28.8604 7.66612 29.2585 7.59506Z" fill="#28839F" fill-opacity="0.2"/>
<path d="M33.5784 9.2951C33.4909 10.0563 33.2978 10.6085 32.9254 11.2832C32.4968 12.0597 29.8596 10.2124 29.6834 9.77849C29.4997 9.32602 30.0927 8.95635 30.6839 9.12763C31.491 9.36143 32.5171 9.21898 33.061 8.8041C33.6113 8.38437 33.6218 8.91696 33.5784 9.2951Z" fill="#28839F" fill-opacity="0.2"/>
<path d="M29.5429 10.164C29.988 10.5497 30.8615 11.1333 31.7338 11.5393C32.5415 11.9152 32.4895 12.2853 32.2714 12.5695C32.0533 12.8537 30.6891 13.6149 30.192 13.8382C29.695 14.0615 28.8734 13.8788 28.7162 13.4018C28.4503 12.595 28.6217 9.36554 29.5429 10.164Z" fill="#28839F" fill-opacity="0.2"/>
<path d="M33.2954 15.5742C33.1128 16.1324 31.9058 16.9546 31.1754 17.4215C30.4451 17.8884 29.4359 18.4314 29.0961 18.1624C28.7563 17.8934 28.7461 15.3255 28.9946 14.7622C29.2432 14.1989 29.796 14.2953 30.4553 14.0821C31.1517 13.857 31.3311 13.4808 32.0985 13.4173C32.7122 13.3666 33.5492 14.7981 33.2954 15.5742Z" fill="#28839F" fill-opacity="0.2"/>
<path d="M32.2352 17.071C31.7918 17.3853 29.527 18.5935 29.1314 18.8371C28.7358 19.0807 28.538 19.9333 28.4163 20.9229C28.2946 21.9125 28.369 23.0801 28.7814 23.2371C29.8617 23.6482 32.6317 20.643 32.9883 20.2378C33.4372 19.7278 33.5285 18.3727 33.5589 17.7257C33.5992 16.8692 32.9655 16.5534 32.2352 17.071Z" fill="#28839F" fill-opacity="0.2"/>
<path d="M32.2814 21.4556C31.5206 22.2929 29.7177 23.4729 29.284 23.8459C28.8504 24.2189 28.82 25.6805 28.8276 26.358C28.8352 27.0355 29.5123 27.5607 29.9687 27.4389C30.4251 27.3171 32.7454 25.0867 33.0573 24.6985C33.3692 24.3102 33.4453 22.3005 33.316 21.6687C33.1866 21.0369 32.8026 20.8818 32.2814 21.4556Z" fill="#28839F" fill-opacity="0.2"/>
<path d="M21.3468 29.621C22.7668 29.6104 25.6171 29.4586 26.2967 29.3571C26.9763 29.2556 27.5646 29.9864 27.4124 30.9405C27.2603 31.8946 26.6821 35.6906 25.4649 39.5273C24.2477 43.3639 23.3551 45.739 22.1582 46.8149C20.9613 47.8908 20.6773 49.1494 20.0788 49.058C19.4804 48.9667 19.4779 46.5536 19.4703 45.602C19.4637 44.7872 19.3891 31.9808 19.5996 31.5647C19.8194 31.13 20.2538 30.8529 20.5087 30.5979C20.7809 30.3255 20.6672 29.626 21.3468 29.621Z" fill="#28839F"/>
<path d="M32.7478 25.4186C32.0825 26.174 30.567 27.4993 29.9482 28.0575C29.3295 28.6158 28.5485 30.8995 28.305 31.9957C28.0616 33.0919 28.1224 34.5129 28.447 35.6497C28.7716 36.7865 28.3659 37.3549 28.5687 38.2886C28.7716 39.2224 29.8671 39.872 30.3134 39.1818C30.7597 38.4916 32.484 36.3399 33.5592 35.7309C34.6344 35.1219 34.3707 33.7618 34.0867 32.7265C33.8027 31.6912 34.4924 30.3514 34.2895 28.3417C34.0867 26.3321 33.8483 25.3907 33.6962 25.0481C33.544 24.7055 33.1991 24.906 32.7478 25.4186Z" fill="#28839F" fill-opacity="0.2"/>
<path d="M36.1906 -0.386872C36.0485 2.23164 36.3526 6.80481 36.2779 7.75875C36.1967 8.79403 35.3447 12.6104 34.9389 13.9705C34.5332 15.3306 34.5028 16.5841 34.2289 16.5993C33.955 16.6145 33.3363 13.463 33.2754 12.4277C33.2146 11.3924 34.2898 6.82495 34.4926 5.20098C34.6955 3.57699 35.545 0.278277 35.796 -0.391622C36.1415 -1.3134 36.2723 -1.89153 36.1906 -0.386872Z" fill="#28839F" fill-opacity="0.2"/>
<path d="M33.5083 38.2685C32.8223 42.0132 32.4662 44.3682 31.7333 47.444C31.1044 50.083 30.1205 54.417 29.238 57.1879C28.3556 59.9589 26.7123 64.3741 25.8603 67.3886C25.0083 70.4031 23.6998 78.5941 23.5781 79.1117C23.4564 79.6294 23.2738 76.6148 23.0912 75.0923C22.9086 73.5699 23.1521 69.7028 23.6998 67.1145C24.2475 64.5263 25.0691 59.9284 26.3167 57.0052C28.7821 51.229 31.4421 40.5944 32.21 38.8166C32.3816 38.4194 33.6757 37.355 33.5083 38.2685Z" fill="#28839F" fill-opacity="0.2"/>
<path d="M35.0605 36.747C35.6082 38.4319 36.3284 41.4768 36.2979 42.8775C36.2675 44.2782 37.013 48.7086 37.4238 50.429C37.8347 52.1494 37.9107 55.8186 38.002 56.5494C38.0933 57.2802 37.3934 55.6664 37.0283 54.1135C36.6631 52.5605 35.1568 47.9169 34.6852 46.4401C34.2135 44.9633 33.3006 41.69 33.468 40.472C33.6353 39.254 33.9396 38.0512 33.8636 37.5793C33.7875 37.1073 34.0461 36.6759 34.2997 36.3714C34.5533 36.0669 35.0605 36.747 35.0605 36.747Z" fill="#28839F" fill-opacity="0.2"/>
<path d="M31.6045 39.8094C31.4302 40.5069 30.22 44.354 30.007 44.9021C29.7939 45.4502 29.4212 43.6587 29.5632 42.39C29.6761 41.3811 29.7559 40.9081 30.6587 39.954C31.5614 38.9999 31.7668 39.1598 31.6045 39.8094Z" fill="#28839F" fill-opacity="0.2"/>
<path d="M29.3604 42.725C29.3329 44.5368 29.4212 45.846 29.4821 46.3484C29.543 46.8509 29.2387 48.4952 28.8735 48.9671C28.5083 49.4391 27.8541 48.6931 27.4433 47.2315C27.0325 45.7699 27.0173 44.628 27.3216 44.0038C27.6259 43.3796 28.5236 42.4813 28.9039 42.1159C29.2843 41.7506 29.3756 41.7201 29.3604 42.725Z" fill="#28839F" fill-opacity="0.2"/>
<path d="M26.9254 45.3334C26.8932 46.2343 27.108 47.5766 27.5948 48.5611C28.0817 49.5457 28.3454 49.8501 28.244 50.6317C28.1426 51.4132 27.818 52.6008 27.5948 52.9662C27.3717 53.3316 26.3979 51.3929 26.0733 50.5099C25.7487 49.6269 25.2314 47.9014 25.2213 47.201C25.2112 46.5007 25.9313 45.7496 26.2965 45.3132C26.6616 44.8767 26.9558 44.4809 26.9254 45.3334Z" fill="#28839F" fill-opacity="0.2"/>
<path d="M27.9196 69.6726C27.8587 68.211 27.1013 64.2422 27.5544 63.0954C30.0091 56.8837 30.8205 53.0112 32.8668 44.2492C33.1641 42.9764 33.402 43.7548 33.5988 44.3053C34.1123 45.7414 34.4393 47.7288 34.7663 48.8247C35.172 50.1848 35.456 53.0775 35.7197 54.5391C35.9835 56.0007 36.3486 59.8475 36.3283 62.3647C36.3081 64.8818 35.6893 68.82 35.101 70.444C34.5127 72.068 33.0318 75.8234 32.4029 77.7722C30.9217 82.3622 29.4151 77.3457 29.4119 77.3321C28.9382 75.8299 27.9727 70.9487 27.9196 69.6726Z" fill="#28839F" fill-opacity="0.2"/>
</g>
<defs>
<clipPath id="clip0_4050_5131">
<rect width="61" height="48" fill="white"/>
</clipPath>
</defs>
</svg>
