<svg width="61" height="48" viewBox="0 0 61 48" fill="none" xmlns="http://www.w3.org/2000/svg">
<g clip-path="url(#clip0_4089_13878)">
<g clip-path="url(#clip1_4089_13878)">
<path d="M44.808 106.241C44.6244 106.241 44.4761 106.133 44.3327 106.03C44.2137 105.944 44.1014 105.862 43.9936 105.862C43.9749 105.862 43.9568 105.865 43.9381 105.869C43.8153 105.901 43.7477 105.954 43.6695 106.015C43.5589 106.102 43.4335 106.2 43.1792 106.2C43.1624 106.2 43.1449 106.199 43.1267 106.198C42.8895 106.187 42.7413 106.087 42.6105 105.998C42.49 105.917 42.3949 105.853 42.2359 105.853C42.2264 105.853 42.2166 105.853 42.2066 105.853C42.0397 105.861 41.9434 105.918 41.8215 105.989C41.6689 106.079 41.496 106.18 41.1731 106.198C41.1507 106.2 41.1286 106.2 41.1068 106.2C40.8053 106.2 40.5461 106.085 40.3174 105.983C40.1252 105.898 39.9437 105.817 39.7627 105.813L39.7478 105.813C39.5631 105.813 39.336 105.888 39.0956 105.967C38.7967 106.066 38.458 106.178 38.1065 106.178L38.0798 106.178C37.2324 106.165 36.7509 105.728 36.6486 104.881C36.5943 104.432 36.7434 103.945 36.8876 103.475C37.0544 102.931 37.2268 102.369 37.0979 101.853C36.8256 100.763 36.6691 99.3603 36.7085 98.3634C36.7356 97.6792 36.523 96.7572 36.3355 95.9439C36.2452 95.5524 36.1599 95.1826 36.1019 94.8499C35.9806 94.1556 36.4886 92.9376 36.9368 91.863C37.1822 91.2746 37.414 90.7189 37.4607 90.4206C37.5617 89.7755 37.4463 86.2555 37.3843 84.3644L37.3752 84.0874C37.3236 83.7173 37.2718 83.3229 37.2206 82.9326C37.0812 81.8708 36.9495 80.868 36.8348 80.4386L36.7487 80.1179C36.4431 78.9823 35.9838 77.2753 35.9829 76.6776C35.8771 76.4019 35.7228 75.9928 35.5649 75.5282C35.1839 75.0586 34.9068 74.0268 34.7414 72.4602C34.4799 69.9841 34.7685 66.5067 35.068 65.0496C35.2187 64.3166 35.4544 63.4292 35.6624 62.6463C35.861 61.8987 36.0486 61.1927 36.1221 60.7704C36.1979 60.336 36.2148 60.0903 36.225 59.9435C36.2316 59.8479 36.236 59.7843 36.2548 59.7336C36.2295 59.5986 36.2022 59.4458 36.173 59.2816C36.0293 58.4761 35.8327 57.3728 35.5767 56.8023C35.2395 56.0508 34.7967 53.8111 34.6077 52.8546L34.6012 52.8222C34.541 52.5174 34.4858 52.0066 34.4371 51.304C34.3449 50.5479 34.3165 49.6385 34.2977 49.0368L34.2944 48.9329C34.2853 48.6472 34.2854 48.0758 34.3458 47.8629C34.3379 47.6833 34.3077 47.5179 34.2224 47.1806C34.1335 46.8289 34.0739 46.4488 34.0049 46.0087C33.9713 45.7947 33.9355 45.5662 33.8929 45.32C33.8489 45.1636 33.8203 45.0078 33.8085 44.8565C33.7286 44.4462 33.6689 44.2524 33.6163 44.0812C33.5541 43.879 33.5 43.7029 33.4336 43.2626C33.3463 43.1421 33.2935 42.6902 33.1415 40.9965C33.0812 40.3247 33.0188 39.63 32.9564 39.1096C32.923 38.8313 32.9031 38.4741 32.8973 38.0477C32.8382 37.9257 32.759 37.8016 32.6754 37.6707C32.5817 37.5238 32.485 37.3723 32.397 37.1966C32.0435 36.8658 31.69 35.0393 31.6326 34.5415C31.5032 33.4192 30.6819 28.4697 30.2073 26.8917C29.6655 25.0905 30.0365 21.4604 30.0806 21.0524C30.0955 20.9138 30.1093 20.7766 30.1228 20.6418C30.1805 20.0654 30.2351 19.5197 30.3665 19.1003C30.2286 18.8427 29.5884 18.7272 29.2776 18.7272H29.1153C28.8069 18.7272 28.1741 18.841 28.0271 19.1024C28.1581 19.5218 28.2127 20.0671 28.2703 20.6429C28.2837 20.7774 28.2975 20.9142 28.3124 21.0525C28.3565 21.4605 28.7275 25.0908 28.1856 26.8917C27.7111 28.4697 26.8897 33.4192 26.7603 34.5415C26.7029 35.0393 26.3494 36.8658 25.9961 37.1966C25.908 37.3723 25.8113 37.5237 25.7177 37.6704C25.6341 37.8014 25.5548 37.9256 25.4957 38.0477C25.4899 38.4736 25.47 38.8307 25.4366 39.1096C25.3742 39.6301 25.3118 40.325 25.2515 40.997C25.0995 42.6904 25.0467 43.1422 24.9594 43.2627C24.893 43.7029 24.8388 43.879 24.7766 44.0812C24.7241 44.2523 24.6645 44.4461 24.5845 44.8565C24.5727 45.0076 24.5441 45.1637 24.497 45.3332C24.4575 45.5659 24.4218 45.7941 24.3882 46.008C24.3192 46.4484 24.2596 46.8287 24.1706 47.1807C24.0995 47.4617 24.068 47.6185 24.0542 47.7623C24.088 47.9083 24.0922 48.2025 24.0964 48.6885L24.0987 48.9271C24.1056 49.5692 24.0694 50.6191 23.944 51.4651C23.8989 52.0812 23.8473 52.5412 23.7917 52.8221L23.7859 52.8513C23.5968 53.8084 23.1539 56.0499 22.8162 56.8024C22.5602 57.3729 22.3635 58.4765 22.2199 59.2823C22.1907 59.4462 22.1635 59.5989 22.1383 59.7336C22.157 59.7842 22.1614 59.8479 22.168 59.9435C22.1781 60.0902 22.1951 60.3359 22.2709 60.7704C22.3445 61.1928 22.5321 61.8993 22.7308 62.6472C22.9387 63.4299 23.1744 64.3169 23.325 65.0496C23.6245 66.5069 23.9131 69.9843 23.6516 72.4602C23.5312 73.5999 23.2819 75.0709 22.7763 75.651C22.6173 76.126 22.4822 76.489 22.4101 76.6776C22.4092 77.2757 21.9495 78.984 21.6436 80.1203L21.5582 80.4386C21.4436 80.8677 21.312 81.8698 21.1727 82.9307C21.1214 83.3216 21.0695 83.7166 21.0178 84.0873L21.0086 84.3693C20.9466 86.2589 20.8314 89.776 20.9323 90.4206C20.979 90.7189 21.2108 91.2746 21.4561 91.8628C21.9044 92.9375 22.4124 94.1556 22.2911 94.8499C22.233 95.1826 22.1478 95.5524 22.0575 95.9439C21.87 96.7573 21.6574 97.6792 21.6844 98.3634C21.724 99.3602 21.5675 100.763 21.2951 101.853C21.1661 102.369 21.3386 102.931 21.5054 103.475C21.6496 103.945 21.7987 104.432 21.7444 104.881C21.6421 105.728 21.1605 106.165 20.3132 106.178L20.2865 106.178C19.9349 106.178 19.5962 106.066 19.2974 105.967C19.0569 105.888 18.8299 105.813 18.6451 105.813L18.6303 105.813C18.4493 105.817 18.2678 105.898 18.0756 105.983C17.8469 106.085 17.5877 106.2 17.2862 106.2C17.2643 106.2 17.2422 106.2 17.2199 106.198C16.8969 106.18 16.7241 106.079 16.5715 105.989C16.4496 105.918 16.3533 105.861 16.1864 105.853C16.1763 105.853 16.1666 105.853 16.1571 105.853C15.9981 105.853 15.903 105.917 15.7825 105.998C15.6517 106.087 15.5035 106.187 15.2663 106.198C15.2481 106.199 15.2306 106.2 15.2139 106.2C14.9595 106.2 14.8341 106.102 14.7235 106.015C14.6452 105.954 14.5776 105.901 14.4548 105.869C14.4362 105.865 14.418 105.862 14.3993 105.862C14.2916 105.862 14.1793 105.944 14.0603 106.03C13.9169 106.133 13.7686 106.241 13.585 106.241C13.5711 106.241 13.557 106.24 13.5429 106.239C13.311 106.217 13.1907 106.12 13.0845 106.034C13.0195 105.981 12.9634 105.936 12.8806 105.906C12.8701 105.903 12.8586 105.901 12.8454 105.901C12.7711 105.901 12.6617 105.957 12.5459 106.018C12.3732 106.107 12.1581 106.219 11.9123 106.219C11.3844 106.219 11.1141 105.956 10.9484 105.283C10.782 104.606 10.9283 103.508 11.4613 102.841C11.5989 102.669 11.8179 102.406 12.0715 102.102C12.7197 101.326 13.6075 100.262 13.9899 99.6841C14.5234 98.8783 14.7397 97.4361 14.4265 96.7725C14.0263 95.9245 13.9423 95.1324 14.1769 94.4185L14.256 94.1796C14.4752 93.5201 14.7019 92.8382 14.7999 92.0091C14.8804 91.3275 14.8442 89.6747 14.7763 88.4223C14.7126 88.1407 14.6608 87.8442 14.6225 87.5407C14.4039 85.8086 13.4082 78.3075 12.8902 75.9824C12.4031 73.7957 11.6315 69.7881 11.5027 67.7093C11.3889 65.8745 11.5194 64.6794 11.5973 63.9653L11.6148 63.8041C11.6415 63.5523 11.7136 63.0655 11.7631 62.8386C11.86 62.3436 11.9958 61.8844 12.1156 61.4792C12.1857 61.2419 12.252 61.0176 12.3027 60.8125C12.3345 60.5636 12.4135 59.9963 12.4968 59.7995L12.5082 59.7416C12.5932 59.3099 12.6894 58.821 12.7386 58.3669C12.737 58.0803 12.7441 57.8113 12.7602 57.5454C12.6752 56.6107 12.6402 53.0807 12.7503 51.467C12.8223 50.4118 13.106 48.8521 13.3338 47.5987C13.4554 46.9297 13.5605 46.3519 13.5928 46.0615C13.6322 45.7062 13.6116 45.2035 13.5319 44.5669L13.5308 44.5641C12.5585 42.1696 11.5721 39.6621 11.1303 37.6406C10.9084 36.6258 10.8657 34.8474 10.8245 33.1276C10.7862 31.5334 10.7466 29.8849 10.5616 28.9496C10.188 27.0608 10.1352 23.7931 10.1897 22.1771C10.1702 21.8139 10.227 21.0759 10.2597 20.752C10.2396 20.6892 10.2461 20.6104 10.2558 20.5326C10.2814 20.328 10.3063 19.877 10.3378 19.306C10.4186 17.845 10.5406 15.6371 10.8366 14.3975C11.2348 12.7301 11.9896 8.29398 11.9588 6.88053C11.9276 5.44414 12.6613 2.37109 13.2029 0.704918C13.3148 0.232147 13.5139 -0.507057 13.6895 -1.15923C13.7846 -1.51277 13.8716 -1.83579 13.9315 -2.06772C13.968 -2.51348 14.0806 -2.96445 14.1749 -3.30836C14.3039 -3.77859 14.2154 -4.34424 14.113 -4.9992C14.0007 -5.71738 13.8609 -6.61126 13.9678 -7.67076C14.1452 -9.42791 14.3413 -10.3083 14.4745 -10.7374C14.5184 -10.8951 14.574 -11.0572 14.6329 -11.2288C14.7649 -11.6133 14.9013 -12.0108 14.9275 -12.4379C14.8642 -13.1059 14.8654 -13.8768 14.9302 -14.2827C14.935 -15.1524 14.9297 -16.1295 14.8551 -16.7991C14.8288 -16.9295 14.8038 -17.0851 14.7824 -17.2502C14.6506 -17.8552 14.3871 -18.472 14.1946 -18.9224C14.1314 -19.0703 14.0758 -19.2005 14.0314 -19.3138C13.8656 -19.4341 13.8006 -19.7819 13.6837 -20.4074C13.5997 -20.8565 13.4952 -21.4154 13.3237 -21.9903C12.9879 -23.116 12.3139 -26.0512 12.0645 -27.5892C12.0296 -27.6004 11.9963 -27.6064 11.9672 -27.6064C11.9381 -27.6064 11.9247 -27.6003 11.9213 -27.5985C11.9064 -27.5905 11.887 -27.5749 11.8681 -27.5319C11.9147 -27.2497 11.8125 -26.2944 11.7431 -25.7177C11.6687 -25.0989 11.2814 -23.8671 10.8331 -22.4408C10.0664 -20.002 9.11217 -16.9668 9.18785 -15.3571C9.28918 -13.2023 8.54136 -11.5881 8.1499 -11.268C8.07435 -10.882 8.01202 -10.4694 7.95162 -10.0698C7.89082 -9.66717 7.82789 -9.25084 7.75074 -8.85481C7.66243 -8.24055 7.47942 -7.53333 7.19249 -6.6993C6.90404 -5.86069 6.05415 -3.79096 4.91879 -1.16209C4.76822 -0.674561 4.60097 -0.139908 4.42406 0.42556C3.2834 4.07198 1.72124 9.06599 1.68196 10.839C1.67073 11.3472 1.95534 12.1247 2.4254 13.3448C2.94696 14.6987 2.85672 17.3576 1.66209 19.6184C1.15388 20.5803 0.703823 22.0508 0.268517 23.4729C-0.154229 24.8543 -0.553664 26.1591 -0.94805 26.7459C-1.18288 27.0953 -1.42595 27.2725 -1.67049 27.2725C-1.92054 27.2725 -2.10859 27.091 -2.23577 26.9047C-2.43353 27.9165 -2.89183 29.7305 -3.65355 29.8691C-3.70811 29.8791 -3.76179 29.8841 -3.8131 29.8841C-4.18827 29.8841 -4.46151 29.6246 -4.59893 29.1552C-4.83616 29.9643 -5.27073 31.049 -5.89536 31.049L-5.91556 31.0487C-6.79481 31.0165 -6.82074 29.8615 -6.78073 28.56C-6.85037 28.5989 -6.92924 28.619 -7.01529 28.619C-7.59114 28.619 -8.28322 27.7539 -8.41246 26.8723C-8.73228 24.6905 -8.52038 22.0768 -8.36567 20.1683C-8.28959 19.2305 -8.21124 18.2636 -8.2757 17.9902C-8.39425 18.0998 -8.54542 18.2957 -8.7182 18.5195C-9.04267 18.9398 -9.44642 19.4629 -9.92001 19.7888C-10.3043 20.0533 -10.7623 20.1931 -11.2445 20.1931C-12.0014 20.1931 -12.6675 19.8512 -12.8284 19.3801C-12.8892 19.2021 -12.924 18.8515 -12.4742 18.5032C-11.3021 17.5955 -9.05551 14.3164 -8.25691 12.348C-7.72438 11.0353 -6.74345 10.6003 -5.9553 10.2506C-5.48477 10.0419 -5.07842 9.86172 -4.87815 9.54521C-4.41526 8.81365 -3.71416 5.25102 -2.79436 -1.04361C-2.75735 -4.45982 -2.70279 -7.93648 -2.48411 -9.64342C-2.071 -12.868 -0.71915 -16.786 0.467912 -18.1991C0.637751 -18.4012 0.789328 -18.585 0.924749 -18.7493C1.33587 -19.2478 1.59005 -19.556 1.78194 -19.6867C1.95226 -19.9149 2.09771 -20.3429 2.21453 -20.9595C1.94927 -24.9176 2.79908 -28.3022 3.48843 -29.4433L3.52517 -29.5036C3.60484 -29.7769 3.71596 -30.1248 3.83343 -30.4927L3.87469 -30.6222L3.89688 -30.7509C4.08076 -31.8182 3.944 -33.3202 3.78565 -35.0594C3.75096 -35.4405 3.71541 -35.831 3.68231 -36.2279C3.47452 -38.7226 3.78823 -40.7192 4.66956 -42.511C4.92053 -43.1206 5.39352 -43.9076 5.84505 -44.4649C7.84591 -47.9725 11.898 -49.4286 13.6248 -49.4286C13.7374 -49.4286 13.8391 -49.4218 13.9276 -49.4084C13.9696 -49.4106 14.0138 -49.4115 14.0603 -49.4115C14.2427 -49.4115 14.4598 -49.3963 14.6898 -49.3803C14.9692 -49.3608 15.2859 -49.3387 15.6095 -49.3386C15.759 -49.4639 16.0895 -49.5793 16.6912 -49.7825C17.1205 -49.9275 17.6549 -50.108 18.1892 -50.3312C19.434 -50.8509 20.9703 -51.8051 21.8422 -52.6C22.1112 -52.8453 22.2788 -52.9748 22.3978 -53.0277C22.4804 -53.1427 22.5682 -53.2573 22.659 -53.3758C23.0005 -53.8212 23.387 -54.3251 23.4924 -54.8429C23.4584 -55.1425 23.4465 -56.7888 23.5587 -57.8709C23.5461 -58.0441 23.5332 -58.1313 23.5247 -58.1742C23.5087 -58.2544 23.4954 -58.3358 23.4818 -58.4197C23.4192 -58.8038 23.3484 -59.239 22.9365 -59.8532C22.585 -60.3775 22.4875 -61.5959 22.4677 -62.5256C22.464 -62.7054 22.3175 -62.8516 22.1413 -62.8516C22.1183 -62.8516 22.0951 -62.8491 22.0722 -62.8441C21.9674 -62.8212 21.8577 -62.8091 21.7549 -62.8091C21.478 -62.8091 21.2492 -62.8932 21.0933 -63.0523C20.9324 -63.2163 20.8538 -63.4521 20.8595 -63.7531C20.8795 -64.805 20.6657 -65.4152 20.477 -65.9537C20.3819 -66.2252 20.2921 -66.4817 20.238 -66.7703C20.1419 -67.2832 20.0834 -67.9728 20.3503 -68.3455C20.4553 -68.4921 20.5993 -68.5794 20.7785 -68.605C20.8223 -68.6113 20.8675 -68.6144 20.9127 -68.6144C21.0613 -68.6144 21.2166 -68.5805 21.3744 -68.5135C21.396 -68.5044 21.4183 -68.4997 21.4405 -68.4997C21.4885 -68.4997 21.536 -68.5213 21.5708 -68.5588C21.6065 -68.5972 21.624 -68.6472 21.62 -68.6995C21.5044 -70.2383 21.3988 -74.0272 22.9118 -75.9685C24.7107 -78.2766 27.4774 -78.7442 28.5836 -78.8381C28.7266 -78.8502 28.8991 -78.8633 29.1375 -78.8633C29.3163 -78.8633 29.5101 -78.8556 29.7137 -78.8404C30.8401 -78.7567 33.6567 -78.3092 35.481 -75.9685C36.9939 -74.0272 36.8883 -70.2383 36.7727 -68.6994C36.7688 -68.6472 36.7862 -68.5972 36.8219 -68.5587C36.8567 -68.5212 36.9042 -68.4997 36.9522 -68.4997C36.9746 -68.4997 36.9968 -68.5044 37.0184 -68.5135C37.1762 -68.5805 37.3315 -68.6144 37.48 -68.6144C37.5252 -68.6144 37.5704 -68.6113 37.6143 -68.605C37.7934 -68.5794 37.9374 -68.4921 38.0424 -68.3455C38.3093 -67.9728 38.2508 -67.2832 38.1548 -66.7703C38.1007 -66.4817 38.0108 -66.2253 37.9157 -65.9538C37.7271 -65.4153 37.5133 -64.805 37.5333 -63.7531C37.539 -63.4521 37.4604 -63.2162 37.2995 -63.0522C37.1435 -62.8932 36.9147 -62.8091 36.6379 -62.8091C36.535 -62.8091 36.4253 -62.8212 36.3205 -62.8441C36.2976 -62.8491 36.2744 -62.8516 36.2514 -62.8516C36.0753 -62.8516 35.9288 -62.7054 35.925 -62.5256C35.9052 -61.5959 35.8078 -60.3775 35.4563 -59.8531C35.0445 -59.2391 34.9736 -58.8038 34.911 -58.4198C34.8974 -58.3359 34.8841 -58.2544 34.868 -58.1743C34.8594 -58.1309 34.8466 -58.0433 34.8341 -57.871C34.9463 -56.7885 34.9344 -55.1424 34.9004 -54.8429C35.0057 -54.3251 35.3922 -53.8212 35.7337 -53.3758C35.8259 -53.2556 35.915 -53.1393 35.9952 -53.0276C36.1142 -52.9746 36.2817 -52.8452 36.5506 -52.6C37.4224 -51.8052 38.9586 -50.851 40.2035 -50.3312C40.7378 -50.108 41.2722 -49.9275 41.7016 -49.7825C42.3033 -49.5793 42.6338 -49.4639 42.7833 -49.3386C43.1068 -49.3387 43.4235 -49.3608 43.703 -49.3803C43.9329 -49.3963 44.1501 -49.4115 44.3325 -49.4115C44.3789 -49.4115 44.4231 -49.4106 44.4651 -49.4084C44.5536 -49.4218 44.6553 -49.4286 44.7679 -49.4286C46.4947 -49.4286 50.5468 -47.9725 52.5477 -44.4649C52.9993 -43.9074 53.4723 -43.1204 53.7269 -42.5029C54.6045 -40.7193 54.9182 -38.7228 54.7104 -36.2279C54.6773 -35.8306 54.6418 -35.4399 54.607 -35.0584C54.4487 -33.3196 54.312 -31.818 54.4959 -30.7509L54.5253 -30.5803L54.5274 -30.5737C54.6457 -30.1936 54.7576 -29.8342 54.8365 -29.5549L54.9043 -29.4432C55.6012 -28.2898 56.4546 -24.8738 56.1739 -20.8858C56.287 -20.3039 56.431 -19.9026 56.6024 -19.6921C56.7958 -19.5644 57.053 -19.2525 57.4698 -18.747C57.6048 -18.5834 57.7558 -18.4004 57.9248 -18.1991C59.1119 -16.7861 60.4637 -12.8681 60.8768 -9.64348C61.0955 -7.93653 61.1501 -4.45988 61.1871 -1.04366C62.1069 5.25097 62.808 8.81367 63.271 9.54516C63.4712 9.86166 63.8776 10.0419 64.348 10.2506C65.1363 10.6002 66.1171 11.0353 66.6497 12.3479C67.4483 14.3164 69.6949 17.5954 70.867 18.5032C71.3168 18.8515 71.282 19.2021 71.2212 19.3801C71.0603 19.8512 70.3942 20.193 69.6373 20.193C69.1551 20.193 68.697 20.0533 68.3128 19.7888C67.8393 19.4629 67.4355 18.9398 67.1111 18.5197C66.9384 18.2958 66.7871 18.0999 66.6685 17.9902C66.6041 18.2637 66.6825 19.2303 66.7585 20.1678C66.9132 22.0764 67.1251 24.6904 66.8053 26.8722C66.6761 27.7538 65.984 28.6189 65.4081 28.6189C65.3221 28.6189 65.2432 28.5988 65.1736 28.56C65.2135 29.8614 65.1875 31.0164 64.3083 31.0486L64.2881 31.0489C63.6635 31.0489 63.2289 29.9642 62.9917 29.1552C62.8543 29.6245 62.5811 29.884 62.206 29.884C62.1546 29.884 62.1009 29.879 62.0464 29.8691C61.2843 29.7304 60.8262 27.9164 60.6285 26.9046C60.5014 27.0909 60.3134 27.2725 60.0633 27.2725C59.8188 27.2725 59.5756 27.0953 59.3408 26.7458C58.9464 26.159 58.547 24.8542 58.1242 23.4728C57.6889 22.0508 57.2389 20.5803 56.7307 19.6184C55.536 17.3575 55.4458 14.6986 55.9674 13.3448C56.4375 12.1246 56.7221 11.347 56.7108 10.839C56.6715 9.066 55.1094 4.07211 53.9688 0.42569C53.7919 -0.139832 53.6246 -0.674507 53.474 -1.16211C52.3387 -3.79118 51.4888 -5.86091 51.2003 -6.69939C50.9133 -7.53327 50.7304 -8.24056 50.6409 -8.86166C50.5649 -9.25085 50.502 -9.66697 50.4413 -10.0693C50.3809 -10.4691 50.3186 -10.8819 50.2429 -11.2681C49.8514 -11.5883 49.1037 -13.2025 49.2049 -15.3572C49.2807 -16.9669 48.3265 -20.0021 47.5597 -22.441C47.1113 -23.8673 46.7241 -25.099 46.6497 -25.7178C46.5803 -26.2945 46.4782 -27.2498 46.5247 -27.5319C46.5059 -27.575 46.4865 -27.5906 46.4717 -27.5985C46.4682 -27.6004 46.4548 -27.6065 46.4256 -27.6065C46.3965 -27.6065 46.3631 -27.6005 46.3283 -27.5892C46.0791 -26.0518 45.405 -23.1165 45.0691 -21.9904C44.8976 -21.4154 44.7931 -20.8565 44.7092 -20.4074C44.5922 -19.7819 44.5271 -19.4342 44.3614 -19.3138C44.317 -19.2005 44.2614 -19.0704 44.1982 -18.9225C44.0058 -18.4722 43.7422 -17.8554 43.6086 -17.239C43.5891 -17.086 43.5641 -16.9304 43.536 -16.7879C43.4631 -16.1295 43.4578 -15.1525 43.4626 -14.2828C43.5274 -13.877 43.5286 -13.1059 43.4653 -12.438C43.4915 -12.0108 43.6279 -11.6134 43.7599 -11.2289C43.8188 -11.0574 43.8744 -10.8953 43.9194 -10.7338C44.0516 -10.3083 44.2476 -9.42778 44.425 -7.67083C44.5319 -6.6114 44.3921 -5.7176 44.2798 -4.9994C44.1774 -4.34438 44.0889 -3.77872 44.218 -3.30842C44.3123 -2.96465 44.4248 -2.51389 44.4612 -2.06786C44.5211 -1.83639 44.6078 -1.51417 44.7028 -1.16136C44.8786 -0.508469 45.0778 0.231537 45.1928 0.715469C45.7315 2.37094 46.4651 5.44393 46.434 6.88044C46.4033 8.29349 47.158 12.7298 47.5562 14.3974C47.8521 15.6369 47.9742 17.8444 48.055 19.3052C48.0865 19.8766 48.1114 20.3279 48.137 20.5325C48.1468 20.6103 48.1533 20.6892 48.1331 20.752C48.1659 21.0755 48.2226 21.8132 48.203 22.1886C48.2576 23.7926 48.2049 27.06 47.8312 28.9495C47.6461 29.8848 47.6066 31.5331 47.5684 33.1272C47.5271 34.8472 47.4844 36.6257 47.2625 37.6405C46.8208 39.6617 45.8343 42.1693 44.8619 44.5646L44.8609 44.5671C44.7811 45.2035 44.7607 45.7061 44.8001 46.0614C44.8323 46.3518 44.9373 46.9295 45.059 47.5985C45.2868 48.8519 45.5705 50.4117 45.6425 51.4669C45.753 53.0858 45.7174 56.631 45.6321 57.5483C45.6486 57.8051 45.6559 58.0772 45.6543 58.3669C45.7035 58.821 45.7997 59.3102 45.8847 59.7419L45.896 59.7994C45.9792 59.996 46.0583 60.5635 46.0902 60.8126C46.1408 61.0174 46.2071 61.2414 46.2772 61.4784C46.4348 62.0116 46.6135 62.6158 46.7052 63.2919C46.7349 63.4614 46.7617 63.65 46.778 63.8041L46.7955 63.9652C46.8735 64.6793 47.0039 65.8744 46.8901 67.7092C46.7614 69.7875 45.9898 73.7954 45.5026 75.9823C44.9839 78.3103 43.9888 85.8092 43.7703 87.5407C43.732 87.844 43.6803 88.1405 43.6166 88.4221C43.5486 89.6743 43.5123 91.3271 43.593 92.009C43.691 92.8386 43.9179 93.5208 44.1372 94.1805L44.216 94.4184C44.4505 95.1324 44.3665 95.9244 43.9663 96.7724C43.6531 97.436 43.8695 98.8783 44.403 99.684C44.7856 100.262 45.6736 101.326 46.3221 102.103C46.5754 102.407 46.7941 102.669 46.9316 102.841C47.4645 103.508 47.6109 104.606 47.4444 105.283C47.2787 105.956 47.0085 106.219 46.4805 106.219C46.2347 106.219 46.0197 106.107 45.847 106.018C45.7312 105.957 45.6217 105.901 45.5474 105.901C45.5342 105.901 45.5227 105.902 45.5122 105.906C45.4294 105.936 45.3733 105.981 45.3083 106.034C45.2021 106.12 45.0818 106.217 44.8499 106.238C44.8358 106.24 44.822 106.241 44.808 106.241Z" fill="white" stroke="#28839F" stroke-width="0.504915"/>
<path d="M27.0459 -6.37903C25.6259 -6.38962 22.7756 -6.54142 22.096 -6.64292C21.4164 -6.74442 20.8281 -6.01362 20.9803 -5.05953C21.1324 -4.10544 21.7106 -0.309378 22.9278 3.52728C24.145 7.36394 25.0376 9.73902 26.2345 10.8149C27.4314 11.8908 27.7154 13.1494 28.3138 13.058C28.9123 12.9667 28.9148 10.5536 28.9224 9.602C28.929 8.78718 29.0036 -4.01918 28.7931 -4.43532C28.5733 -4.87001 28.1389 -5.14708 27.884 -5.40209C27.6118 -5.6745 27.7255 -6.37395 27.0459 -6.37903Z" fill="#28839F" fill-opacity="0.2"/>
<path d="M15.645 -10.5814C16.3103 -9.82599 17.8258 -8.5007 18.4446 -7.94246C19.0633 -7.38421 19.8443 -5.10048 20.0878 -4.00431C20.3312 -2.90812 20.2704 -1.48712 19.9458 -0.350337C19.6212 0.786461 20.0269 1.35485 19.824 2.28864C19.6212 3.22244 18.5257 3.87203 18.0794 3.18182C17.6331 2.49163 15.9087 0.33986 14.8336 -0.269141C13.7584 -0.878128 14.0221 -2.23821 14.3061 -3.27351C14.5901 -4.3088 13.9004 -5.64858 14.1032 -7.65827C14.3061 -9.66794 14.5445 -10.6093 14.6966 -10.9519C14.8488 -11.2945 15.1936 -11.094 15.645 -10.5814Z" fill="#28839F" fill-opacity="0.2"/>
<path d="M14.884 2.26852C15.5701 6.01317 15.9261 8.36819 16.6591 11.444C17.288 14.083 18.2719 18.417 19.1544 21.1879C20.0368 23.9589 21.68 28.3741 22.5321 31.3886C23.3841 34.4031 24.6926 42.5941 24.8143 43.1117C24.936 43.6294 25.1186 40.6148 25.3012 39.0923C25.4837 37.5699 25.2403 33.7028 24.6926 31.1145C24.1448 28.5263 23.3232 23.9284 22.0756 21.0052C19.6103 15.229 16.9503 4.59443 16.1824 2.81662C16.0108 2.41936 14.7167 1.35503 14.884 2.26852Z" fill="#28839F"/>
<path d="M13.3325 0.746966C12.7848 2.43185 12.0646 5.47681 12.095 6.87751C12.1254 8.27819 11.3799 12.7086 10.9691 14.429C10.5583 16.1494 10.4822 19.8186 10.3909 20.5494C10.2997 21.2802 10.9995 19.6664 11.3647 18.1135C11.7299 16.5605 13.2361 11.9169 13.7078 10.4401C14.1795 8.9633 15.0923 5.68998 14.925 4.47199C14.7576 3.254 14.4533 2.05124 14.5294 1.57926C14.6055 1.10729 14.3468 0.675923 14.0932 0.37143C13.8396 0.0669226 13.3325 0.746966 13.3325 0.746966Z" fill="#28839F" fill-opacity="0.2"/>
<path d="M21.1937 30.0193C21.0197 32.1859 20.7169 34.8507 20.3924 37.1243C20.0678 39.3978 19.2766 41.306 19.2157 43.2548C19.1549 45.2036 19.4186 48.4312 20.4735 48.6545C21.5284 48.8778 24.3077 46.7464 24.4496 44.8382C24.5917 42.93 23.4962 38.2814 23.273 36.7995C23.0499 35.3176 21.8628 30.1518 21.5893 29.3088C21.4295 28.8166 21.285 28.8825 21.1937 30.0193Z" fill="#28839F" fill-opacity="0.2"/>
<path d="M10.33 22.0611C10.2704 23.5825 10.3098 26.9736 10.6952 28.9224C11.0806 30.8712 10.8372 35.6619 11.2632 37.6107C11.6892 39.5595 12.6021 41.9143 13.657 44.5127C14.7119 47.111 14.9959 47.8012 15.3611 46.9892C15.7263 46.1772 15.6451 42.2391 14.9148 40.2091C14.1845 38.1791 13.0687 35.8041 12.521 33.429C11.9733 31.0539 11.5878 27.136 11.6487 25.8166C11.7095 24.4971 11.669 22.7107 11.8921 21.1273C12.1153 19.5439 12.715 16.4076 12.6326 16.2858C12.3744 15.9042 11.811 17.5139 11.5675 18.5898C11.3241 19.6657 10.8879 20.5894 10.6952 20.9649C10.5025 21.3404 10.3503 21.5434 10.33 22.0611Z" fill="#28839F" fill-opacity="0.2"/>
<path d="M16.7607 3.74613C16.935 4.44366 18.1807 8.45061 18.3937 8.9987C18.6068 9.54679 18.9719 7.65891 18.8299 6.39017C18.717 5.38128 18.6372 4.90828 17.7344 3.95419C16.8317 3.0001 16.5984 3.09653 16.7607 3.74613Z" fill="#28839F" fill-opacity="0.2"/>
<path d="M19.0333 6.72495C19.0608 8.53676 18.9725 9.84604 18.9116 10.3484C18.8507 10.8509 19.155 12.4952 19.5202 12.9671C19.8854 13.4391 20.5396 12.6931 20.9504 11.2315C21.3612 9.76991 21.3764 8.62805 21.0721 8.00384C20.7678 7.37961 19.8701 6.48134 19.4898 6.11595C19.1094 5.75056 19.0181 5.72011 19.0333 6.72495Z" fill="#28839F" fill-opacity="0.2"/>
<path d="M21.4671 9.33344C21.4993 10.2343 21.2845 11.5766 20.7976 12.5611C20.3108 13.5457 20.047 13.8501 20.1485 14.6317C20.2499 15.4132 20.5745 16.6008 20.7976 16.9662C21.0208 17.3316 21.9946 15.3929 22.3191 14.5099C22.6437 13.6269 23.161 11.9014 23.1712 11.201C23.1813 10.5007 22.4611 9.74959 22.096 9.31315C21.7308 8.8767 21.4367 8.48086 21.4671 9.33344Z" fill="#28839F" fill-opacity="0.2"/>
<path d="M25.5754 17.96C25.8427 19.1186 26.0775 22.8319 26.1536 24.2631C26.2297 25.6942 26.2906 27.4146 25.8493 28.7696C25.4081 30.1246 25.2407 30.5509 25.2407 31.9668C25.2407 33.3827 25.7276 36.0166 25.8037 36.8997C25.8798 37.7827 26.4883 35.7121 26.6253 34.5246C26.7622 33.3371 27.5838 28.4194 28.0555 26.8513C28.5271 25.2831 28.2989 22.1925 28.1772 21.0658C28.0555 19.9392 28.0174 18.9039 27.523 18.5233C27.0285 18.1427 26.4427 18.0894 25.971 17.4423C25.4994 16.7953 25.3701 17.0693 25.5754 17.96Z" fill="#28839F" fill-opacity="0.2"/>
<path d="M23.4453 48.5022C22.5144 50.6313 21.9542 51.7908 21.7412 52.4911C21.5282 53.1915 21.7868 53.1001 22.0759 53.2828C22.365 53.4655 22.0759 54.1506 21.8629 54.8053C21.6499 55.46 21.513 55.7949 21.8021 55.871C22.0911 55.9472 23.2475 53.1458 23.567 52.4302C23.8865 51.7147 23.973 49.8881 23.9626 48.9285C23.955 48.232 23.9626 47.6877 23.8732 47.7277C23.7903 47.7647 23.5878 48.1761 23.4453 48.5022Z" fill="#28839F" fill-opacity="0.2"/>
<path d="M20.4734 33.6733C20.5343 32.2117 21.2258 28.2073 20.7726 27.0606C18.318 20.8489 17.3746 17.0173 15.5261 8.24991C15.2565 6.97095 14.991 7.75552 14.7942 8.30601C14.2807 9.74211 13.9029 11.6584 13.576 12.7543C13.1703 14.1144 12.9167 17.1696 12.653 18.6311C12.3892 20.0927 11.9936 23.9192 12.0139 26.4364C12.0342 28.9536 12.6834 32.8816 13.2717 34.5056C13.86 36.1296 15.3612 39.8241 15.9901 41.7729C17.437 46.2565 18.9779 41.3464 18.9811 41.3328C19.4548 39.8306 20.4203 34.9494 20.4734 33.6733Z" fill="#28839F" fill-opacity="0.2"/>
<path d="M31.3468 -6.37903C32.7668 -6.38962 35.6171 -6.54142 36.2967 -6.64292C36.9763 -6.74442 37.5646 -6.01362 37.4124 -5.05953C37.2603 -4.10544 36.6821 -0.309378 35.4649 3.52728C34.2477 7.36394 33.3551 9.73902 32.1582 10.8149C30.9613 11.8908 30.6773 13.1494 30.0788 13.058C29.4804 12.9667 29.4779 10.5536 29.4703 9.602C29.4637 8.78718 29.3891 -4.01918 29.5996 -4.43532C29.8194 -4.87001 30.2538 -5.14708 30.5087 -5.40209C30.7809 -5.6745 30.6672 -6.37395 31.3468 -6.37903Z" fill="#28839F" fill-opacity="0.2"/>
<path d="M42.7478 -10.5814C42.0825 -9.82599 40.567 -8.5007 39.9482 -7.94246C39.3295 -7.38421 38.5485 -5.10048 38.305 -4.00431C38.0616 -2.90812 38.1224 -1.48712 38.447 -0.350337C38.7716 0.786461 38.3659 1.35485 38.5687 2.28864C38.7716 3.22244 39.8671 3.87203 40.3134 3.18182C40.7597 2.49163 42.484 0.33986 43.5592 -0.269141C44.6344 -0.878128 44.3707 -2.23821 44.0867 -3.27351C43.8027 -4.3088 44.4924 -5.64858 44.2895 -7.65827C44.0867 -9.66794 43.8483 -10.6093 43.6962 -10.9519C43.544 -11.2945 43.1991 -11.094 42.7478 -10.5814Z" fill="#28839F" fill-opacity="0.2"/>
<path d="M43.5083 2.26852C42.8223 6.01317 42.4662 8.36819 41.7333 11.444C41.1044 14.083 40.1205 18.417 39.238 21.1879C38.3556 23.9589 36.7123 28.3741 35.8603 31.3886C35.0083 34.4031 33.6998 42.5941 33.5781 43.1117C33.4564 43.6294 33.2738 40.6148 33.0912 39.0923C32.9086 37.5699 33.1521 33.7028 33.6998 31.1145C34.2475 28.5263 35.0691 23.9284 36.3167 21.0052C38.7821 15.229 41.4421 4.59443 42.21 2.81662C42.3816 2.41936 43.6757 1.35503 43.5083 2.26852Z" fill="#28839F"/>
<path d="M45.0605 0.746966C45.6082 2.43185 46.3284 5.47681 46.2979 6.87751C46.2675 8.27819 47.013 12.7086 47.4238 14.429C47.8347 16.1494 47.9107 19.8186 48.002 20.5494C48.0933 21.2802 47.3934 19.6664 47.0283 18.1135C46.6631 16.5605 45.1568 11.9169 44.6852 10.4401C44.2135 8.9633 43.3006 5.68998 43.468 4.47199C43.6353 3.254 43.9396 2.05124 43.8636 1.57926C43.7875 1.10729 44.0461 0.675923 44.2997 0.37143C44.5533 0.0669226 45.0605 0.746966 45.0605 0.746966Z" fill="#28839F" fill-opacity="0.2"/>
<path d="M37.2297 29.9983C37.4037 32.1649 37.676 34.8499 38.0006 37.1235C38.3252 39.3971 39.1164 41.3053 39.1772 43.2541C39.2381 45.2028 38.9744 48.4305 37.9195 48.6538C36.8646 48.8771 34.0853 46.7456 33.9433 44.8374C33.8013 42.9293 34.8968 38.2806 35.1199 36.7987C35.3431 35.3168 36.4501 30.1207 36.8037 29.3081C37.0776 28.6788 37.1384 28.8615 37.2297 29.9983Z" fill="#28839F" fill-opacity="0.2"/>
<path d="M48.0627 22.0611C48.1223 23.5825 48.083 26.9736 47.6975 28.9224C47.3121 30.8712 47.5555 35.6619 47.1295 37.6107C46.7035 39.5595 45.7906 41.9143 44.7357 44.5127C43.6808 47.111 43.3968 47.8012 43.0316 46.9892C42.6665 46.1772 42.7476 42.2391 43.4779 40.2091C44.2083 38.1791 45.324 35.8041 45.8718 33.429C46.4195 31.0539 46.8049 27.136 46.7441 25.8166C46.6832 24.4971 46.7238 22.7107 46.5006 21.1273C46.2775 19.5439 45.6778 16.4076 45.7602 16.2858C46.0184 15.9042 46.5818 17.5139 46.8252 18.5898C47.0687 19.6657 47.5048 20.5894 47.6975 20.9649C47.8903 21.3404 48.0424 21.5434 48.0627 22.0611Z" fill="#28839F" fill-opacity="0.2"/>
<path d="M41.6045 3.80935C41.4302 4.50688 40.22 8.35397 40.007 8.90206C39.7939 9.45016 39.4212 7.6587 39.5632 6.38996C39.6761 5.38107 39.7559 4.90807 40.6587 3.95398C41.5614 2.9999 41.7668 3.15976 41.6045 3.80935Z" fill="#28839F" fill-opacity="0.2"/>
<path d="M39.3604 6.72495C39.3329 8.53676 39.4212 9.84604 39.4821 10.3484C39.543 10.8509 39.2387 12.4952 38.8735 12.9671C38.5083 13.4391 37.8541 12.6931 37.4433 11.2315C37.0325 9.76991 37.0173 8.62805 37.3216 8.00384C37.6259 7.37961 38.5236 6.48134 38.9039 6.11595C39.2843 5.75056 39.3756 5.72011 39.3604 6.72495Z" fill="#28839F" fill-opacity="0.2"/>
<path d="M36.9254 9.33344C36.8932 10.2343 37.108 11.5766 37.5948 12.5611C38.0817 13.5457 38.3454 13.8501 38.244 14.6317C38.1426 15.4132 37.818 16.6008 37.5948 16.9662C37.3717 17.3316 36.3979 15.3929 36.0733 14.5099C35.7487 13.6269 35.2314 11.9014 35.2213 11.201C35.2112 10.5007 35.9313 9.74959 36.2965 9.31315C36.6616 8.8767 36.9558 8.48086 36.9254 9.33344Z" fill="#28839F" fill-opacity="0.2"/>
<path d="M32.8174 17.96C32.5502 19.1186 32.3153 22.8319 32.2392 24.2631C32.1631 25.6942 32.1023 27.4146 32.5435 28.7696C32.9847 30.1246 33.1521 30.5509 33.1521 31.9668C33.1521 33.3827 32.6652 36.0166 32.5891 36.8997C32.5131 37.7827 31.9045 35.7121 31.7675 34.5246C31.6306 33.3371 30.809 28.4194 30.3373 26.8513C29.8657 25.2831 30.0939 22.1925 30.2156 21.0658C30.3373 19.9392 30.3754 18.9039 30.8699 18.5233C31.3644 18.1427 31.9501 18.0894 32.4218 17.4423C32.8934 16.7953 33.0228 17.0693 32.8174 17.96Z" fill="#28839F" fill-opacity="0.2"/>
<path d="M34.9476 48.5015C35.8784 50.6306 36.4386 51.79 36.6516 52.4904C36.8646 53.1907 36.606 53.0994 36.3169 53.2821C36.0278 53.4648 36.3169 54.1499 36.5299 54.8046C36.7429 55.4592 36.8798 55.7942 36.5908 55.8703C36.3017 55.9464 35.1453 53.1451 34.8258 52.4295C34.5063 51.7139 34.4607 49.8869 34.4303 48.9278C34.4131 48.3882 34.4455 47.7688 34.5215 47.8595C34.6661 48.032 34.7612 48.0752 34.9476 48.5015Z" fill="#28839F" fill-opacity="0.2"/>
<path d="M37.9196 33.6726C37.8587 32.211 37.1013 28.2422 37.5544 27.0954C40.0091 20.8837 40.8205 17.0112 42.8668 8.2492C43.1641 6.97639 43.402 7.75482 43.5988 8.30531C44.1123 9.74141 44.4393 11.7288 44.7663 12.8247C45.172 14.1848 45.456 17.0775 45.7197 18.5391C45.9835 20.0007 46.3486 23.8475 46.3283 26.3647C46.3081 28.8818 45.6893 32.82 45.101 34.444C44.5127 36.068 43.0318 39.8234 42.4029 41.7722C40.9217 46.3622 39.4151 41.3457 39.4119 41.3321C38.9382 39.8299 37.9727 34.9487 37.9196 33.6726Z" fill="#28839F" fill-opacity="0.2"/>
</g>
</g>
<defs>
<clipPath id="clip0_4089_13878">
<rect width="61" height="48" fill="white"/>
</clipPath>
<clipPath id="clip1_4089_13878">
<rect width="42" height="69" fill="white" transform="translate(8 -10)"/>
</clipPath>
</defs>
</svg>
