<svg width="61" height="48" viewBox="0 0 61 48" fill="none" xmlns="http://www.w3.org/2000/svg">
<g clip-path="url(#clip0_4055_11879)">
<path d="M37.808 165.241C37.6244 165.241 37.4761 165.133 37.3327 165.03C37.2137 164.944 37.1014 164.862 36.9936 164.862C36.9749 164.862 36.9568 164.865 36.9381 164.869C36.8153 164.901 36.7477 164.954 36.6695 165.015C36.5589 165.102 36.4335 165.2 36.1792 165.2C36.1624 165.2 36.1449 165.199 36.1267 165.198C35.8895 165.187 35.7413 165.087 35.6105 164.998C35.49 164.917 35.3949 164.853 35.2359 164.853C35.2264 164.853 35.2166 164.853 35.2066 164.853C35.0397 164.861 34.9434 164.918 34.8215 164.989C34.6689 165.079 34.496 165.18 34.1731 165.198C34.1507 165.2 34.1286 165.2 34.1068 165.2C33.8053 165.2 33.5461 165.085 33.3174 164.983C33.1252 164.898 32.9437 164.817 32.7627 164.813L32.7478 164.813C32.5631 164.813 32.336 164.888 32.0956 164.967C31.7967 165.066 31.458 165.178 31.1065 165.178L31.0798 165.178C30.2324 165.165 29.7509 164.728 29.6486 163.881C29.5943 163.432 29.7434 162.945 29.8876 162.475C30.0544 161.931 30.2268 161.369 30.0979 160.853C29.8256 159.763 29.6691 158.36 29.7085 157.363C29.7356 156.679 29.523 155.757 29.3355 154.944C29.2452 154.552 29.1599 154.183 29.1019 153.85C28.9806 153.156 29.4886 151.938 29.9368 150.863C30.1822 150.275 30.414 149.719 30.4607 149.421C30.5617 148.775 30.4463 145.256 30.3843 143.364L30.3752 143.087C30.3236 142.717 30.2718 142.323 30.2206 141.933C30.0812 140.871 29.9495 139.868 29.8348 139.439L29.7487 139.118C29.4431 137.982 28.9838 136.275 28.9829 135.678C28.8771 135.402 28.7228 134.993 28.5649 134.528C28.1839 134.059 27.9068 133.027 27.7414 131.46C27.4799 128.984 27.7685 125.507 28.068 124.05C28.2187 123.317 28.4544 122.429 28.6624 121.646C28.861 120.899 29.0486 120.193 29.1221 119.77C29.1979 119.336 29.2148 119.09 29.225 118.944C29.2316 118.848 29.236 118.784 29.2548 118.734C29.2295 118.599 29.2022 118.446 29.173 118.282C29.0293 117.476 28.8327 116.373 28.5767 115.802C28.2395 115.051 27.7967 112.811 27.6077 111.855L27.6012 111.822C27.541 111.517 27.4858 111.007 27.4371 110.304C27.3449 109.548 27.3165 108.638 27.2977 108.037L27.2944 107.933C27.2853 107.647 27.2854 107.076 27.3458 106.863C27.3379 106.683 27.3077 106.518 27.2224 106.181C27.1335 105.829 27.0739 105.449 27.0049 105.009C26.9713 104.795 26.9355 104.566 26.8929 104.32C26.8489 104.164 26.8203 104.008 26.8085 103.857C26.7286 103.446 26.6689 103.252 26.6163 103.081C26.5541 102.879 26.5 102.703 26.4336 102.263C26.3463 102.142 26.2935 101.69 26.1415 99.9965C26.0812 99.3247 26.0188 98.63 25.9564 98.1096C25.923 97.8313 25.9031 97.4741 25.8973 97.0477C25.8382 96.9257 25.759 96.8016 25.6754 96.6707C25.5817 96.5238 25.485 96.3723 25.397 96.1966C25.0435 95.8658 24.69 94.0393 24.6326 93.5415C24.5032 92.4192 23.6819 87.4697 23.2073 85.8917C22.6655 84.0905 23.0365 80.4604 23.0806 80.0524C23.0955 79.9138 23.1093 79.7766 23.1228 79.6418C23.1805 79.0654 23.2351 78.5197 23.3665 78.1003C23.2286 77.8427 22.5884 77.7272 22.2776 77.7272H22.1153C21.8069 77.7272 21.1741 77.841 21.0271 78.1024C21.1581 78.5218 21.2127 79.0671 21.2703 79.6429C21.2837 79.7774 21.2975 79.9142 21.3124 80.0525C21.3565 80.4605 21.7275 84.0908 21.1856 85.8917C20.7111 87.4697 19.8897 92.4192 19.7603 93.5415C19.7029 94.0393 19.3494 95.8658 18.9961 96.1966C18.908 96.3723 18.8113 96.5237 18.7177 96.6704C18.6341 96.8014 18.5548 96.9256 18.4957 97.0477C18.4899 97.4736 18.47 97.8307 18.4366 98.1096C18.3742 98.6301 18.3118 99.325 18.2515 99.997C18.0995 101.69 18.0467 102.142 17.9594 102.263C17.893 102.703 17.8388 102.879 17.7766 103.081C17.7241 103.252 17.6645 103.446 17.5845 103.857C17.5727 104.008 17.5441 104.164 17.497 104.333C17.4575 104.566 17.4218 104.794 17.3882 105.008C17.3192 105.448 17.2596 105.829 17.1706 106.181C17.0995 106.462 17.068 106.619 17.0542 106.762C17.088 106.908 17.0922 107.203 17.0964 107.689L17.0987 107.927C17.1056 108.569 17.0694 109.619 16.944 110.465C16.8989 111.081 16.8473 111.541 16.7917 111.822L16.7859 111.851C16.5968 112.808 16.1539 115.05 15.8162 115.802C15.5602 116.373 15.3635 117.477 15.2199 118.282C15.1907 118.446 15.1635 118.599 15.1383 118.734C15.157 118.784 15.1614 118.848 15.168 118.943C15.1781 119.09 15.1951 119.336 15.2709 119.77C15.3445 120.193 15.5321 120.899 15.7308 121.647C15.9387 122.43 16.1744 123.317 16.325 124.05C16.6245 125.507 16.9131 128.984 16.6516 131.46C16.5312 132.6 16.2819 134.071 15.7763 134.651C15.6173 135.126 15.4822 135.489 15.4101 135.678C15.4092 136.276 14.9495 137.984 14.6436 139.12L14.5582 139.439C14.4436 139.868 14.312 140.87 14.1727 141.931C14.1214 142.322 14.0695 142.717 14.0178 143.087L14.0086 143.369C13.9466 145.259 13.8314 148.776 13.9323 149.421C13.979 149.719 14.2108 150.275 14.4561 150.863C14.9044 151.937 15.4124 153.156 15.2911 153.85C15.233 154.183 15.1478 154.552 15.0575 154.944C14.87 155.757 14.6574 156.679 14.6844 157.363C14.724 158.36 14.5675 159.763 14.2951 160.853C14.1661 161.369 14.3386 161.931 14.5054 162.475C14.6496 162.945 14.7987 163.432 14.7444 163.881C14.6421 164.728 14.1605 165.165 13.3132 165.178L13.2865 165.178C12.9349 165.178 12.5962 165.066 12.2974 164.967C12.0569 164.888 11.8299 164.813 11.6451 164.813L11.6303 164.813C11.4493 164.817 11.2678 164.898 11.0756 164.983C10.8469 165.085 10.5877 165.2 10.2862 165.2C10.2643 165.2 10.2422 165.2 10.2199 165.198C9.89692 165.18 9.72408 165.079 9.57151 164.989C9.44957 164.918 9.35329 164.861 9.18636 164.853C9.17633 164.853 9.16663 164.853 9.15706 164.853C8.99811 164.853 8.90296 164.917 8.78249 164.998C8.65173 165.087 8.50347 165.187 8.26631 165.198C8.2481 165.199 8.23063 165.2 8.21387 165.2C7.95951 165.2 7.83412 165.102 7.72348 165.015C7.6452 164.954 7.57762 164.901 7.45482 164.869C7.43615 164.865 7.41801 164.862 7.39934 164.862C7.29156 164.862 7.17926 164.944 7.06032 165.03C6.91692 165.133 6.7686 165.241 6.585 165.241C6.57105 165.241 6.55695 165.24 6.54287 165.239C6.31103 165.217 6.19068 165.12 6.08449 165.034C6.01951 164.981 5.96343 164.936 5.88056 164.906C5.87012 164.903 5.85857 164.901 5.84541 164.901C5.77112 164.901 5.66168 164.957 5.54585 165.018C5.37316 165.107 5.15812 165.219 4.91232 165.219C4.38438 165.219 4.11413 164.956 3.9484 164.283C3.78195 163.606 3.92828 162.508 4.46127 161.841C4.59888 161.669 4.8179 161.406 5.07154 161.102C5.71969 160.326 6.60745 159.262 6.98988 158.684C7.5234 157.878 7.7397 156.436 7.42652 155.773C7.0263 154.924 6.9423 154.132 7.17686 153.419L7.256 153.18C7.47521 152.52 7.70195 151.838 7.79989 151.009C7.88043 150.327 7.84422 148.675 7.77631 147.422C7.71258 147.141 7.66082 146.844 7.62254 146.541C7.40386 144.809 6.40823 137.308 5.8902 134.982C5.40306 132.796 4.63151 128.788 4.50266 126.709C4.38891 124.874 4.51935 123.679 4.59729 122.965L4.61476 122.804C4.64154 122.552 4.71364 122.065 4.76307 121.839C4.85995 121.344 4.99578 120.884 5.11558 120.479C5.18568 120.242 5.252 120.018 5.3027 119.812C5.33453 119.564 5.41355 118.996 5.49681 118.8L5.50817 118.742C5.59316 118.31 5.68937 117.821 5.73862 117.367C5.73696 117.08 5.74407 116.811 5.76022 116.545C5.67523 115.611 5.64015 112.081 5.75031 110.467C5.82235 109.412 6.10595 107.852 6.33381 106.599C6.45542 105.93 6.56046 105.352 6.59276 105.061C6.63217 104.706 6.61163 104.203 6.53189 103.567L6.53076 103.564C5.55854 101.17 4.57208 98.6621 4.13026 96.6406C3.90838 95.6258 3.86573 93.8474 3.82446 92.1276C3.78619 90.5334 3.74664 88.8849 3.56164 87.9496C3.18799 86.0608 3.13523 82.7931 3.18966 81.1771C3.17018 80.8139 3.227 80.0759 3.25969 79.752C3.23956 79.6892 3.24606 79.6104 3.25583 79.5326C3.28135 79.328 3.30627 78.877 3.33783 78.306C3.41863 76.845 3.54063 74.6371 3.8366 73.3975C4.23476 71.7301 4.98956 67.294 4.95879 65.8805C4.92763 64.4441 5.6613 61.3711 6.20293 59.7049C6.31484 59.2321 6.51385 58.4929 6.68948 57.8408C6.78463 57.4872 6.87162 57.1642 6.93155 56.9323C6.96797 56.4865 7.0806 56.0356 7.17489 55.6916C7.30387 55.2214 7.21543 54.6558 7.11302 54.0008C7.00072 53.2826 6.86092 52.3887 6.96783 51.3292C7.14518 49.5721 7.34127 48.6917 7.4745 48.2626C7.51837 48.1049 7.57398 47.9428 7.63292 47.7712C7.76489 47.3867 7.90132 46.9892 7.9275 46.5621C7.86425 45.8941 7.86543 45.1232 7.93015 44.7173C7.935 43.8476 7.92969 42.8705 7.85506 42.2009C7.82881 42.0705 7.80382 41.9149 7.78236 41.7498C7.65059 41.1448 7.38705 40.528 7.19462 40.0776C7.13137 39.9297 7.07575 39.7995 7.03143 39.6862C6.86563 39.5659 6.80065 39.2181 6.68369 38.5926C6.5997 38.1435 6.49517 37.5846 6.32374 37.0097C5.9879 35.884 5.3139 32.9488 5.06452 31.4108C5.02964 31.3996 4.99634 31.3936 4.96718 31.3936C4.93807 31.3936 4.92465 31.3997 4.92126 31.4015C4.90644 31.4095 4.88703 31.4251 4.8681 31.4681C4.91469 31.7503 4.81249 32.7056 4.74311 33.2823C4.66868 33.9011 4.28141 35.1329 3.83308 36.5592C3.06639 38.998 2.11217 42.0332 2.18785 43.6429C2.28918 45.7977 1.54136 47.4119 1.1499 47.732C1.07435 48.118 1.01202 48.5306 0.951622 48.9302C0.890818 49.3328 0.827888 49.7492 0.75074 50.1452C0.662432 50.7594 0.47942 51.4667 0.192492 52.3007C-0.0959625 53.1393 -0.94585 55.209 -2.08121 57.8379C-2.23178 58.3254 -2.39903 58.8601 -2.57594 59.4256C-3.7166 63.072 -5.27876 68.066 -5.31804 69.839C-5.32927 70.3472 -5.04466 71.1247 -4.5746 72.3448C-4.05304 73.6987 -4.14328 76.3576 -5.33791 78.6184C-5.84612 79.5803 -6.29618 81.0508 -6.73148 82.4729C-7.15423 83.8543 -7.55366 85.1591 -7.94805 85.7459C-8.18288 86.0953 -8.42595 86.2725 -8.67049 86.2725C-8.92054 86.2725 -9.10859 86.091 -9.23577 85.9047C-9.43353 86.9165 -9.89183 88.7305 -10.6535 88.8691C-10.7081 88.8791 -10.7618 88.8841 -10.8131 88.8841C-11.1883 88.8841 -11.4615 88.6246 -11.5989 88.1552C-11.8362 88.9643 -12.2707 90.049 -12.8954 90.049L-12.9156 90.0487C-13.7948 90.0165 -13.8207 88.8615 -13.7807 87.56C-13.8504 87.5989 -13.9292 87.619 -14.0153 87.619C-14.5911 87.619 -15.2832 86.7539 -15.4125 85.8723C-15.7323 83.6905 -15.5204 81.0768 -15.3657 79.1683C-15.2896 78.2305 -15.2112 77.2636 -15.2757 76.9902C-15.3943 77.0998 -15.5454 77.2957 -15.7182 77.5195C-16.0427 77.9398 -16.4464 78.4629 -16.92 78.7888C-17.3043 79.0533 -17.7623 79.1931 -18.2445 79.1931C-19.0014 79.1931 -19.6675 78.8512 -19.8284 78.3801C-19.8892 78.2021 -19.924 77.8515 -19.4742 77.5032C-18.3021 76.5955 -16.0555 73.3164 -15.2569 71.348C-14.7244 70.0353 -13.7435 69.6003 -12.9553 69.2506C-12.4848 69.0419 -12.0784 68.8617 -11.8782 68.5452C-11.4153 67.8137 -10.7142 64.251 -9.79436 57.9564C-9.75735 54.5402 -9.70279 51.0635 -9.48411 49.3566C-9.071 46.132 -7.71915 42.214 -6.53209 40.8009C-6.36225 40.5988 -6.21067 40.415 -6.07525 40.2507C-5.66413 39.7522 -5.40995 39.444 -5.21806 39.3133C-5.04774 39.0851 -4.90229 38.6571 -4.78547 38.0405C-5.05073 34.0824 -4.20092 30.6978 -3.51157 29.5567L-3.47483 29.4964C-3.39516 29.2231 -3.28404 28.8752 -3.16657 28.5073L-3.12531 28.3778L-3.10312 28.2491C-2.91924 27.1818 -3.056 25.6798 -3.21435 23.9406C-3.24904 23.5595 -3.28459 23.169 -3.31769 22.7721C-3.52548 20.2774 -3.21177 18.2808 -2.33044 16.489C-2.07947 15.8794 -1.60648 15.0924 -1.15495 14.5351C0.845907 11.0275 4.898 9.57143 6.62483 9.57143C6.73739 9.57143 6.83913 9.57821 6.92758 9.59157C6.96957 9.58944 7.01383 9.58851 7.06028 9.58851C7.24268 9.58851 7.45983 9.60366 7.68975 9.61969C7.96924 9.63918 8.28595 9.66132 8.60948 9.66139C8.75899 9.53605 9.08951 9.42068 9.69121 9.21747C10.1205 9.07246 10.6549 8.892 11.1892 8.66884C12.434 8.14907 13.9703 7.19489 14.8422 6.39997C15.1112 6.15467 15.2788 6.02515 15.3978 5.97229C15.4804 5.85733 15.5682 5.74269 15.659 5.62419C16.0005 5.17882 16.387 4.67487 16.4924 4.15709C16.4584 3.85748 16.4465 2.21124 16.5587 1.12907C16.5461 0.955923 16.5332 0.868689 16.5247 0.825792C16.5087 0.745598 16.4954 0.664217 16.4818 0.580303C16.4192 0.196241 16.3484 -0.239023 15.9365 -0.853159C15.585 -1.37746 15.4875 -2.59588 15.4677 -3.52565C15.464 -3.70538 15.3175 -3.8516 15.1413 -3.8516C15.1183 -3.8516 15.0951 -3.84907 15.0722 -3.84409C14.9674 -3.82121 14.8577 -3.80912 14.7549 -3.80912C14.478 -3.80912 14.2492 -3.89317 14.0933 -4.05228C13.9324 -4.21632 13.8538 -4.45209 13.8595 -4.75311C13.8795 -5.80497 13.6657 -6.41525 13.477 -6.95371C13.3819 -7.22521 13.2921 -7.48167 13.238 -7.77031C13.1419 -8.28317 13.0834 -8.97277 13.3503 -9.34553C13.4553 -9.49209 13.5993 -9.57939 13.7785 -9.60499C13.8223 -9.61131 13.8675 -9.61443 13.9127 -9.61443C14.0613 -9.61443 14.2166 -9.58052 14.3744 -9.5135C14.396 -9.50438 14.4183 -9.49973 14.4405 -9.49973C14.4885 -9.49973 14.536 -9.52127 14.5708 -9.55877C14.6065 -9.5972 14.624 -9.64721 14.62 -9.69947C14.5044 -11.2383 14.3988 -15.0272 15.9118 -16.9685C17.7107 -19.2766 20.4774 -19.7442 21.5836 -19.8381C21.7266 -19.8502 21.8991 -19.8633 22.1375 -19.8633C22.3163 -19.8633 22.5101 -19.8556 22.7137 -19.8404C23.8401 -19.7567 26.6567 -19.3092 28.481 -16.9685C29.9939 -15.0272 29.8883 -11.2383 29.7727 -9.6994C29.7688 -9.64721 29.7862 -9.5972 29.8219 -9.55871C29.8567 -9.5212 29.9042 -9.49973 29.9522 -9.49973C29.9746 -9.49973 29.9968 -9.50438 30.0184 -9.5135C30.1762 -9.58052 30.3315 -9.61443 30.48 -9.61443C30.5252 -9.61443 30.5704 -9.61131 30.6143 -9.60499C30.7934 -9.57939 30.9374 -9.49209 31.0424 -9.34553C31.3093 -8.97277 31.2508 -8.28317 31.1548 -7.77031C31.1007 -7.48167 31.0108 -7.22527 30.9157 -6.95377C30.7271 -6.41531 30.5133 -5.80505 30.5333 -4.75311C30.539 -4.45211 30.4604 -4.21625 30.2995 -4.05221C30.1435 -3.89315 29.9147 -3.8091 29.6379 -3.8091C29.535 -3.8091 29.4253 -3.82121 29.3205 -3.84407C29.2976 -3.84906 29.2744 -3.85159 29.2514 -3.85159C29.0753 -3.85159 28.9288 -3.70538 28.925 -3.52563C28.9052 -2.59587 28.8078 -1.37751 28.4563 -0.853146C28.0445 -0.239079 27.9736 0.196188 27.911 0.580181C27.8974 0.664095 27.8841 0.745554 27.868 0.825735C27.8594 0.869095 27.8466 0.956728 27.8341 1.12902C27.9463 2.21146 27.9344 3.85756 27.9004 4.15711C28.0057 4.67488 28.3922 5.17884 28.7337 5.62421C28.8259 5.74442 28.915 5.86065 28.9952 5.97236C29.1142 6.02536 29.2817 6.15481 29.5506 6.39997C30.4224 7.19483 31.9586 8.14901 33.2035 8.66884C33.7378 8.892 34.2722 9.07246 34.7016 9.21747C35.3033 9.42075 35.6338 9.53605 35.7833 9.66139C36.1068 9.66132 36.4235 9.63918 36.703 9.61969C36.9329 9.60366 37.1501 9.58851 37.3325 9.58851C37.3789 9.58851 37.4231 9.58943 37.4651 9.59157C37.5536 9.57821 37.6553 9.57143 37.7679 9.57143C39.4947 9.57143 43.5468 11.0275 45.5477 14.5351C45.9993 15.0926 46.4723 15.8796 46.7269 16.4971C47.6045 18.2807 47.9182 20.2772 47.7104 22.7721C47.6773 23.1694 47.6418 23.5601 47.607 23.9416C47.4487 25.6804 47.312 27.182 47.4959 28.2491L47.5253 28.4197L47.5274 28.4263C47.6457 28.8064 47.7576 29.1658 47.8365 29.4451L47.9043 29.5568C48.6012 30.7102 49.4546 34.1262 49.1739 38.1142C49.287 38.6961 49.431 39.0974 49.6024 39.3079C49.7958 39.4356 50.053 39.7475 50.4698 40.253C50.6048 40.4166 50.7558 40.5996 50.9248 40.8009C52.1119 42.2139 53.4637 46.1319 53.8768 49.3565C54.0955 51.0635 54.1501 54.5401 54.1871 57.9563C55.1069 64.251 55.808 67.8137 56.271 68.5452C56.4712 68.8617 56.8776 69.0419 57.348 69.2506C58.1363 69.6002 59.1171 70.0353 59.6497 71.3479C60.4483 73.3164 62.6949 76.5954 63.867 77.5032C64.3168 77.8515 64.282 78.2021 64.2212 78.3801C64.0603 78.8512 63.3942 79.193 62.6373 79.193C62.1551 79.193 61.697 79.0533 61.3128 78.7888C60.8393 78.4629 60.4355 77.9398 60.1111 77.5197C59.9384 77.2958 59.7871 77.0999 59.6685 76.9902C59.6041 77.2637 59.6825 78.2303 59.7585 79.1678C59.9132 81.0764 60.1251 83.6904 59.8053 85.8722C59.6761 86.7538 58.984 87.6189 58.4081 87.6189C58.3221 87.6189 58.2432 87.5988 58.1736 87.56C58.2135 88.8614 58.1875 90.0164 57.3083 90.0486L57.2881 90.0489C56.6635 90.0489 56.2289 88.9642 55.9917 88.1552C55.8543 88.6245 55.5811 88.884 55.206 88.884C55.1546 88.884 55.1009 88.879 55.0464 88.8691C54.2843 88.7304 53.8262 86.9164 53.6285 85.9046C53.5014 86.0909 53.3134 86.2725 53.0633 86.2725C52.8188 86.2725 52.5756 86.0953 52.3408 85.7458C51.9464 85.159 51.547 83.8542 51.1242 82.4728C50.6889 81.0508 50.2389 79.5803 49.7307 78.6184C48.536 76.3575 48.4458 73.6986 48.9674 72.3448C49.4375 71.1246 49.7221 70.347 49.7108 69.839C49.6715 68.066 48.1094 63.0721 46.9688 59.4257C46.7919 58.8602 46.6246 58.3255 46.474 57.8379C45.3387 55.2088 44.4888 53.1391 44.2003 52.3006C43.9133 51.4667 43.7304 50.7594 43.6409 50.1383C43.5649 49.7492 43.502 49.333 43.4413 48.9307C43.3809 48.5309 43.3186 48.1181 43.2429 47.7319C42.8514 47.4117 42.1037 45.7975 42.2049 43.6428C42.2807 42.0331 41.3265 38.9979 40.5597 36.559C40.1113 35.1327 39.7241 33.901 39.6497 33.2822C39.5803 32.7055 39.4782 31.7502 39.5247 31.4681C39.5059 31.425 39.4865 31.4094 39.4717 31.4015C39.4682 31.3996 39.4548 31.3935 39.4256 31.3935C39.3965 31.3935 39.3631 31.3995 39.3283 31.4108C39.0791 32.9482 38.405 35.8835 38.0691 37.0096C37.8976 37.5846 37.7931 38.1435 37.7092 38.5926C37.5922 39.2181 37.5271 39.5658 37.3614 39.6862C37.317 39.7995 37.2614 39.9296 37.1982 40.0775C37.0058 40.5278 36.7422 41.1446 36.6086 41.761C36.5891 41.914 36.5641 42.0696 36.536 42.2121C36.4631 42.8705 36.4578 43.8475 36.4626 44.7172C36.5274 45.123 36.5286 45.8941 36.4653 46.562C36.4915 46.9892 36.6279 47.3866 36.7599 47.7711C36.8188 47.9426 36.8744 48.1047 36.9194 48.2662C37.0516 48.6917 37.2476 49.5722 37.425 51.3292C37.5319 52.3886 37.3921 53.2824 37.2798 54.0006C37.1774 54.6556 37.0889 55.2213 37.218 55.6916C37.3123 56.0353 37.4248 56.4861 37.4612 56.9321C37.5211 57.1636 37.6078 57.4858 37.7028 57.8386C37.8786 58.4915 38.0778 59.2315 38.1928 59.7155C38.7315 61.3709 39.4651 64.4439 39.434 65.8804C39.4033 67.2935 40.158 71.7298 40.5562 73.3974C40.8521 74.6369 40.9742 76.8444 41.055 78.3052C41.0865 78.8766 41.1114 79.3279 41.137 79.5325C41.1468 79.6103 41.1533 79.6892 41.1331 79.752C41.1659 80.0755 41.2226 80.8132 41.203 81.1886C41.2576 82.7926 41.2049 86.06 40.8312 87.9495C40.6461 88.8848 40.6066 90.5331 40.5684 92.1272C40.5271 93.8472 40.4844 95.6257 40.2625 96.6405C39.8208 98.6617 38.8343 101.169 37.8619 103.565L37.8609 103.567C37.7811 104.204 37.7607 104.706 37.8001 105.061C37.8323 105.352 37.9373 105.929 38.059 106.598C38.2868 107.852 38.5705 109.412 38.6425 110.467C38.753 112.086 38.7174 115.631 38.6321 116.548C38.6486 116.805 38.6559 117.077 38.6543 117.367C38.7035 117.821 38.7997 118.31 38.8847 118.742L38.896 118.799C38.9792 118.996 39.0583 119.564 39.0902 119.813C39.1408 120.017 39.2071 120.241 39.2772 120.478C39.4348 121.012 39.6135 121.616 39.7052 122.292C39.7349 122.461 39.7617 122.65 39.778 122.804L39.7955 122.965C39.8735 123.679 40.0039 124.874 39.8901 126.709C39.7614 128.788 38.9898 132.795 38.5026 134.982C37.9839 137.31 36.9888 144.809 36.7703 146.541C36.732 146.844 36.6803 147.141 36.6166 147.422C36.5486 148.674 36.5123 150.327 36.593 151.009C36.691 151.839 36.9179 152.521 37.1372 153.181L37.216 153.418C37.4505 154.132 37.3665 154.924 36.9663 155.772C36.6531 156.436 36.8695 157.878 37.403 158.684C37.7856 159.262 38.6736 160.326 39.3221 161.103C39.5754 161.407 39.7941 161.669 39.9316 161.841C40.4645 162.508 40.6109 163.606 40.4444 164.283C40.2787 164.956 40.0085 165.219 39.4805 165.219C39.2347 165.219 39.0197 165.107 38.847 165.018C38.7312 164.957 38.6217 164.901 38.5474 164.901C38.5342 164.901 38.5227 164.902 38.5122 164.906C38.4294 164.936 38.3733 164.981 38.3083 165.034C38.2021 165.12 38.0818 165.217 37.8499 165.238C37.8358 165.24 37.822 165.241 37.808 165.241Z" fill="white" stroke="#28839F" stroke-width="0.504915"/>
<path d="M0.225332 24.6746C0.19625 24.6914 0.159656 24.6745 0.153872 24.6414C-0.259075 22.2756 -3.31511 19.2191 -1.29564 15.087C0.743164 10.9154 5.61193 9.51468 6.92041 9.72782C8.16095 9.9299 11.4256 12.0753 12.9541 12.531C13.0037 12.5458 12.9974 12.6197 12.9458 12.625C10.7579 12.8489 8.92201 12.9149 6.75134 14.4424C4.49514 16.0302 4.94965 18.0406 4.46278 19.5935C3.97979 21.134 2.71346 23.2439 0.225332 24.6746Z" fill="#28839F" fill-opacity="0.2"/>
<path d="M4.5086 20.6895C3.85943 23.1051 1.11821 24.2724 -1.1133 31.6716C-1.75052 33.7846 -2.53855 40.4714 -2.51307 43.0801C-2.50356 44.0548 -1.73204 42.8162 -1.73204 42.8162C-1.73204 42.8162 3.79604 34.879 4.48578 30.9002C5.17552 26.9215 4.5086 20.6895 4.5086 20.6895Z" fill="#28839F" fill-opacity="0.2"/>
<path d="M2.09234 24.0186C1.39816 24.8274 -0.991214 29.2153 -1.63887 31.845C-2.20479 34.1427 -3.11248 39.5005 -3.17835 43.919C-3.17997 44.0275 -3.33065 44.0533 -3.36965 43.952C-5.80697 37.623 -4.32754 31.1695 -3.39517 29.6264C-2.60513 28.3189 -0.798486 25.5004 2.09234 24.0186Z" fill="#28839F" fill-opacity="0.2"/>
<path d="M-0.909768 42.6336C-1.27112 43.2866 0.307423 44.7753 0.916025 47.5868C1.01998 48.0671 2.17379 46.2368 2.05207 43.6486C1.93035 41.0604 4.41038 34.9096 4.60817 33.2653C4.80596 31.621 4.72988 31.4688 4.72988 31.4688C2.39282 37.3802 1.17974 38.8579 -0.909768 42.6336Z" fill="#28839F" fill-opacity="0.2"/>
<path d="M-0.463655 47.5052C-1.25919 48.8485 -5.67728 60.6594 -6.42789 63.5826C-7.17849 66.5058 -7.19878 67.6832 -6.71189 67.399C-6.22502 67.1148 -0.788239 54.7319 0.0637994 52.2553C0.915837 49.7788 0.723108 48.7638 0.439105 47.83C0.155087 46.8962 -0.139069 46.9571 -0.463655 47.5052Z" fill="#28839F" fill-opacity="0.2"/>
<path d="M18.5857 12.8943C16.7695 12.4348 12.9826 12.838 11.3637 13.0567C8.58448 13.4323 6.49631 14.6414 5.76466 15.9799C5.11549 17.1674 4.64953 19.9552 5.15605 20.527C6.73841 22.3134 6.02838 27.429 11.6072 30.0273C13.4743 30.897 19.4581 30.342 20.371 29.2762C21.2838 28.2105 21.649 23.0036 21.3447 20.0195C21.0404 17.0355 20.3912 13.3511 18.5857 12.8943Z" fill="#28839F" fill-opacity="0.2"/>
<path d="M14.934 6.50011C14.0833 7.27567 12.53 8.25604 11.2418 8.79399C9.95364 9.33193 8.71616 9.60599 8.64516 9.82928C8.57416 10.0526 9.98407 10.5093 10.9578 10.8646C11.9316 11.2198 13.1995 11.4837 13.6356 11.2503C14.0718 11.0168 14.8021 8.7737 15.0151 8.1038C15.2281 7.43391 15.4716 6.64221 15.5628 6.27682C15.6541 5.91142 15.3904 6.08397 14.934 6.50011Z" fill="#28839F" fill-opacity="0.2"/>
<path d="M15.8978 5.86054C15.598 6.67031 15.0153 9.13387 14.6501 10.2148C14.285 11.2958 14.1633 11.6916 14.6197 11.8896C15.0762 12.0875 16.0651 11.4937 16.2021 11.0674C16.339 10.6411 16.339 5.93666 16.3238 5.58648C16.3086 5.23631 16.0499 5.44946 15.8978 5.86054Z" fill="#28839F" fill-opacity="0.2"/>
<path d="M16.6127 6.53013C16.6026 7.30152 16.5215 9.6969 16.7801 10.245C17.0388 10.7931 18.1951 11.5087 18.5755 11.737C18.9558 11.9654 19.443 12.11 19.4579 11.737C19.4681 11.4833 18.4671 10.0652 17.8299 8.45353C17.2822 7.06807 16.9063 5.86641 16.9018 5.86024C16.704 5.58618 16.6192 6.03872 16.6127 6.53013Z" fill="#28839F" fill-opacity="0.2"/>
<path d="M16.63 4.15997C16.7565 4.83946 17.6423 7.33428 18.3007 8.76041C18.6012 9.41128 19.5636 11.3909 19.9164 11.2852C20.2385 11.1888 18.9462 6.97945 18.5344 5.51498C17.6097 2.22641 17.3967 0.01882 16.9343 0.231965C16.5667 0.401439 16.5819 3.90115 16.63 4.15997Z" fill="#28839F" fill-opacity="0.2"/>
<path d="M20.7968 30.3418C21.3531 31.3439 21.8162 33.1889 21.8314 34.3307C21.8466 35.4726 21.2989 35.6248 20.5838 35.975C19.8687 36.3252 16.5366 38.0557 15.6237 38.8373C14.6956 39.6318 14.1631 40.1314 13.9805 38.5632C13.7979 36.9951 13.5697 35.2747 13.8588 33.5999C14.1479 31.9252 14.437 31.2705 15.1977 31.0422C15.9585 30.8138 16.9094 30.8671 18.0885 30.6311C19.2505 30.3985 20.5686 29.9307 20.7968 30.3418Z" fill="#28839F" fill-opacity="0.2"/>
<path d="M20.6598 36.5919C16.4225 38.1829 14.5372 40.6776 14.1428 41.4156C13.6762 42.2885 13.9178 44.3947 14.0515 44.76C14.1833 45.1203 15.1894 45.1591 16.0801 44.9681C17.3582 44.6941 19.6708 44.3997 20.4924 44.2982C21.314 44.1967 21.8111 43.202 21.8516 42.2682C21.8922 41.3344 21.9226 38.391 21.8516 37.8023C21.7806 37.2136 21.4254 36.3044 20.6598 36.5919Z" fill="#28839F" fill-opacity="0.2"/>
<path d="M20.695 44.9285C19.485 44.7969 15.6741 45.5984 14.9945 45.9232C14.3149 46.248 13.7773 46.8976 13.757 47.7502C13.7368 48.6028 13.9802 50.2471 14.2033 50.7343C14.4265 51.2215 15.1771 51.668 16.232 51.7087C17.2869 51.7492 19.4778 51.9117 20.4516 51.7696C21.4253 51.6274 21.6586 50.6734 21.7297 49.5975C21.8007 48.5216 21.8514 47.0904 21.7499 46.1262C21.6485 45.162 21.1616 44.9793 20.695 44.9285Z" fill="#28839F" fill-opacity="0.2"/>
<path d="M12.134 30.5951C11.2695 30.4408 8.8802 29.0409 7.99558 28.4027C6.61854 27.4092 6.99213 32.0685 9.82138 32.016C10.9168 31.9957 11.7892 31.4299 12.2152 31.2091C12.6412 30.9884 12.5322 30.6661 12.134 30.5951Z" fill="#28839F" fill-opacity="0.2"/>
<path d="M7.81457 32.2951C7.90206 33.0563 8.09514 33.6085 8.46754 34.2832C8.89609 35.0597 11.5333 33.2124 11.7095 32.7785C11.8932 32.326 11.3002 31.9563 10.709 32.1276C9.90191 32.3614 8.8758 32.219 8.33187 31.8041C7.7816 31.3844 7.77112 31.917 7.81457 32.2951Z" fill="#28839F" fill-opacity="0.2"/>
<path d="M11.8502 33.164C11.4051 33.5497 10.5315 34.1333 9.65923 34.5393C8.85156 34.9152 8.90356 35.2853 9.12164 35.5695C9.33972 35.8537 10.704 36.6149 11.201 36.8382C11.698 37.0615 12.5196 36.8788 12.6768 36.4018C12.9427 35.595 12.7714 32.3655 11.8502 33.164Z" fill="#28839F" fill-opacity="0.2"/>
<path d="M8.09739 38.5742C8.27998 39.1324 9.48702 39.9546 10.2173 40.4215C10.9477 40.8884 11.9569 41.4314 12.2967 41.1624C12.6365 40.8934 12.6467 38.3255 12.3981 37.7622C12.1496 37.1989 11.5968 37.2953 10.9375 37.0821C10.2411 36.857 10.0617 36.4808 9.29431 36.4173C8.68064 36.3666 7.84359 37.7981 8.09739 38.5742Z" fill="#28839F" fill-opacity="0.2"/>
<path d="M9.15706 40.071C9.60042 40.3853 11.8653 41.5935 12.2609 41.8371C12.6565 42.0807 12.8543 42.9333 12.976 43.9229C13.0977 44.9125 13.0233 46.0801 12.6108 46.2371C11.5306 46.6482 8.76056 43.643 8.40391 43.2378C7.95508 42.7278 7.86379 41.3727 7.83336 40.7257C7.79308 39.8692 8.42674 39.5534 9.15706 40.071Z" fill="#28839F" fill-opacity="0.2"/>
<path d="M9.11137 44.4556C9.8721 45.2929 11.6751 46.4729 12.1087 46.8459C12.5423 47.2189 12.5727 48.6805 12.5651 49.358C12.5575 50.0355 11.8805 50.5607 11.424 50.4389C10.9676 50.3171 8.6473 48.0867 8.3354 47.6985C8.0235 47.3102 7.94743 45.3005 8.07675 44.6687C8.20608 44.0369 8.59009 43.8818 9.11137 44.4556Z" fill="#28839F" fill-opacity="0.2"/>
<path d="M8.64502 48.4186C9.31026 49.174 10.8258 50.4993 11.4446 51.0575C12.0633 51.6158 12.8443 53.8995 13.0878 54.9957C13.3312 56.0919 13.2704 57.5129 12.9458 58.6497C12.6212 59.7865 13.0269 60.3549 12.824 61.2886C12.6212 62.2224 11.5257 62.872 11.0794 62.1818C10.6331 61.4916 8.90875 59.3399 7.83357 58.7309C6.75837 58.1219 7.0221 56.7618 7.30611 55.7265C7.59012 54.6912 6.90038 53.3514 7.10325 51.3417C7.30611 49.3321 7.54447 48.3907 7.69662 48.0481C7.84878 47.7055 8.19364 47.906 8.64502 48.4186Z" fill="#28839F" fill-opacity="0.2"/>
<path d="M5.20225 22.6131C5.34443 25.2316 5.04028 29.8048 5.11505 30.7588C5.1962 31.794 6.04822 35.6104 6.45396 36.9705C6.85969 38.3306 6.89012 39.5841 7.16399 39.5993C7.43785 39.6145 8.05659 36.463 8.11745 35.4277C8.17831 34.3924 7.10313 29.825 6.90026 28.201C6.69739 26.577 5.8479 23.2783 5.59686 22.6084C5.25141 21.6866 5.12056 21.1085 5.20225 22.6131Z" fill="#28839F" stroke="#28839F"/>
<path d="M19.9679 1.96212C20.2482 2.84545 20.599 3.89568 20.7055 4.97664C20.812 6.05761 21.2228 4.2154 21.2837 3.46939C21.3446 2.72336 21.2076 2.51022 20.8272 2.20573C20.4469 1.90122 19.7848 1.38526 19.9679 1.96212Z" fill="#28839F" fill-opacity="0.2"/>
<path d="M44.1671 24.6746C44.1962 24.6914 44.2328 24.6745 44.2385 24.6414C44.6515 22.2756 47.7075 19.2191 45.688 15.087C43.6493 10.9154 38.7805 9.51468 37.472 9.72782C36.2314 9.9299 32.9668 12.0753 31.4383 12.531C31.3887 12.5458 31.395 12.6197 31.4466 12.625C33.6345 12.8489 35.4704 12.9149 37.6411 14.4424C39.8973 16.0302 39.4428 18.0406 39.9296 19.5935C40.4126 21.134 41.6789 23.2439 44.1671 24.6746Z" fill="#28839F" fill-opacity="0.2"/>
<path d="M46.6016 16.5479C46.9211 18.3748 46.5261 19.995 45.8104 21.8157C45.1934 23.3853 44.5932 24.3278 44.6237 25.0738C45.2627 25.6523 46.982 27.7838 47.3623 28.271C47.1341 26.9464 47.3928 24.952 47.5754 22.7596C47.7579 20.5672 47.5601 18.4966 46.6016 16.5479Z" fill="#28839F" fill-opacity="0.2"/>
<path d="M39.8835 20.6895C40.5327 23.1051 43.2739 24.2724 45.5054 31.6716C46.1426 33.7846 46.9306 40.4714 46.9052 43.0801C46.8957 44.0548 46.1241 42.8162 46.1241 42.8162C46.1241 42.8162 40.5961 34.879 39.9063 30.9002C39.2166 26.9215 39.8835 20.6895 39.8835 20.6895Z" fill="#28839F" fill-opacity="0.2"/>
<path d="M42.3003 24.0186C42.9945 24.8274 45.3838 29.2153 46.0315 31.845C46.5974 34.1427 47.5051 39.5005 47.571 43.919C47.5726 44.0275 47.7233 44.0533 47.7623 43.952C50.1996 37.623 48.7202 31.1695 47.7878 29.6264C46.9978 28.3189 45.1911 25.5004 42.3003 24.0186Z" fill="#28839F" fill-opacity="0.2"/>
<path d="M45.303 42.6336C45.6643 43.2866 44.0858 44.7753 43.4772 47.5868C43.3732 48.0671 42.2194 46.2368 42.3411 43.6486C42.4628 41.0604 39.9828 34.9096 39.785 33.2653C39.5872 31.621 39.6633 31.4688 39.6633 31.4688C42.0004 37.3802 43.2134 38.8579 45.303 42.6336Z" fill="#28839F" fill-opacity="0.2"/>
<path d="M49.1982 39.7111C48.8062 41.7843 48.2244 44.8266 48.7113 46.8566C49.1982 48.8866 53.2961 63.6242 53.9047 65.4918C54.5133 67.3594 54.3915 65.4309 54.1887 63.7054C53.9858 61.9799 54.1481 52.5405 53.7424 49.3738C53.3366 46.207 51.9977 42.2891 50.8211 40.8884C49.6445 39.4877 49.3402 38.96 49.1982 39.7111Z" fill="#28839F" fill-opacity="0.2"/>
<path d="M46.1653 43.7908C47.983 45.155 48.3359 47.0895 48.7619 48.5816C49.188 50.0736 52.733 63.0299 53.0525 64.3849C53.3721 65.74 53.4786 67.3538 52.9917 66.7296C52.5048 66.1054 48.0468 53.0881 46.6927 50.2563C45.3386 47.4245 44.6631 46.5127 44.9177 45.3539C45.1205 44.4302 45.4958 43.2884 46.1653 43.7908Z" fill="#28839F" fill-opacity="0.2"/>
<path d="M44.8563 47.5052C45.6519 48.8485 50.07 60.6594 50.8206 63.5826C51.5712 66.5058 51.5915 67.6832 51.1046 67.399C50.6177 67.1148 45.1809 54.7319 44.3289 52.2553C43.4769 49.7788 43.6696 48.7638 43.9536 47.83C44.2376 46.8962 44.5318 46.9571 44.8563 47.5052Z" fill="#28839F" fill-opacity="0.2"/>
<path d="M25.8075 12.8943C27.6238 12.4348 31.4107 12.838 33.0295 13.0567C35.8088 13.4323 37.897 14.6414 38.6286 15.9799C39.2778 17.1674 39.7437 19.9552 39.2372 20.527C37.6549 22.3134 38.3649 27.429 32.7861 30.0273C30.919 30.897 24.9352 30.342 24.0223 29.2762C23.1094 28.2105 22.7443 23.0036 23.0486 20.0195C23.3529 17.0355 24.002 13.3511 25.8075 12.8943Z" fill="#28839F" fill-opacity="0.2"/>
<path d="M29.4593 6.50011C30.31 7.27567 31.8633 8.25604 33.1515 8.79399C34.4397 9.33193 35.6772 9.60599 35.7482 9.82928C35.8192 10.0526 34.4093 10.5093 33.4355 10.8646C32.4617 11.2198 31.1938 11.4837 30.7577 11.2503C30.3215 11.0168 29.5912 8.7737 29.3782 8.1038C29.1652 7.43391 28.9218 6.64221 28.8305 6.27682C28.7392 5.91142 29.0029 6.08397 29.4593 6.50011Z" fill="#28839F" fill-opacity="0.2"/>
<path d="M28.4957 5.86054C28.7954 6.67031 29.3781 9.13387 29.7433 10.2148C30.1084 11.2958 30.2302 11.6916 29.7737 11.8896C29.3173 12.0875 28.3283 11.4937 28.1914 11.0674C28.0544 10.6411 28.0544 5.93666 28.0696 5.58648C28.0849 5.23631 28.3435 5.44946 28.4957 5.86054Z" fill="#28839F" fill-opacity="0.2"/>
<path d="M27.7803 6.53013C27.7905 7.30152 27.8716 9.6969 27.613 10.245C27.3543 10.7931 26.198 11.5087 25.8176 11.737C25.4372 11.9654 24.95 12.11 24.9351 11.737C24.925 11.4833 25.9259 10.0652 26.5631 8.45353C27.1109 7.06807 27.4868 5.86641 27.4912 5.86024C27.689 5.58618 27.7739 6.03872 27.7803 6.53013Z" fill="#28839F" fill-opacity="0.2"/>
<path d="M27.7627 4.15997C27.6362 4.83946 26.7505 7.33428 26.092 8.76041C25.7915 9.41128 24.8291 11.3909 24.4763 11.2852C24.1542 11.1888 25.4465 6.97945 25.8583 5.51498C26.783 2.22641 26.996 0.01882 27.4584 0.231965C27.826 0.401439 27.8109 3.90115 27.7627 4.15997Z" fill="#28839F" fill-opacity="0.2"/>
<path d="M23.5964 30.3418C23.0401 31.3439 22.577 33.1889 22.5618 34.3307C22.5466 35.4726 23.0943 35.6248 23.8095 35.975C24.5245 36.3252 27.8566 38.0557 28.7695 38.8373C29.6976 39.6318 30.2301 40.1314 30.4127 38.5632C30.5953 36.9951 30.8235 35.2747 30.5344 33.5999C30.2453 31.9252 29.9563 31.2705 29.1955 31.0422C28.4348 30.8138 27.4838 30.8671 26.3047 30.6311C25.1427 30.3985 23.8247 29.9307 23.5964 30.3418Z" fill="#28839F" fill-opacity="0.2"/>
<path d="M23.733 36.5919C27.9703 38.1829 29.8555 40.6776 30.25 41.4156C30.7166 42.2885 30.475 44.3947 30.3413 44.76C30.2094 45.1203 29.2034 45.1591 28.3126 44.9681C27.0346 44.6941 24.7219 44.3997 23.9003 44.2982C23.0787 44.1967 22.5817 43.202 22.5411 42.2682C22.5006 41.3344 22.4701 38.391 22.5411 37.8023C22.6121 37.2136 22.9673 36.3044 23.733 36.5919Z" fill="#28839F" fill-opacity="0.2"/>
<path d="M23.6975 44.9285C24.9075 44.7969 28.7184 45.5984 29.398 45.9232C30.0776 46.248 30.6152 46.8976 30.6355 47.7502C30.6558 48.6028 30.4123 50.2471 30.1892 50.7343C29.966 51.2215 29.2154 51.668 28.1605 51.7087C27.1056 51.7492 24.9147 51.9117 23.9409 51.7696C22.9672 51.6274 22.7339 50.6734 22.6629 49.5975C22.5919 48.5216 22.5411 47.0904 22.6426 46.1262C22.744 45.162 23.2309 44.9793 23.6975 44.9285Z" fill="#28839F" fill-opacity="0.2"/>
<path d="M32.2585 30.5951C33.123 30.4408 35.5123 29.0409 36.3969 28.4027C37.774 27.4092 37.4004 32.0685 34.5711 32.016C33.4757 31.9957 32.6034 31.4299 32.1773 31.2091C31.7513 30.9884 31.8604 30.6661 32.2585 30.5951Z" fill="#28839F" fill-opacity="0.2"/>
<path d="M36.5784 32.2951C36.4909 33.0563 36.2978 33.6085 35.9254 34.2832C35.4968 35.0597 32.8596 33.2124 32.6834 32.7785C32.4997 32.326 33.0927 31.9563 33.6839 32.1276C34.491 32.3614 35.5171 32.219 36.061 31.8041C36.6113 31.3844 36.6218 31.917 36.5784 32.2951Z" fill="#28839F" fill-opacity="0.2"/>
<path d="M32.5429 33.164C32.988 33.5497 33.8615 34.1333 34.7338 34.5393C35.5415 34.9152 35.4895 35.2853 35.2714 35.5695C35.0533 35.8537 33.6891 36.6149 33.192 36.8382C32.695 37.0615 31.8734 36.8788 31.7162 36.4018C31.4503 35.595 31.6217 32.3655 32.5429 33.164Z" fill="#28839F" fill-opacity="0.2"/>
<path d="M36.2954 38.5742C36.1128 39.1324 34.9058 39.9546 34.1754 40.4215C33.4451 40.8884 32.4359 41.4314 32.0961 41.1624C31.7563 40.8934 31.7461 38.3255 31.9946 37.7622C32.2432 37.1989 32.796 37.2953 33.4553 37.0821C34.1517 36.857 34.3311 36.4808 35.0985 36.4173C35.7122 36.3666 36.5492 37.7981 36.2954 38.5742Z" fill="#28839F" fill-opacity="0.2"/>
<path d="M35.2352 40.071C34.7918 40.3853 32.527 41.5935 32.1314 41.8371C31.7358 42.0807 31.538 42.9333 31.4163 43.9229C31.2946 44.9125 31.369 46.0801 31.7814 46.2371C32.8617 46.6482 35.6317 43.643 35.9883 43.2378C36.4372 42.7278 36.5285 41.3727 36.5589 40.7257C36.5992 39.8692 35.9655 39.5534 35.2352 40.071Z" fill="#28839F" fill-opacity="0.2"/>
<path d="M35.2814 44.4556C34.5206 45.2929 32.7177 46.4729 32.284 46.8459C31.8504 47.2189 31.82 48.6805 31.8276 49.358C31.8352 50.0355 32.5123 50.5607 32.9687 50.4389C33.4251 50.3171 35.7454 48.0867 36.0573 47.6985C36.3692 47.3102 36.4453 45.3005 36.316 44.6687C36.1866 44.0369 35.8026 43.8818 35.2814 44.4556Z" fill="#28839F" fill-opacity="0.2"/>
<path d="M35.7478 48.4186C35.0825 49.174 33.567 50.4993 32.9482 51.0575C32.3295 51.6158 31.5485 53.8995 31.305 54.9957C31.0616 56.0919 31.1224 57.5129 31.447 58.6497C31.7716 59.7865 31.3659 60.3549 31.5687 61.2886C31.7716 62.2224 32.8671 62.872 33.3134 62.1818C33.7597 61.4916 35.484 59.3399 36.5592 58.7309C37.6344 58.1219 37.3707 56.7618 37.0867 55.7265C36.8027 54.6912 37.4924 53.3514 37.2895 51.3417C37.0867 49.3321 36.8483 48.3907 36.6962 48.0481C36.544 47.7055 36.1991 47.906 35.7478 48.4186Z" fill="#28839F" fill-opacity="0.2"/>
<path d="M39.1906 22.6131C39.0485 25.2316 39.3526 29.8048 39.2779 30.7588C39.1967 31.794 38.3447 35.6104 37.9389 36.9705C37.5332 38.3306 37.5028 39.5841 37.2289 39.5993C36.955 39.6145 36.3363 36.463 36.2754 35.4277C36.2146 34.3924 37.2898 29.825 37.4926 28.201C37.6955 26.577 38.545 23.2783 38.796 22.6084C39.1415 21.6866 39.2723 21.1085 39.1906 22.6131Z" fill="#28839F" stroke="#28839F"/>
<path d="M24.4254 1.96212C24.1451 2.84545 23.7943 3.89568 23.6878 4.97664C23.5812 6.05761 23.1704 4.2154 23.1096 3.46939C23.0487 2.72336 23.1857 2.51022 23.566 2.20573C23.9464 1.90122 24.6085 1.38526 24.4254 1.96212Z" fill="#28839F" fill-opacity="0.2"/>
</g>
<defs>
<clipPath id="clip0_4055_11879">
<rect width="61" height="48" fill="white"/>
</clipPath>
</defs>
</svg>
