<svg width="61" height="48" viewBox="0 0 61 48" fill="none" xmlns="http://www.w3.org/2000/svg">
<g clip-path="url(#clip0_4055_7500)">
<path d="M43.8058 53.233C43.6222 53.233 43.4739 53.1258 43.3305 53.0221C43.2116 52.9361 43.0992 52.8548 42.9914 52.8548C42.9728 52.8548 42.9546 52.8572 42.936 52.8619C42.8132 52.8936 42.7456 52.9465 42.6674 53.0076C42.5567 53.0941 42.4314 53.1923 42.1771 53.1923C42.1603 53.1923 42.1427 53.1918 42.1246 53.1909C41.8874 53.1793 41.7392 53.0792 41.6084 52.9909C41.4879 52.9094 41.3928 52.8451 41.2338 52.8451C41.2243 52.8451 41.2145 52.8454 41.2045 52.8458C41.0376 52.8538 40.9414 52.9103 40.8194 52.9818C40.6669 53.0714 40.494 53.1729 40.171 53.1909C40.1486 53.1921 40.1266 53.1927 40.1047 53.1927C39.8033 53.1927 39.5441 53.0774 39.3153 52.9757C39.1232 52.8902 38.9416 52.8094 38.7608 52.8054L38.7459 52.8052C38.5611 52.8052 38.334 52.8804 38.0936 52.9599C37.7948 53.0588 37.4561 53.1709 37.1046 53.1709L37.0778 53.1707C36.2305 53.1571 35.749 52.7207 35.6467 51.8736C35.5924 51.4243 35.7415 50.938 35.8857 50.4677C36.0525 49.9238 36.2249 49.3614 36.096 48.8454C35.8236 47.7549 35.6672 46.3527 35.7067 45.3561C35.7337 44.672 35.5211 43.7502 35.3336 42.9369C35.2434 42.5453 35.1581 42.1755 35.1 41.8428C34.9787 41.1485 35.4867 39.9306 35.9349 38.856C36.1803 38.2676 36.412 37.7119 36.4588 37.4136C36.5085 37.0954 36.5116 36.021 36.4677 34.2202C36.3824 33.7848 36.3225 32.3354 36.2902 31.5533C36.2819 31.3534 36.2755 31.1971 36.2709 31.1128C36.2667 31.0352 36.2487 30.6542 36.2887 30.4565L36.2187 29.926C36.0793 28.8643 35.9476 27.8614 35.8329 27.432C35.8329 27.432 35.6511 26.7557 35.5987 26.5585C35.541 26.4679 35.4894 26.356 35.4414 26.2172C35.3429 25.9323 35.24 25.5374 35.1312 25.1193C34.9303 24.3479 34.7027 23.4737 34.4146 22.9163C34.1489 22.4024 33.9949 21.7247 33.944 20.8449C33.8628 20.4374 33.794 19.9695 33.7395 19.4539C33.4781 16.9776 33.7667 13.5005 34.0662 12.0436C34.2168 11.3107 34.4525 10.4235 34.6604 9.64079C34.859 8.89311 35.0466 8.18684 35.1202 7.7645C35.196 7.32999 35.2129 7.08429 35.2231 6.93753C35.2297 6.84198 35.2341 6.77837 35.2528 6.72777C35.2276 6.59338 35.2004 6.44131 35.1714 6.27795C35.1231 6.00787 35.0688 5.70316 35.0087 5.39828C34.881 5.24669 34.7953 4.94502 34.68 4.53969C34.5778 4.1803 34.4507 3.73302 34.2635 3.29875C33.8274 2.2879 33.2886 -1.05019 33.2381 -2.63753C33.1867 -4.25172 32.9153 -6.83989 32.593 -8.11983C32.3057 -9.26102 32.0018 -12.0008 32.0309 -13.1851C32.0055 -13.4418 31.9801 -13.6834 31.9546 -13.8955C31.9278 -14.1195 31.9096 -14.4031 31.9005 -14.739C31.843 -14.8692 31.7546 -15.0531 31.6279 -15.2317C31.4621 -15.4654 31.3089 -15.7856 31.1726 -16.1832C30.9593 -16.7283 30.7103 -17.775 30.6309 -18.4635C30.5015 -19.5858 29.6802 -24.5351 29.2056 -26.1129C28.6641 -27.9135 29.0349 -31.544 29.0789 -31.952C29.0936 -32.0881 29.1072 -32.2227 29.1205 -32.3548C29.159 -32.7386 29.1956 -33.1022 29.253 -33.4259C29.0991 -33.6649 28.9719 -33.9164 28.8659 -34.1915C28.6216 -34.2588 28.3776 -34.2772 28.276 -34.2772H28.1137C28.0122 -34.2772 27.7683 -34.2588 27.5239 -34.1915C27.4179 -33.9164 27.2907 -33.6648 27.1367 -33.4259C27.1943 -33.1017 27.2308 -32.7376 27.2694 -32.3533C27.2827 -32.2216 27.2961 -32.0875 27.3108 -31.952C27.3549 -31.544 27.7259 -27.9139 27.1841 -26.1129C26.7095 -24.5349 25.8882 -19.5857 25.7588 -18.4634C25.6795 -17.7751 25.4306 -16.7284 25.2153 -16.1779C25.0808 -15.7854 24.9276 -15.4652 24.7619 -15.2317C24.6347 -15.0525 24.5465 -14.8688 24.4892 -14.739C24.4802 -14.4036 24.462 -14.1199 24.4351 -13.8955C24.4097 -13.6834 24.3842 -13.4417 24.3589 -13.1852C24.388 -12.0009 24.0841 -9.26099 23.7968 -8.11981C23.4746 -6.84019 23.2031 -4.25206 23.1517 -2.63753C23.1011 -1.05006 22.5623 2.28812 22.1263 3.29883C21.939 3.73309 21.8119 4.1803 21.7097 4.53969C21.5945 4.94508 21.5088 5.24669 21.381 5.39828C21.3209 5.70316 21.2665 6.00787 21.2184 6.27808C21.1892 6.44138 21.1621 6.59337 21.1369 6.72774C21.1556 6.77835 21.16 6.84198 21.1667 6.93759C21.1768 7.08434 21.1938 7.32994 21.2695 7.76448C21.3431 8.1869 21.5307 8.89336 21.7294 9.64125C21.9373 10.4238 22.173 11.3108 22.3236 12.0435C22.6231 13.5009 22.9117 16.9783 22.6502 19.4539C22.5956 19.9705 22.5266 20.4425 22.4452 20.8568C22.3934 21.7309 22.2397 22.4046 21.9752 22.9163C21.687 23.4737 21.4594 24.348 21.2586 25.1193C21.1497 25.5374 21.0469 25.9323 20.9483 26.2172C20.9004 26.3559 20.8488 26.468 20.7911 26.5586C20.7388 26.7552 20.5569 27.432 20.5569 27.432C20.4421 27.8615 20.3104 28.8645 20.171 29.9264L20.1011 30.4564C20.1411 30.6543 20.1231 31.0352 20.1188 31.1128C20.1142 31.1971 20.1078 31.3535 20.0995 31.5535C20.0672 32.3355 20.0073 33.7848 19.9221 34.2201C19.8782 36.0212 19.8812 37.0957 19.931 37.4136C19.9777 37.7119 20.2095 38.2676 20.4549 38.8559C20.9031 39.9305 21.4111 41.1484 21.2897 41.8427C21.2317 42.1755 21.1464 42.5452 21.0561 42.9367C20.8686 43.75 20.656 44.6719 20.6831 45.3561C20.7226 46.3529 20.5661 47.7552 20.2938 48.8454C20.1648 49.3615 20.3373 49.9238 20.5041 50.4678C20.6483 50.938 20.7974 51.4243 20.7431 51.8735C20.6407 52.7206 20.1592 53.1571 19.3119 53.1707L19.2852 53.1709C18.9337 53.1709 18.595 53.0588 18.2961 52.9599C18.0557 52.8803 17.8286 52.8051 17.6439 52.8051L17.629 52.8053C17.4481 52.8093 17.2665 52.8901 17.0744 52.9756C16.8457 53.0774 16.5865 53.1927 16.285 53.1927C16.2631 53.1927 16.241 53.1921 16.2187 53.1909C15.8957 53.1729 15.7229 53.0714 15.5703 52.9819C15.4485 52.9103 15.3522 52.8538 15.1852 52.8458C15.1752 52.8454 15.1655 52.8451 15.1559 52.8451C14.997 52.8451 14.9018 52.9094 14.7814 52.9908C14.6506 53.0791 14.5023 53.1793 14.2652 53.1909C14.247 53.1918 14.2295 53.1922 14.2128 53.1922C13.9583 53.1922 13.8329 53.0941 13.7223 53.0076C13.6441 52.9464 13.5765 52.8936 13.4538 52.8619C13.4351 52.8571 13.417 52.8548 13.3983 52.8548C13.2905 52.8548 13.1782 52.9361 13.0592 53.0221C12.9158 53.1258 12.7675 53.233 12.5839 53.233C12.57 53.233 12.5559 53.2323 12.5418 53.231C12.31 53.2093 12.1896 53.1121 12.0834 53.0264C12.0185 52.9739 11.9624 52.9286 11.8795 52.8988C11.8691 52.895 11.8575 52.8931 11.8444 52.8931C11.7701 52.8931 11.6607 52.9499 11.5448 53.0101C11.3721 53.0998 11.1572 53.2113 10.9114 53.2113C10.3834 53.2113 10.1132 52.9489 9.94743 52.2754C9.78099 51.5986 9.92731 50.5002 10.4603 49.8336C10.5979 49.6614 10.8169 49.3989 11.0705 49.095C11.7187 48.3182 12.6064 47.2544 12.9888 46.6768C13.5223 45.871 13.7387 44.4289 13.4255 43.7653C13.0253 42.9172 12.9412 42.1252 13.1758 41.4114L13.2546 41.1736C13.4739 40.5138 13.7008 39.8315 13.7988 39.002C13.8794 38.3208 13.8431 36.668 13.7752 35.4154C13.7116 35.1344 13.6598 34.838 13.6214 34.5338C13.4576 33.2363 12.6786 27.3307 12.1314 24.2268C11.9549 23.7787 11.8068 23.2159 11.6759 22.719C11.6158 22.4904 11.5589 22.2747 11.5048 22.0904C11.1938 21.0322 10.5493 17.3847 10.3645 16.0417C10.1706 14.6321 10.3126 11.9551 10.4045 11.0762C10.4776 10.3773 10.6732 8.98271 11.1612 7.49557C11.524 6.39011 11.5391 5.55206 11.5502 4.94016C11.5526 4.8071 11.5549 4.68336 11.5602 4.56821C11.5703 4.35159 11.6234 4.13025 11.7224 3.89233C11.7059 3.47139 11.6931 2.91505 11.6863 2.32083C11.611 1.52448 11.5909 -0.657822 11.6464 -2.07375C11.6872 -3.11299 12.0348 -4.58584 12.3141 -5.76924C12.4325 -6.27077 12.5349 -6.70443 12.5997 -7.04166C12.6264 -7.39107 12.6032 -7.86082 12.5308 -8.43843L12.5297 -8.44122C11.5575 -10.8358 10.5712 -13.3434 10.1293 -15.3645C9.90742 -16.3793 9.86471 -18.1575 9.82338 -19.8772C9.80577 -20.6093 9.78756 -21.3663 9.75566 -22.0422C9.36675 -24.9197 9.01278 -28.2492 8.98388 -29.301C8.96108 -30.1259 9.10348 -31.8615 9.32236 -33.4277L9.33711 -33.702C9.41785 -35.1618 9.5399 -37.3679 9.83574 -38.6068C10.2339 -40.2743 10.9885 -44.7104 10.9578 -46.1235C10.9267 -47.5599 11.6603 -50.6328 12.2019 -52.2989C12.3138 -52.7717 12.5128 -53.5106 12.6882 -54.1624C12.7556 -54.4127 12.8189 -54.6478 12.8714 -54.846C12.6306 -55.3069 12.825 -60.4054 12.9968 -60.9606C13.0421 -61.38 13.0911 -61.7692 13.1426 -62.1199C13.1077 -62.169 13.1158 -62.2087 13.2255 -62.6365C13.3033 -63.0887 13.3875 -63.4639 13.4735 -63.7408C13.5173 -63.8985 13.5729 -64.0606 13.6319 -64.2322C13.7639 -64.6166 13.9003 -65.0141 13.9264 -65.4413C13.8632 -66.1092 13.8644 -66.8801 13.9291 -67.286C13.9318 -67.7704 13.9321 -68.3933 13.9112 -68.9522C13.8344 -69.1561 13.7538 -69.3572 13.6658 -69.5768C13.5662 -69.8253 13.4573 -70.0973 13.3338 -70.423C12.8946 -71.5816 12.3425 -73.6291 11.8087 -75.6092C11.5251 -76.661 11.2571 -77.6545 11.0179 -78.4714C10.944 -78.7237 10.8724 -78.988 10.8034 -79.2623C10.786 -79.0956 10.7656 -78.9149 10.7422 -78.7206C10.6678 -78.1018 10.2806 -76.8699 9.83211 -75.4436C9.06544 -73.005 8.11133 -69.9699 8.18708 -68.3603C8.28031 -66.3769 7.63244 -64.8076 7.2432 -64.3611C7.14911 -63.9439 7.07282 -63.6477 7.01037 -63.457C6.99164 -63.3365 6.97329 -63.2155 6.95489 -63.0942C6.89282 -62.6848 6.82858 -62.2613 6.74996 -61.8582C6.66159 -61.2437 6.47865 -60.5365 6.19173 -59.7028C5.90329 -58.8642 5.05343 -56.7946 3.91811 -54.1658C3.7676 -53.6785 3.60042 -53.1441 3.42361 -52.5789C2.28298 -48.9323 0.720738 -43.9381 0.681464 -42.1651C0.67017 -41.657 0.954763 -40.8794 1.42481 -39.6594C1.94635 -38.3055 1.85611 -35.6467 0.661529 -33.386C0.153337 -32.4241 -0.296774 -30.9536 -0.731997 -29.5315C-1.1548 -28.1502 -1.55408 -26.8456 -1.94845 -26.2588C-2.18328 -25.9094 -2.42641 -25.7322 -2.67093 -25.7322C-2.92098 -25.7322 -3.10902 -25.9137 -3.23613 -26.1C-3.43381 -25.0882 -3.89196 -23.2743 -4.65392 -23.1357C-4.70848 -23.1257 -4.76216 -23.1207 -4.81347 -23.1207C-5.18862 -23.1207 -5.4618 -23.3801 -5.5992 -23.8494C-5.83643 -23.0405 -6.27105 -21.9558 -6.89559 -21.9558L-6.91579 -21.9562C-7.79508 -21.9883 -7.821 -23.1433 -7.781 -24.4447C-7.85063 -24.4059 -7.9295 -24.3857 -8.01555 -24.3857C-8.59138 -24.3857 -9.28343 -25.2508 -9.41267 -26.1324C-9.73248 -28.3141 -9.52058 -30.9278 -9.36588 -32.8362C-9.2898 -33.774 -9.21146 -34.7408 -9.27592 -35.0142C-9.39446 -34.9046 -9.54562 -34.7087 -9.7184 -34.4849C-10.0429 -34.0646 -10.4466 -33.5416 -10.9202 -33.2157C-11.3044 -32.9511 -11.7624 -32.8114 -12.2446 -32.8114C-13.0014 -32.8114 -13.6675 -33.1533 -13.8284 -33.6243C-13.8892 -33.8023 -13.924 -34.153 -13.4743 -34.5012C-12.3022 -35.4089 -10.0557 -38.6878 -9.25711 -40.6562C-8.7246 -41.9688 -7.74371 -42.4039 -6.95558 -42.7535C-6.48507 -42.9622 -6.07874 -43.1424 -5.87848 -43.4589C-5.48525 -44.0802 -4.91931 -46.7459 -4.19637 -51.3819C-4.09304 -52.5185 -4.00845 -53.2585 -3.93118 -53.7022C-3.88533 -53.9651 -3.83762 -54.259 -3.78892 -54.5708C-3.75444 -57.5996 -3.69942 -60.9691 -3.48446 -62.6468C-3.07142 -65.8713 -1.71961 -69.7892 -0.532539 -71.2022C-0.362965 -71.404 -0.211598 -71.5876 -0.0763178 -71.7517C0.335051 -72.2505 0.589418 -72.5589 0.781446 -72.6898C0.951619 -72.9178 1.09707 -73.3457 1.21402 -73.9626C1.04856 -76.4332 1.31569 -79.0934 1.92926 -81.0858C2.01618 -81.9127 2.08614 -82.5638 2.12933 -82.8065C2.27099 -83.6026 2.1191 -84.3705 1.9971 -84.9877C1.93929 -85.2801 1.88932 -85.5327 1.88381 -85.7324C1.87019 -86.2219 1.78281 -86.8682 1.65045 -87.8464C1.58833 -88.306 1.51656 -88.8363 1.43855 -89.4541C1.16904 -91.5889 1.56719 -94.1501 2.50364 -96.3053C3.60621 -98.8429 4.84385 -100.205 6.77547 -101.005C7.2713 -101.211 8.18036 -101.318 8.82205 -101.318C8.86337 -101.318 8.90404 -101.318 8.94405 -101.317C10.5032 -102.138 11.8991 -102.431 12.624 -102.431C12.7366 -102.431 12.8383 -102.424 12.9267 -102.41C12.9684 -102.412 13.0124 -102.414 13.0586 -102.414C13.1493 -102.414 13.2488 -102.41 13.3456 -102.404C13.3761 -102.722 13.7893 -102.957 14.2826 -103.204C14.9683 -103.547 15.6835 -103.86 16.4083 -104.136C17.2461 -104.455 18.0884 -104.718 19.0953 -105.015C19.2184 -105.051 19.3425 -105.086 19.4666 -105.12C20.1926 -105.322 20.8782 -105.512 21.3795 -106.059C21.5228 -106.215 21.6432 -106.388 21.7706 -106.572C21.8311 -106.658 21.8917 -106.745 21.9545 -106.83C22.1485 -107.092 22.3491 -107.362 22.4575 -107.667C22.509 -107.812 22.4963 -107.976 22.4827 -108.15C22.477 -108.224 22.4712 -108.299 22.4702 -108.372C22.4668 -108.607 22.467 -108.855 22.4708 -109.13C22.478 -109.649 22.494 -110.262 22.5574 -110.873C22.5449 -111.045 22.5321 -111.133 22.5235 -111.176C22.5074 -111.256 22.4942 -111.338 22.4805 -111.422C22.4179 -111.806 22.347 -112.241 21.9353 -112.855C21.5836 -113.379 21.4863 -114.598 21.4666 -115.527C21.4628 -115.707 21.3163 -115.853 21.1401 -115.853C21.1171 -115.853 21.0939 -115.851 21.071 -115.846C20.9662 -115.823 20.8565 -115.811 20.7537 -115.811C20.4768 -115.811 20.248 -115.895 20.0921 -116.054C19.9313 -116.218 19.8526 -116.454 19.8583 -116.755C19.8784 -117.806 19.6645 -118.417 19.4759 -118.955C19.3807 -119.227 19.2909 -119.483 19.2368 -119.772C19.1407 -120.285 19.0823 -120.974 19.3492 -121.347C19.4542 -121.493 19.5982 -121.581 19.7774 -121.606C19.8212 -121.613 19.8664 -121.616 19.9116 -121.616C20.0601 -121.616 20.2154 -121.582 20.3732 -121.515C20.3948 -121.506 20.417 -121.501 20.4394 -121.501C20.4873 -121.501 20.5349 -121.523 20.5697 -121.56C20.6053 -121.599 20.6228 -121.649 20.6188 -121.701C20.5033 -123.24 20.3978 -127.029 21.9106 -128.97C23.7094 -131.278 26.4761 -131.745 27.5822 -131.839C27.7251 -131.851 27.8977 -131.864 28.136 -131.864C28.3148 -131.864 28.5086 -131.857 28.7122 -131.841C29.8385 -131.758 32.6551 -131.31 34.4793 -128.97C35.9921 -127.028 35.8865 -123.24 35.7709 -121.701C35.767 -121.649 35.7845 -121.599 35.8202 -121.56C35.855 -121.523 35.9024 -121.501 35.9505 -121.501C35.9728 -121.501 35.995 -121.506 36.0166 -121.515C36.1744 -121.582 36.3297 -121.616 36.4782 -121.616C36.5234 -121.616 36.5686 -121.613 36.6125 -121.606C36.7916 -121.581 36.9356 -121.493 37.0406 -121.347C37.3075 -120.974 37.249 -120.285 37.1529 -119.772C37.0989 -119.483 37.009 -119.227 36.9139 -118.955C36.7252 -118.417 36.5114 -117.806 36.5315 -116.755C36.5372 -116.454 36.4585 -116.218 36.2977 -116.054C36.1418 -115.895 35.913 -115.811 35.6362 -115.811C35.5333 -115.811 35.4235 -115.823 35.3187 -115.846C35.2959 -115.851 35.2727 -115.853 35.2497 -115.853C35.0736 -115.853 34.927 -115.707 34.9233 -115.527C34.9035 -114.597 34.806 -113.379 34.4545 -112.855C34.0428 -112.241 33.9719 -111.806 33.9093 -111.422C33.8957 -111.338 33.8824 -111.256 33.8664 -111.176C33.8577 -111.133 33.8449 -111.045 33.8324 -110.873C33.9171 -110.058 33.925 -109.256 33.9216 -108.579C33.9211 -108.483 33.9159 -108.386 33.9107 -108.289C33.9034 -108.152 33.8965 -108.022 33.9025 -107.895C33.9177 -107.575 34.1492 -107.24 34.3534 -106.944C34.3825 -106.902 34.4109 -106.861 34.4379 -106.821C34.7 -106.433 34.9711 -106.032 35.3392 -105.743C35.6396 -105.508 35.9978 -105.402 36.3769 -105.289L36.7073 -105.189C38.5084 -104.64 40.3708 -104.072 42.1072 -103.204L42.2133 -103.151C42.4365 -103.043 42.6895 -102.919 42.8652 -102.735C42.9588 -102.638 43.0183 -102.52 43.0372 -102.403C43.2097 -102.411 43.3691 -102.415 43.521 -102.415C44.1146 -102.415 44.624 -102.355 45.1239 -102.226C45.8959 -102.028 46.6768 -101.722 47.4457 -101.317C47.4857 -101.318 47.5264 -101.318 47.5677 -101.318C48.2094 -101.318 49.1185 -101.211 49.6142 -101.005C51.5459 -100.205 52.7836 -98.8429 53.8862 -96.3053C54.8226 -94.1502 55.2207 -91.5891 54.9513 -89.4541C54.8732 -88.8361 54.8014 -88.3055 54.7393 -87.8458C54.607 -86.8679 54.5196 -86.2219 54.506 -85.7324C54.5004 -85.5327 54.4505 -85.2801 54.3927 -84.9877C54.2707 -84.3706 54.1188 -83.6026 54.2604 -82.8065C54.3037 -82.5639 54.3736 -81.9131 54.4604 -81.0866C55.0815 -79.0715 55.347 -76.3836 55.1715 -73.8888C55.2846 -73.3069 55.4286 -72.9056 55.6 -72.6951C55.7934 -72.5674 56.0506 -72.2556 56.4674 -71.7501C56.6023 -71.5865 56.7533 -71.4035 56.9224 -71.2022C58.1094 -69.7891 59.4612 -65.8712 59.8743 -62.6469C60.0893 -60.969 60.1443 -57.5997 60.1788 -54.5708C60.2274 -54.259 60.2751 -53.9651 60.3209 -53.7023C60.3973 -53.2638 60.4844 -52.5019 60.5872 -51.3733C61.3091 -46.7459 61.8751 -44.0802 62.2683 -43.4589C62.4686 -43.1424 62.8749 -42.9622 63.3454 -42.7535C64.1335 -42.4039 65.1144 -41.9689 65.6469 -40.6563C66.4454 -38.6878 68.692 -35.409 69.8641 -34.5012C70.3139 -34.153 70.279 -33.8023 70.2182 -33.6243C70.0574 -33.1533 69.3913 -32.8114 68.6344 -32.8114C68.1522 -32.8114 67.6942 -32.9512 67.3099 -33.2157C66.8365 -33.5416 66.4327 -34.0646 66.1083 -34.4847C65.9356 -34.7086 65.7843 -34.9045 65.6657 -35.0142C65.6014 -34.7407 65.6797 -33.7741 65.7557 -32.8367C65.9104 -30.9281 66.1223 -28.3142 65.8025 -26.1325C65.6733 -25.2509 64.9812 -24.3858 64.4053 -24.3858C64.3198 -24.3858 64.2412 -24.4058 64.1719 -24.4442C64.2106 -23.143 64.1834 -21.9884 63.3056 -21.9562L63.2854 -21.9559C62.6608 -21.9559 62.2262 -23.0406 61.989 -23.8496C61.8516 -23.3803 61.5784 -23.1208 61.2033 -23.1208C61.152 -23.1208 61.0983 -23.1258 61.0437 -23.1357C60.282 -23.2744 59.8237 -25.0882 59.626 -26.1C59.4988 -25.9138 59.3107 -25.7323 59.0607 -25.7323C58.8162 -25.7323 58.5731 -25.9095 58.3383 -26.2589C57.9439 -26.8457 57.5446 -28.1503 57.1218 -29.5315C56.6865 -30.9537 56.2365 -32.4242 55.7282 -33.3861C54.5337 -35.647 54.4434 -38.3057 54.965 -39.6595C55.4351 -40.8796 55.7197 -41.6572 55.7084 -42.1652C55.6692 -43.938 54.1072 -48.9315 52.9666 -52.5776C52.7897 -53.1432 52.6223 -53.6781 52.4717 -54.1658C51.3364 -56.7948 50.4865 -58.8645 50.1981 -59.7029C49.9111 -60.5368 49.7282 -61.244 49.6387 -61.8651C49.5613 -62.2613 49.4971 -62.6845 49.435 -63.0937C49.4166 -63.2151 49.3982 -63.3364 49.3795 -63.457C49.317 -63.6476 49.2407 -63.9438 49.1466 -64.3612C48.7574 -64.8076 48.1095 -66.377 48.2028 -68.3604C48.2785 -69.9701 47.3243 -73.0052 46.5576 -75.444C46.1092 -76.8702 45.722 -78.1019 45.6476 -78.7206C45.6242 -78.9149 45.6038 -79.0957 45.5863 -79.2623C45.5175 -78.9881 45.4459 -78.7238 45.3719 -78.4714C45.1326 -77.6546 44.8648 -76.661 44.5811 -75.6091C44.0472 -73.6291 43.4952 -71.5817 43.056 -70.4231C42.9326 -70.0976 42.8237 -69.8257 42.7242 -69.5772C42.6361 -69.3576 42.5555 -69.1563 42.4787 -68.9522C42.4577 -68.3921 42.4579 -67.7698 42.4607 -67.2861C42.5254 -66.8802 42.5266 -66.1093 42.4634 -65.4413C42.4896 -65.0142 42.626 -64.6168 42.7579 -64.2323C42.8168 -64.0608 42.8724 -63.8987 42.9174 -63.7372C43.0022 -63.4643 43.0865 -63.0891 43.1666 -62.626C43.2715 -62.2176 43.2816 -62.1711 43.2498 -62.1236C43.3245 -61.7421 43.5491 -60.8306 43.663 -60.3687C43.6979 -60.2268 43.724 -60.1207 43.7351 -60.0739C43.8285 -59.6773 43.8155 -55.3122 43.5206 -54.838C43.5728 -54.6406 43.6356 -54.4074 43.7024 -54.1592C43.8776 -53.5085 44.0761 -52.771 44.1907 -52.2883C44.7294 -50.6331 45.4631 -47.5602 45.432 -46.1236C45.4012 -44.7105 46.1559 -40.2744 46.5541 -38.6068C46.8501 -37.3671 46.9722 -35.1598 47.0528 -33.6991L47.0686 -33.4164C47.2827 -31.8871 47.4283 -30.1131 47.4059 -29.3011C47.377 -28.2492 47.0231 -24.9195 46.6331 -22.0303C46.6022 -21.3663 46.584 -20.6094 46.5664 -19.8773C46.5251 -18.1576 46.4824 -16.3794 46.2604 -15.3646C45.8187 -13.3434 44.8323 -10.8359 43.8599 -8.44074L43.8592 -8.44095C43.7866 -7.86235 43.7634 -7.39173 43.79 -7.04186C43.8549 -6.70468 43.9572 -6.27109 44.0756 -5.76969C44.3549 -4.58622 44.7027 -3.11325 44.7433 -2.07381C44.7989 -0.658218 44.7788 1.52422 44.7028 2.33221C44.6967 2.91313 44.6839 3.46906 44.6674 3.89221C44.7664 4.13025 44.8195 4.35167 44.8296 4.56816C44.8349 4.6834 44.8372 4.80728 44.8396 4.94038C44.8507 5.55223 44.8659 6.39029 45.2286 7.49557C45.7167 8.98303 45.9122 10.3774 45.9853 11.0762C46.0772 11.955 46.2192 14.6319 46.0253 16.0416C45.8406 17.3844 45.1961 21.0318 44.885 22.0903C44.831 22.2744 44.7742 22.4899 44.7141 22.7181C44.5832 23.2153 44.435 23.7783 44.2584 24.2268C43.7113 27.3307 42.9322 33.2363 42.7684 34.5338C42.73 34.8371 42.6783 35.1337 42.6146 35.4153C42.5466 36.6674 42.5104 38.3201 42.591 39.002C42.689 39.8313 42.9158 40.5133 43.135 41.1729L43.214 41.4114C43.4485 42.1253 43.3645 42.9172 42.9643 43.7652C42.6512 44.4288 42.8675 45.8709 43.401 46.6767C43.7836 47.2546 44.6716 48.3189 45.3201 49.0959C45.5733 49.3995 45.7921 49.6616 45.9295 49.8336C46.4625 50.5002 46.6088 51.5986 46.4423 52.2754C46.2767 52.9489 46.0064 53.2113 45.4784 53.2113C45.2326 53.2113 45.0177 53.0997 44.8449 53.0101C44.7291 52.9499 44.6197 52.8931 44.5454 52.8931C44.5322 52.8931 44.5207 52.895 44.5102 52.8987C44.4274 52.9286 44.3713 52.9739 44.3063 53.0263C44.2001 53.112 44.0798 53.2093 43.8479 53.231C43.8338 53.2323 43.8198 53.233 43.8058 53.233Z" fill="white" stroke="#28839F" stroke-width="0.7"/>
<path d="M13.5017 -25.0421C13.2583 -22.7584 12.8931 -18.4347 12.954 -15.2985C13.0148 -12.1623 12.9388 -8.28009 12.7714 -7.22962C12.604 -6.17914 11.8433 -3.62146 11.7825 -2.06857C11.7216 -0.515697 11.7521 2.14856 11.8586 2.57483C11.9651 3.00112 12.5888 1.70706 13.3496 0.412994C14.1103 -0.881071 16.362 -5.35703 16.6967 -7.01647C17.0314 -8.67593 17.5487 -16.9275 17.6248 -19.1959C17.7009 -21.4643 17.9443 -25.2704 18.5376 -27.3562C19.909 -32.1766 14.1122 -30.7696 13.5017 -25.0421Z" fill="#28839F" fill-opacity="0.2"/>
<path d="M19.2427 -29.7614C19.068 -28.8848 19.0297 -27.9649 18.8167 -26.9804C18.6037 -25.9959 17.9444 -19.3074 17.8734 -18.0793C17.8024 -16.8512 17.5691 -12.1114 17.5082 -10.9036C17.4474 -9.69579 17.3662 -7.75722 17.0417 -6.72196C16.7171 -5.68672 17.1735 -2.95649 17.559 -1.49496C17.9444 -0.0334148 19.6281 3.68132 20.0338 4.35118C20.4395 5.02105 19.4033 -0.509148 19.3999 -1.70302C19.3975 -2.5402 19.8278 -4.35717 20.2215 -6.38703C20.6654 -8.67607 21.1074 -11.2316 21.6719 -12.8777C22.7369 -15.9834 22.9956 -21.1749 22.813 -22.606C22.6304 -24.0371 21.7987 -26.0467 21.2916 -26.9094C20.7844 -27.7721 20.4205 -29.377 20.4091 -29.7462C20.3977 -30.1154 19.3314 -30.2067 19.2427 -29.7614Z" fill="#28839F" fill-opacity="0.2"/>
<path d="M22.9144 -17.8352C22.9095 -16.3576 22.5442 -14.2372 21.824 -12.1565C21.1039 -10.0759 20.7134 -7.371 20.4598 -6.08201C20.2062 -4.79303 19.6078 -2.58043 19.7295 -0.976797C19.8512 0.626829 20.2468 2.80898 20.5207 3.77319C20.7945 4.73739 20.9872 5.51892 21.2307 5.35652C21.4741 5.19413 21.5857 4.20961 22.0015 3.24541C22.4174 2.28121 22.9651 -1.04785 23.0158 -2.64132C23.0665 -4.2348 23.3404 -6.86353 23.665 -8.15252C23.9895 -9.44151 24.3344 -12.7604 24.1924 -13.5724C24.0504 -14.3843 23.6751 -14.7193 23.6447 -15.6429C23.6143 -16.5665 23.6396 -17.3404 23.5128 -18.1219C23.4494 -18.5127 23.2859 -19.9012 23.1781 -19.9564C23.0704 -20.0116 22.9169 -18.5989 22.9144 -17.8352Z" fill="#28839F" fill-opacity="0.2"/>
<path d="M14.7593 0.291617C16.0918 1.51385 16.3213 3.60036 16.585 4.71681C16.8488 5.83326 16.585 10.4209 16.4633 12.4305C16.3416 14.4401 16.7879 17.7894 16.4228 19.4945C16.0576 21.1996 15.8243 22.5191 14.739 23.6153C13.6537 24.7114 13.5929 24.8839 12.9539 24.9753C12.3149 25.0666 11.9396 23.0875 11.6353 22.0522C11.331 21.017 10.692 17.424 10.4993 16.0234C10.3066 14.6228 10.4486 11.9636 10.5399 11.0907C10.6312 10.2179 10.8442 8.89841 11.2905 7.53837C11.7367 6.17834 11.6657 5.23443 11.6962 4.57472C11.7266 3.915 12.1729 3.31617 12.8525 2.32152C13.532 1.32686 13.816 0.606243 14.0899 0.372802C14.3638 0.139361 14.5159 0.0683204 14.7593 0.291617Z" fill="#28839F" fill-opacity="0.2"/>
<path d="M17.0009 5.74179C17.1109 7.23351 17.153 9.19771 17.0009 10.8267C16.8487 12.4557 16.7422 13.7802 16.9096 15.3636C17.0769 16.9469 16.8792 18.0583 16.8183 19.3219C16.7574 20.5855 16.4075 21.6055 16.8639 23.1888C17.3204 24.7722 18.5832 26.0054 19.3895 26.386C20.1959 26.7666 20.5458 26.9645 20.8197 26.1728C21.0935 25.3812 21.3978 23.7369 21.8542 22.8539C22.3107 21.9709 22.402 20.6159 22.2802 18.8651C22.1585 17.1143 21.5753 12.41 21.4536 11.456C21.3319 10.5019 21.1696 8.59381 21.0073 7.59916C20.845 6.6045 20.5002 5.50835 19.9524 4.91968C19.4047 4.33101 18.8773 3.60024 18.2484 2.80857C17.6196 2.01692 17.3964 2.88978 17.1124 3.74234C16.8284 4.59489 16.8893 4.22951 17.0009 5.74179Z" fill="#28839F" fill-opacity="0.2"/>
<path d="M12.8179 25.875C12.8935 25.8863 12.9422 25.927 12.9634 25.9473C12.987 25.97 13.0034 25.9942 13.0132 26.0098C13.0667 26.0949 13.1192 26.2177 13.1694 26.3564C13.2215 26.5001 13.2777 26.678 13.3374 26.8828C13.4569 27.2928 13.5926 27.8222 13.7378 28.4277C14.0284 29.6396 14.3583 31.1674 14.6704 32.6768C15.2931 35.6881 15.8509 38.6546 15.8804 38.9014C15.8887 38.9709 15.8933 39.0341 15.8921 39.0869C15.8915 39.113 15.8894 39.1453 15.8823 39.1777C15.8769 39.2026 15.8607 39.2661 15.8071 39.3213C15.7762 39.3531 15.732 39.3828 15.6753 39.3955C15.6196 39.4079 15.5696 39.4001 15.5327 39.3877C15.4677 39.3658 15.4262 39.3243 15.4097 39.3066C15.3714 39.2658 15.3412 39.2136 15.3188 39.1719C15.2248 38.9965 15.0967 38.6564 14.9673 38.2451C14.839 37.8375 14.5894 37.0993 14.3462 36.3838C14.1042 35.6718 13.8675 34.9808 13.77 34.6729C13.5708 34.0433 13.3049 32.5644 13.2339 32.0977C13.1977 31.8599 13.086 30.942 12.9712 30.0264C12.8552 29.1015 12.7369 28.1846 12.688 27.9248C12.6355 27.6462 12.5697 27.1525 12.5327 26.7549C12.5144 26.5579 12.5016 26.3735 12.5034 26.248C12.5039 26.216 12.5051 26.1831 12.5083 26.1533C12.511 26.1283 12.517 26.0861 12.5337 26.0439C12.5417 26.0237 12.5604 25.9823 12.6001 25.9443C12.6483 25.8985 12.726 25.8613 12.8179 25.875Z" fill="#28839F" stroke="#28839F" stroke-width="0.5"/>
<path d="M19.7549 30.7552C19.2331 32.5236 18.8268 36.784 18.6899 38.9154C18.5529 41.0468 18.9713 38.9458 19.0702 38.2607C19.1691 37.5756 19.6788 34.7135 19.7853 34.2111C19.8918 33.7087 19.9603 31.524 19.9831 31.1053C20.0059 30.6866 19.9907 29.9559 19.7549 30.7552Z" fill="#28839F" fill-opacity="0.2"/>
<path d="M42.8882 -25.0421C43.1316 -22.7584 43.4968 -18.4347 43.4359 -15.2985C43.3751 -12.1623 43.4511 -8.28009 43.6185 -7.22962C43.7859 -6.17914 44.5466 -3.62146 44.6074 -2.06857C44.6683 -0.515697 44.6378 2.14856 44.5313 2.57483C44.4249 3.00112 43.8011 1.70706 43.0403 0.412994C42.2796 -0.881071 40.0279 -5.35703 39.6932 -7.01647C39.3585 -8.67593 38.8412 -16.9275 38.7651 -19.1959C38.689 -21.4643 38.4456 -25.2704 37.8523 -27.3562C36.4809 -32.1766 42.2777 -30.7696 42.8882 -25.0421Z" fill="#28839F" fill-opacity="0.2"/>
<path d="M37.1475 -29.7614C37.3222 -28.8848 37.3605 -27.9649 37.5735 -26.9804C37.7865 -25.9959 38.4458 -19.3074 38.5168 -18.0793C38.5878 -16.8512 38.8211 -12.1114 38.882 -10.9036C38.9428 -9.69579 39.024 -7.75722 39.3485 -6.72196C39.6731 -5.68672 39.2167 -2.95649 38.8312 -1.49496C38.4458 -0.0334148 36.7621 3.68132 36.3564 4.35118C35.9507 5.02105 36.9869 -0.509148 36.9903 -1.70302C36.9927 -2.5402 36.5624 -4.35717 36.1687 -6.38703C35.7248 -8.67607 35.2828 -11.2316 34.7183 -12.8777C33.6533 -15.9834 33.3946 -21.1749 33.5772 -22.606C33.7598 -24.0371 34.5915 -26.0467 35.0986 -26.9094C35.6058 -27.7721 35.9697 -29.377 35.9811 -29.7462C35.9925 -30.1154 37.0588 -30.2067 37.1475 -29.7614Z" fill="#28839F" fill-opacity="0.2"/>
<path d="M33.4754 -17.8352C33.4803 -16.3576 33.8456 -14.2372 34.5658 -12.1565C35.2859 -10.0759 35.6764 -7.371 35.93 -6.08201C36.1836 -4.79303 36.782 -2.58043 36.6603 -0.976797C36.5386 0.626829 36.143 2.80898 35.8691 3.77319C35.5953 4.73739 35.4026 5.51892 35.1591 5.35652C34.9157 5.19413 34.8041 4.20961 34.3883 3.24541C33.9724 2.28121 33.4247 -1.04785 33.374 -2.64132C33.3233 -4.2348 33.0494 -6.86353 32.7248 -8.15252C32.4003 -9.44151 32.0554 -12.7604 32.1974 -13.5724C32.3394 -14.3843 32.7147 -14.7193 32.7451 -15.6429C32.7755 -16.5665 32.7502 -17.3404 32.877 -18.1219C32.9404 -18.5127 33.1039 -19.9012 33.2117 -19.9564C33.3195 -20.0116 33.4729 -18.5989 33.4754 -17.8352Z" fill="#28839F" fill-opacity="0.2"/>
<path d="M41.6303 0.291617C40.2978 1.51385 40.0683 3.60036 39.8045 4.71681C39.5408 5.83326 39.8046 10.4209 39.9263 12.4305C40.048 14.4401 39.6017 17.7894 39.9668 19.4945C40.332 21.1996 40.5653 22.5191 41.6506 23.6153C42.7359 24.7114 42.7967 24.8839 43.4357 24.9753C44.0747 25.0666 44.45 23.0875 44.7543 22.0522C45.0586 21.017 45.6976 17.424 45.8903 16.0234C46.083 14.6228 45.941 11.9636 45.8497 11.0907C45.7584 10.2179 45.5454 8.89841 45.0991 7.53837C44.6529 6.17834 44.7239 5.23443 44.6934 4.57472C44.663 3.915 44.2167 3.31617 43.5371 2.32152C42.8576 1.32686 42.5736 0.606243 42.2997 0.372802C42.0258 0.139361 41.8737 0.0683204 41.6303 0.291617Z" fill="#28839F" fill-opacity="0.2"/>
<path d="M39.389 5.74179C39.2789 7.23351 39.2369 9.19771 39.389 10.8267C39.5411 12.4557 39.6476 13.7802 39.4803 15.3636C39.3129 16.9469 39.5107 18.0583 39.5716 19.3219C39.6324 20.5855 39.9823 21.6055 39.5259 23.1888C39.0695 24.7722 37.8067 26.0054 37.0003 26.386C36.194 26.7666 35.844 26.9645 35.5702 26.1728C35.2963 25.3812 34.992 23.7369 34.5356 22.8539C34.0792 21.9709 33.9879 20.6159 34.1096 18.8651C34.2313 17.1143 34.8145 12.41 34.9363 11.456C35.058 10.5019 35.2203 8.59381 35.3825 7.59916C35.5448 6.6045 35.8897 5.50835 36.4374 4.91968C36.9851 4.33101 37.5126 3.60024 38.1414 2.80857C38.7703 2.01692 38.9934 2.88978 39.2774 3.74234C39.5614 4.59489 39.5006 4.22951 39.389 5.74179Z" fill="#28839F" fill-opacity="0.2"/>
<path d="M43.5723 25.875C43.6641 25.8613 43.7418 25.8985 43.79 25.9443C43.8298 25.9823 43.8485 26.0238 43.8564 26.0439C43.8731 26.0861 43.8792 26.1283 43.8818 26.1533C43.885 26.1831 43.8863 26.216 43.8867 26.248C43.8885 26.3735 43.8757 26.5579 43.8574 26.7549C43.8205 27.1525 43.7547 27.6462 43.7021 27.9248C43.6532 28.1845 43.535 29.1014 43.4189 30.0264C43.3041 30.942 43.1924 31.8599 43.1562 32.0977C43.0853 32.5644 42.8184 34.0433 42.6191 34.6729C42.5216 34.9809 42.2859 35.672 42.0439 36.3838C41.8007 37.0993 41.5511 37.8375 41.4229 38.2451C41.2934 38.6564 41.1653 38.9965 41.0713 39.1719C41.0489 39.2136 41.0187 39.2658 40.9805 39.3066C40.9639 39.3243 40.9223 39.3658 40.8574 39.3877C40.8205 39.4001 40.7705 39.4079 40.7148 39.3955C40.6582 39.3828 40.6139 39.3531 40.583 39.3213C40.5295 39.2661 40.5132 39.2027 40.5078 39.1777C40.5008 39.1453 40.4986 39.113 40.498 39.0869C40.4969 39.0341 40.5015 38.9709 40.5098 38.9014C40.5392 38.6546 41.097 35.6881 41.7197 32.6768C42.0318 31.1674 42.3618 29.6396 42.6523 28.4277C42.7975 27.8222 42.9332 27.2928 43.0527 26.8828C43.1124 26.678 43.1687 26.5001 43.2207 26.3564C43.271 26.2176 43.3234 26.0949 43.377 26.0098L43.4258 25.9473C43.4467 25.9272 43.4961 25.8864 43.5723 25.875Z" fill="#28839F" stroke="#28839F" stroke-width="0.5"/>
<path d="M36.6353 30.7552C37.1571 32.5236 37.5634 36.784 37.7003 38.9154C37.8372 41.0468 37.4188 38.9458 37.3199 38.2607C37.2211 37.5756 36.7114 34.7135 36.6049 34.2111C36.4984 33.7087 36.4299 31.524 36.4071 31.1053C36.3843 30.6866 36.3995 29.9559 36.6353 30.7552Z" fill="#28839F" fill-opacity="0.2"/>
</g>
<defs>
<clipPath id="clip0_4055_7500">
<rect width="61" height="48" fill="white"/>
</clipPath>
</defs>
</svg>
