<svg width="61" height="48" viewBox="0 0 61 48" fill="none" xmlns="http://www.w3.org/2000/svg">
<g clip-path="url(#clip0_4055_6255)">
<path d="M37.8058 180.233C37.6222 180.233 37.4739 180.126 37.3305 180.022C37.2116 179.936 37.0992 179.855 36.9914 179.855C36.9728 179.855 36.9546 179.857 36.936 179.862C36.8132 179.894 36.7456 179.946 36.6674 180.008C36.5567 180.094 36.4314 180.192 36.1771 180.192C36.1603 180.192 36.1427 180.192 36.1246 180.191C35.8874 180.179 35.7392 180.079 35.6084 179.991C35.4879 179.909 35.3928 179.845 35.2338 179.845C35.2243 179.845 35.2145 179.845 35.2045 179.846C35.0376 179.854 34.9414 179.91 34.8194 179.982C34.6669 180.071 34.494 180.173 34.171 180.191C34.1486 180.192 34.1266 180.193 34.1047 180.193C33.8033 180.193 33.5441 180.077 33.3153 179.976C33.1232 179.89 32.9416 179.809 32.7608 179.805L32.7459 179.805C32.5611 179.805 32.334 179.88 32.0936 179.96C31.7948 180.059 31.4561 180.171 31.1046 180.171L31.0778 180.171C30.2305 180.157 29.749 179.721 29.6467 178.874C29.5924 178.424 29.7415 177.938 29.8857 177.468C30.0525 176.924 30.2249 176.361 30.096 175.845C29.8236 174.755 29.6672 173.353 29.7067 172.356C29.7337 171.672 29.5211 170.75 29.3336 169.937C29.2434 169.545 29.1581 169.176 29.1 168.843C28.9787 168.148 29.4867 166.931 29.9349 165.856C30.1803 165.268 30.412 164.712 30.4588 164.414C30.5085 164.095 30.5116 163.021 30.4677 161.22C30.3824 160.785 30.3225 159.335 30.2902 158.553C30.2819 158.353 30.2755 158.197 30.2709 158.113C30.2667 158.035 30.2487 157.654 30.2887 157.456L30.2187 156.926C30.0793 155.864 29.9476 154.861 29.8329 154.432C29.8329 154.432 29.6511 153.756 29.5987 153.559C29.541 153.468 29.4894 153.356 29.4414 153.217C29.3429 152.932 29.24 152.537 29.1312 152.119C28.9303 151.348 28.7027 150.474 28.4146 149.916C28.1489 149.402 27.9949 148.725 27.944 147.845C27.8628 147.437 27.794 146.97 27.7395 146.454C27.4781 143.978 27.7667 140.501 28.0662 139.044C28.2168 138.311 28.4525 137.424 28.6604 136.641C28.859 135.893 29.0466 135.187 29.1202 134.764C29.196 134.33 29.2129 134.084 29.2231 133.938C29.2297 133.842 29.2341 133.778 29.2528 133.728C29.2276 133.593 29.2004 133.441 29.1714 133.278C29.1231 133.008 29.0688 132.703 29.0087 132.398C28.881 132.247 28.7953 131.945 28.68 131.54C28.5778 131.18 28.4507 130.733 28.2635 130.299C27.8274 129.288 27.2886 125.95 27.2381 124.362C27.1867 122.748 26.9153 120.16 26.593 118.88C26.3057 117.739 26.0018 114.999 26.0309 113.815C26.0055 113.558 25.9801 113.317 25.9546 113.104C25.9278 112.881 25.9096 112.597 25.9005 112.261C25.843 112.131 25.7546 111.947 25.6279 111.768C25.4621 111.535 25.3089 111.214 25.1726 110.817C24.9593 110.272 24.7103 109.225 24.6309 108.537C24.5015 107.414 23.6802 102.465 23.2056 100.887C22.6641 99.0865 23.0349 95.456 23.0789 95.048C23.0936 94.9119 23.1072 94.7773 23.1205 94.6452C23.159 94.2614 23.1956 93.8978 23.253 93.5741C23.0991 93.3351 22.9719 93.0836 22.8659 92.8085C22.6216 92.7412 22.3776 92.7228 22.276 92.7228H22.1137C22.0122 92.7228 21.7683 92.7412 21.5239 92.8085C21.4179 93.0836 21.2907 93.3352 21.1367 93.5741C21.1943 93.8983 21.2308 94.2624 21.2694 94.6467C21.2827 94.7784 21.2961 94.9125 21.3108 95.048C21.3549 95.456 21.7259 99.0861 21.1841 100.887C20.7095 102.465 19.8882 107.414 19.7588 108.537C19.6795 109.225 19.4306 110.272 19.2153 110.822C19.0808 111.215 18.9276 111.535 18.7619 111.768C18.6347 111.948 18.5465 112.131 18.4892 112.261C18.4802 112.596 18.462 112.88 18.4351 113.104C18.4097 113.317 18.3842 113.558 18.3589 113.815C18.388 114.999 18.0841 117.739 17.7968 118.88C17.4746 120.16 17.2031 122.748 17.1517 124.362C17.1011 125.95 16.5623 129.288 16.1263 130.299C15.939 130.733 15.8119 131.18 15.7097 131.54C15.5945 131.945 15.5088 132.247 15.381 132.398C15.3209 132.703 15.2665 133.008 15.2184 133.278C15.1892 133.441 15.1621 133.593 15.1369 133.728C15.1556 133.778 15.16 133.842 15.1667 133.938C15.1768 134.084 15.1938 134.33 15.2695 134.764C15.3431 135.187 15.5307 135.893 15.7294 136.641C15.9373 137.424 16.173 138.311 16.3236 139.044C16.6231 140.501 16.9117 143.978 16.6502 146.454C16.5956 146.971 16.5266 147.443 16.4452 147.857C16.3934 148.731 16.2397 149.405 15.9752 149.916C15.687 150.474 15.4594 151.348 15.2586 152.119C15.1497 152.537 15.0469 152.932 14.9483 153.217C14.9004 153.356 14.8488 153.468 14.7911 153.559C14.7388 153.755 14.5569 154.432 14.5569 154.432C14.4421 154.861 14.3104 155.865 14.171 156.926L14.1011 157.456C14.1411 157.654 14.1231 158.035 14.1188 158.113C14.1142 158.197 14.1078 158.354 14.0995 158.553C14.0672 159.336 14.0073 160.785 13.9221 161.22C13.8782 163.021 13.8812 164.096 13.931 164.414C13.9777 164.712 14.2095 165.268 14.4549 165.856C14.9031 166.93 15.4111 168.148 15.2897 168.843C15.2317 169.175 15.1464 169.545 15.0561 169.937C14.8686 170.75 14.656 171.672 14.6831 172.356C14.7226 173.353 14.5661 174.755 14.2938 175.845C14.1648 176.361 14.3373 176.924 14.5041 177.468C14.6483 177.938 14.7974 178.424 14.7431 178.874C14.6407 179.721 14.1592 180.157 13.3119 180.171L13.2852 180.171C12.9337 180.171 12.595 180.059 12.2961 179.96C12.0557 179.88 11.8286 179.805 11.6439 179.805L11.629 179.805C11.4481 179.809 11.2665 179.89 11.0744 179.976C10.8457 180.077 10.5865 180.193 10.285 180.193C10.2631 180.193 10.241 180.192 10.2187 180.191C9.89574 180.173 9.7229 180.071 9.57034 179.982C9.44848 179.91 9.35219 179.854 9.18521 179.846C9.17518 179.845 9.16548 179.845 9.15591 179.845C8.99696 179.845 8.90181 179.909 8.78135 179.991C8.65059 180.079 8.50234 180.179 8.26518 180.191C8.24698 180.192 8.22951 180.192 8.21275 180.192C7.95833 180.192 7.83294 180.094 7.72231 180.008C7.6441 179.946 7.57652 179.894 7.4538 179.862C7.43513 179.857 7.41699 179.855 7.39832 179.855C7.29054 179.855 7.17817 179.936 7.05924 180.022C6.91584 180.126 6.76753 180.233 6.58394 180.233C6.56999 180.233 6.55589 180.232 6.5418 180.231C6.31004 180.209 6.18963 180.112 6.08345 180.026C6.01847 179.974 5.96239 179.929 5.87952 179.899C5.86909 179.895 5.85753 179.893 5.84437 179.893C5.77008 179.893 5.66065 179.95 5.54483 180.01C5.37214 180.1 5.15718 180.211 4.91138 180.211C4.38339 180.211 4.11315 179.949 3.94743 179.275C3.78099 178.599 3.92731 177.5 4.46028 176.834C4.59789 176.661 4.8169 176.399 5.07053 176.095C5.71866 175.318 6.60639 174.254 6.9888 173.677C7.5223 172.871 7.73866 171.429 7.42549 170.765C7.02528 169.917 6.94122 169.125 7.17578 168.411L7.25459 168.174C7.47392 167.514 7.70078 166.832 7.79878 166.002C7.87938 165.321 7.84311 163.668 7.7752 162.415C7.71161 162.134 7.65984 161.838 7.62144 161.534C7.45765 160.236 6.67855 154.331 6.13143 151.227C5.95487 150.779 5.80678 150.216 5.67593 149.719C5.6158 149.49 5.55891 149.275 5.50476 149.09C5.19378 148.032 4.54932 144.385 4.36446 143.042C4.17057 141.632 4.31263 138.955 4.40452 138.076C4.47762 137.377 4.67317 135.983 5.16117 134.496C5.52397 133.39 5.53911 132.552 5.55022 131.94C5.55261 131.807 5.55487 131.683 5.56018 131.568C5.57027 131.352 5.62337 131.13 5.72238 130.892C5.7059 130.471 5.69315 129.915 5.6863 129.321C5.61102 128.524 5.59094 126.342 5.64643 124.926C5.68716 123.887 6.03481 122.414 6.31408 121.231C6.43249 120.729 6.53489 120.296 6.59974 119.958C6.62638 119.609 6.60319 119.139 6.53084 118.562L6.52971 118.559C5.55752 116.164 4.57117 113.657 4.1293 111.635C3.90742 110.621 3.86471 108.842 3.82338 107.123C3.80577 106.391 3.78756 105.634 3.75566 104.958C3.36675 102.08 3.01278 98.7508 2.98388 97.699C2.96108 96.8741 3.10348 95.1385 3.32236 93.5723L3.33711 93.298C3.41785 91.8382 3.5399 89.6321 3.83574 88.3932C4.23389 86.7257 4.98853 82.2896 4.95783 80.8765C4.92667 79.4401 5.66031 76.3672 6.20192 74.7011C6.31382 74.2283 6.51276 73.4894 6.68824 72.8376C6.75562 72.5873 6.81889 72.3522 6.87137 72.154C6.63064 71.6931 6.825 66.5946 6.99683 66.0394C7.04214 65.62 7.09112 65.2308 7.14261 64.8801C7.10774 64.831 7.11584 64.7913 7.22548 64.3635C7.30329 63.9113 7.38747 63.5361 7.47346 63.2592C7.51732 63.1015 7.57294 62.9394 7.63188 62.7678C7.7639 62.3834 7.90033 61.9859 7.92645 61.5587C7.86319 60.8908 7.86438 60.1199 7.9291 59.714C7.93182 59.2296 7.93209 58.6067 7.91116 58.0478C7.83441 57.8439 7.75382 57.6428 7.66584 57.4232C7.56624 57.1747 7.45727 56.9027 7.33381 56.577C6.8946 55.4184 6.34255 53.3709 5.80865 51.3908C5.52505 50.339 5.25714 49.3455 5.01793 48.5286C4.94397 48.2763 4.87235 48.012 4.80344 47.7377C4.78604 47.9044 4.76557 48.0851 4.74218 48.2794C4.66775 48.8982 4.28057 50.1301 3.83211 51.5564C3.06544 53.995 2.11133 57.0301 2.18708 58.6397C2.28031 60.6231 1.63244 62.1924 1.2432 62.6389C1.14911 63.0561 1.07282 63.3523 1.01037 63.543C0.991636 63.6635 0.973289 63.7845 0.954891 63.9058C0.892824 64.3152 0.828581 64.7387 0.749964 65.1418C0.661592 65.7563 0.478655 66.4635 0.191734 67.2972C-0.0967083 68.1358 -0.946568 70.2054 -2.08189 72.8342C-2.2324 73.3215 -2.39958 73.8559 -2.57639 74.4211C-3.71702 78.0677 -5.27926 83.0619 -5.31854 84.8349C-5.32983 85.343 -5.04524 86.1206 -4.57519 87.3406C-4.05365 88.6945 -4.14389 91.3533 -5.33847 93.614C-5.84666 94.5759 -6.29677 96.0464 -6.732 97.4685C-7.1548 98.8498 -7.55408 100.154 -7.94845 100.741C-8.18328 101.091 -8.42641 101.268 -8.67093 101.268C-8.92098 101.268 -9.10902 101.086 -9.23613 100.9C-9.43381 101.912 -9.89196 103.726 -10.6539 103.864C-10.7085 103.874 -10.7622 103.879 -10.8135 103.879C-11.1886 103.879 -11.4618 103.62 -11.5992 103.151C-11.8364 103.96 -12.271 105.044 -12.8956 105.044L-12.9158 105.044C-13.7951 105.012 -13.821 103.857 -13.781 102.555C-13.8506 102.594 -13.9295 102.614 -14.0156 102.614C-14.5914 102.614 -15.2834 101.749 -15.4127 100.868C-15.7325 98.6859 -15.5206 96.0722 -15.3659 94.1638C-15.2898 93.226 -15.2115 92.2592 -15.2759 91.9858C-15.3945 92.0954 -15.5456 92.2913 -15.7184 92.5151C-16.0429 92.9354 -16.4466 93.4584 -16.9202 93.7843C-17.3044 94.0489 -17.7624 94.1886 -18.2446 94.1886C-19.0014 94.1886 -19.6675 93.8467 -19.8284 93.3757C-19.8892 93.1977 -19.924 92.847 -19.4743 92.4988C-18.3022 91.5911 -16.0557 88.3122 -15.2571 86.3438C-14.7246 85.0312 -13.7437 84.5961 -12.9556 84.2465C-12.4851 84.0378 -12.0787 83.8576 -11.8785 83.5411C-11.4852 82.9198 -10.9193 80.2541 -10.1964 75.6181C-10.093 74.4815 -10.0084 73.7415 -9.93118 73.2978C-9.88533 73.0349 -9.83762 72.741 -9.78892 72.4292C-9.75444 69.4004 -9.69942 66.0309 -9.48446 64.3532C-9.07142 61.1287 -7.71961 57.2108 -6.53254 55.7978C-6.36296 55.596 -6.2116 55.4124 -6.07632 55.2483C-5.66495 54.7495 -5.41058 54.4411 -5.21855 54.3102C-5.04838 54.0822 -4.90293 53.6543 -4.78598 53.0374C-4.95144 50.5668 -4.68431 47.9066 -4.07074 45.9142C-3.98382 45.0873 -3.91386 44.4362 -3.87067 44.1935C-3.72901 43.3974 -3.8809 42.6295 -4.0029 42.0123C-4.06071 41.7199 -4.11068 41.4673 -4.11619 41.2676C-4.12981 40.7781 -4.21719 40.1318 -4.34955 39.1536C-4.41167 38.694 -4.48344 38.1637 -4.56145 37.5459C-4.83096 35.4111 -4.43281 32.8499 -3.49636 30.6947C-2.39379 28.1571 -1.15615 26.7955 0.775465 25.9949C1.2713 25.7895 2.18036 25.682 2.82205 25.682C2.86337 25.682 2.90404 25.6824 2.94405 25.6833C4.50323 24.8615 5.89915 24.5694 6.62396 24.5694C6.73658 24.5694 6.83832 24.5762 6.92669 24.5896C6.96841 24.5875 7.01241 24.5865 7.05858 24.5865C7.14935 24.5865 7.24876 24.5903 7.34564 24.5955C7.37607 24.2784 7.78931 24.0433 8.28262 23.7964C8.96829 23.4534 9.68345 23.1397 10.4083 22.864C11.2461 22.5453 12.0884 22.2821 13.0953 21.985C13.2184 21.9487 13.3425 21.9142 13.4666 21.8798C14.1926 21.6782 14.8782 21.4878 15.3795 20.941C15.5228 20.7847 15.6432 20.6117 15.7706 20.4285C15.8311 20.3415 15.8917 20.2546 15.9545 20.1698C16.1485 19.9081 16.3491 19.6375 16.4575 19.3329C16.509 19.1881 16.4963 19.024 16.4827 18.8502C16.477 18.7756 16.4712 18.7012 16.4702 18.6277C16.4668 18.3931 16.467 18.1454 16.4708 17.8702C16.478 17.351 16.494 16.7385 16.5574 16.1273C16.5449 15.955 16.5321 15.8674 16.5235 15.824C16.5074 15.7438 16.4942 15.6624 16.4805 15.5785C16.4179 15.1945 16.347 14.7592 15.9353 14.1452C15.5836 13.6206 15.4863 12.4024 15.4666 11.4727C15.4628 11.2931 15.3163 11.1469 15.1401 11.1469C15.1171 11.1469 15.0939 11.1494 15.071 11.1544C14.9662 11.1772 14.8565 11.1893 14.7537 11.1893C14.4768 11.1893 14.248 11.1053 14.0921 10.9462C13.9313 10.7822 13.8526 10.5464 13.8583 10.2454C13.8784 9.19356 13.6645 8.5833 13.4759 8.04486C13.3807 7.77337 13.2909 7.51692 13.2368 7.22828C13.1407 6.71544 13.0823 6.02586 13.3492 5.65312C13.4542 5.50657 13.5982 5.41927 13.7774 5.39367C13.8212 5.38735 13.8664 5.38423 13.9116 5.38423C14.0601 5.38423 14.2154 5.41814 14.3732 5.48516C14.3948 5.49427 14.417 5.49893 14.4394 5.49893C14.4873 5.49893 14.5349 5.47738 14.5697 5.43988C14.6053 5.40145 14.6228 5.35145 14.6188 5.29926C14.5033 3.76033 14.3978 -0.0285788 15.9106 -1.96957C17.7094 -4.2776 20.4761 -4.74516 21.5822 -4.83912C21.7251 -4.85123 21.8977 -4.86426 22.136 -4.86426C22.3148 -4.86426 22.5086 -4.85655 22.7122 -4.84138C23.8385 -4.75768 26.6551 -4.31018 28.4793 -1.96957C29.9921 -0.0283065 29.8865 3.76039 29.7709 5.29926C29.767 5.35145 29.7845 5.40145 29.8202 5.43995C29.855 5.47745 29.9024 5.49893 29.9505 5.49893C29.9728 5.49893 29.995 5.49427 30.0166 5.48516C30.1744 5.41814 30.3297 5.38423 30.4782 5.38423C30.5234 5.38423 30.5686 5.38735 30.6125 5.39367C30.7916 5.41927 30.9356 5.50657 31.0406 5.65312C31.3075 6.02586 31.249 6.71544 31.1529 7.22828C31.0989 7.51692 31.009 7.77337 30.9139 8.04486C30.7252 8.5833 30.5114 9.19355 30.5315 10.2454C30.5372 10.5464 30.4585 10.7822 30.2977 10.9463C30.1418 11.1053 29.913 11.1894 29.6362 11.1894C29.5333 11.1894 29.4235 11.1772 29.3187 11.1544C29.2959 11.1494 29.2727 11.1469 29.2497 11.1469C29.0736 11.1469 28.927 11.2931 28.9233 11.4728C28.9035 12.4026 28.806 13.621 28.4545 14.1452C28.0428 14.7592 27.9719 15.1945 27.9093 15.5785C27.8957 15.6624 27.8824 15.7438 27.8664 15.824C27.8577 15.8674 27.8449 15.955 27.8324 16.1273C27.9171 16.9421 27.925 17.7439 27.9216 18.4213C27.9211 18.5167 27.9159 18.6136 27.9107 18.7106C27.9034 18.848 27.8965 18.9778 27.9025 19.105C27.9177 19.4249 28.1492 19.7601 28.3534 20.0558C28.3825 20.098 28.4109 20.1391 28.4379 20.1791C28.7 20.5672 28.9711 20.9685 29.3392 21.2565C29.6396 21.4916 29.9978 21.5984 30.3769 21.7114L30.7073 21.8115C32.5084 22.3603 34.3708 22.9277 36.1072 23.7965L36.2133 23.8487C36.4365 23.9574 36.6895 24.0807 36.8652 24.2646C36.9588 24.3625 37.0183 24.4795 37.0372 24.5969C37.2097 24.589 37.3691 24.5852 37.521 24.5852C38.1146 24.5852 38.624 24.645 39.1239 24.7735C39.8959 24.9719 40.6768 25.2779 41.4457 25.6833C41.4857 25.6824 41.5264 25.682 41.5677 25.682C42.2094 25.682 43.1185 25.7895 43.6142 25.9949C45.5459 26.7954 46.7836 28.1571 47.8862 30.6947C48.8226 32.8498 49.2207 35.4109 48.9513 37.5459C48.8732 38.1639 48.8014 38.6945 48.7393 39.1542C48.607 40.1321 48.5196 40.7781 48.506 41.2676C48.5004 41.4673 48.4505 41.7199 48.3927 42.0123C48.2707 42.6294 48.1188 43.3974 48.2604 44.1935C48.3037 44.4361 48.3736 45.0869 48.4604 45.9134C49.0815 47.9285 49.347 50.6164 49.1715 53.1112C49.2846 53.6931 49.4286 54.0944 49.6 54.3049C49.7934 54.4326 50.0506 54.7444 50.4674 55.2499C50.6023 55.4135 50.7533 55.5965 50.9224 55.7978C52.1094 57.2109 53.4612 61.1288 53.8743 64.3531C54.0893 66.031 54.1443 69.4003 54.1788 72.4292C54.2274 72.741 54.2751 73.0349 54.3209 73.2977C54.3973 73.7362 54.4844 74.4981 54.5872 75.6267C55.3091 80.2541 55.8751 82.9198 56.2683 83.5411C56.4686 83.8576 56.8749 84.0378 57.3454 84.2465C58.1335 84.5961 59.1144 85.0311 59.6469 86.3437C60.4454 88.3122 62.692 91.591 63.8641 92.4988C64.3139 92.847 64.279 93.1977 64.2182 93.3757C64.0574 93.8467 63.3913 94.1886 62.6344 94.1886C62.1522 94.1886 61.6942 94.0488 61.3099 93.7843C60.8365 93.4584 60.4327 92.9354 60.1083 92.5153C59.9356 92.2914 59.7843 92.0955 59.6657 91.9858C59.6014 92.2593 59.6797 93.2259 59.7557 94.1633C59.9104 96.0719 60.1223 98.6858 59.8025 100.868C59.6733 101.749 58.9812 102.614 58.4053 102.614C58.3198 102.614 58.2412 102.594 58.1719 102.556C58.2106 103.857 58.1834 105.012 57.3056 105.044L57.2854 105.044C56.6608 105.044 56.2262 103.959 55.989 103.15C55.8516 103.62 55.5784 103.879 55.2033 103.879C55.152 103.879 55.0983 103.874 55.0437 103.864C54.282 103.726 53.8237 101.912 53.626 100.9C53.4988 101.086 53.3107 101.268 53.0607 101.268C52.8162 101.268 52.5731 101.091 52.3383 100.741C51.9439 100.154 51.5446 98.8497 51.1218 97.4685C50.6865 96.0463 50.2365 94.5758 49.7282 93.6139C48.5337 91.353 48.4434 88.6943 48.965 87.3405C49.4351 86.1204 49.7197 85.3428 49.7084 84.8348C49.6692 83.062 48.1072 78.0685 46.9666 74.4224C46.7897 73.8568 46.6223 73.3219 46.4717 72.8342C45.3364 70.2052 44.4865 68.1355 44.1981 67.2971C43.9111 66.4632 43.7282 65.756 43.6387 65.1349C43.5613 64.7387 43.4971 64.3155 43.435 63.9063C43.4166 63.7849 43.3982 63.6636 43.3795 63.543C43.317 63.3524 43.2407 63.0562 43.1466 62.6388C42.7574 62.1924 42.1095 60.623 42.2028 58.6396C42.2785 57.0299 41.3243 53.9948 40.5576 51.556C40.1092 50.1298 39.722 48.8981 39.6476 48.2794C39.6242 48.0851 39.6038 47.9043 39.5863 47.7377C39.5175 48.0119 39.4459 48.2762 39.3719 48.5286C39.1326 49.3454 38.8648 50.339 38.5811 51.3909C38.0472 53.3709 37.4952 55.4183 37.056 56.5769C36.9326 56.9024 36.8237 57.1743 36.7242 57.4228C36.6361 57.6424 36.5555 57.8437 36.4787 58.0478C36.4577 58.6079 36.4579 59.2302 36.4607 59.7139C36.5254 60.1198 36.5266 60.8907 36.4634 61.5587C36.4896 61.9858 36.626 62.3832 36.7579 62.7677C36.8168 62.9392 36.8724 63.1013 36.9174 63.2628C37.0022 63.5357 37.0865 63.9109 37.1666 64.374C37.2715 64.7824 37.2816 64.8289 37.2498 64.8764C37.3245 65.2579 37.5491 66.1694 37.663 66.6313C37.6979 66.7732 37.724 66.8793 37.7351 66.9261C37.8285 67.3227 37.8155 71.6878 37.5206 72.162C37.5728 72.3594 37.6356 72.5926 37.7024 72.8408C37.8776 73.4915 38.0761 74.229 38.1907 74.7117C38.7294 76.3669 39.4631 79.4398 39.432 80.8764C39.4012 82.2895 40.1559 86.7256 40.5541 88.3932C40.8501 89.6329 40.9722 91.8402 41.0528 93.3009L41.0686 93.5836C41.2827 95.1129 41.4283 96.8869 41.4059 97.6989C41.377 98.7508 41.0231 102.08 40.6331 104.97C40.6022 105.634 40.584 106.391 40.5664 107.123C40.5251 108.842 40.4824 110.621 40.2604 111.635C39.8187 113.657 38.8323 116.164 37.8599 118.559L37.8592 118.559C37.7866 119.138 37.7634 119.608 37.79 119.958C37.8549 120.295 37.9572 120.729 38.0756 121.23C38.3549 122.414 38.7027 123.887 38.7433 124.926C38.7989 126.342 38.7788 128.524 38.7028 129.332C38.6967 129.913 38.6839 130.469 38.6674 130.892C38.7664 131.13 38.8195 131.352 38.8296 131.568C38.8349 131.683 38.8372 131.807 38.8396 131.94C38.8507 132.552 38.8659 133.39 39.2286 134.496C39.7167 135.983 39.9122 137.377 39.9853 138.076C40.0772 138.955 40.2192 141.632 40.0253 143.042C39.8406 144.384 39.1961 148.032 38.885 149.09C38.831 149.274 38.7742 149.49 38.7141 149.718C38.5832 150.215 38.435 150.778 38.2584 151.227C37.7113 154.331 36.9322 160.236 36.7684 161.534C36.73 161.837 36.6783 162.134 36.6146 162.415C36.5466 163.667 36.5104 165.32 36.591 166.002C36.689 166.831 36.9158 167.513 37.135 168.173L37.214 168.411C37.4485 169.125 37.3645 169.917 36.9643 170.765C36.6512 171.429 36.8675 172.871 37.401 173.677C37.7836 174.255 38.6716 175.319 39.3201 176.096C39.5733 176.399 39.7921 176.662 39.9295 176.834C40.4625 177.5 40.6088 178.599 40.4423 179.275C40.2767 179.949 40.0064 180.211 39.4784 180.211C39.2326 180.211 39.0177 180.1 38.8449 180.01C38.7291 179.95 38.6197 179.893 38.5454 179.893C38.5322 179.893 38.5207 179.895 38.5102 179.899C38.4274 179.929 38.3713 179.974 38.3063 180.026C38.2001 180.112 38.0798 180.209 37.8479 180.231C37.8338 180.232 37.8198 180.233 37.8058 180.233Z" fill="white" stroke="#28839F" stroke-width="0.7"/>
<path d="M20.151 13.4595C18.0058 23.2487 15.1143 20.5309 8.34338 23.9185C7.38994 24.3956 7.17694 24.6493 7.9478 25.2177C8.71866 25.7861 11.0515 27.3795 11.7615 29.6124C12.4715 31.8453 12.7352 35.6616 13.6684 38.0974C14.6015 40.5333 16.6504 43.8218 17.6241 45.5269C18.5978 47.232 20.1193 50.7844 20.383 51.9414C20.6467 53.0985 21.5393 54.4382 21.6001 53.0376C21.661 51.6369 21.1539 46.1765 21.0321 42.9286C20.9104 39.6808 21.1133 33.9361 21.1539 32.0483C21.1944 30.1605 21.0727 27.5216 21.235 26.2225C21.3973 24.9234 21.093 17.8593 21.0321 16.4383C20.9713 15.0174 21.2756 13.7589 21.1133 13.0687C20.951 12.3785 20.3786 12.4206 20.151 13.4595Z" fill="#28839F" fill-opacity="0.2"/>
<path d="M17.8473 15.1192C17.5415 16.2086 16.9104 19.2348 16.2815 19.9453C16.1655 20.0763 15.5593 20.5578 15.6831 20.5644C16.9871 20.634 18.2261 17.8529 18.2328 17.8392C18.9428 16.3879 18.9529 15.5251 18.8616 14.3884C18.7703 13.2516 18.3545 13.3125 17.8473 15.1192Z" fill="#28839F" fill-opacity="0.2"/>
<path d="M0.827643 26.1215C-1.18064 26.9537 -2.35722 28.4153 -3.37151 30.7497C-4.3858 33.0841 -4.66981 35.6011 -4.42638 37.5295C-4.18294 39.458 -4.00037 40.5338 -3.98009 41.2646C-3.9598 41.9954 -3.47294 41.0819 -2.35722 40.0466C-1.2415 39.0114 1.39566 36.6161 1.98394 35.1749C2.57223 33.7336 2.24765 32.2518 3.36338 31.2774C4.47909 30.3031 5.63538 29.0039 6.77139 28.5168C7.90739 28.0296 7.50167 27.2988 6.52795 27.177C5.55424 27.0552 4.15451 26.02 3.52566 25.8779C2.8968 25.7358 1.45767 25.8604 0.827643 26.1215Z" fill="#28839F" fill-opacity="0.2"/>
<path d="M9.17543 28.1406C7.95829 28.3537 5.87899 29.3585 5.2907 30.2314C4.72926 31.0644 3.97211 30.9723 3.8504 31.4392C3.72869 31.9061 4.45898 31.8655 4.90527 32.6977C5.35156 33.53 5.57469 34.89 6.24413 35.702C8.52264 38.4656 9.49493 38.2445 12.2082 39.5182C12.8255 39.808 13.689 40.1272 13.7499 39.7212C13.8107 39.3152 13.5774 38.8179 13.0804 37.9349C12.5834 37.0519 12.2893 34.4841 12.0662 33.3067C11.843 32.1294 11.4677 30.1908 11.0519 29.2672C10.636 28.3436 9.58212 28.0694 9.17543 28.1406Z" fill="#28839F" fill-opacity="0.2"/>
<path d="M3.05895 33.3581C3.32157 33.8498 3.39366 33.792 3.92616 34.1346C4.45867 34.4771 4.8162 34.9262 4.96074 35.0937C5.10527 35.2612 5.36391 34.8349 5.15852 34.2868C4.95313 33.7387 4.61842 33.1754 4.32174 32.871C4.02505 32.5665 3.90334 32.1935 3.62188 32.125C3.34041 32.0564 2.82312 32.9166 3.05895 33.3581Z" fill="#28839F" fill-opacity="0.2"/>
<path d="M7.11622 37.5088C6.59723 37.0127 5.8788 36.1387 5.08765 35.7631C4.2965 35.3876 3.23149 34.0682 2.91707 34.4234C2.60263 34.7786 2.71421 35.824 3.03878 36.6157C3.36336 37.4073 3.71836 38.5035 3.97193 39.3967C4.2255 40.2898 4.94565 41.051 5.71651 41.2845C6.48737 41.5179 8.33337 41.8325 9.55052 41.7108C10.7677 41.589 11.8428 41.0003 12.3094 40.6958C13.4281 39.9657 9.38824 39.6808 7.11622 37.5088Z" fill="#28839F" fill-opacity="0.2"/>
<path d="M13.5267 40.574C12.5924 40.8233 11.9647 41.6296 9.89558 42.0761C8.54891 42.3668 5.73699 42.0355 5.10813 41.8325C4.47926 41.6296 4.05326 42.4009 4.13441 43.0099C4.21554 43.6189 4.45899 46.136 5.1487 48.4906C5.83841 50.8453 6.79185 54.7631 7.46128 56.5291C8.13071 58.2951 8.37415 58.4778 9.003 61.9286C9.63186 65.3795 11.4779 67.3079 11.9647 68.5867C12.4516 69.8656 14.5816 68.7897 14.3585 66.8004C14.1353 64.8111 14.1962 63.3496 15.251 60.7107C16.3059 58.0718 17.4825 55.5547 18.3345 54.1744C19.1865 52.7941 19.4603 51.3528 19.1256 50.1146C18.7909 48.8763 17.9592 47.0291 17.3607 45.9939C16.7623 44.9586 15.3322 42.7968 14.8656 41.9138C14.399 41.0307 14.3077 40.8683 14.1962 40.7161C14.0846 40.5639 13.831 40.4928 13.5267 40.574Z" fill="#28839F" fill-opacity="0.2"/>
<path d="M1.92299 36.8597C1.21115 37.9875 -0.440295 40.9855 -1.01845 42.645C-1.59659 44.3044 -1.72845 46.1567 -1.78931 48.349C-1.85016 50.5413 -2.44859 55.8394 -2.17474 57.0573C-1.90088 58.2752 -1.49516 59.1075 -0.612726 58.5594C0.26971 58.0114 1.57814 54.936 2.49099 52.8351C3.40386 50.7341 4.05996 47.0946 3.911 45.6289C3.66758 43.2336 3.68787 42.6856 3.62701 40.412C3.57226 38.3671 2.28815 36.2812 1.92299 36.8597Z" fill="#28839F" fill-opacity="0.2"/>
<path d="M-1.11849 39.9139C-1.85683 40.3105 -3.1358 40.8417 -3.73664 44.2179C-3.83553 44.7736 -4.08704 47.6078 -4.23918 48.5517C-4.39132 49.4956 -4.37514 52.1782 -4.31017 52.9668C-4.23744 53.8498 -4.34014 55.1794 -4.20321 55.8797C-4.06629 56.58 -3.44249 55.4991 -3.29035 53.9614C-3.13821 52.4238 -2.63106 48.9882 -2.30649 46.06C-2.06781 43.9068 -1.94007 42.6549 -0.606269 40.6452C0.120582 39.5501 -0.119512 39.3773 -1.11849 39.9139Z" fill="#28839F" fill-opacity="0.2"/>
<path d="M24.2389 13.4595C26.3841 23.2487 29.2755 20.5309 36.0465 23.9185C36.9999 24.3956 37.2129 24.6493 36.4421 25.2177C35.6712 25.7861 33.3383 27.3795 32.6283 29.6124C31.9183 31.8453 31.6546 35.6616 30.7215 38.0974C29.7883 40.5333 27.7395 43.8218 26.7657 45.5269C25.792 47.232 24.2706 50.7844 24.0069 51.9414C23.7431 53.0985 22.8506 54.4382 22.7897 53.0376C22.7289 51.6369 23.236 46.1765 23.3577 42.9286C23.4794 39.6808 23.2766 33.9361 23.236 32.0483C23.1954 30.1605 23.3171 27.5216 23.1549 26.2225C22.9926 24.9234 23.2969 17.8593 23.3577 16.4383C23.4186 15.0174 23.1143 13.7589 23.2766 13.0687C23.4389 12.3785 24.0112 12.4206 24.2389 13.4595Z" fill="#28839F" fill-opacity="0.2"/>
<path d="M26.5427 15.1192C26.8485 16.2086 27.4796 19.2348 28.1085 19.9453C28.2245 20.0763 28.8308 20.5578 28.7069 20.5644C27.403 20.634 26.1639 17.8529 26.1573 17.8392C25.4473 16.3879 25.4371 15.5251 25.5284 14.3884C25.6197 13.2516 26.0356 13.3125 26.5427 15.1192Z" fill="#28839F" fill-opacity="0.2"/>
<path d="M43.5621 26.1215C45.5704 26.9537 46.747 28.4153 47.7613 30.7497C48.7756 33.0841 49.0596 35.6011 48.8162 37.5295C48.5727 39.458 48.3902 40.5338 48.3699 41.2646C48.3496 41.9954 47.8627 41.0819 46.747 40.0466C45.6313 39.0114 42.9941 36.6161 42.4059 35.1749C41.8176 33.7336 42.1421 32.2518 41.0264 31.2774C39.9107 30.3031 38.7544 29.0039 37.6184 28.5168C36.4824 28.0296 36.8881 27.2988 37.8618 27.177C38.8355 27.0552 40.2353 26.02 40.8641 25.8779C41.493 25.7358 42.9321 25.8604 43.5621 26.1215Z" fill="#28839F" fill-opacity="0.2"/>
<path d="M35.2148 28.1406C36.4319 28.3537 38.5112 29.3585 39.0995 30.2314C39.661 31.0644 40.4181 30.9723 40.5398 31.4392C40.6615 31.9061 39.9312 31.8655 39.4849 32.6977C39.0387 33.53 38.8155 34.89 38.1461 35.702C35.8676 38.4656 34.8953 38.2445 32.1821 39.5182C31.5647 39.808 30.7012 40.1272 30.6403 39.7212C30.5795 39.3152 30.8128 38.8179 31.3098 37.9349C31.8068 37.0519 32.1009 34.4841 32.3241 33.3067C32.5472 32.1294 32.9225 30.1908 33.3384 29.2672C33.7542 28.3436 34.8081 28.0694 35.2148 28.1406Z" fill="#28839F" fill-opacity="0.2"/>
<path d="M41.3306 33.3581C41.068 33.8498 40.9959 33.792 40.4634 34.1346C39.9309 34.4771 39.5734 34.9262 39.4289 35.0937C39.2843 35.2612 39.0257 34.8349 39.2311 34.2868C39.4365 33.7387 39.7712 33.1754 40.0678 32.871C40.3645 32.5665 40.4863 32.1935 40.7677 32.125C41.0492 32.0564 41.5665 32.9166 41.3306 33.3581Z" fill="#28839F" fill-opacity="0.2"/>
<path d="M37.2738 37.5088C37.7928 37.0127 38.5112 36.1387 39.3023 35.7631C40.0935 35.3876 41.1585 34.0682 41.4729 34.4234C41.7874 34.7786 41.6758 35.824 41.3512 36.6157C41.0266 37.4073 40.6716 38.5035 40.4181 39.3967C40.1645 40.2898 39.4444 41.051 38.6735 41.2845C37.9026 41.5179 36.0566 41.8325 34.8395 41.7108C33.6223 41.589 32.5472 41.0003 32.0806 40.6958C30.9618 39.9657 35.0018 39.6808 37.2738 37.5088Z" fill="#28839F" fill-opacity="0.2"/>
<path d="M30.8636 40.574C31.7979 40.8233 32.4256 41.6296 34.4947 42.0761C35.8414 42.3668 38.6533 42.0355 39.2822 41.8325C39.911 41.6296 40.337 42.4009 40.2559 43.0099C40.1747 43.6189 39.9313 46.136 39.2416 48.4906C38.5519 50.8453 37.5985 54.7631 36.929 56.5291C36.2596 58.2951 36.0162 58.4778 35.3873 61.9286C34.7584 65.3795 32.9124 67.3079 32.4256 68.5867C31.9387 69.8656 29.8087 68.7897 30.0319 66.8004C30.255 64.8111 30.1941 63.3496 29.1393 60.7107C28.0844 58.0718 26.9078 55.5547 26.0558 54.1744C25.2038 52.7941 24.93 51.3528 25.2647 50.1146C25.5994 48.8763 26.4311 47.0291 27.0296 45.9939C27.628 44.9586 29.0581 42.7968 29.5247 41.9138C29.9913 41.0307 30.0826 40.8683 30.1941 40.7161C30.3057 40.5639 30.5593 40.4928 30.8636 40.574Z" fill="#28839F" fill-opacity="0.2"/>
<path d="M42.4667 36.8597C43.1785 37.9875 44.8299 40.9855 45.4081 42.645C45.9862 44.3044 46.1181 46.1567 46.179 48.349C46.2398 50.5413 46.8382 55.8394 46.5644 57.0573C46.2905 58.2752 45.8848 59.1075 45.0024 58.5594C44.1199 58.0114 42.8115 54.936 41.8987 52.8351C40.9858 50.7341 40.3297 47.0946 40.4786 45.6289C40.7221 43.2336 40.7018 42.6856 40.7626 40.412C40.8174 38.3671 42.1015 36.2812 42.4667 36.8597Z" fill="#28839F" fill-opacity="0.2"/>
<path d="M45.5085 39.9139C46.2468 40.3105 47.5258 40.8417 48.1266 44.2179C48.2255 44.7736 48.477 47.6078 48.6292 48.5517C48.7813 49.4956 48.7651 52.1782 48.7002 52.9668C48.6274 53.8498 48.7301 55.1794 48.5932 55.8797C48.4563 56.58 47.8325 55.4991 47.6803 53.9614C47.5282 52.4238 47.0211 48.9882 46.6965 46.06C46.4578 43.9068 46.3301 42.6549 44.9963 40.6452C44.2694 39.5501 44.5095 39.3773 45.5085 39.9139Z" fill="#28839F" fill-opacity="0.2"/>
<path d="M18.641 7L17 7.91304C17.1368 11 17 13.6522 17.3077 18.4783C17.3743 19.5235 19.735 27.2609 21 31C21 26.7391 20.9385 18.0087 20.6923 17.1739C20.3846 16.1304 19.4615 13.5217 19.2564 12.4783C19.0923 11.6435 18.7778 8.47826 18.641 7Z" fill="#28839F"/>
<path d="M25.359 7L27 7.91304C26.8632 11 27 13.6522 26.6923 18.4783C26.6257 19.5235 24.265 27.2609 23 31C23 26.7391 23.0615 18.0087 23.3077 17.1739C23.6154 16.1304 24.5385 13.5217 24.7436 12.4783C24.9077 11.6435 25.2222 8.47826 25.359 7Z" fill="#28839F"/>
</g>
<defs>
<clipPath id="clip0_4055_6255">
<rect width="61" height="48" fill="white"/>
</clipPath>
</defs>
</svg>
