<svg width="61" height="48" viewBox="0 0 61 48" fill="none" xmlns="http://www.w3.org/2000/svg">
<g clip-path="url(#clip0_4081_13409)">
<path d="M38.808 178.241C38.6244 178.241 38.4761 178.133 38.3327 178.03C38.2137 177.944 38.1014 177.862 37.9936 177.862C37.9749 177.862 37.9568 177.865 37.9381 177.869C37.8153 177.901 37.7477 177.954 37.6695 178.015C37.5589 178.102 37.4335 178.2 37.1792 178.2C37.1624 178.2 37.1449 178.199 37.1267 178.198C36.8895 178.187 36.7413 178.087 36.6105 177.998C36.49 177.917 36.3949 177.853 36.2359 177.853C36.2264 177.853 36.2166 177.853 36.2066 177.853C36.0397 177.861 35.9434 177.918 35.8215 177.989C35.6689 178.079 35.496 178.18 35.1731 178.198C35.1507 178.2 35.1286 178.2 35.1068 178.2C34.8053 178.2 34.5461 178.085 34.3174 177.983C34.1252 177.898 33.9437 177.817 33.7627 177.813L33.7478 177.813C33.5631 177.813 33.336 177.888 33.0956 177.967C32.7967 178.066 32.458 178.178 32.1065 178.178L32.0798 178.178C31.2324 178.165 30.7509 177.728 30.6486 176.881C30.5943 176.432 30.7434 175.945 30.8876 175.475C31.0544 174.931 31.2268 174.369 31.0979 173.853C30.8256 172.763 30.6691 171.36 30.7085 170.363C30.7356 169.679 30.523 168.757 30.3355 167.944C30.2452 167.552 30.1599 167.183 30.1019 166.85C29.9806 166.156 30.4886 164.938 30.9368 163.863C31.1822 163.275 31.414 162.719 31.4607 162.421C31.5617 161.775 31.4463 158.256 31.3843 156.364L31.3752 156.087C31.3236 155.717 31.2718 155.323 31.2206 154.933C31.0812 153.871 30.9495 152.868 30.8348 152.439L30.7487 152.118C30.4431 150.982 29.9838 149.275 29.9829 148.678C29.8771 148.402 29.7228 147.993 29.5649 147.528C29.1839 147.059 28.9068 146.027 28.7414 144.46C28.4799 141.984 28.7685 138.507 29.068 137.05C29.2187 136.317 29.4544 135.429 29.6624 134.646C29.861 133.899 30.0486 133.193 30.1221 132.77C30.1979 132.336 30.2148 132.09 30.225 131.944C30.2316 131.848 30.236 131.784 30.2548 131.734C30.2295 131.599 30.2022 131.446 30.173 131.282C30.0293 130.476 29.8327 129.373 29.5767 128.802C29.2395 128.051 28.7967 125.811 28.6077 124.855L28.6012 124.822C28.541 124.517 28.4858 124.007 28.4371 123.304C28.3449 122.548 28.3165 121.638 28.2977 121.037L28.2944 120.933C28.2853 120.647 28.2854 120.076 28.3458 119.863C28.3379 119.683 28.3077 119.518 28.2224 119.181C28.1335 118.829 28.0739 118.449 28.0049 118.009C27.9713 117.795 27.9355 117.566 27.8929 117.32C27.8489 117.164 27.8203 117.008 27.8085 116.857C27.7286 116.446 27.6689 116.252 27.6163 116.081C27.5541 115.879 27.5 115.703 27.4336 115.263C27.3463 115.142 27.2935 114.69 27.1415 112.997C27.0812 112.325 27.0188 111.63 26.9564 111.11C26.923 110.831 26.9031 110.474 26.8973 110.048C26.8382 109.926 26.759 109.802 26.6754 109.671C26.5817 109.524 26.485 109.372 26.397 109.197C26.0435 108.866 25.69 107.039 25.6326 106.541C25.5032 105.419 24.6819 100.47 24.2073 98.8917C23.6655 97.0905 24.0365 93.4604 24.0806 93.0524C24.0955 92.9138 24.1093 92.7766 24.1228 92.6418C24.1805 92.0654 24.2351 91.5197 24.3665 91.1003C24.2286 90.8427 23.5884 90.7272 23.2776 90.7272H23.1153C22.8069 90.7272 22.1741 90.841 22.0271 91.1024C22.1581 91.5218 22.2127 92.0671 22.2703 92.6429C22.2837 92.7774 22.2975 92.9142 22.3124 93.0525C22.3565 93.4605 22.7275 97.0908 22.1856 98.8917C21.7111 100.47 20.8897 105.419 20.7603 106.541C20.7029 107.039 20.3494 108.866 19.9961 109.197C19.908 109.372 19.8113 109.524 19.7177 109.67C19.6341 109.801 19.5548 109.926 19.4957 110.048C19.4899 110.474 19.47 110.831 19.4366 111.11C19.3742 111.63 19.3118 112.325 19.2515 112.997C19.0995 114.69 19.0467 115.142 18.9594 115.263C18.893 115.703 18.8388 115.879 18.7766 116.081C18.7241 116.252 18.6645 116.446 18.5845 116.857C18.5727 117.008 18.5441 117.164 18.497 117.333C18.4575 117.566 18.4218 117.794 18.3882 118.008C18.3192 118.448 18.2596 118.829 18.1706 119.181C18.0995 119.462 18.068 119.619 18.0542 119.762C18.088 119.908 18.0922 120.203 18.0964 120.689L18.0987 120.927C18.1056 121.569 18.0694 122.619 17.944 123.465C17.8989 124.081 17.8473 124.541 17.7917 124.822L17.7859 124.851C17.5968 125.808 17.1539 128.05 16.8162 128.802C16.5602 129.373 16.3635 130.477 16.2199 131.282C16.1907 131.446 16.1635 131.599 16.1383 131.734C16.157 131.784 16.1614 131.848 16.168 131.943C16.1781 132.09 16.1951 132.336 16.2709 132.77C16.3445 133.193 16.5321 133.899 16.7308 134.647C16.9387 135.43 17.1744 136.317 17.325 137.05C17.6245 138.507 17.9131 141.984 17.6516 144.46C17.5312 145.6 17.2819 147.071 16.7763 147.651C16.6173 148.126 16.4822 148.489 16.4101 148.678C16.4092 149.276 15.9495 150.984 15.6436 152.12L15.5582 152.439C15.4436 152.868 15.312 153.87 15.1727 154.931C15.1214 155.322 15.0695 155.717 15.0178 156.087L15.0086 156.369C14.9466 158.259 14.8314 161.776 14.9323 162.421C14.979 162.719 15.2108 163.275 15.4561 163.863C15.9044 164.937 16.4124 166.156 16.2911 166.85C16.233 167.183 16.1478 167.552 16.0575 167.944C15.87 168.757 15.6574 169.679 15.6844 170.363C15.724 171.36 15.5675 172.763 15.2951 173.853C15.1661 174.369 15.3386 174.931 15.5054 175.475C15.6496 175.945 15.7987 176.432 15.7444 176.881C15.6421 177.728 15.1605 178.165 14.3132 178.178L14.2865 178.178C13.9349 178.178 13.5962 178.066 13.2974 177.967C13.0569 177.888 12.8299 177.813 12.6451 177.813L12.6303 177.813C12.4493 177.817 12.2678 177.898 12.0756 177.983C11.8469 178.085 11.5877 178.2 11.2862 178.2C11.2643 178.2 11.2422 178.2 11.2199 178.198C10.8969 178.18 10.7241 178.079 10.5715 177.989C10.4496 177.918 10.3533 177.861 10.1864 177.853C10.1763 177.853 10.1666 177.853 10.1571 177.853C9.99811 177.853 9.90296 177.917 9.78249 177.998C9.65173 178.087 9.50347 178.187 9.26631 178.198C9.2481 178.199 9.23063 178.2 9.21387 178.2C8.95951 178.2 8.83412 178.102 8.72348 178.015C8.6452 177.954 8.57762 177.901 8.45482 177.869C8.43615 177.865 8.41801 177.862 8.39934 177.862C8.29156 177.862 8.17926 177.944 8.06032 178.03C7.91692 178.133 7.7686 178.241 7.585 178.241C7.57105 178.241 7.55695 178.24 7.54287 178.239C7.31103 178.217 7.19068 178.12 7.08449 178.034C7.01951 177.981 6.96343 177.936 6.88056 177.906C6.87012 177.903 6.85857 177.901 6.84541 177.901C6.77112 177.901 6.66168 177.957 6.54585 178.018C6.37316 178.107 6.15812 178.219 5.91232 178.219C5.38438 178.219 5.11413 177.956 4.9484 177.283C4.78195 176.606 4.92828 175.508 5.46127 174.841C5.59888 174.669 5.8179 174.406 6.07154 174.102C6.71969 173.326 7.60745 172.262 7.98988 171.684C8.5234 170.878 8.7397 169.436 8.42652 168.773C8.0263 167.924 7.9423 167.132 8.17686 166.419L8.256 166.18C8.47521 165.52 8.70195 164.838 8.79989 164.009C8.88043 163.327 8.84422 161.675 8.77631 160.422C8.71258 160.141 8.66082 159.844 8.62254 159.541C8.40386 157.809 7.40823 150.308 6.8902 147.982C6.40306 145.796 5.63151 141.788 5.50266 139.709C5.38891 137.874 5.51935 136.679 5.59729 135.965L5.61476 135.804C5.64154 135.552 5.71364 135.065 5.76307 134.839C5.85995 134.344 5.99578 133.884 6.11558 133.479C6.18568 133.242 6.252 133.018 6.3027 132.812C6.33453 132.564 6.41355 131.996 6.49681 131.8L6.50817 131.742C6.59316 131.31 6.68937 130.821 6.73862 130.367C6.73696 130.08 6.74407 129.811 6.76022 129.545C6.67523 128.611 6.64015 125.081 6.75031 123.467C6.82235 122.412 7.10595 120.852 7.33381 119.599C7.45542 118.93 7.56046 118.352 7.59276 118.061C7.63217 117.706 7.61163 117.203 7.53189 116.567L7.53076 116.564C6.55854 114.17 5.57208 111.662 5.13026 109.641C4.90838 108.626 4.86573 106.847 4.82446 105.128C4.78619 103.533 4.74664 101.885 4.56164 100.95C4.18799 99.0608 4.13523 95.7931 4.18966 94.1771C4.17018 93.8139 4.227 93.0759 4.25969 92.752C4.23956 92.6892 4.24606 92.6104 4.25583 92.5326C4.28135 92.328 4.30627 91.877 4.33783 91.306C4.41863 89.845 4.54063 87.6371 4.8366 86.3975C5.23476 84.7301 5.98956 80.294 5.95879 78.8805C5.92763 77.4441 6.6613 74.3711 7.20293 72.7049C7.31484 72.2321 7.51385 71.4929 7.68948 70.8408C7.78463 70.4872 7.87162 70.1642 7.93155 69.9323C7.96797 69.4865 8.0806 69.0356 8.17489 68.6916C8.30387 68.2214 8.21543 67.6558 8.11302 67.0008C8.00072 66.2826 7.86092 65.3887 7.96783 64.3292C8.14518 62.5721 8.34127 61.6917 8.4745 61.2626C8.51837 61.1049 8.57398 60.9428 8.63292 60.7712C8.76489 60.3867 8.90132 59.9892 8.9275 59.5621C8.86425 58.8941 8.86543 58.1232 8.93015 57.7173C8.935 56.8476 8.92969 55.8705 8.85506 55.2009C8.82881 55.0705 8.80382 54.9149 8.78236 54.7498C8.65059 54.1448 8.38705 53.528 8.19462 53.0776C8.13137 52.9297 8.07575 52.7995 8.03143 52.6862C7.86563 52.5659 7.80065 52.2181 7.68369 51.5926C7.5997 51.1435 7.49517 50.5846 7.32374 50.0097C6.9879 48.884 6.3139 45.9488 6.06452 44.4108C6.02964 44.3996 5.99634 44.3936 5.96718 44.3936C5.93807 44.3936 5.92465 44.3997 5.92126 44.4015C5.90644 44.4095 5.88703 44.4251 5.8681 44.4681C5.91469 44.7503 5.81249 45.7056 5.74311 46.2823C5.66868 46.9011 5.28141 48.1329 4.83308 49.5592C4.06639 51.998 3.11217 55.0332 3.18785 56.6429C3.28918 58.7977 2.54136 60.4119 2.1499 60.732C2.07435 61.118 2.01202 61.5306 1.95162 61.9302C1.89082 62.3328 1.82789 62.7492 1.75074 63.1452C1.66243 63.7594 1.47942 64.4667 1.19249 65.3007C0.904037 66.1393 0.0541496 68.209 -1.08121 70.8379C-1.23178 71.3254 -1.39903 71.8601 -1.57594 72.4256C-2.7166 76.072 -4.27876 81.066 -4.31804 82.839C-4.32927 83.3472 -4.04466 84.1247 -3.5746 85.3448C-3.05304 86.6987 -3.14328 89.3576 -4.33791 91.6184C-4.84612 92.5803 -5.29618 94.0508 -5.73148 95.4729C-6.15423 96.8543 -6.55366 98.1591 -6.94805 98.7459C-7.18288 99.0953 -7.42595 99.2725 -7.67049 99.2725C-7.92054 99.2725 -8.10859 99.091 -8.23577 98.9047C-8.43353 99.9165 -8.89183 101.731 -9.65355 101.869C-9.70811 101.879 -9.76179 101.884 -9.8131 101.884C-10.1883 101.884 -10.4615 101.625 -10.5989 101.155C-10.8362 101.964 -11.2707 103.049 -11.8954 103.049L-11.9156 103.049C-12.7948 103.016 -12.8207 101.862 -12.7807 100.56C-12.8504 100.599 -12.9292 100.619 -13.0153 100.619C-13.5911 100.619 -14.2832 99.7539 -14.4125 98.8723C-14.7323 96.6905 -14.5204 94.0768 -14.3657 92.1683C-14.2896 91.2305 -14.2112 90.2636 -14.2757 89.9902C-14.3943 90.0998 -14.5454 90.2957 -14.7182 90.5195C-15.0427 90.9398 -15.4464 91.4629 -15.92 91.7888C-16.3043 92.0533 -16.7623 92.1931 -17.2445 92.1931C-18.0014 92.1931 -18.6675 91.8512 -18.8284 91.3801C-18.8892 91.2021 -18.924 90.8515 -18.4742 90.5032C-17.3021 89.5955 -15.0555 86.3164 -14.2569 84.348C-13.7244 83.0353 -12.7435 82.6003 -11.9553 82.2506C-11.4848 82.0419 -11.0784 81.8617 -10.8782 81.5452C-10.4153 80.8137 -9.71416 77.251 -8.79436 70.9564C-8.75735 67.5402 -8.70279 64.0635 -8.48411 62.3566C-8.071 59.132 -6.71915 55.214 -5.53209 53.8009C-5.36225 53.5988 -5.21067 53.415 -5.07525 53.2507C-4.66413 52.7522 -4.40995 52.444 -4.21806 52.3133C-4.04774 52.0851 -3.90229 51.6571 -3.78547 51.0405C-4.05073 47.0824 -3.20092 43.6978 -2.51157 42.5567L-2.47483 42.4964C-2.39516 42.2231 -2.28404 41.8752 -2.16657 41.5073L-2.12531 41.3778L-2.10312 41.2491C-1.91924 40.1818 -2.056 38.6798 -2.21435 36.9406C-2.24904 36.5595 -2.28459 36.169 -2.31769 35.7721C-2.52548 33.2774 -2.21177 31.2808 -1.33044 29.489C-1.07947 28.8794 -0.60648 28.0924 -0.154951 27.5351C1.84591 24.0275 5.898 22.5714 7.62483 22.5714C7.73739 22.5714 7.83913 22.5782 7.92758 22.5916C7.96957 22.5894 8.01383 22.5885 8.06028 22.5885C8.24268 22.5885 8.45983 22.6037 8.68975 22.6197C8.96924 22.6392 9.28595 22.6613 9.60948 22.6614C9.75899 22.5361 10.0895 22.4207 10.6912 22.2175C11.1205 22.0725 11.6549 21.892 12.1892 21.6688C13.434 21.1491 14.9703 20.1949 15.8422 19.4C16.1112 19.1547 16.2788 19.0252 16.3978 18.9723C16.4804 18.8573 16.5682 18.7427 16.659 18.6242C17.0005 18.1788 17.387 17.6749 17.4924 17.1571C17.4584 16.8575 17.4465 15.2112 17.5587 14.1291C17.5461 13.9559 17.5332 13.8687 17.5247 13.8258C17.5087 13.7456 17.4954 13.6642 17.4818 13.5803C17.4192 13.1962 17.3484 12.761 16.9365 12.1468C16.585 11.6225 16.4875 10.4041 16.4677 9.47435C16.464 9.29462 16.3175 9.1484 16.1413 9.1484C16.1183 9.1484 16.0951 9.15093 16.0722 9.15591C15.9674 9.17879 15.8577 9.19088 15.7549 9.19088C15.478 9.19088 15.2492 9.10683 15.0933 8.94772C14.9324 8.78368 14.8538 8.54791 14.8595 8.24689C14.8795 7.19503 14.6657 6.58475 14.477 6.04629C14.3819 5.77479 14.2921 5.51833 14.238 5.22969C14.1419 4.71683 14.0834 4.02723 14.3503 3.65447C14.4553 3.50791 14.5993 3.42061 14.7785 3.39501C14.8223 3.38869 14.8675 3.38557 14.9127 3.38557C15.0613 3.38557 15.2166 3.41948 15.3744 3.4865C15.396 3.49562 15.4183 3.50027 15.4405 3.50027C15.4885 3.50027 15.536 3.47873 15.5708 3.44123C15.6065 3.4028 15.624 3.35279 15.62 3.30053C15.5044 1.76168 15.3988 -2.02716 16.9118 -3.9685C18.7107 -6.2766 21.4774 -6.74418 22.5836 -6.83814C22.7266 -6.85025 22.8991 -6.86328 23.1375 -6.86328C23.3163 -6.86328 23.5101 -6.85557 23.7137 -6.8404C24.8401 -6.75669 27.6567 -6.30919 29.481 -3.9685C30.9939 -2.02716 30.8883 1.76168 30.7727 3.3006C30.7688 3.35279 30.7862 3.4028 30.8219 3.44129C30.8567 3.4788 30.9042 3.50027 30.9522 3.50027C30.9746 3.50027 30.9968 3.49562 31.0184 3.4865C31.1762 3.41948 31.3315 3.38557 31.48 3.38557C31.5252 3.38557 31.5704 3.38869 31.6143 3.39501C31.7934 3.42061 31.9374 3.50791 32.0424 3.65447C32.3093 4.02723 32.2508 4.71683 32.1548 5.22969C32.1007 5.51833 32.0108 5.77473 31.9157 6.04623C31.7271 6.58469 31.5133 7.19495 31.5333 8.24689C31.539 8.54789 31.4604 8.78375 31.2995 8.94779C31.1435 9.10685 30.9147 9.1909 30.6379 9.1909C30.535 9.1909 30.4253 9.17879 30.3205 9.15593C30.2976 9.15094 30.2744 9.14841 30.2514 9.14841C30.0753 9.14841 29.9288 9.29462 29.925 9.47437C29.9052 10.4041 29.8078 11.6225 29.4563 12.1469C29.0445 12.7609 28.9736 13.1962 28.911 13.5802C28.8974 13.6641 28.8841 13.7456 28.868 13.8257C28.8594 13.8691 28.8466 13.9567 28.8341 14.129C28.9463 15.2115 28.9344 16.8576 28.9004 17.1571C29.0057 17.6749 29.3922 18.1788 29.7337 18.6242C29.8259 18.7444 29.915 18.8607 29.9952 18.9724C30.1142 19.0254 30.2817 19.1548 30.5506 19.4C31.4224 20.1948 32.9586 21.149 34.2035 21.6688C34.7378 21.892 35.2722 22.0725 35.7016 22.2175C36.3033 22.4207 36.6338 22.5361 36.7833 22.6614C37.1068 22.6613 37.4235 22.6392 37.703 22.6197C37.9329 22.6037 38.1501 22.5885 38.3325 22.5885C38.3789 22.5885 38.4231 22.5894 38.4651 22.5916C38.5536 22.5782 38.6553 22.5714 38.7679 22.5714C40.4947 22.5714 44.5468 24.0275 46.5477 27.5351C46.9993 28.0926 47.4723 28.8796 47.7269 29.4971C48.6045 31.2807 48.9182 33.2772 48.7104 35.7721C48.6773 36.1694 48.6418 36.5601 48.607 36.9416C48.4487 38.6804 48.312 40.182 48.4959 41.2491L48.5253 41.4197L48.5274 41.4263C48.6457 41.8064 48.7576 42.1658 48.8365 42.4451L48.9043 42.5568C49.6012 43.7102 50.4546 47.1262 50.1739 51.1142C50.287 51.6961 50.431 52.0974 50.6024 52.3079C50.7958 52.4356 51.053 52.7475 51.4698 53.253C51.6048 53.4166 51.7558 53.5996 51.9248 53.8009C53.1119 55.2139 54.4637 59.1319 54.8768 62.3565C55.0955 64.0635 55.1501 67.5401 55.1871 70.9563C56.1069 77.251 56.808 80.8137 57.271 81.5452C57.4712 81.8617 57.8776 82.0419 58.348 82.2506C59.1363 82.6002 60.1171 83.0353 60.6497 84.3479C61.4483 86.3164 63.6949 89.5954 64.867 90.5032C65.3168 90.8515 65.282 91.2021 65.2212 91.3801C65.0603 91.8512 64.3942 92.193 63.6373 92.193C63.1551 92.193 62.697 92.0533 62.3128 91.7888C61.8393 91.4629 61.4355 90.9398 61.1111 90.5197C60.9384 90.2958 60.7871 90.0999 60.6685 89.9902C60.6041 90.2637 60.6825 91.2303 60.7585 92.1678C60.9132 94.0764 61.1251 96.6904 60.8053 98.8722C60.6761 99.7538 59.984 100.619 59.4081 100.619C59.3221 100.619 59.2432 100.599 59.1736 100.56C59.2135 101.861 59.1875 103.016 58.3083 103.049L58.2881 103.049C57.6635 103.049 57.2289 101.964 56.9917 101.155C56.8543 101.625 56.5811 101.884 56.206 101.884C56.1546 101.884 56.1009 101.879 56.0464 101.869C55.2843 101.73 54.8262 99.9164 54.6285 98.9046C54.5014 99.0909 54.3134 99.2725 54.0633 99.2725C53.8188 99.2725 53.5756 99.0953 53.3408 98.7458C52.9464 98.159 52.547 96.8542 52.1242 95.4728C51.6889 94.0508 51.2389 92.5803 50.7307 91.6184C49.536 89.3575 49.4458 86.6986 49.9674 85.3448C50.4375 84.1246 50.7221 83.347 50.7108 82.839C50.6715 81.066 49.1094 76.0721 47.9688 72.4257C47.7919 71.8602 47.6246 71.3255 47.474 70.8379C46.3387 68.2088 45.4888 66.1391 45.2003 65.3006C44.9133 64.4667 44.7304 63.7594 44.6409 63.1383C44.5649 62.7492 44.502 62.333 44.4413 61.9307C44.3809 61.5309 44.3186 61.1181 44.2429 60.7319C43.8514 60.4117 43.1037 58.7975 43.2049 56.6428C43.2807 55.0331 42.3265 51.9979 41.5597 49.559C41.1113 48.1327 40.7241 46.901 40.6497 46.2822C40.5803 45.7055 40.4782 44.7502 40.5247 44.4681C40.5059 44.425 40.4865 44.4094 40.4717 44.4015C40.4682 44.3996 40.4548 44.3935 40.4256 44.3935C40.3965 44.3935 40.3631 44.3995 40.3283 44.4108C40.0791 45.9482 39.405 48.8835 39.0691 50.0096C38.8976 50.5846 38.7931 51.1435 38.7092 51.5926C38.5922 52.2181 38.5271 52.5658 38.3614 52.6862C38.317 52.7995 38.2614 52.9296 38.1982 53.0775C38.0058 53.5278 37.7422 54.1446 37.6086 54.761C37.5891 54.914 37.5641 55.0696 37.536 55.2121C37.4631 55.8705 37.4578 56.8475 37.4626 57.7172C37.5274 58.123 37.5286 58.8941 37.4653 59.562C37.4915 59.9892 37.6279 60.3866 37.7599 60.7711C37.8188 60.9426 37.8744 61.1047 37.9194 61.2662C38.0516 61.6917 38.2476 62.5722 38.425 64.3292C38.5319 65.3886 38.3921 66.2824 38.2798 67.0006C38.1774 67.6556 38.0889 68.2213 38.218 68.6916C38.3123 69.0353 38.4248 69.4861 38.4612 69.9321C38.5211 70.1636 38.6078 70.4858 38.7028 70.8386C38.8786 71.4915 39.0778 72.2315 39.1928 72.7155C39.7315 74.3709 40.4651 77.4439 40.434 78.8804C40.4033 80.2935 41.158 84.7298 41.5562 86.3974C41.8521 87.6369 41.9742 89.8444 42.055 91.3052C42.0865 91.8766 42.1114 92.3279 42.137 92.5325C42.1468 92.6103 42.1533 92.6892 42.1331 92.752C42.1659 93.0755 42.2226 93.8132 42.203 94.1886C42.2576 95.7926 42.2049 99.06 41.8312 100.95C41.6461 101.885 41.6066 103.533 41.5684 105.127C41.5271 106.847 41.4844 108.626 41.2625 109.641C40.8208 111.662 39.8343 114.169 38.8619 116.565L38.8609 116.567C38.7811 117.204 38.7607 117.706 38.8001 118.061C38.8323 118.352 38.9373 118.929 39.059 119.598C39.2868 120.852 39.5705 122.412 39.6425 123.467C39.753 125.086 39.7174 128.631 39.6321 129.548C39.6486 129.805 39.6559 130.077 39.6543 130.367C39.7035 130.821 39.7997 131.31 39.8847 131.742L39.896 131.799C39.9792 131.996 40.0583 132.564 40.0902 132.813C40.1408 133.017 40.2071 133.241 40.2772 133.478C40.4348 134.012 40.6135 134.616 40.7052 135.292C40.7349 135.461 40.7617 135.65 40.778 135.804L40.7955 135.965C40.8735 136.679 41.0039 137.874 40.8901 139.709C40.7614 141.788 39.9898 145.795 39.5026 147.982C38.9839 150.31 37.9888 157.809 37.7703 159.541C37.732 159.844 37.6803 160.141 37.6166 160.422C37.5486 161.674 37.5123 163.327 37.593 164.009C37.691 164.839 37.9179 165.521 38.1372 166.181L38.216 166.418C38.4505 167.132 38.3665 167.924 37.9663 168.772C37.6531 169.436 37.8695 170.878 38.403 171.684C38.7856 172.262 39.6736 173.326 40.3221 174.103C40.5754 174.407 40.7941 174.669 40.9316 174.841C41.4645 175.508 41.6109 176.606 41.4444 177.283C41.2787 177.956 41.0085 178.219 40.4805 178.219C40.2347 178.219 40.0197 178.107 39.847 178.018C39.7312 177.957 39.6217 177.901 39.5474 177.901C39.5342 177.901 39.5227 177.902 39.5122 177.906C39.4294 177.936 39.3733 177.981 39.3083 178.034C39.2021 178.12 39.0818 178.217 38.8499 178.238C38.8358 178.24 38.822 178.241 38.808 178.241Z" fill="white" stroke="#28839F" stroke-width="0.504915"/>
<path d="M1.22533 37.6746C1.19625 37.6914 1.15966 37.6745 1.15387 37.6414C0.740925 35.2756 -2.31511 32.2191 -0.295636 28.087C1.74316 23.9154 6.61193 22.5147 7.92041 22.7278C9.16095 22.9299 12.4256 25.0753 13.9541 25.531C14.0037 25.5458 13.9974 25.6197 13.9458 25.625C11.7579 25.8489 9.92201 25.9149 7.75134 27.4424C5.49514 29.0302 5.94965 31.0406 5.46278 32.5935C4.97979 34.134 3.71346 36.2439 1.22533 37.6746Z" fill="#28839F" fill-opacity="0.2"/>
<path d="M-1.20867 29.5479C-1.52818 31.3748 -1.13318 32.995 -0.417488 34.8157C0.199538 36.3853 0.799704 37.3278 0.769274 38.0738C0.130242 38.6523 -1.58904 40.7838 -1.9694 41.271C-1.74118 39.9464 -1.99983 37.952 -2.18241 35.7596C-2.365 33.5672 -2.1672 31.4966 -1.20867 29.5479Z" fill="#28839F" fill-opacity="0.2"/>
<path d="M5.5086 33.6895C4.85943 36.1051 2.11821 37.2724 -0.113301 44.6716C-0.750523 46.7846 -1.53855 53.4714 -1.51307 56.0801C-1.50356 57.0548 -0.732042 55.8162 -0.732042 55.8162C-0.732042 55.8162 4.79604 47.879 5.48578 43.9002C6.17552 39.9215 5.5086 33.6895 5.5086 33.6895Z" fill="#28839F" fill-opacity="0.2"/>
<path d="M3.09234 37.0186C2.39816 37.8274 0.00878596 42.2153 -0.638874 44.845C-1.20479 47.1427 -2.11248 52.5005 -2.17835 56.919C-2.17997 57.0275 -2.33065 57.0533 -2.36965 56.952C-4.80697 50.623 -3.32754 44.1695 -2.39517 42.6264C-1.60513 41.3189 0.201514 38.5004 3.09234 37.0186Z" fill="#28839F" fill-opacity="0.2"/>
<path d="M0.0902318 55.6336C-0.271125 56.2866 1.30742 57.7753 1.91603 60.5868C2.01998 61.0671 3.17379 59.2368 3.05207 56.6486C2.93035 54.0604 5.41038 47.9096 5.60817 46.2653C5.80596 44.621 5.72988 44.4688 5.72988 44.4688C3.39282 50.3802 2.17974 51.8579 0.0902318 55.6336Z" fill="#28839F" fill-opacity="0.2"/>
<path d="M19.5857 25.8943C17.7695 25.4348 13.9826 25.838 12.3637 26.0567C9.58448 26.4323 7.49631 27.6414 6.76466 28.9799C6.11549 30.1674 5.64953 32.9552 6.15605 33.527C7.73841 35.3134 7.02838 40.429 12.6072 43.0273C14.4743 43.897 20.4581 43.342 21.371 42.2762C22.2838 41.2105 22.649 36.0036 22.3447 33.0195C22.0404 30.0355 21.3912 26.3511 19.5857 25.8943Z" fill="#28839F" fill-opacity="0.2"/>
<path d="M15.934 19.5001C15.0833 20.2757 13.53 21.256 12.2418 21.794C10.9536 22.3319 9.71616 22.606 9.64516 22.8293C9.57416 23.0526 10.9841 23.5093 11.9578 23.8646C12.9316 24.2198 14.1995 24.4837 14.6356 24.2503C15.0718 24.0168 15.8021 21.7737 16.0151 21.1038C16.2281 20.4339 16.4716 19.6422 16.5628 19.2768C16.6541 18.9114 16.3904 19.084 15.934 19.5001Z" fill="#28839F" fill-opacity="0.2"/>
<path d="M16.8978 18.8605C16.598 19.6703 16.0153 22.1339 15.6501 23.2148C15.285 24.2958 15.1633 24.6916 15.6197 24.8896C16.0762 25.0875 17.0651 24.4937 17.2021 24.0674C17.339 23.6411 17.339 18.9367 17.3238 18.5865C17.3086 18.2363 17.0499 18.4495 16.8978 18.8605Z" fill="#28839F"/>
<path d="M17.6127 19.5301C17.6026 20.3015 17.5215 22.6969 17.7801 23.245C18.0388 23.7931 19.1951 24.5087 19.5755 24.737C19.9558 24.9654 20.443 25.11 20.4579 24.737C20.4681 24.4833 19.4671 23.0652 18.8299 21.4535C18.2822 20.0681 17.9063 18.8664 17.9018 18.8602C17.704 18.5862 17.6192 19.0387 17.6127 19.5301Z" fill="#28839F"/>
<path d="M17.63 17.16C17.7565 17.8395 18.6423 20.3343 19.3007 21.7604C19.6012 22.4113 20.5636 24.3909 20.9164 24.2852C21.2385 24.1888 19.9462 19.9795 19.5344 18.515C18.6097 15.2264 18.3967 13.0188 17.9343 13.232C17.5667 13.4014 17.5819 16.9012 17.63 17.16Z" fill="#28839F" stroke="#28839F" stroke-width="0.7"/>
<path d="M21.7968 43.3418C22.3531 44.3439 22.8162 46.1889 22.8314 47.3307C22.8466 48.4726 22.2989 48.6248 21.5838 48.975C20.8687 49.3252 17.5366 51.0557 16.6237 51.8373C15.6956 52.6318 15.1631 53.1314 14.9805 51.5632C14.7979 49.9951 14.5697 48.2747 14.8588 46.5999C15.1479 44.9252 15.437 44.2705 16.1977 44.0422C16.9585 43.8138 17.9094 43.8671 19.0885 43.6311C20.2505 43.3985 21.5686 42.9307 21.7968 43.3418Z" fill="#28839F" fill-opacity="0.2"/>
<path d="M13.134 43.5951C12.2695 43.4408 9.8802 42.0409 8.99558 41.4027C7.61854 40.4092 7.99213 45.0685 10.8214 45.016C11.9168 44.9957 12.7892 44.4299 13.2152 44.2091C13.6412 43.9884 13.5322 43.6661 13.134 43.5951Z" fill="#28839F" fill-opacity="0.2"/>
<path d="M8.81457 45.2951C8.90206 46.0563 9.09514 46.6085 9.46754 47.2832C9.89609 48.0597 12.5333 46.2124 12.7095 45.7785C12.8932 45.326 12.3002 44.9563 11.709 45.1276C10.9019 45.3614 9.8758 45.219 9.33187 44.8041C8.7816 44.3844 8.77112 44.917 8.81457 45.2951Z" fill="#28839F" fill-opacity="0.2"/>
<path d="M12.8502 46.164C12.4051 46.5497 11.5315 47.1333 10.6592 47.5393C9.85156 47.9152 9.90356 48.2853 10.1216 48.5695C10.3397 48.8537 11.704 49.6149 12.201 49.8382C12.698 50.0615 13.5196 49.8788 13.6768 49.4018C13.9427 48.595 13.7714 45.3655 12.8502 46.164Z" fill="#28839F" fill-opacity="0.2"/>
<path d="M6.20225 35.6131C6.34443 38.2316 6.04028 42.8048 6.11505 43.7588C6.1962 44.794 7.04822 48.6104 7.45396 49.9705C7.85969 51.3306 7.89012 52.5841 8.16399 52.5993C8.43785 52.6145 9.05659 49.463 9.11745 48.4277C9.17831 47.3924 8.10313 42.825 7.90026 41.201C7.69739 39.577 6.8479 36.2783 6.59686 35.6084C6.25141 34.6866 6.12056 34.1085 6.20225 35.6131Z" fill="#28839F" fill-opacity="0.2"/>
<path d="M20.9679 14.9621C21.2482 15.8454 21.599 16.8957 21.7055 17.9766C21.812 19.0576 22.2228 17.2154 22.2837 16.4694C22.3446 15.7234 22.2076 15.5102 21.8272 15.2057C21.4469 14.9012 20.7848 14.3853 20.9679 14.9621Z" fill="#28839F" fill-opacity="0.2"/>
<path d="M45.1671 37.6746C45.1962 37.6914 45.2328 37.6745 45.2385 37.6414C45.6515 35.2756 48.7075 32.2191 46.688 28.087C44.6493 23.9154 39.7805 22.5147 38.472 22.7278C37.2314 22.9299 33.9668 25.0753 32.4383 25.531C32.3887 25.5458 32.395 25.6197 32.4466 25.625C34.6345 25.8489 36.4704 25.9149 38.6411 27.4424C40.8973 29.0302 40.4428 31.0406 40.9296 32.5935C41.4126 34.134 42.6789 36.2439 45.1671 37.6746Z" fill="#28839F" fill-opacity="0.2"/>
<path d="M47.6016 29.5479C47.9211 31.3748 47.5261 32.995 46.8104 34.8157C46.1934 36.3853 45.5932 37.3278 45.6237 38.0738C46.2627 38.6523 47.982 40.7838 48.3623 41.271C48.1341 39.9464 48.3928 37.952 48.5754 35.7596C48.7579 33.5672 48.5601 31.4966 47.6016 29.5479Z" fill="#28839F" fill-opacity="0.2"/>
<path d="M40.8835 33.6895C41.5327 36.1051 44.2739 37.2724 46.5054 44.6716C47.1426 46.7846 47.9306 53.4714 47.9052 56.0801C47.8957 57.0548 47.1241 55.8162 47.1241 55.8162C47.1241 55.8162 41.5961 47.879 40.9063 43.9002C40.2166 39.9215 40.8835 33.6895 40.8835 33.6895Z" fill="#28839F" fill-opacity="0.2"/>
<path d="M43.3003 37.0186C43.9945 37.8274 46.3838 42.2153 47.0315 44.845C47.5974 47.1427 48.5051 52.5005 48.571 56.919C48.5726 57.0275 48.7233 57.0533 48.7623 56.952C51.1996 50.623 49.7202 44.1695 48.7878 42.6264C47.9978 41.3189 46.1911 38.5004 43.3003 37.0186Z" fill="#28839F" fill-opacity="0.2"/>
<path d="M46.303 55.6336C46.6643 56.2866 45.0858 57.7753 44.4772 60.5868C44.3732 61.0671 43.2194 59.2368 43.3411 56.6486C43.4628 54.0604 40.9828 47.9096 40.785 46.2653C40.5872 44.621 40.6633 44.4688 40.6633 44.4688C43.0004 50.3802 44.2134 51.8579 46.303 55.6336Z" fill="#28839F" fill-opacity="0.2"/>
<path d="M26.8075 25.8943C28.6238 25.4348 32.4107 25.838 34.0295 26.0567C36.8088 26.4323 38.897 27.6414 39.6286 28.9799C40.2778 30.1674 40.7437 32.9552 40.2372 33.527C38.6549 35.3134 39.3649 40.429 33.7861 43.0273C31.919 43.897 25.9352 43.342 25.0223 42.2762C24.1094 41.2105 23.7443 36.0036 24.0486 33.0195C24.3529 30.0355 25.002 26.3511 26.8075 25.8943Z" fill="#28839F" fill-opacity="0.2"/>
<path d="M30.4593 19.5001C31.31 20.2757 32.8633 21.256 34.1515 21.794C35.4397 22.3319 36.6772 22.606 36.7482 22.8293C36.8192 23.0526 35.4093 23.5093 34.4355 23.8646C33.4617 24.2198 32.1938 24.4837 31.7577 24.2503C31.3215 24.0168 30.5912 21.7737 30.3782 21.1038C30.1652 20.4339 29.9218 19.6422 29.8305 19.2768C29.7392 18.9114 30.0029 19.084 30.4593 19.5001Z" fill="#28839F" fill-opacity="0.2"/>
<path d="M29.4957 18.8605C29.7954 19.6703 30.3781 22.1339 30.7433 23.2148C31.1084 24.2958 31.2302 24.6916 30.7737 24.8896C30.3173 25.0875 29.3283 24.4937 29.1914 24.0674C29.0544 23.6411 29.0544 18.9367 29.0696 18.5865C29.0849 18.2363 29.3435 18.4495 29.4957 18.8605Z" fill="#28839F"/>
<path d="M28.7803 19.5301C28.7905 20.3015 28.8716 22.6969 28.613 23.245C28.3543 23.7931 27.198 24.5087 26.8176 24.737C26.4372 24.9654 25.95 25.11 25.9351 24.737C25.925 24.4833 26.9259 23.0652 27.5631 21.4535C28.1109 20.0681 28.4868 18.8664 28.4912 18.8602C28.689 18.5862 28.7739 19.0387 28.7803 19.5301Z" fill="#28839F"/>
<path d="M28.7627 17.16C28.6362 17.8395 27.7505 20.3343 27.092 21.7604C26.7915 22.4113 25.8291 24.3909 25.4763 24.2852C25.1542 24.1888 26.4465 19.9795 26.8583 18.515C27.783 15.2264 27.996 13.0188 28.4584 13.232C28.826 13.4014 28.8109 16.9012 28.7627 17.16Z" fill="#28839F" stroke="#28839F" stroke-width="0.7"/>
<path d="M24.5964 43.3418C24.0401 44.3439 23.577 46.1889 23.5618 47.3307C23.5466 48.4726 24.0943 48.6248 24.8095 48.975C25.5245 49.3252 28.8566 51.0557 29.7695 51.8373C30.6976 52.6318 31.2301 53.1314 31.4127 51.5632C31.5953 49.9951 31.8235 48.2747 31.5344 46.5999C31.2453 44.9252 30.9563 44.2705 30.1955 44.0422C29.4348 43.8138 28.4838 43.8671 27.3047 43.6311C26.1427 43.3985 24.8247 42.9307 24.5964 43.3418Z" fill="#28839F" fill-opacity="0.2"/>
<path d="M33.2585 43.5951C34.123 43.4408 36.5123 42.0409 37.3969 41.4027C38.774 40.4092 38.4004 45.0685 35.5711 45.016C34.4757 44.9957 33.6034 44.4299 33.1773 44.2091C32.7513 43.9884 32.8604 43.6661 33.2585 43.5951Z" fill="#28839F" fill-opacity="0.2"/>
<path d="M37.5784 45.2951C37.4909 46.0563 37.2978 46.6085 36.9254 47.2832C36.4968 48.0597 33.8596 46.2124 33.6834 45.7785C33.4997 45.326 34.0927 44.9563 34.6839 45.1276C35.491 45.3614 36.5171 45.219 37.061 44.8041C37.6113 44.3844 37.6218 44.917 37.5784 45.2951Z" fill="#28839F" fill-opacity="0.2"/>
<path d="M33.5429 46.164C33.988 46.5497 34.8615 47.1333 35.7338 47.5393C36.5415 47.9152 36.4895 48.2853 36.2714 48.5695C36.0533 48.8537 34.6891 49.6149 34.192 49.8382C33.695 50.0615 32.8734 49.8788 32.7162 49.4018C32.4503 48.595 32.6217 45.3655 33.5429 46.164Z" fill="#28839F" fill-opacity="0.2"/>
<path d="M40.1906 35.6131C40.0485 38.2316 40.3526 42.8048 40.2779 43.7588C40.1967 44.794 39.3447 48.6104 38.9389 49.9705C38.5332 51.3306 38.5028 52.5841 38.2289 52.5993C37.955 52.6145 37.3363 49.463 37.2754 48.4277C37.2146 47.3924 38.2898 42.825 38.4926 41.201C38.6955 39.577 39.545 36.2783 39.796 35.6084C40.1415 34.6866 40.2723 34.1085 40.1906 35.6131Z" fill="#28839F" fill-opacity="0.2"/>
<path d="M25.4254 14.9621C25.1451 15.8454 24.7943 16.8957 24.6878 17.9766C24.5812 19.0576 24.1704 17.2154 24.1096 16.4694C24.0487 15.7234 24.1857 15.5102 24.566 15.2057C24.9464 14.9012 25.6085 14.3853 25.4254 14.9621Z" fill="#28839F" fill-opacity="0.2"/>
</g>
<defs>
<clipPath id="clip0_4081_13409">
<rect width="61" height="48" fill="white"/>
</clipPath>
</defs>
</svg>
