<svg width="61" height="48" viewBox="0 0 61 48" fill="none" xmlns="http://www.w3.org/2000/svg">
<g clip-path="url(#clip0_4089_13871)">
<path d="M41.808 116.241C41.6244 116.241 41.4761 116.133 41.3327 116.03C41.2137 115.944 41.1014 115.862 40.9936 115.862C40.9749 115.862 40.9568 115.865 40.9381 115.869C40.8153 115.901 40.7477 115.954 40.6695 116.015C40.5589 116.102 40.4335 116.2 40.1792 116.2C40.1624 116.2 40.1449 116.199 40.1267 116.198C39.8895 116.187 39.7413 116.087 39.6105 115.998C39.49 115.917 39.3949 115.853 39.2359 115.853C39.2264 115.853 39.2166 115.853 39.2066 115.853C39.0397 115.861 38.9434 115.918 38.8215 115.989C38.6689 116.079 38.496 116.18 38.1731 116.198C38.1507 116.2 38.1286 116.2 38.1068 116.2C37.8053 116.2 37.5461 116.085 37.3174 115.983C37.1252 115.898 36.9437 115.817 36.7627 115.813L36.7478 115.813C36.5631 115.813 36.336 115.888 36.0956 115.967C35.7967 116.066 35.458 116.178 35.1065 116.178L35.0798 116.178C34.2324 116.165 33.7509 115.728 33.6486 114.881C33.5943 114.432 33.7434 113.945 33.8876 113.475C34.0544 112.931 34.2268 112.369 34.0979 111.853C33.8256 110.763 33.6691 109.36 33.7085 108.363C33.7356 107.679 33.523 106.757 33.3355 105.944C33.2452 105.552 33.1599 105.183 33.1019 104.85C32.9806 104.156 33.4886 102.938 33.9368 101.863C34.1822 101.275 34.414 100.719 34.4607 100.421C34.5617 99.7755 34.4463 96.2555 34.3843 94.3644L34.3752 94.0874C34.3236 93.7173 34.2718 93.3229 34.2206 92.9326C34.0812 91.8708 33.9495 90.868 33.8348 90.4386L33.7487 90.1179C33.4431 88.9823 32.9838 87.2753 32.9829 86.6776C32.8771 86.4019 32.7228 85.9928 32.5649 85.5282C32.1839 85.0586 31.9068 84.0268 31.7414 82.4602C31.4799 79.9841 31.7685 76.5067 32.068 75.0496C32.2187 74.3166 32.4544 73.4292 32.6624 72.6463C32.861 71.8987 33.0486 71.1927 33.1221 70.7704C33.1979 70.336 33.2148 70.0903 33.225 69.9435C33.2316 69.8479 33.236 69.7843 33.2548 69.7336C33.2295 69.5986 33.2022 69.4458 33.173 69.2816C33.0293 68.4761 32.8327 67.3728 32.5767 66.8023C32.2395 66.0508 31.7967 63.8111 31.6077 62.8546L31.6012 62.8222C31.541 62.5174 31.4858 62.0066 31.4371 61.304C31.3449 60.5479 31.3165 59.6385 31.2977 59.0368L31.2944 58.9329C31.2853 58.6472 31.2854 58.0758 31.3458 57.8629C31.3379 57.6833 31.3077 57.5179 31.2224 57.1806C31.1335 56.8289 31.0739 56.4488 31.0049 56.0087C30.9713 55.7947 30.9355 55.5662 30.8929 55.32C30.8489 55.1636 30.8203 55.0078 30.8085 54.8565C30.7286 54.4462 30.6689 54.2524 30.6163 54.0812C30.5541 53.879 30.5 53.7029 30.4336 53.2626C30.3463 53.1421 30.2935 52.6902 30.1415 50.9965C30.0812 50.3247 30.0188 49.63 29.9564 49.1096C29.923 48.8313 29.9031 48.4741 29.8973 48.0477C29.8382 47.9257 29.759 47.8016 29.6754 47.6707C29.5817 47.5238 29.485 47.3723 29.397 47.1966C29.0435 46.8658 28.69 45.0393 28.6326 44.5415C28.5032 43.4192 27.6819 38.4697 27.2073 36.8917C26.6655 35.0905 27.0365 31.4604 27.0806 31.0524C27.0955 30.9138 27.1093 30.7766 27.1228 30.6418C27.1805 30.0654 27.2351 29.5197 27.3665 29.1003C27.2286 28.8427 26.5884 28.7272 26.2776 28.7272H26.1153C25.8069 28.7272 25.1741 28.841 25.0271 29.1024C25.1581 29.5218 25.2127 30.0671 25.2703 30.6429C25.2837 30.7774 25.2975 30.9142 25.3124 31.0525C25.3565 31.4605 25.7275 35.0908 25.1856 36.8917C24.7111 38.4697 23.8897 43.4192 23.7603 44.5415C23.7029 45.0393 23.3494 46.8658 22.9961 47.1966C22.908 47.3723 22.8113 47.5237 22.7177 47.6704C22.6341 47.8014 22.5548 47.9256 22.4957 48.0477C22.4899 48.4736 22.47 48.8307 22.4366 49.1096C22.3742 49.6301 22.3118 50.325 22.2515 50.997C22.0995 52.6904 22.0467 53.1422 21.9594 53.2627C21.893 53.7029 21.8388 53.879 21.7766 54.0812C21.7241 54.2523 21.6645 54.4461 21.5845 54.8565C21.5727 55.0076 21.5441 55.1637 21.497 55.3332C21.4575 55.5659 21.4218 55.7941 21.3882 56.008C21.3192 56.4484 21.2596 56.8287 21.1706 57.1807C21.0995 57.4617 21.068 57.6185 21.0542 57.7623C21.088 57.9083 21.0922 58.2025 21.0964 58.6885L21.0987 58.9271C21.1056 59.5692 21.0694 60.6191 20.944 61.4651C20.8989 62.0812 20.8473 62.5412 20.7917 62.8221L20.7859 62.8513C20.5968 63.8084 20.1539 66.0499 19.8162 66.8024C19.5602 67.3729 19.3635 68.4765 19.2199 69.2823C19.1907 69.4462 19.1635 69.5989 19.1383 69.7336C19.157 69.7842 19.1614 69.8479 19.168 69.9435C19.1781 70.0902 19.1951 70.3359 19.2709 70.7704C19.3445 71.1928 19.5321 71.8993 19.7308 72.6472C19.9387 73.4299 20.1744 74.3169 20.325 75.0496C20.6245 76.5069 20.9131 79.9843 20.6516 82.4602C20.5312 83.5999 20.2819 85.0709 19.7763 85.651C19.6173 86.126 19.4822 86.489 19.4101 86.6776C19.4092 87.2757 18.9495 88.984 18.6436 90.1203L18.5582 90.4386C18.4436 90.8677 18.312 91.8698 18.1727 92.9307C18.1214 93.3216 18.0695 93.7166 18.0178 94.0873L18.0086 94.3693C17.9466 96.2589 17.8314 99.776 17.9323 100.421C17.979 100.719 18.2108 101.275 18.4561 101.863C18.9044 102.937 19.4124 104.156 19.2911 104.85C19.233 105.183 19.1478 105.552 19.0575 105.944C18.87 106.757 18.6574 107.679 18.6844 108.363C18.724 109.36 18.5675 110.763 18.2951 111.853C18.1661 112.369 18.3386 112.931 18.5054 113.475C18.6496 113.945 18.7987 114.432 18.7444 114.881C18.6421 115.728 18.1605 116.165 17.3132 116.178L17.2865 116.178C16.9349 116.178 16.5962 116.066 16.2974 115.967C16.0569 115.888 15.8299 115.813 15.6451 115.813L15.6303 115.813C15.4493 115.817 15.2678 115.898 15.0756 115.983C14.8469 116.085 14.5877 116.2 14.2862 116.2C14.2643 116.2 14.2422 116.2 14.2199 116.198C13.8969 116.18 13.7241 116.079 13.5715 115.989C13.4496 115.918 13.3533 115.861 13.1864 115.853C13.1763 115.853 13.1666 115.853 13.1571 115.853C12.9981 115.853 12.903 115.917 12.7825 115.998C12.6517 116.087 12.5035 116.187 12.2663 116.198C12.2481 116.199 12.2306 116.2 12.2139 116.2C11.9595 116.2 11.8341 116.102 11.7235 116.015C11.6452 115.954 11.5776 115.901 11.4548 115.869C11.4362 115.865 11.418 115.862 11.3993 115.862C11.2916 115.862 11.1793 115.944 11.0603 116.03C10.9169 116.133 10.7686 116.241 10.585 116.241C10.5711 116.241 10.557 116.24 10.5429 116.239C10.311 116.217 10.1907 116.12 10.0845 116.034C10.0195 115.981 9.96343 115.936 9.88056 115.906C9.87012 115.903 9.85857 115.901 9.84541 115.901C9.77112 115.901 9.66168 115.957 9.54585 116.018C9.37316 116.107 9.15812 116.219 8.91232 116.219C8.38438 116.219 8.11413 115.956 7.9484 115.283C7.78195 114.606 7.92828 113.508 8.46127 112.841C8.59888 112.669 8.8179 112.406 9.07154 112.102C9.71969 111.326 10.6075 110.262 10.9899 109.684C11.5234 108.878 11.7397 107.436 11.4265 106.773C11.0263 105.924 10.9423 105.132 11.1769 104.419L11.256 104.18C11.4752 103.52 11.7019 102.838 11.7999 102.009C11.8804 101.327 11.8442 99.6747 11.7763 98.4223C11.7126 98.1407 11.6608 97.8442 11.6225 97.5407C11.4039 95.8086 10.4082 88.3075 9.8902 85.9824C9.40306 83.7957 8.63151 79.7881 8.50266 77.7093C8.38891 75.8745 8.51935 74.6794 8.59729 73.9653L8.61476 73.8041C8.64154 73.5523 8.71364 73.0655 8.76307 72.8386C8.85995 72.3436 8.99578 71.8844 9.11558 71.4792C9.18568 71.2419 9.252 71.0176 9.3027 70.8125C9.33453 70.5636 9.41355 69.9963 9.49681 69.7995L9.50817 69.7416C9.59316 69.3099 9.68937 68.821 9.73862 68.3669C9.73696 68.0803 9.74407 67.8113 9.76022 67.5454C9.67523 66.6107 9.64015 63.0807 9.75031 61.467C9.82235 60.4118 10.106 58.8521 10.3338 57.5987C10.4554 56.9297 10.5605 56.3519 10.5928 56.0615C10.6322 55.7062 10.6116 55.2035 10.5319 54.5669L10.5308 54.5641C9.55854 52.1696 8.57208 49.6621 8.13026 47.6406C7.90838 46.6258 7.86573 44.8474 7.82446 43.1276C7.78619 41.5334 7.74664 39.8849 7.56164 38.9496C7.18799 37.0608 7.13523 33.7931 7.18966 32.1771C7.17018 31.8139 7.227 31.0759 7.25969 30.752C7.23956 30.6892 7.24606 30.6104 7.25583 30.5326C7.28135 30.328 7.30627 29.877 7.33783 29.306C7.41863 27.845 7.54063 25.6371 7.8366 24.3975C8.23476 22.7301 8.98956 18.294 8.95879 16.8805C8.92763 15.4441 9.6613 12.3711 10.2029 10.7049C10.3148 10.2321 10.5139 9.49294 10.6895 8.84077C10.7846 8.48723 10.8716 8.16421 10.9315 7.93228C10.968 7.48652 11.0806 7.03555 11.1749 6.69164C11.3039 6.22141 11.2154 5.65576 11.113 5.0008C11.0007 4.28262 10.8609 3.38874 10.9678 2.32924C11.1452 0.57209 11.3413 -0.308289 11.4745 -0.737419C11.5184 -0.895142 11.574 -1.05724 11.6329 -1.22881C11.7649 -1.61326 11.9013 -2.01077 11.9275 -2.43791C11.8642 -3.10591 11.8654 -3.87683 11.9302 -4.28271C11.935 -5.15236 11.9297 -6.12948 11.8551 -6.79913C11.8288 -6.92945 11.8038 -7.08505 11.7824 -7.25023C11.6506 -7.85525 11.3871 -8.47204 11.1946 -8.92239C11.1314 -9.07027 11.0758 -9.20047 11.0314 -9.31377C10.8656 -9.43412 10.8006 -9.78194 10.6837 -10.4074C10.5997 -10.8565 10.4952 -11.4154 10.3237 -11.9903C9.9879 -13.116 9.3139 -16.0512 9.06452 -17.5892C9.02964 -17.6004 8.99634 -17.6064 8.96718 -17.6064C8.93807 -17.6064 8.92465 -17.6003 8.92126 -17.5985C8.90644 -17.5905 8.88703 -17.5749 8.8681 -17.5319C8.91469 -17.2497 8.81249 -16.2944 8.74311 -15.7177C8.66868 -15.0989 8.28141 -13.8671 7.83308 -12.4408C7.06639 -10.002 6.11217 -6.96682 6.18785 -5.35709C6.28918 -3.20226 5.54136 -1.58813 5.1499 -1.26804C5.07435 -0.881973 5.01202 -0.469398 4.95162 -0.0698395C4.89082 0.332832 4.82789 0.749161 4.75074 1.14519C4.66243 1.75945 4.47942 2.46667 4.19249 3.3007C3.90404 4.13931 3.05415 6.20904 1.91879 8.83791C1.76822 9.32544 1.60097 9.86009 1.42406 10.4256C0.283396 14.072 -1.27876 19.066 -1.31804 20.839C-1.32927 21.3472 -1.04466 22.1247 -0.5746 23.3448C-0.0530405 24.6987 -0.143282 27.3576 -1.33791 29.6184C-1.84612 30.5803 -2.29618 32.0508 -2.73148 33.4729C-3.15423 34.8543 -3.55366 36.1591 -3.94805 36.7459C-4.18288 37.0953 -4.42595 37.2725 -4.67049 37.2725C-4.92054 37.2725 -5.10859 37.091 -5.23577 36.9047C-5.43353 37.9165 -5.89183 39.7305 -6.65355 39.8691C-6.70811 39.8791 -6.76179 39.8841 -6.8131 39.8841C-7.18827 39.8841 -7.46151 39.6246 -7.59893 39.1552C-7.83616 39.9643 -8.27073 41.049 -8.89536 41.049L-8.91556 41.0487C-9.79481 41.0165 -9.82074 39.8615 -9.78073 38.56C-9.85037 38.5989 -9.92924 38.619 -10.0153 38.619C-10.5911 38.619 -11.2832 37.7539 -11.4125 36.8723C-11.7323 34.6905 -11.5204 32.0768 -11.3657 30.1683C-11.2896 29.2305 -11.2112 28.2636 -11.2757 27.9902C-11.3943 28.0998 -11.5454 28.2957 -11.7182 28.5195C-12.0427 28.9398 -12.4464 29.4629 -12.92 29.7888C-13.3043 30.0533 -13.7623 30.1931 -14.2445 30.1931C-15.0014 30.1931 -15.6675 29.8512 -15.8284 29.3801C-15.8892 29.2021 -15.924 28.8515 -15.4742 28.5032C-14.3021 27.5955 -12.0555 24.3164 -11.2569 22.348C-10.7244 21.0353 -9.74345 20.6003 -8.9553 20.2506C-8.48477 20.0419 -8.07842 19.8617 -7.87815 19.5452C-7.41526 18.8137 -6.71416 15.251 -5.79436 8.95639C-5.75735 5.54018 -5.70279 2.06352 -5.48411 0.356575C-5.071 -2.868 -3.71915 -6.78605 -2.53209 -8.19908C-2.36225 -8.40122 -2.21067 -8.58501 -2.07525 -8.74931C-1.66413 -9.2478 -1.40995 -9.556 -1.21806 -9.68673C-1.04774 -9.91487 -0.902288 -10.3429 -0.78547 -10.9595C-1.05073 -14.9176 -0.200915 -18.3022 0.488428 -19.4433L0.525173 -19.5036C0.604839 -19.7769 0.715956 -20.1248 0.833427 -20.4927L0.874689 -20.6222L0.896885 -20.7509C1.08076 -21.8182 0.943998 -23.3202 0.785646 -25.0594C0.750957 -25.4405 0.71541 -25.831 0.682314 -26.2279C0.47452 -28.7226 0.788233 -30.7192 1.66956 -32.511C1.92053 -33.1206 2.39352 -33.9076 2.84505 -34.4649C4.84591 -37.9725 8.898 -39.4286 10.6248 -39.4286C10.7374 -39.4286 10.8391 -39.4218 10.9276 -39.4084C10.9696 -39.4106 11.0138 -39.4115 11.0603 -39.4115C11.2427 -39.4115 11.4598 -39.3963 11.6898 -39.3803C11.9692 -39.3608 12.2859 -39.3387 12.6095 -39.3386C12.759 -39.4639 13.0895 -39.5793 13.6912 -39.7825C14.1205 -39.9275 14.6549 -40.108 15.1892 -40.3312C16.434 -40.8509 17.9703 -41.8051 18.8422 -42.6C19.1112 -42.8453 19.2788 -42.9748 19.3978 -43.0277C19.4804 -43.1427 19.5682 -43.2573 19.659 -43.3758C20.0005 -43.8212 20.387 -44.3251 20.4924 -44.8429C20.4584 -45.1425 20.4465 -46.7888 20.5587 -47.8709C20.5461 -48.0441 20.5332 -48.1313 20.5247 -48.1742C20.5087 -48.2544 20.4954 -48.3358 20.4818 -48.4197C20.4192 -48.8038 20.3484 -49.239 19.9365 -49.8532C19.585 -50.3775 19.4875 -51.5959 19.4677 -52.5256C19.464 -52.7054 19.3175 -52.8516 19.1413 -52.8516C19.1183 -52.8516 19.0951 -52.8491 19.0722 -52.8441C18.9674 -52.8212 18.8577 -52.8091 18.7549 -52.8091C18.478 -52.8091 18.2492 -52.8932 18.0933 -53.0523C17.9324 -53.2163 17.8538 -53.4521 17.8595 -53.7531C17.8795 -54.805 17.6657 -55.4152 17.477 -55.9537C17.3819 -56.2252 17.2921 -56.4817 17.238 -56.7703C17.1419 -57.2832 17.0834 -57.9728 17.3503 -58.3455C17.4553 -58.4921 17.5993 -58.5794 17.7785 -58.605C17.8223 -58.6113 17.8675 -58.6144 17.9127 -58.6144C18.0613 -58.6144 18.2166 -58.5805 18.3744 -58.5135C18.396 -58.5044 18.4183 -58.4997 18.4405 -58.4997C18.4885 -58.4997 18.536 -58.5213 18.5708 -58.5588C18.6065 -58.5972 18.624 -58.6472 18.62 -58.6995C18.5044 -60.2383 18.3988 -64.0272 19.9118 -65.9685C21.7107 -68.2766 24.4774 -68.7442 25.5836 -68.8381C25.7266 -68.8502 25.8991 -68.8633 26.1375 -68.8633C26.3163 -68.8633 26.5101 -68.8556 26.7137 -68.8404C27.8401 -68.7567 30.6567 -68.3092 32.481 -65.9685C33.9939 -64.0272 33.8883 -60.2383 33.7727 -58.6994C33.7688 -58.6472 33.7862 -58.5972 33.8219 -58.5587C33.8567 -58.5212 33.9042 -58.4997 33.9522 -58.4997C33.9746 -58.4997 33.9968 -58.5044 34.0184 -58.5135C34.1762 -58.5805 34.3315 -58.6144 34.48 -58.6144C34.5252 -58.6144 34.5704 -58.6113 34.6143 -58.605C34.7934 -58.5794 34.9374 -58.4921 35.0424 -58.3455C35.3093 -57.9728 35.2508 -57.2832 35.1548 -56.7703C35.1007 -56.4817 35.0108 -56.2253 34.9157 -55.9538C34.7271 -55.4153 34.5133 -54.805 34.5333 -53.7531C34.539 -53.4521 34.4604 -53.2162 34.2995 -53.0522C34.1435 -52.8932 33.9147 -52.8091 33.6379 -52.8091C33.535 -52.8091 33.4253 -52.8212 33.3205 -52.8441C33.2976 -52.8491 33.2744 -52.8516 33.2514 -52.8516C33.0753 -52.8516 32.9288 -52.7054 32.925 -52.5256C32.9052 -51.5959 32.8078 -50.3775 32.4563 -49.8531C32.0445 -49.2391 31.9736 -48.8038 31.911 -48.4198C31.8974 -48.3359 31.8841 -48.2544 31.868 -48.1743C31.8594 -48.1309 31.8466 -48.0433 31.8341 -47.871C31.9463 -46.7885 31.9344 -45.1424 31.9004 -44.8429C32.0057 -44.3251 32.3922 -43.8212 32.7337 -43.3758C32.8259 -43.2556 32.915 -43.1393 32.9952 -43.0276C33.1142 -42.9746 33.2817 -42.8452 33.5506 -42.6C34.4224 -41.8052 35.9586 -40.851 37.2035 -40.3312C37.7378 -40.108 38.2722 -39.9275 38.7016 -39.7825C39.3033 -39.5793 39.6338 -39.4639 39.7833 -39.3386C40.1068 -39.3387 40.4235 -39.3608 40.703 -39.3803C40.9329 -39.3963 41.1501 -39.4115 41.3325 -39.4115C41.3789 -39.4115 41.4231 -39.4106 41.4651 -39.4084C41.5536 -39.4218 41.6553 -39.4286 41.7679 -39.4286C43.4947 -39.4286 47.5468 -37.9725 49.5477 -34.4649C49.9993 -33.9074 50.4723 -33.1204 50.7269 -32.5029C51.6045 -30.7193 51.9182 -28.7228 51.7104 -26.2279C51.6773 -25.8306 51.6418 -25.4399 51.607 -25.0584C51.4487 -23.3196 51.312 -21.818 51.4959 -20.7509L51.5253 -20.5803L51.5274 -20.5737C51.6457 -20.1936 51.7576 -19.8342 51.8365 -19.5549L51.9043 -19.4432C52.6012 -18.2898 53.4546 -14.8738 53.1739 -10.8858C53.287 -10.3039 53.431 -9.90261 53.6024 -9.69209C53.7958 -9.56436 54.053 -9.25251 54.4698 -8.74703C54.6048 -8.58339 54.7558 -8.40041 54.9248 -8.19913C56.1119 -6.78609 57.4637 -2.86806 57.8768 0.356522C58.0955 2.06347 58.1501 5.54012 58.1871 8.95634C59.1069 15.251 59.808 18.8137 60.271 19.5452C60.4712 19.8617 60.8776 20.0419 61.348 20.2506C62.1363 20.6002 63.1171 21.0353 63.6497 22.3479C64.4483 24.3164 66.6949 27.5954 67.867 28.5032C68.3168 28.8515 68.282 29.2021 68.2212 29.3801C68.0603 29.8512 67.3942 30.193 66.6373 30.193C66.1551 30.193 65.697 30.0533 65.3128 29.7888C64.8393 29.4629 64.4355 28.9398 64.1111 28.5197C63.9384 28.2958 63.7871 28.0999 63.6685 27.9902C63.6041 28.2637 63.6825 29.2303 63.7585 30.1678C63.9132 32.0764 64.1251 34.6904 63.8053 36.8722C63.6761 37.7538 62.984 38.6189 62.4081 38.6189C62.3221 38.6189 62.2432 38.5988 62.1736 38.56C62.2135 39.8614 62.1875 41.0164 61.3083 41.0486L61.2881 41.0489C60.6635 41.0489 60.2289 39.9642 59.9917 39.1552C59.8543 39.6245 59.5811 39.884 59.206 39.884C59.1546 39.884 59.1009 39.879 59.0464 39.8691C58.2843 39.7304 57.8262 37.9164 57.6285 36.9046C57.5014 37.0909 57.3134 37.2725 57.0633 37.2725C56.8188 37.2725 56.5756 37.0953 56.3408 36.7458C55.9464 36.159 55.547 34.8542 55.1242 33.4728C54.6889 32.0508 54.2389 30.5803 53.7307 29.6184C52.536 27.3575 52.4458 24.6986 52.9674 23.3448C53.4375 22.1246 53.7221 21.347 53.7108 20.839C53.6715 19.066 52.1094 14.0721 50.9688 10.4257C50.7919 9.86017 50.6246 9.32549 50.474 8.83789C49.3387 6.20882 48.4888 4.13909 48.2003 3.30061C47.9133 2.46673 47.7304 1.75944 47.6409 1.13834C47.5649 0.749153 47.502 0.333031 47.4413 -0.0693207C47.3809 -0.469139 47.3186 -0.881935 47.2429 -1.26812C46.8514 -1.58829 46.1037 -3.20247 46.2049 -5.35717C46.2807 -6.9669 45.3265 -10.0021 44.5597 -12.441C44.1113 -13.8673 43.7241 -15.099 43.6497 -15.7178C43.5803 -16.2945 43.4782 -17.2498 43.5247 -17.5319C43.5059 -17.575 43.4865 -17.5906 43.4717 -17.5985C43.4682 -17.6004 43.4548 -17.6065 43.4256 -17.6065C43.3965 -17.6065 43.3631 -17.6005 43.3283 -17.5892C43.0791 -16.0518 42.405 -13.1165 42.0691 -11.9904C41.8976 -11.4154 41.7931 -10.8565 41.7092 -10.4074C41.5922 -9.78194 41.5271 -9.43419 41.3614 -9.31383C41.317 -9.20053 41.2614 -9.0704 41.1982 -8.92253C41.0058 -8.47218 40.7422 -7.85538 40.6086 -7.23899C40.5891 -7.08599 40.5641 -6.93039 40.536 -6.7879C40.4631 -6.12954 40.4578 -5.1525 40.4626 -4.28284C40.5274 -3.87697 40.5286 -3.1059 40.4653 -2.43798C40.4915 -2.01083 40.6279 -1.6134 40.7599 -1.22894C40.8188 -1.05738 40.8744 -0.895348 40.9194 -0.733841C41.0516 -0.30835 41.2476 0.57222 41.425 2.32917C41.5319 3.3886 41.3921 4.2824 41.2798 5.0006C41.1774 5.65562 41.0889 6.22128 41.218 6.69158C41.3123 7.03535 41.4248 7.48611 41.4612 7.93214C41.5211 8.16361 41.6078 8.48583 41.7028 8.83864C41.8786 9.49153 42.0778 10.2315 42.1928 10.7155C42.7315 12.3709 43.4651 15.4439 43.434 16.8804C43.4033 18.2935 44.158 22.7298 44.5562 24.3974C44.8521 25.6369 44.9742 27.8444 45.055 29.3052C45.0865 29.8766 45.1114 30.3279 45.137 30.5325C45.1468 30.6103 45.1533 30.6892 45.1331 30.752C45.1659 31.0755 45.2226 31.8132 45.203 32.1886C45.2576 33.7926 45.2049 37.06 44.8312 38.9495C44.6461 39.8848 44.6066 41.5331 44.5684 43.1272C44.5271 44.8472 44.4844 46.6257 44.2625 47.6405C43.8208 49.6617 42.8343 52.1693 41.8619 54.5646L41.8609 54.5671C41.7811 55.2035 41.7607 55.7061 41.8001 56.0614C41.8323 56.3518 41.9373 56.9295 42.059 57.5985C42.2868 58.8519 42.5705 60.4117 42.6425 61.4669C42.753 63.0858 42.7174 66.631 42.6321 67.5483C42.6486 67.8051 42.6559 68.0772 42.6543 68.3669C42.7035 68.821 42.7997 69.3102 42.8847 69.7419L42.896 69.7994C42.9792 69.996 43.0583 70.5635 43.0902 70.8126C43.1408 71.0174 43.2071 71.2414 43.2772 71.4784C43.4348 72.0116 43.6135 72.6158 43.7052 73.2919C43.7349 73.4614 43.7617 73.65 43.778 73.8041L43.7955 73.9652C43.8735 74.6793 44.0039 75.8744 43.8901 77.7092C43.7614 79.7875 42.9898 83.7954 42.5026 85.9823C41.9839 88.3103 40.9888 95.8092 40.7703 97.5407C40.732 97.844 40.6803 98.1405 40.6166 98.4221C40.5486 99.6743 40.5123 101.327 40.593 102.009C40.691 102.839 40.9179 103.521 41.1372 104.181L41.216 104.418C41.4505 105.132 41.3665 105.924 40.9663 106.772C40.6531 107.436 40.8695 108.878 41.403 109.684C41.7856 110.262 42.6736 111.326 43.3221 112.103C43.5754 112.407 43.7941 112.669 43.9316 112.841C44.4645 113.508 44.6109 114.606 44.4444 115.283C44.2787 115.956 44.0085 116.219 43.4805 116.219C43.2347 116.219 43.0197 116.107 42.847 116.018C42.7312 115.957 42.6217 115.901 42.5474 115.901C42.5342 115.901 42.5227 115.902 42.5122 115.906C42.4294 115.936 42.3733 115.981 42.3083 116.034C42.2021 116.12 42.0818 116.217 41.8499 116.238C41.8358 116.24 41.822 116.241 41.808 116.241Z" fill="white" stroke="#28839F" stroke-width="0.504915"/>
<path d="M24.695 -4.07148C23.485 -4.20309 19.6741 -3.40159 18.9945 -3.07679C18.3149 -2.752 17.7773 -2.1024 17.757 -1.2498C17.7368 -0.397223 17.9802 1.24707 18.2033 1.73426C18.4265 2.22145 19.1771 2.66804 20.232 2.70865C21.2869 2.74925 23.4778 2.91165 24.4516 2.76955C25.4253 2.62745 25.6586 1.67336 25.7297 0.597476C25.8007 -0.478423 25.8514 -1.90956 25.7499 -2.87379C25.6485 -3.83804 25.1616 -4.02074 24.695 -4.07148Z" fill="#28839F" fill-opacity="0.2"/>
<path d="M13.1114 -4.54444C13.8721 -3.70707 15.6751 -2.52714 16.1087 -2.15414C16.5423 -1.78113 16.5727 -0.319534 16.5651 0.357964C16.5575 1.03548 15.8805 1.56073 15.424 1.43893C14.9676 1.31714 12.6473 -0.913311 12.3354 -1.30154C12.0235 -1.68978 11.9474 -3.69945 12.0768 -4.33129C12.2061 -4.96311 12.5901 -5.11819 13.1114 -4.54444Z" fill="#28839F" fill-opacity="0.2"/>
<path d="M24.0459 3.62097C22.6259 3.61038 19.7756 3.45858 19.096 3.35708C18.4164 3.25558 17.8281 3.98638 17.9803 4.94047C18.1324 5.89456 18.7106 9.69062 19.9278 13.5273C21.145 17.3639 22.0376 19.739 23.2345 20.8149C24.4314 21.8908 24.7154 23.1494 25.3138 23.058C25.9123 22.9667 25.9148 20.5536 25.9224 19.602C25.929 18.7872 26.0036 5.98082 25.7931 5.56468C25.5733 5.12999 25.1389 4.85292 24.884 4.59791C24.6118 4.3255 24.7255 3.62605 24.0459 3.62097Z" fill="#28839F" fill-opacity="0.2"/>
<path d="M12.645 -0.581434C13.3103 0.174012 14.8258 1.4993 15.4446 2.05754C16.0633 2.61579 16.8443 4.89952 17.0878 5.99569C17.3312 7.09188 17.2704 8.51288 16.9458 9.64966C16.6212 10.7865 17.0269 11.3549 16.824 12.2886C16.6212 13.2224 15.5257 13.872 15.0794 13.1818C14.6331 12.4916 12.9087 10.3399 11.8336 9.73086C10.7584 9.12187 11.0221 7.76179 11.3061 6.72649C11.5901 5.6912 10.9004 4.35142 11.1032 2.34173C11.3061 0.332063 11.5445 -0.609349 11.6966 -0.951904C11.8488 -1.29446 12.1936 -1.09401 12.645 -0.581434Z" fill="#28839F" fill-opacity="0.2"/>
<path d="M11.884 12.2685C12.5701 16.0132 12.9261 18.3682 13.6591 21.444C14.288 24.083 15.2719 28.417 16.1544 31.1879C17.0368 33.9589 18.68 38.3741 19.5321 41.3886C20.3841 44.4031 21.6926 52.5941 21.8143 53.1117C21.936 53.6294 22.1186 50.6148 22.3012 49.0923C22.4837 47.5699 22.2403 43.7028 21.6926 41.1145C21.1448 38.5263 20.3232 33.9284 19.0756 31.0052C16.6103 25.229 13.9503 14.5944 13.1824 12.8166C13.0108 12.4194 11.7167 11.355 11.884 12.2685Z" fill="#28839F" fill-opacity="0.2"/>
<path d="M10.3325 10.747C9.78476 12.4319 9.06458 15.4768 9.09501 16.8775C9.12544 18.2782 8.37992 22.7086 7.9691 24.429C7.55831 26.1494 7.48223 29.8186 7.39094 30.5494C7.29965 31.2802 7.99953 29.6664 8.3647 28.1135C8.72985 26.5605 10.2361 21.9169 10.7078 20.4401C11.1795 18.9633 12.0923 15.69 11.925 14.472C11.7576 13.254 11.4533 12.0512 11.5294 11.5793C11.6055 11.1073 11.3468 10.6759 11.0932 10.3714C10.8396 10.0669 10.3325 10.747 10.3325 10.747Z" fill="#28839F"/>
<path d="M18.1937 40.0193C18.0197 42.1859 17.7169 44.8507 17.3924 47.1243C17.0678 49.3978 16.2766 51.306 16.2157 53.2548C16.1549 55.2036 16.4186 58.4312 17.4735 58.6545C18.5284 58.8778 21.3077 56.7464 21.4496 54.8382C21.5917 52.93 20.4962 48.2814 20.273 46.7995C20.0499 45.3176 18.8628 40.1518 18.5893 39.3088C18.4295 38.8166 18.285 38.8825 18.1937 40.0193Z" fill="#28839F" fill-opacity="0.2"/>
<path d="M7.33005 32.0611C7.27043 33.5825 7.30976 36.9736 7.6952 38.9224C8.08065 40.8712 7.83721 45.6619 8.26322 47.6107C8.68925 49.5595 9.60213 51.9143 10.657 54.5127C11.7119 57.111 11.9959 57.8012 12.3611 56.9892C12.7263 56.1772 12.6451 52.2391 11.9148 50.2091C11.1845 48.1791 10.0687 45.8041 9.521 43.429C8.97325 41.0539 8.58781 37.136 8.64867 35.8166C8.70953 34.4971 8.66896 32.7107 8.8921 31.1273C9.11526 29.5439 9.71498 26.4076 9.63256 26.2858C9.37439 25.9042 8.81097 27.5139 8.56753 28.5898C8.32408 29.6657 7.88793 30.5894 7.6952 30.9649C7.50249 31.3404 7.35034 31.5434 7.33005 32.0611Z" fill="#28839F" fill-opacity="0.2"/>
<path d="M13.7607 13.7461C13.935 14.4437 15.1807 18.4506 15.3937 18.9987C15.6068 19.5468 15.9719 17.6589 15.8299 16.3902C15.717 15.3813 15.6372 14.9083 14.7344 13.9542C13.8317 13.0001 13.5984 13.0965 13.7607 13.7461Z" fill="#28839F" fill-opacity="0.2"/>
<path d="M16.0333 16.725C16.0608 18.5368 15.9725 19.846 15.9116 20.3484C15.8507 20.8509 16.155 22.4952 16.5202 22.9671C16.8854 23.4391 17.5396 22.6931 17.9504 21.2315C18.3612 19.7699 18.3764 18.628 18.0721 18.0038C17.7678 17.3796 16.8701 16.4813 16.4898 16.1159C16.1094 15.7506 16.0181 15.7201 16.0333 16.725Z" fill="#28839F" fill-opacity="0.2"/>
<path d="M18.4671 19.3334C18.4993 20.2343 18.2845 21.5766 17.7976 22.5611C17.3108 23.5457 17.047 23.8501 17.1485 24.6317C17.2499 25.4132 17.5745 26.6008 17.7976 26.9662C18.0208 27.3316 18.9946 25.3929 19.3191 24.5099C19.6437 23.6269 20.161 21.9014 20.1712 21.201C20.1813 20.5007 19.4611 19.7496 19.096 19.3132C18.7308 18.8767 18.4367 18.4809 18.4671 19.3334Z" fill="#28839F" fill-opacity="0.2"/>
<path d="M22.5754 27.96C22.8427 29.1186 23.0775 32.8319 23.1536 34.2631C23.2297 35.6942 23.2906 37.4146 22.8493 38.7696C22.4081 40.1246 22.2407 40.5509 22.2407 41.9668C22.2407 43.3827 22.7276 46.0166 22.8037 46.8997C22.8798 47.7827 23.4883 45.7121 23.6253 44.5246C23.7622 43.3371 24.5838 38.4194 25.0555 36.8513C25.5271 35.2831 25.2989 32.1925 25.1772 31.0658C25.0555 29.9392 25.0174 28.9039 24.523 28.5233C24.0285 28.1427 23.4427 28.0894 22.971 27.4423C22.4994 26.7953 22.3701 27.0693 22.5754 27.96Z" fill="#28839F" fill-opacity="0.2"/>
<path d="M17.4734 43.6733C17.5343 42.2117 18.2258 38.2073 17.7726 37.0606C15.318 30.8489 14.3746 27.0173 12.5261 18.2499C12.2565 16.971 11.991 17.7555 11.7942 18.306C11.2807 19.7421 10.9029 21.6584 10.576 22.7543C10.1703 24.1144 9.91668 27.1696 9.65295 28.6311C9.38923 30.0927 8.99364 33.9192 9.01393 36.4364C9.03421 38.9536 9.68338 42.8816 10.2717 44.5056C10.86 46.1296 12.3612 49.8241 12.9901 51.7729C14.437 56.2565 15.9779 51.3464 15.9811 51.3328C16.4548 49.8306 17.4203 44.9494 17.4734 43.6733Z" fill="#28839F" fill-opacity="0.2"/>
<path d="M27.6975 -4.07148C28.9075 -4.20309 32.7184 -3.40159 33.398 -3.07679C34.0776 -2.752 34.6152 -2.1024 34.6355 -1.2498C34.6558 -0.397223 34.4123 1.24707 34.1892 1.73426C33.966 2.22145 33.2154 2.66804 32.1605 2.70865C31.1056 2.74925 28.9147 2.91165 27.9409 2.76955C26.9672 2.62745 26.7339 1.67336 26.6629 0.597476C26.5919 -0.478423 26.5411 -1.90956 26.6426 -2.87379C26.744 -3.83804 27.2309 -4.02074 27.6975 -4.07148Z" fill="#28839F" fill-opacity="0.2"/>
<path d="M39.2814 -4.54444C38.5206 -3.70707 36.7177 -2.52714 36.284 -2.15414C35.8504 -1.78113 35.82 -0.319534 35.8276 0.357964C35.8352 1.03548 36.5123 1.56073 36.9687 1.43893C37.4251 1.31714 39.7454 -0.913311 40.0573 -1.30154C40.3692 -1.68978 40.4453 -3.69945 40.316 -4.33129C40.1866 -4.96311 39.8026 -5.11819 39.2814 -4.54444Z" fill="#28839F" fill-opacity="0.2"/>
<path d="M28.3468 3.62097C29.7668 3.61038 32.6171 3.45858 33.2967 3.35708C33.9763 3.25558 34.5646 3.98638 34.4124 4.94047C34.2603 5.89456 33.6821 9.69062 32.4649 13.5273C31.2477 17.3639 30.3551 19.739 29.1582 20.8149C27.9613 21.8908 27.6773 23.1494 27.0788 23.058C26.4804 22.9667 26.4779 20.5536 26.4703 19.602C26.4637 18.7872 26.3891 5.98082 26.5996 5.56468C26.8194 5.12999 27.2538 4.85292 27.5087 4.59791C27.7809 4.3255 27.6672 3.62605 28.3468 3.62097Z" fill="#28839F" fill-opacity="0.2"/>
<path d="M39.7478 -0.581434C39.0825 0.174012 37.567 1.4993 36.9482 2.05754C36.3295 2.61579 35.5485 4.89952 35.305 5.99569C35.0616 7.09188 35.1224 8.51288 35.447 9.64966C35.7716 10.7865 35.3659 11.3549 35.5687 12.2886C35.7716 13.2224 36.8671 13.872 37.3134 13.1818C37.7597 12.4916 39.484 10.3399 40.5592 9.73086C41.6344 9.12187 41.3707 7.76179 41.0867 6.72649C40.8027 5.6912 41.4924 4.35142 41.2895 2.34173C41.0867 0.332063 40.8483 -0.609349 40.6962 -0.951904C40.544 -1.29446 40.1991 -1.09401 39.7478 -0.581434Z" fill="#28839F" fill-opacity="0.2"/>
<path d="M40.5083 12.2685C39.8223 16.0132 39.4662 18.3682 38.7333 21.444C38.1044 24.083 37.1205 28.417 36.238 31.1879C35.3556 33.9589 33.7123 38.3741 32.8603 41.3886C32.0083 44.4031 30.6998 52.5941 30.5781 53.1117C30.4564 53.6294 30.2738 50.6148 30.0912 49.0923C29.9086 47.5699 30.1521 43.7028 30.6998 41.1145C31.2475 38.5263 32.0691 33.9284 33.3167 31.0052C35.7821 25.229 38.4421 14.5944 39.21 12.8166C39.3816 12.4194 40.6757 11.355 40.5083 12.2685Z" fill="#28839F" fill-opacity="0.2"/>
<path d="M42.0605 10.747C42.6082 12.4319 43.3284 15.4768 43.2979 16.8775C43.2675 18.2782 44.013 22.7086 44.4238 24.429C44.8347 26.1494 44.9107 29.8186 45.002 30.5494C45.0933 31.2802 44.3934 29.6664 44.0283 28.1135C43.6631 26.5605 42.1568 21.9169 41.6852 20.4401C41.2135 18.9633 40.3006 15.69 40.468 14.472C40.6353 13.254 40.9396 12.0512 40.8636 11.5793C40.7875 11.1073 41.0461 10.6759 41.2997 10.3714C41.5533 10.0669 42.0605 10.747 42.0605 10.747Z" fill="#28839F"/>
<path d="M34.2297 39.9983C34.4037 42.1649 34.676 44.8499 35.0006 47.1235C35.3252 49.3971 36.1164 51.3053 36.1772 53.2541C36.2381 55.2028 35.9744 58.4305 34.9195 58.6538C33.8646 58.8771 31.0853 56.7456 30.9433 54.8374C30.8013 52.9293 31.8968 48.2806 32.1199 46.7987C32.3431 45.3168 33.4501 40.1207 33.8037 39.3081C34.0776 38.6788 34.1384 38.8615 34.2297 39.9983Z" fill="#28839F" fill-opacity="0.2"/>
<path d="M45.0627 32.0611C45.1223 33.5825 45.083 36.9736 44.6975 38.9224C44.3121 40.8712 44.5555 45.6619 44.1295 47.6107C43.7035 49.5595 42.7906 51.9143 41.7357 54.5127C40.6808 57.111 40.3968 57.8012 40.0316 56.9892C39.6665 56.1772 39.7476 52.2391 40.4779 50.2091C41.2083 48.1791 42.324 45.8041 42.8718 43.429C43.4195 41.0539 43.8049 37.136 43.7441 35.8166C43.6832 34.4971 43.7238 32.7107 43.5006 31.1273C43.2775 29.5439 42.6778 26.4076 42.7602 26.2858C43.0184 25.9042 43.5818 27.5139 43.8252 28.5898C44.0687 29.6657 44.5048 30.5894 44.6975 30.9649C44.8903 31.3404 45.0424 31.5434 45.0627 32.0611Z" fill="#28839F" fill-opacity="0.2"/>
<path d="M38.6045 13.8094C38.4302 14.5069 37.22 18.354 37.007 18.9021C36.7939 19.4502 36.4212 17.6587 36.5632 16.39C36.6761 15.3811 36.7559 14.9081 37.6587 13.954C38.5614 12.9999 38.7668 13.1598 38.6045 13.8094Z" fill="#28839F" fill-opacity="0.2"/>
<path d="M36.3604 16.725C36.3329 18.5368 36.4212 19.846 36.4821 20.3484C36.543 20.8509 36.2387 22.4952 35.8735 22.9671C35.5083 23.4391 34.8541 22.6931 34.4433 21.2315C34.0325 19.7699 34.0173 18.628 34.3216 18.0038C34.6259 17.3796 35.5236 16.4813 35.9039 16.1159C36.2843 15.7506 36.3756 15.7201 36.3604 16.725Z" fill="#28839F" fill-opacity="0.2"/>
<path d="M33.9254 19.3334C33.8932 20.2343 34.108 21.5766 34.5948 22.5611C35.0817 23.5457 35.3454 23.8501 35.244 24.6317C35.1426 25.4132 34.818 26.6008 34.5948 26.9662C34.3717 27.3316 33.3979 25.3929 33.0733 24.5099C32.7487 23.6269 32.2314 21.9014 32.2213 21.201C32.2112 20.5007 32.9313 19.7496 33.2965 19.3132C33.6616 18.8767 33.9558 18.4809 33.9254 19.3334Z" fill="#28839F" fill-opacity="0.2"/>
<path d="M29.8174 27.96C29.5502 29.1186 29.3153 32.8319 29.2392 34.2631C29.1631 35.6942 29.1023 37.4146 29.5435 38.7696C29.9847 40.1246 30.1521 40.5509 30.1521 41.9668C30.1521 43.3827 29.6652 46.0166 29.5891 46.8997C29.5131 47.7827 28.9045 45.7121 28.7675 44.5246C28.6306 43.3371 27.809 38.4194 27.3373 36.8513C26.8657 35.2831 27.0939 32.1925 27.2156 31.0658C27.3373 29.9392 27.3754 28.9039 27.8699 28.5233C28.3644 28.1427 28.9501 28.0894 29.4218 27.4423C29.8934 26.7953 30.0228 27.0693 29.8174 27.96Z" fill="#28839F" fill-opacity="0.2"/>
<path d="M34.9196 43.6726C34.8587 42.211 34.1013 38.2422 34.5544 37.0954C37.0091 30.8837 37.8205 27.0112 39.8668 18.2492C40.1641 16.9764 40.402 17.7548 40.5988 18.3053C41.1123 19.7414 41.4393 21.7288 41.7663 22.8247C42.172 24.1848 42.456 27.0775 42.7197 28.5391C42.9835 30.0007 43.3486 33.8475 43.3283 36.3647C43.3081 38.8818 42.6893 42.82 42.101 44.444C41.5127 46.068 40.0318 49.8234 39.4029 51.7722C37.9217 56.3622 36.4151 51.3457 36.4119 51.3321C35.9382 49.8299 34.9727 44.9487 34.9196 43.6726Z" fill="#28839F" fill-opacity="0.2"/>
</g>
<defs>
<clipPath id="clip0_4089_13871">
<rect width="42" height="48" fill="white" transform="translate(5)"/>
</clipPath>
</defs>
</svg>
