<svg width="61" height="48" viewBox="0 0 61 48" fill="none" xmlns="http://www.w3.org/2000/svg">
<g clip-path="url(#clip0_4071_13209)">
<path d="M40.8058 161.233C40.6222 161.233 40.4739 161.126 40.3305 161.022C40.2116 160.936 40.0992 160.855 39.9914 160.855C39.9728 160.855 39.9546 160.857 39.936 160.862C39.8132 160.894 39.7456 160.946 39.6674 161.008C39.5567 161.094 39.4314 161.192 39.1771 161.192C39.1603 161.192 39.1427 161.192 39.1246 161.191C38.8874 161.179 38.7392 161.079 38.6084 160.991C38.4879 160.909 38.3928 160.845 38.2338 160.845C38.2243 160.845 38.2145 160.845 38.2045 160.846C38.0376 160.854 37.9414 160.91 37.8194 160.982C37.6669 161.071 37.494 161.173 37.171 161.191C37.1486 161.192 37.1266 161.193 37.1047 161.193C36.8033 161.193 36.5441 161.077 36.3153 160.976C36.1232 160.89 35.9416 160.809 35.7608 160.805L35.7459 160.805C35.5611 160.805 35.334 160.88 35.0936 160.96C34.7948 161.059 34.4561 161.171 34.1046 161.171L34.0778 161.171C33.2305 161.157 32.749 160.721 32.6467 159.874C32.5924 159.424 32.7415 158.938 32.8857 158.468C33.0525 157.924 33.2249 157.361 33.096 156.845C32.8236 155.755 32.6672 154.353 32.7067 153.356C32.7337 152.672 32.5211 151.75 32.3336 150.937C32.2434 150.545 32.1581 150.176 32.1 149.843C31.9787 149.148 32.4867 147.931 32.9349 146.856C33.1803 146.268 33.412 145.712 33.4588 145.414C33.5085 145.095 33.5116 144.021 33.4677 142.22C33.3824 141.785 33.3225 140.335 33.2902 139.553C33.2819 139.353 33.2755 139.197 33.2709 139.113C33.2667 139.035 33.2487 138.654 33.2887 138.456L33.2187 137.926C33.0793 136.864 32.9476 135.861 32.8329 135.432C32.8329 135.432 32.6511 134.756 32.5987 134.559C32.541 134.468 32.4894 134.356 32.4414 134.217C32.3429 133.932 32.24 133.537 32.1312 133.119C31.9303 132.348 31.7027 131.474 31.4146 130.916C31.1489 130.402 30.9949 129.725 30.944 128.845C30.8628 128.437 30.794 127.97 30.7395 127.454C30.4781 124.978 30.7667 121.501 31.0662 120.044C31.2168 119.311 31.4525 118.424 31.6604 117.641C31.859 116.893 32.0466 116.187 32.1202 115.764C32.196 115.33 32.2129 115.084 32.2231 114.938C32.2297 114.842 32.2341 114.778 32.2528 114.728C32.2276 114.593 32.2004 114.441 32.1714 114.278C32.1231 114.008 32.0688 113.703 32.0087 113.398C31.881 113.247 31.7953 112.945 31.68 112.54C31.5778 112.18 31.4507 111.733 31.2635 111.299C30.8274 110.288 30.2886 106.95 30.2381 105.362C30.1867 103.748 29.9153 101.16 29.593 99.8802C29.3057 98.739 29.0018 95.9992 29.0309 94.8149C29.0055 94.5582 28.9801 94.3166 28.9546 94.1045C28.9278 93.8805 28.9096 93.5969 28.9005 93.261C28.843 93.1308 28.7546 92.9469 28.6279 92.7683C28.4621 92.5346 28.3089 92.2144 28.1726 91.8168C27.9593 91.2717 27.7103 90.225 27.6309 89.5365C27.5015 88.4142 26.6802 83.4649 26.2056 81.8871C25.6641 80.0865 26.0349 76.456 26.0789 76.048C26.0936 75.9119 26.1072 75.7773 26.1205 75.6452C26.159 75.2614 26.1956 74.8978 26.253 74.5741C26.0991 74.3351 25.9719 74.0836 25.8659 73.8085C25.6216 73.7412 25.3776 73.7228 25.276 73.7228H25.1137C25.0122 73.7228 24.7683 73.7412 24.5239 73.8085C24.4179 74.0836 24.2907 74.3352 24.1367 74.5741C24.1943 74.8983 24.2308 75.2624 24.2694 75.6467C24.2827 75.7784 24.2961 75.9125 24.3108 76.048C24.3549 76.456 24.7259 80.0861 24.1841 81.8871C23.7095 83.4651 22.8882 88.4143 22.7588 89.5366C22.6795 90.2249 22.4306 91.2716 22.2153 91.8221C22.0808 92.2146 21.9276 92.5348 21.7619 92.7683C21.6347 92.9475 21.5465 93.1312 21.4892 93.261C21.4802 93.5964 21.462 93.8801 21.4351 94.1045C21.4097 94.3166 21.3842 94.5583 21.3589 94.8148C21.388 95.9991 21.0841 98.739 20.7968 99.8802C20.4746 101.16 20.2031 103.748 20.1517 105.362C20.1011 106.95 19.5623 110.288 19.1263 111.299C18.939 111.733 18.8119 112.18 18.7097 112.54C18.5945 112.945 18.5088 113.247 18.381 113.398C18.3209 113.703 18.2665 114.008 18.2184 114.278C18.1892 114.441 18.1621 114.593 18.1369 114.728C18.1556 114.778 18.16 114.842 18.1667 114.938C18.1768 115.084 18.1938 115.33 18.2695 115.764C18.3431 116.187 18.5307 116.893 18.7294 117.641C18.9373 118.424 19.173 119.311 19.3236 120.044C19.6231 121.501 19.9117 124.978 19.6502 127.454C19.5956 127.971 19.5266 128.443 19.4452 128.857C19.3934 129.731 19.2397 130.405 18.9752 130.916C18.687 131.474 18.4594 132.348 18.2586 133.119C18.1497 133.537 18.0469 133.932 17.9483 134.217C17.9004 134.356 17.8488 134.468 17.7911 134.559C17.7388 134.755 17.5569 135.432 17.5569 135.432C17.4421 135.861 17.3104 136.865 17.171 137.926L17.1011 138.456C17.1411 138.654 17.1231 139.035 17.1188 139.113C17.1142 139.197 17.1078 139.354 17.0995 139.553C17.0672 140.336 17.0073 141.785 16.9221 142.22C16.8782 144.021 16.8812 145.096 16.931 145.414C16.9777 145.712 17.2095 146.268 17.4549 146.856C17.9031 147.93 18.4111 149.148 18.2897 149.843C18.2317 150.175 18.1464 150.545 18.0561 150.937C17.8686 151.75 17.656 152.672 17.6831 153.356C17.7226 154.353 17.5661 155.755 17.2938 156.845C17.1648 157.361 17.3373 157.924 17.5041 158.468C17.6483 158.938 17.7974 159.424 17.7431 159.874C17.6407 160.721 17.1592 161.157 16.3119 161.171L16.2852 161.171C15.9337 161.171 15.595 161.059 15.2961 160.96C15.0557 160.88 14.8286 160.805 14.6439 160.805L14.629 160.805C14.4481 160.809 14.2665 160.89 14.0744 160.976C13.8457 161.077 13.5865 161.193 13.285 161.193C13.2631 161.193 13.241 161.192 13.2187 161.191C12.8957 161.173 12.7229 161.071 12.5703 160.982C12.4485 160.91 12.3522 160.854 12.1852 160.846C12.1752 160.845 12.1655 160.845 12.1559 160.845C11.997 160.845 11.9018 160.909 11.7814 160.991C11.6506 161.079 11.5023 161.179 11.2652 161.191C11.247 161.192 11.2295 161.192 11.2128 161.192C10.9583 161.192 10.8329 161.094 10.7223 161.008C10.6441 160.946 10.5765 160.894 10.4538 160.862C10.4351 160.857 10.417 160.855 10.3983 160.855C10.2905 160.855 10.1782 160.936 10.0592 161.022C9.91584 161.126 9.76753 161.233 9.58394 161.233C9.56999 161.233 9.55589 161.232 9.5418 161.231C9.31004 161.209 9.18963 161.112 9.08345 161.026C9.01847 160.974 8.96239 160.929 8.87952 160.899C8.86909 160.895 8.85753 160.893 8.84437 160.893C8.77008 160.893 8.66065 160.95 8.54483 161.01C8.37214 161.1 8.15718 161.211 7.91138 161.211C7.38339 161.211 7.11315 160.949 6.94743 160.275C6.78099 159.599 6.92731 158.5 7.46028 157.834C7.59789 157.661 7.8169 157.399 8.07053 157.095C8.71866 156.318 9.60639 155.254 9.9888 154.677C10.5223 153.871 10.7387 152.429 10.4255 151.765C10.0253 150.917 9.94122 150.125 10.1758 149.411L10.2546 149.174C10.4739 148.514 10.7008 147.832 10.7988 147.002C10.8794 146.321 10.8431 144.668 10.7752 143.415C10.7116 143.134 10.6598 142.838 10.6214 142.534C10.4576 141.236 9.67855 135.331 9.13143 132.227C8.95487 131.779 8.80678 131.216 8.67593 130.719C8.6158 130.49 8.55891 130.275 8.50476 130.09C8.19378 129.032 7.54932 125.385 7.36446 124.042C7.17057 122.632 7.31263 119.955 7.40452 119.076C7.47762 118.377 7.67317 116.983 8.16117 115.496C8.52397 114.39 8.53911 113.552 8.55022 112.94C8.55261 112.807 8.55487 112.683 8.56018 112.568C8.57027 112.352 8.62337 112.13 8.72238 111.892C8.7059 111.471 8.69315 110.915 8.6863 110.321C8.61102 109.524 8.59094 107.342 8.64643 105.926C8.68716 104.887 9.03481 103.414 9.31408 102.231C9.43249 101.729 9.53489 101.296 9.59974 100.958C9.62638 100.609 9.60319 100.139 9.53084 99.5616L9.52971 99.5588C8.55752 97.1642 7.57117 94.6566 7.1293 92.6355C6.90742 91.6207 6.86471 89.8425 6.82338 88.1228C6.80577 87.3907 6.78756 86.6337 6.75566 85.9578C6.36675 83.0803 6.01278 79.7508 5.98388 78.699C5.96108 77.8741 6.10348 76.1385 6.32236 74.5723L6.33711 74.298C6.41785 72.8382 6.5399 70.6321 6.83574 69.3932C7.23389 67.7257 7.98853 63.2896 7.95783 61.8765C7.92667 60.4401 8.66031 57.3672 9.20192 55.7011C9.31382 55.2283 9.51276 54.4894 9.68824 53.8376C9.75562 53.5873 9.81889 53.3522 9.87137 53.154C9.63064 52.6931 9.825 47.5946 9.99683 47.0394C10.0421 46.62 10.0911 46.2308 10.1426 45.8801C10.1077 45.831 10.1158 45.7913 10.2255 45.3635C10.3033 44.9113 10.3875 44.5361 10.4735 44.2592C10.5173 44.1015 10.5729 43.9394 10.6319 43.7678C10.7639 43.3834 10.9003 42.9859 10.9264 42.5587C10.8632 41.8908 10.8644 41.1199 10.9291 40.714C10.9318 40.2296 10.9321 39.6067 10.9112 39.0478C10.8344 38.8439 10.7538 38.6428 10.6658 38.4232C10.5662 38.1747 10.4573 37.9027 10.3338 37.577C9.8946 36.4184 9.34255 34.3709 8.80865 32.3908C8.52505 31.339 8.25714 30.3455 8.01793 29.5286C7.94397 29.2763 7.87235 29.012 7.80344 28.7377C7.78604 28.9044 7.76557 29.0851 7.74218 29.2794C7.66775 29.8982 7.28057 31.1301 6.83211 32.5564C6.06544 34.995 5.11133 38.0301 5.18708 39.6397C5.28031 41.6231 4.63244 43.1924 4.2432 43.6389C4.14911 44.0561 4.07282 44.3523 4.01037 44.543C3.99164 44.6635 3.97329 44.7845 3.95489 44.9058C3.89282 45.3152 3.82858 45.7387 3.74996 46.1418C3.66159 46.7563 3.47865 47.4635 3.19173 48.2972C2.90329 49.1358 2.05343 51.2054 0.918112 53.8342C0.767603 54.3215 0.600424 54.8559 0.423611 55.4211C-0.717018 59.0677 -2.27926 64.0619 -2.31854 65.8349C-2.32983 66.343 -2.04524 67.1206 -1.57519 68.3406C-1.05365 69.6945 -1.14389 72.3533 -2.33847 74.614C-2.84666 75.5759 -3.29677 77.0464 -3.732 78.4685C-4.1548 79.8498 -4.55408 81.1544 -4.94845 81.7412C-5.18328 82.0906 -5.42641 82.2678 -5.67093 82.2678C-5.92098 82.2678 -6.10902 82.0863 -6.23613 81.9C-6.43381 82.9118 -6.89196 84.7257 -7.65392 84.8643C-7.70848 84.8743 -7.76216 84.8793 -7.81347 84.8793C-8.18862 84.8793 -8.4618 84.6199 -8.5992 84.1506C-8.83643 84.9595 -9.27105 86.0442 -9.89559 86.0442L-9.91579 86.0438C-10.7951 86.0117 -10.821 84.8567 -10.781 83.5553C-10.8506 83.5941 -10.9295 83.6143 -11.0156 83.6143C-11.5914 83.6143 -12.2834 82.7492 -12.4127 81.8676C-12.7325 79.6859 -12.5206 77.0722 -12.3659 75.1638C-12.2898 74.226 -12.2115 73.2592 -12.2759 72.9858C-12.3945 73.0954 -12.5456 73.2913 -12.7184 73.5151C-13.0429 73.9354 -13.4466 74.4584 -13.9202 74.7843C-14.3044 75.0489 -14.7624 75.1886 -15.2446 75.1886C-16.0014 75.1886 -16.6675 74.8467 -16.8284 74.3757C-16.8892 74.1977 -16.924 73.847 -16.4743 73.4988C-15.3022 72.5911 -13.0557 69.3122 -12.2571 67.3438C-11.7246 66.0312 -10.7437 65.5961 -9.95558 65.2465C-9.48507 65.0378 -9.07874 64.8576 -8.87848 64.5411C-8.48525 63.9198 -7.91931 61.2541 -7.19637 56.6181C-7.09304 55.4815 -7.00845 54.7415 -6.93118 54.2978C-6.88533 54.0349 -6.83762 53.741 -6.78892 53.4292C-6.75444 50.4004 -6.69942 47.0309 -6.48446 45.3532C-6.07142 42.1287 -4.71961 38.2108 -3.53254 36.7978C-3.36296 36.596 -3.2116 36.4124 -3.07632 36.2483C-2.66495 35.7495 -2.41058 35.4411 -2.21855 35.3102C-2.04838 35.0822 -1.90293 34.6543 -1.78598 34.0374C-1.95144 31.5668 -1.68431 28.9066 -1.07074 26.9142C-0.983823 26.0873 -0.913862 25.4362 -0.870669 25.1935C-0.729006 24.3974 -0.880903 23.6295 -1.0029 23.0123C-1.06071 22.7199 -1.11068 22.4673 -1.11619 22.2676C-1.12981 21.7781 -1.21719 21.1318 -1.34955 20.1536C-1.41167 19.694 -1.48344 19.1637 -1.56145 18.5459C-1.83096 16.4111 -1.43281 13.8499 -0.496357 11.6947C0.606209 9.15706 1.84385 7.79547 3.77547 6.99492C4.2713 6.78946 5.18036 6.68201 5.82205 6.68201C5.86337 6.68201 5.90404 6.6824 5.94405 6.68327C7.50323 5.86151 8.89915 5.56942 9.62396 5.56942C9.73658 5.56942 9.83832 5.5762 9.92669 5.58956C9.96841 5.5875 10.0124 5.5865 10.0586 5.5865C10.1493 5.5865 10.2488 5.59035 10.3456 5.59554C10.3761 5.27837 10.7893 5.04326 11.2826 4.79645C11.9683 4.45343 12.6835 4.13971 13.4083 3.86398C14.2461 3.54529 15.0884 3.28212 16.0953 2.98503C16.2184 2.94866 16.3425 2.91422 16.4666 2.87979C17.1926 2.67818 17.8782 2.48776 18.3795 1.94101C18.5228 1.7847 18.6432 1.61168 18.7706 1.4285C18.8311 1.34152 18.8917 1.25462 18.9545 1.16978C19.1485 0.90807 19.3491 0.63752 19.4575 0.332928C19.509 0.188108 19.4963 0.0239525 19.4827 -0.14979C19.477 -0.2244 19.4712 -0.298792 19.4702 -0.372272C19.4668 -0.606857 19.467 -0.854597 19.4708 -1.1298C19.478 -1.64896 19.494 -2.26154 19.5574 -2.87272C19.5449 -3.04499 19.5321 -3.13263 19.5235 -3.17599C19.5074 -3.25618 19.4942 -3.33763 19.4805 -3.42154C19.4179 -3.80552 19.347 -4.24077 18.9353 -4.85481C18.5836 -5.37936 18.4863 -6.5976 18.4666 -7.52728C18.4628 -7.70693 18.3163 -7.85315 18.1401 -7.85315C18.1171 -7.85315 18.0939 -7.85062 18.071 -7.84563C17.9662 -7.82276 17.8565 -7.81066 17.7537 -7.81066C17.4768 -7.81066 17.248 -7.89471 17.0921 -8.05381C16.9313 -8.21785 16.8526 -8.45362 16.8583 -8.75463C16.8784 -9.80644 16.6645 -10.4167 16.4759 -10.9551C16.3807 -11.2266 16.2909 -11.4831 16.2368 -11.7717C16.1407 -12.2846 16.0823 -12.9741 16.3492 -13.3469C16.4542 -13.4934 16.5982 -13.5807 16.7774 -13.6063C16.8212 -13.6127 16.8664 -13.6158 16.9116 -13.6158C17.0601 -13.6158 17.2154 -13.5819 17.3732 -13.5148C17.3948 -13.5057 17.417 -13.5011 17.4394 -13.5011C17.4873 -13.5011 17.5349 -13.5226 17.5697 -13.5601C17.6053 -13.5985 17.6228 -13.6485 17.6188 -13.7007C17.5033 -15.2397 17.3978 -19.0286 18.9106 -20.9696C20.7094 -23.2776 23.4761 -23.7452 24.5822 -23.8391C24.7251 -23.8512 24.8977 -23.8643 25.136 -23.8643C25.3148 -23.8643 25.5086 -23.8566 25.7122 -23.8414C26.8385 -23.7577 29.6551 -23.3102 31.4793 -20.9696C32.9921 -19.0283 32.8865 -15.2396 32.7709 -13.7007C32.767 -13.6485 32.7845 -13.5985 32.8202 -13.5601C32.855 -13.5225 32.9024 -13.5011 32.9505 -13.5011C32.9728 -13.5011 32.995 -13.5057 33.0166 -13.5148C33.1744 -13.5819 33.3297 -13.6158 33.4782 -13.6158C33.5234 -13.6158 33.5686 -13.6127 33.6125 -13.6063C33.7916 -13.5807 33.9356 -13.4934 34.0406 -13.3469C34.3075 -12.9741 34.249 -12.2846 34.1529 -11.7717C34.0989 -11.4831 34.009 -11.2266 33.9139 -10.9551C33.7252 -10.4167 33.5114 -9.80645 33.5315 -8.75463C33.5372 -8.45363 33.4585 -8.21785 33.2977 -8.05375C33.1418 -7.8947 32.913 -7.81065 32.6362 -7.81065C32.5333 -7.81065 32.4235 -7.82276 32.3187 -7.84562C32.2959 -7.8506 32.2727 -7.85314 32.2497 -7.85314C32.0736 -7.85314 31.927 -7.70693 31.9233 -7.52719C31.9035 -6.59739 31.806 -5.37901 31.4545 -4.8548C31.0428 -4.24075 30.9719 -3.8055 30.9093 -3.42152C30.8957 -3.33761 30.8824 -3.25616 30.8664 -3.17598C30.8577 -3.13262 30.8449 -3.04499 30.8324 -2.87271C30.9171 -2.05786 30.925 -1.25611 30.9216 -0.578709C30.9211 -0.483294 30.9159 -0.386417 30.9107 -0.289408C30.9034 -0.152037 30.8965 -0.0221844 30.9025 0.105015C30.9177 0.4249 31.1492 0.760075 31.3534 1.05583C31.3825 1.09799 31.4109 1.13914 31.4379 1.17911C31.7 1.56721 31.9711 1.96849 32.3392 2.25652C32.6396 2.49157 32.9978 2.59835 33.3769 2.71145L33.7073 2.81145C35.5084 3.36027 37.3708 3.9277 39.1072 4.79646L39.2133 4.84872C39.4365 4.95743 39.6895 5.08071 39.8652 5.26455C39.9588 5.36249 40.0183 5.47952 40.0372 5.59694C40.2097 5.58903 40.3691 5.58517 40.521 5.58517C41.1146 5.58517 41.624 5.64502 42.1239 5.77354C42.8959 5.97194 43.6768 6.27794 44.4457 6.68327C44.4857 6.68242 44.5264 6.68201 44.5677 6.68201C45.2094 6.68201 46.1185 6.78946 46.6142 6.99492C48.5459 7.7954 49.7836 9.15706 50.8862 11.6947C51.8226 13.8498 52.2207 16.4109 51.9513 18.5459C51.8732 19.1639 51.8014 19.6945 51.7393 20.1542C51.607 21.1321 51.5196 21.7781 51.506 22.2676C51.5004 22.4673 51.4505 22.7199 51.3927 23.0123C51.2707 23.6294 51.1188 24.3974 51.2604 25.1935C51.3037 25.4361 51.3736 26.0869 51.4604 26.9134C52.0815 28.9285 52.347 31.6164 52.1715 34.1112C52.2846 34.6931 52.4286 35.0944 52.6 35.3049C52.7934 35.4326 53.0506 35.7444 53.4674 36.2499C53.6023 36.4135 53.7533 36.5965 53.9224 36.7978C55.1094 38.2109 56.4612 42.1288 56.8743 45.3531C57.0893 47.031 57.1443 50.4003 57.1788 53.4292C57.2274 53.741 57.2751 54.0349 57.3209 54.2977C57.3973 54.7362 57.4844 55.4981 57.5872 56.6267C58.3091 61.2541 58.8751 63.9198 59.2683 64.5411C59.4686 64.8576 59.8749 65.0378 60.3454 65.2465C61.1335 65.5961 62.1144 66.0311 62.6469 67.3437C63.4454 69.3122 65.692 72.591 66.8641 73.4988C67.3139 73.847 67.279 74.1977 67.2182 74.3757C67.0574 74.8467 66.3913 75.1886 65.6344 75.1886C65.1522 75.1886 64.6942 75.0488 64.3099 74.7843C63.8365 74.4584 63.4327 73.9354 63.1083 73.5153C62.9356 73.2914 62.7843 73.0955 62.6657 72.9858C62.6014 73.2593 62.6797 74.2259 62.7557 75.1633C62.9104 77.0719 63.1223 79.6858 62.8025 81.8675C62.6733 82.7491 61.9812 83.6142 61.4053 83.6142C61.3198 83.6142 61.2412 83.5942 61.1719 83.5558C61.2106 84.857 61.1834 86.0116 60.3056 86.0438L60.2854 86.0441C59.6608 86.0441 59.2262 84.9594 58.989 84.1504C58.8516 84.6197 58.5784 84.8792 58.2033 84.8792C58.152 84.8792 58.0983 84.8742 58.0437 84.8643C57.282 84.7256 56.8237 82.9118 56.626 81.9C56.4988 82.0862 56.3107 82.2677 56.0607 82.2677C55.8162 82.2677 55.5731 82.0905 55.3383 81.7411C54.9439 81.1543 54.5446 79.8497 54.1218 78.4685C53.6865 77.0463 53.2365 75.5758 52.7282 74.6139C51.5337 72.353 51.4434 69.6943 51.965 68.3405C52.4351 67.1204 52.7197 66.3428 52.7084 65.8348C52.6692 64.062 51.1072 59.0685 49.9666 55.4224C49.7897 54.8568 49.6223 54.3219 49.4717 53.8342C48.3364 51.2052 47.4865 49.1355 47.1981 48.2971C46.9111 47.4632 46.7282 46.756 46.6387 46.1349C46.5613 45.7387 46.4971 45.3155 46.435 44.9063C46.4166 44.7849 46.3982 44.6636 46.3795 44.543C46.317 44.3524 46.2407 44.0562 46.1466 43.6388C45.7574 43.1924 45.1095 41.623 45.2028 39.6396C45.2785 38.0299 44.3243 34.9948 43.5576 32.556C43.1092 31.1298 42.722 29.8981 42.6476 29.2794C42.6242 29.0851 42.6038 28.9043 42.5863 28.7377C42.5175 29.0119 42.4459 29.2762 42.3719 29.5286C42.1326 30.3454 41.8648 31.339 41.5811 32.3909C41.0472 34.3709 40.4952 36.4183 40.056 37.5769C39.9326 37.9024 39.8237 38.1743 39.7242 38.4228C39.6361 38.6424 39.5555 38.8437 39.4787 39.0478C39.4577 39.6079 39.4579 40.2302 39.4607 40.7139C39.5254 41.1198 39.5266 41.8907 39.4634 42.5587C39.4896 42.9858 39.626 43.3832 39.7579 43.7677C39.8168 43.9392 39.8724 44.1013 39.9174 44.2628C40.0022 44.5357 40.0865 44.9109 40.1666 45.374C40.2715 45.7824 40.2816 45.8289 40.2498 45.8764C40.3245 46.2579 40.5491 47.1694 40.663 47.6313C40.6979 47.7732 40.724 47.8793 40.7351 47.9261C40.8285 48.3227 40.8155 52.6878 40.5206 53.162C40.5728 53.3594 40.6356 53.5926 40.7024 53.8408C40.8776 54.4915 41.0761 55.229 41.1907 55.7117C41.7294 57.3669 42.4631 60.4398 42.432 61.8764C42.4012 63.2895 43.1559 67.7256 43.5541 69.3932C43.8501 70.6329 43.9722 72.8402 44.0528 74.3009L44.0686 74.5836C44.2827 76.1129 44.4283 77.8869 44.4059 78.6989C44.377 79.7508 44.0231 83.0805 43.6331 85.9697C43.6022 86.6337 43.584 87.3906 43.5664 88.1227C43.5251 89.8424 43.4824 91.6206 43.2604 92.6354C42.8187 94.6566 41.8323 97.1641 40.8599 99.5593L40.8592 99.5591C40.7866 100.138 40.7634 100.608 40.79 100.958C40.8549 101.295 40.9572 101.729 41.0756 102.23C41.3549 103.414 41.7027 104.887 41.7433 105.926C41.7989 107.342 41.7788 109.524 41.7028 110.332C41.6967 110.913 41.6839 111.469 41.6674 111.892C41.7664 112.13 41.8195 112.352 41.8296 112.568C41.8349 112.683 41.8372 112.807 41.8396 112.94C41.8507 113.552 41.8659 114.39 42.2286 115.496C42.7167 116.983 42.9122 118.377 42.9853 119.076C43.0772 119.955 43.2192 122.632 43.0253 124.042C42.8406 125.384 42.1961 129.032 41.885 130.09C41.831 130.274 41.7742 130.49 41.7141 130.718C41.5832 131.215 41.435 131.778 41.2584 132.227C40.7113 135.331 39.9322 141.236 39.7684 142.534C39.73 142.837 39.6783 143.134 39.6146 143.415C39.5466 144.667 39.5104 146.32 39.591 147.002C39.689 147.831 39.9158 148.513 40.135 149.173L40.214 149.411C40.4485 150.125 40.3645 150.917 39.9643 151.765C39.6512 152.429 39.8675 153.871 40.401 154.677C40.7836 155.255 41.6716 156.319 42.3201 157.096C42.5733 157.399 42.7921 157.662 42.9295 157.834C43.4625 158.5 43.6088 159.599 43.4423 160.275C43.2767 160.949 43.0064 161.211 42.4784 161.211C42.2326 161.211 42.0177 161.1 41.8449 161.01C41.7291 160.95 41.6197 160.893 41.5454 160.893C41.5322 160.893 41.5207 160.895 41.5102 160.899C41.4274 160.929 41.3713 160.974 41.3063 161.026C41.2001 161.112 41.0798 161.209 40.8479 161.231C40.8338 161.232 40.8198 161.233 40.8058 161.233Z" fill="white" stroke="#28839F" stroke-width="0.7"/>
<path d="M23.151 -5.54055C21.0058 4.24868 18.1143 1.53086 11.3434 4.91855C10.3899 5.39557 10.1769 5.64932 10.9478 6.21769C11.7187 6.78606 14.0515 8.37954 14.7615 10.6124C15.4715 12.8453 15.7352 16.6616 16.6684 19.0974C17.6015 21.5333 19.6504 24.8218 20.6241 26.5269C21.5978 28.232 23.1193 31.7844 23.383 32.9414C23.6467 34.0985 24.5393 35.4382 24.6001 34.0376C24.661 32.6369 24.1539 27.1765 24.0321 23.9286C23.9104 20.6808 24.1133 14.9361 24.1539 13.0483C24.1944 11.1605 24.0727 8.52164 24.235 7.2225C24.3973 5.92335 24.093 -1.14073 24.0321 -2.56167C23.9713 -3.98259 24.2756 -5.24114 24.1133 -5.93131C23.951 -6.62147 23.3786 -6.5794 23.151 -5.54055Z" fill="#28839F" fill-opacity="0.2"/>
<path d="M20.8473 -3.88084C20.5415 -2.79137 19.9104 0.234803 19.2815 0.945271C19.1655 1.07631 18.5593 1.55778 18.6831 1.5644C19.9871 1.63401 21.2261 -1.1471 21.2328 -1.16075C21.9428 -2.61214 21.9529 -3.47485 21.8616 -4.61161C21.7703 -5.74835 21.3545 -5.68746 20.8473 -3.88084Z" fill="#28839F" fill-opacity="0.2"/>
<path d="M3.82764 7.12147C1.81936 7.95373 0.642776 9.41527 -0.371512 11.7497C-1.3858 14.0841 -1.66981 16.6011 -1.42638 18.5295C-1.18294 20.458 -1.00037 21.5338 -0.980093 22.2646C-0.959803 22.9954 -0.472935 22.0819 0.642776 21.0466C1.7585 20.0114 4.39566 17.6161 4.98394 16.1749C5.57223 14.7336 5.24765 13.2518 6.36338 12.2774C7.47909 11.3031 8.63538 10.0039 9.77139 9.51676C10.9074 9.02959 10.5017 8.29882 9.52795 8.17702C8.55424 8.05523 7.15451 7.01998 6.52566 6.87788C5.8968 6.73578 4.45767 6.86038 3.82764 7.12147Z" fill="#28839F" fill-opacity="0.2"/>
<path d="M12.1754 9.14058C10.9583 9.35373 8.87899 10.3585 8.2907 11.2314C7.72926 12.0644 6.97211 11.9723 6.8504 12.4392C6.72869 12.9061 7.45898 12.8655 7.90527 13.6977C8.35156 14.53 8.57469 15.89 9.24413 16.702C11.5226 19.4656 12.4949 19.2445 15.2082 20.5182C15.8255 20.808 16.689 21.1272 16.7499 20.7212C16.8107 20.3152 16.5774 19.8179 16.0804 18.9349C15.5834 18.0519 15.2893 15.4841 15.0662 14.3067C14.843 13.1294 14.4677 11.1908 14.0519 10.2672C13.636 9.34358 12.5821 9.06936 12.1754 9.14058Z" fill="#28839F" fill-opacity="0.2"/>
<path d="M6.05895 14.3581C6.32157 14.8498 6.39366 14.792 6.92616 15.1346C7.45867 15.4771 7.8162 15.9262 7.96074 16.0937C8.10527 16.2612 8.36391 15.8349 8.15852 15.2868C7.95313 14.7387 7.61842 14.1754 7.32174 13.871C7.02505 13.5665 6.90334 13.1935 6.62188 13.125C6.34041 13.0564 5.82312 13.9166 6.05895 14.3581Z" fill="#28839F"/>
<path d="M10.1162 18.5088C9.59723 18.0127 8.8788 17.1387 8.08765 16.7631C7.2965 16.3876 6.23149 15.0682 5.91707 15.4234C5.60263 15.7786 5.71421 16.824 6.03878 17.6157C6.36336 18.4073 6.71836 19.5035 6.97193 20.3967C7.2255 21.2898 7.94565 22.051 8.71651 22.2845C9.48737 22.5179 11.3334 22.8325 12.5505 22.7108C13.7677 22.589 14.8428 22.0003 15.3094 21.6958C16.4281 20.9657 12.3882 20.6808 10.1162 18.5088Z" fill="#28839F" fill-opacity="0.2"/>
<path d="M16.5267 21.574C15.5924 21.8233 14.9647 22.6296 12.8956 23.0761C11.5489 23.3668 8.73699 23.0355 8.10813 22.8325C7.47926 22.6296 7.05326 23.4009 7.13441 24.0099C7.21554 24.6189 7.45899 27.136 8.1487 29.4906C8.83841 31.8453 9.79185 35.7631 10.4613 37.5291C11.1307 39.2951 11.3741 39.4778 12.003 42.9286C12.6319 46.3795 14.4779 48.3079 14.9647 49.5867C15.4516 50.8656 17.5816 49.7897 17.3585 47.8004C17.1353 45.8111 17.1962 44.3496 18.251 41.7107C19.3059 39.0718 20.4825 36.5547 21.3345 35.1744C22.1865 33.7941 22.4603 32.3528 22.1256 31.1146C21.7909 29.8763 20.9592 28.0291 20.3607 26.9939C19.7623 25.9586 18.3322 23.7968 17.8656 22.9138C17.399 22.0307 17.3077 21.8683 17.1962 21.7161C17.0846 21.5639 16.831 21.4928 16.5267 21.574Z" fill="#28839F" fill-opacity="0.2"/>
<path d="M13.5853 47.8616C14.0088 48.6082 14.4576 49.3637 14.7416 50.2163C15.0256 51.0688 14.4779 51.7793 13.8693 52.0838C13.2607 52.3883 11.9117 52.4086 10.9887 52.6928C10.0657 52.9769 9.70056 53.3829 9.46727 53.322C9.23398 53.2611 9.66488 52.2393 9.93385 51.6981C10.8873 49.7798 12.286 47.462 12.6522 47.2526C12.8652 47.1308 13.1593 47.1105 13.5853 47.8616Z" fill="#28839F" fill-opacity="0.2"/>
<path d="M11.7863 45.0501C10.8957 45.432 9.96246 47.2157 9.78749 47.9579C9.66373 48.4829 9.60535 49.3596 9.60241 50.0741C9.60045 50.5456 9.50651 50.9964 9.62583 51.0104C10.2116 51.0789 10.4018 49.7848 11.5403 48.1508C11.8735 47.6727 12.2566 46.8364 12.4088 46.542C12.5609 46.2477 12.3543 44.8065 11.7863 45.0501Z" fill="#28839F" fill-opacity="0.2"/>
<path d="M11.2018 43.1769C10.7431 43.6971 10.2465 45.8195 10.2616 45.8111C10.4874 45.6852 10.8084 45.3679 11.0953 45.1256C11.3569 44.9047 11.7343 44.6384 11.7191 44.2273C11.7039 43.8163 11.5441 42.7886 11.2018 43.1769Z" fill="#28839F" fill-opacity="0.2"/>
<path d="M4.92299 17.8597C4.21115 18.9875 2.55971 21.9855 1.98155 23.645C1.40341 25.3044 1.27155 27.1567 1.21069 29.349C1.14984 31.5413 0.551406 36.8394 0.825261 38.0573C1.09912 39.2752 1.50484 40.1075 2.38727 39.5594C3.26971 39.0114 4.57814 35.936 5.49099 33.8351C6.40386 31.7341 7.05996 28.0946 6.911 26.6289C6.66758 24.2336 6.68787 23.6856 6.62701 21.412C6.57226 19.3671 5.28815 17.2812 4.92299 17.8597Z" fill="#28839F" fill-opacity="0.2"/>
<path d="M3.86839 39.3556C3.4622 40.3209 2.95552 40.8324 2.31651 41.2434C1.67752 41.6545 1.99701 42.842 2.68167 43.4966C3.3663 44.1513 3.57932 44.6841 3.74667 44.745C3.91403 44.8059 4.34763 42.4081 4.46174 42.0046C4.57585 41.6012 4.81929 40.33 4.67474 39.9493C4.5302 39.5687 4.29438 38.3432 3.86839 39.3556Z" fill="#28839F" fill-opacity="0.2"/>
<path d="M1.88151 20.9139C1.14317 21.3105 -0.135798 21.8417 -0.736635 25.2179C-0.835527 25.7736 -1.08704 28.6078 -1.23918 29.5517C-1.39132 30.4956 -1.37514 33.1782 -1.31017 33.9668C-1.23744 34.8498 -1.34014 36.1794 -1.20321 36.8797C-1.06629 37.58 -0.442491 36.4991 -0.290349 34.9614C-0.138207 33.4238 0.368937 29.9882 0.69351 27.06C0.932188 24.9068 1.05993 23.6549 2.39373 21.6452C3.12058 20.5501 2.88049 20.3773 1.88151 20.9139Z" fill="#28839F" fill-opacity="0.2"/>
<path d="M0.277531 45.1208C0.277531 46.1241 -0.645473 48.328 -1.08162 49.2618C-1.51777 50.1955 -2.36976 54.4685 -2.66391 55.93C-2.95805 57.3916 -3.6782 62.7099 -4.28678 64.6383C-4.89535 66.5667 -4.97649 67.1351 -4.42878 66.6885C-3.88106 66.242 -2.88706 63.2783 -2.50163 61.9385C-2.1162 60.5988 1.15997 53.1186 1.47947 51.7027C1.79896 50.2869 3.1074 48.6579 3.1074 47.851C3.1074 47.0441 3.06175 45.5673 2.1641 44.9888C1.26647 44.4103 0.277531 44.0652 0.277531 45.1208Z" fill="#28839F" fill-opacity="0.2"/>
<path d="M24.0427 54.0318C24.1035 52.9661 24.1339 48.8251 24.0122 47.5767C23.8905 46.3283 24.3926 42.8571 24.1644 41.5478C23.9362 40.2385 24.713 36.7404 24.4382 35.7017C24.2356 34.9357 22.4898 34.9903 21.1722 37.2444C20.5434 38.3203 19.8739 39.7615 19.4277 40.6547C18.9814 41.5478 17.7845 44.9378 18.0888 46.5414C18.3931 48.145 18.0685 49.4239 16.8716 50.4388C15.2472 51.8164 17.2984 52.406 18.5351 52.8443C19.9957 53.3619 21.791 55.6456 22.3082 56.6503C22.8255 57.6552 24.423 58.5229 24.2253 57.1071C24.0275 55.6912 24.0427 54.0318 24.0427 54.0318Z" fill="#28839F" fill-opacity="0.2"/>
<path d="M27.2389 -5.54055C29.3841 4.24868 32.2755 1.53086 39.0465 4.91855C39.9999 5.39557 40.2129 5.64932 39.4421 6.21769C38.6712 6.78606 36.3383 8.37954 35.6283 10.6124C34.9183 12.8453 34.6546 16.6616 33.7215 19.0974C32.7883 21.5333 30.7395 24.8218 29.7657 26.5269C28.792 28.232 27.2706 31.7844 27.0069 32.9414C26.7431 34.0985 25.8506 35.4382 25.7897 34.0376C25.7289 32.6369 26.236 27.1765 26.3577 23.9286C26.4794 20.6808 26.2766 14.9361 26.236 13.0483C26.1954 11.1605 26.3171 8.52164 26.1549 7.2225C25.9926 5.92335 26.2969 -1.14073 26.3577 -2.56167C26.4186 -3.98259 26.1143 -5.24114 26.2766 -5.93131C26.4389 -6.62147 27.0112 -6.5794 27.2389 -5.54055Z" fill="#28839F" fill-opacity="0.2"/>
<path d="M29.5427 -3.88084C29.8485 -2.79137 30.4796 0.234803 31.1085 0.945271C31.2245 1.07631 31.8308 1.55778 31.7069 1.5644C30.403 1.63401 29.1639 -1.1471 29.1573 -1.16075C28.4473 -2.61214 28.4371 -3.47485 28.5284 -4.61161C28.6197 -5.74835 29.0356 -5.68746 29.5427 -3.88084Z" fill="#28839F" fill-opacity="0.2"/>
<path d="M46.5621 7.12147C48.5704 7.95373 49.747 9.41527 50.7613 11.7497C51.7756 14.0841 52.0596 16.6011 51.8162 18.5295C51.5727 20.458 51.3902 21.5338 51.3699 22.2646C51.3496 22.9954 50.8627 22.0819 49.747 21.0466C48.6313 20.0114 45.9941 17.6161 45.4059 16.1749C44.8176 14.7336 45.1421 13.2518 44.0264 12.2774C42.9107 11.3031 41.7544 10.0039 40.6184 9.51676C39.4824 9.02959 39.8881 8.29882 40.8618 8.17702C41.8355 8.05523 43.2353 7.01998 43.8641 6.87788C44.493 6.73578 45.9321 6.86038 46.5621 7.12147Z" fill="#28839F" fill-opacity="0.2"/>
<path d="M38.2148 9.14058C39.4319 9.35373 41.5112 10.3585 42.0995 11.2314C42.661 12.0644 43.4181 11.9723 43.5398 12.4392C43.6615 12.9061 42.9312 12.8655 42.4849 13.6977C42.0387 14.53 41.8155 15.89 41.1461 16.702C38.8676 19.4656 37.8953 19.2445 35.1821 20.5182C34.5647 20.808 33.7012 21.1272 33.6403 20.7212C33.5795 20.3152 33.8128 19.8179 34.3098 18.9349C34.8068 18.0519 35.1009 15.4841 35.3241 14.3067C35.5472 13.1294 35.9225 11.1908 36.3384 10.2672C36.7542 9.34358 37.8081 9.06936 38.2148 9.14058Z" fill="#28839F" fill-opacity="0.2"/>
<path d="M44.3306 14.3581C44.068 14.8498 43.9959 14.792 43.4634 15.1346C42.9309 15.4771 42.5734 15.9262 42.4289 16.0937C42.2843 16.2612 42.0257 15.8349 42.2311 15.2868C42.4365 14.7387 42.7712 14.1754 43.0678 13.871C43.3645 13.5665 43.4863 13.1935 43.7677 13.125C44.0492 13.0564 44.5665 13.9166 44.3306 14.3581Z" fill="#28839F"/>
<path d="M40.2738 18.5088C40.7928 18.0127 41.5112 17.1387 42.3023 16.7631C43.0935 16.3876 44.1585 15.0682 44.4729 15.4234C44.7874 15.7786 44.6758 16.824 44.3512 17.6157C44.0266 18.4073 43.6716 19.5035 43.4181 20.3967C43.1645 21.2898 42.4444 22.051 41.6735 22.2845C40.9026 22.5179 39.0566 22.8325 37.8395 22.7108C36.6223 22.589 35.5472 22.0003 35.0806 21.6958C33.9618 20.9657 38.0018 20.6808 40.2738 18.5088Z" fill="#28839F" fill-opacity="0.2"/>
<path d="M33.8636 21.574C34.7979 21.8233 35.4256 22.6296 37.4947 23.0761C38.8414 23.3668 41.6533 23.0355 42.2822 22.8325C42.911 22.6296 43.337 23.4009 43.2559 24.0099C43.1747 24.6189 42.9313 27.136 42.2416 29.4906C41.5519 31.8453 40.5985 35.7631 39.929 37.5291C39.2596 39.2951 39.0162 39.4778 38.3873 42.9286C37.7584 46.3795 35.9124 48.3079 35.4256 49.5867C34.9387 50.8656 32.8087 49.7897 33.0319 47.8004C33.255 45.8111 33.1941 44.3496 32.1393 41.7107C31.0844 39.0718 29.9078 36.5547 29.0558 35.1744C28.2038 33.7941 27.93 32.3528 28.2647 31.1146C28.5994 29.8763 29.4311 28.0291 30.0296 26.9939C30.628 25.9586 32.0581 23.7968 32.5247 22.9138C32.9913 22.0307 33.0826 21.8683 33.1941 21.7161C33.3057 21.5639 33.5593 21.4928 33.8636 21.574Z" fill="#28839F" fill-opacity="0.2"/>
<path d="M36.8047 47.8616C36.3812 48.6082 35.9324 49.3637 35.6484 50.2163C35.3644 51.0688 35.9121 51.7793 36.5207 52.0838C37.1293 52.3883 38.4783 52.4086 39.4013 52.6928C40.3243 52.9769 40.6894 53.3829 40.9227 53.322C41.156 53.2611 40.7251 52.2393 40.4561 51.6981C39.5027 49.7798 38.104 47.462 37.7378 47.2526C37.5248 47.1308 37.2307 47.1105 36.8047 47.8616Z" fill="#28839F" fill-opacity="0.2"/>
<path d="M38.604 45.0501C39.4945 45.432 40.4278 47.2157 40.6028 47.9579C40.7265 48.4829 40.7849 49.3596 40.7878 50.0741C40.7898 50.5456 40.8837 50.9964 40.7644 51.0104C40.1787 51.0789 39.9885 49.7848 38.8499 48.1508C38.5168 47.6727 38.1336 46.8364 37.9815 46.542C37.8293 46.2477 38.036 44.8065 38.604 45.0501Z" fill="#28839F" fill-opacity="0.2"/>
<path d="M39.1881 43.1769C39.6468 43.6971 40.1435 45.8195 40.1284 45.8111C39.9025 45.6852 39.5816 45.3679 39.2946 45.1256C39.033 44.9047 38.6556 44.6384 38.6709 44.2273C38.6861 43.8163 38.8458 42.7886 39.1881 43.1769Z" fill="#28839F" fill-opacity="0.2"/>
<path d="M45.4667 17.8597C46.1785 18.9875 47.8299 21.9855 48.4081 23.645C48.9862 25.3044 49.1181 27.1567 49.179 29.349C49.2398 31.5413 49.8382 36.8394 49.5644 38.0573C49.2905 39.2752 48.8848 40.1075 48.0024 39.5594C47.1199 39.0114 45.8115 35.936 44.8987 33.8351C43.9858 31.7341 43.3297 28.0946 43.4786 26.6289C43.7221 24.2336 43.7018 23.6856 43.7626 21.412C43.8174 19.3671 45.1015 17.2812 45.4667 17.8597Z" fill="#28839F" fill-opacity="0.2"/>
<path d="M46.5218 39.3556C46.928 40.3209 47.4347 40.8324 48.0737 41.2434C48.7127 41.6545 48.3932 42.842 47.7085 43.4966C47.0239 44.1513 46.8109 44.6841 46.6435 44.745C46.4762 44.8059 46.0426 42.4081 45.9285 42.0046C45.8144 41.6012 45.5709 40.33 45.7155 39.9493C45.86 39.5687 46.0958 38.3432 46.5218 39.3556Z" fill="#28839F" fill-opacity="0.2"/>
<path d="M48.5085 20.9139C49.2468 21.3105 50.5258 21.8417 51.1266 25.2179C51.2255 25.7736 51.477 28.6078 51.6292 29.5517C51.7813 30.4956 51.7651 33.1782 51.7002 33.9668C51.6274 34.8498 51.7301 36.1794 51.5932 36.8797C51.4563 37.58 50.8325 36.4991 50.6803 34.9614C50.5282 33.4238 50.0211 29.9882 49.6965 27.06C49.4578 24.9068 49.3301 23.6549 47.9963 21.6452C47.2694 20.5501 47.5095 20.3773 48.5085 20.9139Z" fill="#28839F" fill-opacity="0.2"/>
<path d="M53.419 37.6302C53.2699 38.3571 52.993 39.2745 52.5061 40.33C52.0193 41.3856 51.3295 42.025 51.3092 42.9486C51.289 43.8722 51.7454 44.6131 51.8164 45.3845C51.8874 46.1558 52.2424 46.4299 52.3641 46.0746C52.4858 45.7194 53.1654 44.6435 53.2567 43.3952C53.348 42.1468 53.7638 41.3653 53.9464 40.6548C54.129 39.9443 53.8348 38.8888 53.7638 38.4625C53.6928 38.0362 53.4887 37.2902 53.419 37.6302Z" fill="#28839F" fill-opacity="0.2"/>
<path d="M55.2444 44.4514C55.2444 46.1018 55.2038 50.2569 55.3661 52.7334C55.5284 55.2099 56.5629 64.5881 56.8672 66.009C57.1715 67.43 56.4412 65.806 56.0558 64.1821C55.6704 62.5582 55.1227 60.508 54.2706 57.8488C53.4186 55.1896 52.6275 51.3328 52.6884 49.9322C52.7492 48.5315 52.7492 46.6031 53.1346 45.71C53.5201 44.8168 53.5809 43.7613 53.7432 43.0508C53.9055 42.3403 54.1388 41.4776 54.2706 41.2645C54.4025 41.0513 54.7068 42.0561 54.9198 42.726C55.1328 43.3959 55.2444 44.3296 55.2444 44.4514Z" fill="#28839F" fill-opacity="0.2"/>
<path d="M50.1121 45.1208C50.1121 46.1241 51.0351 48.328 51.4712 49.2618C51.9074 50.1955 52.7594 54.4685 53.0535 55.93C53.3477 57.3916 54.0678 62.7099 54.6764 64.6383C55.285 66.5667 55.3661 67.1351 54.8184 66.6885C54.2707 66.242 53.2767 63.2783 52.8913 61.9385C52.5058 60.5988 49.2297 53.1186 48.9102 51.7027C48.5907 50.2869 47.2822 48.6579 47.2822 47.851C47.2822 47.0441 47.3279 45.5673 48.2255 44.9888C49.1232 44.4103 50.1121 44.0652 50.1121 45.1208Z" fill="#28839F" fill-opacity="0.2"/>
<path d="M57.8714 65.6334C56.867 63.9583 56.6999 58.2801 56.4717 56.5901C56.2435 54.9003 55.9849 49.8001 55.9696 48.7801C55.9544 47.76 56.137 47.8362 56.3348 48.8105C56.5326 49.7849 56.8977 52.6623 57.1868 54.3217C57.4759 55.9812 57.8106 61.6446 58.0084 62.8778C58.2061 64.111 58.054 65.9379 57.8714 65.6334Z" fill="#28839F" fill-opacity="0.2"/>
<path d="M26.3473 54.0318C26.2864 52.9661 26.256 48.8251 26.3777 47.5767C26.4994 46.3283 25.9974 42.8571 26.2256 41.5478C26.4538 40.2385 25.677 36.7404 25.9517 35.7017C26.1543 34.9357 27.9002 34.9903 29.2177 37.2444C29.8466 38.3203 30.516 39.7615 30.9623 40.6547C31.4086 41.5478 32.6055 44.9378 32.3012 46.5414C31.9969 48.145 32.3215 49.4239 33.5183 50.4388C35.1428 51.8164 33.0916 52.406 31.8549 52.8443C30.3943 53.3619 28.599 55.6456 28.0817 56.6503C27.5644 57.6552 25.9669 58.5229 26.1647 57.1071C26.3625 55.6912 26.3473 54.0318 26.3473 54.0318Z" fill="#28839F" fill-opacity="0.2"/>
</g>
<defs>
<clipPath id="clip0_4071_13209">
<rect width="61" height="48" fill="white"/>
</clipPath>
</defs>
</svg>
