<svg width="61" height="48" viewBox="0 0 61 48" fill="none" xmlns="http://www.w3.org/2000/svg">
<g clip-path="url(#clip0_4055_11802)">
<path d="M41.8058 59.233C41.6222 59.233 41.4739 59.1258 41.3305 59.0221C41.2116 58.9361 41.0992 58.8548 40.9914 58.8548C40.9728 58.8548 40.9546 58.8572 40.936 58.8619C40.8132 58.8936 40.7456 58.9465 40.6674 59.0076C40.5567 59.0941 40.4314 59.1923 40.1771 59.1923C40.1603 59.1923 40.1427 59.1918 40.1246 59.1909C39.8874 59.1793 39.7392 59.0792 39.6084 58.9909C39.4879 58.9094 39.3928 58.8451 39.2338 58.8451C39.2243 58.8451 39.2145 58.8454 39.2045 58.8458C39.0376 58.8538 38.9414 58.9103 38.8194 58.9818C38.6669 59.0714 38.494 59.1729 38.171 59.1909C38.1486 59.1921 38.1266 59.1927 38.1047 59.1927C37.8033 59.1927 37.5441 59.0774 37.3153 58.9757C37.1232 58.8902 36.9416 58.8094 36.7608 58.8054L36.7459 58.8052C36.5611 58.8052 36.334 58.8804 36.0936 58.9599C35.7948 59.0588 35.4561 59.1709 35.1046 59.1709L35.0778 59.1707C34.2305 59.1571 33.749 58.7207 33.6467 57.8736C33.5924 57.4243 33.7415 56.938 33.8857 56.4677C34.0525 55.9238 34.2249 55.3614 34.096 54.8454C33.8236 53.7549 33.6672 52.3527 33.7067 51.3561C33.7337 50.672 33.5211 49.7502 33.3336 48.9369C33.2434 48.5453 33.1581 48.1755 33.1 47.8428C32.9787 47.1485 33.4867 45.9306 33.9349 44.856C34.1803 44.2676 34.412 43.7119 34.4588 43.4136C34.5085 43.0954 34.5116 42.021 34.4677 40.2202C34.3824 39.7848 34.3225 38.3354 34.2902 37.5533C34.2819 37.3534 34.2755 37.1971 34.2709 37.1128C34.2667 37.0352 34.2487 36.6542 34.2887 36.4565L34.2187 35.926C34.0793 34.8643 33.9476 33.8614 33.8329 33.432C33.8329 33.432 33.6511 32.7557 33.5987 32.5585C33.541 32.4679 33.4894 32.356 33.4414 32.2172C33.3429 31.9323 33.24 31.5374 33.1312 31.1193C32.9303 30.3479 32.7027 29.4737 32.4146 28.9163C32.1489 28.4024 31.9949 27.7247 31.944 26.8449C31.8628 26.4374 31.794 25.9695 31.7395 25.4539C31.4781 22.9776 31.7667 19.5005 32.0662 18.0436C32.2168 17.3107 32.4525 16.4235 32.6604 15.6408C32.859 14.8931 33.0466 14.1868 33.1202 13.7645C33.196 13.33 33.2129 13.0843 33.2231 12.9375C33.2297 12.842 33.2341 12.7784 33.2528 12.7278C33.2276 12.5934 33.2004 12.4413 33.1714 12.278C33.1231 12.0079 33.0688 11.7032 33.0087 11.3983C32.881 11.2467 32.7953 10.945 32.68 10.5397C32.5778 10.1803 32.4507 9.73302 32.2635 9.29875C31.8274 8.2879 31.2886 4.94981 31.2381 3.36247C31.1867 1.74828 30.9153 -0.83989 30.593 -2.11983C30.3057 -3.26102 30.0018 -6.00082 30.0309 -7.1851C30.0055 -7.44176 29.9801 -7.68337 29.9546 -7.89555C29.9278 -8.11948 29.9096 -8.40313 29.9005 -8.73898C29.843 -8.86917 29.7546 -9.05315 29.6279 -9.23168C29.4621 -9.4654 29.3089 -9.78555 29.1726 -10.1832C28.9593 -10.7283 28.7103 -11.775 28.6309 -12.4635C28.5015 -13.5858 27.6802 -18.5351 27.2056 -20.1129C26.6641 -21.9135 27.0349 -25.544 27.0789 -25.952C27.0936 -26.0881 27.1072 -26.2227 27.1205 -26.3548C27.159 -26.7386 27.1956 -27.1022 27.253 -27.4259C27.0991 -27.6649 26.9719 -27.9164 26.8659 -28.1915C26.6216 -28.2588 26.3776 -28.2772 26.276 -28.2772H26.1137C26.0122 -28.2772 25.7683 -28.2588 25.5239 -28.1915C25.4179 -27.9164 25.2907 -27.6648 25.1367 -27.4259C25.1943 -27.1017 25.2308 -26.7376 25.2694 -26.3533C25.2827 -26.2216 25.2961 -26.0875 25.3108 -25.952C25.3549 -25.544 25.7259 -21.9139 25.1841 -20.1129C24.7095 -18.5349 23.8882 -13.5857 23.7588 -12.4634C23.6795 -11.7751 23.4306 -10.7284 23.2153 -10.1779C23.0808 -9.7854 22.9276 -9.46524 22.7619 -9.23166C22.6347 -9.05247 22.5465 -8.86881 22.4892 -8.73896C22.4802 -8.40358 22.462 -8.11993 22.4351 -7.89554C22.4097 -7.68336 22.3842 -7.44174 22.3589 -7.18515C22.388 -6.00088 22.0841 -3.26099 21.7968 -2.11981C21.4746 -0.840195 21.2031 1.74794 21.1517 3.36247C21.1011 4.94994 20.5623 8.28812 20.1263 9.29883C19.939 9.73309 19.8119 10.1803 19.7097 10.5397C19.5945 10.9451 19.5088 11.2467 19.381 11.3983C19.3209 11.7032 19.2665 12.0079 19.2184 12.2781C19.1892 12.4414 19.1621 12.5934 19.1369 12.7277C19.1556 12.7784 19.16 12.842 19.1667 12.9376C19.1768 13.0843 19.1938 13.3299 19.2695 13.7645C19.3431 14.1869 19.5307 14.8934 19.7294 15.6413C19.9373 16.4238 20.173 17.3108 20.3236 18.0435C20.6231 19.5009 20.9117 22.9783 20.6502 25.4539C20.5956 25.9705 20.5266 26.4425 20.4452 26.8568C20.3934 27.7309 20.2397 28.4046 19.9752 28.9163C19.687 29.4737 19.4594 30.348 19.2586 31.1193C19.1497 31.5374 19.0469 31.9323 18.9483 32.2172C18.9004 32.3559 18.8488 32.468 18.7911 32.5586C18.7388 32.7552 18.5569 33.432 18.5569 33.432C18.4421 33.8615 18.3104 34.8645 18.171 35.9264L18.1011 36.4564C18.1411 36.6543 18.1231 37.0352 18.1188 37.1128C18.1142 37.1971 18.1078 37.3535 18.0995 37.5535C18.0672 38.3355 18.0073 39.7848 17.9221 40.2201C17.8782 42.0212 17.8812 43.0957 17.931 43.4136C17.9777 43.7119 18.2095 44.2676 18.4549 44.8559C18.9031 45.9305 19.4111 47.1484 19.2897 47.8427C19.2317 48.1755 19.1464 48.5452 19.0561 48.9367C18.8686 49.75 18.656 50.6719 18.6831 51.3561C18.7226 52.3529 18.5661 53.7552 18.2938 54.8454C18.1648 55.3615 18.3373 55.9238 18.5041 56.4678C18.6483 56.938 18.7974 57.4243 18.7431 57.8735C18.6407 58.7206 18.1592 59.1571 17.3119 59.1707L17.2852 59.1709C16.9337 59.1709 16.595 59.0588 16.2961 58.9599C16.0557 58.8803 15.8286 58.8051 15.6439 58.8051L15.629 58.8053C15.4481 58.8093 15.2665 58.8901 15.0744 58.9756C14.8457 59.0774 14.5865 59.1927 14.285 59.1927C14.2631 59.1927 14.241 59.1921 14.2187 59.1909C13.8957 59.1729 13.7229 59.0714 13.5703 58.9819C13.4485 58.9103 13.3522 58.8538 13.1852 58.8458C13.1752 58.8454 13.1655 58.8451 13.1559 58.8451C12.997 58.8451 12.9018 58.9094 12.7814 58.9908C12.6506 59.0791 12.5023 59.1793 12.2652 59.1909C12.247 59.1918 12.2295 59.1922 12.2128 59.1922C11.9583 59.1922 11.8329 59.0941 11.7223 59.0076C11.6441 58.9464 11.5765 58.8936 11.4538 58.8619C11.4351 58.8571 11.417 58.8548 11.3983 58.8548C11.2905 58.8548 11.1782 58.9361 11.0592 59.0221C10.9158 59.1258 10.7675 59.233 10.5839 59.233C10.57 59.233 10.5559 59.2323 10.5418 59.231C10.31 59.2093 10.1896 59.1121 10.0834 59.0264C10.0185 58.9739 9.96239 58.9286 9.87952 58.8988C9.86909 58.895 9.85753 58.8931 9.84437 58.8931C9.77008 58.8931 9.66065 58.9499 9.54483 59.0101C9.37214 59.0998 9.15718 59.2113 8.91138 59.2113C8.38339 59.2113 8.11315 58.9489 7.94743 58.2754C7.78099 57.5986 7.92731 56.5002 8.46028 55.8336C8.59789 55.6614 8.8169 55.3989 9.07053 55.095C9.71866 54.3182 10.6064 53.2544 10.9888 52.6768C11.5223 51.871 11.7387 50.4289 11.4255 49.7653C11.0253 48.9172 10.9412 48.1252 11.1758 47.4114L11.2546 47.1736C11.4739 46.5138 11.7008 45.8315 11.7988 45.002C11.8794 44.3208 11.8431 42.668 11.7752 41.4154C11.7116 41.1344 11.6598 40.838 11.6214 40.5338C11.4576 39.2363 10.6786 33.3307 10.1314 30.2268C9.95487 29.7787 9.80678 29.2159 9.67593 28.719C9.6158 28.4904 9.55891 28.2747 9.50476 28.0904C9.19378 27.0322 8.54932 23.3847 8.36446 22.0417C8.17057 20.6321 8.31263 17.9551 8.40452 17.0762C8.47762 16.3773 8.67317 14.9827 9.16117 13.4956C9.52397 12.3901 9.53911 11.5521 9.55022 10.9402C9.55261 10.8071 9.55487 10.6834 9.56018 10.5682C9.57027 10.3516 9.62337 10.1302 9.72238 9.89233C9.7059 9.47139 9.69315 8.91505 9.6863 8.32083C9.61102 7.52448 9.59094 5.34218 9.64643 3.92625C9.68716 2.88701 10.0348 1.41416 10.3141 0.230759C10.4325 -0.270775 10.5349 -0.70443 10.5997 -1.04166C10.6264 -1.39107 10.6032 -1.86082 10.5308 -2.43843L10.5297 -2.44122C9.55752 -4.83583 8.57117 -7.34338 8.1293 -9.3645C7.90742 -10.3793 7.86471 -12.1575 7.82338 -13.8772C7.80577 -14.6093 7.78756 -15.3663 7.75566 -16.0422C7.36675 -18.9197 7.01278 -22.2492 6.98388 -23.301C6.96108 -24.1259 7.10348 -25.8615 7.32236 -27.4277L7.33711 -27.702C7.41785 -29.1618 7.5399 -31.3679 7.83574 -32.6068C8.23389 -34.2743 8.98853 -38.7104 8.95783 -40.1235C8.92667 -41.5599 9.66031 -44.6328 10.2019 -46.2989C10.3138 -46.7717 10.5128 -47.5106 10.6882 -48.1624C10.7556 -48.4127 10.8189 -48.6478 10.8714 -48.846C10.6306 -49.3069 10.825 -54.4054 10.9968 -54.9606C11.0421 -55.38 11.0911 -55.7692 11.1426 -56.1199C11.1077 -56.169 11.1158 -56.2087 11.2255 -56.6365C11.3033 -57.0887 11.3875 -57.4639 11.4735 -57.7408C11.5173 -57.8985 11.5729 -58.0606 11.6319 -58.2322C11.7639 -58.6166 11.9003 -59.0141 11.9264 -59.4413C11.8632 -60.1092 11.8644 -60.8801 11.9291 -61.286C11.9318 -61.7704 11.9321 -62.3933 11.9112 -62.9522C11.8344 -63.1561 11.7538 -63.3572 11.6658 -63.5768C11.5662 -63.8253 11.4573 -64.0973 11.3338 -64.423C10.8946 -65.5816 10.3425 -67.6291 9.80865 -69.6092C9.52505 -70.661 9.25714 -71.6545 9.01793 -72.4714C8.94397 -72.7237 8.87235 -72.988 8.80344 -73.2623C8.78604 -73.0956 8.76557 -72.9149 8.74218 -72.7206C8.66775 -72.1018 8.28057 -70.8699 7.83211 -69.4436C7.06544 -67.005 6.11133 -63.9699 6.18708 -62.3603C6.28031 -60.3769 5.63244 -58.8076 5.2432 -58.3611C5.14911 -57.9439 5.07282 -57.6477 5.01037 -57.457C4.99164 -57.3365 4.97329 -57.2155 4.95489 -57.0942C4.89282 -56.6848 4.82858 -56.2613 4.74996 -55.8582C4.66159 -55.2437 4.47865 -54.5365 4.19173 -53.7028C3.90329 -52.8642 3.05343 -50.7946 1.91811 -48.1658C1.7676 -47.6785 1.60042 -47.1441 1.42361 -46.5789C0.282982 -42.9323 -1.27926 -37.9381 -1.31854 -36.1651C-1.32983 -35.657 -1.04524 -34.8794 -0.57519 -33.6594C-0.053648 -32.3055 -0.143886 -29.6467 -1.33847 -27.386C-1.84666 -26.4241 -2.29677 -24.9536 -2.732 -23.5315C-3.1548 -22.1502 -3.55408 -20.8456 -3.94845 -20.2588C-4.18328 -19.9094 -4.42641 -19.7322 -4.67093 -19.7322C-4.92098 -19.7322 -5.10902 -19.9137 -5.23613 -20.1C-5.43381 -19.0882 -5.89196 -17.2743 -6.65392 -17.1357C-6.70848 -17.1257 -6.76216 -17.1207 -6.81347 -17.1207C-7.18862 -17.1207 -7.4618 -17.3801 -7.5992 -17.8494C-7.83643 -17.0405 -8.27105 -15.9558 -8.89559 -15.9558L-8.91579 -15.9562C-9.79508 -15.9883 -9.821 -17.1433 -9.781 -18.4447C-9.85063 -18.4059 -9.9295 -18.3857 -10.0156 -18.3857C-10.5914 -18.3857 -11.2834 -19.2508 -11.4127 -20.1324C-11.7325 -22.3141 -11.5206 -24.9278 -11.3659 -26.8362C-11.2898 -27.774 -11.2115 -28.7408 -11.2759 -29.0142C-11.3945 -28.9046 -11.5456 -28.7087 -11.7184 -28.4849C-12.0429 -28.0646 -12.4466 -27.5416 -12.9202 -27.2157C-13.3044 -26.9511 -13.7624 -26.8114 -14.2446 -26.8114C-15.0014 -26.8114 -15.6675 -27.1533 -15.8284 -27.6243C-15.8892 -27.8023 -15.924 -28.153 -15.4743 -28.5012C-14.3022 -29.4089 -12.0557 -32.6878 -11.2571 -34.6562C-10.7246 -35.9688 -9.74371 -36.4039 -8.95558 -36.7535C-8.48507 -36.9622 -8.07874 -37.1424 -7.87848 -37.4589C-7.48525 -38.0802 -6.91931 -40.7459 -6.19637 -45.3819C-6.09304 -46.5185 -6.00845 -47.2585 -5.93118 -47.7022C-5.88533 -47.9651 -5.83762 -48.259 -5.78892 -48.5708C-5.75444 -51.5996 -5.69942 -54.9691 -5.48446 -56.6468C-5.07142 -59.8713 -3.71961 -63.7892 -2.53254 -65.2022C-2.36296 -65.404 -2.2116 -65.5876 -2.07632 -65.7517C-1.66495 -66.2505 -1.41058 -66.5589 -1.21855 -66.6898C-1.04838 -66.9178 -0.902934 -67.3457 -0.785984 -67.9626C-0.951435 -70.4332 -0.684315 -73.0934 -0.0707397 -75.0858C0.0161772 -75.9127 0.0861378 -76.5638 0.129331 -76.8065C0.270994 -77.6026 0.119097 -78.3705 -0.00290203 -78.9877C-0.0607109 -79.2801 -0.11068 -79.5327 -0.116192 -79.7324C-0.129813 -80.2219 -0.217195 -80.8682 -0.349549 -81.8464C-0.411672 -82.306 -0.483442 -82.8363 -0.561446 -83.4541C-0.83096 -85.5889 -0.432806 -88.1501 0.503643 -90.3053C1.60621 -92.8429 2.84385 -94.2045 4.77547 -95.0051C5.2713 -95.2105 6.18036 -95.318 6.82205 -95.318C6.86337 -95.318 6.90404 -95.3176 6.94405 -95.3167C8.50323 -96.1385 9.89915 -96.4306 10.624 -96.4306C10.7366 -96.4306 10.8383 -96.4238 10.9267 -96.4104C10.9684 -96.4125 11.0124 -96.4135 11.0586 -96.4135C11.1493 -96.4135 11.2488 -96.4097 11.3456 -96.4045C11.3761 -96.7216 11.7893 -96.9567 12.2826 -97.2036C12.9683 -97.5466 13.6835 -97.8603 14.4083 -98.136C15.2461 -98.4547 16.0884 -98.7179 17.0953 -99.015C17.2184 -99.0513 17.3425 -99.0858 17.4666 -99.1202C18.1926 -99.3218 18.8782 -99.5122 19.3795 -100.059C19.5228 -100.215 19.6432 -100.388 19.7706 -100.572C19.8311 -100.658 19.8917 -100.745 19.9545 -100.83C20.1485 -101.092 20.3491 -101.362 20.4575 -101.667C20.509 -101.812 20.4963 -101.976 20.4827 -102.15C20.477 -102.224 20.4712 -102.299 20.4702 -102.372C20.4668 -102.607 20.467 -102.855 20.4708 -103.13C20.478 -103.649 20.494 -104.262 20.5574 -104.873C20.5449 -105.045 20.5321 -105.133 20.5235 -105.176C20.5074 -105.256 20.4942 -105.338 20.4805 -105.422C20.4179 -105.806 20.347 -106.241 19.9353 -106.855C19.5836 -107.379 19.4863 -108.598 19.4666 -109.527C19.4628 -109.707 19.3163 -109.853 19.1401 -109.853C19.1171 -109.853 19.0939 -109.851 19.071 -109.846C18.9662 -109.823 18.8565 -109.811 18.7537 -109.811C18.4768 -109.811 18.248 -109.895 18.0921 -110.054C17.9313 -110.218 17.8526 -110.454 17.8583 -110.755C17.8784 -111.806 17.6645 -112.417 17.4759 -112.955C17.3807 -113.227 17.2909 -113.483 17.2368 -113.772C17.1407 -114.285 17.0823 -114.974 17.3492 -115.347C17.4542 -115.493 17.5982 -115.581 17.7774 -115.606C17.8212 -115.613 17.8664 -115.616 17.9116 -115.616C18.0601 -115.616 18.2154 -115.582 18.3732 -115.515C18.3948 -115.506 18.417 -115.501 18.4394 -115.501C18.4873 -115.501 18.5349 -115.523 18.5697 -115.56C18.6053 -115.599 18.6228 -115.649 18.6188 -115.701C18.5033 -117.24 18.3978 -121.029 19.9106 -122.97C21.7094 -125.278 24.4761 -125.745 25.5822 -125.839C25.7251 -125.851 25.8977 -125.864 26.136 -125.864C26.3148 -125.864 26.5086 -125.857 26.7122 -125.841C27.8385 -125.758 30.6551 -125.31 32.4793 -122.97C33.9921 -121.028 33.8865 -117.24 33.7709 -115.701C33.767 -115.649 33.7845 -115.599 33.8202 -115.56C33.855 -115.523 33.9024 -115.501 33.9505 -115.501C33.9728 -115.501 33.995 -115.506 34.0166 -115.515C34.1744 -115.582 34.3297 -115.616 34.4782 -115.616C34.5234 -115.616 34.5686 -115.613 34.6125 -115.606C34.7916 -115.581 34.9356 -115.493 35.0406 -115.347C35.3075 -114.974 35.249 -114.285 35.1529 -113.772C35.0989 -113.483 35.009 -113.227 34.9139 -112.955C34.7252 -112.417 34.5114 -111.806 34.5315 -110.755C34.5372 -110.454 34.4585 -110.218 34.2977 -110.054C34.1418 -109.895 33.913 -109.811 33.6362 -109.811C33.5333 -109.811 33.4235 -109.823 33.3187 -109.846C33.2959 -109.851 33.2727 -109.853 33.2497 -109.853C33.0736 -109.853 32.927 -109.707 32.9233 -109.527C32.9035 -108.597 32.806 -107.379 32.4545 -106.855C32.0428 -106.241 31.9719 -105.806 31.9093 -105.422C31.8957 -105.338 31.8824 -105.256 31.8664 -105.176C31.8577 -105.133 31.8449 -105.045 31.8324 -104.873C31.9171 -104.058 31.925 -103.256 31.9216 -102.579C31.9211 -102.483 31.9159 -102.386 31.9107 -102.289C31.9034 -102.152 31.8965 -102.022 31.9025 -101.895C31.9177 -101.575 32.1492 -101.24 32.3534 -100.944C32.3825 -100.902 32.4109 -100.861 32.4379 -100.821C32.7 -100.433 32.9711 -100.032 33.3392 -99.7435C33.6396 -99.5084 33.9978 -99.4016 34.3769 -99.2886L34.7073 -99.1885C36.5084 -98.6397 38.3708 -98.0723 40.1072 -97.2035L40.2133 -97.1513C40.4365 -97.0426 40.6895 -96.9193 40.8652 -96.7354C40.9588 -96.6375 41.0183 -96.5205 41.0372 -96.4031C41.2097 -96.411 41.3691 -96.4148 41.521 -96.4148C42.1146 -96.4148 42.624 -96.355 43.1239 -96.2265C43.8959 -96.0281 44.6768 -95.7221 45.4457 -95.3167C45.4857 -95.3176 45.5264 -95.318 45.5677 -95.318C46.2094 -95.318 47.1185 -95.2105 47.6142 -95.0051C49.5459 -94.2046 50.7836 -92.8429 51.8862 -90.3053C52.8226 -88.1502 53.2207 -85.5891 52.9513 -83.4541C52.8732 -82.8361 52.8014 -82.3055 52.7393 -81.8458C52.607 -80.8679 52.5196 -80.2219 52.506 -79.7324C52.5004 -79.5327 52.4505 -79.2801 52.3927 -78.9877C52.2707 -78.3706 52.1188 -77.6026 52.2604 -76.8065C52.3037 -76.5639 52.3736 -75.9131 52.4604 -75.0866C53.0815 -73.0715 53.347 -70.3836 53.1715 -67.8888C53.2846 -67.3069 53.4286 -66.9056 53.6 -66.6951C53.7934 -66.5674 54.0506 -66.2556 54.4674 -65.7501C54.6023 -65.5865 54.7533 -65.4035 54.9224 -65.2022C56.1094 -63.7891 57.4612 -59.8712 57.8743 -56.6469C58.0893 -54.969 58.1443 -51.5997 58.1788 -48.5708C58.2274 -48.259 58.2751 -47.9651 58.3209 -47.7023C58.3973 -47.2638 58.4844 -46.5019 58.5872 -45.3733C59.3091 -40.7459 59.8751 -38.0802 60.2683 -37.4589C60.4686 -37.1424 60.8749 -36.9622 61.3454 -36.7535C62.1335 -36.4039 63.1144 -35.9689 63.6469 -34.6563C64.4454 -32.6878 66.692 -29.409 67.8641 -28.5012C68.3139 -28.153 68.279 -27.8023 68.2182 -27.6243C68.0574 -27.1533 67.3913 -26.8114 66.6344 -26.8114C66.1522 -26.8114 65.6942 -26.9512 65.3099 -27.2157C64.8365 -27.5416 64.4327 -28.0646 64.1083 -28.4847C63.9356 -28.7086 63.7843 -28.9045 63.6657 -29.0142C63.6014 -28.7407 63.6797 -27.7741 63.7557 -26.8367C63.9104 -24.9281 64.1223 -22.3142 63.8025 -20.1325C63.6733 -19.2509 62.9812 -18.3858 62.4053 -18.3858C62.3198 -18.3858 62.2412 -18.4058 62.1719 -18.4442C62.2106 -17.143 62.1834 -15.9884 61.3056 -15.9562L61.2854 -15.9559C60.6608 -15.9559 60.2262 -17.0406 59.989 -17.8496C59.8516 -17.3803 59.5784 -17.1208 59.2033 -17.1208C59.152 -17.1208 59.0983 -17.1258 59.0437 -17.1357C58.282 -17.2744 57.8237 -19.0882 57.626 -20.1C57.4988 -19.9138 57.3107 -19.7323 57.0607 -19.7323C56.8162 -19.7323 56.5731 -19.9095 56.3383 -20.2589C55.9439 -20.8457 55.5446 -22.1503 55.1218 -23.5315C54.6865 -24.9537 54.2365 -26.4242 53.7282 -27.3861C52.5337 -29.647 52.4434 -32.3057 52.965 -33.6595C53.4351 -34.8796 53.7197 -35.6572 53.7084 -36.1652C53.6692 -37.938 52.1072 -42.9315 50.9666 -46.5776C50.7897 -47.1432 50.6223 -47.6781 50.4717 -48.1658C49.3364 -50.7948 48.4865 -52.8645 48.1981 -53.7029C47.9111 -54.5368 47.7282 -55.244 47.6387 -55.8651C47.5613 -56.2613 47.4971 -56.6845 47.435 -57.0937C47.4166 -57.2151 47.3982 -57.3364 47.3795 -57.457C47.317 -57.6476 47.2407 -57.9438 47.1466 -58.3612C46.7574 -58.8076 46.1095 -60.377 46.2028 -62.3604C46.2785 -63.9701 45.3243 -67.0052 44.5576 -69.444C44.1092 -70.8702 43.722 -72.1019 43.6476 -72.7206C43.6242 -72.9149 43.6038 -73.0957 43.5863 -73.2623C43.5175 -72.9881 43.4459 -72.7238 43.3719 -72.4714C43.1326 -71.6546 42.8648 -70.661 42.5811 -69.6091C42.0472 -67.6291 41.4952 -65.5817 41.056 -64.4231C40.9326 -64.0976 40.8237 -63.8257 40.7242 -63.5772C40.6361 -63.3576 40.5555 -63.1563 40.4787 -62.9522C40.4577 -62.3921 40.4579 -61.7698 40.4607 -61.2861C40.5254 -60.8802 40.5266 -60.1093 40.4634 -59.4413C40.4896 -59.0142 40.626 -58.6168 40.7579 -58.2323C40.8168 -58.0608 40.8724 -57.8987 40.9174 -57.7372C41.0022 -57.4643 41.0865 -57.0891 41.1666 -56.626C41.2715 -56.2176 41.2816 -56.1711 41.2498 -56.1236C41.3245 -55.7421 41.5491 -54.8306 41.663 -54.3687C41.6979 -54.2268 41.724 -54.1207 41.7351 -54.0739C41.8285 -53.6773 41.8155 -49.3122 41.5206 -48.838C41.5728 -48.6406 41.6356 -48.4074 41.7024 -48.1592C41.8776 -47.5085 42.0761 -46.771 42.1907 -46.2883C42.7294 -44.6331 43.4631 -41.5602 43.432 -40.1236C43.4012 -38.7105 44.1559 -34.2744 44.5541 -32.6068C44.8501 -31.3671 44.9722 -29.1598 45.0528 -27.6991L45.0686 -27.4164C45.2827 -25.8871 45.4283 -24.1131 45.4059 -23.3011C45.377 -22.2492 45.0231 -18.9195 44.6331 -16.0303C44.6022 -15.3663 44.584 -14.6094 44.5664 -13.8773C44.5251 -12.1576 44.4824 -10.3794 44.2604 -9.36456C43.8187 -7.34344 42.8323 -4.83595 41.8599 -2.44074L41.8592 -2.44095C41.7866 -1.86235 41.7634 -1.39173 41.79 -1.04186C41.8549 -0.704681 41.9572 -0.271088 42.0756 0.230309C42.3549 1.41378 42.7027 2.88675 42.7433 3.92619C42.7989 5.34178 42.7788 7.52422 42.7028 8.33221C42.6967 8.91313 42.6839 9.46906 42.6674 9.89221C42.7664 10.1302 42.8195 10.3517 42.8296 10.5682C42.8349 10.6834 42.8372 10.8073 42.8396 10.9404C42.8507 11.5522 42.8659 12.3903 43.2286 13.4956C43.7167 14.983 43.9122 16.3774 43.9853 17.0762C44.0772 17.955 44.2192 20.6319 44.0253 22.0416C43.8406 23.3844 43.1961 27.0318 42.885 28.0903C42.831 28.2744 42.7742 28.4899 42.7141 28.7181C42.5832 29.2153 42.435 29.7783 42.2584 30.2268C41.7113 33.3307 40.9322 39.2363 40.7684 40.5338C40.73 40.8371 40.6783 41.1337 40.6146 41.4153C40.5466 42.6674 40.5104 44.3201 40.591 45.002C40.689 45.8313 40.9158 46.5133 41.135 47.1729L41.214 47.4114C41.4485 48.1253 41.3645 48.9172 40.9643 49.7652C40.6512 50.4288 40.8675 51.8709 41.401 52.6767C41.7836 53.2546 42.6716 54.3189 43.3201 55.0959C43.5733 55.3995 43.7921 55.6616 43.9295 55.8336C44.4625 56.5002 44.6088 57.5986 44.4423 58.2754C44.2767 58.9489 44.0064 59.2113 43.4784 59.2113C43.2326 59.2113 43.0177 59.0997 42.8449 59.0101C42.7291 58.9499 42.6197 58.8931 42.5454 58.8931C42.5322 58.8931 42.5207 58.895 42.5102 58.8987C42.4274 58.9286 42.3713 58.9739 42.3063 59.0263C42.2001 59.112 42.0798 59.2093 41.8479 59.231C41.8338 59.2323 41.8198 59.233 41.8058 59.233Z" fill="white" stroke="#28839F" stroke-width="0.7"/>
<path d="M11.5017 -19.0421C11.2583 -16.7584 10.8931 -12.4347 10.954 -9.29849C11.0148 -6.16229 10.9388 -2.28009 10.7714 -1.22962C10.604 -0.179144 9.84334 2.37854 9.78248 3.93143C9.72163 5.4843 9.75205 8.14856 9.85855 8.57483C9.96505 9.00112 10.5888 7.70706 11.3496 6.41299C12.1103 5.11893 14.362 0.642975 14.6967 -1.01647C15.0314 -2.67593 15.5487 -10.9275 15.6248 -13.1959C15.7009 -15.4643 15.9443 -19.2704 16.5376 -21.3562C17.909 -26.1766 12.1122 -24.7696 11.5017 -19.0421Z" fill="#28839F" fill-opacity="0.2"/>
<path d="M17.2427 -23.7614C17.068 -22.8848 17.0297 -21.9649 16.8167 -20.9804C16.6037 -19.9959 15.9444 -13.3074 15.8734 -12.0793C15.8024 -10.8512 15.5691 -6.11138 15.5082 -4.90358C15.4474 -3.69579 15.3662 -1.75722 15.0417 -0.72196C14.7171 0.313282 15.1735 3.04351 15.559 4.50504C15.9444 5.96659 17.6281 9.68132 18.0338 10.3512C18.4395 11.0211 17.4033 5.49085 17.3999 4.29698C17.3975 3.4598 17.8278 1.64283 18.2215 -0.38703C18.6654 -2.67607 19.1074 -5.2316 19.6719 -6.87766C20.7369 -9.98343 20.9956 -15.1749 20.813 -16.606C20.6304 -18.0371 19.7987 -20.0467 19.2916 -20.9094C18.7844 -21.7721 18.4205 -23.377 18.4091 -23.7462C18.3977 -24.1154 17.3314 -24.2067 17.2427 -23.7614Z" fill="#28839F" fill-opacity="0.2"/>
<path d="M20.9144 -11.8352C20.9095 -10.3576 20.5442 -8.23717 19.824 -6.15651C19.1039 -4.07586 18.7134 -1.371 18.4598 -0.0820122C18.2062 1.20697 17.6078 3.41957 17.7295 5.0232C17.8512 6.62683 18.2468 8.80898 18.5207 9.77319C18.7945 10.7374 18.9872 11.5189 19.2307 11.3565C19.4741 11.1941 19.5857 10.2096 20.0015 9.24541C20.4174 8.28121 20.9651 4.95215 21.0158 3.35868C21.0665 1.7652 21.3404 -0.863525 21.665 -2.15252C21.9895 -3.44151 22.3344 -6.76042 22.1924 -7.57237C22.0504 -8.38433 21.6751 -8.71928 21.6447 -9.64289C21.6143 -10.5665 21.6396 -11.3404 21.5128 -12.1219C21.4494 -12.5127 21.2859 -13.9012 21.1781 -13.9564C21.0704 -14.0116 20.9169 -12.5989 20.9144 -11.8352Z" fill="#28839F" fill-opacity="0.2"/>
<path d="M12.7593 6.29162C14.0918 7.51385 14.3213 9.60036 14.585 10.7168C14.8488 11.8333 14.585 16.4209 14.4633 18.4305C14.3416 20.4401 14.7879 23.7894 14.4228 25.4945C14.0576 27.1996 13.8243 28.5191 12.739 29.6153C11.6537 30.7114 11.5929 30.8839 10.9539 30.9753C10.3149 31.0666 9.9396 29.0875 9.63531 28.0522C9.33102 27.017 8.69203 23.424 8.49931 22.0234C8.3066 20.6228 8.44859 17.9636 8.53987 17.0907C8.63116 16.2179 8.84417 14.8984 9.29046 13.5384C9.73675 12.1783 9.66574 11.2344 9.69616 10.5747C9.72659 9.915 10.1729 9.31617 10.8525 8.32152C11.532 7.32686 11.816 6.60624 12.0899 6.3728C12.3638 6.13936 12.5159 6.06832 12.7593 6.29162Z" fill="#28839F" fill-opacity="0.2"/>
<path d="M15.0009 11.7418C15.1109 13.2335 15.153 15.1977 15.0009 16.8267C14.8487 18.4557 14.7422 19.7802 14.9096 21.3636C15.0769 22.9469 14.8792 24.0583 14.8183 25.3219C14.7574 26.5855 14.4075 27.6055 14.8639 29.1888C15.3204 30.7722 16.5832 32.0054 17.3895 32.386C18.1959 32.7666 18.5458 32.9645 18.8197 32.1728C19.0935 31.3812 19.3978 29.7369 19.8542 28.8539C20.3107 27.9709 20.402 26.6159 20.2802 24.8651C20.1585 23.1143 19.5753 18.41 19.4536 17.456C19.3319 16.5019 19.1696 14.5938 19.0073 13.5992C18.845 12.6045 18.5002 11.5084 17.9524 10.9197C17.4047 10.331 16.8773 9.60024 16.2484 8.80857C15.6196 8.01692 15.3964 8.88978 15.1124 9.74234C14.8284 10.5949 14.8893 10.2295 15.0009 11.7418Z" fill="#28839F" fill-opacity="0.2"/>
<path d="M10.8018 32.1425C11.415 33.117 13.5759 44.464 13.6317 44.9309C13.694 45.4521 13.4643 44.9918 13.2057 44.1696C12.947 43.3475 12.2015 41.206 12.0088 40.597C11.8161 39.9881 11.5524 38.5265 11.4814 38.0596C11.4104 37.5928 11.0351 34.4159 10.9337 33.878C10.8322 33.3401 10.6725 31.9369 10.8018 32.1425Z" fill="#28839F" fill-opacity="0.2"/>
<path d="M17.7549 36.7552C17.2331 38.5236 16.8268 42.784 16.6899 44.9154C16.5529 47.0468 16.9713 44.9458 17.0702 44.2607C17.1691 43.5756 17.6788 40.7135 17.7853 40.2111C17.8918 39.7087 17.9603 37.524 17.9831 37.1053C18.0059 36.6866 17.9907 35.9559 17.7549 36.7552Z" fill="#28839F" fill-opacity="0.2"/>
<path d="M40.8882 -19.0421C41.1316 -16.7584 41.4968 -12.4347 41.4359 -9.29849C41.3751 -6.16229 41.4511 -2.28009 41.6185 -1.22962C41.7859 -0.179144 42.5466 2.37854 42.6074 3.93143C42.6683 5.4843 42.6378 8.14856 42.5313 8.57483C42.4249 9.00112 41.8011 7.70706 41.0403 6.41299C40.2796 5.11893 38.0279 0.642975 37.6932 -1.01647C37.3585 -2.67593 36.8412 -10.9275 36.7651 -13.1959C36.689 -15.4643 36.4456 -19.2704 35.8523 -21.3562C34.4809 -26.1766 40.2777 -24.7696 40.8882 -19.0421Z" fill="#28839F" fill-opacity="0.2"/>
<path d="M35.1475 -23.7614C35.3222 -22.8848 35.3605 -21.9649 35.5735 -20.9804C35.7865 -19.9959 36.4458 -13.3074 36.5168 -12.0793C36.5878 -10.8512 36.8211 -6.11138 36.882 -4.90358C36.9428 -3.69579 37.024 -1.75722 37.3485 -0.72196C37.6731 0.313282 37.2167 3.04351 36.8312 4.50504C36.4458 5.96659 34.7621 9.68132 34.3564 10.3512C33.9507 11.0211 34.9869 5.49085 34.9903 4.29698C34.9927 3.4598 34.5624 1.64283 34.1687 -0.38703C33.7248 -2.67607 33.2828 -5.2316 32.7183 -6.87766C31.6533 -9.98343 31.3946 -15.1749 31.5772 -16.606C31.7598 -18.0371 32.5915 -20.0467 33.0986 -20.9094C33.6058 -21.7721 33.9697 -23.377 33.9811 -23.7462C33.9925 -24.1154 35.0588 -24.2067 35.1475 -23.7614Z" fill="#28839F" fill-opacity="0.2"/>
<path d="M31.4754 -11.8352C31.4803 -10.3576 31.8456 -8.23717 32.5658 -6.15651C33.2859 -4.07586 33.6764 -1.371 33.93 -0.0820122C34.1836 1.20697 34.782 3.41957 34.6603 5.0232C34.5386 6.62683 34.143 8.80898 33.8691 9.77319C33.5953 10.7374 33.4026 11.5189 33.1591 11.3565C32.9157 11.1941 32.8041 10.2096 32.3883 9.24541C31.9724 8.28121 31.4247 4.95215 31.374 3.35868C31.3233 1.7652 31.0494 -0.863525 30.7248 -2.15252C30.4003 -3.44151 30.0554 -6.76042 30.1974 -7.57237C30.3394 -8.38433 30.7147 -8.71928 30.7451 -9.64289C30.7755 -10.5665 30.7502 -11.3404 30.877 -12.1219C30.9404 -12.5127 31.1039 -13.9012 31.2117 -13.9564C31.3195 -14.0116 31.4729 -12.5989 31.4754 -11.8352Z" fill="#28839F" fill-opacity="0.2"/>
<path d="M39.6303 6.29162C38.2978 7.51385 38.0683 9.60036 37.8045 10.7168C37.5408 11.8333 37.8046 16.4209 37.9263 18.4305C38.048 20.4401 37.6017 23.7894 37.9668 25.4945C38.332 27.1996 38.5653 28.5191 39.6506 29.6153C40.7359 30.7114 40.7967 30.8839 41.4357 30.9753C42.0747 31.0666 42.45 29.0875 42.7543 28.0522C43.0586 27.017 43.6976 23.424 43.8903 22.0234C44.083 20.6228 43.941 17.9636 43.8497 17.0907C43.7584 16.2179 43.5454 14.8984 43.0991 13.5384C42.6529 12.1783 42.7239 11.2344 42.6934 10.5747C42.663 9.915 42.2167 9.31617 41.5371 8.32152C40.8576 7.32686 40.5736 6.60624 40.2997 6.3728C40.0258 6.13936 39.8737 6.06832 39.6303 6.29162Z" fill="#28839F" fill-opacity="0.2"/>
<path d="M37.389 11.7418C37.2789 13.2335 37.2368 15.1977 37.389 16.8267C37.5411 18.4557 37.6476 19.7802 37.4803 21.3636C37.3129 22.9469 37.5107 24.0583 37.5716 25.3219C37.6324 26.5855 37.9823 27.6055 37.5259 29.1888C37.0695 30.7722 35.8067 32.0054 35.0003 32.386C34.194 32.7666 33.844 32.9645 33.5702 32.1728C33.2963 31.3812 32.992 29.7369 32.5356 28.8539C32.0792 27.9709 31.9879 26.6159 32.1096 24.8651C32.2313 23.1143 32.8145 18.41 32.9363 17.456C33.058 16.5019 33.2203 14.5938 33.3825 13.5992C33.5448 12.6045 33.8897 11.5084 34.4374 10.9197C34.9851 10.331 35.5126 9.60024 36.1414 8.80857C36.7703 8.01692 36.9934 8.88978 37.2774 9.74234C37.5614 10.5949 37.5006 10.2295 37.389 11.7418Z" fill="#28839F" fill-opacity="0.2"/>
<path d="M41.5882 32.1425C40.975 33.117 38.8141 44.464 38.7584 44.9309C38.6961 45.4521 38.9257 44.9918 39.1844 44.1696C39.443 43.3475 40.1885 41.206 40.3812 40.597C40.5739 39.9881 40.8376 38.5265 40.9086 38.0596C40.9797 37.5928 41.3549 34.4159 41.4564 33.878C41.5578 33.3401 41.7175 31.9369 41.5882 32.1425Z" fill="#28839F" fill-opacity="0.2"/>
<path d="M34.6353 36.7552C35.1571 38.5236 35.5634 42.784 35.7003 44.9154C35.8372 47.0468 35.4188 44.9458 35.3199 44.2607C35.2211 43.5756 34.7114 40.7135 34.6049 40.2111C34.4984 39.7087 34.4299 37.524 34.4071 37.1053C34.3843 36.6866 34.3995 35.9559 34.6353 36.7552Z" fill="#28839F" fill-opacity="0.2"/>
<path d="M12.4999 6.0003C12.3699 5.9857 11.7929 6.51169 11.6304 6.57244C11.0792 6.7785 9.84276 7.70787 9.84276 8.27206C9.84276 8.71199 9.75579 8.6289 9.84276 9.37188C9.86915 9.59734 10.052 10.3944 9.84245 11.9998C9.63293 13.6052 9.50998 14.4865 9.84284 16.6562C10.4264 20.4605 10.8802 24.5882 11.8798 28.3381C12.6466 31.2151 13.5728 35.4594 14.3622 38.4071C15.1516 41.3548 15.4834 43.1077 15.902 44.786C16.3205 46.4642 17.0936 47.954 17.4194 49.1505C17.7452 50.3471 17.9281 51.0759 18.0393 51.6434C18.1505 52.2109 18.1889 52.6051 18.2453 52.7646C18.3016 52.9241 18.3813 52.8559 18.4207 52.7866C18.4881 52.6677 18.5664 52.2113 18.191 50.709C17.9016 49.5511 17.3515 47.3833 16.9822 45.6935C16.6129 44.0037 16.43 42.8276 16.062 40.6345C15.2672 35.8982 14.9433 31.1168 15.0221 26.3091C15.0772 22.9488 14.5227 17.2693 14.5799 14.1487C14.6143 12.2759 14.9763 8.49607 13.4999 7C13.0832 6.57773 12.6515 6.01734 12.4999 6.0003Z" fill="#28839F"/>
<path d="M39.6139 6.0003C39.7438 5.9857 40.3209 6.51169 40.4834 6.57244C41.0346 6.7785 42.271 7.70787 42.271 8.27206C42.271 8.71199 42.358 8.6289 42.271 9.37188C42.2446 9.59734 42.0618 10.3944 42.2713 11.9998C42.4808 13.6052 42.6038 14.4865 42.2709 16.6562C41.6873 20.4605 41.2336 24.5882 40.234 28.3381C39.4672 31.2151 38.541 35.4594 37.7515 38.4071C36.9621 41.3548 36.6304 43.1077 36.2118 44.786C35.7933 46.4642 35.0201 47.954 34.6943 49.1505C34.3685 50.3471 34.1856 51.0759 34.0744 51.6434C33.9632 52.2109 33.9249 52.6051 33.8685 52.7646C33.8121 52.9241 33.7324 52.8559 33.6931 52.7866C33.6256 52.6677 33.5474 52.2113 33.9228 50.709C34.2121 49.5511 34.7623 47.3833 35.1316 45.6935C35.5009 44.0037 35.6837 42.8276 36.0518 40.6345C36.8466 35.8982 37.1705 31.1168 37.0917 26.3091C37.0365 22.9488 37.5911 17.2693 37.5338 14.1487C37.4994 12.2759 37.1375 8.49607 38.6139 7C39.0306 6.57773 39.4622 6.01734 39.6139 6.0003Z" fill="#28839F"/>
</g>
<defs>
<clipPath id="clip0_4055_11802">
<rect width="61" height="48" fill="white"/>
</clipPath>
</defs>
</svg>
