<svg width="61" height="48" viewBox="0 0 61 48" fill="none" xmlns="http://www.w3.org/2000/svg">
<g clip-path="url(#clip0_4081_13335)">
<path d="M38.8058 177.233C38.6222 177.233 38.4739 177.126 38.3305 177.022C38.2116 176.936 38.0992 176.855 37.9914 176.855C37.9728 176.855 37.9546 176.857 37.936 176.862C37.8132 176.894 37.7456 176.946 37.6674 177.008C37.5567 177.094 37.4314 177.192 37.1771 177.192C37.1603 177.192 37.1427 177.192 37.1246 177.191C36.8874 177.179 36.7392 177.079 36.6084 176.991C36.4879 176.909 36.3928 176.845 36.2338 176.845C36.2243 176.845 36.2145 176.845 36.2045 176.846C36.0376 176.854 35.9414 176.91 35.8194 176.982C35.6669 177.071 35.494 177.173 35.171 177.191C35.1486 177.192 35.1266 177.193 35.1047 177.193C34.8033 177.193 34.5441 177.077 34.3153 176.976C34.1232 176.89 33.9416 176.809 33.7608 176.805L33.7459 176.805C33.5611 176.805 33.334 176.88 33.0936 176.96C32.7948 177.059 32.4561 177.171 32.1046 177.171L32.0778 177.171C31.2305 177.157 30.749 176.721 30.6467 175.874C30.5924 175.424 30.7415 174.938 30.8857 174.468C31.0525 173.924 31.2249 173.361 31.096 172.845C30.8236 171.755 30.6672 170.353 30.7067 169.356C30.7337 168.672 30.5211 167.75 30.3336 166.937C30.2434 166.545 30.1581 166.176 30.1 165.843C29.9787 165.148 30.4867 163.931 30.9349 162.856C31.1803 162.268 31.412 161.712 31.4588 161.414C31.5085 161.095 31.5116 160.021 31.4677 158.22C31.3824 157.785 31.3225 156.335 31.2902 155.553C31.2819 155.353 31.2755 155.197 31.2709 155.113C31.2667 155.035 31.2487 154.654 31.2887 154.456L31.2187 153.926C31.0793 152.864 30.9476 151.861 30.8329 151.432C30.8329 151.432 30.6511 150.756 30.5987 150.559C30.541 150.468 30.4894 150.356 30.4414 150.217C30.3429 149.932 30.24 149.537 30.1312 149.119C29.9303 148.348 29.7027 147.474 29.4146 146.916C29.1489 146.402 28.9949 145.725 28.944 144.845C28.8628 144.437 28.794 143.97 28.7395 143.454C28.4781 140.978 28.7667 137.501 29.0662 136.044C29.2168 135.311 29.4525 134.424 29.6604 133.641C29.859 132.893 30.0466 132.187 30.1202 131.764C30.196 131.33 30.2129 131.084 30.2231 130.938C30.2297 130.842 30.2341 130.778 30.2528 130.728C30.2276 130.593 30.2004 130.441 30.1714 130.278C30.1231 130.008 30.0688 129.703 30.0087 129.398C29.881 129.247 29.7953 128.945 29.68 128.54C29.5778 128.18 29.4507 127.733 29.2635 127.299C28.8274 126.288 28.2886 122.95 28.2381 121.362C28.1867 119.748 27.9153 117.16 27.593 115.88C27.3057 114.739 27.0018 111.999 27.0309 110.815C27.0055 110.558 26.9801 110.317 26.9546 110.104C26.9278 109.881 26.9096 109.597 26.9005 109.261C26.843 109.131 26.7546 108.947 26.6279 108.768C26.4621 108.535 26.3089 108.214 26.1726 107.817C25.9593 107.272 25.7103 106.225 25.6309 105.537C25.5015 104.414 24.6802 99.4649 24.2056 97.8871C23.6641 96.0865 24.0349 92.456 24.0789 92.048C24.0936 91.9119 24.1072 91.7773 24.1205 91.6452C24.159 91.2614 24.1956 90.8978 24.253 90.5741C24.0991 90.3351 23.9719 90.0836 23.8659 89.8085C23.6216 89.7412 23.3776 89.7228 23.276 89.7228H23.1137C23.0122 89.7228 22.7683 89.7412 22.5239 89.8085C22.4179 90.0836 22.2907 90.3352 22.1367 90.5741C22.1943 90.8983 22.2308 91.2624 22.2694 91.6467C22.2827 91.7784 22.2961 91.9125 22.3108 92.048C22.3549 92.456 22.7259 96.0861 22.1841 97.8871C21.7095 99.4651 20.8882 104.414 20.7588 105.537C20.6795 106.225 20.4306 107.272 20.2153 107.822C20.0808 108.215 19.9276 108.535 19.7619 108.768C19.6347 108.948 19.5465 109.131 19.4892 109.261C19.4802 109.596 19.462 109.88 19.4351 110.104C19.4097 110.317 19.3842 110.558 19.3589 110.815C19.388 111.999 19.0841 114.739 18.7968 115.88C18.4746 117.16 18.2031 119.748 18.1517 121.362C18.1011 122.95 17.5623 126.288 17.1263 127.299C16.939 127.733 16.8119 128.18 16.7097 128.54C16.5945 128.945 16.5088 129.247 16.381 129.398C16.3209 129.703 16.2665 130.008 16.2184 130.278C16.1892 130.441 16.1621 130.593 16.1369 130.728C16.1556 130.778 16.16 130.842 16.1667 130.938C16.1768 131.084 16.1938 131.33 16.2695 131.764C16.3431 132.187 16.5307 132.893 16.7294 133.641C16.9373 134.424 17.173 135.311 17.3236 136.044C17.6231 137.501 17.9117 140.978 17.6502 143.454C17.5956 143.971 17.5266 144.443 17.4452 144.857C17.3934 145.731 17.2397 146.405 16.9752 146.916C16.687 147.474 16.4594 148.348 16.2586 149.119C16.1497 149.537 16.0469 149.932 15.9483 150.217C15.9004 150.356 15.8488 150.468 15.7911 150.559C15.7388 150.755 15.5569 151.432 15.5569 151.432C15.4421 151.861 15.3104 152.865 15.171 153.926L15.1011 154.456C15.1411 154.654 15.1231 155.035 15.1188 155.113C15.1142 155.197 15.1078 155.354 15.0995 155.553C15.0672 156.336 15.0073 157.785 14.9221 158.22C14.8782 160.021 14.8812 161.096 14.931 161.414C14.9777 161.712 15.2095 162.268 15.4549 162.856C15.9031 163.93 16.4111 165.148 16.2897 165.843C16.2317 166.175 16.1464 166.545 16.0561 166.937C15.8686 167.75 15.656 168.672 15.6831 169.356C15.7226 170.353 15.5661 171.755 15.2938 172.845C15.1648 173.361 15.3373 173.924 15.5041 174.468C15.6483 174.938 15.7974 175.424 15.7431 175.874C15.6407 176.721 15.1592 177.157 14.3119 177.171L14.2852 177.171C13.9337 177.171 13.595 177.059 13.2961 176.96C13.0557 176.88 12.8286 176.805 12.6439 176.805L12.629 176.805C12.4481 176.809 12.2665 176.89 12.0744 176.976C11.8457 177.077 11.5865 177.193 11.285 177.193C11.2631 177.193 11.241 177.192 11.2187 177.191C10.8957 177.173 10.7229 177.071 10.5703 176.982C10.4485 176.91 10.3522 176.854 10.1852 176.846C10.1752 176.845 10.1655 176.845 10.1559 176.845C9.99696 176.845 9.90181 176.909 9.78135 176.991C9.65059 177.079 9.50234 177.179 9.26518 177.191C9.24698 177.192 9.22951 177.192 9.21275 177.192C8.95833 177.192 8.83294 177.094 8.72231 177.008C8.6441 176.946 8.57652 176.894 8.4538 176.862C8.43513 176.857 8.41699 176.855 8.39832 176.855C8.29054 176.855 8.17817 176.936 8.05924 177.022C7.91584 177.126 7.76753 177.233 7.58394 177.233C7.56999 177.233 7.55589 177.232 7.5418 177.231C7.31004 177.209 7.18963 177.112 7.08345 177.026C7.01847 176.974 6.96239 176.929 6.87952 176.899C6.86909 176.895 6.85753 176.893 6.84437 176.893C6.77008 176.893 6.66065 176.95 6.54483 177.01C6.37214 177.1 6.15718 177.211 5.91138 177.211C5.38339 177.211 5.11315 176.949 4.94743 176.275C4.78099 175.599 4.92731 174.5 5.46028 173.834C5.59789 173.661 5.8169 173.399 6.07053 173.095C6.71866 172.318 7.60639 171.254 7.9888 170.677C8.5223 169.871 8.73866 168.429 8.42549 167.765C8.02528 166.917 7.94122 166.125 8.17578 165.411L8.25459 165.174C8.47392 164.514 8.70078 163.832 8.79878 163.002C8.87938 162.321 8.84311 160.668 8.7752 159.415C8.71161 159.134 8.65984 158.838 8.62144 158.534C8.45765 157.236 7.67855 151.331 7.13143 148.227C6.95487 147.779 6.80678 147.216 6.67593 146.719C6.6158 146.49 6.55891 146.275 6.50476 146.09C6.19378 145.032 5.54932 141.385 5.36446 140.042C5.17057 138.632 5.31263 135.955 5.40452 135.076C5.47762 134.377 5.67317 132.983 6.16117 131.496C6.52397 130.39 6.53911 129.552 6.55022 128.94C6.55261 128.807 6.55487 128.683 6.56018 128.568C6.57027 128.352 6.62337 128.13 6.72238 127.892C6.7059 127.471 6.69315 126.915 6.6863 126.321C6.61102 125.524 6.59094 123.342 6.64643 121.926C6.68716 120.887 7.03481 119.414 7.31408 118.231C7.43249 117.729 7.53489 117.296 7.59974 116.958C7.62638 116.609 7.60319 116.139 7.53084 115.562L7.52971 115.559C6.55752 113.164 5.57117 110.657 5.1293 108.635C4.90742 107.621 4.86471 105.842 4.82338 104.123C4.80577 103.391 4.78756 102.634 4.75566 101.958C4.36675 99.0803 4.01278 95.7508 3.98388 94.699C3.96108 93.8741 4.10348 92.1385 4.32236 90.5723L4.33711 90.298C4.41785 88.8382 4.5399 86.6321 4.83574 85.3932C5.23389 83.7257 5.98853 79.2896 5.95783 77.8765C5.92667 76.4401 6.66031 73.3672 7.20192 71.7011C7.31382 71.2283 7.51276 70.4894 7.68824 69.8376C7.75562 69.5873 7.81889 69.3522 7.87137 69.154C7.63064 68.6931 7.825 63.5946 7.99683 63.0394C8.04214 62.62 8.09112 62.2308 8.14261 61.8801C8.10774 61.831 8.11584 61.7913 8.22548 61.3635C8.30329 60.9113 8.38747 60.5361 8.47346 60.2592C8.51732 60.1015 8.57294 59.9394 8.63188 59.7678C8.7639 59.3834 8.90033 58.9859 8.92645 58.5587C8.86319 57.8908 8.86438 57.1199 8.9291 56.714C8.93182 56.2296 8.93209 55.6067 8.91116 55.0478C8.83441 54.8439 8.75382 54.6428 8.66584 54.4232C8.56624 54.1747 8.45727 53.9027 8.33381 53.577C7.8946 52.4184 7.34255 50.3709 6.80865 48.3908C6.52505 47.339 6.25714 46.3455 6.01793 45.5286C5.94397 45.2763 5.87235 45.012 5.80344 44.7377C5.78604 44.9044 5.76557 45.0851 5.74218 45.2794C5.66775 45.8982 5.28057 47.1301 4.83211 48.5564C4.06544 50.995 3.11133 54.0301 3.18708 55.6397C3.28031 57.6231 2.63244 59.1924 2.2432 59.6389C2.14911 60.0561 2.07282 60.3523 2.01037 60.543C1.99164 60.6635 1.97329 60.7845 1.95489 60.9058C1.89282 61.3152 1.82858 61.7387 1.74996 62.1418C1.66159 62.7563 1.47865 63.4635 1.19173 64.2972C0.903292 65.1358 0.0534325 67.2054 -1.08189 69.8342C-1.2324 70.3215 -1.39958 70.8559 -1.57639 71.4211C-2.71702 75.0677 -4.27926 80.0619 -4.31854 81.8349C-4.32983 82.343 -4.04524 83.1206 -3.57519 84.3406C-3.05365 85.6945 -3.14389 88.3533 -4.33847 90.614C-4.84666 91.5759 -5.29677 93.0464 -5.732 94.4685C-6.1548 95.8498 -6.55408 97.1544 -6.94845 97.7412C-7.18328 98.0906 -7.42641 98.2678 -7.67093 98.2678C-7.92098 98.2678 -8.10902 98.0863 -8.23613 97.9C-8.43381 98.9118 -8.89196 100.726 -9.65392 100.864C-9.70848 100.874 -9.76216 100.879 -9.81347 100.879C-10.1886 100.879 -10.4618 100.62 -10.5992 100.151C-10.8364 100.96 -11.271 102.044 -11.8956 102.044L-11.9158 102.044C-12.7951 102.012 -12.821 100.857 -12.781 99.5553C-12.8506 99.5941 -12.9295 99.6143 -13.0156 99.6143C-13.5914 99.6143 -14.2834 98.7492 -14.4127 97.8676C-14.7325 95.6859 -14.5206 93.0722 -14.3659 91.1638C-14.2898 90.226 -14.2115 89.2592 -14.2759 88.9858C-14.3945 89.0954 -14.5456 89.2913 -14.7184 89.5151C-15.0429 89.9354 -15.4466 90.4584 -15.9202 90.7843C-16.3044 91.0489 -16.7624 91.1886 -17.2446 91.1886C-18.0014 91.1886 -18.6675 90.8467 -18.8284 90.3757C-18.8892 90.1977 -18.924 89.847 -18.4743 89.4988C-17.3022 88.5911 -15.0557 85.3122 -14.2571 83.3438C-13.7246 82.0312 -12.7437 81.5961 -11.9556 81.2465C-11.4851 81.0378 -11.0787 80.8576 -10.8785 80.5411C-10.4852 79.9198 -9.91931 77.2541 -9.19637 72.6181C-9.09304 71.4815 -9.00845 70.7415 -8.93118 70.2978C-8.88533 70.0349 -8.83762 69.741 -8.78892 69.4292C-8.75444 66.4004 -8.69942 63.0309 -8.48446 61.3532C-8.07142 58.1287 -6.71961 54.2108 -5.53254 52.7978C-5.36296 52.596 -5.2116 52.4124 -5.07632 52.2483C-4.66495 51.7495 -4.41058 51.4411 -4.21855 51.3102C-4.04838 51.0822 -3.90293 50.6543 -3.78598 50.0374C-3.95144 47.5668 -3.68431 44.9066 -3.07074 42.9142C-2.98382 42.0873 -2.91386 41.4362 -2.87067 41.1935C-2.72901 40.3974 -2.8809 39.6295 -3.0029 39.0123C-3.06071 38.7199 -3.11068 38.4673 -3.11619 38.2676C-3.12981 37.7781 -3.21719 37.1318 -3.34955 36.1536C-3.41167 35.694 -3.48344 35.1637 -3.56145 34.5459C-3.83096 32.4111 -3.43281 29.8499 -2.49636 27.6947C-1.39379 25.1571 -0.156151 23.7955 1.77547 22.9949C2.2713 22.7895 3.18036 22.682 3.82205 22.682C3.86337 22.682 3.90404 22.6824 3.94405 22.6833C5.50323 21.8615 6.89915 21.5694 7.62396 21.5694C7.73658 21.5694 7.83832 21.5762 7.92669 21.5896C7.96841 21.5875 8.01241 21.5865 8.05858 21.5865C8.14935 21.5865 8.24876 21.5903 8.34564 21.5955C8.37607 21.2784 8.78931 21.0433 9.28262 20.7964C9.96829 20.4534 10.6835 20.1397 11.4083 19.864C12.2461 19.5453 13.0884 19.2821 14.0953 18.985C14.2184 18.9487 14.3425 18.9142 14.4666 18.8798C15.1926 18.6782 15.8782 18.4878 16.3795 17.941C16.5228 17.7847 16.6432 17.6117 16.7706 17.4285C16.8311 17.3415 16.8917 17.2546 16.9545 17.1698C17.1485 16.9081 17.3491 16.6375 17.4575 16.3329C17.509 16.1881 17.4963 16.024 17.4827 15.8502C17.477 15.7756 17.4712 15.7012 17.4702 15.6277C17.4668 15.3931 17.467 15.1454 17.4708 14.8702C17.478 14.351 17.494 13.7385 17.5574 13.1273C17.5449 12.955 17.5321 12.8674 17.5235 12.824C17.5074 12.7438 17.4942 12.6624 17.4805 12.5785C17.4179 12.1945 17.347 11.7592 16.9353 11.1452C16.5836 10.6206 16.4863 9.4024 16.4666 8.47272C16.4628 8.29307 16.3163 8.14685 16.1401 8.14685C16.1171 8.14685 16.0939 8.14938 16.071 8.15437C15.9662 8.17724 15.8565 8.18934 15.7537 8.18934C15.4768 8.18934 15.248 8.10529 15.0921 7.94619C14.9313 7.78215 14.8526 7.54638 14.8583 7.24537C14.8784 6.19356 14.6645 5.5833 14.4759 5.04486C14.3807 4.77337 14.2909 4.51692 14.2368 4.22828C14.1407 3.71544 14.0823 3.02586 14.3492 2.65312C14.4542 2.50657 14.5982 2.41927 14.7774 2.39367C14.8212 2.38735 14.8664 2.38423 14.9116 2.38423C15.0601 2.38423 15.2154 2.41814 15.3732 2.48516C15.3948 2.49427 15.417 2.49893 15.4394 2.49893C15.4873 2.49893 15.5349 2.47738 15.5697 2.43988C15.6053 2.40145 15.6228 2.35145 15.6188 2.29926C15.5033 0.760325 15.3978 -3.02858 16.9106 -4.96957C18.7094 -7.2776 21.4761 -7.74516 22.5822 -7.83912C22.7251 -7.85123 22.8977 -7.86426 23.136 -7.86426C23.3148 -7.86426 23.5086 -7.85655 23.7122 -7.84138C24.8385 -7.75768 27.6551 -7.31018 29.4793 -4.96957C30.9921 -3.02831 30.8865 0.760393 30.7709 2.29926C30.767 2.35145 30.7845 2.40145 30.8202 2.43995C30.855 2.47745 30.9024 2.49893 30.9505 2.49893C30.9728 2.49893 30.995 2.49427 31.0166 2.48516C31.1744 2.41814 31.3297 2.38423 31.4782 2.38423C31.5234 2.38423 31.5686 2.38735 31.6125 2.39367C31.7916 2.41927 31.9356 2.50657 32.0406 2.65312C32.3075 3.02586 32.249 3.71544 32.1529 4.22828C32.0989 4.51692 32.009 4.77337 31.9139 5.04486C31.7252 5.5833 31.5114 6.19355 31.5315 7.24537C31.5372 7.54637 31.4585 7.78215 31.2977 7.94625C31.1418 8.1053 30.913 8.18935 30.6362 8.18935C30.5333 8.18935 30.4235 8.17724 30.3187 8.15438C30.2959 8.1494 30.2727 8.14686 30.2497 8.14686C30.0736 8.14686 29.927 8.29307 29.9233 8.47281C29.9035 9.40261 29.806 10.621 29.4545 11.1452C29.0428 11.7592 28.9719 12.1945 28.9093 12.5785C28.8957 12.6624 28.8824 12.7438 28.8664 12.824C28.8577 12.8674 28.8449 12.955 28.8324 13.1273C28.9171 13.9421 28.925 14.7439 28.9216 15.4213C28.9211 15.5167 28.9159 15.6136 28.9107 15.7106C28.9034 15.848 28.8965 15.9778 28.9025 16.105C28.9177 16.4249 29.1492 16.7601 29.3534 17.0558C29.3825 17.098 29.4109 17.1391 29.4379 17.1791C29.7 17.5672 29.9711 17.9685 30.3392 18.2565C30.6396 18.4916 30.9978 18.5984 31.3769 18.7114L31.7073 18.8115C33.5084 19.3603 35.3708 19.9277 37.1072 20.7965L37.2133 20.8487C37.4365 20.9574 37.6895 21.0807 37.8652 21.2646C37.9588 21.3625 38.0183 21.4795 38.0372 21.5969C38.2097 21.589 38.3691 21.5852 38.521 21.5852C39.1146 21.5852 39.624 21.645 40.1239 21.7735C40.8959 21.9719 41.6768 22.2779 42.4457 22.6833C42.4857 22.6824 42.5264 22.682 42.5677 22.682C43.2094 22.682 44.1185 22.7895 44.6142 22.9949C46.5459 23.7954 47.7836 25.1571 48.8862 27.6947C49.8226 29.8498 50.2207 32.4109 49.9513 34.5459C49.8732 35.1639 49.8014 35.6945 49.7393 36.1542C49.607 37.1321 49.5196 37.7781 49.506 38.2676C49.5004 38.4673 49.4505 38.7199 49.3927 39.0123C49.2707 39.6294 49.1188 40.3974 49.2604 41.1935C49.3037 41.4361 49.3736 42.0869 49.4604 42.9134C50.0815 44.9285 50.347 47.6164 50.1715 50.1112C50.2846 50.6931 50.4286 51.0944 50.6 51.3049C50.7934 51.4326 51.0506 51.7444 51.4674 52.2499C51.6023 52.4135 51.7533 52.5965 51.9224 52.7978C53.1094 54.2109 54.4612 58.1288 54.8743 61.3531C55.0893 63.031 55.1443 66.4003 55.1788 69.4292C55.2274 69.741 55.2751 70.0349 55.3209 70.2977C55.3973 70.7362 55.4844 71.4981 55.5872 72.6267C56.3091 77.2541 56.8751 79.9198 57.2683 80.5411C57.4686 80.8576 57.8749 81.0378 58.3454 81.2465C59.1335 81.5961 60.1144 82.0311 60.6469 83.3437C61.4454 85.3122 63.692 88.591 64.8641 89.4988C65.3139 89.847 65.279 90.1977 65.2182 90.3757C65.0574 90.8467 64.3913 91.1886 63.6344 91.1886C63.1522 91.1886 62.6942 91.0488 62.3099 90.7843C61.8365 90.4584 61.4327 89.9354 61.1083 89.5153C60.9356 89.2914 60.7843 89.0955 60.6657 88.9858C60.6014 89.2593 60.6797 90.2259 60.7557 91.1633C60.9104 93.0719 61.1223 95.6858 60.8025 97.8675C60.6733 98.7491 59.9812 99.6142 59.4053 99.6142C59.3198 99.6142 59.2412 99.5942 59.1719 99.5558C59.2106 100.857 59.1834 102.012 58.3056 102.044L58.2854 102.044C57.6608 102.044 57.2262 100.959 56.989 100.15C56.8516 100.62 56.5784 100.879 56.2033 100.879C56.152 100.879 56.0983 100.874 56.0437 100.864C55.282 100.726 54.8237 98.9118 54.626 97.9C54.4988 98.0862 54.3107 98.2677 54.0607 98.2677C53.8162 98.2677 53.5731 98.0905 53.3383 97.7411C52.9439 97.1543 52.5446 95.8497 52.1218 94.4685C51.6865 93.0463 51.2365 91.5758 50.7282 90.6139C49.5337 88.353 49.4434 85.6943 49.965 84.3405C50.4351 83.1204 50.7197 82.3428 50.7084 81.8348C50.6692 80.062 49.1072 75.0685 47.9666 71.4224C47.7897 70.8568 47.6223 70.3219 47.4717 69.8342C46.3364 67.2052 45.4865 65.1355 45.1981 64.2971C44.9111 63.4632 44.7282 62.756 44.6387 62.1349C44.5613 61.7387 44.4971 61.3155 44.435 60.9063C44.4166 60.7849 44.3982 60.6636 44.3795 60.543C44.317 60.3524 44.2407 60.0562 44.1466 59.6388C43.7574 59.1924 43.1095 57.623 43.2028 55.6396C43.2785 54.0299 42.3243 50.9948 41.5576 48.556C41.1092 47.1298 40.722 45.8981 40.6476 45.2794C40.6242 45.0851 40.6038 44.9043 40.5863 44.7377C40.5175 45.0119 40.4459 45.2762 40.3719 45.5286C40.1326 46.3454 39.8648 47.339 39.5811 48.3909C39.0472 50.3709 38.4952 52.4183 38.056 53.5769C37.9326 53.9024 37.8237 54.1743 37.7242 54.4228C37.6361 54.6424 37.5555 54.8437 37.4787 55.0478C37.4577 55.6079 37.4579 56.2302 37.4607 56.7139C37.5254 57.1198 37.5266 57.8907 37.4634 58.5587C37.4896 58.9858 37.626 59.3832 37.7579 59.7677C37.8168 59.9392 37.8724 60.1013 37.9174 60.2628C38.0022 60.5357 38.0865 60.9109 38.1666 61.374C38.2715 61.7824 38.2816 61.8289 38.2498 61.8764C38.3245 62.2579 38.5491 63.1694 38.663 63.6313C38.6979 63.7732 38.724 63.8793 38.7351 63.9261C38.8285 64.3227 38.8155 68.6878 38.5206 69.162C38.5728 69.3594 38.6356 69.5926 38.7024 69.8408C38.8776 70.4915 39.0761 71.229 39.1907 71.7117C39.7294 73.3669 40.4631 76.4398 40.432 77.8764C40.4012 79.2895 41.1559 83.7256 41.5541 85.3932C41.8501 86.6329 41.9722 88.8402 42.0528 90.3009L42.0686 90.5836C42.2827 92.1129 42.4283 93.8869 42.4059 94.6989C42.377 95.7508 42.0231 99.0805 41.6331 101.97C41.6022 102.634 41.584 103.391 41.5664 104.123C41.5251 105.842 41.4824 107.621 41.2604 108.635C40.8187 110.657 39.8323 113.164 38.8599 115.559L38.8592 115.559C38.7866 116.138 38.7634 116.608 38.79 116.958C38.8549 117.295 38.9572 117.729 39.0756 118.23C39.3549 119.414 39.7027 120.887 39.7433 121.926C39.7989 123.342 39.7788 125.524 39.7028 126.332C39.6967 126.913 39.6839 127.469 39.6674 127.892C39.7664 128.13 39.8195 128.352 39.8296 128.568C39.8349 128.683 39.8372 128.807 39.8396 128.94C39.8507 129.552 39.8659 130.39 40.2286 131.496C40.7167 132.983 40.9122 134.377 40.9853 135.076C41.0772 135.955 41.2192 138.632 41.0253 140.042C40.8406 141.384 40.1961 145.032 39.885 146.09C39.831 146.274 39.7742 146.49 39.7141 146.718C39.5832 147.215 39.435 147.778 39.2584 148.227C38.7113 151.331 37.9322 157.236 37.7684 158.534C37.73 158.837 37.6783 159.134 37.6146 159.415C37.5466 160.667 37.5104 162.32 37.591 163.002C37.689 163.831 37.9158 164.513 38.135 165.173L38.214 165.411C38.4485 166.125 38.3645 166.917 37.9643 167.765C37.6512 168.429 37.8675 169.871 38.401 170.677C38.7836 171.255 39.6716 172.319 40.3201 173.096C40.5733 173.399 40.7921 173.662 40.9295 173.834C41.4625 174.5 41.6088 175.599 41.4423 176.275C41.2767 176.949 41.0064 177.211 40.4784 177.211C40.2326 177.211 40.0177 177.1 39.8449 177.01C39.7291 176.95 39.6197 176.893 39.5454 176.893C39.5322 176.893 39.5207 176.895 39.5102 176.899C39.4274 176.929 39.3713 176.974 39.3063 177.026C39.2001 177.112 39.0798 177.209 38.8479 177.231C38.8338 177.232 38.8198 177.233 38.8058 177.233Z" fill="white" stroke="#28839F" stroke-width="0.7"/>
<path d="M20.672 10.4595C18.5268 20.2487 15.6353 17.5309 8.86438 20.9185C7.91093 21.3956 7.69794 21.6493 8.4688 22.2177C9.23966 22.7861 11.5725 24.3795 12.2825 26.6124C12.9925 28.8453 13.2562 32.6616 14.1894 35.0974C15.1225 37.5333 17.1714 40.8218 18.1451 42.5269C19.1188 44.232 20.6403 47.7844 20.904 48.9414C21.1677 50.0985 22.0603 51.4382 22.1211 50.0376C22.182 48.6369 21.6749 43.1765 21.5531 39.9286C21.4314 36.6808 21.6343 30.9361 21.6749 29.0483C21.7154 27.1605 21.5937 24.5216 21.756 23.2225C21.9183 21.9234 21.614 14.8593 21.5531 13.4383C21.4923 12.0174 21.7966 10.7589 21.6343 10.0687C21.472 9.37853 20.8996 9.4206 20.672 10.4595Z" fill="#28839F" fill-opacity="0.2"/>
<path d="M18.8473 12.1192C18.5415 13.2086 17.9104 16.2348 17.2815 16.9453C17.1655 17.0763 16.5593 17.5578 16.6831 17.5644C17.9871 17.634 19.2261 14.8529 19.2328 14.8392C19.9428 13.3879 19.9529 12.5251 19.8616 11.3884C19.7703 10.2516 19.3545 10.3125 18.8473 12.1192Z" fill="#28839F" fill-opacity="0.2"/>
<path d="M1.82764 23.1215C-0.180642 23.9537 -1.35722 25.4153 -2.37151 27.7497C-3.3858 30.0841 -3.66981 32.6011 -3.42638 34.5295C-3.18294 36.458 -3.00037 37.5338 -2.98009 38.2646C-2.9598 38.9954 -2.47294 38.0819 -1.35722 37.0466C-0.241499 36.0114 2.39566 33.6161 2.98394 32.1749C3.57223 30.7336 3.24765 29.2518 4.36338 28.2774C5.47909 27.3031 6.63538 26.0039 7.77139 25.5168C8.90739 25.0296 8.50167 24.2988 7.52795 24.177C6.55424 24.0552 5.15451 23.02 4.52566 22.8779C3.8968 22.7358 2.45767 22.8604 1.82764 23.1215Z" fill="#28839F" fill-opacity="0.2"/>
<path d="M10.1754 25.1406C8.95829 25.3537 6.87899 26.3585 6.2907 27.2314C5.72926 28.0644 4.97211 27.9723 4.8504 28.4392C4.72869 28.9061 5.45898 28.8655 5.90527 29.6977C6.35156 30.53 6.57469 31.89 7.24413 32.702C9.52264 35.4656 10.4949 35.2445 13.2082 36.5182C13.8255 36.808 14.689 37.1272 14.7499 36.7212C14.8107 36.3152 14.5774 35.8179 14.0804 34.9349C13.5834 34.0519 13.2893 31.4841 13.0662 30.3067C12.843 29.1294 12.4677 27.1908 12.0519 26.2672C11.636 25.3436 10.5821 25.0694 10.1754 25.1406Z" fill="#28839F" fill-opacity="0.2"/>
<path d="M4.05895 30.3581C4.32157 30.8498 4.39366 30.792 4.92616 31.1346C5.45867 31.4771 5.8162 31.9262 5.96074 32.0937C6.10527 32.2612 6.36391 31.8349 6.15852 31.2868C5.95313 30.7387 5.61842 30.1754 5.32174 29.871C5.02505 29.5665 4.90334 29.1935 4.62188 29.125C4.34041 29.0564 3.82312 29.9166 4.05895 30.3581Z" fill="#28839F" fill-opacity="0.2"/>
<path d="M8.11622 34.5088C7.59723 34.0127 6.8788 33.1387 6.08765 32.7631C5.2965 32.3876 4.23149 31.0682 3.91707 31.4234C3.60263 31.7786 3.71421 32.824 4.03878 33.6157C4.36336 34.4073 4.71836 35.5035 4.97193 36.3967C5.2255 37.2898 5.94565 38.051 6.71651 38.2845C7.48737 38.5179 9.33337 38.8325 10.5505 38.7108C11.7677 38.589 12.8428 38.0003 13.3094 37.6958C14.4281 36.9657 10.3882 36.6808 8.11622 34.5088Z" fill="#28839F" fill-opacity="0.2"/>
<path d="M14.5267 37.574C13.5924 37.8233 12.9647 38.6296 10.8956 39.0761C9.54891 39.3668 6.73699 39.0355 6.10813 38.8325C5.47926 38.6296 5.05326 39.4009 5.13441 40.0099C5.21554 40.6189 5.45899 43.136 6.1487 45.4906C6.83841 47.8453 7.79185 51.7631 8.46128 53.5291C9.13071 55.2951 9.37415 55.4778 10.003 58.9286C10.6319 62.3795 12.4779 64.3079 12.9647 65.5867C13.4516 66.8656 15.5816 65.7897 15.3585 63.8004C15.1353 61.8111 15.1962 60.3496 16.251 57.7107C17.3059 55.0718 18.4825 52.5547 19.3345 51.1744C20.1865 49.7941 20.4603 48.3528 20.1256 47.1146C19.7909 45.8763 18.9592 44.0291 18.3607 42.9939C17.7623 41.9586 16.3322 39.7968 15.8656 38.9138C15.399 38.0307 15.3077 37.8683 15.1962 37.7161C15.0846 37.5639 14.831 37.4928 14.5267 37.574Z" fill="#28839F" fill-opacity="0.2"/>
<path d="M2.92299 33.8597C2.21115 34.9875 0.559705 37.9855 -0.018447 39.645C-0.596586 41.3044 -0.728451 43.1567 -0.789307 45.349C-0.850164 47.5413 -1.44859 52.8394 -1.17474 54.0573C-0.900883 55.2752 -0.495163 56.1075 0.387274 55.5594C1.26971 55.0114 2.57814 51.936 3.49099 49.8351C4.40386 47.7341 5.05996 44.0946 4.911 42.6289C4.66758 40.2336 4.68787 39.6856 4.62701 37.412C4.57226 35.3671 3.28815 33.2812 2.92299 33.8597Z" fill="#28839F" fill-opacity="0.2"/>
<path d="M-0.11849 36.9139C-0.856827 37.3105 -2.1358 37.8417 -2.73664 41.2179C-2.83553 41.7736 -3.08704 44.6078 -3.23918 45.5517C-3.39132 46.4956 -3.37514 49.1782 -3.31017 49.9668C-3.23744 50.8498 -3.34014 52.1794 -3.20321 52.8797C-3.06629 53.58 -2.44249 52.4991 -2.29035 50.9614C-2.13821 49.4238 -1.63106 45.9882 -1.30649 43.06C-1.06781 40.9068 -0.940068 39.6549 0.393731 37.6452C1.12058 36.5501 0.880488 36.3773 -0.11849 36.9139Z" fill="#28839F" fill-opacity="0.2"/>
<path d="M25.2389 10.4595C27.3841 20.2487 30.2755 17.5309 37.0465 20.9185C37.9999 21.3956 38.2129 21.6493 37.4421 22.2177C36.6712 22.7861 34.3383 24.3795 33.6283 26.6124C32.9183 28.8453 32.6546 32.6616 31.7215 35.0974C30.7883 37.5333 28.7395 40.8218 27.7657 42.5269C26.792 44.232 25.2706 47.7844 25.0069 48.9414C24.7431 50.0985 23.8506 51.4382 23.7897 50.0376C23.7289 48.6369 24.236 43.1765 24.3577 39.9286C24.4794 36.6808 24.2766 30.9361 24.236 29.0483C24.1954 27.1605 24.3171 24.5216 24.1549 23.2225C23.9926 21.9234 24.2969 14.8593 24.3577 13.4383C24.4186 12.0174 24.1143 10.7589 24.2766 10.0687C24.4389 9.37853 25.0112 9.4206 25.2389 10.4595Z" fill="#28839F" fill-opacity="0.2"/>
<path d="M24.277 10.0681C24.4395 9.3784 25.0114 9.42106 25.239 10.4597C27.3842 20.2484 30.2757 17.531 37.0466 20.9187C38 21.3957 38.2129 21.6491 37.4421 22.2175C36.6712 22.7859 34.3387 24.3793 33.6286 26.612C33.6254 26.622 33.622 26.6322 33.6188 26.6423L24.2438 29.3513C24.2412 29.2417 24.238 29.1406 24.236 29.0485C24.1955 27.1608 24.3173 24.5215 24.155 23.2224C23.9927 21.9232 24.2972 14.8592 24.3581 13.4382C24.419 12.0173 24.1148 10.7582 24.277 10.0681Z" fill="#28839F"/>
<path d="M21.5081 10.0681C21.3457 9.3784 20.7738 9.42106 20.5462 10.4597C18.401 20.2484 15.5094 17.531 8.73857 20.9187C7.7852 21.3957 7.57223 21.6491 8.34307 22.2175C9.11399 22.7859 11.4465 24.3793 12.1565 26.612C12.1597 26.622 12.1631 26.6322 12.1663 26.6423L21.5413 29.3513C21.544 29.2417 21.5471 29.1406 21.5491 29.0485C21.5897 27.1608 21.4679 24.5215 21.6302 23.2224C21.7925 21.9232 21.4879 14.8592 21.4271 13.4382C21.3662 12.0173 21.6704 10.7582 21.5081 10.0681Z" fill="#28839F"/>
<path d="M27.5427 12.1192C27.8485 13.2086 28.4796 16.2348 29.1085 16.9453C29.2245 17.0763 29.8308 17.5578 29.7069 17.5644C28.403 17.634 27.1639 14.8529 27.1573 14.8392C26.4473 13.3879 26.4371 12.5251 26.5284 11.3884C26.6197 10.2516 27.0356 10.3125 27.5427 12.1192Z" fill="#28839F" fill-opacity="0.2"/>
<path d="M44.5621 23.1215C46.5704 23.9537 47.747 25.4153 48.7613 27.7497C49.7756 30.0841 50.0596 32.6011 49.8162 34.5295C49.5727 36.458 49.3902 37.5338 49.3699 38.2646C49.3496 38.9954 48.8627 38.0819 47.747 37.0466C46.6313 36.0114 43.9941 33.6161 43.4059 32.1749C42.8176 30.7336 43.1421 29.2518 42.0264 28.2774C40.9107 27.3031 39.7544 26.0039 38.6184 25.5168C37.4824 25.0296 37.8881 24.2988 38.8618 24.177C39.8355 24.0552 41.2353 23.02 41.8641 22.8779C42.493 22.7358 43.9321 22.8604 44.5621 23.1215Z" fill="#28839F" fill-opacity="0.2"/>
<path d="M36.2148 25.1406C37.4319 25.3537 39.5112 26.3585 40.0995 27.2314C40.661 28.0644 41.4181 27.9723 41.5398 28.4392C41.6615 28.9061 40.9312 28.8655 40.4849 29.6977C40.0387 30.53 39.8155 31.89 39.1461 32.702C36.8676 35.4656 35.8953 35.2445 33.1821 36.5182C32.5647 36.808 31.7012 37.1272 31.6403 36.7212C31.5795 36.3152 31.8128 35.8179 32.3098 34.9349C32.8068 34.0519 33.1009 31.4841 33.3241 30.3067C33.5472 29.1294 33.9225 27.1908 34.3384 26.2672C34.7542 25.3436 35.8081 25.0694 36.2148 25.1406Z" fill="#28839F" fill-opacity="0.2"/>
<path d="M42.3306 30.3581C42.068 30.8498 41.9959 30.792 41.4634 31.1346C40.9309 31.4771 40.5734 31.9262 40.4289 32.0937C40.2843 32.2612 40.0257 31.8349 40.2311 31.2868C40.4365 30.7387 40.7712 30.1754 41.0678 29.871C41.3645 29.5665 41.4863 29.1935 41.7677 29.125C42.0492 29.0564 42.5665 29.9166 42.3306 30.3581Z" fill="#28839F" fill-opacity="0.2"/>
<path d="M38.2738 34.5088C38.7928 34.0127 39.5112 33.1387 40.3023 32.7631C41.0935 32.3876 42.1585 31.0682 42.4729 31.4234C42.7874 31.7786 42.6758 32.824 42.3512 33.6157C42.0266 34.4073 41.6716 35.5035 41.4181 36.3967C41.1645 37.2898 40.4444 38.051 39.6735 38.2845C38.9026 38.5179 37.0566 38.8325 35.8395 38.7108C34.6223 38.589 33.5472 38.0003 33.0806 37.6958C31.9618 36.9657 36.0018 36.6808 38.2738 34.5088Z" fill="#28839F" fill-opacity="0.2"/>
<path d="M31.8636 37.574C32.7979 37.8233 33.4256 38.6296 35.4947 39.0761C36.8414 39.3668 39.6533 39.0355 40.2822 38.8325C40.911 38.6296 41.337 39.4009 41.2559 40.0099C41.1747 40.6189 40.9313 43.136 40.2416 45.4906C39.5519 47.8453 38.5985 51.7631 37.929 53.5291C37.2596 55.2951 37.0162 55.4778 36.3873 58.9286C35.7584 62.3795 33.9124 64.3079 33.4256 65.5867C32.9387 66.8656 30.8087 65.7897 31.0319 63.8004C31.255 61.8111 31.1941 60.3496 30.1393 57.7107C29.0844 55.0718 27.9078 52.5547 27.0558 51.1744C26.2038 49.7941 25.93 48.3528 26.2647 47.1146C26.5994 45.8763 27.4311 44.0291 28.0296 42.9939C28.628 41.9586 30.0581 39.7968 30.5247 38.9138C30.9913 38.0307 31.0826 37.8683 31.1941 37.7161C31.3057 37.5639 31.5593 37.4928 31.8636 37.574Z" fill="#28839F" fill-opacity="0.2"/>
<path d="M43.4667 33.8597C44.1785 34.9875 45.8299 37.9855 46.4081 39.645C46.9862 41.3044 47.1181 43.1567 47.179 45.349C47.2398 47.5413 47.8382 52.8394 47.5644 54.0573C47.2905 55.2752 46.8848 56.1075 46.0024 55.5594C45.1199 55.0114 43.8115 51.936 42.8987 49.8351C41.9858 47.7341 41.3297 44.0946 41.4786 42.6289C41.7221 40.2336 41.7018 39.6856 41.7626 37.412C41.8174 35.3671 43.1015 33.2812 43.4667 33.8597Z" fill="#28839F" fill-opacity="0.2"/>
<path d="M46.5085 36.9139C47.2468 37.3105 48.5258 37.8417 49.1266 41.2179C49.2255 41.7736 49.477 44.6078 49.6292 45.5517C49.7813 46.4956 49.7651 49.1782 49.7002 49.9668C49.6274 50.8498 49.7301 52.1794 49.5932 52.8797C49.4563 53.58 48.8325 52.4991 48.6803 50.9614C48.5282 49.4238 48.0211 45.9882 47.6965 43.06C47.4578 40.9068 47.3301 39.6549 45.9963 37.6452C45.2694 36.5501 45.5095 36.3773 46.5085 36.9139Z" fill="#28839F" fill-opacity="0.2"/>
</g>
<defs>
<clipPath id="clip0_4081_13335">
<rect width="61" height="48" fill="white"/>
</clipPath>
</defs>
</svg>
