<svg width="61" height="48" viewBox="0 0 61 48" fill="none" xmlns="http://www.w3.org/2000/svg">
<g clip-path="url(#clip0_4055_6474)">
<path d="M39.8058 171.233C39.6222 171.233 39.4739 171.126 39.3305 171.022C39.2116 170.936 39.0992 170.855 38.9914 170.855C38.9728 170.855 38.9546 170.857 38.936 170.862C38.8132 170.894 38.7456 170.946 38.6674 171.008C38.5567 171.094 38.4314 171.192 38.1771 171.192C38.1603 171.192 38.1427 171.192 38.1246 171.191C37.8874 171.179 37.7392 171.079 37.6084 170.991C37.4879 170.909 37.3928 170.845 37.2338 170.845C37.2243 170.845 37.2145 170.845 37.2045 170.846C37.0376 170.854 36.9414 170.91 36.8194 170.982C36.6669 171.071 36.494 171.173 36.171 171.191C36.1486 171.192 36.1266 171.193 36.1047 171.193C35.8033 171.193 35.5441 171.077 35.3153 170.976C35.1232 170.89 34.9416 170.809 34.7608 170.805L34.7459 170.805C34.5611 170.805 34.334 170.88 34.0936 170.96C33.7948 171.059 33.4561 171.171 33.1046 171.171L33.0778 171.171C32.2305 171.157 31.749 170.721 31.6467 169.874C31.5924 169.424 31.7415 168.938 31.8857 168.468C32.0525 167.924 32.2249 167.361 32.096 166.845C31.8236 165.755 31.6672 164.353 31.7067 163.356C31.7337 162.672 31.5211 161.75 31.3336 160.937C31.2434 160.545 31.1581 160.176 31.1 159.843C30.9787 159.148 31.4867 157.931 31.9349 156.856C32.1803 156.268 32.412 155.712 32.4588 155.414C32.5085 155.095 32.5116 154.021 32.4677 152.22C32.3824 151.785 32.3225 150.335 32.2902 149.553C32.2819 149.353 32.2755 149.197 32.2709 149.113C32.2667 149.035 32.2487 148.654 32.2887 148.456L32.2187 147.926C32.0793 146.864 31.9476 145.861 31.8329 145.432C31.8329 145.432 31.6511 144.756 31.5987 144.559C31.541 144.468 31.4894 144.356 31.4414 144.217C31.3429 143.932 31.24 143.537 31.1312 143.119C30.9303 142.348 30.7027 141.474 30.4146 140.916C30.1489 140.402 29.9949 139.725 29.944 138.845C29.8628 138.437 29.794 137.97 29.7395 137.454C29.4781 134.978 29.7667 131.501 30.0662 130.044C30.2168 129.311 30.4525 128.424 30.6604 127.641C30.859 126.893 31.0466 126.187 31.1202 125.764C31.196 125.33 31.2129 125.084 31.2231 124.938C31.2297 124.842 31.2341 124.778 31.2528 124.728C31.2276 124.593 31.2004 124.441 31.1714 124.278C31.1231 124.008 31.0688 123.703 31.0087 123.398C30.881 123.247 30.7953 122.945 30.68 122.54C30.5778 122.18 30.4507 121.733 30.2635 121.299C29.8274 120.288 29.2886 116.95 29.2381 115.362C29.1867 113.748 28.9153 111.16 28.593 109.88C28.3057 108.739 28.0018 105.999 28.0309 104.815C28.0055 104.558 27.9801 104.317 27.9546 104.104C27.9278 103.881 27.9096 103.597 27.9005 103.261C27.843 103.131 27.7546 102.947 27.6279 102.768C27.4621 102.535 27.3089 102.214 27.1726 101.817C26.9593 101.272 26.7103 100.225 26.6309 99.5365C26.5015 98.4142 25.6802 93.4649 25.2056 91.8871C24.6641 90.0865 25.0349 86.456 25.0789 86.048C25.0936 85.9119 25.1072 85.7773 25.1205 85.6452C25.159 85.2614 25.1956 84.8978 25.253 84.5741C25.0991 84.3351 24.9719 84.0836 24.8659 83.8085C24.6216 83.7412 24.3776 83.7228 24.276 83.7228H24.1137C24.0122 83.7228 23.7683 83.7412 23.5239 83.8085C23.4179 84.0836 23.2907 84.3352 23.1367 84.5741C23.1943 84.8983 23.2308 85.2624 23.2694 85.6467C23.2827 85.7784 23.2961 85.9125 23.3108 86.048C23.3549 86.456 23.7259 90.0861 23.1841 91.8871C22.7095 93.4651 21.8882 98.4143 21.7588 99.5366C21.6795 100.225 21.4306 101.272 21.2153 101.822C21.0808 102.215 20.9276 102.535 20.7619 102.768C20.6347 102.948 20.5465 103.131 20.4892 103.261C20.4802 103.596 20.462 103.88 20.4351 104.104C20.4097 104.317 20.3842 104.558 20.3589 104.815C20.388 105.999 20.0841 108.739 19.7968 109.88C19.4746 111.16 19.2031 113.748 19.1517 115.362C19.1011 116.95 18.5623 120.288 18.1263 121.299C17.939 121.733 17.8119 122.18 17.7097 122.54C17.5945 122.945 17.5088 123.247 17.381 123.398C17.3209 123.703 17.2665 124.008 17.2184 124.278C17.1892 124.441 17.1621 124.593 17.1369 124.728C17.1556 124.778 17.16 124.842 17.1667 124.938C17.1768 125.084 17.1938 125.33 17.2695 125.764C17.3431 126.187 17.5307 126.893 17.7294 127.641C17.9373 128.424 18.173 129.311 18.3236 130.044C18.6231 131.501 18.9117 134.978 18.6502 137.454C18.5956 137.971 18.5266 138.443 18.4452 138.857C18.3934 139.731 18.2397 140.405 17.9752 140.916C17.687 141.474 17.4594 142.348 17.2586 143.119C17.1497 143.537 17.0469 143.932 16.9483 144.217C16.9004 144.356 16.8488 144.468 16.7911 144.559C16.7388 144.755 16.5569 145.432 16.5569 145.432C16.4421 145.861 16.3104 146.865 16.171 147.926L16.1011 148.456C16.1411 148.654 16.1231 149.035 16.1188 149.113C16.1142 149.197 16.1078 149.354 16.0995 149.553C16.0672 150.336 16.0073 151.785 15.9221 152.22C15.8782 154.021 15.8812 155.096 15.931 155.414C15.9777 155.712 16.2095 156.268 16.4549 156.856C16.9031 157.93 17.4111 159.148 17.2897 159.843C17.2317 160.175 17.1464 160.545 17.0561 160.937C16.8686 161.75 16.656 162.672 16.6831 163.356C16.7226 164.353 16.5661 165.755 16.2938 166.845C16.1648 167.361 16.3373 167.924 16.5041 168.468C16.6483 168.938 16.7974 169.424 16.7431 169.874C16.6407 170.721 16.1592 171.157 15.3119 171.171L15.2852 171.171C14.9337 171.171 14.595 171.059 14.2961 170.96C14.0557 170.88 13.8286 170.805 13.6439 170.805L13.629 170.805C13.4481 170.809 13.2665 170.89 13.0744 170.976C12.8457 171.077 12.5865 171.193 12.285 171.193C12.2631 171.193 12.241 171.192 12.2187 171.191C11.8957 171.173 11.7229 171.071 11.5703 170.982C11.4485 170.91 11.3522 170.854 11.1852 170.846C11.1752 170.845 11.1655 170.845 11.1559 170.845C10.997 170.845 10.9018 170.909 10.7814 170.991C10.6506 171.079 10.5023 171.179 10.2652 171.191C10.247 171.192 10.2295 171.192 10.2128 171.192C9.95833 171.192 9.83294 171.094 9.72231 171.008C9.6441 170.946 9.57652 170.894 9.4538 170.862C9.43513 170.857 9.41699 170.855 9.39832 170.855C9.29054 170.855 9.17817 170.936 9.05924 171.022C8.91584 171.126 8.76753 171.233 8.58394 171.233C8.56999 171.233 8.55589 171.232 8.5418 171.231C8.31004 171.209 8.18963 171.112 8.08345 171.026C8.01847 170.974 7.96239 170.929 7.87952 170.899C7.86909 170.895 7.85753 170.893 7.84437 170.893C7.77008 170.893 7.66065 170.95 7.54483 171.01C7.37214 171.1 7.15718 171.211 6.91138 171.211C6.38339 171.211 6.11315 170.949 5.94743 170.275C5.78099 169.599 5.92731 168.5 6.46028 167.834C6.59789 167.661 6.8169 167.399 7.07053 167.095C7.71866 166.318 8.60639 165.254 8.9888 164.677C9.5223 163.871 9.73866 162.429 9.42549 161.765C9.02528 160.917 8.94122 160.125 9.17578 159.411L9.25459 159.174C9.47392 158.514 9.70078 157.832 9.79878 157.002C9.87938 156.321 9.84311 154.668 9.7752 153.415C9.71161 153.134 9.65984 152.838 9.62144 152.534C9.45765 151.236 8.67855 145.331 8.13143 142.227C7.95487 141.779 7.80678 141.216 7.67593 140.719C7.6158 140.49 7.55891 140.275 7.50476 140.09C7.19378 139.032 6.54932 135.385 6.36446 134.042C6.17057 132.632 6.31263 129.955 6.40452 129.076C6.47762 128.377 6.67317 126.983 7.16117 125.496C7.52397 124.39 7.53911 123.552 7.55022 122.94C7.55261 122.807 7.55487 122.683 7.56018 122.568C7.57027 122.352 7.62337 122.13 7.72238 121.892C7.7059 121.471 7.69315 120.915 7.6863 120.321C7.61102 119.524 7.59094 117.342 7.64643 115.926C7.68716 114.887 8.03481 113.414 8.31408 112.231C8.43249 111.729 8.53489 111.296 8.59974 110.958C8.62638 110.609 8.60319 110.139 8.53084 109.562L8.52971 109.559C7.55752 107.164 6.57117 104.657 6.1293 102.635C5.90742 101.621 5.86471 99.8425 5.82338 98.1228C5.80577 97.3907 5.78756 96.6337 5.75566 95.9578C5.36675 93.0803 5.01278 89.7508 4.98388 88.699C4.96108 87.8741 5.10348 86.1385 5.32236 84.5723L5.33711 84.298C5.41785 82.8382 5.5399 80.6321 5.83574 79.3932C6.23389 77.7257 6.98853 73.2896 6.95783 71.8765C6.92667 70.4401 7.66031 67.3672 8.20192 65.7011C8.31382 65.2283 8.51276 64.4894 8.68824 63.8376C8.75562 63.5873 8.81889 63.3522 8.87137 63.154C8.63064 62.6931 8.825 57.5946 8.99683 57.0394C9.04214 56.62 9.09112 56.2308 9.14261 55.8801C9.10774 55.831 9.11584 55.7913 9.22548 55.3635C9.30329 54.9113 9.38747 54.5361 9.47346 54.2592C9.51732 54.1015 9.57294 53.9394 9.63188 53.7678C9.7639 53.3834 9.90033 52.9859 9.92645 52.5587C9.86319 51.8908 9.86438 51.1199 9.9291 50.714C9.93182 50.2296 9.93209 49.6067 9.91116 49.0478C9.83441 48.8439 9.75382 48.6428 9.66584 48.4232C9.56624 48.1747 9.45727 47.9027 9.33381 47.577C8.8946 46.4184 8.34255 44.3709 7.80865 42.3908C7.52505 41.339 7.25714 40.3455 7.01793 39.5286C6.94397 39.2763 6.87235 39.012 6.80344 38.7377C6.78604 38.9044 6.76557 39.0851 6.74218 39.2794C6.66775 39.8982 6.28057 41.1301 5.83211 42.5564C5.06544 44.995 4.11133 48.0301 4.18708 49.6397C4.28031 51.6231 3.63244 53.1924 3.2432 53.6389C3.14911 54.0561 3.07282 54.3523 3.01037 54.543C2.99164 54.6635 2.97329 54.7845 2.95489 54.9058C2.89282 55.3152 2.82858 55.7387 2.74996 56.1418C2.66159 56.7563 2.47865 57.4635 2.19173 58.2972C1.90329 59.1358 1.05343 61.2054 -0.0818882 63.8342C-0.232397 64.3215 -0.399576 64.8559 -0.576389 65.4211C-1.71702 69.0677 -3.27926 74.0619 -3.31854 75.8349C-3.32983 76.343 -3.04524 77.1206 -2.57519 78.3406C-2.05365 79.6945 -2.14389 82.3533 -3.33847 84.614C-3.84666 85.5759 -4.29677 87.0464 -4.732 88.4685C-5.1548 89.8498 -5.55408 91.1544 -5.94845 91.7412C-6.18328 92.0906 -6.42641 92.2678 -6.67093 92.2678C-6.92098 92.2678 -7.10902 92.0863 -7.23613 91.9C-7.43381 92.9118 -7.89196 94.7257 -8.65392 94.8643C-8.70848 94.8743 -8.76216 94.8793 -8.81347 94.8793C-9.18862 94.8793 -9.4618 94.6199 -9.5992 94.1506C-9.83643 94.9595 -10.271 96.0442 -10.8956 96.0442L-10.9158 96.0438C-11.7951 96.0117 -11.821 94.8567 -11.781 93.5553C-11.8506 93.5941 -11.9295 93.6143 -12.0156 93.6143C-12.5914 93.6143 -13.2834 92.7492 -13.4127 91.8676C-13.7325 89.6859 -13.5206 87.0722 -13.3659 85.1638C-13.2898 84.226 -13.2115 83.2592 -13.2759 82.9858C-13.3945 83.0954 -13.5456 83.2913 -13.7184 83.5151C-14.0429 83.9354 -14.4466 84.4584 -14.9202 84.7843C-15.3044 85.0489 -15.7624 85.1886 -16.2446 85.1886C-17.0014 85.1886 -17.6675 84.8467 -17.8284 84.3757C-17.8892 84.1977 -17.924 83.847 -17.4743 83.4988C-16.3022 82.5911 -14.0557 79.3122 -13.2571 77.3438C-12.7246 76.0312 -11.7437 75.5961 -10.9556 75.2465C-10.4851 75.0378 -10.0787 74.8576 -9.87848 74.5411C-9.48525 73.9198 -8.91931 71.2541 -8.19637 66.6181C-8.09304 65.4815 -8.00845 64.7415 -7.93118 64.2978C-7.88533 64.0349 -7.83762 63.741 -7.78892 63.4292C-7.75444 60.4004 -7.69942 57.0309 -7.48446 55.3532C-7.07142 52.1287 -5.71961 48.2108 -4.53254 46.7978C-4.36296 46.596 -4.2116 46.4124 -4.07632 46.2483C-3.66495 45.7495 -3.41058 45.4411 -3.21855 45.3102C-3.04838 45.0822 -2.90293 44.6543 -2.78598 44.0374C-2.95144 41.5668 -2.68431 38.9066 -2.07074 36.9142C-1.98382 36.0873 -1.91386 35.4362 -1.87067 35.1935C-1.72901 34.3974 -1.8809 33.6295 -2.0029 33.0123C-2.06071 32.7199 -2.11068 32.4673 -2.11619 32.2676C-2.12981 31.7781 -2.21719 31.1318 -2.34955 30.1536C-2.41167 29.694 -2.48344 29.1637 -2.56145 28.5459C-2.83096 26.4111 -2.43281 23.8499 -1.49636 21.6947C-0.393791 19.1571 0.843849 17.7955 2.77547 16.9949C3.2713 16.7895 4.18036 16.682 4.82205 16.682C4.86337 16.682 4.90404 16.6824 4.94405 16.6833C6.50323 15.8615 7.89915 15.5694 8.62396 15.5694C8.73658 15.5694 8.83832 15.5762 8.92669 15.5896C8.96841 15.5875 9.01241 15.5865 9.05858 15.5865C9.14935 15.5865 9.24876 15.5903 9.34564 15.5955C9.37607 15.2784 9.78931 15.0433 10.2826 14.7964C10.9683 14.4534 11.6835 14.1397 12.4083 13.864C13.2461 13.5453 14.0884 13.2821 15.0953 12.985C15.2184 12.9487 15.3425 12.9142 15.4666 12.8798C16.1926 12.6782 16.8782 12.4878 17.3795 11.941C17.5228 11.7847 17.6432 11.6117 17.7706 11.4285C17.8311 11.3415 17.8917 11.2546 17.9545 11.1698C18.1485 10.9081 18.3491 10.6375 18.4575 10.3329C18.509 10.1881 18.4963 10.024 18.4827 9.85021C18.477 9.7756 18.4712 9.70121 18.4702 9.62773C18.4668 9.39314 18.467 9.1454 18.4708 8.8702C18.478 8.35104 18.494 7.73846 18.5574 7.12728C18.5449 6.95501 18.5321 6.86737 18.5235 6.82401C18.5074 6.74382 18.4942 6.66237 18.4805 6.57846C18.4179 6.19448 18.347 5.75923 17.9353 5.14519C17.5836 4.62064 17.4863 3.4024 17.4666 2.47272C17.4628 2.29307 17.3163 2.14685 17.1401 2.14685C17.1171 2.14685 17.0939 2.14938 17.071 2.15437C16.9662 2.17724 16.8565 2.18934 16.7537 2.18934C16.4768 2.18934 16.248 2.10529 16.0921 1.94619C15.9313 1.78215 15.8526 1.54638 15.8583 1.24537C15.8784 0.193559 15.6645 -0.416701 15.4759 -0.955143C15.3807 -1.22663 15.2909 -1.48308 15.2368 -1.77172C15.1407 -2.28456 15.0823 -2.97414 15.3492 -3.34688C15.4542 -3.49343 15.5982 -3.58073 15.7774 -3.60633C15.8212 -3.61265 15.8664 -3.61577 15.9116 -3.61577C16.0601 -3.61577 16.2154 -3.58186 16.3732 -3.51484C16.3948 -3.50573 16.417 -3.50107 16.4394 -3.50107C16.4873 -3.50107 16.5349 -3.52262 16.5697 -3.56012C16.6053 -3.59855 16.6228 -3.64855 16.6188 -3.70074C16.5033 -5.23967 16.3978 -9.02858 17.9106 -10.9696C19.7094 -13.2776 22.4761 -13.7452 23.5822 -13.8391C23.7251 -13.8512 23.8977 -13.8643 24.136 -13.8643C24.3148 -13.8643 24.5086 -13.8566 24.7122 -13.8414C25.8385 -13.7577 28.6551 -13.3102 30.4793 -10.9696C31.9921 -9.02831 31.8865 -5.23961 31.7709 -3.70074C31.767 -3.64855 31.7845 -3.59855 31.8202 -3.56005C31.855 -3.52255 31.9024 -3.50107 31.9505 -3.50107C31.9728 -3.50107 31.995 -3.50573 32.0166 -3.51484C32.1744 -3.58186 32.3297 -3.61577 32.4782 -3.61577C32.5234 -3.61577 32.5686 -3.61265 32.6125 -3.60633C32.7916 -3.58073 32.9356 -3.49343 33.0406 -3.34688C33.3075 -2.97414 33.249 -2.28456 33.1529 -1.77172C33.0989 -1.48308 33.009 -1.22663 32.9139 -0.955143C32.7252 -0.416701 32.5114 0.193545 32.5315 1.24537C32.5372 1.54637 32.4585 1.78215 32.2977 1.94625C32.1418 2.1053 31.913 2.18935 31.6362 2.18935C31.5333 2.18935 31.4235 2.17724 31.3187 2.15438C31.2959 2.1494 31.2727 2.14686 31.2497 2.14686C31.0736 2.14686 30.927 2.29307 30.9233 2.47281C30.9035 3.40261 30.806 4.62099 30.4545 5.1452C30.0428 5.75925 29.9719 6.1945 29.9093 6.57848C29.8957 6.66239 29.8824 6.74384 29.8664 6.82402C29.8577 6.86738 29.8449 6.95501 29.8324 7.12729C29.9171 7.94214 29.925 8.74389 29.9216 9.42129C29.9211 9.51671 29.9159 9.61358 29.9107 9.71059C29.9034 9.84796 29.8965 9.97782 29.9025 10.105C29.9177 10.4249 30.1492 10.7601 30.3534 11.0558C30.3825 11.098 30.4109 11.1391 30.4379 11.1791C30.7 11.5672 30.9711 11.9685 31.3392 12.2565C31.6396 12.4916 31.9978 12.5984 32.3769 12.7114L32.7073 12.8115C34.5084 13.3603 36.3708 13.9277 38.1072 14.7965L38.2133 14.8487C38.4365 14.9574 38.6895 15.0807 38.8652 15.2646C38.9588 15.3625 39.0183 15.4795 39.0372 15.5969C39.2097 15.589 39.3691 15.5852 39.521 15.5852C40.1146 15.5852 40.624 15.645 41.1239 15.7735C41.8959 15.9719 42.6768 16.2779 43.4457 16.6833C43.4857 16.6824 43.5264 16.682 43.5677 16.682C44.2094 16.682 45.1185 16.7895 45.6142 16.9949C47.5459 17.7954 48.7836 19.1571 49.8862 21.6947C50.8226 23.8498 51.2207 26.4109 50.9513 28.5459C50.8732 29.1639 50.8014 29.6945 50.7393 30.1542C50.607 31.1321 50.5196 31.7781 50.506 32.2676C50.5004 32.4673 50.4505 32.7199 50.3927 33.0123C50.2707 33.6294 50.1188 34.3974 50.2604 35.1935C50.3037 35.4361 50.3736 36.0869 50.4604 36.9134C51.0815 38.9285 51.347 41.6164 51.1715 44.1112C51.2846 44.6931 51.4286 45.0944 51.6 45.3049C51.7934 45.4326 52.0506 45.7444 52.4674 46.2499C52.6023 46.4135 52.7533 46.5965 52.9224 46.7978C54.1094 48.2109 55.4612 52.1288 55.8743 55.3531C56.0893 57.031 56.1443 60.4003 56.1788 63.4292C56.2274 63.741 56.2751 64.0349 56.3209 64.2977C56.3973 64.7362 56.4844 65.4981 56.5872 66.6267C57.3091 71.2541 57.8751 73.9198 58.2683 74.5411C58.4686 74.8576 58.8749 75.0378 59.3454 75.2465C60.1335 75.5961 61.1144 76.0311 61.6469 77.3437C62.4454 79.3122 64.692 82.591 65.8641 83.4988C66.3139 83.847 66.279 84.1977 66.2182 84.3757C66.0574 84.8467 65.3913 85.1886 64.6344 85.1886C64.1522 85.1886 63.6942 85.0488 63.3099 84.7843C62.8365 84.4584 62.4327 83.9354 62.1083 83.5153C61.9356 83.2914 61.7843 83.0955 61.6657 82.9858C61.6014 83.2593 61.6797 84.2259 61.7557 85.1633C61.9104 87.0719 62.1223 89.6858 61.8025 91.8675C61.6733 92.7491 60.9812 93.6142 60.4053 93.6142C60.3198 93.6142 60.2412 93.5942 60.1719 93.5558C60.2106 94.857 60.1834 96.0116 59.3056 96.0438L59.2854 96.0441C58.6608 96.0441 58.2262 94.9594 57.989 94.1504C57.8516 94.6197 57.5784 94.8792 57.2033 94.8792C57.152 94.8792 57.0983 94.8742 57.0437 94.8643C56.282 94.7256 55.8237 92.9118 55.626 91.9C55.4988 92.0862 55.3107 92.2677 55.0607 92.2677C54.8162 92.2677 54.5731 92.0905 54.3383 91.7411C53.9439 91.1543 53.5446 89.8497 53.1218 88.4685C52.6865 87.0463 52.2365 85.5758 51.7282 84.6139C50.5337 82.353 50.4434 79.6943 50.965 78.3405C51.4351 77.1204 51.7197 76.3428 51.7084 75.8348C51.6692 74.062 50.1072 69.0685 48.9666 65.4224C48.7897 64.8568 48.6223 64.3219 48.4717 63.8342C47.3364 61.2052 46.4865 59.1355 46.1981 58.2971C45.9111 57.4632 45.7282 56.756 45.6387 56.1349C45.5613 55.7387 45.4971 55.3155 45.435 54.9063C45.4166 54.7849 45.3982 54.6636 45.3795 54.543C45.317 54.3524 45.2407 54.0562 45.1466 53.6388C44.7574 53.1924 44.1095 51.623 44.2028 49.6396C44.2785 48.0299 43.3243 44.9948 42.5576 42.556C42.1092 41.1298 41.722 39.8981 41.6476 39.2794C41.6242 39.0851 41.6038 38.9043 41.5863 38.7377C41.5175 39.0119 41.4459 39.2762 41.3719 39.5286C41.1326 40.3454 40.8648 41.339 40.5811 42.3909C40.0472 44.3709 39.4952 46.4183 39.056 47.5769C38.9326 47.9024 38.8237 48.1743 38.7242 48.4228C38.6361 48.6424 38.5555 48.8437 38.4787 49.0478C38.4577 49.6079 38.4579 50.2302 38.4607 50.7139C38.5254 51.1198 38.5266 51.8907 38.4634 52.5587C38.4896 52.9858 38.626 53.3832 38.7579 53.7677C38.8168 53.9392 38.8724 54.1013 38.9174 54.2628C39.0022 54.5357 39.0865 54.9109 39.1666 55.374C39.2715 55.7824 39.2816 55.8289 39.2498 55.8764C39.3245 56.2579 39.5491 57.1694 39.663 57.6313C39.6979 57.7732 39.724 57.8793 39.7351 57.9261C39.8285 58.3227 39.8155 62.6878 39.5206 63.162C39.5728 63.3594 39.6356 63.5926 39.7024 63.8408C39.8776 64.4915 40.0761 65.229 40.1907 65.7117C40.7294 67.3669 41.4631 70.4398 41.432 71.8764C41.4012 73.2895 42.1559 77.7256 42.5541 79.3932C42.8501 80.6329 42.9722 82.8402 43.0528 84.3009L43.0686 84.5836C43.2827 86.1129 43.4283 87.8869 43.4059 88.6989C43.377 89.7508 43.0231 93.0805 42.6331 95.9697C42.6022 96.6337 42.584 97.3906 42.5664 98.1227C42.5251 99.8424 42.4824 101.621 42.2604 102.635C41.8187 104.657 40.8323 107.164 39.8599 109.559L39.8592 109.559C39.7866 110.138 39.7634 110.608 39.79 110.958C39.8549 111.295 39.9572 111.729 40.0756 112.23C40.3549 113.414 40.7027 114.887 40.7433 115.926C40.7989 117.342 40.7788 119.524 40.7028 120.332C40.6967 120.913 40.6839 121.469 40.6674 121.892C40.7664 122.13 40.8195 122.352 40.8296 122.568C40.8349 122.683 40.8372 122.807 40.8396 122.94C40.8507 123.552 40.8659 124.39 41.2286 125.496C41.7167 126.983 41.9122 128.377 41.9853 129.076C42.0772 129.955 42.2192 132.632 42.0253 134.042C41.8406 135.384 41.1961 139.032 40.885 140.09C40.831 140.274 40.7742 140.49 40.7141 140.718C40.5832 141.215 40.435 141.778 40.2584 142.227C39.7113 145.331 38.9322 151.236 38.7684 152.534C38.73 152.837 38.6783 153.134 38.6146 153.415C38.5466 154.667 38.5104 156.32 38.591 157.002C38.689 157.831 38.9158 158.513 39.135 159.173L39.214 159.411C39.4485 160.125 39.3645 160.917 38.9643 161.765C38.6512 162.429 38.8675 163.871 39.401 164.677C39.7836 165.255 40.6716 166.319 41.3201 167.096C41.5733 167.399 41.7921 167.662 41.9295 167.834C42.4625 168.5 42.6088 169.599 42.4423 170.275C42.2767 170.949 42.0064 171.211 41.4784 171.211C41.2326 171.211 41.0177 171.1 40.8449 171.01C40.7291 170.95 40.6197 170.893 40.5454 170.893C40.5322 170.893 40.5207 170.895 40.5102 170.899C40.4274 170.929 40.3713 170.974 40.3063 171.026C40.2001 171.112 40.0798 171.209 39.8479 171.231C39.8338 171.232 39.8198 171.233 39.8058 171.233Z" fill="white" stroke="#28839F" stroke-width="0.7"/>
<path d="M21.672 4.45945C19.5268 14.2487 16.6353 11.5309 9.86438 14.9185C8.91093 15.3956 8.69794 15.6493 9.4688 16.2177C10.2397 16.7861 12.5725 18.3795 13.2825 20.6124C13.9925 22.8453 14.2562 26.6616 15.1894 29.0974C16.1225 31.5333 18.1714 34.8218 19.1451 36.5269C20.1188 38.232 21.6403 41.7844 21.904 42.9414C22.1677 44.0985 23.0603 45.4382 23.1211 44.0376C23.182 42.6369 22.6749 37.1765 22.5531 33.9286C22.4314 30.6808 22.6343 24.9361 22.6749 23.0483C22.7154 21.1605 22.5937 18.5216 22.756 17.2225C22.9183 15.9234 22.614 8.85927 22.5531 7.43833C22.4923 6.01741 22.7966 4.75886 22.6343 4.06869C22.472 3.37853 21.8996 3.4206 21.672 4.45945Z" fill="#28839F" fill-opacity="0.2"/>
<path d="M19.8473 6.11916C19.5415 7.20863 18.9104 10.2348 18.2815 10.9453C18.1655 11.0763 17.5593 11.5578 17.6831 11.5644C18.9871 11.634 20.2261 8.8529 20.2328 8.83925C20.9428 7.38786 20.9529 6.52515 20.8616 5.38839C20.7703 4.25165 20.3545 4.31254 19.8473 6.11916Z" fill="#28839F" fill-opacity="0.2"/>
<path d="M2.82764 17.1215C0.819358 17.9537 -0.357224 19.4153 -1.37151 21.7497C-2.3858 24.0841 -2.66981 26.6011 -2.42638 28.5295C-2.18294 30.458 -2.00037 31.5338 -1.98009 32.2646C-1.9598 32.9954 -1.47294 32.0819 -0.357224 31.0466C0.758501 30.0114 3.39566 27.6161 3.98394 26.1749C4.57223 24.7336 4.24765 23.2518 5.36338 22.2774C6.47909 21.3031 7.63538 20.0039 8.77139 19.5168C9.90739 19.0296 9.50167 18.2988 8.52795 18.177C7.55424 18.0552 6.15451 17.02 5.52566 16.8779C4.8968 16.7358 3.45767 16.8604 2.82764 17.1215Z" fill="#28839F" fill-opacity="0.2"/>
<path d="M11.1754 19.1406C9.95829 19.3537 7.87899 20.3585 7.2907 21.2314C6.72926 22.0644 5.97211 21.9723 5.8504 22.4392C5.72869 22.9061 6.45898 22.8655 6.90527 23.6977C7.35156 24.53 7.57469 25.89 8.24413 26.702C10.5226 29.4656 11.4949 29.2445 14.2082 30.5182C14.8255 30.808 15.689 31.1272 15.7499 30.7212C15.8107 30.3152 15.5774 29.8179 15.0804 28.9349C14.5834 28.0519 14.2893 25.4841 14.0662 24.3067C13.843 23.1294 13.4677 21.1908 13.0519 20.2672C12.636 19.3436 11.5821 19.0694 11.1754 19.1406Z" fill="#28839F" fill-opacity="0.2"/>
<path d="M5.05895 24.3581C5.32157 24.8498 5.39366 24.792 5.92616 25.1346C6.45867 25.4771 6.8162 25.9262 6.96074 26.0937C7.10527 26.2612 7.36391 25.8349 7.15852 25.2868C6.95313 24.7387 6.61842 24.1754 6.32174 23.871C6.02505 23.5665 5.90334 23.1935 5.62188 23.125C5.34041 23.0564 4.82312 23.9166 5.05895 24.3581Z" fill="#28839F" fill-opacity="0.2"/>
<path d="M9.11622 28.5088C8.59723 28.0127 7.8788 27.1387 7.08765 26.7631C6.2965 26.3876 5.23149 25.0682 4.91707 25.4234C4.60263 25.7786 4.71421 26.824 5.03878 27.6157C5.36336 28.4073 5.71836 29.5035 5.97193 30.3967C6.2255 31.2898 6.94565 32.051 7.71651 32.2845C8.48737 32.5179 10.3334 32.8325 11.5505 32.7108C12.7677 32.589 13.8428 32.0003 14.3094 31.6958C15.4281 30.9657 11.3882 30.6808 9.11622 28.5088Z" fill="#28839F" fill-opacity="0.2"/>
<path d="M15.5267 31.574C14.5924 31.8233 13.9647 32.6296 11.8956 33.0761C10.5489 33.3668 7.73699 33.0355 7.10813 32.8325C6.47926 32.6296 6.05326 33.4009 6.13441 34.0099C6.21554 34.6189 6.45899 37.136 7.1487 39.4906C7.83841 41.8453 8.79185 45.7631 9.46128 47.5291C10.1307 49.2951 10.3741 49.4778 11.003 52.9286C11.6319 56.3795 13.4779 58.3079 13.9647 59.5867C14.4516 60.8656 16.5816 59.7897 16.3585 57.8004C16.1353 55.8111 16.1962 54.3496 17.251 51.7107C18.3059 49.0718 19.4825 46.5547 20.3345 45.1744C21.1865 43.7941 21.4603 42.3528 21.1256 41.1146C20.7909 39.8763 19.9592 38.0291 19.3607 36.9939C18.7623 35.9586 17.3322 33.7968 16.8656 32.9138C16.399 32.0307 16.3077 31.8683 16.1962 31.7161C16.0846 31.5639 15.831 31.4928 15.5267 31.574Z" fill="#28839F" fill-opacity="0.2"/>
<path d="M3.92299 27.8597C3.21115 28.9875 1.55971 31.9855 0.981553 33.645C0.403414 35.3044 0.271549 37.1567 0.210693 39.349C0.149836 41.5413 -0.448594 46.8394 -0.174739 48.0573C0.0991165 49.2752 0.504837 50.1075 1.38727 49.5594C2.26971 49.0114 3.57814 45.936 4.49099 43.8351C5.40386 41.7341 6.05996 38.0946 5.911 36.6289C5.66758 34.2336 5.68787 33.6856 5.62701 31.412C5.57226 29.3671 4.28815 27.2812 3.92299 27.8597Z" fill="#28839F" fill-opacity="0.2"/>
<path d="M0.88151 30.9139C0.143173 31.3105 -1.1358 31.8417 -1.73664 35.2179C-1.83553 35.7736 -2.08704 38.6078 -2.23918 39.5517C-2.39132 40.4956 -2.37514 43.1782 -2.31017 43.9668C-2.23744 44.8498 -2.34014 46.1794 -2.20321 46.8797C-2.06629 47.58 -1.44249 46.4991 -1.29035 44.9614C-1.13821 43.4238 -0.631063 39.9882 -0.30649 37.06C-0.067812 34.9068 0.0599315 33.6549 1.39373 31.6452C2.12058 30.5501 1.88049 30.3773 0.88151 30.9139Z" fill="#28839F" fill-opacity="0.2"/>
<path d="M23.0427 64.0318C23.1035 62.9661 23.1339 58.8251 23.0122 57.5767C22.8905 56.3283 23.3926 52.8571 23.1644 51.5478C22.9362 50.2385 23.713 46.7404 23.4382 45.7017C23.2356 44.9357 21.4898 44.9903 20.1722 47.2444C19.5434 48.3203 18.8739 49.7615 18.4277 50.6547C17.9814 51.5478 16.7845 54.9378 17.0888 56.5414C17.3931 58.145 17.0685 59.4239 15.8716 60.4388C14.2472 61.8164 16.2984 62.406 17.5351 62.8443C18.9957 63.3619 20.791 65.6456 21.3082 66.6503C21.8255 67.6552 23.423 68.5229 23.2253 67.1071C23.0275 65.6912 23.0427 64.0318 23.0427 64.0318Z" fill="#28839F" fill-opacity="0.2"/>
<path d="M26.2389 4.45945C28.3841 14.2487 31.2755 11.5309 38.0465 14.9185C38.9999 15.3956 39.2129 15.6493 38.4421 16.2177C37.6712 16.7861 35.3383 18.3795 34.6283 20.6124C33.9183 22.8453 33.6546 26.6616 32.7215 29.0974C31.7883 31.5333 29.7395 34.8218 28.7657 36.5269C27.792 38.232 26.2706 41.7844 26.0069 42.9414C25.7431 44.0985 24.8506 45.4382 24.7897 44.0376C24.7289 42.6369 25.236 37.1765 25.3577 33.9286C25.4794 30.6808 25.2766 24.9361 25.236 23.0483C25.1954 21.1605 25.3171 18.5216 25.1549 17.2225C24.9926 15.9234 25.2969 8.85927 25.3577 7.43833C25.4186 6.01741 25.1143 4.75886 25.2766 4.06869C25.4389 3.37853 26.0112 3.4206 26.2389 4.45945Z" fill="#28839F" fill-opacity="0.2"/>
<path d="M34.6193 20.6426C33.9164 22.8795 33.6508 26.6727 32.7218 29.0977C31.7887 31.5335 29.7395 34.8223 28.7658 36.5273C27.792 38.2326 26.2707 41.7845 26.007 42.9414C25.7433 44.0984 24.851 45.4377 24.7902 44.0371C24.7295 42.6358 25.2359 37.1762 25.3576 33.9287C25.4733 30.8394 25.2968 25.491 25.2443 23.3516L34.6193 20.6426Z" fill="#28839F"/>
<path d="M13.1659 20.6426C13.8687 22.8795 14.1343 26.6727 15.0633 29.0977C15.9965 31.5335 18.0457 34.8223 19.0194 36.5273C19.9931 38.2326 21.5145 41.7845 21.7782 42.9414C22.0419 44.0984 22.9341 45.4377 22.995 44.0371C23.0557 42.6358 22.5493 37.1762 22.4276 33.9287C22.3118 30.8394 22.4883 25.491 22.5409 23.3516L13.1659 20.6426Z" fill="#28839F"/>
<path d="M28.5427 6.11916C28.8485 7.20863 29.4796 10.2348 30.1085 10.9453C30.2245 11.0763 30.8308 11.5578 30.7069 11.5644C29.403 11.634 28.1639 8.8529 28.1573 8.83925C27.4473 7.38786 27.4371 6.52515 27.5284 5.38839C27.6197 4.25165 28.0356 4.31254 28.5427 6.11916Z" fill="#28839F" fill-opacity="0.2"/>
<path d="M45.5621 17.1215C47.5704 17.9537 48.747 19.4153 49.7613 21.7497C50.7756 24.0841 51.0596 26.6011 50.8162 28.5295C50.5727 30.458 50.3902 31.5338 50.3699 32.2646C50.3496 32.9954 49.8627 32.0819 48.747 31.0466C47.6313 30.0114 44.9941 27.6161 44.4059 26.1749C43.8176 24.7336 44.1421 23.2518 43.0264 22.2774C41.9107 21.3031 40.7544 20.0039 39.6184 19.5168C38.4824 19.0296 38.8881 18.2988 39.8618 18.177C40.8355 18.0552 42.2353 17.02 42.8641 16.8779C43.493 16.7358 44.9321 16.8604 45.5621 17.1215Z" fill="#28839F" fill-opacity="0.2"/>
<path d="M37.2148 19.1406C38.4319 19.3537 40.5112 20.3585 41.0995 21.2314C41.661 22.0644 42.4181 21.9723 42.5398 22.4392C42.6615 22.9061 41.9312 22.8655 41.4849 23.6977C41.0387 24.53 40.8155 25.89 40.1461 26.702C37.8676 29.4656 36.8953 29.2445 34.1821 30.5182C33.5647 30.808 32.7012 31.1272 32.6403 30.7212C32.5795 30.3152 32.8128 29.8179 33.3098 28.9349C33.8068 28.0519 34.1009 25.4841 34.3241 24.3067C34.5472 23.1294 34.9225 21.1908 35.3384 20.2672C35.7542 19.3436 36.8081 19.0694 37.2148 19.1406Z" fill="#28839F" fill-opacity="0.2"/>
<path d="M43.3306 24.3581C43.068 24.8498 42.9959 24.792 42.4634 25.1346C41.9309 25.4771 41.5734 25.9262 41.4289 26.0937C41.2843 26.2612 41.0257 25.8349 41.2311 25.2868C41.4365 24.7387 41.7712 24.1754 42.0678 23.871C42.3645 23.5665 42.4863 23.1935 42.7677 23.125C43.0492 23.0564 43.5665 23.9166 43.3306 24.3581Z" fill="#28839F" fill-opacity="0.2"/>
<path d="M39.2738 28.5088C39.7928 28.0127 40.5112 27.1387 41.3023 26.7631C42.0935 26.3876 43.1585 25.0682 43.4729 25.4234C43.7874 25.7786 43.6758 26.824 43.3512 27.6157C43.0266 28.4073 42.6716 29.5035 42.4181 30.3967C42.1645 31.2898 41.4444 32.051 40.6735 32.2845C39.9026 32.5179 38.0566 32.8325 36.8395 32.7108C35.6223 32.589 34.5472 32.0003 34.0806 31.6958C32.9618 30.9657 37.0018 30.6808 39.2738 28.5088Z" fill="#28839F" fill-opacity="0.2"/>
<path d="M32.8636 31.574C33.7979 31.8233 34.4256 32.6296 36.4947 33.0761C37.8414 33.3668 40.6533 33.0355 41.2822 32.8325C41.911 32.6296 42.337 33.4009 42.2559 34.0099C42.1747 34.6189 41.9313 37.136 41.2416 39.4906C40.5519 41.8453 39.5985 45.7631 38.929 47.5291C38.2596 49.2951 38.0162 49.4778 37.3873 52.9286C36.7584 56.3795 34.9124 58.3079 34.4256 59.5867C33.9387 60.8656 31.8087 59.7897 32.0319 57.8004C32.255 55.8111 32.1941 54.3496 31.1393 51.7107C30.0844 49.0718 28.9078 46.5547 28.0558 45.1744C27.2038 43.7941 26.93 42.3528 27.2647 41.1146C27.5994 39.8763 28.4311 38.0291 29.0296 36.9939C29.628 35.9586 31.0581 33.7968 31.5247 32.9138C31.9913 32.0307 32.0826 31.8683 32.1941 31.7161C32.3057 31.5639 32.5593 31.4928 32.8636 31.574Z" fill="#28839F" fill-opacity="0.2"/>
<path d="M44.4667 27.8597C45.1785 28.9875 46.8299 31.9855 47.4081 33.645C47.9862 35.3044 48.1181 37.1567 48.179 39.349C48.2398 41.5413 48.8382 46.8394 48.5644 48.0573C48.2905 49.2752 47.8848 50.1075 47.0024 49.5594C46.1199 49.0114 44.8115 45.936 43.8987 43.8351C42.9858 41.7341 42.3297 38.0946 42.4786 36.6289C42.7221 34.2336 42.7018 33.6856 42.7626 31.412C42.8174 29.3671 44.1015 27.2812 44.4667 27.8597Z" fill="#28839F" fill-opacity="0.2"/>
<path d="M47.5085 30.9139C48.2468 31.3105 49.5258 31.8417 50.1266 35.2179C50.2255 35.7736 50.477 38.6078 50.6292 39.5517C50.7813 40.4956 50.7651 43.1782 50.7002 43.9668C50.6274 44.8498 50.7301 46.1794 50.5932 46.8797C50.4563 47.58 49.8325 46.4991 49.6803 44.9614C49.5282 43.4238 49.0211 39.9882 48.6965 37.06C48.4578 34.9068 48.3301 33.6549 46.9963 31.6452C46.2694 30.5501 46.5095 30.3773 47.5085 30.9139Z" fill="#28839F" fill-opacity="0.2"/>
<path d="M52.419 47.6302C52.2699 48.3571 51.993 49.2745 51.5061 50.33C51.0193 51.3856 50.3295 52.025 50.3092 52.9486C50.289 53.8722 50.7454 54.6131 50.8164 55.3845C50.8874 56.1558 51.2424 56.4299 51.3641 56.0746C51.4858 55.7194 52.1654 54.6435 52.2567 53.3952C52.348 52.1468 52.7638 51.3653 52.9464 50.6548C53.129 49.9443 52.8348 48.8888 52.7638 48.4625C52.6928 48.0362 52.4887 47.2902 52.419 47.6302Z" fill="#28839F" fill-opacity="0.2"/>
<path d="M25.3473 64.0318C25.2864 62.9661 25.256 58.8251 25.3777 57.5767C25.4994 56.3283 24.9974 52.8571 25.2256 51.5478C25.4538 50.2385 24.677 46.7404 24.9517 45.7017C25.1543 44.9357 26.9002 44.9903 28.2177 47.2444C28.8466 48.3203 29.516 49.7615 29.9623 50.6547C30.4086 51.5478 31.6055 54.9378 31.3012 56.5414C30.9969 58.145 31.3215 59.4239 32.5183 60.4388C34.1428 61.8164 32.0916 62.406 30.8549 62.8443C29.3943 63.3619 27.599 65.6456 27.0817 66.6503C26.5644 67.6552 24.9669 68.5229 25.1647 67.1071C25.3625 65.6912 25.3473 64.0318 25.3473 64.0318Z" fill="#28839F" fill-opacity="0.2"/>
</g>
<defs>
<clipPath id="clip0_4055_6474">
<rect width="61" height="48" fill="white"/>
</clipPath>
</defs>
</svg>
