<svg width="61" height="48" viewBox="0 0 61 48" fill="none" xmlns="http://www.w3.org/2000/svg">
<g clip-path="url(#clip0_4055_11735)">
<path d="M37.8058 155.233C37.6222 155.233 37.4739 155.126 37.3305 155.022C37.2116 154.936 37.0992 154.855 36.9914 154.855C36.9728 154.855 36.9546 154.857 36.936 154.862C36.8132 154.894 36.7456 154.946 36.6674 155.008C36.5567 155.094 36.4314 155.192 36.1771 155.192C36.1603 155.192 36.1427 155.192 36.1246 155.191C35.8874 155.179 35.7392 155.079 35.6084 154.991C35.4879 154.909 35.3928 154.845 35.2338 154.845C35.2243 154.845 35.2145 154.845 35.2045 154.846C35.0376 154.854 34.9414 154.91 34.8194 154.982C34.6669 155.071 34.494 155.173 34.171 155.191C34.1486 155.192 34.1266 155.193 34.1047 155.193C33.8033 155.193 33.5441 155.077 33.3153 154.976C33.1232 154.89 32.9416 154.809 32.7608 154.805L32.7459 154.805C32.5611 154.805 32.334 154.88 32.0936 154.96C31.7948 155.059 31.4561 155.171 31.1046 155.171L31.0778 155.171C30.2305 155.157 29.749 154.721 29.6467 153.874C29.5924 153.424 29.7415 152.938 29.8857 152.468C30.0525 151.924 30.2249 151.361 30.096 150.845C29.8236 149.755 29.6672 148.353 29.7067 147.356C29.7337 146.672 29.5211 145.75 29.3336 144.937C29.2434 144.545 29.1581 144.176 29.1 143.843C28.9787 143.148 29.4867 141.931 29.9349 140.856C30.1803 140.268 30.412 139.712 30.4588 139.414C30.5085 139.095 30.5116 138.021 30.4677 136.22C30.3824 135.785 30.3225 134.335 30.2902 133.553C30.2819 133.353 30.2755 133.197 30.2709 133.113C30.2667 133.035 30.2487 132.654 30.2887 132.456L30.2187 131.926C30.0793 130.864 29.9476 129.861 29.8329 129.432C29.8329 129.432 29.6511 128.756 29.5987 128.559C29.541 128.468 29.4894 128.356 29.4414 128.217C29.3429 127.932 29.24 127.537 29.1312 127.119C28.9303 126.348 28.7027 125.474 28.4146 124.916C28.1489 124.402 27.9949 123.725 27.944 122.845C27.8628 122.437 27.794 121.97 27.7395 121.454C27.4781 118.978 27.7667 115.501 28.0662 114.044C28.2168 113.311 28.4525 112.424 28.6604 111.641C28.859 110.893 29.0466 110.187 29.1202 109.764C29.196 109.33 29.2129 109.084 29.2231 108.938C29.2297 108.842 29.2341 108.778 29.2528 108.728C29.2276 108.593 29.2004 108.441 29.1714 108.278C29.1231 108.008 29.0688 107.703 29.0087 107.398C28.881 107.247 28.7953 106.945 28.68 106.54C28.5778 106.18 28.4507 105.733 28.2635 105.299C27.8274 104.288 27.2886 100.95 27.2381 99.3625C27.1867 97.7483 26.9153 95.1601 26.593 93.8802C26.3057 92.739 26.0018 89.9992 26.0309 88.8149C26.0055 88.5582 25.9801 88.3166 25.9546 88.1045C25.9278 87.8805 25.9096 87.5969 25.9005 87.261C25.843 87.1308 25.7546 86.9469 25.6279 86.7683C25.4621 86.5346 25.3089 86.2144 25.1726 85.8168C24.9593 85.2717 24.7103 84.225 24.6309 83.5365C24.5015 82.4142 23.6802 77.4649 23.2056 75.8871C22.6641 74.0865 23.0349 70.456 23.0789 70.048C23.0936 69.9119 23.1072 69.7773 23.1205 69.6452C23.159 69.2614 23.1956 68.8978 23.253 68.5741C23.0991 68.3351 22.9719 68.0836 22.8659 67.8085C22.6216 67.7412 22.3776 67.7228 22.276 67.7228H22.1137C22.0122 67.7228 21.7683 67.7412 21.5239 67.8085C21.4179 68.0836 21.2907 68.3352 21.1367 68.5741C21.1943 68.8983 21.2308 69.2624 21.2694 69.6467C21.2827 69.7784 21.2961 69.9125 21.3108 70.048C21.3549 70.456 21.7259 74.0861 21.1841 75.8871C20.7095 77.4651 19.8882 82.4143 19.7588 83.5366C19.6795 84.2249 19.4306 85.2716 19.2153 85.8221C19.0808 86.2146 18.9276 86.5348 18.7619 86.7683C18.6347 86.9475 18.5465 87.1312 18.4892 87.261C18.4802 87.5964 18.462 87.8801 18.4351 88.1045C18.4097 88.3166 18.3842 88.5583 18.3589 88.8148C18.388 89.9991 18.0841 92.739 17.7968 93.8802C17.4746 95.1598 17.2031 97.7479 17.1517 99.3625C17.1011 100.95 16.5623 104.288 16.1263 105.299C15.939 105.733 15.8119 106.18 15.7097 106.54C15.5945 106.945 15.5088 107.247 15.381 107.398C15.3209 107.703 15.2665 108.008 15.2184 108.278C15.1892 108.441 15.1621 108.593 15.1369 108.728C15.1556 108.778 15.16 108.842 15.1667 108.938C15.1768 109.084 15.1938 109.33 15.2695 109.764C15.3431 110.187 15.5307 110.893 15.7294 111.641C15.9373 112.424 16.173 113.311 16.3236 114.044C16.6231 115.501 16.9117 118.978 16.6502 121.454C16.5956 121.971 16.5266 122.443 16.4452 122.857C16.3934 123.731 16.2397 124.405 15.9752 124.916C15.687 125.474 15.4594 126.348 15.2586 127.119C15.1497 127.537 15.0469 127.932 14.9483 128.217C14.9004 128.356 14.8488 128.468 14.7911 128.559C14.7388 128.755 14.5569 129.432 14.5569 129.432C14.4421 129.861 14.3104 130.865 14.171 131.926L14.1011 132.456C14.1411 132.654 14.1231 133.035 14.1188 133.113C14.1142 133.197 14.1078 133.354 14.0995 133.553C14.0672 134.336 14.0073 135.785 13.9221 136.22C13.8782 138.021 13.8812 139.096 13.931 139.414C13.9777 139.712 14.2095 140.268 14.4549 140.856C14.9031 141.93 15.4111 143.148 15.2897 143.843C15.2317 144.175 15.1464 144.545 15.0561 144.937C14.8686 145.75 14.656 146.672 14.6831 147.356C14.7226 148.353 14.5661 149.755 14.2938 150.845C14.1648 151.361 14.3373 151.924 14.5041 152.468C14.6483 152.938 14.7974 153.424 14.7431 153.874C14.6407 154.721 14.1592 155.157 13.3119 155.171L13.2852 155.171C12.9337 155.171 12.595 155.059 12.2961 154.96C12.0557 154.88 11.8286 154.805 11.6439 154.805L11.629 154.805C11.4481 154.809 11.2665 154.89 11.0744 154.976C10.8457 155.077 10.5865 155.193 10.285 155.193C10.2631 155.193 10.241 155.192 10.2187 155.191C9.89574 155.173 9.7229 155.071 9.57034 154.982C9.44848 154.91 9.35219 154.854 9.18521 154.846C9.17518 154.845 9.16548 154.845 9.15591 154.845C8.99696 154.845 8.90181 154.909 8.78135 154.991C8.65059 155.079 8.50234 155.179 8.26518 155.191C8.24698 155.192 8.22951 155.192 8.21275 155.192C7.95833 155.192 7.83294 155.094 7.72231 155.008C7.6441 154.946 7.57652 154.894 7.4538 154.862C7.43513 154.857 7.41699 154.855 7.39832 154.855C7.29054 154.855 7.17817 154.936 7.05924 155.022C6.91584 155.126 6.76753 155.233 6.58394 155.233C6.56999 155.233 6.55589 155.232 6.5418 155.231C6.31004 155.209 6.18963 155.112 6.08345 155.026C6.01847 154.974 5.96239 154.929 5.87952 154.899C5.86909 154.895 5.85753 154.893 5.84437 154.893C5.77008 154.893 5.66065 154.95 5.54483 155.01C5.37214 155.1 5.15718 155.211 4.91138 155.211C4.38339 155.211 4.11315 154.949 3.94743 154.275C3.78099 153.599 3.92731 152.5 4.46028 151.834C4.59789 151.661 4.8169 151.399 5.07053 151.095C5.71866 150.318 6.60639 149.254 6.9888 148.677C7.5223 147.871 7.73866 146.429 7.42549 145.765C7.02528 144.917 6.94122 144.125 7.17578 143.411L7.25459 143.174C7.47392 142.514 7.70078 141.832 7.79878 141.002C7.87938 140.321 7.84311 138.668 7.7752 137.415C7.71161 137.134 7.65984 136.838 7.62144 136.534C7.45765 135.236 6.67855 129.331 6.13143 126.227C5.95487 125.779 5.80678 125.216 5.67593 124.719C5.6158 124.49 5.55891 124.275 5.50476 124.09C5.19378 123.032 4.54932 119.385 4.36446 118.042C4.17057 116.632 4.31263 113.955 4.40452 113.076C4.47762 112.377 4.67317 110.983 5.16117 109.496C5.52397 108.39 5.53911 107.552 5.55022 106.94C5.55261 106.807 5.55487 106.683 5.56018 106.568C5.57027 106.352 5.62337 106.13 5.72238 105.892C5.7059 105.471 5.69315 104.915 5.6863 104.321C5.61102 103.524 5.59094 101.342 5.64643 99.9263C5.68716 98.887 6.03481 97.4142 6.31408 96.2308C6.43249 95.7292 6.53489 95.2956 6.59974 94.9583C6.62638 94.6089 6.60319 94.1392 6.53084 93.5616L6.52971 93.5588C5.55752 91.1642 4.57117 88.6566 4.1293 86.6355C3.90742 85.6207 3.86471 83.8425 3.82338 82.1228C3.80577 81.3907 3.78756 80.6337 3.75566 79.9578C3.36675 77.0803 3.01278 73.7508 2.98388 72.699C2.96108 71.8741 3.10348 70.1385 3.32236 68.5723L3.33711 68.298C3.41785 66.8382 3.5399 64.6321 3.83574 63.3932C4.23389 61.7257 4.98853 57.2896 4.95783 55.8765C4.92667 54.4401 5.66031 51.3672 6.20192 49.7011C6.31382 49.2283 6.51276 48.4894 6.68824 47.8376C6.75562 47.5873 6.81889 47.3522 6.87137 47.154C6.63064 46.6931 6.825 41.5946 6.99683 41.0394C7.04214 40.62 7.09112 40.2308 7.14261 39.8801C7.10774 39.831 7.11584 39.7913 7.22548 39.3635C7.30329 38.9113 7.38747 38.5361 7.47346 38.2592C7.51732 38.1015 7.57294 37.9394 7.63188 37.7678C7.7639 37.3834 7.90033 36.9859 7.92645 36.5587C7.86319 35.8908 7.86438 35.1199 7.9291 34.714C7.93182 34.2296 7.93209 33.6067 7.91116 33.0478C7.83441 32.8439 7.75382 32.6428 7.66584 32.4232C7.56624 32.1747 7.45727 31.9027 7.33381 31.577C6.8946 30.4184 6.34255 28.3709 5.80865 26.3908C5.52505 25.339 5.25714 24.3455 5.01793 23.5286C4.94397 23.2763 4.87235 23.012 4.80344 22.7377C4.78604 22.9044 4.76557 23.0851 4.74218 23.2794C4.66775 23.8982 4.28057 25.1301 3.83211 26.5564C3.06544 28.995 2.11133 32.0301 2.18708 33.6397C2.28031 35.6231 1.63244 37.1924 1.2432 37.6389C1.14911 38.0561 1.07282 38.3523 1.01037 38.543C0.991636 38.6635 0.973289 38.7845 0.954891 38.9058C0.892824 39.3152 0.828581 39.7387 0.749964 40.1418C0.661592 40.7563 0.478655 41.4635 0.191734 42.2972C-0.0967083 43.1358 -0.946568 45.2054 -2.08189 47.8342C-2.2324 48.3215 -2.39958 48.8559 -2.57639 49.4211C-3.71702 53.0677 -5.27926 58.0619 -5.31854 59.8349C-5.32983 60.343 -5.04524 61.1206 -4.57519 62.3406C-4.05365 63.6945 -4.14389 66.3533 -5.33847 68.614C-5.84666 69.5759 -6.29677 71.0464 -6.732 72.4685C-7.1548 73.8498 -7.55408 75.1544 -7.94845 75.7412C-8.18328 76.0906 -8.42641 76.2678 -8.67093 76.2678C-8.92098 76.2678 -9.10902 76.0863 -9.23613 75.9C-9.43381 76.9118 -9.89196 78.7257 -10.6539 78.8643C-10.7085 78.8743 -10.7622 78.8793 -10.8135 78.8793C-11.1886 78.8793 -11.4618 78.6199 -11.5992 78.1506C-11.8364 78.9595 -12.271 80.0442 -12.8956 80.0442L-12.9158 80.0438C-13.7951 80.0117 -13.821 78.8567 -13.781 77.5553C-13.8506 77.5941 -13.9295 77.6143 -14.0156 77.6143C-14.5914 77.6143 -15.2834 76.7492 -15.4127 75.8676C-15.7325 73.6859 -15.5206 71.0722 -15.3659 69.1638C-15.2898 68.226 -15.2115 67.2592 -15.2759 66.9858C-15.3945 67.0954 -15.5456 67.2913 -15.7184 67.5151C-16.0429 67.9354 -16.4466 68.4584 -16.9202 68.7843C-17.3044 69.0489 -17.7624 69.1886 -18.2446 69.1886C-19.0014 69.1886 -19.6675 68.8467 -19.8284 68.3757C-19.8892 68.1977 -19.924 67.847 -19.4743 67.4988C-18.3022 66.5911 -16.0557 63.3122 -15.2571 61.3438C-14.7246 60.0312 -13.7437 59.5961 -12.9556 59.2465C-12.4851 59.0378 -12.0787 58.8576 -11.8785 58.5411C-11.4852 57.9198 -10.9193 55.2541 -10.1964 50.6181C-10.093 49.4815 -10.0084 48.7415 -9.93118 48.2978C-9.88533 48.0349 -9.83762 47.741 -9.78892 47.4292C-9.75444 44.4004 -9.69942 41.0309 -9.48446 39.3532C-9.07142 36.1287 -7.71961 32.2108 -6.53254 30.7978C-6.36296 30.596 -6.2116 30.4124 -6.07632 30.2483C-5.66495 29.7495 -5.41058 29.4411 -5.21855 29.3102C-5.04838 29.0822 -4.90293 28.6543 -4.78598 28.0374C-4.95144 25.5668 -4.68431 22.9066 -4.07074 20.9142C-3.98382 20.0873 -3.91386 19.4362 -3.87067 19.1935C-3.72901 18.3974 -3.8809 17.6295 -4.0029 17.0123C-4.06071 16.7199 -4.11068 16.4673 -4.11619 16.2676C-4.12981 15.7781 -4.21719 15.1318 -4.34955 14.1536C-4.41167 13.694 -4.48344 13.1637 -4.56145 12.5459C-4.83096 10.4111 -4.43281 7.84991 -3.49636 5.69468C-2.39379 3.15706 -1.15615 1.79547 0.775465 0.994917C1.2713 0.789459 2.18036 0.682007 2.82205 0.682007C2.86337 0.682007 2.90404 0.6824 2.94405 0.683271C4.50323 -0.138491 5.89915 -0.43058 6.62396 -0.43058C6.73658 -0.43058 6.83832 -0.4238 6.92669 -0.41044C6.96841 -0.412497 7.01241 -0.413504 7.05858 -0.413504C7.14935 -0.413504 7.24876 -0.409653 7.34564 -0.404465C7.37607 -0.721626 7.78931 -0.956739 8.28262 -1.20355C8.96829 -1.54657 9.68345 -1.86029 10.4083 -2.13602C11.2461 -2.45471 12.0884 -2.71788 13.0953 -3.01497C13.2184 -3.05134 13.3425 -3.08578 13.4666 -3.12021C14.1926 -3.32182 14.8782 -3.51224 15.3795 -4.05899C15.5228 -4.2153 15.6432 -4.38832 15.7706 -4.5715C15.8311 -4.65848 15.8917 -4.74538 15.9545 -4.83022C16.1485 -5.09193 16.3491 -5.36248 16.4575 -5.66707C16.509 -5.81189 16.4963 -5.97605 16.4827 -6.14979C16.477 -6.2244 16.4712 -6.29879 16.4702 -6.37227C16.4668 -6.60686 16.467 -6.8546 16.4708 -7.1298C16.478 -7.64896 16.494 -8.26154 16.5574 -8.87272C16.5449 -9.04499 16.5321 -9.13263 16.5235 -9.17599C16.5074 -9.25618 16.4942 -9.33763 16.4805 -9.42154C16.4179 -9.80552 16.347 -10.2408 15.9353 -10.8548C15.5836 -11.3794 15.4863 -12.5976 15.4666 -13.5273C15.4628 -13.7069 15.3163 -13.8531 15.1401 -13.8531C15.1171 -13.8531 15.0939 -13.8506 15.071 -13.8456C14.9662 -13.8228 14.8565 -13.8107 14.7537 -13.8107C14.4768 -13.8107 14.248 -13.8947 14.0921 -14.0538C13.9313 -14.2178 13.8526 -14.4536 13.8583 -14.7546C13.8784 -15.8064 13.6645 -16.4167 13.4759 -16.9551C13.3807 -17.2266 13.2909 -17.4831 13.2368 -17.7717C13.1407 -18.2846 13.0823 -18.9741 13.3492 -19.3469C13.4542 -19.4934 13.5982 -19.5807 13.7774 -19.6063C13.8212 -19.6127 13.8664 -19.6158 13.9116 -19.6158C14.0601 -19.6158 14.2154 -19.5819 14.3732 -19.5148C14.3948 -19.5057 14.417 -19.5011 14.4394 -19.5011C14.4873 -19.5011 14.5349 -19.5226 14.5697 -19.5601C14.6053 -19.5985 14.6228 -19.6485 14.6188 -19.7007C14.5033 -21.2397 14.3978 -25.0286 15.9106 -26.9696C17.7094 -29.2776 20.4761 -29.7452 21.5822 -29.8391C21.7251 -29.8512 21.8977 -29.8643 22.136 -29.8643C22.3148 -29.8643 22.5086 -29.8566 22.7122 -29.8414C23.8385 -29.7577 26.6551 -29.3102 28.4793 -26.9696C29.9921 -25.0283 29.8865 -21.2396 29.7709 -19.7007C29.767 -19.6485 29.7845 -19.5985 29.8202 -19.5601C29.855 -19.5225 29.9024 -19.5011 29.9505 -19.5011C29.9728 -19.5011 29.995 -19.5057 30.0166 -19.5148C30.1744 -19.5819 30.3297 -19.6158 30.4782 -19.6158C30.5234 -19.6158 30.5686 -19.6127 30.6125 -19.6063C30.7916 -19.5807 30.9356 -19.4934 31.0406 -19.3469C31.3075 -18.9741 31.249 -18.2846 31.1529 -17.7717C31.0989 -17.4831 31.009 -17.2266 30.9139 -16.9551C30.7252 -16.4167 30.5114 -15.8065 30.5315 -14.7546C30.5372 -14.4536 30.4585 -14.2178 30.2977 -14.0537C30.1418 -13.8947 29.913 -13.8106 29.6362 -13.8106C29.5333 -13.8106 29.4235 -13.8228 29.3187 -13.8456C29.2959 -13.8506 29.2727 -13.8531 29.2497 -13.8531C29.0736 -13.8531 28.927 -13.7069 28.9233 -13.5272C28.9035 -12.5974 28.806 -11.379 28.4545 -10.8548C28.0428 -10.2408 27.9719 -9.8055 27.9093 -9.42152C27.8957 -9.33761 27.8824 -9.25616 27.8664 -9.17598C27.8577 -9.13262 27.8449 -9.04499 27.8324 -8.87271C27.9171 -8.05786 27.925 -7.25611 27.9216 -6.57871C27.9211 -6.48329 27.9159 -6.38642 27.9107 -6.28941C27.9034 -6.15204 27.8965 -6.02218 27.9025 -5.89499C27.9177 -5.5751 28.1492 -5.23993 28.3534 -4.94417C28.3825 -4.90201 28.4109 -4.86086 28.4379 -4.82089C28.7 -4.43279 28.9711 -4.03151 29.3392 -3.74348C29.6396 -3.50843 29.9978 -3.40165 30.3769 -3.28855L30.7073 -3.18855C32.5084 -2.63973 34.3708 -2.0723 36.1072 -1.20354L36.2133 -1.15128C36.4365 -1.04257 36.6895 -0.919292 36.8652 -0.735445C36.9588 -0.63751 37.0183 -0.520483 37.0372 -0.403061C37.2097 -0.410973 37.3691 -0.414827 37.521 -0.414827C38.1146 -0.414827 38.624 -0.354979 39.1239 -0.226458C39.8959 -0.0280552 40.6768 0.277939 41.4457 0.683271C41.4857 0.682415 41.5264 0.682007 41.5677 0.682007C42.2094 0.682007 43.1185 0.789459 43.6142 0.994917C45.5459 1.7954 46.7836 3.15706 47.8862 5.69468C48.8226 7.84978 49.2207 10.4109 48.9513 12.5459C48.8732 13.1639 48.8014 13.6945 48.7393 14.1542C48.607 15.1321 48.5196 15.7781 48.506 16.2676C48.5004 16.4673 48.4505 16.7199 48.3927 17.0123C48.2707 17.6294 48.1188 18.3974 48.2604 19.1935C48.3037 19.4361 48.3736 20.0869 48.4604 20.9134C49.0815 22.9285 49.347 25.6164 49.1715 28.1112C49.2846 28.6931 49.4286 29.0944 49.6 29.3049C49.7934 29.4326 50.0506 29.7444 50.4674 30.2499C50.6023 30.4135 50.7533 30.5965 50.9224 30.7978C52.1094 32.2109 53.4612 36.1288 53.8743 39.3531C54.0893 41.031 54.1443 44.4003 54.1788 47.4292C54.2274 47.741 54.2751 48.0349 54.3209 48.2977C54.3973 48.7362 54.4844 49.4981 54.5872 50.6267C55.3091 55.2541 55.8751 57.9198 56.2683 58.5411C56.4686 58.8576 56.8749 59.0378 57.3454 59.2465C58.1335 59.5961 59.1144 60.0311 59.6469 61.3437C60.4454 63.3122 62.692 66.591 63.8641 67.4988C64.3139 67.847 64.279 68.1977 64.2182 68.3757C64.0574 68.8467 63.3913 69.1886 62.6344 69.1886C62.1522 69.1886 61.6942 69.0488 61.3099 68.7843C60.8365 68.4584 60.4327 67.9354 60.1083 67.5153C59.9356 67.2914 59.7843 67.0955 59.6657 66.9858C59.6014 67.2593 59.6797 68.2259 59.7557 69.1633C59.9104 71.0719 60.1223 73.6858 59.8025 75.8675C59.6733 76.7491 58.9812 77.6142 58.4053 77.6142C58.3198 77.6142 58.2412 77.5942 58.1719 77.5558C58.2106 78.857 58.1834 80.0116 57.3056 80.0438L57.2854 80.0441C56.6608 80.0441 56.2262 78.9594 55.989 78.1504C55.8516 78.6197 55.5784 78.8792 55.2033 78.8792C55.152 78.8792 55.0983 78.8742 55.0437 78.8643C54.282 78.7256 53.8237 76.9118 53.626 75.9C53.4988 76.0862 53.3107 76.2677 53.0607 76.2677C52.8162 76.2677 52.5731 76.0905 52.3383 75.7411C51.9439 75.1543 51.5446 73.8497 51.1218 72.4685C50.6865 71.0463 50.2365 69.5758 49.7282 68.6139C48.5337 66.353 48.4434 63.6943 48.965 62.3405C49.4351 61.1204 49.7197 60.3428 49.7084 59.8348C49.6692 58.062 48.1072 53.0685 46.9666 49.4224C46.7897 48.8568 46.6223 48.3219 46.4717 47.8342C45.3364 45.2052 44.4865 43.1355 44.1981 42.2971C43.9111 41.4632 43.7282 40.756 43.6387 40.1349C43.5613 39.7387 43.4971 39.3155 43.435 38.9063C43.4166 38.7849 43.3982 38.6636 43.3795 38.543C43.317 38.3524 43.2407 38.0562 43.1466 37.6388C42.7574 37.1924 42.1095 35.623 42.2028 33.6396C42.2785 32.0299 41.3243 28.9948 40.5576 26.556C40.1092 25.1298 39.722 23.8981 39.6476 23.2794C39.6242 23.0851 39.6038 22.9043 39.5863 22.7377C39.5175 23.0119 39.4459 23.2762 39.3719 23.5286C39.1326 24.3454 38.8648 25.339 38.5811 26.3909C38.0472 28.3709 37.4952 30.4183 37.056 31.5769C36.9326 31.9024 36.8237 32.1743 36.7242 32.4228C36.6361 32.6424 36.5555 32.8437 36.4787 33.0478C36.4577 33.6079 36.4579 34.2302 36.4607 34.7139C36.5254 35.1198 36.5266 35.8907 36.4634 36.5587C36.4896 36.9858 36.626 37.3832 36.7579 37.7677C36.8168 37.9392 36.8724 38.1013 36.9174 38.2628C37.0022 38.5357 37.0865 38.9109 37.1666 39.374C37.2715 39.7824 37.2816 39.8289 37.2498 39.8764C37.3245 40.2579 37.5491 41.1694 37.663 41.6313C37.6979 41.7732 37.724 41.8793 37.7351 41.9261C37.8285 42.3227 37.8155 46.6878 37.5206 47.162C37.5728 47.3594 37.6356 47.5926 37.7024 47.8408C37.8776 48.4915 38.0761 49.229 38.1907 49.7117C38.7294 51.3669 39.4631 54.4398 39.432 55.8764C39.4012 57.2895 40.1559 61.7256 40.5541 63.3932C40.8501 64.6329 40.9722 66.8402 41.0528 68.3009L41.0686 68.5836C41.2827 70.1129 41.4283 71.8869 41.4059 72.6989C41.377 73.7508 41.0231 77.0805 40.6331 79.9697C40.6022 80.6337 40.584 81.3906 40.5664 82.1227C40.5251 83.8424 40.4824 85.6206 40.2604 86.6354C39.8187 88.6566 38.8323 91.1641 37.8599 93.5593L37.8592 93.5591C37.7866 94.1376 37.7634 94.6083 37.79 94.9581C37.8549 95.2953 37.9572 95.7289 38.0756 96.2303C38.3549 97.4138 38.7027 98.8867 38.7433 99.9262C38.7989 101.342 38.7788 103.524 38.7028 104.332C38.6967 104.913 38.6839 105.469 38.6674 105.892C38.7664 106.13 38.8195 106.352 38.8296 106.568C38.8349 106.683 38.8372 106.807 38.8396 106.94C38.8507 107.552 38.8659 108.39 39.2286 109.496C39.7167 110.983 39.9122 112.377 39.9853 113.076C40.0772 113.955 40.2192 116.632 40.0253 118.042C39.8406 119.384 39.1961 123.032 38.885 124.09C38.831 124.274 38.7742 124.49 38.7141 124.718C38.5832 125.215 38.435 125.778 38.2584 126.227C37.7113 129.331 36.9322 135.236 36.7684 136.534C36.73 136.837 36.6783 137.134 36.6146 137.415C36.5466 138.667 36.5104 140.32 36.591 141.002C36.689 141.831 36.9158 142.513 37.135 143.173L37.214 143.411C37.4485 144.125 37.3645 144.917 36.9643 145.765C36.6512 146.429 36.8675 147.871 37.401 148.677C37.7836 149.255 38.6716 150.319 39.3201 151.096C39.5733 151.399 39.7921 151.662 39.9295 151.834C40.4625 152.5 40.6088 153.599 40.4423 154.275C40.2767 154.949 40.0064 155.211 39.4784 155.211C39.2326 155.211 39.0177 155.1 38.8449 155.01C38.7291 154.95 38.6197 154.893 38.5454 154.893C38.5322 154.893 38.5207 154.895 38.5102 154.899C38.4274 154.929 38.3713 154.974 38.3063 155.026C38.2001 155.112 38.0798 155.209 37.8479 155.231C37.8338 155.232 37.8198 155.233 37.8058 155.233Z" fill="white" stroke="#28839F" stroke-width="0.7"/>
<path d="M20.151 -11.5405C18.0058 -1.75132 15.1143 -4.46914 8.34338 -1.08145C7.38994 -0.604426 7.17694 -0.350682 7.9478 0.21769C8.71866 0.786062 11.0515 2.37954 11.7615 4.61244C12.4715 6.84534 12.7352 10.6616 13.6684 13.0974C14.6015 15.5333 16.6504 18.8218 17.6241 20.5269C18.5978 22.232 20.1193 25.7844 20.383 26.9414C20.6467 28.0985 21.5393 29.4382 21.6001 28.0376C21.661 26.6369 21.1539 21.1765 21.0321 17.9286C20.9104 14.6808 21.1133 8.93614 21.1539 7.04833C21.1944 5.16051 21.0727 2.52164 21.235 1.2225C21.3973 -0.0766468 21.093 -7.14073 21.0321 -8.56167C20.9713 -9.98259 21.2756 -11.2411 21.1133 -11.9313C20.951 -12.6215 20.3786 -12.5794 20.151 -11.5405Z" fill="#28839F" fill-opacity="0.2"/>
<path d="M0.827643 1.12147C-1.18064 1.95373 -2.35722 3.41527 -3.37151 5.74966C-4.3858 8.08406 -4.66981 10.6011 -4.42638 12.5295C-4.18294 14.458 -4.00037 15.5338 -3.98009 16.2646C-3.9598 16.9954 -3.47294 16.0819 -2.35722 15.0466C-1.2415 14.0114 1.39566 11.6161 1.98394 10.1749C2.57223 8.73363 2.24765 7.2518 3.36338 6.27744C4.47909 5.30308 5.63538 4.00393 6.77139 3.51676C7.90739 3.02959 7.50167 2.29882 6.52795 2.17702C5.55424 2.05523 4.15451 1.01998 3.52566 0.877881C2.8968 0.735784 1.45767 0.860381 0.827643 1.12147Z" fill="#28839F" fill-opacity="0.2"/>
<path d="M9.17543 3.14058C7.95829 3.35373 5.87899 4.35853 5.2907 5.2314C4.72926 6.06441 3.97211 5.97231 3.8504 6.43918C3.72869 6.90606 4.45898 6.86547 4.90527 7.69773C5.35156 8.53 5.57469 9.89004 6.24413 10.702C8.52264 13.4656 9.49493 13.2445 12.2082 14.5182C12.8255 14.808 13.689 15.1272 13.7499 14.7212C13.8107 14.3152 13.5774 13.8179 13.0804 12.9349C12.5834 12.0519 12.2893 9.48405 12.0662 8.3067C11.843 7.12936 11.4677 5.19079 11.0519 4.26718C10.636 3.34358 9.58212 3.06936 9.17543 3.14058Z" fill="#28839F" fill-opacity="0.2"/>
<path d="M3.05895 8.35812C3.32157 8.8498 3.39366 8.79201 3.92616 9.13457C4.45867 9.47711 4.8162 9.92622 4.96074 10.0937C5.10527 10.2612 5.36391 9.83488 5.15852 9.28681C4.95313 8.73873 4.61842 8.17543 4.32174 7.87095C4.02505 7.56645 3.90334 7.19346 3.62188 7.12495C3.34041 7.05645 2.82312 7.91662 3.05895 8.35812Z" fill="#28839F" fill-opacity="0.2"/>
<path d="M7.11622 12.5088C6.59723 12.0127 5.8788 11.1387 5.08765 10.7631C4.2965 10.3876 3.23149 9.06815 2.91707 9.42339C2.60263 9.77862 2.71421 10.824 3.03878 11.6157C3.36336 12.4073 3.71836 13.5035 3.97193 14.3967C4.2255 15.2898 4.94565 16.051 5.71651 16.2845C6.48737 16.5179 8.33337 16.8325 9.55052 16.7108C10.7677 16.589 11.8428 16.0003 12.3094 15.6958C13.4281 14.9657 9.38824 14.6808 7.11622 12.5088Z" fill="#28839F" fill-opacity="0.2"/>
<path d="M13.5267 15.574C12.5924 15.8233 11.9647 16.6296 9.89558 17.0761C8.54891 17.3668 5.73699 17.0355 5.10813 16.8325C4.47926 16.6296 4.05326 17.4009 4.13441 18.0099C4.21554 18.6189 4.45899 21.136 5.1487 23.4906C5.83841 25.8453 6.79185 29.7631 7.46128 31.5291C8.13071 33.2951 8.37415 33.4778 9.003 36.9286C9.63186 40.3795 11.4779 42.3079 11.9647 43.5867C12.4516 44.8656 14.5816 43.7897 14.3585 41.8004C14.1353 39.8111 14.1962 38.3496 15.251 35.7107C16.3059 33.0718 17.4825 30.5547 18.3345 29.1744C19.1865 27.7941 19.4603 26.3528 19.1256 25.1146C18.7909 23.8763 17.9592 22.0291 17.3607 20.9939C16.7623 19.9586 15.3322 17.7968 14.8656 16.9138C14.399 16.0307 14.3077 15.8683 14.1962 15.7161C14.0846 15.5639 13.831 15.4928 13.5267 15.574Z" fill="#28839F" fill-opacity="0.2"/>
<path d="M10.5853 41.8616C11.0088 42.6082 11.4576 43.3637 11.7416 44.2163C12.0256 45.0688 11.4779 45.7793 10.8693 46.0838C10.2607 46.3883 8.91172 46.4086 7.98872 46.6928C7.0657 46.9769 6.70056 47.3829 6.46727 47.322C6.23398 47.2611 6.66488 46.2393 6.93385 45.6981C7.88728 43.7798 9.28601 41.462 9.65215 41.2526C9.86515 41.1308 10.1593 41.1105 10.5853 41.8616Z" fill="#28839F" fill-opacity="0.2"/>
<path d="M8.78627 39.0501C7.89571 39.432 6.96246 41.2157 6.78749 41.9579C6.66373 42.4829 6.60535 43.3596 6.60241 44.0741C6.60045 44.5456 6.50651 44.9964 6.62583 45.0104C7.21159 45.0789 7.40177 43.7848 8.5403 42.1508C8.87346 41.6727 9.25663 40.8364 9.40877 40.542C9.56093 40.2477 9.35428 38.8065 8.78627 39.0501Z" fill="#28839F" fill-opacity="0.2"/>
<path d="M8.20182 37.1769C7.74311 37.6971 7.24649 39.8195 7.26157 39.8111C7.48742 39.6852 7.80835 39.3679 8.09532 39.1256C8.35693 38.9047 8.73432 38.6384 8.71911 38.2273C8.70389 37.8163 8.54414 36.7886 8.20182 37.1769Z" fill="#28839F" fill-opacity="0.2"/>
<path d="M1.92299 11.8597C1.21115 12.9875 -0.440295 15.9855 -1.01845 17.645C-1.59659 19.3044 -1.72845 21.1567 -1.78931 23.349C-1.85016 25.5413 -2.44859 30.8394 -2.17474 32.0573C-1.90088 33.2752 -1.49516 34.1075 -0.612726 33.5594C0.26971 33.0114 1.57814 29.936 2.49099 27.8351C3.40386 25.7341 4.05996 22.0946 3.911 20.6289C3.66758 18.2336 3.68787 17.6856 3.62701 15.412C3.57226 13.3671 2.28815 11.2812 1.92299 11.8597Z" fill="#28839F"/>
<path d="M0.868386 33.3556C0.462203 34.3209 -0.0444798 34.8324 -0.683489 35.2434C-1.32248 35.6545 -1.00299 36.842 -0.318335 37.4966C0.366304 38.1513 0.579315 38.6841 0.746671 38.745C0.914027 38.8059 1.34763 36.4081 1.46174 36.0046C1.57585 35.6012 1.81929 34.33 1.67474 33.9493C1.5302 33.5687 1.29438 32.3432 0.868386 33.3556Z" fill="#28839F" fill-opacity="0.2"/>
<path d="M-1.11849 14.9139C-1.85683 15.3105 -3.1358 15.8417 -3.73664 19.2179C-3.83553 19.7736 -4.08704 22.6078 -4.23918 23.5517C-4.39132 24.4956 -4.37514 27.1782 -4.31017 27.9668C-4.23744 28.8498 -4.34014 30.1794 -4.20321 30.8797C-4.06629 31.58 -3.44249 30.4991 -3.29035 28.9614C-3.13821 27.4238 -2.63106 23.9882 -2.30649 21.06C-2.06781 18.9068 -1.94007 17.6549 -0.606269 15.6452C0.120582 14.5501 -0.119512 14.3773 -1.11849 14.9139Z" fill="#28839F"/>
<path d="M-2.72247 39.1208C-2.72247 40.1241 -3.64547 42.328 -4.08162 43.2618C-4.51777 44.1955 -5.36976 48.4685 -5.66391 49.93C-5.95805 51.3916 -6.6782 56.7099 -7.28678 58.6383C-7.89535 60.5667 -7.97649 61.1351 -7.42878 60.6885C-6.88106 60.242 -5.88706 57.2783 -5.50163 55.9385C-5.1162 54.5988 -1.84003 47.1186 -1.52053 45.7027C-1.20104 44.2869 0.107396 42.6579 0.107396 41.851C0.107396 41.0441 0.0617528 39.5673 -0.835897 38.9888C-1.73353 38.4103 -2.72247 38.0652 -2.72247 39.1208Z" fill="#28839F" fill-opacity="0.2"/>
<path d="M21.0427 48.0318C21.1035 46.9661 21.1339 42.8251 21.0122 41.5767C20.8905 40.3283 21.3926 36.8571 21.1644 35.5478C20.9362 34.2385 21.713 30.7404 21.4382 29.7017C21.2356 28.9357 19.4898 28.9903 18.1722 31.2444C17.5434 32.3203 16.8739 33.7615 16.4277 34.6547C15.9814 35.5478 14.7845 38.9378 15.0888 40.5414C15.3931 42.145 15.0685 43.4239 13.8716 44.4388C12.2472 45.8164 14.2984 46.406 15.5351 46.8443C16.9957 47.3619 18.791 49.6456 19.3082 50.6503C19.8255 51.6552 21.423 52.5229 21.2253 51.1071C21.0275 49.6912 21.0427 48.0318 21.0427 48.0318Z" fill="#28839F" fill-opacity="0.2"/>
<path d="M24.2389 -11.5405C26.3841 -1.75132 29.2755 -4.46914 36.0465 -1.08145C36.9999 -0.604426 37.2129 -0.350682 36.4421 0.21769C35.6712 0.786062 33.3383 2.37954 32.6283 4.61244C31.9183 6.84534 31.6546 10.6616 30.7215 13.0974C29.7883 15.5333 27.7395 18.8218 26.7657 20.5269C25.792 22.232 24.2706 25.7844 24.0069 26.9414C23.7431 28.0985 22.8506 29.4382 22.7897 28.0376C22.7289 26.6369 23.236 21.1765 23.3577 17.9286C23.4794 14.6808 23.2766 8.93614 23.236 7.04833C23.1954 5.16051 23.3171 2.52164 23.1549 1.2225C22.9926 -0.0766468 23.2969 -7.14073 23.3577 -8.56167C23.4186 -9.98259 23.1143 -11.2411 23.2766 -11.9313C23.4389 -12.6215 24.0112 -12.5794 24.2389 -11.5405Z" fill="#28839F" fill-opacity="0.2"/>
<path d="M43.5621 1.12147C45.5704 1.95373 46.747 3.41527 47.7613 5.74966C48.7756 8.08406 49.0596 10.6011 48.8162 12.5295C48.5727 14.458 48.3902 15.5338 48.3699 16.2646C48.3496 16.9954 47.8627 16.0819 46.747 15.0466C45.6313 14.0114 42.9941 11.6161 42.4059 10.1749C41.8176 8.73363 42.1421 7.2518 41.0264 6.27744C39.9107 5.30308 38.7544 4.00393 37.6184 3.51676C36.4824 3.02959 36.8881 2.29882 37.8618 2.17702C38.8355 2.05523 40.2353 1.01998 40.8641 0.877881C41.493 0.735784 42.9321 0.860381 43.5621 1.12147Z" fill="#28839F" fill-opacity="0.2"/>
<path d="M35.2148 3.14058C36.4319 3.35373 38.5112 4.35853 39.0995 5.2314C39.661 6.06441 40.4181 5.97231 40.5398 6.43918C40.6615 6.90606 39.9312 6.86547 39.4849 7.69773C39.0387 8.53 38.8155 9.89004 38.1461 10.702C35.8676 13.4656 34.8953 13.2445 32.1821 14.5182C31.5647 14.808 30.7012 15.1272 30.6403 14.7212C30.5795 14.3152 30.8128 13.8179 31.3098 12.9349C31.8068 12.0519 32.1009 9.48405 32.3241 8.3067C32.5472 7.12936 32.9225 5.19079 33.3384 4.26718C33.7542 3.34358 34.8081 3.06936 35.2148 3.14058Z" fill="#28839F" fill-opacity="0.2"/>
<path d="M41.3306 8.35812C41.068 8.8498 40.9959 8.79201 40.4634 9.13457C39.9309 9.47711 39.5734 9.92622 39.4289 10.0937C39.2843 10.2612 39.0257 9.83488 39.2311 9.28681C39.4365 8.73873 39.7712 8.17543 40.0678 7.87095C40.3645 7.56645 40.4863 7.19346 40.7677 7.12495C41.0492 7.05645 41.5665 7.91662 41.3306 8.35812Z" fill="#28839F" fill-opacity="0.2"/>
<path d="M37.2738 12.5088C37.7928 12.0127 38.5112 11.1387 39.3023 10.7631C40.0935 10.3876 41.1585 9.06815 41.4729 9.42339C41.7874 9.77862 41.6758 10.824 41.3512 11.6157C41.0266 12.4073 40.6716 13.5035 40.4181 14.3967C40.1645 15.2898 39.4444 16.051 38.6735 16.2845C37.9026 16.5179 36.0566 16.8325 34.8395 16.7108C33.6223 16.589 32.5472 16.0003 32.0806 15.6958C30.9618 14.9657 35.0018 14.6808 37.2738 12.5088Z" fill="#28839F" fill-opacity="0.2"/>
<path d="M30.8636 15.574C31.7979 15.8233 32.4256 16.6296 34.4947 17.0761C35.8414 17.3668 38.6533 17.0355 39.2822 16.8325C39.911 16.6296 40.337 17.4009 40.2559 18.0099C40.1747 18.6189 39.9313 21.136 39.2416 23.4906C38.5519 25.8453 37.5985 29.7631 36.929 31.5291C36.2596 33.2951 36.0162 33.4778 35.3873 36.9286C34.7584 40.3795 32.9124 42.3079 32.4256 43.5867C31.9387 44.8656 29.8087 43.7897 30.0319 41.8004C30.255 39.8111 30.1941 38.3496 29.1393 35.7107C28.0844 33.0718 26.9078 30.5547 26.0558 29.1744C25.2038 27.7941 24.93 26.3528 25.2647 25.1146C25.5994 23.8763 26.4311 22.0291 27.0296 20.9939C27.628 19.9586 29.0581 17.7968 29.5247 16.9138C29.9913 16.0307 30.0826 15.8683 30.1941 15.7161C30.3057 15.5639 30.5593 15.4928 30.8636 15.574Z" fill="#28839F" fill-opacity="0.2"/>
<path d="M33.8047 41.8616C33.3812 42.6082 32.9324 43.3637 32.6484 44.2163C32.3644 45.0688 32.9121 45.7793 33.5207 46.0838C34.1293 46.3883 35.4783 46.4086 36.4013 46.6928C37.3243 46.9769 37.6894 47.3829 37.9227 47.322C38.156 47.2611 37.7251 46.2393 37.4561 45.6981C36.5027 43.7798 35.104 41.462 34.7378 41.2526C34.5248 41.1308 34.2307 41.1105 33.8047 41.8616Z" fill="#28839F" fill-opacity="0.2"/>
<path d="M35.604 39.0501C36.4945 39.432 37.4278 41.2157 37.6028 41.9579C37.7265 42.4829 37.7849 43.3596 37.7878 44.0741C37.7898 44.5456 37.8837 44.9964 37.7644 45.0104C37.1787 45.0789 36.9885 43.7848 35.8499 42.1508C35.5168 41.6727 35.1336 40.8364 34.9815 40.542C34.8293 40.2477 35.036 38.8065 35.604 39.0501Z" fill="#28839F" fill-opacity="0.2"/>
<path d="M36.1881 37.1769C36.6468 37.6971 37.1435 39.8195 37.1284 39.8111C36.9025 39.6852 36.5816 39.3679 36.2946 39.1256C36.033 38.9047 35.6556 38.6384 35.6709 38.2273C35.6861 37.8163 35.8458 36.7886 36.1881 37.1769Z" fill="#28839F" fill-opacity="0.2"/>
<path d="M42.4667 11.8597C43.1785 12.9875 44.8299 15.9855 45.4081 17.645C45.9862 19.3044 46.1181 21.1567 46.179 23.349C46.2398 25.5413 46.8382 30.8394 46.5644 32.0573C46.2905 33.2752 45.8848 34.1075 45.0024 33.5594C44.1199 33.0114 42.8115 29.936 41.8987 27.8351C40.9858 25.7341 40.3297 22.0946 40.4786 20.6289C40.7221 18.2336 40.7018 17.6856 40.7626 15.412C40.8174 13.3671 42.1015 11.2812 42.4667 11.8597Z" fill="#28839F"/>
<path d="M43.5218 33.3556C43.928 34.3209 44.4347 34.8324 45.0737 35.2434C45.7127 35.6545 45.3932 36.842 44.7085 37.4966C44.0239 38.1513 43.8109 38.6841 43.6435 38.745C43.4762 38.8059 43.0426 36.4081 42.9285 36.0046C42.8144 35.6012 42.5709 34.33 42.7155 33.9493C42.86 33.5687 43.0958 32.3432 43.5218 33.3556Z" fill="#28839F" fill-opacity="0.2"/>
<path d="M45.5085 14.9139C46.2468 15.3105 47.5258 15.8417 48.1266 19.2179C48.2255 19.7736 48.477 22.6078 48.6292 23.5517C48.7813 24.4956 48.7651 27.1782 48.7002 27.9668C48.6274 28.8498 48.7301 30.1794 48.5932 30.8797C48.4563 31.58 47.8325 30.4991 47.6803 28.9614C47.5282 27.4238 47.0211 23.9882 46.6965 21.06C46.4578 18.9068 46.3301 17.6549 44.9963 15.6452C44.2694 14.5501 44.5095 14.3773 45.5085 14.9139Z" fill="#28839F"/>
<path d="M50.419 31.6302C50.2699 32.3571 49.993 33.2745 49.5061 34.33C49.0193 35.3856 48.3295 36.025 48.3092 36.9486C48.289 37.8722 48.7454 38.6131 48.8164 39.3845C48.8874 40.1558 49.2424 40.4299 49.3641 40.0746C49.4858 39.7194 50.1654 38.6435 50.2567 37.3952C50.348 36.1468 50.7638 35.3653 50.9464 34.6548C51.129 33.9443 50.8348 32.8888 50.7638 32.4625C50.6928 32.0362 50.4887 31.2902 50.419 31.6302Z" fill="#28839F" fill-opacity="0.2"/>
<path d="M52.2444 38.4514C52.2444 40.1018 52.2038 44.2569 52.3661 46.7334C52.5284 49.2099 53.5629 58.5881 53.8672 60.009C54.1715 61.43 53.4412 59.806 53.0558 58.1821C52.6704 56.5582 52.1227 54.508 51.2706 51.8488C50.4186 49.1896 49.6275 45.3328 49.6884 43.9322C49.7492 42.5315 49.7492 40.6031 50.1346 39.71C50.5201 38.8168 50.5809 37.7613 50.7432 37.0508C50.9055 36.3403 51.1388 35.4776 51.2706 35.2645C51.4025 35.0513 51.7068 36.0561 51.9198 36.726C52.1328 37.3959 52.2444 38.3296 52.2444 38.4514Z" fill="#28839F" fill-opacity="0.2"/>
<path d="M47.1121 39.1208C47.1121 40.1241 48.0351 42.328 48.4712 43.2618C48.9074 44.1955 49.7594 48.4685 50.0535 49.93C50.3477 51.3916 51.0678 56.7099 51.6764 58.6383C52.285 60.5667 52.3661 61.1351 51.8184 60.6885C51.2707 60.242 50.2767 57.2783 49.8913 55.9385C49.5058 54.5988 46.2297 47.1186 45.9102 45.7027C45.5907 44.2869 44.2822 42.6579 44.2822 41.851C44.2822 41.0441 44.3279 39.5673 45.2255 38.9888C46.1232 38.4103 47.1121 38.0652 47.1121 39.1208Z" fill="#28839F" fill-opacity="0.2"/>
<path d="M54.8714 59.6334C53.867 57.9583 53.6999 52.2801 53.4717 50.5901C53.2435 48.9003 52.9849 43.8001 52.9696 42.7801C52.9544 41.76 53.137 41.8362 53.3348 42.8105C53.5326 43.7849 53.8977 46.6623 54.1868 48.3217C54.4759 49.9812 54.8106 55.6446 55.0084 56.8778C55.2061 58.111 55.054 59.9379 54.8714 59.6334Z" fill="#28839F" fill-opacity="0.2"/>
<path d="M23.3473 48.0318C23.2864 46.9661 23.256 42.8251 23.3777 41.5767C23.4994 40.3283 22.9974 36.8571 23.2256 35.5478C23.4538 34.2385 22.677 30.7404 22.9517 29.7017C23.1543 28.9357 24.9002 28.9903 26.2177 31.2444C26.8466 32.3203 27.516 33.7615 27.9623 34.6547C28.4086 35.5478 29.6055 38.9378 29.3012 40.5414C28.9969 42.145 29.3215 43.4239 30.5183 44.4388C32.1428 45.8164 30.0916 46.406 28.8549 46.8443C27.3943 47.3619 25.599 49.6456 25.0817 50.6503C24.5644 51.6552 22.9669 52.5229 23.1647 51.1071C23.3625 49.6912 23.3473 48.0318 23.3473 48.0318Z" fill="#28839F" fill-opacity="0.2"/>
</g>
<defs>
<clipPath id="clip0_4055_11735">
<rect width="61" height="48" fill="white"/>
</clipPath>
</defs>
</svg>
