<svg width="61" height="48" viewBox="0 0 61 48" fill="none" xmlns="http://www.w3.org/2000/svg">
<g clip-path="url(#clip0_4055_8484)">
<path d="M12.8855 178.803C12.6191 178.803 12.4039 178.648 12.1958 178.497C12.0232 178.372 11.8601 178.254 11.7037 178.254C11.6766 178.254 11.6503 178.258 11.6232 178.265C11.445 178.311 11.347 178.387 11.2335 178.476C11.0729 178.602 10.891 178.744 10.522 178.744C10.4976 178.744 10.4721 178.743 10.4458 178.742C10.1016 178.725 9.88652 178.58 9.69675 178.452C9.52192 178.334 9.38384 178.24 9.15311 178.24C9.13933 178.24 9.12514 178.241 9.1106 178.241C8.86836 178.253 8.72865 178.335 8.5518 178.439C8.33041 178.569 8.07951 178.716 7.6109 178.742C7.57839 178.744 7.54638 178.745 7.51466 178.745C7.07719 178.745 6.70103 178.577 6.36923 178.43C6.09027 178.306 5.82684 178.188 5.56427 178.183L5.54266 178.182C5.2746 178.182 4.94501 178.291 4.59624 178.407C4.16252 178.55 3.67104 178.713 3.16095 178.713L3.12218 178.713C1.89256 178.693 1.19388 178.06 1.04538 176.83C0.966606 176.178 1.18298 175.473 1.39221 174.79C1.63424 174.001 1.88447 173.185 1.6974 172.436C1.30224 170.854 1.07506 168.819 1.13235 167.373C1.17159 166.38 0.863129 165.042 0.591019 163.862C0.459969 163.294 0.336266 162.757 0.251984 162.274C0.076004 161.267 0.813179 159.499 1.46358 157.94C1.81967 157.086 2.156 156.28 2.22379 155.847C2.37036 154.911 2.20286 149.803 2.11291 147.059L2.09969 146.657C2.02487 146.12 1.94965 145.547 1.87532 144.981C1.67313 143.44 1.48199 141.985 1.31556 141.362L1.1906 140.897C0.747139 139.249 0.0806503 136.772 0.0793839 135.904C-0.0741119 135.504 -0.298012 134.911 -0.527222 134.236C-1.08012 133.555 -1.48212 132.058 -1.72224 129.784C-2.10167 126.191 -1.6828 121.145 -1.24821 119.031C-1.02962 117.967 -0.687485 116.679 -0.385681 115.543C-0.0975571 114.459 0.174644 113.434 0.281387 112.821C0.391304 112.191 0.415916 111.834 0.430664 111.621C0.440208 111.483 0.446678 111.39 0.473869 111.317C0.437141 111.121 0.397598 110.899 0.355164 110.661C0.146683 109.492 -0.138626 107.891 -0.510048 107.063C-0.999397 105.973 -1.64188 102.723 -1.91621 101.335L-1.92558 101.288C-2.01294 100.845 -2.09306 100.104 -2.16376 99.0845C-2.29749 97.9873 -2.33876 96.6677 -2.36605 95.7946L-2.37077 95.6438C-2.38398 95.2292 -2.38389 94.4 -2.29625 94.0912C-2.30772 93.8306 -2.35159 93.5905 -2.4753 93.1011C-2.60431 92.5907 -2.6908 92.0391 -2.79099 91.4005C-2.83968 91.0899 -2.89166 90.7583 -2.95337 90.4011C-3.0173 90.1741 -3.05877 89.948 -3.07593 89.7285C-3.19193 89.1331 -3.27843 88.8519 -3.35479 88.6035C-3.44504 88.31 -3.52354 88.0545 -3.61996 87.4156C-3.74657 87.2407 -3.82323 86.5851 -4.04385 84.1273C-4.13132 83.1524 -4.22186 82.1443 -4.3124 81.3892C-4.3609 80.9853 -4.38974 80.467 -4.39813 79.8482C-4.48396 79.6713 -4.59888 79.4911 -4.7201 79.3011C-4.85606 79.0881 -4.99644 78.8682 -5.12421 78.6133C-5.63711 78.1331 -6.15009 75.4828 -6.2333 74.7604C-6.42114 73.1318 -7.61295 65.9496 -8.30162 63.6598C-9.08778 61.046 -8.54954 55.7784 -8.48551 55.1864C-8.46381 54.9852 -8.44386 54.786 -8.42427 54.5905C-8.34058 53.754 -8.26131 52.9622 -8.07059 52.3536C-8.27067 51.9798 -9.19973 51.8122 -9.65071 51.8122H-9.88618C-10.3337 51.8122 -11.252 51.9773 -11.4653 52.3567C-11.2752 52.9652 -11.196 53.7565 -11.1124 54.5921C-11.093 54.7872 -11.073 54.9858 -11.0514 55.1864C-10.9874 55.7784 -10.449 61.0464 -11.2353 63.6598C-11.924 65.9496 -13.1158 73.1318 -13.3036 74.7604C-13.3868 75.4828 -13.8998 78.1333 -14.4126 78.6133C-14.5403 78.8681 -14.6806 79.0879 -14.8165 79.3008C-14.9378 79.4908 -15.0528 79.6711 -15.1387 79.8482C-15.147 80.4663 -15.1759 80.9845 -15.2245 81.3892C-15.315 82.1445 -15.4056 83.1529 -15.493 84.128C-15.7136 86.5853 -15.7902 87.2409 -15.9168 87.4157C-16.0132 88.0545 -16.0918 88.31 -16.1821 88.6034C-16.2584 88.8518 -16.3449 89.133 -16.4608 89.7286C-16.478 89.9478 -16.5196 90.1743 -16.5879 90.4203C-16.6451 90.758 -16.697 91.0891 -16.7457 91.3995C-16.8459 92.0385 -16.9324 92.5904 -17.0615 93.1011C-17.1647 93.509 -17.2105 93.7365 -17.2304 93.9451C-17.1814 94.157 -17.1753 94.5839 -17.1692 95.2892L-17.1659 95.6354C-17.1558 96.5671 -17.2084 98.0907 -17.3904 99.3183C-17.4558 100.212 -17.5307 100.88 -17.6113 101.288L-17.6197 101.33C-17.8941 102.719 -18.5369 105.971 -19.0268 107.063C-19.3983 107.891 -19.6838 109.493 -19.8921 110.662C-19.9345 110.9 -19.974 111.121 -20.0107 111.317C-19.9835 111.39 -19.9771 111.483 -19.9674 111.621C-19.9528 111.834 -19.9281 112.191 -19.8182 112.821C-19.7114 113.434 -19.4391 114.459 -19.1508 115.545C-18.8491 116.68 -18.5072 117.968 -18.2886 119.031C-17.854 121.145 -17.4352 126.192 -17.8147 129.784C-17.9894 131.438 -18.3511 133.573 -19.0849 134.415C-19.3155 135.104 -19.5115 135.631 -19.6163 135.904C-19.6175 136.772 -20.2846 139.251 -20.7284 140.9L-20.8524 141.362C-21.0187 141.985 -21.2097 143.439 -21.4118 144.978C-21.4862 145.545 -21.5615 146.119 -21.6365 146.657L-21.6499 147.066C-21.7398 149.808 -21.907 154.911 -21.7606 155.847C-21.6928 156.28 -21.3565 157.086 -21.0005 157.94C-20.35 159.499 -19.6129 161.267 -19.7888 162.274C-19.8731 162.757 -19.9968 163.294 -20.1279 163.862C-20.4 165.042 -20.7084 166.38 -20.6692 167.373C-20.6118 168.819 -20.8389 170.854 -21.2342 172.436C-21.4213 173.185 -21.171 174.001 -20.929 174.79C-20.7197 175.473 -20.5033 176.178 -20.5821 176.83C-20.7306 178.06 -21.4294 178.693 -22.659 178.713L-22.6978 178.713C-23.2079 178.713 -23.6994 178.55 -24.1331 178.407C-24.482 178.291 -24.8115 178.182 -25.0795 178.182L-25.1011 178.183C-25.3637 178.188 -25.6271 178.306 -25.906 178.43C-26.2378 178.577 -26.614 178.745 -27.0515 178.745C-27.0832 178.745 -27.1154 178.744 -27.1478 178.742C-27.6164 178.716 -27.8672 178.569 -28.0886 178.439C-28.2655 178.335 -28.4052 178.253 -28.6475 178.241C-28.662 178.241 -28.6761 178.24 -28.69 178.24C-28.9206 178.24 -29.0587 178.334 -29.2335 178.452C-29.4233 178.58 -29.6384 178.725 -29.9826 178.742C-30.009 178.743 -30.0343 178.744 -30.0587 178.744C-30.4278 178.744 -30.6097 178.602 -30.7703 178.476C-30.8839 178.387 -30.9819 178.311 -31.1601 178.265C-31.1872 178.258 -31.2135 178.254 -31.2406 178.254C-31.397 178.254 -31.56 178.372 -31.7326 178.497C-31.9407 178.648 -32.1559 178.803 -32.4223 178.803C-32.4426 178.803 -32.463 178.802 -32.4835 178.8C-32.8199 178.769 -32.9945 178.628 -33.1486 178.503C-33.2429 178.427 -33.3243 178.361 -33.4445 178.318C-33.4597 178.313 -33.4764 178.31 -33.4955 178.31C-33.6033 178.31 -33.7622 178.392 -33.9302 178.48C-34.1808 178.61 -34.4929 178.772 -34.8496 178.772C-35.6157 178.772 -36.0078 178.391 -36.2483 177.414C-36.4898 176.431 -36.2775 174.837 -35.5041 173.87C-35.3044 173.62 -34.9866 173.239 -34.6185 172.798C-33.678 171.671 -32.3897 170.127 -31.8348 169.289C-31.0606 168.12 -30.7467 166.027 -31.2012 165.064C-31.782 163.833 -31.9038 162.684 -31.5635 161.648L-31.4486 161.301C-31.1305 160.345 -30.8015 159.355 -30.6594 158.152C-30.5425 157.163 -30.5951 154.764 -30.6936 152.947C-30.7861 152.538 -30.8612 152.108 -30.9167 151.668C-31.2341 149.154 -32.6788 138.269 -33.4306 134.895C-34.1374 131.722 -35.257 125.907 -35.444 122.89C-35.6091 120.228 -35.4198 118.494 -35.3067 117.457L-35.2813 117.223C-35.2425 116.858 -35.1379 116.152 -35.0661 115.822C-34.9255 115.104 -34.7284 114.438 -34.5546 113.85C-34.4529 113.505 -34.3567 113.18 -34.2831 112.882C-34.2369 112.521 -34.1222 111.698 -34.0014 111.412L-33.9849 111.328C-33.8616 110.702 -33.722 109.992 -33.6505 109.334C-33.6529 108.918 -33.6426 108.527 -33.6192 108.141C-33.7425 106.785 -33.7934 101.663 -33.6335 99.321C-33.529 97.7899 -33.1175 95.5265 -32.7868 93.7078C-32.6104 92.7369 -32.4579 91.8985 -32.4111 91.4771C-32.3539 90.9615 -32.3837 90.232 -32.4994 89.3083L-32.501 89.3043C-33.9118 85.8295 -35.3433 82.1908 -35.9844 79.2575C-36.3064 77.785 -36.3683 75.2043 -36.4282 72.7086C-36.4837 70.3952 -36.5411 68.0032 -36.8095 66.646C-37.3517 63.9051 -37.4283 59.1633 -37.3493 56.8184C-37.3776 56.2914 -37.2951 55.2204 -37.2477 54.7503C-37.2769 54.6593 -37.2675 54.5449 -37.2533 54.432C-37.2163 54.1351 -37.1801 53.4806 -37.1343 52.6521C-37.017 50.5321 -36.84 47.3282 -36.4105 45.5294C-35.8328 43.1098 -34.7375 36.6725 -34.7821 34.6214C-34.8273 32.5371 -33.7627 28.0778 -32.9767 25.66C-32.8144 24.9739 -32.5256 23.9013 -32.2707 22.9549C-32.1326 22.4419 -32.0064 21.9731 -31.9194 21.6366C-31.8666 20.9897 -31.7032 20.3354 -31.5663 19.8363C-31.3792 19.1539 -31.5075 18.3331 -31.6561 17.3827C-31.8191 16.3406 -32.0219 15.0434 -31.8668 13.506C-31.6094 10.9562 -31.3249 9.67868 -31.1316 9.05595C-31.0679 8.82709 -30.9872 8.59186 -30.9017 8.34291C-30.7102 7.78503 -30.5122 7.20821 -30.4742 6.58836C-30.566 5.61904 -30.5643 4.50035 -30.4704 3.91138C-30.4633 2.64941 -30.471 1.23152 -30.5793 0.259789C-30.6174 0.0706711 -30.6537 -0.155121 -30.6848 -0.394798C-30.876 -1.27275 -31.2585 -2.16778 -31.5377 -2.82129C-31.6295 -3.03587 -31.7102 -3.2248 -31.7745 -3.38921C-32.0151 -3.56385 -32.1094 -4.06859 -32.2791 -4.97616C-32.401 -5.62785 -32.5527 -6.43892 -32.8014 -7.27316C-33.2888 -8.90661 -34.2668 -13.1659 -34.6287 -15.3977C-34.6793 -15.414 -34.7276 -15.4227 -34.77 -15.4227C-34.8122 -15.4227 -34.8317 -15.4139 -34.8366 -15.4112C-34.8581 -15.3996 -34.8862 -15.377 -34.9137 -15.3145C-34.8461 -14.9051 -34.9944 -13.5189 -35.0951 -12.682C-35.2031 -11.7841 -35.7651 -9.99664 -36.4156 -7.92686C-37.5282 -4.38796 -38.9129 0.0164566 -38.803 2.35234C-38.656 5.47923 -39.7412 7.8215 -40.3092 8.28597C-40.4189 8.84619 -40.5093 9.44489 -40.5969 10.0247C-40.6852 10.609 -40.7765 11.2131 -40.8884 11.7878C-41.0166 12.6792 -41.2822 13.7054 -41.6985 14.9157C-42.1171 16.1326 -43.3504 19.136 -44.9979 22.9508C-45.2164 23.6582 -45.4591 24.4341 -45.7158 25.2546C-47.371 30.5459 -49.6379 37.7928 -49.6949 40.3656C-49.7112 41.103 -49.2982 42.2313 -48.6161 44.0018C-47.8592 45.9664 -47.9902 49.8247 -49.7237 53.1055C-50.4612 54.5013 -51.1143 56.6351 -51.7459 58.6987C-52.3594 60.7032 -52.939 62.5967 -53.5113 63.4482C-53.8521 63.9552 -54.2048 64.2124 -54.5596 64.2124C-54.9225 64.2124 -55.1954 63.949 -55.3799 63.6786C-55.6669 65.1469 -56.3319 67.7791 -57.4373 67.9803C-57.5164 67.9947 -57.5943 68.002 -57.6688 68.002C-58.2132 68.002 -58.6097 67.6254 -58.8091 66.9443C-59.1533 68.1184 -59.784 69.6924 -60.6904 69.6924L-60.7197 69.6919C-61.9956 69.6452 -62.0332 67.9692 -61.9751 66.0807C-62.0762 66.137 -62.1906 66.1662 -62.3155 66.1662C-63.1511 66.1662 -64.1554 64.9109 -64.3429 63.6316C-64.807 60.4656 -64.4995 56.6728 -64.275 53.9033C-64.1646 52.5425 -64.0509 51.1395 -64.1445 50.7427C-64.3165 50.9018 -64.5359 51.1861 -64.7866 51.5108C-65.2574 52.1207 -65.8433 52.8797 -66.5305 53.3527C-67.0882 53.7365 -67.7527 53.9393 -68.4526 53.9393C-69.5509 53.9393 -70.5174 53.4432 -70.7509 52.7597C-70.8391 52.5014 -70.8896 51.9925 -70.2369 51.4872C-68.5361 50.1699 -65.2761 45.4117 -64.1172 42.5553C-63.3445 40.6505 -61.921 40.0191 -60.7773 39.5118C-60.0945 39.2089 -59.5049 38.9474 -59.2143 38.4882C-58.5426 37.4266 -57.5252 32.2569 -56.1905 23.1227C-56.1368 18.1654 -56.0576 13.1204 -55.7403 10.6435C-55.1408 5.96426 -53.1791 0.278778 -51.4566 -1.77169C-51.2101 -2.06502 -50.9902 -2.33171 -50.7937 -2.57012C-50.1971 -3.29349 -49.8283 -3.74072 -49.5498 -3.93042C-49.3026 -4.26147 -49.0916 -4.88258 -48.9221 -5.7774C-49.307 -11.521 -48.0738 -16.4324 -47.0735 -18.0882L-47.0202 -18.1758C-46.9046 -18.5723 -46.7433 -19.0772 -46.5729 -19.6109L-46.513 -19.7989L-46.4808 -19.9857C-46.214 -21.5344 -46.4124 -23.714 -46.6422 -26.2378C-46.6925 -26.7908 -46.7441 -27.3574 -46.7922 -27.9334C-47.0937 -31.5535 -46.6385 -34.4507 -45.3596 -37.0508C-44.9954 -37.9355 -44.309 -39.0774 -43.6538 -39.8861C-40.7503 -44.976 -34.8703 -47.0889 -32.3645 -47.0889C-32.2012 -47.0889 -32.0536 -47.0791 -31.9252 -47.0597C-31.8643 -47.0628 -31.8 -47.0641 -31.7326 -47.0641C-31.468 -47.0641 -31.1529 -47.0422 -30.8192 -47.0189C-30.4136 -46.9906 -29.9541 -46.9585 -29.4846 -46.9584C-29.2676 -47.1403 -28.788 -47.3077 -27.9149 -47.6026C-27.2919 -47.813 -26.5164 -48.0749 -25.7412 -48.3987C-23.9348 -49.1529 -21.7055 -50.5375 -20.4403 -51.691C-20.0499 -52.047 -19.8068 -52.2349 -19.634 -52.3117C-19.5142 -52.4785 -19.3867 -52.6448 -19.2549 -52.8168C-18.7594 -53.4631 -18.1986 -54.1943 -18.0457 -54.9457C-18.095 -55.3805 -18.1122 -57.7693 -17.9495 -59.3397C-17.9678 -59.5909 -17.9864 -59.7175 -17.9988 -59.7798C-18.0221 -59.8961 -18.0413 -60.0142 -18.0611 -60.136C-18.1518 -60.6933 -18.2546 -61.3249 -18.8523 -62.2161C-19.3624 -62.9769 -19.5038 -64.745 -19.5325 -66.0942C-19.538 -66.355 -19.7506 -66.5671 -20.0063 -66.5671C-20.0396 -66.5671 -20.0733 -66.5635 -20.1065 -66.5562C-20.2585 -66.523 -20.4177 -66.5055 -20.567 -66.5055C-20.9688 -66.5055 -21.3008 -66.6275 -21.527 -66.8583C-21.7604 -67.0964 -21.8746 -67.4385 -21.8663 -67.8753C-21.8372 -69.4017 -22.1475 -70.2873 -22.4212 -71.0686C-22.5593 -71.4626 -22.6897 -71.8347 -22.7682 -72.2536C-22.9076 -72.9978 -22.9924 -73.9985 -22.6051 -74.5394C-22.4528 -74.7521 -22.2438 -74.8788 -21.9837 -74.9159C-21.9202 -74.9251 -21.8546 -74.9296 -21.7891 -74.9296C-21.5735 -74.9296 -21.348 -74.8804 -21.1191 -74.7831C-21.0878 -74.7699 -21.0555 -74.7632 -21.0232 -74.7632C-20.9535 -74.7632 -20.8846 -74.7944 -20.8341 -74.8488C-20.7823 -74.9046 -20.7569 -74.9772 -20.7626 -75.053C-20.9304 -77.286 -21.0836 -82.784 -18.8881 -85.6011C-16.2778 -88.9504 -12.2629 -89.6289 -10.6578 -89.7653C-10.4503 -89.7828 -10.1999 -89.8018 -9.85404 -89.8018C-9.59455 -89.8018 -9.31328 -89.7906 -9.01783 -89.7686C-7.38342 -89.6471 -3.29617 -88.9977 -0.648994 -85.6011C1.54642 -82.784 1.39319 -77.286 1.22541 -75.0529C1.21973 -74.9772 1.24509 -74.9046 1.29687 -74.8487C1.3474 -74.7943 1.41624 -74.7632 1.48595 -74.7632C1.51836 -74.7632 1.55064 -74.7699 1.58198 -74.7831C1.8109 -74.8804 2.03635 -74.9296 2.25185 -74.9296C2.31742 -74.9296 2.383 -74.9251 2.44663 -74.9159C2.7066 -74.8788 2.91554 -74.7521 3.0679 -74.5394C3.45523 -73.9985 3.37037 -72.9978 3.23095 -72.2536C3.15245 -71.8347 3.0221 -71.4627 2.88403 -71.0687C2.61038 -70.2874 2.30008 -69.4018 2.32919 -67.8753C2.33748 -67.4385 2.22331 -67.0963 1.98985 -66.8582C1.76354 -66.6274 1.43156 -66.5055 1.02985 -66.5055C0.880577 -66.5055 0.721291 -66.523 0.569237 -66.5562C0.536057 -66.5634 0.502411 -66.5671 0.469055 -66.5671C0.21344 -66.5671 0.000816345 -66.355 -0.00467682 -66.0941C-0.0334091 -64.7449 -0.174767 -62.977 -0.684853 -62.2161C-1.2824 -61.325 -1.38529 -60.6934 -1.47601 -60.1362C-1.49588 -60.0144 -1.51515 -59.8962 -1.5384 -59.7798C-1.55093 -59.7169 -1.56954 -59.5898 -1.58767 -59.3397C-1.4249 -57.769 -1.44217 -55.3803 -1.49144 -54.9457C-1.33862 -54.1943 -0.777786 -53.463 -0.282272 -52.8168C-0.148445 -52.6423 -0.0192337 -52.4737 0.0971603 -52.3116C0.269859 -52.2346 0.512962 -52.0468 0.903175 -51.691C2.16819 -50.5376 4.39742 -49.153 6.20396 -48.3987C6.97923 -48.0749 7.75466 -47.813 8.37777 -47.6026C9.2509 -47.3076 9.73052 -47.1403 9.94747 -46.9584C10.417 -46.9585 10.8764 -46.9906 11.282 -47.0189C11.6156 -47.0422 11.9308 -47.0641 12.1955 -47.0641C12.2628 -47.0641 12.327 -47.0628 12.388 -47.0597C12.5163 -47.0791 12.664 -47.0889 12.8273 -47.0889C15.3331 -47.0889 21.2131 -44.976 24.1166 -39.8862C24.7719 -39.0772 25.4583 -37.9352 25.8277 -37.039C27.1012 -34.4509 27.5564 -31.5537 27.2549 -27.9334C27.2069 -27.3569 27.1553 -26.7899 27.1049 -26.2364C26.8752 -23.7132 26.6768 -21.5342 26.9437 -19.9857L26.9864 -19.7381L26.9894 -19.7285C27.161 -19.177 27.3234 -18.6555 27.4378 -18.2502L27.5363 -18.0881C28.5476 -16.4143 29.786 -11.4573 29.3786 -5.67036C29.5427 -4.826 29.7517 -4.24368 30.0004 -3.9382C30.281 -3.75285 30.6543 -3.30032 31.2592 -2.56682C31.455 -2.32935 31.6741 -2.06384 31.9194 -1.77177C33.6419 0.278717 35.6036 5.96418 36.2031 10.6434C36.5204 13.1203 36.5996 18.1653 36.6533 23.1226C37.988 32.2568 39.0054 37.4266 39.6772 38.4881C39.9678 38.9474 40.5574 39.2089 41.2402 39.5117C42.384 40.0191 43.8073 40.6504 44.58 42.5552C45.7389 45.4117 48.999 50.1699 50.6999 51.4871C51.3526 51.9925 51.302 52.5014 51.2138 52.7597C50.9804 53.4432 50.0138 53.9392 48.9154 53.9392C48.2156 53.9392 47.551 53.7364 46.9934 53.3527C46.3063 52.8797 45.7204 52.1207 45.2497 51.511C44.999 51.1862 44.7794 50.9019 44.6074 50.7427C44.514 51.1396 44.6277 52.5423 44.738 53.9027C44.9624 56.6723 45.2699 60.4654 44.8059 63.6315C44.6184 64.9107 43.614 66.1662 42.7783 66.1662C42.6536 66.1662 42.5391 66.1369 42.438 66.0806C42.496 67.9691 42.4583 69.6451 41.1825 69.6918L41.1532 69.6923C40.2468 69.6923 39.6162 68.1183 39.2719 66.9442C39.0725 67.6254 38.6761 68.0019 38.1318 68.0019C38.0573 68.0019 37.9793 67.9946 37.9002 67.9802C36.7944 67.779 36.1295 65.1467 35.8427 63.6785C35.6583 63.9489 35.3854 64.2123 35.0226 64.2123C34.6677 64.2123 34.3149 63.9551 33.9741 63.4481C33.4018 62.5966 32.8222 60.7032 32.2088 58.6986C31.5771 56.635 30.924 54.5012 30.1865 53.1054C28.453 49.8246 28.3221 45.9663 29.0789 44.0017C29.7611 42.2311 30.1741 41.1027 30.1577 40.3655C30.1007 37.7928 27.8339 30.5461 26.1788 25.2548C25.9221 24.4342 25.6793 23.6583 25.4608 22.9507C23.8133 19.1357 22.58 16.1323 22.1615 14.9156C21.745 13.7055 21.4795 12.6792 21.3497 11.7779C21.2394 11.2131 21.1481 10.6093 21.06 10.0254C20.9724 9.44527 20.8819 8.84626 20.7721 8.28587C20.204 7.82127 19.119 5.47891 19.2659 2.35222C19.3758 0.0163345 17.9912 -4.38808 16.8785 -7.92716C16.2278 -9.99683 15.666 -11.7842 15.558 -12.6821C15.4573 -13.519 15.3091 -14.9052 15.3767 -15.3146C15.3493 -15.3771 15.3211 -15.3997 15.2996 -15.4113C15.2946 -15.414 15.2752 -15.4228 15.2328 -15.4228C15.1906 -15.4228 15.1422 -15.4141 15.0917 -15.3978C14.73 -13.1668 13.7518 -8.9074 13.2644 -7.27326C13.0155 -6.43892 12.8639 -5.62793 12.7421 -4.97616C12.5724 -4.06859 12.478 -3.56395 12.2374 -3.38931C12.1731 -3.22489 12.0923 -3.03607 12.0007 -2.82149C11.7214 -2.16798 11.3389 -1.27294 11.145 -0.378487C11.1168 -0.156479 11.0805 0.069313 11.0397 0.276093C10.9339 1.23143 10.9262 2.64922 10.9332 3.91119C11.0272 4.50015 11.029 5.61904 10.9372 6.58827C10.9751 7.20811 11.173 7.78483 11.3646 8.34271C11.4501 8.59166 11.5308 8.82679 11.5961 9.06116C11.7879 9.67858 12.0723 10.9564 12.3298 13.5059C12.4849 15.0433 12.282 16.3402 12.1191 17.3824C11.9704 18.3329 11.842 19.1538 12.0293 19.8362C12.1661 20.3351 12.3295 20.9892 12.3823 21.6364C12.4692 21.9723 12.595 22.4399 12.7328 22.9518C12.988 23.8992 13.277 24.9731 13.444 25.6753C14.2256 28.0776 15.2902 32.5368 15.245 34.6213C15.2004 36.6718 16.2956 43.1094 16.8734 45.5292C17.3028 47.3278 17.4799 50.5312 17.5972 52.651C17.643 53.4801 17.6791 54.1349 17.7162 54.4319C17.7304 54.5448 17.7399 54.6593 17.7106 54.7503C17.7581 55.2198 17.8404 56.2903 17.812 56.8351C17.8913 59.1626 17.8148 63.904 17.2724 66.6459C17.004 68.0031 16.9466 70.395 16.8911 72.7082C16.8312 75.204 16.7693 77.7848 16.4473 79.2574C15.8063 82.1904 14.3748 85.8291 12.9637 89.3049L12.9623 89.3086C12.8465 90.2321 12.8168 90.9615 12.874 91.477C12.9208 91.8983 13.0732 92.7366 13.2497 93.7074C13.5804 95.5262 13.9919 97.7897 14.0964 99.3209C14.2568 101.67 14.2051 106.814 14.0813 108.146C14.1053 108.518 14.1159 108.913 14.1135 109.334C14.185 109.993 14.3246 110.702 14.4479 111.329L14.4643 111.412C14.585 111.698 14.6999 112.521 14.7461 112.882C14.8195 113.18 14.9157 113.505 15.0174 113.849C15.2461 114.622 15.5054 115.499 15.6385 116.48C15.6816 116.726 15.7205 117 15.7442 117.223L15.7696 117.457C15.8827 118.493 16.072 120.228 15.9069 122.89C15.72 125.906 14.6004 131.722 13.8934 134.895C13.1408 138.274 11.6968 149.155 11.3797 151.668C11.3241 152.108 11.2491 152.538 11.1566 152.947C11.058 154.764 11.0053 157.162 11.1224 158.152C11.2646 159.355 11.5938 160.345 11.9121 161.303L12.0265 161.648C12.3667 162.684 12.2449 163.833 11.6641 165.064C11.2096 166.027 11.5236 168.12 12.2978 169.289C12.853 170.128 14.1416 171.672 15.0827 172.8C15.4501 173.24 15.7676 173.62 15.9671 173.87C16.7404 174.837 16.9527 176.431 16.7112 177.413C16.4708 178.391 16.0787 178.772 15.3125 178.772C14.9558 178.772 14.6439 178.61 14.3932 178.48C14.2252 178.392 14.0663 178.31 13.9584 178.31C13.9393 178.31 13.9226 178.313 13.9073 178.318C13.7872 178.361 13.7058 178.427 13.6115 178.503C13.4574 178.628 13.2828 178.769 12.9464 178.8C12.9258 178.802 12.9058 178.803 12.8855 178.803Z" fill="white" stroke="#28839F" stroke-width="0.504915"/>
<path d="M15.8975 -30.9551C16.8395 -27.4497 20.8173 -25.7559 24.0555 -15.0188C24.9802 -11.9527 26.1237 -2.24943 26.0867 1.53611C26.0729 2.95053 24.9533 1.15317 24.9533 1.15317C24.9533 1.15317 16.9315 -10.3646 15.9306 -16.1382C14.9298 -21.9117 15.8975 -30.9551 15.8975 -30.9551Z" fill="#28839F" fill-opacity="0.2"/>
<path d="M19.4043 -26.124C20.4116 -24.9503 23.8789 -18.583 24.8187 -14.7671C25.6399 -11.4329 26.957 -3.65809 27.0526 2.75367C27.055 2.9111 27.2736 2.94843 27.3302 2.80151C30.867 -6.38255 28.7202 -15.7473 27.3672 -17.9865C26.2208 -19.8838 23.5992 -23.9737 19.4043 -26.124Z" fill="#28839F" fill-opacity="0.2"/>
<path d="M23.7612 0.88792C24.2856 1.83547 21.9949 3.99565 21.1118 8.07547C20.961 8.77239 19.2867 6.11657 19.4633 2.36077C19.6399 -1.39501 16.0412 -10.3205 15.7541 -12.7065C15.4671 -15.0925 15.5775 -15.3135 15.5775 -15.3135C18.9688 -6.73536 20.7291 -4.5911 23.7612 0.88792Z" fill="#28839F" fill-opacity="0.2"/>
<path d="M29.4136 -3.35346C28.8448 -0.344992 28.0006 4.06973 28.7071 7.01544C29.4136 9.96116 35.36 31.347 36.2432 34.0571C37.1263 36.7672 36.9497 33.9687 36.6553 31.4649C36.3609 28.961 36.5964 15.2635 36.0077 10.6681C35.4189 6.07283 33.476 0.3876 31.7686 -1.64494C30.0612 -3.6775 29.6196 -4.44337 29.4136 -3.35346Z" fill="#28839F" fill-opacity="0.2"/>
<path d="M25.0127 2.56691C27.6503 4.54645 28.1625 7.35369 28.7807 9.5188C29.3989 11.6839 34.5432 30.4849 35.0068 32.4511C35.4705 34.4174 35.625 36.7593 34.9185 35.8534C34.212 34.9477 27.743 16.0583 25.7781 11.949C23.8131 7.83975 22.8329 6.51666 23.2023 4.83511C23.4966 3.49482 24.0412 1.83785 25.0127 2.56691Z" fill="#28839F" fill-opacity="0.2"/>
<path d="M23.1131 7.95707C24.2675 9.90641 30.6786 27.0453 31.7678 31.2871C32.857 35.5289 32.8865 37.2374 32.18 36.8251C31.4734 36.4126 23.5841 18.4438 22.3477 14.85C21.1113 11.2563 21.391 9.78342 21.8031 8.42838C22.2152 7.07336 22.6421 7.16173 23.1131 7.95707Z" fill="#28839F"/>
<path d="M-7.53879 -7.87949C-1.38997 -5.57079 1.34566 -1.95065 1.91811 -0.879749C2.59517 0.386919 2.24457 3.44322 2.05058 3.97331C1.85923 4.49618 0.399365 4.55242 -0.893213 4.27526C-2.7478 3.87759 -6.10372 3.45046 -7.29594 3.30316C-8.48817 3.15588 -9.20941 1.71247 -9.26828 0.357455C-9.32715 -0.997564 -9.3713 -5.26884 -9.26828 -6.1231C-9.16525 -6.97736 -8.64985 -8.29666 -7.53879 -7.87949Z" fill="#28839F" fill-opacity="0.2"/>
<path d="M-7.59043 4.21825C-5.83451 4.02726 -0.304562 5.19032 0.681609 5.66164C1.66778 6.13295 2.44788 7.07558 2.47732 8.31279C2.50675 9.54997 2.1535 11.936 1.82967 12.643C1.50587 13.3499 0.416671 13.998 -1.11411 14.0569C-2.64486 14.1158 -5.82416 14.3515 -7.23718 14.1453C-8.6502 13.9391 -8.98874 12.5546 -9.09176 10.9934C-9.19478 9.43214 -9.26839 7.35542 -9.12121 5.95621C-8.97401 4.55699 -8.26751 4.29188 -7.59043 4.21825Z" fill="#28839F" fill-opacity="0.2"/>
<path d="M9.15226 -2.83053C8.50888 -2.37451 5.22232 -0.621252 4.64826 -0.267771C4.07423 0.0857105 3.78721 1.32292 3.61059 2.75895C3.43396 4.19499 3.542 5.88933 4.14046 6.11707C5.70803 6.71357 9.72761 2.35285 10.2451 1.76477C10.8965 1.02467 11.0289 -0.941595 11.0731 -1.88055C11.1315 -3.12345 10.212 -3.5817 9.15226 -2.83053Z" fill="#28839F" fill-opacity="0.2"/>
<path d="M9.21918 3.53215C8.11526 4.74726 5.49897 6.45946 4.86975 7.00073C4.2405 7.542 4.19634 9.66293 4.20738 10.646C4.21842 11.6292 5.20092 12.3914 5.86326 12.2146C6.52561 12.0379 9.89257 8.80129 10.3452 8.23793C10.7978 7.67455 10.9082 4.75831 10.7205 3.84145C10.5329 2.92461 9.97559 2.69957 9.21918 3.53215Z" fill="#28839F" fill-opacity="0.2"/>
<path d="M-6.6477 15.38C-4.58707 15.3646 -0.451024 15.1444 0.535126 14.9971C1.5213 14.8498 2.375 15.9103 2.15421 17.2947C1.93343 18.6792 1.09444 24.1877 -0.671829 29.7551C-2.4381 35.3225 -3.73336 38.769 -5.47019 40.3302C-7.20702 41.8914 -7.61915 43.7178 -8.48757 43.5852C-9.35598 43.4527 -9.35966 39.951 -9.37069 38.5701C-9.38015 37.3878 -9.48845 18.8044 -9.18303 18.2005C-8.86401 17.5697 -8.23367 17.1677 -7.86385 16.7976C-7.46883 16.4024 -7.63387 15.3874 -6.6477 15.38Z" fill="#28839F" fill-opacity="0.2"/>
<path d="M9.89568 9.28257C8.93033 10.3788 6.73111 12.3019 5.83325 13.112C4.93541 13.9221 3.80204 17.236 3.44879 18.8267C3.09554 20.4174 3.18385 22.4794 3.65486 24.129C4.12587 25.7786 3.5371 26.6034 3.83148 27.9584C4.12586 29.3134 5.71551 30.256 6.36314 29.2545C7.01077 28.253 9.51299 25.1305 11.0732 24.2468C12.6334 23.3631 12.2507 21.3895 11.8386 19.8871C11.4264 18.3848 12.4273 16.4407 12.133 13.5244C11.8386 10.6081 11.4927 9.24206 11.2719 8.74498C11.0511 8.24789 10.5507 8.53877 9.89568 9.28257Z" fill="#28839F" fill-opacity="0.2"/>
<path d="M10.9997 27.9291C10.0042 33.363 9.48755 36.7804 8.42391 41.2437C7.51132 45.0732 6.08359 51.3622 4.80303 55.3831C3.5225 59.4041 1.13802 65.811 -0.098352 70.1853C-1.33475 74.5597 -3.23349 86.4457 -3.41011 87.1968C-3.58674 87.948 -3.85168 83.5736 -4.11663 81.3643C-4.38157 79.155 -4.02831 73.5435 -3.23349 69.7877C-2.43868 66.0319 -1.24644 59.3599 0.563987 55.118C4.14142 46.7361 8.00142 31.3042 9.1157 28.7245C9.36468 28.148 11.2426 26.6035 10.9997 27.9291Z" fill="#28839F" fill-opacity="0.2"/>
<path d="M13.2518 25.7213C14.0467 28.1662 15.0917 32.5848 15.0475 34.6174C15.0034 36.6499 16.0852 43.0789 16.6813 45.5754C17.2775 48.0719 17.3879 53.3963 17.5203 54.4567C17.6528 55.5172 16.6372 53.1753 16.1073 50.9219C15.5774 48.6684 13.3917 41.9301 12.7072 39.7871C12.0228 37.6441 10.6981 32.8941 10.941 31.1267C11.1838 29.3593 11.6254 27.6139 11.515 26.929C11.4046 26.2442 11.7799 25.6182 12.1479 25.1764C12.5159 24.7345 13.2518 25.7213 13.2518 25.7213Z" fill="#28839F" fill-opacity="0.2"/>
<path d="M17.6085 56.6502C17.695 58.858 17.6379 63.7788 17.0786 66.6067C16.5192 69.4346 16.8725 76.3865 16.2543 79.2143C15.6361 82.0422 14.3114 85.4593 12.7807 89.2298C11.2499 93.0003 10.8378 94.0018 10.3079 92.8235C9.77799 91.6453 9.89575 85.9306 10.9555 82.9849C12.0153 80.0392 13.6343 76.5927 14.4292 73.1462C15.224 69.6997 15.7833 64.0145 15.695 62.0998C15.6067 60.1851 15.6656 57.5928 15.3417 55.2952C15.0179 52.9975 14.1477 48.4464 14.2673 48.2697C14.6419 47.716 15.4595 50.0518 15.8127 51.613C16.166 53.1743 16.7989 54.5146 17.0786 55.0595C17.3582 55.6045 17.579 55.899 17.6085 56.6502Z" fill="#28839F" fill-opacity="0.2"/>
<path d="M8.23681 30.1652C7.98394 31.1774 6.22768 36.7599 5.91859 37.5553C5.60949 38.3506 5.06858 35.751 5.27463 33.9099C5.4385 32.4459 5.5543 31.7596 6.86427 30.3751C8.17427 28.9906 8.47233 29.2226 8.23681 30.1652Z" fill="#28839F" fill-opacity="0.2"/>
<path d="M4.98019 34.3959C4.94038 37.025 5.0685 38.9249 5.15681 39.6539C5.24513 40.383 4.80355 42.769 4.27367 43.4539C3.7438 44.1388 2.79442 43.0563 2.19831 40.9353C1.6022 38.8144 1.58012 37.1575 2.02168 36.2517C2.46324 35.3458 3.76588 34.0424 4.31783 33.5121C4.8698 32.9819 5.00227 32.9377 4.98019 34.3959Z" fill="#28839F" fill-opacity="0.2"/>
<path d="M1.44706 38.1806C1.4004 39.4879 1.71201 41.4357 2.41851 42.8643C3.12503 44.293 3.5077 44.7348 3.36052 45.8689C3.21334 47.003 2.74233 48.7263 2.41851 49.2565C2.0947 49.7867 0.681677 46.9736 0.21067 45.6922C-0.260337 44.4108 -1.01099 41.907 -1.02573 40.8907C-1.04044 39.8744 0.00460219 38.7845 0.534478 38.1512C1.06437 37.5179 1.49122 36.9434 1.44706 38.1806Z" fill="#28839F" fill-opacity="0.2"/>
<path d="M2.88987 73.4997C2.80156 71.3788 1.70243 65.6196 2.35997 63.9556C5.92196 54.9417 7.09948 49.3222 10.0689 36.6077C10.5002 34.7607 10.8454 35.8903 11.1311 36.6891C11.8761 38.7731 12.3507 41.6569 12.8252 43.2472C13.4139 45.2208 13.826 49.4185 14.2087 51.5394C14.5914 53.6603 15.1213 59.2424 15.0919 62.8951C15.0624 66.5478 14.1645 72.2625 13.3109 74.619C12.4572 76.9756 10.3082 82.4252 9.39564 85.2531C7.24624 91.9136 5.05998 84.6342 5.0554 84.6145C4.36796 82.4346 2.96699 75.3514 2.88987 73.4997Z" fill="#28839F" fill-opacity="0.2"/>
</g>
<defs>
<clipPath id="clip0_4055_8484">
<rect width="61" height="48" fill="white"/>
</clipPath>
</defs>
</svg>
