<svg width="61" height="48" viewBox="0 0 61 48" fill="none" xmlns="http://www.w3.org/2000/svg">
<g clip-path="url(#clip0_4055_8575)">
<path d="M16.8855 185.803C16.6191 185.803 16.4039 185.648 16.1958 185.497C16.0232 185.372 15.8601 185.254 15.7037 185.254C15.6766 185.254 15.6503 185.258 15.6232 185.265C15.445 185.311 15.347 185.387 15.2335 185.476C15.0729 185.602 14.891 185.744 14.522 185.744C14.4976 185.744 14.4721 185.743 14.4458 185.742C14.1016 185.725 13.8865 185.58 13.6967 185.452C13.5219 185.334 13.3838 185.24 13.1531 185.24C13.1393 185.24 13.1251 185.241 13.1106 185.241C12.8684 185.253 12.7286 185.335 12.5518 185.439C12.3304 185.569 12.0795 185.716 11.6109 185.742C11.5784 185.744 11.5464 185.745 11.5147 185.745C11.0772 185.745 10.701 185.577 10.3692 185.43C10.0903 185.306 9.82684 185.188 9.56427 185.183L9.54266 185.182C9.2746 185.182 8.94501 185.291 8.59624 185.407C8.16252 185.55 7.67104 185.713 7.16095 185.713L7.12218 185.713C5.89256 185.693 5.19388 185.06 5.04538 183.83C4.96661 183.178 5.18298 182.473 5.39221 181.79C5.63424 181.001 5.88447 180.185 5.6974 179.436C5.30224 177.854 5.07506 175.819 5.13235 174.373C5.17159 173.38 4.86313 172.042 4.59102 170.862C4.45997 170.294 4.33627 169.757 4.25198 169.274C4.076 168.267 4.81318 166.499 5.46358 164.94C5.81967 164.086 6.156 163.28 6.22379 162.847C6.37036 161.911 6.20286 156.803 6.11291 154.059L6.09969 153.657C6.02487 153.12 5.94965 152.547 5.87532 151.981C5.67313 150.44 5.48199 148.985 5.31556 148.362L5.1906 147.897C4.74714 146.249 4.08065 143.772 4.07938 142.904C3.92589 142.504 3.70199 141.911 3.47278 141.236C2.91988 140.555 2.51788 139.058 2.27776 136.784C1.89833 133.191 2.3172 128.145 2.75179 126.031C2.97038 124.967 3.31252 123.679 3.61432 122.543C3.90244 121.459 4.17464 120.434 4.28139 119.821C4.3913 119.191 4.41592 118.834 4.43066 118.621C4.44021 118.483 4.44668 118.39 4.47387 118.317C4.43714 118.121 4.3976 117.899 4.35516 117.661C4.14668 116.492 3.86137 114.891 3.48995 114.063C3.0006 112.973 2.35812 109.723 2.08379 108.335L2.07442 108.288C1.98706 107.845 1.90694 107.104 1.83624 106.085C1.70251 104.987 1.66124 103.668 1.63395 102.795L1.62923 102.644C1.61602 102.229 1.61611 101.4 1.70375 101.091C1.69228 100.831 1.64841 100.59 1.5247 100.101C1.39569 99.5907 1.3092 99.0391 1.20901 98.4005C1.16032 98.0899 1.10834 97.7583 1.04663 97.4011C0.982704 97.1741 0.941231 96.948 0.924072 96.7285C0.808075 96.1331 0.721573 95.8519 0.64521 95.6035C0.554962 95.31 0.476463 95.0545 0.380035 94.4156C0.253433 94.2407 0.176773 93.5851 -0.0438538 91.1273C-0.131317 90.1524 -0.221855 89.1443 -0.312401 88.3892C-0.360901 87.9853 -0.38974 87.467 -0.398132 86.8482C-0.483955 86.6713 -0.598885 86.4911 -0.7201 86.3011C-0.856064 86.0881 -0.996445 85.8682 -1.12421 85.6133C-1.63711 85.1331 -2.15009 82.4828 -2.2333 81.7604C-2.42114 80.1318 -3.61295 72.9496 -4.30162 70.6598C-5.08778 68.046 -4.54954 62.7784 -4.48551 62.1864C-4.46381 61.9852 -4.44386 61.786 -4.42427 61.5905C-4.34058 60.754 -4.26131 59.9622 -4.07059 59.3536C-4.27067 58.9798 -5.19973 58.8122 -5.65071 58.8122H-5.88618C-6.33369 58.8122 -7.25195 58.9773 -7.46535 59.3567C-7.2752 59.9652 -7.19602 60.7565 -7.11243 61.5921C-7.09296 61.7872 -7.073 61.9858 -7.05139 62.1864C-6.98737 62.7784 -6.44902 68.0464 -7.23528 70.6598C-7.92395 72.9496 -9.11578 80.1318 -9.3036 81.7604C-9.38682 82.4828 -9.89979 85.1333 -10.4126 85.6133C-10.5403 85.8681 -10.6806 86.0879 -10.8165 86.3008C-10.9378 86.4908 -11.0528 86.6711 -11.1387 86.8482C-11.147 87.4663 -11.1759 87.9845 -11.2245 88.3892C-11.315 89.1445 -11.4056 90.1529 -11.493 91.128C-11.7136 93.5853 -11.7902 94.2409 -11.9168 94.4157C-12.0132 95.0545 -12.0918 95.31 -12.1821 95.6034C-12.2584 95.8518 -12.3449 96.133 -12.4608 96.7286C-12.478 96.9478 -12.5196 97.1743 -12.5879 97.4203C-12.6451 97.758 -12.697 98.0891 -12.7457 98.3995C-12.8459 99.0385 -12.9324 99.5904 -13.0615 100.101C-13.1647 100.509 -13.2105 100.736 -13.2304 100.945C-13.1814 101.157 -13.1753 101.584 -13.1692 102.289L-13.1659 102.635C-13.1558 103.567 -13.2084 105.091 -13.3904 106.318C-13.4558 107.212 -13.5307 107.88 -13.6113 108.288L-13.6197 108.33C-13.8941 109.719 -14.5369 112.971 -15.0268 114.063C-15.3983 114.891 -15.6838 116.493 -15.8921 117.662C-15.9345 117.9 -15.974 118.121 -16.0107 118.317C-15.9835 118.39 -15.9771 118.483 -15.9674 118.621C-15.9528 118.834 -15.9281 119.191 -15.8182 119.821C-15.7114 120.434 -15.4391 121.459 -15.1508 122.545C-14.8491 123.68 -14.5072 124.968 -14.2886 126.031C-13.854 128.145 -13.4352 133.192 -13.8147 136.784C-13.9894 138.438 -14.3511 140.573 -15.0849 141.415C-15.3155 142.104 -15.5115 142.631 -15.6163 142.904C-15.6175 143.772 -16.2846 146.251 -16.7284 147.9L-16.8524 148.362C-17.0187 148.985 -17.2097 150.439 -17.4118 151.978C-17.4862 152.545 -17.5615 153.119 -17.6365 153.657L-17.6499 154.066C-17.7398 156.808 -17.907 161.911 -17.7606 162.847C-17.6928 163.28 -17.3565 164.086 -17.0005 164.94C-16.35 166.499 -15.6129 168.267 -15.7888 169.274C-15.8731 169.757 -15.9968 170.294 -16.1279 170.862C-16.4 172.042 -16.7084 173.38 -16.6692 174.373C-16.6118 175.819 -16.8389 177.854 -17.2342 179.436C-17.4213 180.185 -17.171 181.001 -16.929 181.79C-16.7197 182.473 -16.5033 183.178 -16.5821 183.83C-16.7306 185.06 -17.4294 185.693 -18.659 185.713L-18.6978 185.713C-19.2079 185.713 -19.6994 185.55 -20.1331 185.407C-20.482 185.291 -20.8115 185.182 -21.0795 185.182L-21.1011 185.183C-21.3637 185.188 -21.6271 185.306 -21.906 185.43C-22.2378 185.577 -22.614 185.745 -23.0515 185.745C-23.0832 185.745 -23.1154 185.744 -23.1478 185.742C-23.6164 185.716 -23.8672 185.569 -24.0886 185.439C-24.2655 185.335 -24.4052 185.253 -24.6475 185.241C-24.662 185.241 -24.6761 185.24 -24.69 185.24C-24.9206 185.24 -25.0587 185.334 -25.2335 185.452C-25.4233 185.58 -25.6384 185.725 -25.9826 185.742C-26.009 185.743 -26.0343 185.744 -26.0587 185.744C-26.4278 185.744 -26.6097 185.602 -26.7703 185.476C-26.8839 185.387 -26.9819 185.311 -27.1601 185.265C-27.1872 185.258 -27.2135 185.254 -27.2406 185.254C-27.397 185.254 -27.56 185.372 -27.7326 185.497C-27.9407 185.648 -28.1559 185.803 -28.4223 185.803C-28.4426 185.803 -28.463 185.802 -28.4835 185.8C-28.8199 185.769 -28.9945 185.628 -29.1486 185.503C-29.2429 185.427 -29.3243 185.361 -29.4445 185.318C-29.4597 185.313 -29.4764 185.31 -29.4955 185.31C-29.6033 185.31 -29.7622 185.392 -29.9302 185.48C-30.1808 185.61 -30.4929 185.772 -30.8496 185.772C-31.6157 185.772 -32.0078 185.391 -32.2483 184.414C-32.4898 183.431 -32.2775 181.837 -31.5041 180.87C-31.3044 180.62 -30.9866 180.239 -30.6185 179.798C-29.678 178.671 -28.3897 177.127 -27.8348 176.289C-27.0606 175.12 -26.7467 173.027 -27.2012 172.064C-27.782 170.833 -27.9038 169.684 -27.5635 168.648L-27.4486 168.301C-27.1305 167.345 -26.8015 166.355 -26.6594 165.152C-26.5425 164.163 -26.5951 161.764 -26.6936 159.947C-26.7861 159.538 -26.8612 159.108 -26.9167 158.668C-27.2341 156.154 -28.6788 145.269 -29.4306 141.895C-30.1374 138.722 -31.257 132.907 -31.444 129.89C-31.6091 127.228 -31.4198 125.494 -31.3067 124.457L-31.2813 124.223C-31.2425 123.858 -31.1379 123.152 -31.0661 122.822C-30.9255 122.104 -30.7284 121.438 -30.5546 120.85C-30.4529 120.505 -30.3567 120.18 -30.2831 119.882C-30.2369 119.521 -30.1222 118.698 -30.0014 118.412L-29.9849 118.328C-29.8616 117.702 -29.722 116.992 -29.6505 116.334C-29.6529 115.918 -29.6426 115.527 -29.6192 115.141C-29.7425 113.785 -29.7934 108.663 -29.6335 106.321C-29.529 104.79 -29.1175 102.527 -28.7868 100.708C-28.6104 99.7369 -28.4579 98.8985 -28.4111 98.4771C-28.3539 97.9615 -28.3837 97.232 -28.4994 96.3083L-28.501 96.3043C-29.9118 92.8295 -31.3433 89.1908 -31.9844 86.2575C-32.3064 84.785 -32.3683 82.2043 -32.4282 79.7086C-32.4837 77.3952 -32.5411 75.0032 -32.8095 73.646C-33.3517 70.9051 -33.4283 66.1633 -33.3493 63.8184C-33.3776 63.2914 -33.2951 62.2204 -33.2477 61.7503C-33.2769 61.6593 -33.2675 61.5449 -33.2533 61.432C-33.2163 61.1351 -33.1801 60.4806 -33.1343 59.6521C-33.017 57.5321 -32.84 54.3282 -32.4105 52.5294C-31.8328 50.1098 -30.7375 43.6725 -30.7821 41.6214C-30.8273 39.5371 -29.7627 35.0778 -28.9767 32.66C-28.8144 31.9739 -28.5256 30.9013 -28.2707 29.9549C-28.1326 29.4419 -28.0064 28.9731 -27.9194 28.6366C-27.8666 27.9897 -27.7032 27.3354 -27.5663 26.8363C-27.3792 26.1539 -27.5075 25.3331 -27.6561 24.3827C-27.8191 23.3406 -28.0219 22.0434 -27.8668 20.506C-27.6094 17.9562 -27.3249 16.6787 -27.1316 16.056C-27.0679 15.8271 -26.9872 15.5919 -26.9017 15.3429C-26.7102 14.785 -26.5122 14.2082 -26.4742 13.5884C-26.566 12.619 -26.5643 11.5004 -26.4704 10.9114C-26.4633 9.64941 -26.471 8.23152 -26.5793 7.25979C-26.6174 7.07067 -26.6537 6.84488 -26.6848 6.6052C-26.876 5.72725 -27.2585 4.83222 -27.5377 4.17871C-27.6295 3.96413 -27.7102 3.7752 -27.7745 3.61079C-28.0151 3.43615 -28.1094 2.93141 -28.2791 2.02384C-28.401 1.37215 -28.5527 0.561081 -28.8014 -0.273163C-29.2888 -1.90661 -30.2668 -6.16589 -30.6287 -8.39768C-30.6793 -8.41398 -30.7276 -8.42268 -30.77 -8.42268C-30.8122 -8.42268 -30.8317 -8.41389 -30.8366 -8.41119C-30.8581 -8.39961 -30.8862 -8.37703 -30.9137 -8.31451C-30.8461 -7.90511 -30.9944 -6.51886 -31.0951 -5.68201C-31.2031 -4.7841 -31.7651 -2.99664 -32.4156 -0.926865C-33.5282 2.61204 -34.9129 7.01646 -34.803 9.35234C-34.656 12.4792 -35.7412 14.8215 -36.3092 15.286C-36.4189 15.8462 -36.5093 16.4449 -36.5969 17.0247C-36.6852 17.609 -36.7765 18.2131 -36.8884 18.7878C-37.0166 19.6792 -37.2822 20.7054 -37.6985 21.9157C-38.1171 23.1326 -39.3504 26.136 -40.9979 29.9508C-41.2164 30.6582 -41.4591 31.4341 -41.7158 32.2546C-43.371 37.5459 -45.6379 44.7928 -45.6949 47.3656C-45.7112 48.103 -45.2982 49.2313 -44.6161 51.0018C-43.8592 52.9664 -43.9902 56.8247 -45.7237 60.1055C-46.4612 61.5013 -47.1143 63.6351 -47.7459 65.6987C-48.3594 67.7032 -48.939 69.5967 -49.5113 70.4482C-49.8521 70.9552 -50.2048 71.2124 -50.5596 71.2124C-50.9225 71.2124 -51.1954 70.949 -51.3799 70.6786C-51.6669 72.1469 -52.3319 74.7791 -53.4373 74.9803C-53.5164 74.9947 -53.5943 75.002 -53.6688 75.002C-54.2132 75.002 -54.6097 74.6254 -54.8091 73.9443C-55.1533 75.1184 -55.784 76.6924 -56.6904 76.6924L-56.7197 76.6919C-57.9956 76.6452 -58.0332 74.9692 -57.9751 73.0807C-58.0762 73.137 -58.1906 73.1662 -58.3155 73.1662C-59.1511 73.1662 -60.1554 71.9109 -60.3429 70.6316C-60.807 67.4656 -60.4995 63.6728 -60.275 60.9033C-60.1646 59.5425 -60.0509 58.1395 -60.1445 57.7427C-60.3165 57.9018 -60.5359 58.1861 -60.7866 58.5108C-61.2574 59.1207 -61.8433 59.8797 -62.5305 60.3527C-63.0882 60.7365 -63.7527 60.9393 -64.4526 60.9393C-65.5509 60.9393 -66.5174 60.4432 -66.7509 59.7597C-66.8391 59.5014 -66.8896 58.9925 -66.2369 58.4872C-64.5361 57.1699 -61.2761 52.4117 -60.1172 49.5553C-59.3445 47.6505 -57.921 47.0191 -56.7773 46.5118C-56.0945 46.2089 -55.5049 45.9474 -55.2143 45.4882C-54.5426 44.4266 -53.5252 39.2569 -52.1905 30.1227C-52.1368 25.1654 -52.0576 20.1204 -51.7403 17.6435C-51.1408 12.9643 -49.1791 7.27878 -47.4566 5.22831C-47.2101 4.93498 -46.9902 4.66829 -46.7937 4.42988C-46.1971 3.70651 -45.8283 3.25928 -45.5498 3.06958C-45.3026 2.73853 -45.0916 2.11742 -44.9221 1.2226C-45.307 -4.52097 -44.0738 -9.43242 -43.0735 -11.0882L-43.0202 -11.1758C-42.9046 -11.5723 -42.7433 -12.0772 -42.5729 -12.6109L-42.513 -12.7989L-42.4808 -12.9857C-42.214 -14.5344 -42.4124 -16.714 -42.6422 -19.2378C-42.6925 -19.7908 -42.7441 -20.3574 -42.7922 -20.9334C-43.0937 -24.5535 -42.6385 -27.4507 -41.3596 -30.0508C-40.9954 -30.9355 -40.309 -32.0774 -39.6538 -32.8861C-36.7503 -37.976 -30.8703 -40.0889 -28.3645 -40.0889C-28.2012 -40.0889 -28.0536 -40.0791 -27.9252 -40.0597C-27.8643 -40.0628 -27.8 -40.0641 -27.7326 -40.0641C-27.468 -40.0641 -27.1529 -40.0422 -26.8192 -40.0189C-26.4136 -39.9906 -25.9541 -39.9585 -25.4846 -39.9584C-25.2676 -40.1403 -24.788 -40.3077 -23.9149 -40.6026C-23.2919 -40.813 -22.5164 -41.0749 -21.7412 -41.3987C-19.9348 -42.1529 -17.7055 -43.5375 -16.4403 -44.691C-16.0499 -45.047 -15.8068 -45.2349 -15.634 -45.3117C-15.5142 -45.4785 -15.3867 -45.6448 -15.2549 -45.8168C-14.7594 -46.4631 -14.1986 -47.1943 -14.0457 -47.9457C-14.095 -48.3805 -14.1122 -50.7693 -13.9495 -52.3397C-13.9678 -52.5909 -13.9864 -52.7175 -13.9988 -52.7798C-14.0221 -52.8961 -14.0413 -53.0142 -14.0611 -53.136C-14.1518 -53.6933 -14.2546 -54.3249 -14.8523 -55.2161C-15.3624 -55.9769 -15.5038 -57.745 -15.5325 -59.0942C-15.538 -59.355 -15.7506 -59.5671 -16.0063 -59.5671C-16.0396 -59.5671 -16.0733 -59.5635 -16.1065 -59.5562C-16.2585 -59.523 -16.4177 -59.5055 -16.567 -59.5055C-16.9688 -59.5055 -17.3008 -59.6275 -17.527 -59.8583C-17.7604 -60.0964 -17.8746 -60.4385 -17.8663 -60.8753C-17.8372 -62.4017 -18.1475 -63.2873 -18.4212 -64.0686C-18.5593 -64.4626 -18.6897 -64.8347 -18.7682 -65.2536C-18.9076 -65.9978 -18.9924 -66.9985 -18.6051 -67.5394C-18.4528 -67.7521 -18.2438 -67.8788 -17.9837 -67.9159C-17.9202 -67.9251 -17.8546 -67.9296 -17.7891 -67.9296C-17.5735 -67.9296 -17.348 -67.8804 -17.1191 -67.7831C-17.0878 -67.7699 -17.0555 -67.7632 -17.0232 -67.7632C-16.9535 -67.7632 -16.8846 -67.7944 -16.8341 -67.8488C-16.7823 -67.9046 -16.7569 -67.9772 -16.7626 -68.053C-16.9304 -70.286 -17.0836 -75.784 -14.8881 -78.6011C-12.2778 -81.9504 -8.26294 -82.6289 -6.65783 -82.7653C-6.45032 -82.7828 -6.19992 -82.8018 -5.85404 -82.8018C-5.59455 -82.8018 -5.31328 -82.7906 -5.01783 -82.7686C-3.38342 -82.6471 0.703835 -81.9977 3.35101 -78.6011C5.54642 -75.784 5.39319 -70.286 5.22541 -68.0529C5.21973 -67.9772 5.24509 -67.9046 5.29687 -67.8487C5.3474 -67.7943 5.41624 -67.7632 5.48595 -67.7632C5.51836 -67.7632 5.55064 -67.7699 5.58198 -67.7831C5.8109 -67.8804 6.03635 -67.9296 6.25185 -67.9296C6.31742 -67.9296 6.383 -67.9251 6.44663 -67.9159C6.7066 -67.8788 6.91554 -67.7521 7.0679 -67.5394C7.45523 -66.9985 7.37037 -65.9978 7.23095 -65.2536C7.15245 -64.8347 7.0221 -64.4627 6.88403 -64.0687C6.61038 -63.2874 6.30008 -62.4018 6.32919 -60.8753C6.33748 -60.4385 6.22331 -60.0963 5.98985 -59.8582C5.76354 -59.6274 5.43156 -59.5055 5.02985 -59.5055C4.88058 -59.5055 4.72129 -59.523 4.56924 -59.5562C4.53606 -59.5634 4.50241 -59.5671 4.46906 -59.5671C4.21344 -59.5671 4.00082 -59.355 3.99532 -59.0941C3.96659 -57.7449 3.82523 -55.977 3.31515 -55.2161C2.7176 -54.325 2.61471 -53.6934 2.52399 -53.1362C2.50412 -53.0144 2.48485 -52.8962 2.4616 -52.7798C2.44907 -52.7169 2.43046 -52.5898 2.41233 -52.3397C2.5751 -50.769 2.55783 -48.3803 2.50856 -47.9457C2.66138 -47.1943 3.22221 -46.463 3.71773 -45.8168C3.85155 -45.6423 3.98077 -45.4737 4.09716 -45.3116C4.26986 -45.2346 4.51296 -45.0468 4.90318 -44.691C6.16819 -43.5376 8.39742 -42.153 10.204 -41.3987C10.9792 -41.0749 11.7547 -40.813 12.3778 -40.6026C13.2509 -40.3076 13.7305 -40.1403 13.9475 -39.9584C14.417 -39.9585 14.8764 -39.9906 15.282 -40.0189C15.6156 -40.0422 15.9308 -40.0641 16.1955 -40.0641C16.2628 -40.0641 16.327 -40.0628 16.388 -40.0597C16.5163 -40.0791 16.664 -40.0889 16.8273 -40.0889C19.3331 -40.0889 25.2131 -37.976 28.1166 -32.8862C28.7719 -32.0772 29.4583 -30.9352 29.8277 -30.039C31.1012 -27.4509 31.5564 -24.5537 31.2549 -20.9334C31.2069 -20.3569 31.1553 -19.7899 31.1049 -19.2364C30.8752 -16.7132 30.6768 -14.5342 30.9437 -12.9857L30.9864 -12.7381L30.9894 -12.7285C31.161 -12.177 31.3234 -11.6555 31.4378 -11.2502L31.5363 -11.0881C32.5476 -9.41433 33.786 -4.45734 33.3786 1.32964C33.5427 2.174 33.7517 2.75632 34.0004 3.0618C34.281 3.24715 34.6543 3.69968 35.2592 4.43318C35.455 4.67065 35.6741 4.93616 35.9194 5.22823C37.6419 7.27872 39.6036 12.9642 40.2031 17.6434C40.5204 20.1203 40.5996 25.1653 40.6533 30.1226C41.988 39.2568 43.0054 44.4266 43.6772 45.4881C43.9678 45.9474 44.5574 46.2089 45.2402 46.5117C46.384 47.0191 47.8073 47.6504 48.58 49.5552C49.7389 52.4117 52.999 57.1699 54.6999 58.4871C55.3526 58.9925 55.302 59.5014 55.2138 59.7597C54.9804 60.4432 54.0138 60.9392 52.9154 60.9392C52.2156 60.9392 51.551 60.7364 50.9934 60.3527C50.3063 59.8797 49.7204 59.1207 49.2497 58.511C48.999 58.1862 48.7794 57.9019 48.6074 57.7427C48.514 58.1396 48.6277 59.5423 48.738 60.9027C48.9624 63.6723 49.2699 67.4654 48.8059 70.6315C48.6184 71.9107 47.614 73.1662 46.7783 73.1662C46.6536 73.1662 46.5391 73.1369 46.438 73.0806C46.496 74.9691 46.4583 76.6451 45.1825 76.6918L45.1532 76.6923C44.2468 76.6923 43.6162 75.1183 43.2719 73.9442C43.0725 74.6254 42.6761 75.0019 42.1318 75.0019C42.0573 75.0019 41.9793 74.9946 41.9002 74.9802C40.7944 74.779 40.1295 72.1467 39.8427 70.6785C39.6583 70.9489 39.3854 71.2123 39.0226 71.2123C38.6677 71.2123 38.3149 70.9551 37.9741 70.4481C37.4018 69.5966 36.8222 67.7032 36.2088 65.6986C35.5771 63.635 34.924 61.5012 34.1865 60.1054C32.453 56.8246 32.3221 52.9663 33.0789 51.0017C33.7611 49.2311 34.1741 48.1027 34.1577 47.3655C34.1007 44.7928 31.8339 37.5461 30.1788 32.2548C29.9221 31.4342 29.6793 30.6583 29.4608 29.9507C27.8133 26.1357 26.58 23.1323 26.1615 21.9156C25.745 20.7055 25.4795 19.6792 25.3497 18.7779C25.2394 18.2131 25.1481 17.6093 25.06 17.0254C24.9724 16.4453 24.8819 15.8463 24.7721 15.2859C24.204 14.8213 23.119 12.4789 23.2659 9.35222C23.3758 7.01633 21.9912 2.61192 20.8785 -0.927162C20.2278 -2.99683 19.666 -4.78419 19.558 -5.6821C19.4573 -6.51895 19.3091 -7.9052 19.3767 -8.31461C19.3493 -8.37713 19.3211 -8.39971 19.2996 -8.41129C19.2946 -8.414 19.2752 -8.42277 19.2328 -8.42277C19.1906 -8.42277 19.1422 -8.4141 19.0917 -8.39777C18.73 -6.16678 17.7518 -1.9074 17.2644 -0.273262C17.0155 0.561081 16.8639 1.37207 16.7421 2.02384C16.5724 2.93141 16.478 3.43605 16.2374 3.61069C16.1731 3.77511 16.0923 3.96393 16.0007 4.17851C15.7214 4.83202 15.3389 5.72706 15.145 6.62151C15.1168 6.84352 15.0805 7.06931 15.0397 7.27609C14.9339 8.23143 14.9262 9.64922 14.9332 10.9112C15.0272 11.5002 15.029 12.619 14.9372 13.5883C14.9751 14.2081 15.173 14.7848 15.3646 15.3427C15.4501 15.5917 15.5308 15.8268 15.5961 16.0612C15.7879 16.6786 16.0723 17.9564 16.3298 20.5059C16.4849 22.0433 16.282 23.3402 16.1191 24.3824C15.9704 25.3329 15.842 26.1538 16.0293 26.8362C16.1661 27.3351 16.3295 27.9892 16.3823 28.6364C16.4692 28.9723 16.595 29.4399 16.7328 29.9518C16.988 30.8992 17.277 31.9731 17.444 32.6753C18.2256 35.0776 19.2902 39.5368 19.245 41.6213C19.2004 43.6718 20.2956 50.1094 20.8734 52.5292C21.3028 54.3278 21.4799 57.5312 21.5972 59.651C21.643 60.4801 21.6791 61.1349 21.7162 61.4319C21.7304 61.5448 21.7399 61.6593 21.7106 61.7503C21.7581 62.2198 21.8404 63.2903 21.812 63.8351C21.8913 66.1626 21.8148 70.904 21.2724 73.6459C21.004 75.0031 20.9466 77.395 20.8911 79.7082C20.8312 82.204 20.7693 84.7848 20.4473 86.2574C19.8063 89.1904 18.3748 92.8291 16.9637 96.3049L16.9623 96.3086C16.8465 97.2321 16.8168 97.9615 16.874 98.477C16.9208 98.8983 17.0732 99.7366 17.2497 100.707C17.5804 102.526 17.9919 104.79 18.0964 106.321C18.2568 108.67 18.2051 113.814 18.0813 115.146C18.1053 115.518 18.1159 115.913 18.1135 116.334C18.185 116.993 18.3246 117.702 18.4479 118.329L18.4643 118.412C18.585 118.698 18.6999 119.521 18.7461 119.882C18.8195 120.18 18.9157 120.505 19.0174 120.849C19.2461 121.622 19.5054 122.499 19.6385 123.48C19.6816 123.726 19.7205 124 19.7442 124.223L19.7696 124.457C19.8827 125.493 20.072 127.228 19.9069 129.89C19.72 132.906 18.6004 138.722 17.8934 141.895C17.1408 145.274 15.6968 156.155 15.3797 158.668C15.3241 159.108 15.2491 159.538 15.1566 159.947C15.058 161.764 15.0053 164.162 15.1224 165.152C15.2646 166.355 15.5938 167.345 15.9121 168.303L16.0265 168.648C16.3667 169.684 16.2449 170.833 15.6641 172.064C15.2096 173.027 15.5236 175.12 16.2978 176.289C16.853 177.128 18.1416 178.672 19.0827 179.8C19.4501 180.24 19.7676 180.62 19.9671 180.87C20.7404 181.837 20.9527 183.431 20.7112 184.413C20.4708 185.391 20.0787 185.772 19.3125 185.772C18.9558 185.772 18.6439 185.61 18.3932 185.48C18.2252 185.392 18.0663 185.31 17.9584 185.31C17.9393 185.31 17.9226 185.313 17.9073 185.318C17.7872 185.361 17.7058 185.427 17.6115 185.503C17.4574 185.628 17.2828 185.769 16.9464 185.8C16.9258 185.802 16.9058 185.803 16.8855 185.803Z" fill="white" stroke="#28839F" stroke-width="0.504915"/>
<path d="M19.8975 -23.9551C20.8395 -20.4497 24.8173 -18.7559 28.0555 -8.01879C28.9802 -4.9527 30.1237 4.75057 30.0867 8.53611C30.0729 9.95053 28.9533 8.15317 28.9533 8.15317C28.9533 8.15317 20.9315 -3.36457 19.9306 -9.13816C18.9298 -14.9117 19.8975 -23.9551 19.8975 -23.9551Z" fill="#28839F" fill-opacity="0.2"/>
<path d="M23.4043 -19.124C24.4116 -17.9503 27.8789 -11.583 28.8187 -7.76707C29.6399 -4.43286 30.957 3.34191 31.0526 9.75367C31.055 9.9111 31.2736 9.94843 31.3302 9.80151C34.867 0.617449 32.7202 -8.7473 31.3672 -10.9865C30.2208 -12.8838 27.5992 -16.9737 23.4043 -19.124Z" fill="#28839F" fill-opacity="0.2"/>
<path d="M27.7612 7.88792C28.2856 8.83547 25.9949 10.9956 25.1118 15.0755C24.961 15.7724 23.2867 13.1166 23.4633 9.36077C23.6399 5.60499 20.0412 -3.32051 19.7541 -5.70653C19.4671 -8.09255 19.5775 -8.31348 19.5775 -8.31348C22.9688 0.264635 24.7291 2.4089 27.7612 7.88792Z" fill="#28839F" fill-opacity="0.2"/>
<path d="M33.4136 3.64654C32.8448 6.65501 32.0006 11.0697 32.7071 14.0154C33.4136 16.9612 39.36 38.347 40.2432 41.0571C41.1263 43.7672 40.9497 40.9687 40.6553 38.4649C40.3609 35.961 40.5964 22.2635 40.0077 17.6681C39.4189 13.0728 37.476 7.3876 35.7686 5.35506C34.0612 3.3225 33.6196 2.55663 33.4136 3.64654Z" fill="#28839F" fill-opacity="0.2"/>
<path d="M29.0127 9.56691C31.6503 11.5464 32.1625 14.3537 32.7807 16.5188C33.3989 18.6839 38.5432 37.4849 39.0068 39.4511C39.4705 41.4174 39.625 43.7593 38.9185 42.8534C38.212 41.9477 31.743 23.0583 29.7781 18.949C27.8131 14.8397 26.8329 13.5167 27.2023 11.8351C27.4966 10.4948 28.0412 8.83785 29.0127 9.56691Z" fill="#28839F"/>
<path d="M27.1131 14.9571C28.2675 16.9064 34.6786 34.0453 35.7678 38.2871C36.857 42.5289 36.8865 44.2374 36.18 43.8251C35.4734 43.4126 27.5841 25.4438 26.3477 21.85C25.1113 18.2563 25.391 16.7834 25.8031 15.4284C26.2152 14.0734 26.6421 14.1617 27.1131 14.9571Z" fill="#28839F" fill-opacity="0.2"/>
<path d="M-3.73701 -9.94887C-4.5443 -8.49477 -5.21624 -5.81751 -5.23832 -4.16055C-5.2604 -2.50358 -4.46559 -2.28265 -3.42789 -1.77452C-2.39022 -1.26637 2.44495 1.24483 3.76966 2.37894C5.11641 3.5319 5.88918 4.25683 6.15412 1.98126C6.41906 -0.2943 6.75023 -2.79078 6.33075 -5.22101C5.91126 -7.65121 5.49178 -8.60121 4.38785 -8.9326C3.28392 -9.26399 1.90404 -9.18667 0.192959 -9.52911C-1.49322 -9.86656 -3.40582 -10.5454 -3.73701 -9.94887Z" fill="#28839F" fill-opacity="0.2"/>
<path d="M-3.53879 -0.879486C2.61003 1.42921 5.34566 5.04935 5.91811 6.12025C6.59517 7.38692 6.24457 10.4432 6.05058 10.9733C5.85923 11.4962 4.39937 11.5524 3.10679 11.2753C1.2522 10.8776 -2.10372 10.4505 -3.29594 10.3032C-4.48817 10.1559 -5.20941 8.71247 -5.26828 7.35746C-5.32715 6.00244 -5.3713 1.73116 -5.26828 0.876898C-5.16525 0.0226381 -4.64985 -1.29666 -3.53879 -0.879486Z" fill="#28839F" fill-opacity="0.2"/>
<path d="M-3.59043 11.2183C-1.83451 11.0273 3.69544 12.1903 4.68161 12.6616C5.66778 13.133 6.44788 14.0756 6.47732 15.3128C6.50675 16.55 6.1535 18.936 5.82967 19.643C5.50587 20.3499 4.41667 20.998 2.88589 21.0569C1.35514 21.1158 -1.82416 21.3515 -3.23718 21.1453C-4.6502 20.9391 -4.98874 19.5546 -5.09176 17.9934C-5.19478 16.4321 -5.26839 14.3554 -5.12121 12.9562C-4.97401 11.557 -4.26751 11.2919 -3.59043 11.2183Z" fill="#28839F" fill-opacity="0.2"/>
<path d="M14.6905 1.99696C14.4255 2.80701 12.674 4.00004 11.6142 4.67756C10.5544 5.35508 9.08991 6.14303 8.59683 5.75274C8.10374 5.36242 8.08901 1.63611 8.44962 0.818661C8.81024 0.00123489 9.61242 0.14116 10.5691 -0.168156C11.5798 -0.494861 11.8401 -1.04077 12.9536 -1.13286C13.8441 -1.20651 15.0587 0.870849 14.6905 1.99696Z" fill="#28839F" fill-opacity="0.2"/>
<path d="M13.1523 4.16947C12.5089 4.62549 9.22232 6.37875 8.64826 6.73223C8.07423 7.08571 7.78721 8.32292 7.61059 9.75895C7.43396 11.195 7.542 12.8893 8.14046 13.1171C9.70803 13.7136 13.7276 9.35285 14.2451 8.76477C14.8965 8.02467 15.0289 6.05841 15.0731 5.11945C15.1315 3.87655 14.212 3.4183 13.1523 4.16947Z" fill="#28839F" fill-opacity="0.2"/>
<path d="M13.2192 10.5322C12.1153 11.7473 9.49897 13.4595 8.86975 14.0007C8.2405 14.542 8.19634 16.6629 8.20738 17.646C8.21842 18.6292 9.20092 19.3914 9.86326 19.2146C10.5256 19.0379 13.8926 15.8013 14.3452 15.2379C14.7978 14.6746 14.9082 11.7583 14.7205 10.8415C14.5329 9.92461 13.9756 9.69957 13.2192 10.5322Z" fill="#28839F" fill-opacity="0.2"/>
<path d="M-2.6477 22.38C-0.587066 22.3646 3.54898 22.1444 4.53513 21.9971C5.5213 21.8498 6.375 22.9103 6.15421 24.2947C5.93343 25.6792 5.09444 31.1877 3.32817 36.7551C1.5619 42.3225 0.266637 45.769 -1.47019 47.3302C-3.20702 48.8914 -3.61915 50.7178 -4.48757 50.5852C-5.35598 50.4527 -5.35966 46.951 -5.37069 45.5701C-5.38015 44.3878 -5.48845 25.8044 -5.18303 25.2005C-4.86401 24.5697 -4.23367 24.1677 -3.86385 23.7976C-3.46883 23.4024 -3.63387 22.3874 -2.6477 22.38Z" fill="#28839F" fill-opacity="0.2"/>
<path d="M13.8957 16.2826C12.9303 17.3788 10.7311 19.3019 9.83325 20.112C8.93541 20.9221 7.80204 24.236 7.44879 25.8267C7.09554 27.4174 7.18385 29.4794 7.65486 31.129C8.12587 32.7786 7.5371 33.6034 7.83148 34.9584C8.12586 36.3134 9.71551 37.256 10.3631 36.2545C11.0108 35.253 13.513 32.1305 15.0732 31.2468C16.6334 30.3631 16.2507 28.3895 15.8386 26.8871C15.4264 25.3848 16.4273 23.4407 16.133 20.5244C15.8386 17.6081 15.4927 16.2421 15.2719 15.745C15.0511 15.2479 14.5507 15.5388 13.8957 16.2826Z" fill="#28839F" fill-opacity="0.2"/>
<path d="M18.8921 -21.1641C18.6858 -17.3644 19.1271 -10.7282 19.0186 -9.34394C18.9009 -7.84165 17.6645 -2.3037 17.0757 -0.330067C16.487 1.64355 16.4428 3.46252 16.0454 3.48462C15.648 3.50671 14.7501 -1.06649 14.6618 -2.56881C14.5735 -4.07112 16.1337 -10.699 16.4281 -13.0555C16.7225 -15.4121 17.9552 -20.1989 18.3195 -21.171C18.8207 -22.5086 19.0106 -23.3475 18.8921 -21.1641Z" fill="#28839F" fill-opacity="0.2"/>
<path d="M14.9997 34.9291C14.0042 40.363 13.4875 43.7804 12.4239 48.2437C11.5113 52.0732 10.0836 58.3622 8.80303 62.3831C7.5225 66.4041 5.13802 72.811 3.90165 77.1853C2.66525 81.5597 0.766511 93.4457 0.589886 94.1968C0.413261 94.948 0.148324 90.5736 -0.116634 88.3643C-0.381571 86.155 -0.0283059 80.5435 0.766507 76.7877C1.56132 73.0319 2.75356 66.3599 4.56399 62.118C8.14142 53.7361 12.0014 38.3042 13.1157 35.7245C13.3647 35.148 15.2426 33.6035 14.9997 34.9291Z" fill="#28839F" fill-opacity="0.2"/>
<path d="M17.2518 32.7213C18.0467 35.1662 19.0917 39.5848 19.0475 41.6174C19.0034 43.6499 20.0852 50.0789 20.6813 52.5754C21.2775 55.0719 21.3879 60.3963 21.5203 61.4567C21.6528 62.5172 20.6372 60.1753 20.1073 57.9219C19.5774 55.6684 17.3917 48.9301 16.7072 46.7871C16.0228 44.6441 14.6981 39.8941 14.941 38.1267C15.1838 36.3593 15.6254 34.6139 15.515 33.929C15.4046 33.2442 15.7799 32.6182 16.1479 32.1764C16.5159 31.7345 17.2518 32.7213 17.2518 32.7213Z" fill="#28839F" fill-opacity="0.2"/>
<path d="M12.2368 37.1652C11.9839 38.1774 10.2277 43.7599 9.91859 44.5553C9.60949 45.3506 9.06858 42.751 9.27463 40.9099C9.4385 39.4459 9.5543 38.7596 10.8643 37.3751C12.1743 35.9906 12.4723 36.2226 12.2368 37.1652Z" fill="#28839F" fill-opacity="0.2"/>
<path d="M8.98019 41.3959C8.94038 44.025 9.0685 45.9249 9.15681 46.6539C9.24513 47.383 8.80355 49.769 8.27367 50.4539C7.7438 51.1388 6.79442 50.0563 6.19831 47.9353C5.6022 45.8144 5.58012 44.1575 6.02168 43.2517C6.46324 42.3458 7.76588 41.0424 8.31783 40.5121C8.8698 39.9819 9.00227 39.9377 8.98019 41.3959Z" fill="#28839F" fill-opacity="0.2"/>
<path d="M5.44706 45.1806C5.4004 46.4879 5.71201 48.4357 6.41851 49.8643C7.12503 51.293 7.5077 51.7348 7.36052 52.8689C7.21334 54.003 6.74233 55.7263 6.41851 56.2565C6.0947 56.7867 4.68168 53.9736 4.21067 52.6922C3.73966 51.4108 2.98901 48.907 2.97427 47.8907C2.95956 46.8744 4.0046 45.7845 4.53448 45.1512C5.06437 44.5179 5.49122 43.9434 5.44706 45.1806Z" fill="#28839F" fill-opacity="0.2"/>
<path d="M6.88987 80.4997C6.80156 78.3788 5.70243 72.6196 6.35997 70.9556C9.92196 61.9417 11.0995 56.3222 14.0689 43.6077C14.5002 41.7607 14.8454 42.8903 15.1311 43.6891C15.8761 45.7731 16.3507 48.6569 16.8252 50.2472C17.4139 52.2208 17.826 56.4185 18.2087 58.5394C18.5914 60.6603 19.1213 66.2424 19.0919 69.8951C19.0624 73.5478 18.1645 79.2625 17.3109 81.619C16.4572 83.9756 14.3082 89.4252 13.3956 92.2531C11.2462 98.9136 9.05998 91.6342 9.0554 91.6145C8.36796 89.4346 6.96699 82.3514 6.88987 80.4997Z" fill="#28839F" fill-opacity="0.2"/>
</g>
<defs>
<clipPath id="clip0_4055_8575">
<rect width="61" height="48" fill="white"/>
</clipPath>
</defs>
</svg>
