<svg version="1.1" xmlns="http://www.w3.org/2000/svg" viewBox="0 0 730.97265625 471.73046875" width="1461.9453125" height="943.4609375">
  <!-- svg-source:excalidraw -->
  
  <defs>
    <style>
      @font-face {
        font-family: "Virgil";
        src: url("https://excalidraw.com/Virgil.woff2");
      }
      @font-face {
        font-family: "Cascadia";
        src: url("https://excalidraw.com/Cascadia.woff2");
      }
    </style>
  </defs>
  <rect x="0" y="0" width="730.97265625" height="471.73046875" fill="#ffffff"></rect><g stroke-opacity="0.4" fill-opacity="0.4" transform="translate(13.30078125 17.00390625) rotate(0 63.4375 49.134765625)"><path d="M0 0 C0 0, 0 0, 0 0 M0 0 C0 0, 0 0, 0 0 M-0.45904938798862194 6.007130688478343 C1.2608603808534853 5.801745592833609, 1.3825763005239762 3.165970961558957, 5.397418783190197 -0.2585621867480463 M0.004436656865303756 6.142001832326047 C1.7519098665964932 4.561120801335684, 3.196607386938079 2.6243379800552624, 4.964379135104364 0.48458506202672064 M1.600190077079426 11.755389294445097 C2.1498143011231274 9.854789295143316, 5.198631648793736 6.255863977612117, 9.8776375278355 1.5397170449688793 M-0.020164350317825153 11.626824401735842 C4.103712906293218 6.703339093388852, 8.729394244857382 2.8160941591168696, 10.937997278523577 0.5652425090864064 M-0.5696426397701959 18.940452533681565 C2.4517558775306663 14.652300771963315, 5.741197059293485 9.272869224955214, 17.390122729822476 1.6522565974784067 M0.3820091550657292 18.124241058622175 C2.7920296842428605 15.10852317636599, 7.425922371049521 10.336048571849382, 14.857322932689865 0.8732492091995647 M-0.8745129814185884 24.344231130271314 C8.611542598402682 16.20822202324588, 16.265202136950453 4.4475969577075745, 21.835994364971185 -0.9187866808683154 M0.811861129682443 23.30894808815336 C5.542703737104435 18.34483765170174, 11.525192661573232 10.912038429919681, 20.960568174997235 -0.6164029134274003 M0.9305297853936807 30.743766212601415 C7.552276944501688 22.445503536701864, 14.736001770844531 15.052578341882302, 27.01079766326806 0.15057984683781278 M0.9693000866611854 30.224978696320406 C8.120038476077513 22.001227117183333, 16.358817598926 12.307793250222065, 26.04146143482289 -0.6785034300747572 M1.5785710568446198 35.5241187082616 C8.936385506673798 26.608080542706116, 17.30685942260527 17.87629317188817, 33.284145799881614 -0.30226122203625394 M-1.1013703161012849 36.07410523649429 C10.275402962858525 25.438762299691383, 21.86593896054963 11.563997574162538, 31.341381024054087 0.49924480740569877 M0.564414979112243 42.99613079484158 C14.76551220924496 28.731085885097293, 24.067878526797852 15.506386535124992, 36.03813458401834 1.6296922807675323 M0.04454420429179606 42.31395943704598 C10.647019082432463 32.07829805464137, 20.6222350166358 19.84911218260419, 36.44035976361607 -0.5586633569467345 M-1.9485926385969705 48.785554640599415 C10.052208674171558 39.01424319194163, 19.877459552438925 27.022955493782383, 42.79081469084673 -0.98961454738388 M0.34645146876565747 48.85966114201479 C8.520137954882983 36.75577249898346, 18.940980071380633 26.167005937884245, 41.568057215396095 -0.7157120249838584 M-0.6611511211145071 52.67508534290205 C13.647784641278962 37.71965436487535, 28.99655285916386 18.104308806764465, 47.8227194295733 -1.776617038232441 M-0.10661396079243701 54.7383512495489 C11.776756792823386 42.590124517170125, 21.353094650705632 30.02068909685604, 47.41778745031941 -0.2481876026663734 M1.488522840766123 62.767037570007545 C12.385962183108663 47.09679464293148, 24.232211369772173 30.523078016169976, 53.300336975366534 -0.9408075944111935 M0.7380369865427525 60.06436835368763 C13.965259765644307 44.753063754948855, 30.784369288023534 26.705007645621592, 53.45749128027326 -0.9453554418460719 M-2.207891606777075 68.32537849950562 C17.323781823461694 47.584934738253416, 35.616846795767486 24.220797406470624, 59.902638137432945 -1.1220590476620949 M0.5516610936679811 66.69378168280194 C17.07690383204102 46.55696989062404, 34.060691994880635 28.6613789143736, 57.7437640261829 -0.13428319848366144 M-0.32199656756609585 72.16485655898599 C25.811829969831013 44.00284043472847, 47.76473782888151 17.340748102771826, 63.944548590941025 0.6966986993818054 M-0.2815942315199962 72.42601984026281 C22.08614472770963 46.88723003637096, 44.935836862006084 23.04126242974442, 63.23282774993558 -0.7800174744309416 M-1.38185248239445 79.04013016670672 C20.90017619987428 53.392237018390546, 44.16328632868379 28.241190575959607, 68.00347664509728 1.3521553149785532 M0.42963195690406053 79.20549954510955 C27.91961388190244 49.223926694145995, 54.40889262167475 16.785473472018424, 69.59455902245655 0.4895928243513836 M-1.4045649260936273 84.48780067003474 C28.447577627254336 48.8127187157496, 60.21217307912389 17.566434901484413, 74.0427854750702 -0.4120566035048796 M0.33882734582741136 85.77615857049034 C28.149343493194564 54.66204641579946, 55.3541338300872 24.213587980461128, 73.52346115563306 -0.716280153988464 M-1.2697568394571377 90.98908898722813 C22.822752773855665 61.06764396488139, 48.479797830962866 33.70214236130711, 78.0383208900663 0.21731511218952448 M0.3756341311752962 91.6566323854445 C19.27402115406698 69.31984779117927, 38.813551506513534 46.419338970512754, 78.55269197039036 -0.5762665654112169 M1.7478446736930238 96.81186854587659 C23.534350062582902 70.63825783672354, 52.64858756392902 37.5727444876205, 83.10188356525407 -1.7895344405712592 M0.4007622208444701 97.79478709334299 C19.269654620726193 77.3899228184273, 35.42549388671236 56.905787554717065, 85.36503602861569 -1.1569755117686498 M2.5094673754968895 101.38095570267876 C29.995655011737398 65.68508519354984, 62.246059288151784 32.50069684353748, 90.10775680984 -1.1427905935291989 M2.9245482636937155 99.7505098516657 C23.798911373958926 79.80871421055406, 41.28326718840605 57.47010810975958, 89.6069324012343 -0.4378183990214808 M8.670644575160956 99.70491512589271 C33.54214247231064 69.86913251961818, 60.983105691004326 38.45577201448533, 94.81617879899264 -2.1456957493173263 M6.952806330648279 99.93501425445194 C30.435107872522266 76.88853342503165, 51.81205220580911 50.82897321228906, 96.1994469001335 -0.4111855790214918 M13.148628331891693 99.21809273377646 C34.73915801790011 75.99873008028428, 56.52639681234896 49.55846045957722, 102.49987034191841 1.4681272603223974 M13.64174111763338 100.265373270741 C35.181381661212264 74.25123672275231, 58.0444733381524 49.133199798927876, 101.15229984623844 0.8927302922706062 M17.997389454895604 101.90561569458805 C44.82535543075868 69.95087352516737, 75.54413157747467 37.36100791455952, 105.06750711378587 -1.3780014672430738 M19.360447945574272 100.10201924457215 C51.08929290679292 61.94062848972873, 85.9374306326062 25.57029884179002, 105.87483830143643 -0.6942423869969829 M24.906853619341184 99.40955410569445 C42.74457871402467 78.0419517569439, 63.16462186270762 54.64422543126675, 111.6902474238015 1.058857736244299 M23.3776488763582 101.16740557409362 C51.503639033858875 67.28028073006467, 78.25446996223715 36.909501892354584, 110.99006383665271 0.4969224772150298 M29.82942913443494 101.1915976353537 C50.01096780487231 77.24757852534245, 68.001984111762 55.122378629806846, 117.2691454181433 0.1832970483742642 M29.67572048091042 101.5211833533447 C62.893698986655494 63.140305513386366, 95.3879148598482 26.245859528267545, 115.98954573478403 0.6269816132776427 M36.10347917534537 98.62037888093278 C67.05132891702226 65.09631231299048, 95.6996870667804 31.578689127319663, 120.34197399298927 -0.5493101032634797 M35.261666071118185 99.4600247304736 C67.56481579250496 61.91652718343744, 99.64751733309683 22.999097533491806, 122.32774390372714 0.5500511245618043 M41.079849551278954 101.13415001068967 C74.78173088594983 64.14075271405014, 107.35696326285694 24.561777674631074, 124.9900477075459 -1.2436803004108654 M39.98114346790672 101.49279954951959 C69.54584765637753 64.79830436508473, 100.18460457209528 31.169699848687316, 126.51633178940727 0.01523523010683192 M45.24534093740424 100.3281061219914 C70.16838378487245 69.65551775205245, 93.46524695225659 41.33613680757712, 128.05716375505767 5.315089446081231 M44.82943723316332 100.24039870863092 C64.35574644583711 79.82530621430197, 81.34879864029413 57.724173166504485, 126.53063734678767 6.3588358448430995 M50.84923664292768 102.11706188309594 C66.4186258213841 80.74815228026351, 83.63967535494561 61.82235383266178, 125.5215464266551 11.711168412688664 M49.765486437813195 100.41091080184682 C74.76732621217559 73.29663279924968, 97.42179132943605 45.47504001147775, 127.3690875037176 12.366499296027712 M55.02677484301778 98.82277489137033 C76.70322695220662 78.70723587938821, 93.13251514106769 56.741767301478106, 125.21784361851618 18.853055027001197 M56.0228568937436 100.69944547731558 C72.90473574551307 80.4632655637606, 89.49113635584999 62.11265544982505, 126.96270466809378 19.04077918703168 M60.42567634688107 101.33662231507256 C84.25236101292737 76.21604377744254, 107.29731212687446 49.11321942016297, 125.99242197681897 26.325028966608528 M59.923768921879805 99.76331007907643 C85.1866116226191 71.73244038794329, 110.88710489007147 43.00037880367017, 126.51790187281304 23.765088496225957 M68.32961682968603 99.20692425156957 C87.32712581367971 76.25673849257512, 110.10860343595748 50.06815149283567, 127.61018981076992 32.776279899768696 M67.19006958410905 100.12183300527758 C79.17065587223162 85.19754964171497, 93.12514060758164 70.48572111190701, 127.61080568880058 30.505328317649827 M73.28475460063916 100.80162036911946 C84.98342552030148 87.14986423366338, 98.3982433048746 69.94808796137093, 127.22201029553754 36.76294042384869 M70.75726045135659 100.13154034995836 C92.08503205078861 76.11518103276569, 114.84092446931407 50.462912871149264, 127.84216942794366 36.46442079945153 M76.22320283490896 101.39559326508913 C91.5147840403005 81.86994286498333, 103.68175735114008 66.7205456904268, 125.99122924032832 40.910762707106514 M77.08546983550966 99.88597926126693 C96.86222160295839 78.07071789116186, 116.51532835657218 56.39653848938788, 126.65140091116751 42.05748578567032 M83.08955734170192 99.33334510773668 C91.27339296088086 90.01901989970519, 100.77224871909009 76.91223695327554, 125.56108829132027 48.75715142713193 M81.9734805574935 101.19089458324262 C94.58504303599669 86.67741518222651, 106.29650610646458 72.10004516727811, 126.9714756713689 49.566373754677215 M85.30830976719608 100.87103057465178 C98.36948355573237 88.66408245283856, 106.09541483884466 79.01690149295978, 125.96154784469141 53.14029251151466 M86.21364315020492 100.2187617942564 C101.53974553381225 85.39235767510016, 115.10291198835144 69.1031108555868, 126.3232598664446 55.34129455984318 M93.69067050756938 100.5655855934242 C103.29986659970284 89.87395975220772, 112.27856767893445 78.4909317488685, 127.5161099596482 60.58828187851272 M92.68619877154059 99.71041574767924 C101.78871688681028 89.70298775041586, 111.06953073990114 79.2991413393742, 127.90983319231982 62.00244617020748 M96.34139162202837 101.66385608231197 C109.8789916294853 89.1564431954347, 121.38650794333023 77.43394892536656, 127.3092315613592 68.1611583754931 M97.45360211742582 101.17667941255043 C109.04531148837253 89.16914249209229, 118.49157000716971 76.73561500900774, 128.27140208588185 67.09454760891836 M103.12618003574154 100.94463088868203 C111.80641638040683 88.75833405696712, 121.59860282810135 79.5671816371282, 125.81285220903084 71.61358042071382 M103.41543462474785 99.55289681201818 C111.16300843282426 89.82961931265658, 120.27081058583809 79.58831365249809, 127.09932749305591 73.06201559501508 M108.29822530791537 100.88131843079246 C116.34038573103103 92.50155487458618, 120.89604765900633 84.34720582792768, 127.35380729884116 78.23685894176462 M108.1224322394319 101.1741096651218 C112.30032723272714 95.74992464276804, 116.07157712751957 91.50904580087465, 126.89103807173876 79.90349748186865 M115.62167186371836 101.7292700560102 C118.66948710364916 94.47745605639759, 124.58965565921197 91.03690225704665, 126.02065097696814 87.24808611623524 M114.08745764836523 99.67488074500949 C117.63346776438023 97.46180349025596, 119.66517484282737 93.33837725753386, 128.04435310482714 85.37349999785005 M120.2176130865076 101.34738975438539 C121.1489912238735 97.92099718220574, 123.51793720754934 95.24053680047528, 127.3100957998188 90.81926822719035 M118.77844185757725 100.31299805726175 C122.46570081178079 97.33365812156902, 124.95116571976152 94.2699891089545, 126.33889161619561 91.42212055195924 M124.86995599346923 100.55110815729735 C125.94948101124102 99.62911123422607, 126.78825742577563 98.52459887873655, 127.03056694063092 97.08174667451816 M124.55886708239781 100.37828182879625 C125.61993202863954 99.09734175264792, 126.9036260534162 98.15791964984261, 127.18240941221559 97.46969253849522" stroke="#228be6" stroke-width="0.5" fill="none"></path><path d="M1.142919134348631 1.8495341427624226 C29.9516142642824 -0.12547657972900184, 62.27307718596422 -0.34122787005035193, 128.4395241253078 1.1440527327358723 M-0.39985704980790615 0.5003487225621939 C42.00821068522055 -1.1254101546597668, 83.1191535575781 0.12000153939006841, 125.91198926605284 0.5088616367429495 M127.87900490686297 0.320859182626009 C127.76113373555003 23.694328813197362, 126.13720721520244 45.34683973405192, 127.42287475988269 96.73206554725769 M126.18790774978697 -0.6300100330263376 C127.7296972414654 34.681520208436275, 126.94057769982035 69.45237624030416, 127.19768535532057 98.61431792937222 M125.79500324651599 97.7462438233197 C99.38303953048307 99.13405981323451, 71.5617244655732 97.34249522945613, -0.15812473371624947 97.43051003292206 M126.52754365839064 98.204465424642 C90.51421360659879 96.84382893462902, 55.440208887448534 98.44532354493862, -0.5517957862466574 98.53513333760205 M0.13590927049517632 98.74592732265594 C0.28284225190764123 58.786383994493384, 0.8620483609545773 23.531907347239027, -0.4530104883015156 0.7307191975414753 M-0.04543907009065151 98.88017890416089 C1.2964800519460553 65.23565739817062, -0.21609301142751036 33.655808362273106, -0.6474282797425985 -0.010491454973816872" stroke="#1864ab" stroke-width="1" fill="none"></path></g><g transform="translate(30.7734375 53.64453125) rotate(0 47.5 12.5)"><text x="47.5" y="18" font-family="Virgil, Segoe UI Emoji" font-size="20px" fill="#1864ab" text-anchor="middle" style="white-space: pre;" direction="ltr">index.html</text></g><g><g transform="translate(504.6604118835337 50.033105616956846) rotate(0 -175.17891316461487 0.18909787584628646)"><path d="M-1.008314137905836 -0.3317508526146412 C-59.397197803298056 -0.25456747519606326, -292.90283028800997 0.48214509846598047, -351.0210085395838 0.980358901909949 M0.6631822103541345 -1.5515239955764264 C-57.313771495085255 -1.4132437350396958, -290.3998591926882 1.5698873722455664, -348.91039244791705 1.9297197472689913" stroke="#000000" stroke-width="1" fill="none"></path></g><g transform="translate(504.6604118835337 50.033105616956846) rotate(0 -175.17891316461487 0.18909787584628646)"><path d="M-321.3743222860443 -10.515359673080669 C-329.4598077723519 -6.021662280273452, -333.4814673766303 -4.096192664184803, -349.0809852439745 3.244861257487373 M-320.0859643855887 -8.191146781099663 C-327.99036876325545 -5.346791281192324, -334.5435595967093 -4.00148496488657, -349.3852087944581 2.069855864384608" stroke="#000000" stroke-width="1" fill="none"></path></g><g transform="translate(504.6604118835337 50.033105616956846) rotate(0 -175.17891316461487 0.18909787584628646)"><path d="M-321.1734428973734 10.004865712061845 C-329.3961322262315 9.516798688930189, -333.46654347454506 6.462191801810054, -349.0809852439745 3.244861257487373 M-319.8850849969178 12.32907860404285 C-327.6755286055959 9.842570255922716, -334.28090629469557 5.856886433923208, -349.3852087944581 2.069855864384608" stroke="#000000" stroke-width="1" fill="none"></path></g></g><g><g transform="translate(494.71990617502115 201.97262857439762) rotate(0 -171.8370030132133 0.877778521552699)"><path d="M0.486210436373949 0.26397420689463624 C-56.65304358386624 0.3744092201038011, -286.1134961110169 1.0354552412250675, -343.57911502993875 1.185865992959623 M-0.7176678138691932 -0.6430432798247785 C-57.888721579967104 -0.42814056440566417, -286.7650509203507 1.9332538914618678, -344.1602164628005 2.3986003229301764" stroke="#000000" stroke-width="1" fill="none"></path></g><g transform="translate(494.71990617502115 201.97262857439762) rotate(0 -171.8370030132133 0.877778521552699)"><path d="M-315.62573779807065 -6.957802715170192 C-323.7380357706041 -5.553521508140852, -330.4578684860104 -2.0057977536987863, -344.35218586866023 3.843410068927367 M-315.29615208007965 -7.525609571876931 C-321.8240848187046 -5.006468928489987, -327.5509769396218 -3.5823979528409877, -343.90850130375685 2.941042519910295" stroke="#000000" stroke-width="1" fill="none"></path></g><g transform="translate(494.71990617502115 201.97262857439762) rotate(0 -171.8370030132133 0.877778521552699)"><path d="M-315.43564294303417 13.562525409202696 C-323.68266816360074 10.083039182496227, -330.4477499350216 8.746225285682318, -344.35218586866023 3.843410068927367 M-315.1060572250432 12.994718552495957 C-321.81975966364365 10.989093561593688, -327.5885795718089 7.887150660155241, -343.90850130375685 2.941042519910295" stroke="#000000" stroke-width="1" fill="none"></path></g></g><g transform="translate(204.48046875 175.515625) rotate(0 124 12.5)"><text x="0" y="18" font-family="Virgil, Segoe UI Emoji" font-size="20px" fill="#000000" text-anchor="start" style="white-space: pre;" direction="ltr">GET /main.js?version=123</text></g><g transform="translate(246 16.19921875) rotate(0 33.5 12.5)"><text x="0" y="18" font-family="Virgil, Segoe UI Emoji" font-size="20px" fill="#000000" text-anchor="start" style="white-space: pre;" direction="ltr">GET /</text></g><g transform="translate(197.41796875 94.88671875) rotate(0 135.5 20)"><text x="0" y="14" font-family="Virgil, Segoe UI Emoji" font-size="16px" fill="#000000" text-anchor="start" style="white-space: pre;" direction="ltr">Cache-Control: public,</text><text x="0" y="34" font-family="Virgil, Segoe UI Emoji" font-size="16px" fill="#000000" text-anchor="start" style="white-space: pre;" direction="ltr">    max-age=31536000, immutable</text></g><g><g transform="translate(152.71484375 88.63671875) rotate(0 177.4602150015533 -0.9019649215741197)"><path d="M-0.2532609052956104 0.44284047558903694 C59.07890532935659 0.19045545533299446, 296.0413682711621 -0.15567231699824335, 355.1736909084022 -0.6583480171859264 M1.8146383900847285 -0.3702722200658173 C61.02132490599218 -1.0141607683803886, 294.8152392289446 -2.020669198324904, 353.9907589529362 -2.2467703187372536" stroke="#000000" stroke-width="1" fill="none"></path></g><g transform="translate(152.71484375 88.63671875) rotate(0 177.4602150015533 -0.9019649215741197)"><path d="M326.5815318719862 7.386855464034127 C333.9875673405623 3.986096872481011, 337.31854107534906 3.443280157799517, 352.55842853455806 -2.2683958487119527 M324.95092478668374 8.352240828402685 C334.2115000246618 4.913721784875037, 342.01416515197315 1.3003348780473214, 353.79389666697944 -2.9861757365521044" stroke="#000000" stroke-width="1" fill="none"></path></g><g transform="translate(152.71484375 88.63671875) rotate(0 177.4602150015533 -0.9019649215741197)"><path d="M326.4950642127965 -13.134170965697738 C334.06751319425035 -11.779523331893952, 337.41852360052974 -7.567116311865584, 352.55842853455806 -2.2683958487119527 M324.864457127494 -12.16878560132918 C334.24893287424504 -9.334770351467398, 342.0780313491092 -6.674835777862754, 353.79389666697944 -2.9861757365521044" stroke="#000000" stroke-width="1" fill="none"></path></g></g><g stroke-opacity="0.4" fill-opacity="0.4" transform="translate(10 184.876953125) rotate(0 63.4375 49.134765625)"><path d="M0 0 C0 0, 0 0, 0 0 M0 0 C0 0, 0 0, 0 0 M-0.4996407232852528 6.62278458481013 C1.5542512453481394 5.237850240951457, 2.7212377413519677 3.356292792963871, 4.554083917620129 -0.07585811951782168 M0.1072175234882285 6.677214587529294 C1.8564900324165232 4.510035124609514, 3.3405441020411892 2.7332239585568137, 4.949171415301508 -0.007257541656751076 M0.09081526781428928 13.523971257030546 C3.6215530645441913 9.933790818521619, 5.172362790178884 7.6381231339060385, 11.725470970523489 1.5078290368512035 M0.19710087413896193 12.836474155306398 C4.709642426301106 6.539733083003866, 8.495076949729574 1.739533034433397, 10.8176251738788 -0.31662079886647454 M-1.6104978090664606 19.82057543369072 C5.149091187727416 11.935236686632479, 10.027542057155191 3.1957051923364084, 17.413209516092618 0.07451664348365572 M0.842902666837885 17.91494781235295 C4.667757497172982 13.224919170654267, 8.64339851859104 9.140660351830997, 16.374563337772567 -0.4151570436614582 M-0.33683879280469675 22.414989711432813 C8.698753453661983 14.57157106532588, 15.254944546864294 9.454951355213405, 21.219104649776483 1.1977711556642774 M0.023467989843270587 24.783694911464213 C5.648925235287007 17.1239987056384, 12.412397754487625 10.391503247112645, 21.18738423315611 0.021540473604154897 M-1.8690381524572715 28.799838209290257 C8.6136979571556 23.55473149259199, 14.580641233943902 13.288849461263258, 28.002222462233515 1.2170507082727493 M-0.2452595876018151 30.214942347023836 C6.944351110149155 21.045378398819246, 14.6406135607522 13.971957413626601, 27.156442013245435 0.5489976046618761 M1.127552008153824 36.38361935485278 C8.20335150733063 25.019898458488914, 21.051451511579195 13.958113002922367, 30.983738628632224 0.7431753986760263 M0.2177423423993865 36.9612437224028 C11.929020704033023 23.19436764466738, 22.891315343404475 9.409233130722217, 32.534833739927805 -0.3447072523400898 M-1.0007016647933966 41.25061282571011 C10.991480151152176 29.51281149315206, 23.432025885447278 18.25026725021273, 38.647311458179104 1.2065848951321563 M0.8688868127436393 42.15601201597207 C10.63591129935391 31.207110868069257, 19.89240540028035 17.760798243250633, 37.78931098412846 0.665701996637555 M-0.9888908620924539 50.55000829012029 C15.554987675661616 30.28964731169175, 29.467723022008354 12.487259947422444, 43.86255412604265 0.9446617950080878 M-0.4656996056438274 49.51514832177095 C13.28230281366938 34.10157912880808, 26.414889551720837 18.10030938286193, 41.91125205773466 -0.35747750025699077 M1.8138475914251657 55.33793834545027 C18.11439786002486 35.72686701469982, 35.22048034544815 15.385942269397582, 46.511562441429376 -0.6355917334381296 M0.06473639912425 53.99157478794764 C17.164766485450567 35.49533442055494, 33.05289951229416 16.228313691982407, 48.23068978167164 -0.6397508989844276 M0.07085950496595217 62.74015515995811 C15.395098210699768 42.25754053998428, 34.49418355874537 21.037335832616463, 54.61238707950777 1.0297694071604617 M0.1496026479731114 61.75041125854145 C19.506827867815684 38.808186502144736, 38.33314221691285 14.318228820559035, 52.727283717826666 -0.794602301396548 M-1.0746134752920895 68.79406341123352 C12.236058217170225 53.69996465288783, 27.607626165794237 35.30183882980808, 58.945561349484336 -0.17569011493809583 M-1.0281253262004881 66.82350821192334 C11.29697538074009 55.01869815622659, 22.78167342036553 40.514841802688665, 57.84434793712498 1.1516818865459406 M1.9073890468290458 74.83784902686624 C18.23652054671507 53.94217694518312, 34.02126946118361 33.509300112965256, 62.17757342652757 -0.9614627023668518 M0.30241863450020645 73.31107550146429 C19.69715625964859 51.865914660179854, 38.406919533922874 29.682254346613554, 62.79982325145383 -0.34016368700876143 M0.8403691305358478 79.89960792511431 C22.27834917027595 49.36626017574987, 49.636213586040995 24.50097326768413, 69.48739411984398 -0.46742118686776024 M-0.40568577399956496 79.5833110962036 C23.808577879387734 52.48898300296544, 47.353742645535014 23.351880950276765, 69.40030498173847 -0.3472066780213581 M0.30878370099682684 85.53937895334468 C19.568686372974636 61.37815079548107, 42.96405549721978 37.86262876662718, 73.68994910460206 -0.17649547107384933 M-0.36223211481254225 84.93493401928947 C23.106184020344983 59.5459889747319, 46.244704708813586 33.828620229703766, 74.35201518986615 0.4155063116563724 M0.28457231741847266 92.01182052981541 C27.637420680506025 58.407469772552446, 58.99094859655584 24.25869630958711, 77.86264669000832 0.2480041132728985 M0.37414055798651447 91.56036098976121 C25.039986493862184 62.538263352784, 49.36917692942522 33.08715810216734, 79.07483044676212 -0.42987362393630235 M0.5945703759787904 99.10824358211622 C29.221996876445175 61.37697351839945, 60.06386710592828 26.628778465489873, 84.46885005123124 -0.9502898364605414 M0.5508609022943602 97.20823936098978 C30.364828418449022 62.6852668349049, 61.79280345103674 26.110593810466483, 86.01325406431363 -1.024174336651157 M1.4515681388178123 99.52690196694573 C36.96197446609516 61.45986802336501, 71.49729046220274 23.272105891358606, 89.98440499747733 0.5418748479838627 M3.4399843169697775 100.36423754045506 C24.721168276531387 76.0418362231728, 45.78600192734081 52.23544706705655, 90.45044386344591 0.70397401755109 M8.112661415142036 101.29979785256202 C31.728414592271648 76.13161742832888, 52.861010997363984 46.61596611130487, 94.02111220391512 -0.805306736026921 M8.684043622938013 100.49035037219639 C38.15302467394296 66.41169699206671, 70.06835193413538 31.25259906745812, 94.81918440604628 -1.0620376631813429 M15.346664764157929 100.63471465722311 C43.72741944614921 65.31416789645957, 69.7931380061203 33.416519526751486, 101.95325497975105 -0.2020199202348536 M13.950962266124286 100.67943207525302 C36.7968406418083 72.03967550422183, 60.3674539697107 44.04510960025078, 100.51591476303989 -0.051620784809166764 M19.309111495071996 100.04021704918705 C40.68337128362998 75.84563672434668, 58.515415616717206 53.687737113458255, 106.04107150015366 1.548492892727019 M17.99655431745385 101.59269624366425 C35.85855432806889 79.93887140116351, 55.30956284973331 57.51951008488565, 106.21170074631405 -0.007165699184177754 M24.041489783052732 99.4318126258208 C44.700315332468804 78.59695053847659, 62.89286548186156 58.748705217539666, 112.05728257432945 -1.7873911288832645 M24.35126058881395 100.3783775255783 C55.02069527526487 65.34847234655354, 84.67096369737503 29.51301641136618, 111.666262676794 -0.7088650622670869 M28.097770437306643 100.29462855538239 C60.72735339297928 65.59637821686316, 92.76812220101151 29.22029128387213, 115.7545048484564 -1.0316423074759555 M29.134176401129842 100.64690826503445 C50.81666957221513 76.16059516877533, 73.40171339666645 49.14204483978922, 115.3828885873765 0.6798191043131041 M33.66787913300223 101.7707349352388 C53.01125667900482 81.19143964819854, 71.6074243985783 57.731174725435686, 120.77207371871253 0.7945502845386443 M35.36402381628878 100.37074186018094 C55.920435982955084 74.37558787738529, 78.89016911529808 48.242234161891965, 121.70275713595828 -0.18621584607265618 M41.20422417934597 100.82182143364804 C71.40917611670278 62.89644722750339, 100.47081287793657 29.604142486250296, 128.54286624430432 0.8599075654186024 M38.773179405215984 99.859529405057 C63.312323735950756 73.13266046233346, 86.58164009893099 48.66683332530026, 127.89926051846459 -0.6320844443850504 M46.54516875150641 100.31652064797711 C65.0853698129485 79.77128016074045, 82.22169331892707 57.01933215896812, 125.51224211847625 7.4027700243130425 M46.118646479798755 99.65994304781091 C73.36814305997385 68.09707011910564, 102.92950881841637 34.31420493086125, 126.58444543985865 5.729296474306295 M51.54155865869001 101.193084746484 C76.65457114046917 69.34692633751952, 107.02949083347764 34.00167538692341, 125.50998813235884 13.78074443769782 M50.996082860962304 100.5308526324819 C76.75903683266716 69.84443288762373, 102.38311258805768 41.9219221921462, 127.26845757798975 12.859354487258486 M57.18019457606527 98.54670882653573 C78.22251887979952 74.87769828336789, 99.61434736937622 49.65492795562199, 126.47231468213008 17.425766733162696 M56.15077311059388 99.34314905721823 C70.3617427701596 84.16472639335264, 83.70045124667061 66.39675888094047, 126.2690380907546 19.061424447842533 M62.21035981283871 101.79220755639031 C87.39788155993118 71.54100394977421, 112.14505367822085 40.29062838884049, 125.59715091396802 26.19555408829737 M61.29165629961876 101.05492091605916 C79.85172711098188 78.8575844093324, 97.43483797236718 57.078425938403605, 127.05431876105004 25.144700584429387 M68.26729254417883 98.75133853341467 C82.28174388999176 77.97299570192413, 102.88755972470486 60.39283570224467, 125.25096763707913 30.762733671359882 M67.40229823992418 100.61127785715288 C80.11330895698337 83.70201213078428, 94.42401991874293 68.44493722722169, 127.33714490980125 30.625865241058335 M70.49871357929212 99.8154789258669 C86.36338859733544 84.4524958820704, 104.72244323428254 63.20778204641532, 125.4361905266319 37.45687557971722 M70.55491925243538 100.91952722453874 C84.66179175701012 86.4002735990906, 97.23778695380244 71.09550570504089, 126.7299885988955 36.38362181587762 M78.68829859334707 102.03294883111391 C88.33915829541947 86.01465050664166, 102.51064584904293 69.70162915524728, 126.41772789183284 44.42716948162739 M76.22136639903962 100.74899741636489 C88.93749137989205 88.29993172670397, 98.48716893032366 75.02613249554884, 126.55897639925803 42.63387140292649 M83.88220589555019 101.2716879174138 C95.82135468359424 84.11134642248119, 109.76973245441218 69.99553912826845, 125.19038387885995 50.48445755468015 M83.08714125066214 100.70621452667066 C92.62908784018263 89.68712734100407, 100.3563846668247 79.62297524511766, 127.5188025937856 49.58424573057596 M86.8564896320795 101.06128836235625 C100.94451838521583 87.55470450816145, 112.8423345841837 72.36910375486005, 125.38568138389124 55.49036322646522 M86.70631309019973 101.88943528382701 C101.49004583902452 83.7784114690813, 117.58367195052705 67.21689099264744, 126.76705209037496 55.635735902197 M92.02392269911296 100.98212359353101 C105.80828058674142 85.73105475459022, 118.40260598016306 72.29599395299287, 127.17868496613319 60.74641991524062 M92.59584182554907 100.09027579120493 C105.01029725071159 87.02918755227444, 117.02850378121761 73.12089482263141, 127.01852333495135 61.584321136828876 M97.3408196558571 101.05447702919612 C103.10417144171085 91.94710071695886, 113.46878318859474 82.90263000872766, 127.75541405075434 65.83610396837335 M97.32990090263547 99.9953402678437 C107.55094977232382 89.08340590403361, 116.91569503036469 78.8377963913745, 128.20014151440205 67.27550170761984 M102.77444992748043 98.58057501671853 C109.52714869913223 94.68101261564217, 114.06388208769374 86.87269280287649, 127.93937069696113 72.78751130412141 M104.19479050834617 99.84075398689153 C110.9351734622434 91.2754267340019, 118.5033904636042 84.13478846361701, 127.26498632465228 73.57947558360914 M108.92956557318942 100.3072634743563 C111.12349896424219 95.70618528470614, 117.88726678534387 92.16070217383037, 128.65895280093162 78.91539035007456 M109.0029653386064 101.38733991738773 C114.6371253345287 95.53323506510277, 118.22945096156299 89.09338618732362, 125.84720517359881 79.04567136816779 M114.17187351815257 98.51333124947638 C118.1881305639223 94.61496610212494, 122.8755699289391 89.29385543546188, 128.85427700884375 85.21027078382252 M114.4040068303034 99.8204420824805 C118.18466380130923 96.2139239176101, 121.26357088594294 92.32193665273147, 127.35633609413836 86.10437703966676 M117.97146302203922 99.83762780103152 C121.97771053346203 97.5625601071309, 123.94007960979145 94.8184034898905, 127.19820934619025 92.34826512393411 M119.43791558671086 101.3693770655549 C121.45475603332852 98.0975059722557, 124.35605866144802 94.6721262148024, 126.41078676256554 91.47273097504731 M125.04026548939514 100.76078599657653 C125.64587667451548 99.8539609436588, 126.12090386300899 98.62744053933268, 127.3498464682951 97.02382655237155 M124.78186167220342 100.55012633505999 C125.1093946403685 99.93415164755721, 125.87263801589935 99.09604773191042, 127.2106919353708 97.4953677637531" stroke="#fab005" stroke-width="0.5" fill="none"></path><path d="M1.3795068971812725 -1.8225661627948284 C40.053932111593895 -0.021654352161567747, 81.16324425837956 0.7759076509741134, 128.86334485933185 -0.605295192450285 M0.11903130449354649 -0.23990079201757908 C49.20325421181042 0.7202418452012354, 99.75390206114389 0.39082062299130493, 126.22831338085234 -0.20979287661612034 M127.94827241823077 -0.06709958240389824 C127.3212068981886 20.064364925481648, 127.05664774844648 42.0488453330254, 126.31243188306689 98.54395877197388 M126.0237936321646 -0.5825817827135324 C126.71160342979601 23.611629091155926, 126.36468740987948 47.65981907574316, 127.80158805288374 97.60143200121823 M125.57024152204394 96.27304183319214 C85.9733677097829 97.7073562208447, 45.467386689269915 99.01748383677335, 0.4845222942531109 98.64519714191559 M126.04651593603194 98.51527944765988 C78.10629495221656 98.88511827235345, 28.95488660573028 97.92618426327829, -0.06375688873231411 98.66075525246563 M0.34197182580828667 97.59153484180572 C1.2108584430092746 61.41487686639813, 0.5688655164116793 22.68913518127374, 0.331642460078001 0.7131904251873493 M0.5344272200018167 97.60586795769635 C0.7262027897137888 76.80035783005954, 0.07502270119373877 53.99323599282799, -0.7919768150895834 0.4871588107198477" stroke="#e67700" stroke-width="1" fill="none"></path></g><g transform="translate(43.97265625 221.517578125) rotate(0 31 12.5)"><text x="31" y="18" font-family="Virgil, Segoe UI Emoji" font-size="20px" fill="#e67700" text-anchor="middle" style="white-space: pre;" direction="ltr">main.js</text></g><g transform="translate(197.095703125 259.908203125) rotate(0 105 10)"><text x="0" y="14" font-family="Virgil, Segoe UI Emoji" font-size="16px" fill="#000000" text-anchor="start" style="white-space: pre;" direction="ltr">Cache-Control: max-age=0</text></g><g><g transform="translate(152.392578125 253.658203125) rotate(0 178.0587697806908 -0.5135943166818606)"><path d="M1.1616762332618238 -0.7265442185103893 C60.55202194179098 -0.9975457243621348, 296.90917558794223 -0.628684025257826, 355.80512203499677 -0.8464361719787121 M0.3124175263848157 1.5064161214325575 C59.60782773995461 0.8341374325845389, 295.5286453870342 -2.1320120534207674, 354.9536914209928 -2.5336047547962517" stroke="#000000" stroke-width="1" fill="none"></path></g><g transform="translate(152.392578125 253.658203125) rotate(0 178.0587697806908 -0.5135943166818606)"><path d="M325.6567831411173 8.317137403255082 C335.35049697244415 3.24089664732481, 340.54185908453604 2.9182242349140246, 355.4597041699197 -0.7922013054694981 M326.3227333034535 8.397423535426832 C335.07006004924017 4.4015736021823555, 342.5406112019316 3.287520920271996, 355.9363573118206 -2.268388607269153" stroke="#000000" stroke-width="1" fill="none"></path></g><g transform="translate(152.392578125 253.658203125) rotate(0 178.0587697806908 -0.5135943166818606)"><path d="M325.4500884245081 -12.203030229587611 C335.32986995391707 -12.043417422397173, 340.57399171547877 -7.128235335522034, 355.4597041699197 -0.7922013054694981 M326.11603858684435 -12.122744097415861 C335.1023928031226 -10.694095252502908, 342.6275723612781 -6.384767714401926, 355.9363573118206 -2.268388607269153" stroke="#000000" stroke-width="1" fill="none"></path></g></g><g><g transform="translate(496.37713273752115 356.5243863868976) rotate(0 -172.40318944540445 1.0060189649090034)"><path d="M-0.7658289022743702 -0.12694168612360945 C-58.070865326460485 0.30107245344358763, -287.47657642332854 1.3856996456006205, -344.6801869136768 1.744966073986177 M1.0329721946921202 -1.239190016677603 C-56.39089973742332 -0.5399791335624896, -288.2337483966259 2.467376608134586, -345.839351085501 3.2512279464956713" stroke="#000000" stroke-width="1" fill="none"></path></g><g transform="translate(496.37713273752115 356.5243863868976) rotate(0 -172.40318944540445 1.0060189649090034)"><path d="M-317.99830887528606 -8.051533498611263 C-324.38740026567507 -4.639418351272164, -330.3433797056685 -2.8042669198852668, -344.5254108472934 4.460466464525123 M-317.5000805209065 -8.070639244090728 C-325.44533413672804 -3.9240835935698755, -333.28811412220267 -2.632511290239945, -345.7746708127877 3.4326720903721046" stroke="#000000" stroke-width="1" fill="none"></path></g><g transform="translate(496.37713273752115 356.5243863868976) rotate(0 -172.40318944540445 1.0060189649090034)"><path d="M-317.7269061564818 12.467880307588583 C-324.03744543101664 11.175843635737992, -330.0556220428076 8.308575314987, -344.5254108472934 4.460466464525123 M-317.22867780210225 12.448774562109119 C-325.0910756090563 11.309378821826995, -333.00377577152454 7.314633245008139, -345.7746708127877 3.4326720903721046" stroke="#000000" stroke-width="1" fill="none"></path></g></g><g transform="translate(203.7353515625 329.7392578125) rotate(0 131.5 12.5)"><text x="0" y="18" font-family="Virgil, Segoe UI Emoji" font-size="20px" fill="#000000" text-anchor="start" style="white-space: pre;" direction="ltr">GET /main.css?version=123</text></g><g stroke-opacity="0.4" fill-opacity="0.4" transform="translate(11.6572265625 339.4287109375) rotate(0 63.4375 49.134765625)"><path d="M0 0 C0 0, 0 0, 0 0 M0 0 C0 0, 0 0, 0 0 M-0.3970936022372792 6.27486469154536 C0.9471578581740578 4.13811480535027, 3.3675778679737673 1.6042978362286058, 5.229929683687634 -0.32488427498962347 M-0.607955649462516 6.152983082135313 C1.5911343826734672 4.210225420109172, 3.771756789734173 1.8330452008147378, 5.3531960878097475 0.2677091035840326 M1.238771448386799 12.116763672649443 C2.7937104618116173 8.802329237356883, 6.050497054744157 4.3623145218092985, 9.058403347385061 -1.3134074781939624 M-0.4170055425633086 12.505633520006716 C3.3023358062742627 8.650723110263337, 5.778132046484084 5.154245310696648, 11.3813187449695 0.13574932022837416 M1.4133031600573798 17.717156010587388 C6.227355557545267 13.032096547645388, 8.878453002989012 7.524685938599562, 14.704485613390286 -0.7369907007622549 M0.28398508480282025 18.404345397744947 C4.357360706357688 13.612723045440353, 7.20623577075352 8.826991966476964, 16.561760486572464 -0.22158732387004587 M1.3931274900398467 25.617428900390028 C5.1849780077459835 14.676977701961889, 13.98029392347624 7.059821234393224, 21.616082193607355 -0.2992105843335864 M0.9769157489947293 24.660476911529063 C4.674202203981981 17.407000668150253, 11.011491102030881 11.481777704442951, 21.69792084423628 0.1342939244746688 M-0.48356573557952487 30.93887331499552 C8.079921256743038 19.010429766281398, 19.096103903795203 9.327405002865508, 25.94252352291009 1.4895506272104324 M-0.9230622099200829 30.004560421917787 C10.049138216756052 19.789998788716108, 20.074852589526145 7.172828705775419, 25.32131173894963 0.9755270717677416 M-1.9250973706227263 37.94545643199359 C8.59455906565437 31.01124307517032, 11.770889724511202 19.69739175848511, 31.987016526467002 -2.0294182187632437 M-0.24469200904485788 36.7926651572821 C10.720813881918355 22.369069836278754, 23.769856147532956 10.291125750818157, 31.61276460759977 0.45620614115737723 M1.4969304810882562 44.45192667897396 C13.161104558093848 25.061749957183608, 28.024803554995568 11.594047352684022, 38.440250763484585 2.179791296003433 M0.8961737595171684 43.32421972099297 C12.513284078682316 26.56598333698176, 27.410860291950282 12.308089403043684, 36.40426539611195 1.1301228516828736 M-1.745542621240098 50.21294247419469 C17.047262258741856 30.91399572754913, 32.606371484080924 12.689976068631296, 43.50387065913134 -1.0649694811225885 M0.1908960416912251 48.04364083208971 C16.66553411599378 31.010707807699642, 30.577124248046132 12.404859557901673, 43.48992679137342 -0.1494100235075706 M1.3303777475607248 53.76510516502272 C14.879931359764594 35.65022518158789, 31.84848060048657 20.965937951739306, 47.51700327261376 0.998770368116741 M0.7929625243645759 54.1948662637205 C17.047321621529598 33.81807492544216, 35.334066178324676 14.592360419885061, 48.44001598930943 -0.2543820153746559 M-1.1549313533027856 60.5896356697161 C16.059975350274247 39.547485438281065, 37.15313244919002 18.900838985271648, 54.07973052910036 1.1654246910883792 M-0.8679845965375392 61.79653148492466 C21.36055635818148 36.93094596057924, 41.43748452088869 13.449724509873363, 52.911926926807226 0.11773839922982532 M-1.4761970276526242 67.95440741586457 C21.776856674505925 42.532101742945784, 44.077391892802524 15.347853358883292, 56.67961698779763 0.4240269060503685 M0.5687645868816347 68.29650259907315 C13.561074435989411 50.07707730747505, 29.469882705151335 33.665056386392415, 58.46420804979206 0.41918043934516547 M1.6035723706892142 73.30307508105783 C13.225477375522939 56.807446799738116, 25.411579561854367 42.374268153099116, 63.81518207387407 0.0455533603696594 M0.4893106075188527 72.77350508453695 C22.968637536791785 45.7635711173655, 48.027004420938106 17.724155084332402, 62.86753454515119 0.151694378119565 M0.7399101509292194 78.64420333355395 C12.156401824686654 61.823352865134744, 27.09667274350843 46.53824288142468, 69.62242784653618 1.7455999723042979 M-0.6005324637006453 80.13875253535537 C26.206439247449527 47.80072906630077, 53.3494433418217 17.118771807720222, 67.91873610880985 0.8417281845923199 M0.47430448823590154 83.39329977071986 C30.648786920393526 52.558997818198506, 58.904469502898 17.75162038023717, 74.99831123095247 -0.22829441077874435 M0.5796761851104009 85.79047959967659 C21.057715188680486 59.18698937433561, 42.77448333234753 36.47212978789331, 73.7517691776553 -0.05974911808834804 M-0.1392738081842495 92.53549156081364 C20.133381249334157 67.93716260702617, 41.09606049381563 46.82015633287527, 78.22727178632942 1.0660286293785504 M-0.10096812512276898 91.58911862153992 C20.92838776610428 67.61992750976248, 41.010261389679044 44.168958949927834, 78.6517446976128 0.7979291891168288 M0.9330419078467713 97.467558381425 C25.15810902326672 70.73094677697345, 48.46465232129704 41.88930889798069, 84.10470393783555 1.3526704401431573 M-0.5298023615033998 98.51183257931635 C22.635497881864854 71.63460660480787, 46.49660392990139 44.34642240610352, 85.36590035556958 0.5649508793560756 M1.2360731484689964 101.36822283925255 C25.45963568781901 76.29331340430346, 48.73305554473472 48.046008941813895, 90.56348474467734 1.3003519397731083 M3.367963249827291 99.83530550548574 C27.189089637152694 73.99843869722312, 50.09976153964598 46.885548175487784, 90.91762834745089 0.16620142166867424 M6.483946972888923 101.6249558525544 C43.13502019860155 62.92277533336731, 75.11271138025852 22.85593473102155, 93.79744613202334 -1.3902630243646286 M7.47509590479455 101.37504786908741 C36.96270744813485 69.5158241275324, 64.88772572642554 35.512735037277, 94.91744761014402 0.20108733920284294 M15.027509190313019 98.67600958958853 C45.03257242996601 61.85491257842705, 74.0816122824899 28.788868259105826, 98.88790265907997 0.17610896598798575 M13.137253424323596 100.13992951416064 C40.78877759830727 70.86319517683329, 67.63267388469693 38.88052275212748, 101.37703158957416 0.9187128509978706 M17.72932435994779 102.13541746861301 C47.643377270382 66.5124730144723, 79.2965848421223 33.26507468211284, 104.92712375101578 -1.8233057418020948 M18.225484254339683 100.26967965974472 C37.88814820120756 79.63668423581609, 56.69549763472221 58.25377752125505, 107.0201804726286 0.11770323020196116 M24.46291190696173 101.89915583699481 C53.45379522125958 62.02242169156926, 85.8464442008797 27.203583076442854, 111.64486146703727 -1.7666612294768314 M24.822963581730058 99.95354857898788 C57.09197168590079 61.23612125332874, 89.87354967436326 21.568557139698797, 111.09684895523257 -0.8786185541455964 M30.739273890561343 100.30782061299195 C59.02600666223502 65.84759566405677, 89.5813596551779 31.11944709744199, 115.87576370332243 0.25454093055352445 M29.039021102419973 101.40548424092938 C56.87378700434979 68.92018909451504, 85.62882466522144 35.74962657346923, 117.03805944528284 -0.5676988986738039 M34.83036723591513 100.23395064397141 C60.350589364945534 68.82175616893022, 88.74652586657322 40.226594076359014, 121.46619710604926 -1.1754195841213289 M35.32011325329668 100.76395566871747 C55.96155944254005 76.1319552485139, 75.17010444218565 52.89472347955917, 121.55022497567614 0.9338751749882874 M40.39563150222958 101.24470434819119 C70.49985319199185 65.99373651946797, 98.55226101592179 31.43030445598687, 125.18106998442425 -0.4073531052433239 M40.26385098028541 100.06712958139138 C62.49433871568828 73.8945617902337, 85.9497195738324 47.804792391646046, 127.70947211733773 0.09200476087999476 M45.60546111467322 99.68918307301831 C67.49912734667575 75.18339630193421, 91.73818312775893 49.296403688377175, 127.92277328169189 6.152549606336663 M44.929971970273456 101.1526937520994 C67.69596734531626 75.52038903225028, 89.7623171645607 49.21154158262837, 127.36808195023082 6.647288648931692 M49.76773313245252 100.86110773671075 C64.38244440568404 82.45351352538935, 81.94531800692229 62.79109836844006, 125.10312503898268 14.092364077094487 M50.65436841918603 101.63303364988073 C69.47817501136595 78.68781797302563, 87.36621598093573 56.96883101346114, 126.71393452720469 11.477170041400484 M54.451279480735984 99.08614218663553 C81.94036081173863 69.96264649613263, 110.16428866549634 38.18515555017453, 127.36536690247462 17.94949498461991 M55.36005926391038 100.79505579788366 C73.84793029857491 80.53488683071919, 91.56544811868196 60.42276574816509, 126.18000538115606 19.363499416657383 M62.11241471873013 101.88456984105065 C82.83508331337876 76.71979097107187, 106.18467729240413 49.596538746456275, 127.73945926834577 25.562128256502632 M61.37121795037178 101.57536441514745 C78.73891945465618 79.1487455208916, 98.61441547563307 58.49731100505103, 126.78716066998177 25.15648662807334 M65.21840827160345 102.05861704732305 C89.60756725006357 75.74719976180022, 110.8767491581641 47.597518916581365, 127.54890419580258 30.45835981100069 M65.72414466545747 100.46008477482027 C77.92654457980953 86.83919695288604, 90.59377316728818 72.43764564970414, 127.23848008960701 29.976329644687638 M72.87401219856244 101.85512972371083 C86.9757071149021 82.12227601618271, 105.69223211268157 61.40630407997576, 128.87815861001354 36.698228495481075 M71.9812941050927 101.46003984594148 C93.21371506701695 75.1669643123294, 115.78552131709928 48.90666486098008, 127.57417007691903 35.86774748964852 M75.9449334247756 101.0528967175809 C89.63866216667849 83.21695402894937, 103.85391351766262 69.41295377444914, 125.1991620701852 43.03639272820179 M76.54224770616472 100.01057365165923 C92.99391789276085 82.2211718615487, 107.02573929107601 66.43610790628077, 126.98559157784308 43.775156881995244 M81.68436150944942 101.12532644719133 C99.2578448429743 79.44365943083139, 118.17266871147163 61.47463739927389, 125.8387499724955 47.7641634367526 M82.45774141459876 100.94672791101286 C93.10023376666754 87.41184544375099, 104.19419418722647 76.3927218834754, 127.47017325027592 50.197205175098816 M86.20038184876194 102.08247984013182 C99.79604923033465 86.30497412634087, 113.54426214357049 69.43796998073375, 125.8854764631225 53.098632798723216 M87.08457888829162 101.15777497737331 C94.93518420931696 90.761721781563, 103.22639616176774 82.38246865624492, 126.92573437711431 55.38839909733021 M92.3627985888911 98.86019907399213 C102.07427673352605 89.0688711830287, 108.7968436998784 82.31476402563452, 128.09643735127264 61.571802982371665 M93.17995441013998 99.78884657911158 C101.12715464133046 90.78152576464552, 110.50260564168642 79.97495555155939, 126.24480777928348 61.56073349272869 M99.70995753904344 101.70923631703029 C109.28021974594155 86.62950223997103, 120.74722113969038 75.42223662670904, 127.36468331211451 68.87261908506494 M97.99577580106916 100.44256256026695 C107.05605181223169 91.15893154909975, 116.06737090174431 80.64675750880761, 126.96955301867071 67.5382242594425 M104.91615937438748 101.03728666661324 C109.19570295026087 94.06262656507336, 116.29966634885027 88.09378435903228, 125.3457476548545 72.00964577506105 M102.93357762296638 99.83356381898763 C109.41916735537133 91.61402164557907, 118.17872593495383 83.75383740145851, 127.1057841662012 72.7320849915109 M108.41818740412967 99.57166479099907 C113.79405795001215 91.21835632413719, 120.7422184859828 83.64854609141273, 126.92505952567069 78.15310022994974 M109.35854894675688 101.76368894931294 C112.90361117996686 95.65607502189117, 117.18541641833416 90.9023788256049, 126.77788300477175 79.7952599173049 M115.53877980343852 100.44662828755469 C119.35037108227341 94.37743333411254, 120.71549650411353 90.7813816417687, 126.12476682074103 85.02398087732075 M114.91050558432791 101.02179759939105 C116.56224478276312 97.59478195125874, 120.55749756164937 92.80836917632658, 127.32312194227907 84.82405264019548 M119.08661945800571 99.95394833955233 C120.48580977758033 98.14358039860436, 122.6093954090919 94.94046462883566, 127.57414382781104 92.68162744101939 M119.20947574305622 101.1496840127862 C120.88583658805574 98.25960766977558, 123.6033353265426 95.30870602104997, 126.59940052303688 91.64756268729326 M124.67440877037811 100.49110232557891 C125.22210823786544 99.38957228114666, 125.78533418657874 99.28450605045438, 127.68311465772534 97.81259853933291 M124.69368617276417 100.63059290352999 C125.5987607188282 99.52563702584612, 126.61056083127777 98.53421847468988, 127.36591662819231 97.54651495050923" stroke="#fab005" stroke-width="0.5" fill="none"></path><path d="M-0.09893136098980904 0.48427366092801094 C30.339341491344385 0.3079421743866988, 61.244849908864126 1.6344081387040206, 126.02750379964709 -1.4890872351825237 M-0.3523714002221823 0.6801398750394583 C38.80766779195983 0.107080840494018, 79.6161997972522 1.0560237998026423, 127.36526905931532 -0.22223779000341892 M126.8274887315929 -1.416437279433012 C126.15083398570765 32.36938471548566, 125.89771511306513 67.08329585225003, 125.31581277772784 98.74312495067718 M126.04662882722914 -0.30488082207739353 C126.59781048987185 33.329740287618925, 127.16280738804613 67.91068669943927, 127.17149012722075 98.14446232281628 M128.55723447725177 97.40998267009857 C79.42071017634589 99.60872757359178, 29.008989800000563 99.42358922882707, 1.6905284635722637 97.76899634674194 M126.7383326832205 99.20148298703137 C97.43054760608356 98.99868888017957, 67.73036178736947 98.46887588856046, -0.37405539117753506 98.24174371920529 M0.2688947431743145 98.0876790173352 C1.9054962154944224 63.06869399099307, 1.3342697378714365 25.349135997121635, 1.310708474367857 1.2087662108242512 M0.9977035466581583 98.41743198595944 C-0.9190123654774652 66.22561895323526, -0.48286449684419497 36.3003216523226, -0.8303884919732809 0.3171039577573538" stroke="#e67700" stroke-width="1" fill="none"></path></g><g transform="translate(38.1298828125 376.0693359375) rotate(0 38.5 12.5)"><text x="38.5" y="18" font-family="Virgil, Segoe UI Emoji" font-size="20px" fill="#e67700" text-anchor="middle" style="white-space: pre;" direction="ltr">main.css</text></g><g transform="translate(198.7529296875 414.4599609375) rotate(0 105 10)"><text x="0" y="14" font-family="Virgil, Segoe UI Emoji" font-size="16px" fill="#000000" text-anchor="start" style="white-space: pre;" direction="ltr">Cache-Control: max-age=0</text></g><g><g transform="translate(154.0498046875 408.2099609375) rotate(0 177.64621272691994 -1.3811196112771995)"><path d="M0.22433199360966682 -0.07033646777272229 C59.63580144519607 -0.2771368570625783, 297.2614138868948 -0.5337552852928638, 356.40945789292454 -0.9502381391823291 M-1.1170324390847237 -1.1528670586925 C58.21059148264738 -1.727239044783637, 296.6758087929369 -2.5972457249742, 355.8753036043327 -2.6919027547817675" stroke="#000000" stroke-width="1" fill="none"></path></g><g transform="translate(154.0498046875 408.2099609375) rotate(0 177.64621272691994 -1.3811196112771995)"><path d="M327.5970375320862 8.963986212135662 C337.20747292342355 3.698477125304123, 342.81815826409155 1.7646163645921336, 356.4486213593464 -4.070550488261506 M326.94676616294186 7.714726246641386 C335.281366531644 5.674775863780297, 342.3336817243177 2.805981626273364, 355.9971618192922 -2.4740084446500985" stroke="#000000" stroke-width="1" fill="none"></path></g><g transform="translate(154.0498046875 408.2099609375) rotate(0 177.64621272691994 -1.3811196112771995)"><path d="M327.53779250334213 -11.557136866594906 C337.2153975407349 -10.767928916196595, 342.84356333045986 -6.646961885050325, 356.4486213593464 -4.070550488261506 M326.8875211341978 -12.806396832089181 C335.37737972701404 -9.412542432303425, 342.44538080293756 -6.8481054335295894, 355.9971618192922 -2.4740084446500985" stroke="#000000" stroke-width="1" fill="none"></path></g></g><g stroke-opacity="0.3" fill-opacity="0.3" transform="translate(509.94140625 10) rotate(0 105.515625 225.865234375)"><path d="M0 0 C0 0, 0 0, 0 0 M0 0 C0 0, 0 0, 0 0 M0.3415922113089015 5.777770379235141 C1.1003149771362524 3.6295116304881265, 3.876406306512379 1.8327739129558793, 4.274287284495777 1.060864334910851 M-0.43665069189387057 6.414589878221147 C1.7446763218483003 3.6640399313126224, 3.433680793882549 1.692424650850128, 4.6295043546282715 0.5440567005274111 M-0.2219106278289451 12.332262662469923 C3.145451169227312 8.25438037669991, 6.866942965640373 3.070550994110252, 10.533509425771367 0.33210230721977974 M0.656220274521004 11.789049996852457 C3.4968295213326037 8.619745508960486, 6.046495722527926 5.3883696608294045, 9.875717562389505 0.06106500132826587 M-0.25139921815602584 16.86865727128523 C3.8884147584097937 12.669509851379411, 11.2669837083229 7.247960165758933, 14.4610214191521 -0.9971107722329924 M0.27860580659003453 18.741206788365417 C2.785339674711683 13.07245989528935, 6.819300049673621 9.2318542281484, 16.570316178261717 0.7702062080544403 M0.7938493156991218 25.860675299256204 C8.655056971362985 14.165014729430364, 17.024197312765228 3.0521770029368227, 20.512054959589506 -0.7978238599211451 M-0.3837254511006858 23.14910710574603 C4.824104686281331 18.111789568241136, 9.854518266975509 14.023824617953553, 21.011412825712824 -0.2942682212055203 M-0.6285265786061629 29.534019576151124 C7.576583035941373 23.193028411115122, 14.632640581401786 15.493183266544031, 26.415898642178984 -0.22006714399785388 M0.8349841004749194 30.658009499076954 C9.557198034306502 20.357702519945327, 17.792968789506123 10.731913713615363, 26.910637684774013 -0.6717420393589197 M-0.07816611426887121 35.16413188893472 C8.819528559910111 26.829770305572886, 16.135945305989154 14.339286902123547, 33.601003532714046 -1.2626396677211638 M0.6937597989011088 36.79988651704167 C6.497138532403114 27.815021437785383, 13.255775914056816 20.08562464366331, 30.985809497020043 0.7060633470549469 M-1.0639272544859892 41.288172774571706 C10.882278879257276 31.44816214396409, 20.01521432817918 20.695540599460795, 36.047365831026184 -0.768783403458027 M0.6449863567621463 42.25710133332365 C9.03161859959527 32.80951340750292, 17.667003935939295 22.63404319517732, 37.46137026306366 0.6391554773878774 M1.1129362005739623 47.844150260695145 C11.09425332618639 37.580952615187776, 19.267143016585106 27.343875616018874, 43.6599991029089 -0.5888598944664949 M0.8037307746707611 48.18903648727469 C11.250720754094573 35.88512716358781, 23.5688264184599 21.141696601769812, 43.254357474479605 0.6840941951005703 M2.076187816704497 54.762952804046975 C17.932353431188307 35.28877598181313, 31.958507520177395 19.536589823731745, 47.14546204819369 -1.667673613113518 M0.47765554420171696 54.011626822355495 C18.548453291473493 34.60516359902716, 35.854794261265916 15.159314997651435, 46.66343188188064 0.2541682895448254 M1.2511362937371047 59.88102593226026 C20.168126617807943 39.24138472937865, 38.10827631379891 17.991329750372614, 53.38533073267406 1.7928513973428615 M0.8560464159677537 60.49753612791787 C16.616895269586934 41.58456597242933, 32.45728251618432 22.91262158123058, 52.55484972684151 -0.35578114581864995 M0.5820486684747905 65.53240518229971 C13.95506317957669 48.68197675027598, 31.417683579723445 31.108619950228622, 58.312726356181514 0.24634816453568575 M-0.4602743974468737 67.55569007764528 C11.496997108708932 52.65477549674702, 25.433360630511913 39.269108642659035, 59.05149050997497 1.1308159283619368 M0.6889732277205596 72.68784484113006 C20.959558134508747 49.47911038621746, 44.68678328721562 22.83824203630811, 62.28578748450954 -1.3606698547930947 M0.5103746915420899 73.5579049702212 C23.859704442503244 45.45548338239764, 49.79257502297143 17.099457051313237, 64.71882922285576 -0.002918144452713989 M1.0245624213059017 79.09394668638436 C18.763827291593923 58.65362834559812, 35.506908568816534 35.045549962076294, 66.96419781748965 -1.6761321330104337 M0.09985755854738443 78.66551646999744 C17.46492683805264 57.73139930067025, 36.87973831535457 37.338096108610735, 69.25396411609664 -0.36713207491080624 M-1.408513934975673 85.86519292480455 C21.04537742328888 58.500498990125806, 46.441469072863434 34.80525924219734, 74.68265842091533 -1.1050877133743597 M-0.47986642985623007 84.60891254543469 C22.920756682052506 59.31185136117445, 44.472102570583175 32.83055946390866, 74.67158893127235 0.5595777304483818 M0.8189591087073254 91.39662283402369 C15.590214734206306 71.91984747475406, 33.772562062184186 52.81310975372292, 81.3274154946181 0.10297143174814494 M-0.4477146480560137 91.78771011088476 C21.86419715755617 66.73058704938045, 43.305926073276254 40.79523199800518, 79.99302066899565 -0.46965618902338235 M0.28015483915790185 97.9558657010065 C26.72080016423885 67.50636951720678, 54.44669532318026 33.053130689526505, 83.70973260439143 -0.3085662409009444 M-0.9235680084677114 97.05028796503112 C33.57548655039985 59.94921923247776, 67.92992834102525 19.84370847214521, 84.43217182084129 0.5548510101346267 M-1.1509722068209385 101.82226956271771 C25.274166639063314 70.58509798973765, 52.87577678753212 41.32216786427475, 88.44241845006684 -0.690755203688596 M1.041051951492932 103.02041553155723 C21.523876426238477 77.81453814391637, 43.016523988423835 54.94033771578588, 90.084578137422 -0.00048688272580932335 M-0.14286332939770574 111.42602994679035 C32.88708064562965 69.09750331150921, 67.73283129685242 29.792553639390476, 95.31329909743786 -1.6517694998728416 M0.43230598243865614 109.4238815998149 C36.56541030673094 69.14342492162444, 70.41803822810151 28.39546170042526, 95.11337086031259 -0.38770377414397217 M-1.1889424627788898 113.94022280996641 C20.425540220902537 89.93503894748558, 40.08007770174681 69.22555414060133, 102.16174574633592 -0.14422610182064233 M0.8039503259442213 114.86802726326486 C37.130158145561325 73.64247489637717, 72.82008491356358 31.367694145802247, 100.43830449012572 -0.37710462476807294 M0.26891159286699917 121.19348117987892 C30.317152771558355 84.74325230470598, 64.91034013469547 51.94191102875946, 108.25214696255458 0.3721384472099558 M0.9663644826223674 121.94192256125888 C23.5978127013245 95.10022959074861, 47.592691907756105 67.2093840106652, 106.9217290184362 -0.23244209113740766 M0.5577783743429663 128.26202809349257 C41.910665896652255 81.58587978171686, 84.21116790196572 32.87734496210271, 111.15043644592531 -0.15685532514800826 M-0.4835355849426506 128.99589941748042 C35.89584504089102 86.09191124908011, 72.84809446164626 41.9433339467723, 112.05761769585676 0.3892601160998126 M-0.06948133154797631 135.60880533777214 C37.34275491757184 89.52958904552946, 72.82915935904322 46.742133034744256, 117.44150623325112 0.21220311807021375 M0.8070254608334295 133.46818038061298 C40.966857929611585 89.61006254793304, 79.05802149141013 45.163697190592146, 116.50148023497167 0.21724017062708612 M-1.27740257497436 139.22260219035067 C35.17288900396974 98.97525816110861, 70.93850487022495 57.48377382714028, 122.886029611335 -0.4405569361706796 M-1.0839947544366737 141.21150736500837 C31.24159275449186 103.51376686955521, 63.32242206317889 67.27746036171487, 122.03968572336515 -0.3063731288721385 M0.0694969598573465 145.21008835797008 C43.32617545199744 97.95076769948022, 86.95665973450589 47.52798331168559, 128.57728403000846 2.240841289762379 M0.17645688582182117 146.27267458912726 C27.06230295636029 114.89574882964516, 54.1894695678476 83.92632473157981, 127.55878553664996 0.300068381953956 M-1.088493769147946 151.77970683035997 C29.768751062588247 117.20683709820203, 57.536109230342554 85.53886395878155, 131.75050569143627 1.3216925303927154 M-0.11804907366014197 152.0345451221452 C39.78224671136425 106.68419817563105, 79.35283261875584 62.9032567605235, 131.67596101376935 0.29684167108835213 M0.03398818191983427 159.39800111072844 C50.21469159417324 100.09624943343567, 99.76474826616415 44.99249246033057, 138.12215538659436 1.1682259442944716 M0.6211139041603306 158.78742338173146 C40.04729835394094 110.87055818483957, 81.11041390669065 65.4103117160472, 136.99653070624612 0.057952854948670196 M-0.2527075387275923 165.83089724511257 C38.78671979858041 121.3409901669654, 74.52573115487039 78.5966645230012, 142.64958533950497 -1.5176958488964738 M0.8712110233908255 163.59494686325675 C31.820546482924364 129.21898147049293, 61.95441837089918 92.77768098325741, 143.84921399825055 0.4475944590756763 M0.0674479583286523 171.67474113464394 C42.79954318875611 120.54455893316961, 86.89071945300432 70.87899415920184, 148.2957293766964 -0.3098501414079724 M0.15896209151052304 170.6187863567259 C54.28191882647471 109.36825788628055, 108.48365528891216 46.0374126573693, 147.32364216933217 0.9411047795288735 M1.0487750753445089 174.99655411268805 C45.707416037277255 123.18457937440847, 91.61897881656105 70.71932933726295, 155.26620993753397 0.6345361067661189 M0.011456458523167012 176.22325992969022 C41.31511013140198 129.4112499975222, 82.52377489640257 81.8863086077848, 154.42563429156505 -0.12155126008574214 M0.9656122579888272 183.87359342412648 C58.61519249184397 116.85420488296971, 114.10705210789078 49.34744750134398, 157.9295290047959 -0.27727125285200793 M0.36119090378290974 182.89960135027962 C57.08342560131976 116.43751184017941, 114.05113741531306 50.39017547864415, 158.1404957163736 -0.4154046855836252 M-0.6872530663025624 190.8467156419932 C37.100396392289625 141.2866100297799, 77.51537232738364 96.57381587880568, 165.12892154428056 -1.6279669318358028 M-0.8947369160279802 189.7107591463509 C52.72979144058341 128.03246690161336, 104.36094923683514 67.92133913972442, 164.74947872039402 -0.5097315579548876 M-0.18391607740043608 195.42866084216433 C53.624324562493904 134.34135262622024, 107.03290965129068 71.65288791390824, 169.99724180946706 0.029802726075660507 M0.04027913340911729 195.50347063011722 C58.83062100845049 127.8075047739574, 118.16836359627976 61.188759232706566, 170.01956971636457 -0.20786662422670266 M0.32688289279298 202.5323613361044 C39.35288644193611 157.9233433547787, 74.79444080353865 113.00380864950624, 173.71884403822713 0.9706676626031063 M-0.675374390093303 202.0204639323329 C50.507005962181395 145.1883900611911, 99.46518546590681 87.75124038535841, 174.5058239938831 -0.3963856695230894 M-0.6269776561399335 207.54886970174573 C72.27341444290336 125.61017948484493, 141.9275601905499 45.319169511565725, 181.50288627928407 -0.3332206385116856 M-0.21557630217922796 206.30080913896327 C56.774552980773315 138.85834104539148, 114.64456710209102 72.48086588409447, 179.64095986329917 0.5459757547617505 M-1.1911480539311938 211.95138260737315 C62.08450706069336 140.16916250119027, 124.22792003182097 70.8806161352866, 184.48236128817047 -0.11295102605431197 M0.7212706143127345 213.7588790100339 C56.863302351757014 147.2769157954777, 114.97051728399498 80.68059137925378, 185.01711933602908 0.042373957160953046 M0.4913808881274778 220.6790814083726 C65.14366257576127 144.86542621898226, 129.98187896642705 67.03803627707155, 190.43946601404875 0.9536534819571226 M-0.4770767322093393 219.7590245298693 C45.194237571612845 164.01488918338845, 92.37515644437944 110.53434867745614, 190.94548719385674 -0.2464848061598346 M0.1696782106147883 226.14745069964724 C66.41124942547437 146.2356756901496, 132.36989677554374 70.90205614969065, 196.59182167057534 1.0757437366646123 M0.29115781130148893 225.10207144737393 C79.19990553427337 136.5749144097135, 157.58649242613583 48.080097268520575, 196.02896975625583 0.2119204197046755 M-0.867064339970292 231.73338249477968 C49.034932677636434 173.99833543182453, 97.82345628507855 119.20563204155373, 201.4638901116712 0.2459031129789788 M-0.3109512875437497 231.36445617640504 C40.27891581141235 185.73877204963392, 80.6580156480935 139.42272071564565, 200.90666306525154 0.24157898982277545 M1.1487050785207558 237.14372678177412 C80.33906577765629 146.2537940899951, 157.03279583369633 58.382531408021116, 205.6343784369066 -0.10275858976746405 M0.4726954774842741 237.91329914977277 C78.77062677857963 148.02525361900783, 157.04495358005684 58.5761012299046, 207.37968682648716 -0.8217171467844997 M0.3490768855419596 244.41671058985702 C55.81203414600328 178.13771178508316, 112.11190810162053 114.60740904916578, 210.14052578636213 0.8603705979917948 M0.32743002009442723 244.43746857202123 C47.02944284500409 189.24436715648315, 93.11321017897966 134.8955505427236, 211.197702371716 1.307524614360183 M-1.189752966092572 249.8709222269147 C84.62921971750536 154.25349768664816, 169.48469396618185 55.305609846181696, 212.03843982393084 6.104235184733081 M-0.6427642631405912 250.7334632219957 C69.05488517790761 170.51023422314768, 138.10573573840176 91.23515316996546, 211.72070897604422 6.632708849101328 M0.2063114004741417 254.6361898750794 C57.079926792070566 187.62193963452302, 118.00125311199875 119.35795157808563, 212.67837069486427 13.02160429809151 M0.7820875260279768 255.39848408425755 C57.44115295534798 187.15957866273786, 116.18144194169568 119.14080956452229, 211.34572385740265 12.516457989104131 M1.078972068451078 261.2466896766336 C76.82689328221356 173.1974036156089, 153.7327963961639 84.6493389676061, 211.19112263311442 19.628686276706635 M0.5968827782104817 261.66475407281274 C76.88051809598556 173.99751942430052, 154.47536798352 85.52257444187461, 211.81824798315154 17.853486718683655 M-0.32638134388930196 268.2547212997732 C60.79641062479427 197.77401408084944, 121.33583267598418 127.58208678499862, 210.90811624270358 25.23448744215485 M0.47512566898242903 267.28056363110386 C58.98317584718963 198.69441305882887, 118.79570322904183 129.8015468102919, 212.13336827298133 24.570432179024472 M0.5142434854058575 273.42381529327844 C50.88072548504397 214.68181477613945, 101.58904146431374 154.83468207833005, 211.51241483711863 30.621071939998135 M-0.3210109653895897 274.08324414625235 C52.58970791430531 215.5809087196193, 103.900263937842 155.9885964866767, 211.6909264249824 31.703350511938055 M0.9935018879536022 279.4821061637065 C82.15688572293008 183.02101668853507, 165.86430124899192 87.10195932016373, 211.3240753485123 37.45900332994467 M-0.3759740349660272 280.6565733102702 C59.1168620189918 212.61511965688408, 118.47043031564836 142.6955202213567, 211.07188784734473 36.99345606844427 M-0.7551314752937027 285.15095556004076 C51.24149790639015 231.44718851640945, 96.82251163212776 175.88240418092496, 212.38842639625858 42.11760737818072 M0.46407702062053063 286.7349498360049 C75.68369400795378 199.11092867779274, 153.72278995226733 110.29499860215326, 211.41246264557967 42.68632155545793 M-0.7967629912661893 292.9216599390052 C43.21749181773433 244.7585044176272, 87.90436665116428 194.36091843040742, 212.62165609647147 49.788778660584 M0.47689234778822975 293.4194898348696 C57.064816324952055 226.0107804779193, 116.24023995336715 159.1244955883521, 212.00111250552317 49.59157519432848 M-0.020807766187297905 298.08489002779794 C64.6394211342757 223.74143339141077, 125.91004698838357 151.05467158919865, 210.40299073008725 55.381161815600386 M0.6159517525383007 298.6418416311681 C75.353143211118 211.50034236173911, 150.75930159479967 123.8689398030417, 211.9401245518306 55.509778388079994 M0.45290564216212176 305.83802674949993 C50.28956242605687 247.15144240730842, 99.76223711415335 187.802559435157, 210.63263952216013 60.41656145194314 M0.6001253827773354 305.31999718647864 C81.87141376132955 209.01784024352435, 165.41598112582463 113.95021192618479, 211.9111001493754 61.82039935951975 M-0.24022505046544726 311.98180041234826 C53.79948543538753 246.5346887491219, 110.07043334592291 182.79364952858268, 210.3330178354137 66.86939122128359 M-0.7029308363645366 311.25815807740975 C66.00197716085437 235.91690446997183, 132.40898329947936 158.71229682187783, 212.1649184640233 66.74969563466983 M-0.4027157104777175 316.2507848656732 C69.28422321698798 236.0882994897816, 139.73542244788578 157.10004494828263, 212.0674780812543 73.7544436804547 M-0.3348571468878697 316.32357911121795 C66.05007172888311 243.498950057979, 130.93900159618588 167.07544023863102, 211.90677225131878 73.93264526209876 M0.9471355239341743 324.468963448969 C69.00075874823878 242.52566995499743, 137.12288150064956 163.7277075462359, 210.5451992207813 80.12991409508088 M-0.21114050371095913 322.6657529907329 C71.29464022842325 240.36159465929336, 142.86973823870727 157.34174827694767, 212.439457666144 79.52806779742234 M-0.9863350829600861 329.28093356311484 C46.953349589666395 276.6981357370926, 95.02073797052685 220.9563511032047, 211.09700873163874 85.46976378222679 M0.20093643761623653 328.7751153027939 C49.913259577579026 271.5668073747319, 101.31355425613036 214.17098842829822, 211.89000235405254 85.94738011833076 M-1.0631283201169814 335.56889865085526 C63.44076879588461 259.8216878099588, 127.98660284386567 185.22384254625737, 210.71670990462135 92.64378151209827 M-0.0074472759565551855 334.8804725187984 C42.63362112169669 285.2909374585001, 86.14992596221508 235.42191328556024, 211.1314534723119 91.74528150273511 M-0.4017893332051755 341.1828293575079 C72.93766204268302 253.8394159968621, 150.1003096597926 165.89363739674866, 211.47225361090457 98.9607862152928 M-0.03576004843962058 341.18041187561164 C69.4412479615928 261.2013869192822, 139.51329399003703 178.90163300547613, 211.78676718091396 97.41167933903782 M1.4775972221193059 347.4563233311857 C48.92762166888497 288.4019534566033, 100.06794972600788 230.34418543013902, 211.67105131611117 103.92337653005994 M0.6178080563884608 346.6687587375579 C65.83905361941055 273.03406690089327, 130.27187959876866 199.07252204544997, 211.42430652547446 104.18957890621901 M0.5980516684466434 353.0404786849429 C63.757661071709556 281.4844822736938, 126.06433938060572 209.5105906976171, 211.93482693856345 109.40834583049022 M0.1396615894843426 353.54296109572493 C61.583879372740185 283.262477084956, 123.59253328487421 212.06529334815772, 212.28473446672302 109.54512722234999 M0.1748664361146269 359.66003309180786 C74.21813206008895 274.1051588236314, 149.86617385414556 189.31297563943193, 211.4272723167428 117.27680461405551 M0.3496364305395072 359.8609499752046 C59.36194984982446 291.8727151538913, 118.25599019660551 223.61412349100354, 211.81679655393916 116.7154535185316 M1.260640105453398 366.93997523186613 C63.64256178574367 291.2810616408557, 129.143752991064 218.15530928389956, 211.1405382804496 124.00422579092256 M0.008519013950815842 366.3289601107168 C72.98932412820513 279.7846581895147, 147.00616314071078 193.19655050406854, 211.39402619230273 123.21500845362034 M0.47258505350394864 372.59013606822856 C63.23753289469003 297.8264999162859, 128.8711532207196 226.27974238795306, 210.62539746687943 128.42013905289025 M-0.626499260107295 371.7544177398856 C45.299593859868025 320.70404377355953, 90.91396000313262 268.1809714727952, 211.52802329503822 128.00980050562043 M0.6507017325071622 377.3820605379748 C77.47880993984208 290.3730398541015, 155.3260310897391 202.63360906066293, 210.27572759990142 133.89205484433037 M-0.4279384905709567 377.44075713409205 C61.26782544308612 306.1503937937628, 122.27869774760586 236.92885340805086, 211.242451139995 134.52200030141725 M-0.7889379377092226 384.52663300972 C72.38979693853031 302.1239288609432, 145.0414627246108 218.25978864364558, 211.8543212479624 140.16730310148003 M0.5993092853331476 384.62679888798056 C46.840458116495554 330.16737703028673, 96.2284698396818 273.55377666121655, 211.23540155115674 140.52184259630872 M-0.2008590958284494 388.74555534214863 C75.21778697062844 305.4413098252779, 150.14703309009585 220.12123715255717, 211.91259318759668 146.53503467529558 M0.29174263372504805 389.93962181903044 C45.39365687598116 335.12642526007187, 92.61617580237852 282.6911402974824, 211.36245819687613 146.2910256038437 M0.1713066585704413 396.14116661924146 C72.50760219033363 312.41764669879063, 142.70467556561252 232.2158817177649, 210.66232702840458 152.03479300106244 M0.17024297913510544 396.3465021961449 C60.63462442457109 324.7987651559334, 121.52485711851095 254.95048188082583, 211.02235325395233 152.86844401561777 M1.0354845890564852 402.11770579792807 C55.685016105057656 334.27623248147245, 115.67126853707227 267.7138915267724, 211.48619316085788 157.63051295936893 M0.25017628190395313 403.04757603805393 C42.720992377941236 351.1852560659257, 85.30111884272984 301.93811535352427, 211.31110639560507 159.48151384130247 M0.013728763508145003 407.48068625962435 C74.82226549214255 318.77973808804114, 152.77274768898423 230.16466419007713, 212.0875298145099 165.58937648278751 M-0.18647358769285205 408.4799170362941 C83.26744004243515 312.9761778115509, 166.46213462245453 216.29534604024195, 211.6195064629224 165.16346400269845 M-0.5163764088888924 415.05315657046805 C48.85731860151849 357.9269904442542, 97.92090408966763 304.01194919753885, 210.57150211274768 171.3530666270932 M-0.43135491601805936 414.7060533384468 C51.59664854418991 356.974685862112, 101.94789476537962 298.4767409661062, 211.40462375552912 171.16148852930826 M0.8702945981128427 422.26325623807406 C62.88024102938637 347.56049651695633, 127.94415875239612 272.62196667674954, 212.79946088426664 177.82253370503557 M-0.024277888085605104 420.8502933528078 C84.07192714058104 324.5198586235989, 167.4901939700175 228.1868958920495, 211.8486286242254 177.97824365571304 M1.382432961743942 426.1190953818776 C51.01807622944398 369.55696364826196, 97.50020442454475 314.254004205486, 210.64445646005862 184.42513824735192 M0.6353409923258342 426.0945788004 C56.330846165716395 361.095143812898, 114.28824936570811 296.98341070172165, 210.67338922295895 183.60998980857605 M-0.9373452815280917 433.7231150843994 C52.64624084681716 372.3365005660965, 106.92391841244823 309.9363745228572, 212.09370991598436 189.2871591443968 M-0.3445845769469488 432.6908635207513 C76.47227183560305 345.5033718846728, 154.64524862038667 254.8592426189899, 211.25796491401096 189.3288488857812 M-1.1145543592430367 437.4279538119059 C44.000118999869926 389.2752910477721, 88.56962831680696 339.38815503579076, 210.1583268746338 196.99035159714035 M-0.3968496388102897 438.62110182104385 C77.09071298583343 349.44099889488734, 155.15616362036454 259.90678171017703, 210.88036803339233 195.73389643147368 M0.6302611061771939 445.8358009987302 C67.7899333230797 368.84793710834657, 134.65026343981228 290.1176577157888, 211.2127455623139 202.0503657107478 M-0.5731277222352659 445.7796183008836 C51.66709081961467 386.6457516889177, 103.50985114312202 326.5502080107858, 212.23839465811164 200.98852976417092 M-0.6246803440445818 450.59142603024924 C82.40852501297083 357.2131660705938, 162.3670015155776 264.0041728400965, 211.72522128569136 208.80540155133357 M-1.002501612883439 451.24821230977744 C73.66333577623449 363.16277214274476, 150.99618360572788 274.5611576615724, 211.18674840915506 207.59541826777448 M1.5442690194034219 453.3624358122629 C44.979679411673246 402.45210203680443, 86.75480682940707 354.0207107553193, 212.7155741687984 214.90395389994217 M2.5117410250583387 454.2347975807572 C83.71554372221054 361.3163979875472, 165.076255001401 268.40267143745683, 211.02713022198733 213.67655498276804 M8.768570951504172 453.8758167060786 C74.20542797405277 378.5595050494975, 137.84331694322395 302.46847937454004, 210.79854691459394 218.9884769016095 M7.7028895698552775 453.21737513229704 C51.52354314604054 406.8628392217237, 92.20185049930923 359.5823127551464, 212.18188214952946 220.1861744743756 M12.078827821503602 453.75531408824014 C61.69557944753804 398.9793485800835, 109.58980588493459 342.57508632283833, 211.92090347458208 225.84340237665677 M12.715647343006905 453.5780717741889 C53.038887720647594 405.70822779249306, 93.53331794546672 358.9649199212345, 211.46901519520898 226.88086235776333 M17.764220620744577 453.92133150654155 C65.72985849545222 398.2473199260242, 114.01155526683002 344.01915144772977, 211.8582984498713 232.4781460693626 M19.093512147434456 454.4857115536836 C60.27791371357094 408.0978484352554, 98.37617740946321 362.79412900019605, 212.42023594143927 231.962370347565 M24.60190477460784 454.1513154796684 C90.18750266746387 376.7906480530046, 157.90716377109968 299.3529256747592, 212.56254007560804 239.66659389489664 M24.40344799509704 453.3697837139234 C89.25758675363477 378.9127219628598, 154.00955181557504 304.7757578238499, 211.28808757967175 237.55063935430556 M29.622277682945764 453.4776690981375 C91.28325919747908 383.47426937364247, 155.1562012912659 312.3580849854068, 210.72283336141027 243.56382234026023 M28.199650441175407 454.89156560113196 C64.21001480000959 410.95351983413605, 102.14757884926405 369.65896377062796, 211.94508744457926 245.2997845915915 M33.75005357061063 455.62961982746566 C87.2524154391656 394.94548956949166, 139.04670111640928 333.7920299681305, 212.48140494189585 250.20584826745474 M34.7149260283502 454.52235137403295 C87.67504916978791 393.71366324608016, 139.42208525173257 333.364782692586, 211.83842345833466 250.24660728552945 M38.695814337983236 455.6659345113385 C84.49134343234589 402.5311722964647, 131.37823752452087 351.0084837075443, 211.68091432721133 256.22765471664985 M40.09446173108058 455.17834671326864 C104.79511877107109 379.00282887478716, 170.77481901833437 304.3249636000393, 212.15178457488938 256.08974358414434 M43.77840430140649 453.08894897255 C82.38882529257883 412.49232441314246, 116.8669694097935 374.9013208315051, 211.48069624346505 261.9022145071241 M44.50429788978784 453.5345857285899 C109.29770447234407 380.1499115490036, 173.79707233553253 305.89366142758837, 211.5038795141567 261.60775646456983 M48.582400298761115 455.1369605172855 C82.58097467313559 418.97988890042905, 117.11304191733701 380.670606428518, 211.5566207383035 267.7714671415471 M50.25417211018106 454.89704796938884 C92.21948653684787 405.0871207992193, 134.36101509010382 355.1533879501766, 211.7334136613381 269.04901814358095 M56.88502738634013 454.2856366996684 C93.56415503318556 409.2906571592975, 134.1724891063642 367.27994532341495, 211.04428590356156 275.7204503988566 M55.67254476986725 453.45761533732366 C113.34636803034441 388.21113913260734, 172.44311777260558 321.0869994140675, 211.2140068401373 274.75212224599835 M59.72409690717388 453.6099353068965 C99.06345464355738 413.1942729406231, 133.7436685609116 371.3330167692509, 211.57481481470637 281.222194177745 M61.16083360049827 453.87467876856476 C109.20689801397715 398.80234674964595, 158.68408812173206 341.92762944681806, 210.88413256188437 280.5224482080362 M65.86797259103949 454.3643324435282 C120.86890511337432 389.8847279236315, 179.9409077265951 323.7999649377954, 210.4304264173979 288.80566038892806 M66.1345069532558 454.6629021866784 C109.17623617776025 406.3687561990853, 150.21152433769848 357.97411223949325, 210.7074513010966 286.88912700767077 M71.56623130511608 454.9724436710894 C124.45049452807471 394.21906015975816, 178.28569325720662 332.4604911390721, 210.33369017643943 293.1521237880366 M72.20585252405371 454.9097670098687 C121.21815818626695 398.9992352296952, 171.00689405684935 341.9379079210264, 212.5422342344873 291.9846042156449 M77.58012236023784 455.11288751385604 C103.0600427367568 422.6973111736714, 131.66487192200137 389.36019170477687, 212.72970263821367 298.7649595801745 M76.28273896994673 454.3462947717006 C124.88642587805525 397.16361227038874, 174.61732547743156 339.56762180861944, 211.19870295614925 298.56906664812584 M82.43166213480845 454.77958024864427 C124.6481769901106 405.6422862897829, 166.56695067079602 356.6209784921664, 209.8015774718005 304.0835099352291 M82.85598544215873 455.2899493539088 C122.37361559504697 410.0205193770076, 160.87475210692583 365.1550085203824, 211.3036016921032 306.29464816690887 M89.62566289936692 455.1497427102725 C125.05312219526827 410.40346615449295, 161.3968844746646 370.480131604523, 209.8861326462806 311.44637757257505 M87.5562259189555 453.3572612710844 C125.47939660937747 409.80597542921424, 164.4961284284439 364.5504689824538, 211.15872648909993 310.823764304602 M92.9339484154525 453.53924411613724 C128.8448786842151 414.6089580526008, 163.44759731518064 373.5634121343729, 211.91712589260038 316.70150895884495 M92.26549792767491 454.76574860405407 C124.56473776419867 419.1837825489816, 154.78886910849667 384.4661322724869, 211.6253608453631 316.9109137682454 M99.49590724885866 452.6133479229803 C124.84907468882126 424.6139934919967, 151.85411067928462 394.1236612607239, 211.24097702655314 324.11963630078077 M98.90865145989164 453.18915869627847 C124.4956800349377 423.5135109158182, 150.5295424983304 392.31012194354525, 210.99358912746726 322.45835952629983 M102.75247309941685 454.44287465843485 C130.8303310703306 427.26102779167843, 155.51375327408 397.4991648153214, 212.6306509979705 328.2520488760155 M104.04215976621842 454.9079678371094 C129.9207358986336 421.987442420403, 157.79878752574746 390.34910056588865, 211.62261896102527 329.5375934931171 M109.81959703292071 454.3415252792428 C136.89712012818072 424.7377725424759, 163.7392615897556 393.05416822592883, 213.00307109365548 336.522625971514 M108.04009158823013 453.83420462000765 C144.1459751248747 414.48943357438674, 177.64856543568067 375.8514290683835, 210.47069443362142 336.16886946738066 M114.36477524920156 454.7785578130372 C146.64474796143267 415.7445605335897, 183.0999035068956 376.08464844374555, 213.57594185041097 343.36696562424083 M113.78313892653932 454.611626584325 C137.44398927140472 425.6754488617953, 160.05994852054005 397.7819969978305, 211.06441900783983 341.64783187277396 M119.98052131405305 455.21611071655997 C152.17141578421368 416.3782334996761, 186.28428786490153 378.1866026174773, 212.02457196806864 348.3715133618291 M119.84458927272092 453.64054357352205 C156.52787005600823 409.7500833138389, 193.8003004278852 367.9055018578102, 211.46807843429343 347.8721444986488 M125.06089392730658 454.0218795174442 C156.1402115908164 414.94267374807595, 191.62165693823653 374.3731098819518, 213.1992875124218 354.8655951410208 M125.17935337738757 454.17799437695066 C154.40558018557763 419.45952188849697, 184.62612261202673 385.0315837812423, 212.81355395455677 353.12102343846595 M130.17496915475573 454.30644017243185 C162.91825563271905 420.6147608923276, 191.38210052557645 385.02084135934473, 210.0019596833021 359.8340939894489 M130.3099374821141 453.3625700880716 C154.18514770690226 425.31465271075166, 177.11353206148888 396.8565397474833, 211.98935006924276 361.15541373157714 M134.94336819623192 453.83592570915596 C151.72569445176018 435.7349157272803, 171.97127840105256 413.64952614075247, 210.1034180175124 368.50948294407823 M136.01547108751316 453.3145907462366 C150.40880975340664 434.82936245860327, 165.93889727378038 417.59338201087616, 212.17050774093553 366.9975223016659 M140.75567058853815 455.6240591645811 C162.69401416056553 427.2414824174104, 188.78026554476384 397.8369383525192, 212.1002733018558 372.51095379187336 M139.86162015616904 454.915638275129 C164.0576882916923 428.5461413184432, 184.8471045836091 402.0245910118525, 210.78792730721938 372.2574466974156 M146.92723711847754 454.0712823256723 C162.19798939249102 435.5935171159668, 177.73645064023813 417.4229697830339, 209.67174048616386 379.98354581046755 M146.16991002566607 453.1351852234326 C161.24730167512513 436.9444812749644, 175.8554904453187 421.7499573993847, 211.49769139370716 378.4598038331782 M150.85603273588146 453.1038844700624 C169.89858153704455 435.70167924887477, 185.48570956068437 414.38646285886983, 210.2970518862299 386.1901787066026 M149.9870483216169 454.3572235054989 C176.4612983557402 426.84126558311004, 200.01859779570862 399.58594343471293, 212.71097811697342 384.8232629274143 M154.7400397565435 452.76603530449336 C170.56349189627775 436.82240013973046, 183.5643492824291 421.67272798082934, 212.13198495188558 391.42432925791155 M155.61483816059635 454.1597973397887 C174.69911611373277 433.0095127953513, 190.79443595103757 413.63121706287143, 212.2830888526311 391.3607221444757 M162.45378563029507 455.1324616065983 C175.3509529251449 436.1685498503548, 190.10855712107804 422.0894951628158, 210.7262754699338 395.6020642513592 M161.2992059182171 454.4151798906539 C177.01724107519624 435.81548746834954, 192.95054000085094 418.68805688912903, 212.0433614382643 396.65884153304586 M166.92181517292977 454.14577058311914 C178.91113985662292 441.0760463131476, 191.62327545929338 423.720430986746, 211.18044047717763 404.4011692239103 M166.41617346105397 454.3146966265551 C183.37530591098684 435.6567261864963, 197.52067541416895 417.204086292473, 211.76449308645738 403.20467176680836 M170.995218334279 453.5291265116889 C189.15708851585705 438.6448429153183, 202.91869370477204 420.06754996380096, 212.3026011734485 407.4002772031978 M172.16088591471964 453.46890196184404 C183.7688096954153 441.3874702135083, 192.89058276307438 430.1429030152476, 211.131863297823 408.71228288511486 M178.8251024301363 452.6235740990496 C187.5101709306067 446.11397556937953, 193.87746553258893 433.7356451025986, 213.32589612453995 416.6709016459637 M178.73358389578888 454.9324026149816 C188.67167473838256 440.11052383233965, 200.80817121760677 426.26594648225, 212.27344706393598 413.90229723142613 M184.73911991033322 456.3007151228342 C188.49825132784767 446.8546093617586, 198.81400724611967 435.78316210354865, 210.78500903028353 420.690113079841 M182.0286312798745 454.3040342503194 C193.1866654178715 442.32505111754153, 202.0068258469754 431.2999296857112, 212.44884263540908 421.60206609509396 M188.6149405906632 452.8000317897847 C195.4206998339847 448.17963926181505, 202.72140036702172 440.98230746250135, 213.23358192748213 426.9325720417945 M188.8204874335512 454.7516848363182 C193.11731919931998 447.09610420036057, 199.5147946888278 439.4725217030817, 210.57918472482646 428.5252026498018 M192.75677942095777 455.64156337753417 C198.95684707915615 451.7789899892838, 200.23863177129016 445.0298237664242, 213.40103810293886 432.0096578187889 M193.45273498243174 454.1124712873298 C197.984288914923 449.97029522880985, 200.9890527405077 445.11533156160897, 211.21646741977247 432.5982106942332 M197.35669417085057 453.4857119129321 C202.32598404968908 447.2926637287332, 209.23784933911497 445.8855826055709, 212.30645972339255 439.79683702757154 M199.024118330627 453.91732848047303 C204.05946872982238 448.1750326760996, 209.20777907948033 443.33165712953, 210.5617487082985 440.25142742164 M204.56414883786238 455.2692976760808 C205.9104122157422 452.2477274126536, 209.35782343027725 449.0967280737332, 210.86847709217392 444.53728577756306 M204.05130127535557 454.40460791058274 C205.44726991331106 452.06818326780206, 207.61822518045065 449.7052151165692, 212.40443399162316 444.7127790913077" stroke="#82c91e" stroke-width="0.5" fill="none"></path><path d="M-0.3250662146676262 0.9793542790138897 C53.90328405518485 -0.5959403688247853, 106.3828705033922 -1.9228260752105333, 212.46702840552513 -0.3930231958974438 M0.5955524601096666 -0.6429366712826574 C65.08557185081438 0.03837048646996094, 129.93791115550897 0.8128919908205836, 211.77258499247108 -0.40264902802220154 M211.46729965661132 -0.2001355021149751 C212.93298211036094 94.75662806784707, 211.62684960683595 189.13141140204058, 211.61550143602827 451.4156898774016 M210.7309020279786 0.06282102387113382 C211.45320588131042 91.8032876382609, 211.31456718900168 184.29978466095065, 211.07066726027244 452.09800679858233 M211.74033305625582 453.1406215748973 C162.2316689158998 450.965616120844, 111.29472025334017 448.8929609332045, -0.9519461899754915 452.18258439304117 M211.52001739872046 451.9872676607692 C154.4880432782494 450.8396907204073, 96.17563671919098 450.53832175761727, 0.45096778201778065 452.2472926802933 M-0.8406907774428614 452.1424201868873 C-2.6317357071502396 292.1887709353694, -1.2235413158794755 133.1279705271101, 0.06074770136382406 0.05384032065164759 M-0.13743879038751433 451.60374918866995 C1.088136646260216 360.49288298380077, 0.46013801056886006 269.68304922205573, 0.41748692525331854 0.16535476231725332" stroke="#5c940d" stroke-width="1" fill="none"></path></g><g transform="translate(562.73828125 218.140625) rotate(0 55.5 17.5)"><text x="0" y="25" font-family="Virgil, Segoe UI Emoji" font-size="28px" fill="#5c940d" text-anchor="start" style="white-space: pre;" direction="ltr">Browser</text></g></svg>