<svg version="1.1" xmlns="http://www.w3.org/2000/svg" viewBox="0 0 878.515625 255.14453125" width="1757.03125" height="510.2890625">
  <!-- svg-source:excalidraw -->
  
  <defs>
    <style>
      @font-face {
        font-family: "Virgil";
        src: url("https://excalidraw.com/Virgil.woff2");
      }
      @font-face {
        font-family: "Cascadia";
        src: url("https://excalidraw.com/Cascadia.woff2");
      }
    </style>
  </defs>
  <rect x="0" y="0" width="878.515625" height="255.14453125" fill="#ffffff"></rect><g stroke-opacity="0.2" fill-opacity="0.2" transform="translate(10 98.375) rotate(0 303.33203125 59.892578125)"><path d="M0 0 C0 0, 0 0, 0 0 M0 0 C0 0, 0 0, 0 0 M0.11559699628037723 7.1627457373338865 C1.467532842838906 5.079588043152155, 1.7283465180217088 3.928844123037514, 4.356852273973173 0.955471398293715 M-0.545960581642563 6.7169018190848755 C1.2315198085816514 4.944441361343771, 2.1702942933871636 3.1712254032862033, 5.369415301042146 -0.014648955330509528 M0.021012853933464193 10.491650815724908 C1.6314593933017227 7.9686541608174775, 3.5138447923381806 7.727027556594869, 12.092608797502649 -1.1821248521015286 M0.16189456145275705 12.592554479509174 C4.49014053876121 8.281430894933306, 7.657032842259179 3.78307486611123, 9.844942011636627 -0.7055453908547996 M-1.4407720165839653 16.65430435622173 C4.227458049166287 13.199129411675415, 6.564800954960118 9.693771209629261, 14.07541683828779 1.4841663266462257 M0.31072853314222293 19.337340189051503 C4.073626931064826 11.925512260034598, 10.04463197147487 5.625206360322707, 14.665331311992784 1.2457265403983167 M0.660973673891208 23.82056958945012 C6.531431895733686 13.603614234459407, 14.505081611206503 3.594454206927619, 22.46411551935401 -0.8825434675276753 M0.6045823481119488 23.75488289882904 C6.746361921270912 16.46505126951095, 14.740349330782628 6.5876855470614615, 20.51356651568588 0.16650046819592745 M0.5780787161131755 29.578200973335854 C7.666015125967241 22.875038405222845, 13.806236396929217 16.616281890103465, 28.01161837638578 -1.232777247762984 M-0.5296327154571756 31.239687640916756 C8.984296038155344 21.55906544188887, 16.61704643225512 12.27079351803059, 25.387498709980758 -0.11319428458691227 M-2.130871005458804 37.04632925968741 C7.386734886398525 27.509184177816916, 17.001979612456267 17.22767404465938, 31.22749219783286 -1.0282857174739952 M0.3438359749409834 37.62698013782625 C8.50433283732185 27.629031505496087, 16.525764253195845 19.52238433370107, 31.55960361887405 0.3221193618386273 M0.09075726863453326 43.06478832531326 C12.19510604934776 28.225624102821754, 23.045947054318482 15.009019139665504, 36.18261453118299 -0.17877813418391142 M-0.1351573856874353 41.93850954956912 C8.538008929667953 32.83458241524992, 18.165018932044852 22.965694021642857, 37.288472412900376 0.6870302456524691 M-0.48303391411908336 48.77074391269021 C14.791169417058995 33.69689778136216, 28.712189184348095 17.53951160230801, 44.44514591488593 -0.7670989513070339 M-0.9345841268078274 47.990427214325294 C12.734875912470661 35.38874983785172, 25.357222191681576 21.035819772816428, 42.22353394105636 -0.19868767835656342 M-1.5809590152698902 52.628226568403946 C12.980707874942748 41.9333741466435, 23.336166389231664 26.469545291935617, 48.51955764642942 -0.699051176366563 M0.11842210057644564 55.45406958688359 C19.53677469732303 34.067028675031594, 37.090399564060576 12.172083314125281, 47.31283249887663 -0.5286486970085456 M-1.4954217373301475 60.778308284931285 C14.032923719917916 47.67029651066871, 22.410273691552735 31.784514839198437, 53.782604014263214 -1.4285730127767913 M0.24534309199999882 61.237384880423946 C13.112228402967153 46.68054723442924, 25.874293741929698 31.610499577052735, 52.20775006035781 0.7962180194853552 M-1.8026018208406 68.0686354390807 C17.805595191426956 48.469684881301845, 34.04903257558545 31.56813095320541, 59.922350065875065 -1.6075612180609262 M0.46493929246896215 66.54571600495795 C19.024996020817426 46.89467755563375, 36.01519186996374 26.136897044838697, 57.17078404603453 -0.4509049406949437 M1.3568678686580071 72.63005753266064 C15.27223596553311 57.80409945406695, 28.485367483257033 43.77576321812876, 62.87414383971472 -0.8110477456332674 M0.7813227094894657 72.4896793079972 C19.348354997121426 50.12562532514683, 40.84103208786421 26.532176196707418, 64.4802695549034 0.4833501272393832 M-0.002775746346586061 80.45325593314794 C23.002369175802038 51.715159612394274, 44.98717216301628 26.075589079738805, 68.25964413326993 -1.1870231030170189 M0.37202982609612434 78.69304331522164 C25.030347335275437 52.43527669445915, 49.26625677217319 24.568745810537628, 68.33815713249906 0.7139626864682569 M1.5674872475953805 84.41827681212828 C17.25908886264203 62.54677264461486, 37.073413827504254 41.72308531740448, 73.32279273499044 0.8183870063735412 M-0.6633151962144268 85.35351166892008 C24.276912136703164 59.09415373912496, 45.27263942433692 34.37067251911798, 74.27473500281813 0.023597316780524125 M0.3904875229716467 92.64470778707847 C29.91345166044389 56.05426618283204, 60.417513812316095 21.345249685598972, 80.36884219236401 0.8110983250151804 M-0.39522274940757285 91.62414976977244 C29.974734957319463 57.65536849738261, 60.95727702811616 23.257437873852794, 79.05640683639524 0.2440303563560775 M0.9427797142414676 99.52121085980698 C31.01436404649998 62.34466490551383, 61.00912922304492 29.191611016452313, 86.70032804384039 -1.276108600506376 M0.6843254240228163 97.67416771529034 C33.783187255041334 59.71046515994199, 67.08831453627297 22.334308831569487, 84.090413982227 -0.4377767400162327 M0.5739653308640982 102.28215115712229 C35.45319184589837 64.29678353125794, 68.77391933701726 22.020172802233958, 90.0560965869073 1.1665882222856538 M-0.1500508559171294 103.29679904048535 C19.437004997723314 80.77226819216614, 39.25089322512494 57.34516800645733, 89.33261323584804 -0.09825075915649961 M-1.7739843296727216 111.58422567150117 C22.242094341660174 83.24465605754588, 46.08778104962742 57.0878363457424, 94.54727711001456 -2.299124410023012 M-0.669057293692795 109.51717945853741 C32.093984609508254 72.72751560310465, 65.27380436659423 34.76405406879596, 94.69219907125503 -0.7711333712758801 M-0.2868149789192316 116.53599619952938 C35.346275234160956 75.96614082228334, 72.04333375548131 35.053741336514335, 100.09630966064984 -0.8095182549555844 M1.0599380846924547 115.65312979923537 C23.56670795930052 85.97811148711861, 48.13343702284157 58.11689786202696, 99.93948140898252 0.9339455118055398 M0.47315648859332526 121.53864682323814 C30.942563700589556 88.6897098262811, 56.75766133744913 57.03365785451986, 104.37291727726293 -1.9240002659263595 M1.8928007577542516 121.1871634903136 C42.57124998433014 75.07207437772267, 81.20905602990626 29.23786230771678, 106.11060784802717 0.13754109487658894 M6.846955198286224 119.3155168485448 C42.292858941065546 80.27545561304933, 75.87194853791458 41.550591580440226, 112.23313375734158 -1.2749359504585485 M6.357292911460746 120.82726949589255 C48.11518520111136 72.53759379972456, 90.51028413571963 25.452163981377126, 111.41534143392361 -0.9281796588828186 M12.92556286067569 118.54524450859455 C44.413398180661545 83.45347965621112, 78.72594869179012 46.49174134804707, 116.99921686034503 -1.5381164317436529 M11.968438004375038 121.17130601982055 C38.48632762503607 90.56828658306296, 64.40983519193979 58.8123594258729, 115.98572386167797 0.14134491053894038 M17.766185148249455 120.36304242086412 C53.54057749233009 79.83414660419075, 89.06728456501206 37.155136614079396, 121.17897122073254 -1.8561297079732242 M17.913538144531735 121.23952596277745 C50.485783774526 84.76706050155533, 81.84686982921518 46.575634844660826, 121.06414838879635 -0.4690500993465605 M20.735810724457266 121.91848800693924 C50.06374066175552 86.00908593865566, 80.04214503923373 53.60686503791169, 127.18507126099183 -1.261731911670445 M22.864483118427458 121.06361734205211 C61.883017992212565 75.07346136059925, 102.12420305241022 30.57145699098629, 127.19143274831339 -0.18637741285937892 M28.95023901178689 120.72570013429672 C57.91282133525499 83.60430597541568, 88.66998545500476 49.0630382734177, 132.6149743945727 0.35168562875038845 M27.88552815909685 120.06812993332446 C50.91317890152281 91.9574843299745, 75.91155554707623 64.59570099034146, 131.95548235172572 0.011285362289314094 M32.55399339469757 121.69287205474498 C53.92829815176927 95.44053087962247, 78.99411499570775 65.92606077323933, 137.68994879396288 -1.4197269692339631 M32.18195714904603 121.13125820910605 C64.17239337677304 84.13128922493763, 95.91496223679377 46.254954929686136, 136.89906805706798 -0.023777623220595956 M39.439644132648546 121.69890014509258 C71.4089037482024 82.97400767232378, 100.81360556450446 50.43517172641276, 141.1910456226121 -1.2154547840377319 M37.288155533281106 121.19272007940856 C71.74077589884104 82.92190378461231, 106.29521889663397 44.20130686632402, 143.92454840083676 -0.30284710210021615 M43.967131273127585 120.17001264781625 C84.68681848150861 75.53882800489987, 124.99190777767333 27.696007229370707, 147.89812680300813 0.4395585518158214 M42.25568323233673 120.86163563241185 C66.75947719771206 92.80911641973954, 92.08714886204298 64.26600942692932, 148.20164736606668 -0.3193420486696823 M48.24367785458444 120.10930260950173 C77.00207496380423 86.68804254813271, 106.64847038183024 53.69464325803999, 152.52583724860074 -0.590265790087571 M48.401937845209524 121.47731007290477 C80.96361659302475 83.83998825417484, 111.58858138238426 48.4381183389025, 154.57217661425443 0.257253679359863 M55.56281767450683 122.44690452262579 C90.48802729003451 75.38879034949122, 129.76602383716016 36.15383137318378, 159.1626326318776 0.2990348077288729 M53.217932417434085 120.49066036406724 C90.21053052589944 80.32418427275955, 125.01831356527768 40.936393871966956, 158.45781325343455 -0.03718201733167348 M60.34036752134453 122.31481768377415 C79.24949655815676 95.22592616988094, 103.44859538005116 68.82944479293093, 165.20675161628856 -1.2742122331491288 M59.77301767300706 119.77028858568809 C81.57480852256757 95.97903726341765, 104.20724885506931 69.90204895478297, 164.26482207010372 -1.1553361214554485 M65.55345494258529 119.3970828354236 C102.8834619591299 76.14789475589848, 139.03345910713 36.163926177443784, 168.8052436243213 1.6728619547552057 M64.62265978246307 120.98390857594724 C103.33029923265453 75.4224728839461, 143.67345004980263 27.36400513269122, 170.29183329729653 0.8429661426684447 M68.67649047667885 122.20460552415986 C100.50018623044438 88.42064455627633, 132.31046418815427 50.78513978252889, 176.7899410694256 1.7624910430276088 M69.21316259479875 119.90441928963352 C100.44597448899529 83.42147263201637, 132.7752165989121 46.542105383518575, 175.13456484650965 -0.9031653326711364 M75.12019542111295 122.4253327424597 C106.74737173353085 84.42157321254766, 140.13133886516317 46.057183895586334, 180.1164871240892 1.6064501491448198 M75.78944540554869 121.79133143992685 C111.11008718307802 79.42944183483345, 148.2855119512286 35.80186702828922, 180.59360007577766 0.3257411032056723 M80.16757406433739 119.19907628690885 C112.20887122764614 84.0419326813354, 143.9882707688145 50.57561469367863, 185.80030795176188 0.08087919469261351 M80.79976518870957 119.69684085661606 C113.05617663828548 84.13895036975012, 145.3751821660991 47.261972297643354, 186.07911002159724 0.13559221758777085 M86.41294145383986 121.46768939998408 C105.31480381397574 95.48440302055899, 130.5458372180519 68.6261263777944, 192.35564047493136 0.6764595471477151 M84.80349436481598 121.84725512788107 C109.11778184685735 93.07080016787819, 132.2484939844295 64.55425359214394, 191.51863116700298 -0.5998434638449908 M89.69789562807016 120.24989012827112 C126.11255886010633 81.11360707797442, 159.5491011809019 46.072938627267064, 197.73150460704738 -2.2267626219041006 M91.87584303286455 119.94906695851071 C128.9267399937183 78.56876442865013, 165.45586908426432 35.818236572741824, 195.76178767349148 -0.4328622988037125 M96.55034538451596 118.99143796424676 C130.87997207710606 81.8055747111299, 164.10137921324554 39.424313137688415, 202.7507310205977 0.9908003050139058 M95.51563673838987 120.57038081168491 C133.27157630173173 77.99797430384216, 171.38198733855165 33.27609713852404, 201.48806914909738 1.0396011133914698 M102.12048251162712 121.83995720449667 C145.04174384135644 74.39420899293046, 185.69330752775934 24.714066323837187, 207.04593337903208 1.4631007494874666 M102.05003870538864 121.44698626719247 C131.5953885074348 86.98612527649212, 160.32755166111062 54.720138845891654, 207.61155288031733 0.4820472900294135 M107.61980955689131 119.9951135914977 C130.95247395820658 97.32502818220618, 149.65046861926135 71.87136360820512, 212.49853610483825 0.1886325789933636 M106.54232760439544 120.86378466321335 C143.33590348938083 79.56729971461539, 179.96072483057358 38.58106605461472, 212.18868160018593 -0.7981614932099745 M114.25711205875831 119.98343767183552 C138.63711022492723 92.34848093322657, 162.98037650247025 65.69837456074653, 219.174746611466 -1.6947455348826708 M112.19661978440689 119.96086245453635 C144.64210900887866 82.23127021607355, 176.66653017978834 45.429210849990625, 216.82298572019982 0.4552721559621631 M116.67748631471586 122.00850143798692 C144.252599038128 90.62580796765499, 173.51705239802547 57.14430659017674, 220.76458307140305 1.4403665253361027 M118.26564704095763 120.1149178543414 C151.17417891709374 81.81073379049491, 185.42760163700007 44.032684981459994, 223.57286109839364 -0.17099261177430947 M124.89831161321372 120.22574168653763 C160.51387977531175 78.5730638511917, 198.45966686115082 36.58447321797904, 228.51784664809915 -2.014266318764541 M123.45547884804428 121.24533419241733 C164.49342856978026 74.88296417316663, 203.8407970169425 28.06024918665993, 227.35629127126398 0.5461384708695078 M129.74827800173964 121.09263665996444 C147.9612324265029 95.36415239701346, 172.29836820267042 71.88867523267345, 234.68314926404207 -0.5523376997078628 M127.83330012620146 121.19560655694407 C158.72293670932723 86.21180105705916, 186.8892000984838 51.4477530157874, 232.8586252218455 -0.1523785704265208 M132.80335851874338 119.64352940485303 C166.25491157385412 82.86181003927693, 197.00904718325228 45.87396688919536, 239.78782680369102 -0.5234668656853643 M134.23213347442584 120.03941515271042 C157.2460632141451 92.60734356395174, 181.07973834003195 64.8283866976181, 238.28124058264427 1.0530569868492279 M139.82583696171264 121.83980441368023 C179.0609917941209 72.58644435948645, 223.66024836763222 23.405158543535933, 243.35726202650528 -1.5565699398885613 M138.15861693825195 121.46205194289634 C178.02991570075517 75.42983887809007, 218.64470920441914 30.394529562237196, 243.52961654866647 0.168569302708363 M142.04422109010667 121.59942056325448 C172.98513556571893 86.49276929771234, 203.39552617709495 53.980927317724436, 248.6342074799726 2.016768820159328 M144.54166721268595 121.8212035875134 C171.15250616166915 88.13179378508377, 199.1866799079652 56.476886465144574, 249.40140679044669 -0.5053152846692086 M148.87256553838483 119.3735398553843 C179.17106009943126 84.165411535999, 212.72389674973527 48.36680744202184, 255.8586987025427 -1.8081700389559785 M148.92055255523405 119.75483018407321 C188.97687244538412 75.22951385593161, 229.42401528281715 28.499017151542617, 254.33510265698158 0.6871146795053562 M154.62979472903476 122.72315615754644 C180.73783874463817 91.06381079207371, 208.0988680159926 60.969417195480666, 259.7070819917034 -0.3590645247577129 M153.63296569893078 120.7890440082557 C188.22000427032813 82.55398092214277, 224.16867071848912 42.301574081913955, 260.31781094380574 0.13818240841195006 M161.81961607550627 121.34862814132666 C183.53638310316236 95.41199738555454, 208.49703105592553 65.99919335744119, 263.22798663590436 -0.01172784066008603 M159.56368705527282 121.39889245234971 C184.38690952086353 92.75008321667059, 209.97975262385626 63.33745640788885, 264.2899761249158 -0.7171037681605128 M164.56954775028706 119.4398559242017 C194.79459412709457 89.32037337923873, 222.21252537796963 58.931458248955764, 271.28135268263344 0.1600682558135702 M165.05236248229474 121.38978466703513 C200.65751412586695 79.49741443916683, 236.6709651097903 40.043119480531445, 270.0531581208465 -0.019623762032239256 M172.5668909168269 121.95110442775727 C213.59895690777438 75.86066389036168, 252.97878128039432 27.694597093491097, 276.4744031703403 0.6594168112490308 M170.2982255164932 121.2035649196008 C204.89270293496054 81.83208494198013, 241.44636427790155 39.53695633006356, 275.67475453059427 0.8199276315856707 M174.49775749761358 122.95118001947023 C216.03011571389357 76.9950315186497, 253.25340907033825 28.938458345117027, 280.60067189651267 -0.08354768187689388 M176.26787514090285 120.29993923572667 C198.4845531632697 93.26450360709879, 222.3344720355294 66.98335058306733, 281.3957783996938 0.5024673758731524 M181.98304240609676 119.8982538709262 C213.30557030986236 87.2921857766587, 240.98270973774055 49.41156946690214, 284.57597564960037 -1.4368259269785142 M181.09999801702023 120.46254875770151 C201.09883008060393 96.14601379461098, 223.042151980523 70.88376300328467, 287.0355804521418 0.14659755061902047 M185.0174513147643 121.99003859960202 C213.74539230733848 91.75710862505741, 241.71670548780173 60.130148366333145, 289.8774419770911 1.7836228184209233 M187.01314625288006 120.18039638620529 C226.0523108303148 75.19397015857186, 264.9524800241543 29.75231875051631, 291.8996268584728 0.6700319940031534 M191.90547288706586 120.4386116270834 C216.9393657728086 91.55365681486323, 245.42253899334514 58.364638354122526, 296.47948141743467 -0.4112958990928064 M192.71045963497892 119.95392013852684 C215.40721963623272 94.15978772972124, 238.3427819382623 66.00972018993622, 296.18422146768347 -0.9043303391855488 M196.70040654548922 120.82059182084711 C219.3607640613614 94.12920764508559, 246.2353422649145 65.8022266677306, 300.29281526811883 1.1663649129570217 M196.28744339635142 120.67641979034605 C222.87237024177415 90.24450863114195, 249.84521187537766 60.0422583794949, 302.8842835753085 -0.06697873576723623 M203.14033470348417 121.35196285247886 C236.86098565280994 78.2382925996259, 273.5869089870687 41.5329975905798, 307.10044781759325 -0.8435829488438173 M203.63669044849425 120.94013023395175 C237.76440886412706 79.37292388544103, 272.56826409693815 37.60603800646946, 307.19807015534434 -0.5157173659530088 M208.0871505335384 121.23824983945545 C230.30777527467947 92.8688471589752, 252.00545196690916 69.61688129814593, 313.9966941133457 0.0007137579814013861 M207.35565914944195 121.41764812002387 C245.76965330830248 77.76022853712999, 282.44860352987655 35.790610117232475, 312.43495362832573 -0.7742386415630165 M213.4625301991017 118.94934270336263 C237.0493043768115 93.71108938700974, 262.1831647473374 66.7615190914245, 319.323152193826 0.21797308001845295 M213.15139553569122 120.1680052158513 C245.35991233030902 83.13406210626037, 277.77215425309123 45.01475659609787, 317.4201440932493 0.11395014219164068 M217.68696062266176 120.56967281167712 C259.3947557123847 73.78884952032803, 301.6305646582232 25.895705154918858, 324.1077308565218 0.7539545097440623 M218.7483110902766 121.01809504711386 C260.47815256510563 73.15083898326859, 300.46809108484666 26.291917868940615, 322.4024670956496 -0.03304655150918734 M223.61571171766843 122.07303633598465 C262.11507024634136 79.32963242166713, 297.8173872973068 36.15267505949936, 330.00062188988295 -0.7437176562559955 M224.2929049746948 120.86874625610042 C252.9034088954269 87.41939293666559, 281.6034633641094 54.6304077046116, 328.4590858595234 -0.2294391428766005 M229.97786415660937 121.67277089376205 C265.2021383865193 80.98827039072222, 299.044425508441 41.52880507058697, 332.71332784139713 0.4246223244950329 M229.2615417969804 120.07614924349093 C269.31485560262615 72.51612364126137, 309.0189243270169 25.99341764916457, 333.40327905540516 -0.9403262937307204 M235.31228160293438 122.09657890659498 C267.0542738081449 79.8228674222293, 301.2935950677746 43.57560872419383, 339.95463424951413 0.2855049985828373 M234.86517384363003 119.75792952657419 C256.3475547238708 95.45789627088529, 278.54474823810244 70.90201974794533, 339.1891630322916 0.2243784507172677 M241.4066384791312 118.93670424196026 C267.674919630893 87.32005607083912, 293.56373289713724 57.46286645767592, 344.86963741172167 0.5425023584842279 M238.95711884767834 120.17457438103011 C278.3115176600681 77.31925061593913, 314.2671059346305 35.394407300632395, 343.81946958571734 -0.10862669635270095 M245.23339219864957 118.9247555714436 C279.9474870871661 79.11634245677972, 314.55364941141136 41.76453298506817, 351.31965758747907 1.6057607810077457 M244.43778222062193 120.03550619914756 C269.6015777971494 91.83399331613327, 293.95896160559005 62.39098248575779, 350.09420916068854 -0.015248824928960403 M250.38881093397725 120.28188301252175 C271.34811819508377 93.92013971338808, 292.6410973332438 68.90842907370359, 354.6015619112455 1.168629767961761 M250.16243482049543 120.8805091316064 C293.0136468206118 71.96355803700204, 333.72532113650703 24.54767880243297, 354.7987437647112 -0.6661215875000153 M255.02894584856395 118.99360148678046 C294.85859584866756 79.31401837591889, 332.9589006370007 32.83694266591512, 360.16708730550863 -1.2157093131768875 M255.34593518379543 120.38580244569552 C290.6328093199615 80.0170223401951, 325.26757804689146 40.873831475379504, 360.89185988082 0.2812735416140981 M259.3086588648975 121.15996736169654 C287.1396493673483 88.8322981332589, 315.14874896950533 59.73868398063922, 366.90275368371846 -1.104710290822453 M260.47050729355664 120.74546716709483 C284.6937409608067 92.51718160153496, 307.98145234219515 64.1609122303528, 365.2544316705117 0.7433902047022514 M264.66153586743707 122.0251113890784 C301.5229871000637 83.11366924960205, 332.46337111147375 43.79777567049584, 370.5688917183625 -0.8162855474981825 M265.0344037822851 120.73222901831588 C288.8220562028844 95.58223935794348, 310.33554994515123 67.18326934810679, 371.5971987418207 0.5920438024443229 M272.51920961564196 122.55386744573458 C303.31223888157297 86.28390610459962, 330.84961811788537 49.99128769267449, 375.7356150728907 0.8460173383816141 M271.739978844987 120.30533715937032 C300.02521218125713 87.63569622287544, 327.8388926749879 57.69043128653647, 376.86548838124384 -1.0395151478708726 M277.0306826569999 120.00840127414183 C313.66883015086347 76.26288058323826, 353.252649950932 32.96861788789039, 383.22184816979063 0.9431922342937469 M275.6817611521969 120.21844292843805 C302.45957982914683 89.37912602157463, 330.8109522270428 56.42168514522703, 382.14699332181556 0.6248256294366001 M282.34224052996063 120.97774342088593 C307.34165032374904 91.80773763481734, 329.7563960475859 64.76410359953114, 386.0312984225121 -1.3244021881760375 M281.09511705291146 121.08038278030796 C313.5090788512503 83.5914031633353, 346.28295998652453 47.35008311854456, 387.0764939750326 -0.6898864733443872 M288.036479532012 119.72796587844357 C325.8732897014607 75.40336504002809, 365.38716229453996 28.74577152027807, 392.7914840035429 -0.26686581155098565 M287.26402834266537 120.73660492815986 C327.7162747676721 75.22445397680701, 367.04649534035013 28.853350990408984, 392.7436361989295 0.07175769446604363 M291.06827895160353 122.47700544340053 C318.86637689431507 94.52058487801112, 341.5781712112384 66.41846759632955, 395.68970607633275 -1.4299337142454078 M291.9258144954551 120.57524270178267 C318.48067743775255 89.69616260286517, 344.96621993272396 59.006597903067814, 398.09765353000296 0.6016024001567075 M299.20382883622324 121.74484035823359 C321.07697711038384 91.45817023543184, 346.84199708798457 65.87203411463241, 401.9120765633694 -1.2447995287824654 M297.17891043181544 120.90854118935628 C332.0285249537436 79.78371624883496, 370.03048639289455 38.64657936801589, 402.85514495128757 -0.3906463305924319 M304.9566022243207 120.62831366952844 C332.4988487479799 84.89595689589812, 363.04080319318183 52.57794669520797, 409.5794903781026 -0.7532920835764969 M302.8875887507429 121.27893059566952 C325.3237183573366 94.57390148018399, 348.9194862895603 68.37674340349224, 407.90479712428 0.12865264450741165 M307.0263829133837 119.15130986976186 C348.34891262332496 76.59302823339752, 385.9936253565662 31.74860553264618, 415.1866531930201 -1.2576987611506638 M308.58973749777215 121.84045288390229 C337.59809058741 88.4493454556189, 365.5918996234831 57.1215632577576, 414.2151621570148 -0.1014977738637981 M312.23523769186204 118.53957825551963 C347.60526606949065 79.6390319278643, 382.1637002490791 40.927938011808834, 417.5380536715717 -2.0459421399192763 M314.9015823968998 119.66483513384348 C354.4260888108284 71.58993897334058, 397.0106793238612 24.532003734025153, 419.23937983598864 0.6693404315827536 M316.9665441072434 119.57090956927844 C344.4891871766461 91.99879367513248, 369.76839505098405 67.34782533296821, 425.18699123624503 -0.04140335240558102 M319.4254646186605 120.12291618367293 C353.2033154733063 84.01402367604152, 384.72075035018554 45.64974585353973, 423.82295539423615 0.5844670365269451 M325.1009626979776 118.84995935762407 C350.6011192814288 86.31476065706553, 378.0583950498651 57.91912531494424, 428.37154830049 0.4719012729761687 M324.15456301205086 121.19071998817952 C365.24849423787555 72.1238761804365, 405.53485600093967 25.698942025368325, 428.608481743254 -0.513883066742352 M329.4554647615523 119.1584246130333 C349.58393713583956 96.00637030161363, 370.63945059890995 69.89638690599094, 434.4536180367942 0.19949685370281145 M329.3806718726055 120.83088226054318 C370.9911822410308 74.44949228313767, 412.8693167991673 25.65869024738663, 434.94341724107665 -0.7031132275451739 M333.71930458641737 121.72986713209183 C367.3982347216684 86.61712759560848, 397.86031267844504 49.65997399395508, 439.85487660860747 -0.8887266886400482 M335.09892317432104 121.2987238305527 C367.24359471777126 84.09468219741555, 398.59973548774724 46.95540038329979, 439.2848079242009 -0.6741916785927913 M341.8930472200605 120.59989015727642 C370.5073896237204 83.71844251523021, 401.66850020315604 49.48666172182973, 445.4958109384176 0.7916620134244283 M340.9155643377322 120.52367728638801 C368.35165082392365 89.17905978522353, 396.3234230473157 56.82923398700618, 446.10706527566134 0.6497751057947596 M344.2245407009314 118.88096173517286 C382.71862806808275 79.1512073737287, 414.5640128074649 41.22626033283953, 452.7316909396743 -1.2855408685180123 M345.4526804618354 120.41536033283799 C370.333606008432 92.68532166057918, 394.11857787261135 65.3318938490108, 450.3066884569546 -0.5803842320936496 M350.64794382651786 119.11259135825784 C374.62634231263104 96.08320543537414, 396.7072400977269 70.07507610234899, 454.79159728486525 0.5930022830093833 M350.25597209216545 120.24500243308248 C376.7736637209346 90.30165660902229, 402.53705553104464 59.792070873965045, 456.1100420761152 -0.7584792915781406 M356.7196983852696 119.53615332311715 C384.45315568529657 87.05191047763947, 410.87267443760754 56.053757397408965, 460.7143936374402 -1.3450061104076951 M357.1994774527189 120.95151816691036 C396.0298499953145 76.2177070166373, 433.42667907799967 33.61120938559253, 461.47807841963976 0.48311544463010136 M361.0575569246745 120.44506337222755 C397.81991630057917 82.06710200720616, 432.8896075985907 38.97666877784897, 466.78775441988705 -2.007322181292409 M362.3933502140304 120.52293387250155 C392.82539312048476 85.41909799089754, 422.6401099955233 49.633193407001215, 467.0141152205631 0.65488725221104 M367.27655498318205 120.45960205217474 C388.5566025555754 94.2862872027791, 415.43398990144965 64.18706582535329, 471.8280780166649 -0.4076276778363024 M367.5885817250965 120.30246100464487 C396.72614131928924 84.9529137228692, 428.9030846374794 49.87818603301143, 471.71249886139117 0.4709681036762561 M373.4280388582803 118.87709135543551 C408.1323080065589 76.58472124160772, 445.82425496897497 33.774581813354345, 475.8998096872331 0.9110987767690801 M372.084778781452 120.36992277652021 C402.9471150233773 83.3603296797755, 435.72209900913134 47.39207863425321, 477.14667728713016 0.4570134090373301 M377.27957880942824 120.70142765881836 C414.8233159974481 74.91142238916704, 455.8751017834251 26.900634974734103, 481.0347644790793 -1.5467895749994511 M377.4788268281028 120.60253709813922 C412.73752240663526 81.50258606495808, 446.43491077562885 41.84106819028651, 482.6572729183147 0.5580807564741974 M381.0342919710853 119.21971046413178 C418.71107769082033 77.21655100620609, 457.99922704196547 30.208927280431382, 488.5120404306533 0.7999253134438504 M382.85296287255517 120.28279531701351 C407.06118363199255 94.15576909996561, 430.93907081650207 65.96067603251619, 488.10074585394136 -0.8005871492242704 M386.0501652657391 120.57887113885252 C422.8042731691824 83.42475181968663, 456.734674918289 41.15171261520135, 492.2970463394429 -1.0404970654242618 M386.9628483978437 120.70634095882295 C424.44182572324814 79.11793487548687, 460.1619015201324 38.17030915183447, 491.7571716395448 0.667864155121805 M392.1199686068395 118.8152058545663 C418.4415681332798 94.99103431455244, 439.9377686519791 69.48631653131662, 496.9774739938978 -1.357932415018098 M393.986232565465 121.24275266585639 C434.61011744333643 72.46338437577347, 475.0425288231151 27.28342668116207, 497.7349634991217 -0.5820257506987616 M396.9102826668742 120.20455222874995 C424.7294209769914 89.27226749532262, 453.35189858742467 59.533797208910755, 503.2023259415057 -1.3902149928608196 M398.4307299834537 121.71697083879377 C433.4292560226494 79.56105646281324, 468.0413493088144 39.77220391988156, 503.8786501032066 -0.5466055285060065 M403.89747110929295 121.53711268298915 C442.30637488280587 77.15363979150624, 479.0302950586839 36.370751112221896, 509.61788772071645 -1.0483142523667652 M403.5385429383065 119.71537099492392 C438.05253350493 81.14299714648129, 470.4089767488566 42.76045219632758, 509.1735978007962 0.6329612764888566 M409.80670835658356 122.46763108476065 C431.6362694018913 94.87513813693703, 455.7663320058788 65.69366483480634, 514.3067556290177 -0.5661582010590962 M408.19423916305794 120.9671904099267 C440.2253072825663 85.32638086425541, 470.10875944247914 51.19615059053436, 513.653788387425 0.05212287746579136 M416.5479518221956 119.79021610565022 C455.62913856813145 73.04868869477619, 494.3240173001884 26.19574903834075, 520.7238089548594 -0.2258100423521796 M415.3294740692046 120.650601476091 C448.6002029844512 81.38056661711, 484.23114115538294 40.241539528211305, 519.8065413370898 0.34901260421355573 M418.6549696786171 119.78851786313464 C448.82567451465957 84.28986828644304, 478.82065911974496 50.743588318718665, 523.1352377457291 1.9927084662309085 M418.83076851478125 121.77413834409674 C450.52950895155374 85.84850814200082, 483.4066023993588 48.54504139626003, 524.4802915703252 1.0858755449121986 M427.22131308929755 120.51055127879965 C460.91221694281023 80.58701224604741, 495.8208922680242 42.35240943863889, 528.5545150400765 -1.313759628724199 M425.9442310362844 120.48277028123277 C463.2989147689109 75.86493680232132, 502.13244594296737 32.031774324183544, 530.2893116861276 -0.9448580956495221 M429.33934397672476 120.11887272012191 C467.8929945940464 79.12845717891108, 507.694900260527 33.25684938903525, 534.1814246353895 -0.621329834740834 M430.18333561674865 120.43932831317889 C456.34719854251904 91.97674046572325, 481.6252530370941 62.17585463919649, 535.5214897300318 -0.33914635429181317 M436.03620725434865 119.16540335868729 C467.89310419517676 82.82598367867121, 503.04320862556165 45.095504454237116, 541.3380333201179 -1.204252855233051 M435.7336439176708 120.13057858222408 C470.3117735278408 80.61147112210887, 502.9411438052324 42.4891156737843, 541.5430514260346 -0.7752621512256042 M441.7128585946568 120.9416058119725 C474.6969340085639 82.83701765600199, 508.37220049077627 43.471004306569526, 544.9077186417492 -0.7847379477241816 M440.3605830470853 121.24864898904818 C473.4365673101808 83.54862124837636, 505.0347585894341 45.896427409124186, 546.7063379446702 0.3676333517288981 M448.08003666109903 121.75330750156323 C480.50634485529764 81.74221699859189, 512.5046673234164 41.5422378500311, 551.2711411387335 -1.2581295656286215 M445.8141677914889 119.99710255094001 C483.0326390899068 80.58690921195128, 518.2945889973072 39.42319306818348, 551.7545281349356 0.3155641093604231 M451.597290876163 119.27087729493633 C490.54833587666326 75.91696633273716, 528.3184556558131 34.28301418063762, 555.7452721085582 1.6572692835306384 M450.7367783839161 121.47236404357955 C478.45265498920077 89.96710257752872, 506.15022215743045 58.07009599975149, 555.7294162923653 0.28116583484910507 M455.40895365329857 118.80404886367748 C484.17294293046297 90.90774146885782, 507.49673519878905 62.27306621563824, 560.5193658396732 -1.304979603660854 M457.0678827358636 120.96979335925559 C491.8089394520254 81.93705000147928, 525.8773280257037 42.6997558966696, 561.3761343909558 -0.2302406420163834 M460.7831681649934 121.65209732526341 C486.693894178016 93.20402435052502, 509.4874132480712 67.05571870703568, 568.0939873795663 1.3907270152737397 M462.95181420536596 120.365112148648 C485.463637682903 95.32521110572003, 505.72670184509417 70.21288881412063, 567.0509298512419 -0.039222733056078596 M467.0478605746973 119.37866260127998 C490.0836599683743 96.21424731254363, 509.86277643019787 69.82988481762662, 571.2169847666872 -1.6431428130798054 M467.1424938289199 119.42047717904575 C488.3948275291252 96.3073307740154, 509.3650897896226 70.33519265549654, 572.1258877722202 0.013837266518919478 M471.02976780489803 122.16192605920386 C506.9900781842004 82.08902570433811, 538.4609859401136 45.00975837600883, 578.3225167985237 1.632920403755179 M471.91120808956 120.16590697612864 C495.7620352030964 95.2781357041565, 517.0795847076733 70.09167386899603, 576.8967086994252 0.45016881988840396 M478.9904097690453 121.06943387062074 C505.91351344071546 89.44794400287459, 531.0524903922484 56.711619292676666, 582.8109662345349 -0.28499945741276633 M477.45133114878286 120.20535518218549 C507.13047884684295 88.27648088441279, 534.9135680589577 53.91274252233572, 583.3313718278631 0.21339608706404078 M482.06511713962686 120.40827365300751 C508.82635951590936 88.59852204979317, 537.9183116841186 60.434478532796625, 587.7682627091804 0.1323846052248996 M482.78610261462313 121.0981371978963 C509.65065521814665 90.37316405050291, 535.3735864358773 61.12944866622067, 588.2582079150402 0.2774166655574959 M487.542944551102 120.75460740817263 C519.9818317478868 87.17074207201479, 546.6311578828014 55.357392978213156, 592.6852056449474 2.024191459144845 M487.51729074458694 120.41971312077268 C518.4274119962633 87.9067318366888, 547.07798478558 54.767796449456426, 593.5539721939907 0.2542803310485624 M493.58599351293 119.53030026292447 C527.032126399168 81.41356678884068, 559.996834925819 45.57641420985722, 600.7373774552862 -0.8310952240671554 M494.0132653586805 120.36956648582611 C525.1470730451814 86.71974604109073, 556.8241756119294 51.000050321359964, 599.8925075762118 0.45497197582614035 M497.9487353225984 121.57954920973995 C527.1939540298606 88.12464481755657, 556.0199029528096 57.271594291642586, 602.2241713126841 0.3345496730656805 M498.5970707524382 121.37908300623664 C531.1093650257269 85.2594075378545, 561.8129806074256 47.91148493854108, 603.6525224197376 0.27083825057013655 M503.2579242685572 120.19841604520468 C541.0651717952315 76.097346369301, 577.5459443002603 34.23471066173151, 609.1926453226101 1.0629352325746027 M504.29508889985686 121.172333511793 C528.4954703347295 93.66142137753764, 550.4136706507373 65.71916338452533, 608.0101947030839 0.989080083014926 M510.4516253982941 119.48500401179558 C532.3598205118402 93.13066893296792, 559.3743814810146 64.93253053260594, 606.8765502915899 8.01983114282757 M508.7448172214711 120.14750059067524 C537.0124106603115 91.23474203037586, 562.6154969993914 59.215639425477484, 607.8469497933233 8.174179319731593 M516.7151867502587 122.61428115609826 C542.4772450322795 87.29903616901724, 570.893993477936 54.9493898208803, 609.5050103070162 12.213276094073535 M515.5995908162774 119.68295194767208 C543.9866726865367 86.65885660115549, 573.9230590018115 52.76530966784861, 608.0268910258956 13.917457121672214 M520.920267121939 122.18825697058946 C555.7045066299037 83.94227410978212, 590.2662369810699 41.79518210325412, 609.2446060413769 21.419107703789336 M520.4363602298107 121.51866704596341 C546.4752057940277 92.50458513796367, 570.7145539552421 62.42825695122964, 607.8076330088353 19.293853889516754 M525.5608083017844 120.51080575185503 C546.102060511888 96.83461666451673, 564.859345320668 74.57910956456843, 608.0717011581215 25.927528393560692 M526.1604136860672 120.06231046533819 C554.9793259338082 89.91760886037716, 582.7722452658559 56.847429081956946, 609.181378028639 25.139745140554055 M530.1920628372831 119.93784324237171 C551.6505979652362 94.88914955171194, 570.6755616745212 73.31689062769763, 609.2114700797381 30.89328203086444 M530.9131548555819 121.77065854397628 C550.7518721380045 97.31377419085274, 571.1742255273631 74.14316596416649, 607.7826938183414 32.43436815046408 M537.3665662668844 119.15214998872511 C552.8886143885525 103.6178323584925, 566.9032996403155 87.02955685031243, 608.4178111906856 39.365186867508896 M537.4768250873511 121.45567273666643 C553.2016838983361 98.84815877329572, 573.3263206327189 78.1347052211539, 608.6371767604485 38.36060489175827 M542.0731648880763 119.51354798339216 C568.4040383178404 92.06658309030135, 595.8531673656016 61.43121547874213, 608.6926697504234 44.86276428030277 M541.1822811769097 121.66592625658868 C561.1788847843652 99.83166999321085, 580.230638145208 76.0462948123057, 608.3495247999665 44.91286077444846 M545.6729879893086 121.3337240229585 C567.0998596851556 98.8154621036972, 584.7077695626798 79.76241157508801, 609.0053608064394 49.95286751172267 M547.3137175982541 120.99267743353181 C568.9570110423007 96.5951011321133, 588.1722966181406 71.85406744851343, 608.2916103574302 50.50494338671439 M553.3384756180689 122.22640634990091 C570.5243601839737 99.75668766445972, 586.0966138375736 81.0395199525007, 609.5724823971831 55.27921460835438 M553.0164442719191 121.45129635567571 C569.2361447648922 101.12376317220004, 585.8138440201667 82.96602913018555, 609.3511435318359 55.03084543334495 M555.989350812807 121.38218801080515 C565.9210557925313 108.47557164121639, 578.2482204484747 96.8060968530546, 609.2969433201424 61.91256506267467 M558.7016087969013 120.78733822780927 C570.5490428493035 105.00056399258351, 583.0911498813457 91.09804617254994, 607.8394498687185 63.24617137752006 M563.7316473710106 121.91870349814798 C576.3913404655638 106.31393287481285, 585.21000439562 93.5068700100732, 607.0478763347764 68.3802527514921 M561.9539742187352 119.85797001311238 C579.3471558498139 102.43833047232704, 595.8379396913166 81.43851807448915, 608.2401335630839 67.82892037925137 M567.7936820811296 119.15545210851505 C580.5588906585015 106.83850112846542, 593.0209238000798 91.88989528584696, 610.3799610755447 73.24281467661496 M568.9366412614177 120.93804379137381 C582.4661273255523 103.6296565656368, 597.7420545383328 86.64398586129093, 608.3971503724384 74.98736503605033 M573.9650824906515 118.9639745843833 C584.4873827756113 105.68997314576318, 597.3846177190478 92.02444356680158, 606.2527469649345 79.67061970552024 M574.2988260954829 121.10152340077363 C581.4783777988855 111.36686329154405, 588.3617739471797 103.98154836227636, 607.7028805298165 81.06793012359705 M580.5327591380263 122.04267647233831 C586.8058250275337 108.8550146322173, 597.4004412060807 98.98137861760114, 608.310566416396 86.47340150979358 M578.580582569928 120.52755779610055 C586.3583751078312 111.4375489349808, 593.4760410136412 103.98904092077368, 608.8467919467149 86.61597553418028 M583.7199333207418 122.26700476485686 C593.702867933268 109.40054500909929, 601.309410642969 98.89836398626561, 608.3215626024169 92.45043520691169 M584.1205799802874 119.88190769053446 C591.2789654621946 112.47837827554525, 599.6891293127277 103.15815077673885, 608.7232179811683 92.75722291847987 M591.6221093272474 118.96427125852478 C592.6311661698164 116.18933794850439, 600.9612420443615 110.72768322824167, 607.4576026574562 99.42007029868319 M590.4608253005575 120.62301891386431 C595.0080053429699 113.79718129472506, 601.5091940435642 107.01726812382194, 608.1800206406826 99.25853862400754 M593.6461022050312 119.2638291958188 C597.0348963198388 116.30835313572959, 599.0893863411551 113.22293576219695, 607.0136005909734 104.79635941191648 M594.2544409512734 120.38344905426999 C598.2754263923006 118.20957092899727, 600.6581754865964 113.68054490382967, 608.2066634952643 105.13581243577485 M599.1841589805811 119.1616982201747 C603.2211431021199 117.88129235424279, 605.7789775384515 115.6507005444879, 608.7417404444834 111.81536648456365 M600.5187852039141 120.90412473610411 C602.5396999619405 117.3907170859532, 604.5360066103713 114.79766430057151, 608.7390070784783 111.87305605128765 M604.7993587746932 121.01031425143748 C605.9843855666976 120.11702489198213, 606.1603190768432 119.09316961702554, 608.9332418301788 116.77879568641848 M605.2841081745173 120.8485931590215 C606.5798102232256 119.12269346661263, 607.66707068084 117.8745189111204, 608.7501096741476 116.80649190406157" stroke="#fa5252" stroke-width="0.5" fill="none"></path><path d="M-0.4508243925869465 -0.1442545644938946 C203.7971845916858 0.15862202694205918, 407.4817772856753 1.2918510680416075, 606.0263481490314 -0.7094356052577496 M608.0099973697215 1.6220963280647993 C606.7553412821414 28.76251858035358, 607.910566976321 59.11586006787185, 608.0107696671039 118.6868195217103 M606.6457636229694 119.6800631053746 C480.2838321926385 119.60371634194412, 352.136487401712 119.00729068944015, -0.132154930382967 119.7345117338002 M1.8432353157550097 118.5970830600709 C-2.017332840697236 82.78590468062067, -0.8712414391202403 43.75374661061869, 0.9005891103297472 0.3369447272270918" stroke="#000000" stroke-width="1.5" fill="none" stroke-dasharray="12 8"></path></g><g transform="translate(173.8671875 220.14453125) rotate(0 113.5 12.5)"><text x="0" y="18" font-family="Virgil, Segoe UI Emoji" font-size="20px" fill="#000000" text-anchor="start" style="white-space: pre;" direction="ltr">Liftosaur Cloud Server</text></g><g transform="translate(21.18359375 114.39453125) rotate(0 85 25)"><text x="0" y="18" font-family="Virgil, Segoe UI Emoji" font-size="20px" fill="#000000" text-anchor="start" style="white-space: pre;" direction="ltr">Database State</text><text x="0" y="43" font-family="Virgil, Segoe UI Emoji" font-size="20px" fill="#000000" text-anchor="start" style="white-space: pre;" direction="ltr"></text></g><g><g transform="translate(159.1171875 170.69140625) rotate(0 59.32689516702652 -14.675542492360776)"><path d="M-0.8414297293871641 -10.252672386122255 C6.910832784850912 -12.056034934295141, 27.14671233733087 -23.237733859270097, 47.20282063613544 -22.64640225060284 C67.25892893494002 -22.055070641935583, 107.36340109190402 -9.193085108102864, 119.49522006344027 -6.704682734118707 M0.9176809333451095 -10.801871636555848 C8.54011780368613 -12.378890739546888, 27.14525228439732 -21.675949014368687, 46.78580295612002 -21.306834274698048 C66.42635362784273 -20.93771953502741, 106.46964932799769 -11.024480630552029, 118.76098496368132 -8.587183198532022" stroke="#000000" stroke-width="1" fill="none"></path></g><g transform="translate(159.1171875 170.69140625) rotate(0 59.32689516702652 -14.675542492360776)"><path d="M90.60953407040716 -2.865872432988999 C99.05230235467337 -5.685786691941718, 111.76643312115165 -6.29736984923441, 118.5358339631369 -8.851130478655852 M89.13851567874582 -4.394656317819772 C95.87936763875895 -5.152273725738262, 104.71412831967238 -5.87211213474003, 117.98546298401408 -7.808663716180183" stroke="#000000" stroke-width="1" fill="none"></path></g><g transform="translate(159.1171875 170.69140625) rotate(0 59.32689516702652 -14.675542492360776)"><path d="M94.97043545732296 -22.91836707778159 C101.74951063361931 -18.6013534843706, 112.90489332752254 -12.04543052201727, 118.5358339631369 -8.851130478655852 M93.49941706566162 -24.447150962612362 C99.31056045405296 -20.17960969030583, 107.05491238123878 -15.885481087725612, 117.98546298401408 -7.808663716180183" stroke="#000000" stroke-width="1" fill="none"></path></g></g><g transform="translate(257.68359375 109.21875) rotate(0 74 12.5)"><text x="0" y="18" font-family="Virgil, Segoe UI Emoji" font-size="20px" fill="#000000" text-anchor="start" style="white-space: pre;" direction="ltr">Migrate v2-&gt;v4</text></g><g><g transform="translate(380.62311940474103 164.36968126655236) rotate(0 45.793101145131686 -2.297786934009764)"><path d="M0.8266795087605716 -0.1534326184540986 C16.22194548593839 -0.8548621411394994, 76.83130811834735 -3.852888622021636, 91.78465476874294 -4.442141249565435 M-0.19845247847959402 -1.2795886884815992 C15.094881083332055 -1.8406403516937715, 75.36199718866524 -3.210775306949725, 90.86499847127156 -3.4112764902729813" stroke="#000000" stroke-width="1" fill="none"></path></g><g transform="translate(380.62311940474103 164.36968126655236) rotate(0 45.793101145131686 -2.297786934009764)"><path d="M62.61581692898379 7.466163017306546 C68.31323428605091 2.501589249503663, 76.59738452037831 3.414400204142196, 90.09588385960119 -5.342696430938346 M63.57622866851942 7.501242141690175 C71.66644865148487 3.258155668841615, 81.17975295000731 0.5928579910156575, 91.2797737077813 -3.7958349285964195" stroke="#000000" stroke-width="1" fill="none"></path></g><g transform="translate(380.62311940474103 164.36968126655236) rotate(0 45.793101145131686 -2.297786934009764)"><path d="M62.23109003855545 -13.051438879738367 C67.98517299843354 -12.866934436263959, 76.36592363138246 -6.802394888374916, 90.09588385960119 -5.342696430938346 M63.19150177809108 -13.016359755354738 C71.21238405988782 -10.665093164953745, 80.84934043012854 -6.735988308463562, 91.2797737077813 -3.7958349285964195" stroke="#000000" stroke-width="1" fill="none"></path></g></g><g stroke-opacity="0.6" fill-opacity="0.6" transform="translate(58.37109375 141.5546875) rotate(0 44.13671875 25.248046875)"><path d="M0 0 C0 0, 0 0, 0 0 M0 0 C0 0, 0 0, 0 0 M-0.3238362922938416 6.478472971220605 C2.164817089708579 4.255623769794, 3.3616903627362467 1.281065665158108, 5.254577188523954 0.6348216790554339 M-0.11502567563670368 6.775749627922766 C1.3017110346215754 4.3560496729720555, 3.03770965089285 3.0437507621696156, 5.092317980485505 0.22059045506988106 M-1.1311935669649733 11.535507627248347 C2.5886421151013987 7.755303076152986, 4.6851222438160605 6.1003619046313045, 9.95534378285421 -1.1016469468280912 M0.03777804533947582 11.764205175309955 C3.1687973790203423 7.37010093818111, 7.48174902351621 2.9346264044459023, 9.909448542398346 -0.5107989919290183 M0.17182640260548787 18.392597050313526 C6.584815059537593 11.743590930188372, 9.424619730829274 4.516171437163287, 16.007473265289743 -0.2200458620744774 M0.19458435284437137 18.94161303145873 C5.740597392238086 12.451652771409552, 10.479570546270287 6.1726559665787555, 14.728325315288682 0.029259636711793213 M1.845959788393161 24.285302713229417 C7.413718372805549 14.373734905257011, 17.105619850275723 4.066138851871049, 19.644340891668463 1.7764035234391216 M0.2364240076578472 24.38363083889252 C4.990962674264337 19.04330813221715, 10.333095488690253 13.196094635409827, 22.20540573382553 -1.062600712834346 M-1.0200162240723714 31.93734327680265 C5.924917946524801 22.19107399133774, 12.021440125824942 15.787551831005771, 28.209543944012733 0.832297672891313 M0.9966791589324728 29.840176303636483 C6.241071189117006 22.97345102648361, 14.22073781306451 13.838522588053946, 26.792167517964156 0.6548358820390643 M0.2574842496681491 37.34284949284171 C7.516959688439026 29.39653202827375, 12.911051068000553 23.808665176278907, 31.337649210772312 0.36088588286780166 M0.34860243917438183 37.70897514820223 C9.301215778875562 25.80501461873338, 17.058756397449645 16.422394607743783, 31.1985863917012 -0.3404534988791461 M-1.6399060309260136 42.216655238155056 C8.363887306893753 33.61486539798818, 17.139543508077946 21.765013833829066, 38.224534239434945 1.3274588958453855 M-0.6304519566102869 41.574276532601345 C7.996750143756264 32.7526019971435, 16.001288862103525 24.536734752299854, 36.120753525571274 -0.2713800174090544 M-1.3131845183671302 48.570926255219504 C15.910503628574073 28.921964721722002, 34.15494298000299 11.216890252349401, 43.56335956845038 -1.475827741590237 M-0.470955357886929 49.81473179501377 C13.471036096667696 32.463319631087266, 29.173077097970737 16.917671947699063, 41.64559776857101 0.24433028123816314 M2.602111412766085 53.48056434995243 C17.654371328176428 35.94309896879328, 32.96429851082257 16.557973288224957, 48.98359649530637 -1.0797770369622661 M1.4056356713126164 52.400048649560006 C15.202899575273623 37.16752706718029, 27.663655045155945 22.640693013774385, 47.15866341623503 -0.424436889757569 M6.250696117942386 54.452222354385086 C19.566538195069732 39.92511744526161, 32.2906623694772 25.676935231100845, 52.98699930845267 -2.0633271936849944 M7.970420984503978 53.291256148974426 C18.511554832497758 41.315612782026804, 27.759995860977593 27.85295385499259, 52.74883244255996 -0.6161107006074182 M14.557153740659 54.227384966217045 C21.57061122024445 41.048640900530295, 34.15056168044223 29.163807648849208, 56.38663305537702 1.7966250307183707 M12.055424910731258 51.27503552415973 C25.135577288320363 37.058151438323065, 37.443479431453916 22.806246435357586, 59.116102268080425 0.0049914368685328725 M18.537674328403654 54.0760304279251 C32.379743572661866 38.59746147243163, 44.308726125658765 22.919120325312736, 64.24284577452917 -0.19995231716647055 M18.134082370529057 52.28863186329584 C29.064784755049708 40.07649395842335, 40.30773943941635 27.543485756144033, 62.97630799179305 0.7547372274591098 M21.95573091962613 53.84500178609494 C40.79999986862761 34.3323017169095, 56.11931492426312 15.811131614265847, 67.30229626339688 -1.326049744862722 M24.445665962894036 51.49947537117157 C33.31757037919261 41.39396329661505, 42.643799008925 31.295872128540232, 68.96890015923246 -0.6893938656557665 M26.761107311814147 54.30818353320339 C43.855090717769954 38.02663839383288, 56.20682855412194 21.12073835198739, 75.9339263104299 -1.152792955784662 M28.903063733360785 52.686608010966864 C45.4938244400458 32.87719813024802, 62.5078105377891 13.895688535287967, 75.06166699439528 0.017762737312750687 M35.02587029341748 53.44132496583613 C44.054267108687185 39.7375369189586, 51.05172490180648 29.792760749823838, 77.56798846311597 0.8007337925444773 M34.49750140592596 52.54675686247053 C49.80944281236097 33.971882143060085, 66.27076687991257 14.280040791382362, 78.45851216781614 -0.7295166254554459 M38.38339741192385 52.77221682646996 C54.81462150367102 33.19864148096721, 70.28232279908394 15.377464113710303, 86.63201825990484 1.342311046710421 M39.206320151124146 52.07576076386249 C52.84461923100926 37.253195697445356, 64.98737836582907 22.56082979423848, 85.00417702849165 -0.18177049917150612 M43.964349205783044 53.65551466169059 C61.78013588539682 34.923232039136494, 78.36459253775462 17.323335336996948, 89.33380296929376 0.7114703794127237 M45.39769881795201 52.87464366993159 C55.03334930906645 40.491196321089774, 66.74761991162305 28.256201424607184, 88.43595934296594 0.90178390956725 M47.835696972482786 51.622915463974806 C58.37544535559661 41.006317999211575, 69.12725614541138 31.444098003615434, 90.31705867679894 6.627865648796501 M49.73843170194416 52.531041293857726 C66.11543697301383 34.21858239514525, 79.65814648152438 16.55003162957997, 88.5081403823021 6.332871992109062 M56.93669500047283 52.657981029908335 C64.18249421712774 41.24764179883138, 77.37752810534683 27.51852259558902, 89.18981571981317 11.28312929511084 M54.59865077709721 52.92527446542976 C64.45062566284544 43.234804474922896, 73.48612830446119 32.574493210670596, 89.9891203569398 12.517268034406143 M58.51790833724093 51.54631460196794 C67.58166907867317 40.187253138437924, 76.83999269429597 32.24637941755313, 90.12256102082421 19.011692685832507 M59.959603463945804 51.61177577282758 C70.6572709533182 40.20738588405173, 81.80508864242724 27.856950443888795, 89.72831074991365 20.156865562138385 M66.07718502123684 52.150384226739355 C73.77560893558947 44.555516053107844, 77.68547030882308 38.456024295997885, 89.72056449328178 24.037351992547226 M66.81837486148656 52.12516292084003 C74.80058648442898 40.84236040843718, 84.3903868849312 30.176312564049802, 88.99721072272027 25.027493217594635 M72.7986838499483 53.75969939669936 C76.14545639844314 48.26647417669908, 78.9623031690052 42.36476221874224, 88.46290680967368 30.823444832731795 M71.0956655152541 53.36166537264704 C78.19354948950189 43.57655392709663, 86.0186654009209 35.94152030730197, 88.39718488339432 30.360341401454818 M77.44690081620334 51.40013395224579 C81.13134692115216 49.22288206482385, 84.13620516817586 45.63241188182114, 89.9390255867467 37.13307121080712 M77.02098450175232 51.89371908686936 C80.53161396537811 46.0985917250687, 84.9636537811022 41.38221266251754, 89.58347277748032 36.94341511369117 M81.8640339555142 53.373256066639385 C83.35743935147134 48.616548913816175, 87.3810740695357 46.68814307935027, 88.47478581431415 42.81505642636527 M81.33762220329768 52.951564823102615 C84.84192273896802 48.93866880204751, 86.78289968389319 45.57702568989233, 89.5497799985772 43.45932498807866" stroke="#4c6ef5" stroke-width="0.5" fill="none"></path><path d="M-1.7574028689414263 0.4061133284121752 C34.23748519253204 -1.6355134350925074, 70.74436475486 -1.3173143369823084, 89.32444831542671 1.343071462586522 M-0.29291421081870794 0.7381295701488853 C24.097654187223092 -0.042302342968541795, 48.24975918347046 -0.15351361306245964, 88.55363091919571 -0.7834620038047433 M88.29373284988105 -0.32316589169204235 C88.48518102565028 12.729396162391277, 89.97878288426615 27.03708707694823, 90.04510727338493 50.76772481389344 M87.75582870934159 0.5060661276802421 C89.05243903218765 15.45962703605801, 88.78504016815681 30.753198587441148, 88.71043753717095 50.924888028763235 M88.19000521115959 51.13607913441956 C59.62496600025115 49.69187236876016, 30.827167313634703 52.14957876057153, 1.2648945730179548 52.22202789969742 M88.97509718034416 50.310523643158376 C59.632726100869334 49.401399392433014, 30.56586867038132 50.389410305566635, 0.5393871376290917 51.252614243887365 M1.2226129453629255 51.24557936377823 C-1.936971918031959 34.18949177479408, -1.9022743257735055 21.924299647846055, -0.19569418020546436 1.646227302029729 M0.5283738682046533 49.63108585681766 C-1.2871845699636832 32.44045528529059, -1.3080719746439353 14.414725493487637, 0.08775144908577204 -0.14980118069797754" stroke="#364fc7" stroke-width="1" fill="none"></path></g><g transform="translate(90.0078125 154.302734375) rotate(0 12.5 12.5)"><text x="12.5" y="18" font-family="Virgil, Segoe UI Emoji" font-size="20px" fill="#364fc7" text-anchor="middle" style="white-space: pre;" direction="ltr">V2</text></g><g stroke-opacity="0.6" fill-opacity="0.6" transform="translate(284.35546875 139.498046875) rotate(0 40.249458124410864 22.373046875)"><path d="M0 0 C0 0, 0 0, 0 0 M0 0 C0 0, 0 0, 0 0 M-0.9618231296213219 7.015848336418264 C0.5470311708543253 5.057366360645051, 3.128396933438326 3.2973645434331478, 4.290299696060366 -0.4040170308354085 M-0.026009542834932564 6.073496102218621 C1.102885794181115 4.903833261095831, 2.757131114349922 2.738520654775244, 5.127267145323104 0.05172633080158767 M0.8680399918090211 10.938623206734238 C3.112043051583936 8.709852270516405, 5.3475757525816325 6.020930739901814, 9.858761778426302 -0.8115826864645123 M-0.06849206675778763 11.599624128311454 C3.2963885642718544 8.712978734604759, 5.417612063987153 5.979994124766545, 10.177086425525081 0.23745741872934123 M0.9828987856814404 17.667600509618097 C4.4682474993347245 13.537263006909592, 8.48762872004772 11.201691655785197, 16.859210917263706 2.00815257308306 M-0.6999136843299727 18.626860588696474 C5.563179765088334 11.941423163383817, 13.013256791044672 3.6948103498984715, 16.178361854053517 0.7430223540333083 M-0.7712900245376613 23.019582729502677 C10.167640087409769 13.007162008820076, 15.504552533427244 4.389144977857889, 21.32157485959854 -0.46273052374129264 M1.1365685977227304 23.263137860871016 C8.610487736377252 14.797413880985305, 16.370593312231115 6.229000062263907, 20.63112852470752 -0.9977620482281324 M0.208341362937297 29.986425820503584 C4.805056799159343 25.53760566992401, 12.41362006555959 15.378987202005217, 27.333493862908693 1.0188326997694315 M-0.43222327525267445 31.290775752391866 C6.355564762001718 21.550833410819145, 15.365015233290606 14.63063673675963, 27.090577827442797 1.2188847254973592 M0.2173173091280738 38.4444626828668 C11.220826540288925 23.148313057038173, 19.465508239694934 11.141620859787302, 30.52037944220642 -2.0681125613615627 M0.3318925284686962 37.10487547405188 C11.559317148912562 22.749116837964976, 22.61973319896918 9.409808216981109, 31.53591156047473 0.6827683682798629 M-0.22813469994356694 41.83057309183829 C7.384680750477662 32.907290519288, 16.244324971526236 24.511576841791978, 36.916610121541964 -1.4776359162199775 M1.1036212781117314 43.0233897991439 C13.85064278586983 27.434993808960893, 28.05296891835984 10.141629121485764, 36.35236884355669 0.03163445658055153 M-0.0785840532558737 47.829683697664045 C11.373443236818286 36.313618633653775, 24.471145916550167 23.95148437593384, 42.52650366592758 0.4529015802173859 M2.8379416804013076 47.44337306346079 C10.150941619583461 36.52148311007247, 20.915431673551456 26.12873051914479, 41.92344834990405 0.3697418084694988 M6.529280072184431 46.798139284921724 C21.654033105487024 32.71976702129575, 32.91338300199882 18.569307749150525, 48.388344849413514 1.528024068864827 M8.082032966533827 45.733102424627084 C21.596442691559602 30.875210943891872, 34.75683627455121 13.877479446944207, 46.72618607427019 -0.5382108745921208 M13.40032230547505 47.01713689563948 C24.516475957314405 34.79119682945377, 35.63758174184133 20.22899822129463, 52.13535768701202 0.3439642447455533 M13.134198486310119 46.95426198521781 C27.448835908545007 29.933363297691628, 42.23483583887233 14.651079759958876, 52.92337756487048 -1.1485116495342247 M17.71464166162825 46.28603422484052 C27.027042075027012 35.72018865761349, 40.694573066998544 21.568920917780208, 59.059733202773344 -0.9861600012261427 M17.50879628794557 45.92400118830305 C30.074795348279025 32.82267028105992, 41.851275973363215 18.801090444213575, 58.4588556914583 0.055491310104354596 M23.811304164694256 46.42107416343913 C34.49190015586782 36.04298504281196, 42.4338527059676 22.84771755063157, 65.67360166170974 -0.18252222402706053 M22.75122174119354 47.18240936034397 C36.05550827916056 31.8771530581864, 47.142750203467806 18.84601480665309, 64.64971287724902 -0.31803692760630753 M26.749315079685346 45.90520815645853 C43.27765406578732 28.580310975531628, 59.00232679854699 13.39800555889417, 66.77306033787146 -0.07341078274290425 M28.030129769269422 46.11108906941065 C41.88810252927552 32.51215906243635, 54.56584375630973 17.38940520257202, 68.28157886699601 -0.37549141120504004 M35.37164668065174 46.613272844813004 C48.39399406965846 30.89642136089632, 61.95599920673312 14.262338782132993, 74.99914574627074 0.054594517649547925 M34.23271261692657 47.12708276696427 C44.450911022485094 35.4280001666759, 54.895283693337916 22.59628660867784, 75.20084295891466 0.1807460523782538 M39.86621048260572 46.46181342352576 C54.62819712879011 31.22862606860968, 67.90065364351213 14.427911077844854, 79.90186141095785 -0.8182009319354364 M39.55692208238038 46.8014461460749 C54.53628948522299 28.86478016065218, 69.34227966624931 10.421101218068287, 78.40993177275834 0.2462335396047166 M42.82988500959751 46.13426028351109 C58.79262766350157 28.63259554932823, 74.67512508288993 12.053117500235054, 81.53297300997352 1.46934555419368 M43.60674728538421 46.05317478320371 C54.94751515106221 33.20668198876074, 67.52118830729263 20.925444185840433, 83.69135439477091 2.6971711092127606 M50.829488026639375 45.73075236979221 C61.58471849110542 35.43889630244283, 70.38127413165085 20.48037672845324, 84.13427225938693 7.965552277396739 M50.984436899153444 45.267777496420784 C57.035131371169165 36.83567041541752, 65.9705681752078 28.480566273205742, 82.32721626172469 7.565489123109103 M53.46580430778156 47.493313823283394 C60.7294652873639 39.68162230612315, 66.69548546759026 31.162240702197497, 83.63490331916296 12.727479031583073 M55.38577691844146 46.491202987187286 C65.03763904418207 36.26272333119633, 73.66317309979837 25.21489779631203, 82.62779556678765 14.62916412324995 M58.27849883904581 45.21038691923065 C66.07230780744462 39.320198061198084, 69.3338774404914 35.31188259730584, 82.84268221335178 18.602618707666995 M60.53625386247312 47.30312277879609 C67.06786810586841 37.95547649569209, 73.98141876928746 29.35792209640807, 82.15411267971312 20.66266043609649 M65.0904397314539 47.168460807879924 C71.26001765003106 41.384670450703474, 79.9835652161108 32.15889112946603, 81.62930517797518 26.859882330894465 M65.56662768797332 47.23730995704001 C70.93510021782613 40.79831992988509, 73.73799188202662 36.261623973714656, 81.93438849472601 27.53666520994156 M70.36503278023365 45.18887289502585 C75.17782525132804 41.28744316077779, 77.66857242527433 37.30399065133841, 83.26480677577356 32.157549962861864 M71.34969216996606 47.182274667973836 C73.78636480356404 44.30145577646953, 75.3761140560007 40.62028483691082, 83.80150525679501 32.629927349225085 M76.15070246566303 46.00951471443687 C77.57742218938763 43.053775349101045, 80.32006496670444 41.10728468012857, 82.81356279250392 39.13937184051382 M76.44291463015817 46.38290705935497 C78.4778799070799 44.48442408712045, 80.30131504478976 41.499119623848905, 82.8875293464043 38.578895166281185" stroke="#4c6ef5" stroke-width="0.5" fill="none"></path><path d="M-0.6730659585446119 -1.566884906962514 C25.444838835910062 -0.45514330151549875, 50.88739153380712 0.21506759640701711, 82.04419575355301 0.18697288446128368 M-0.6836798647418618 0.08924904558807611 C29.796906290617766 1.505161895006848, 59.94651309874839 1.4559465484320646, 81.45898141901294 -0.6941696992143989 M78.93887148521195 -0.9207842070609331 C81.14474938916906 13.923354232678317, 82.28399913120016 22.88324393889706, 81.03234092614899 45.68869301490484 M80.32059207002918 0.11356550548225641 C80.02771701360585 13.077718109101621, 79.11964314127805 27.335511803114052, 79.95235800187389 43.832955331541584 M79.89520208261261 42.85957667045294 C57.12529233740425 45.28033637767734, 35.33689084720077 46.23309808736743, 0.21381724067032337 45.91811814717947 M79.84952926080028 44.18679496739058 C61.30919354135525 45.02659324945848, 41.60847173639996 44.86683369817178, -0.08736993465572596 45.311977983452365 M1.040469290688634 45.23922458104788 C0.27820750428018065 30.683133512624394, 1.9767643446999499 21.201167734117906, 0.4173287767916918 0.8773845117539167 M-0.9454095521941781 44.88159978482871 C-0.6603698759567125 31.758866218757237, -0.40080115490072793 17.467188293860083, -0.5822002151980996 0.6134121725335717" stroke="#364fc7" stroke-width="1" fill="none"></path></g><g transform="translate(311.4079222661162 146.87449760421066) rotate(0 13.197004608294947 14.996596145789695)"><text x="13.19700460829493" y="20.993192291579383" font-family="Virgil, Segoe UI Emoji" font-size="23.99455383326351px" fill="#364fc7" text-anchor="middle" style="white-space: pre;" direction="ltr">v4</text></g><g stroke-opacity="0.6" fill-opacity="0.6" transform="translate(481.6841356255891 139.451171875) rotate(0 40.249458124410864 22.373046875)"><path d="M0 0 C0 0, 0 0, 0 0 M0 0 C0 0, 0 0, 0 0 M-1.0268219604762145 7.05728413989126 C0.8528080635360391 5.06658193754359, 3.5653354589279536 2.8276928317550447, 4.6422195720993935 -0.07968075090672433 M0.1370645400462796 6.622550861214392 C1.319333729336271 4.613180946169669, 2.7333979067257324 3.364177932764976, 5.275339287477082 0.44210024549041327 M0.6079095595609054 10.98252815794903 C5.264305311156157 6.309109452866883, 8.326060226535649 2.72036811146377, 11.329804575395716 -0.10473017589303235 M0.15980210463513012 12.38757143583852 C2.362435102759666 10.204309637815701, 4.1804651751981545 7.703584168424063, 9.839721503061188 0.09528516410735866 M0.7020972175011178 19.0951028772636 C5.915662871281212 12.563858002121904, 13.229951532140284 6.68324904305654, 14.844880615829904 0.2701720620435646 M0.07681642281354861 18.165862513613575 C5.235619962777673 12.826650624556045, 10.060451442721776 7.489653347876457, 16.268695660404344 1.246188714813905 M-1.2095161618479278 25.40570862562871 C3.295339191851528 20.513840349831476, 10.736789876769299 15.119695445415374, 20.354253430196906 -2.0354491701186177 M0.42684928441413383 24.402165141604005 C7.809905604818184 15.272270846461002, 15.646729443575012 7.834739547035124, 20.2916401841658 -0.43944833761309354 M-0.720565111325179 30.74200669652616 C6.436556895692864 21.22901071435835, 12.054905847130991 15.003160198845032, 27.677947998654457 0.16441928353279245 M-0.18011739658663117 30.69364484096711 C8.962426403217071 20.8087512266273, 16.323511318824163 11.951236441670304, 26.463694784466536 0.9475172184419574 M0.9853487535286227 36.09031534176444 C6.681538957039728 29.443318855234253, 13.453092929962146 21.23783748024698, 31.833343609652317 0.025214219583499897 M-0.7497372376826128 37.754433584214496 C10.578806461342872 24.181355203939386, 20.19324929345307 13.483350863295442, 30.990928935303188 -0.17353128723211242 M-0.02732930782725873 42.907655938152004 C12.827636655497532 26.07875304017444, 26.86385193149787 11.279520776359906, 36.64913031067823 -0.9955861194896976 M0.2914377061323279 42.110186781357754 C8.868853854234533 32.68265397828222, 16.78969703379954 22.423173707313026, 37.44052755721037 0.5409012335446199 M0.24139283906642817 45.43425298749735 C17.02009790425925 31.869016682668217, 31.08197790686503 15.57258016027729, 40.70128114018195 -0.8636386871011013 M2.2522069423643174 47.4418332799085 C14.327033116734054 33.84076428929855, 26.07252108108736 20.150803574224334, 42.14551324918472 -0.3355050144390219 M8.38273129064046 46.74190537594064 C15.011971601505468 35.30720993581076, 23.631907851350192 27.63375556185708, 46.75207989565122 1.3824410092260884 M8.301148627991008 46.66519662421002 C22.308859308580647 29.609787933542346, 37.64891176224939 11.243233021058792, 48.11252405676085 -0.6174580680031134 M11.081799699430043 45.61242049707252 C24.40942048948225 31.698249356005284, 39.90687986536933 14.97853432354064, 51.6860933655358 -2.094097733922421 M13.438043163594479 45.84067917855609 C27.62172018210994 29.218847745683068, 41.033336790603045 12.448709254391119, 52.426535703935386 -0.20198084735882205 M16.92628985388494 47.7559226474787 C28.088700111525082 32.48300517313788, 39.304980197417464 20.234305179562313, 59.94919909732343 -1.5779641740698374 M17.77130377317137 45.422820522735535 C32.1509103737997 30.117069742254245, 45.32323532382773 14.822747096535014, 58.15863936124296 0.3130154856737697 M22.565204301492876 47.93457756963596 C36.53813918268363 32.677461909951546, 50.98451016665601 15.931499205493953, 65.48455762946386 -1.5270027646304598 M23.14545912725628 47.415271994928275 C37.58085686161736 30.831988294625624, 50.59727734831217 14.860274568825023, 63.770763877680196 -0.0651951141165128 M30.64482858070363 46.23741581013003 C39.04627468615625 36.23188952201374, 48.14748723335798 23.023317351742346, 69.17164025944486 1.7779834868725075 M28.545875574845866 45.67687004992315 C43.29374225227633 30.424999868446804, 56.515043700011944 13.595718334718736, 69.02345354878172 0.6572730664502515 M35.24775898900493 46.43050936143769 C41.1551688093416 38.81753542037665, 51.552360550358344 28.987882257897635, 72.76220127571615 0.5080563770247863 M34.00653491147472 47.30306290090008 C45.7066497010626 32.83756610178034, 57.607311645656814 16.852743873439884, 74.38059034854415 -0.23300914283709062 M39.82887481484654 44.23179502014465 C51.68469755788982 30.30197441624991, 64.06827922531106 18.152389719723132, 80.3193057257655 1.6363191483031443 M40.014756611139504 46.93198387764789 C51.61070858213774 33.19631754229756, 61.57532361034242 19.693021948919654, 78.91717169750211 -0.7753591537986466 M42.6543661057162 45.6612510287277 C53.08375110840633 36.32773080845713, 65.76229295420094 22.53021700695861, 82.18512456107115 1.4768685879616186 M43.41897559437481 46.12587806834649 C54.40740040407201 35.89412946110699, 62.65904441725878 24.548459046747865, 83.75585560768073 2.2352194790227458 M50.737705900063666 47.31572043377255 C59.397231570598315 36.94346002228716, 64.95107487148533 30.091745184907467, 83.04419852113978 9.016133348922551 M50.833464460177275 45.677175677784724 C57.76066748139139 35.44464391921086, 67.14012598224873 25.194711109337366, 82.59897456663356 7.610625379252554 M53.27867799537669 46.71908772775598 C62.290019112510976 34.943051258744674, 72.8222793749064 27.72434618462134, 83.79576453937375 13.659439826657774 M54.54611125408153 46.989918669142504 C62.67498598178188 36.81182853506279, 70.94441968028487 27.530022729633092, 83.06961194330984 13.547475225565734 M58.94329015111451 47.351811787486504 C67.16286219131555 37.08442078724118, 76.31817024415199 26.47020512768149, 83.12007516326075 20.6377037636441 M59.26708267109369 47.14054370243145 C66.68143434092175 39.06900241389509, 74.27093373416537 31.123293968116073, 82.74667140824413 20.065045356142225 M64.5830970017364 45.22755461477256 C71.17521044948707 41.746063695557105, 73.83859536888079 38.34787954982728, 82.03860690226007 28.26341528668999 M65.3168969687199 46.48576087516314 C72.52463809332558 38.87154084239786, 78.47662571967959 32.60955574072196, 83.19383528144259 26.29250680599361 M69.98740952412399 45.536677225874016 C74.67624425650631 44.565083856232555, 76.47806193504604 38.041792610110086, 84.5555827642108 30.6052878166497 M70.80438473887543 47.24726849250423 C76.25843073543597 41.641867031007, 80.83780616006084 36.55090141931799, 83.14412435356218 32.096347396675895 M76.62705198150344 45.87699384692524 C78.57800203654857 42.99282032604073, 80.39690773412615 40.42537247737136, 83.79110791791388 38.220120504729024 M75.84062065543823 46.05045335305322 C77.76495718085621 44.713514614917564, 78.79933606358323 43.00505648432564, 82.76072752127581 38.72799438866558" stroke="#fab005" stroke-width="0.5" fill="none"></path><path d="M1.5557124894112349 -0.20242363028228283 C17.69156838256198 0.8632158866670026, 34.750792729692215 1.4546464911248578, 82.43116528637061 -0.40670847706496716 M-0.9015306821092963 0.21244390215724707 C24.12408007151277 -1.5762813589238656, 46.5473358217779 -0.8456537923478614, 80.68056018281082 0.13433758821338415 M82.38061339504371 -0.5970547180622816 C79.99249956287208 17.895935497339448, 81.5938513604528 32.90064637008981, 80.54117513544212 44.62480980344115 M81.29941446709732 0.8494943818077445 C80.61235736723107 16.024685139936988, 80.75305863137406 32.6010437676341, 80.49785492944817 45.51514626946299 M79.83615852243553 44.767883362248526 C48.63567112515472 45.82716086528765, 17.754426205290912 45.38280579469668, -0.8688665945082903 43.68671024031936 M81.42233512926201 45.098871483467505 C63.326250297192985 43.91373306385006, 44.44647501254828 43.8116980480286, 0.8285863706842065 45.43879304733126 M-1.4036408979445696 45.59630906768142 C0.5199946245766114 32.81513007080683, -0.9982023754500915 25.69081333284338, 0.10530569963157177 -0.7885730843991041 M0.126807720400393 43.88156519737093 C0.6588491859054556 34.108469818433136, 0.33341542502403165 22.381744945781968, 0.04207748267799616 -0.8778336504474282" stroke="#e67700" stroke-width="1" fill="none"></path></g><g transform="translate(488.7365891417053 146.82762260421066) rotate(0 33 15)"><text x="33" y="21" font-family="Virgil, Segoe UI Emoji" font-size="23.99455383326351px" fill="#e67700" text-anchor="middle" style="white-space: pre;" direction="ltr">HTML</text></g><g transform="translate(439.3671875 109.55078125) rotate(0 78 12.5)"><text x="0" y="18" font-family="Virgil, Segoe UI Emoji" font-size="20px" fill="#000000" text-anchor="start" style="white-space: pre;" direction="ltr">Generate HTML</text></g><g><g transform="translate(566.671875 161.77734375) rotate(0 64.13923114311882 -1.43218501098454)"><path d="M0.6995097566395998 0.435462750121951 C22.11942299691339 -0.3049118269234897, 107.44778636383512 -2.766410480812192, 128.6708486367017 -3.299832772091031 M-0.3923863504640759 -0.38152325140312326 C20.9457217708913 -0.47679313944652685, 106.94806392964597 -1.9780312262661754, 128.2595690198429 -2.178218163717538" stroke="#000000" stroke-width="1" fill="none"></path></g><g transform="translate(566.671875 161.77734375) rotate(0 64.13923114311882 -1.43218501098454)"><path d="M100.93909604107094 10.175128294022457 C107.55955948527571 5.627567658684379, 117.21848049598206 0.7744689700884209, 128.34072873258964 -0.5177241658605634 M99.42299499088031 8.461334542238788 C111.20090778197294 3.8370324781081484, 122.67183205354657 -0.6934072114265692, 129.2080064563267 -2.1547216541878877" stroke="#000000" stroke-width="1" fill="none"></path></g><g transform="translate(566.671875 161.77734375) rotate(0 64.13923114311882 -1.43218501098454)"><path d="M100.65541470467726 -10.344119433056171 C107.55990668471948 -8.478727564820284, 117.30751048097254 -6.917220100987411, 128.34072873258964 -0.5177241658605634 M99.13931365448663 -12.05791318483984 C110.94962081844147 -8.777367535381018, 122.52984425445047 -5.401976478616493, 129.2080064563267 -2.1547216541878877" stroke="#000000" stroke-width="1" fill="none"></path></g></g><g transform="translate(707.515625 147.67578125) rotate(0 80.5 12.5)"><text x="0" y="18" font-family="Virgil, Segoe UI Emoji" font-size="20px" fill="#000000" text-anchor="start" style="white-space: pre;" direction="ltr">Send to browser</text></g><g transform="translate(283.0546875 10) rotate(0 147.5 17.5)"><text x="0" y="25" font-family="Virgil, Segoe UI Emoji" font-size="28px" fill="#000000" text-anchor="start" style="white-space: pre;" direction="ltr">Server Side Rendering</text></g></svg>